<?xml version="1.0" encoding="UTF-8" ?>
<svg version="1.1" width="144" height="80" xmlns="http://www.w3.org/2000/svg" shape-rendering="crispEdges">
<rect x="53" y="19" width="1" height="1" fill="#DE9E41" />
<rect x="52" y="20" width="1" height="1" fill="#DE9E41" />
<rect x="53" y="20" width="1" height="1" fill="#E8C170" />
<rect x="54" y="20" width="1" height="1" fill="#DE9E41" />
<rect x="46" y="21" width="1" height="1" fill="#DE9E41" />
<rect x="53" y="21" width="1" height="1" fill="#DE9E41" />
<rect x="59" y="21" width="1" height="1" fill="#DE9E41" />
<rect x="45" y="22" width="1" height="1" fill="#DE9E41" />
<rect x="46" y="22" width="1" height="1" fill="#E8C170" />
<rect x="47" y="22" width="1" height="1" fill="#DE9E41" />
<rect x="58" y="22" width="1" height="1" fill="#DE9E41" />
<rect x="59" y="22" width="1" height="1" fill="#E8C170" />
<rect x="60" y="22" width="1" height="1" fill="#DE9E41" />
<rect x="46" y="23" width="1" height="1" fill="#DE9E41" />
<rect x="59" y="23" width="1" height="1" fill="#DE9E41" />
<rect x="50" y="24" width="1" height="1" fill="#EBEDE9" />
<rect x="51" y="24" width="1" height="1" fill="#EBEDE9" />
<rect x="52" y="24" width="1" height="1" fill="#EBEDE9" />
<rect x="53" y="24" width="1" height="1" fill="#EBEDE9" />
<rect x="54" y="24" width="1" height="1" fill="#EBEDE9" />
<rect x="55" y="24" width="1" height="1" fill="#EBEDE9" />
<rect x="48" y="25" width="1" height="1" fill="#EBEDE9" />
<rect x="49" y="25" width="1" height="1" fill="#EBEDE9" />
<rect x="50" y="25" width="1" height="1" fill="#EBEDE9" />
<rect x="51" y="25" width="1" height="1" fill="#EBEDE9" />
<rect x="52" y="25" width="1" height="1" fill="#EBEDE9" />
<rect x="53" y="25" width="1" height="1" fill="#EBEDE9" />
<rect x="54" y="25" width="1" height="1" fill="#EBEDE9" />
<rect x="55" y="25" width="1" height="1" fill="#EBEDE9" />
<rect x="56" y="25" width="1" height="1" fill="#EBEDE9" />
<rect x="57" y="25" width="1" height="1" fill="#EBEDE9" />
<rect x="47" y="26" width="1" height="1" fill="#EBEDE9" />
<rect x="48" y="26" width="1" height="1" fill="#EBEDE9" />
<rect x="49" y="26" width="1" height="1" fill="#EBEDE9" />
<rect x="50" y="26" width="1" height="1" fill="#EBEDE9" />
<rect x="51" y="26" width="1" height="1" fill="#EBEDE9" />
<rect x="52" y="26" width="1" height="1" fill="#EBEDE9" />
<rect x="53" y="26" width="1" height="1" fill="#EBEDE9" />
<rect x="54" y="26" width="1" height="1" fill="#EBEDE9" />
<rect x="55" y="26" width="1" height="1" fill="#EBEDE9" />
<rect x="56" y="26" width="1" height="1" fill="#EBEDE9" />
<rect x="57" y="26" width="1" height="1" fill="#EBEDE9" />
<rect x="58" y="26" width="1" height="1" fill="#EBEDE9" />
<rect x="47" y="27" width="1" height="1" fill="#EBEDE9" />
<rect x="48" y="27" width="1" height="1" fill="#EBEDE9" />
<rect x="49" y="27" width="1" height="1" fill="#EBEDE9" />
<rect x="50" y="27" width="1" height="1" fill="#EBEDE9" />
<rect x="51" y="27" width="1" height="1" fill="#EBEDE9" />
<rect x="52" y="27" width="1" height="1" fill="#EBEDE9" />
<rect x="53" y="27" width="1" height="1" fill="#EBEDE9" />
<rect x="54" y="27" width="1" height="1" fill="#EBEDE9" />
<rect x="55" y="27" width="1" height="1" fill="#EBEDE9" />
<rect x="56" y="27" width="1" height="1" fill="#EBEDE9" />
<rect x="57" y="27" width="1" height="1" fill="#EBEDE9" />
<rect x="58" y="27" width="1" height="1" fill="#EBEDE9" />
<rect x="59" y="27" width="1" height="1" fill="#EBEDE9" />
<rect x="46" y="28" width="1" height="1" fill="#EBEDE9" />
<rect x="47" y="28" width="1" height="1" fill="#EBEDE9" />
<rect x="48" y="28" width="1" height="1" fill="#EBEDE9" />
<rect x="49" y="28" width="1" height="1" fill="#EBEDE9" />
<rect x="50" y="28" width="1" height="1" fill="#EBEDE9" />
<rect x="51" y="28" width="1" height="1" fill="#EBEDE9" />
<rect x="52" y="28" width="1" height="1" fill="#EBEDE9" />
<rect x="53" y="28" width="1" height="1" fill="#EBEDE9" />
<rect x="54" y="28" width="1" height="1" fill="#EBEDE9" />
<rect x="55" y="28" width="1" height="1" fill="#EBEDE9" />
<rect x="56" y="28" width="1" height="1" fill="#EBEDE9" />
<rect x="57" y="28" width="1" height="1" fill="#EBEDE9" />
<rect x="58" y="28" width="1" height="1" fill="#EBEDE9" />
<rect x="59" y="28" width="1" height="1" fill="#EBEDE9" />
<rect x="46" y="29" width="1" height="1" fill="#EBEDE9" />
<rect x="47" y="29" width="1" height="1" fill="#EBEDE9" />
<rect x="48" y="29" width="1" height="1" fill="#EBEDE9" />
<rect x="49" y="29" width="1" height="1" fill="#EBEDE9" />
<rect x="50" y="29" width="1" height="1" fill="#EBEDE9" />
<rect x="51" y="29" width="1" height="1" fill="#EBEDE9" />
<rect x="52" y="29" width="1" height="1" fill="#EBEDE9" />
<rect x="53" y="29" width="1" height="1" fill="#EBEDE9" />
<rect x="54" y="29" width="1" height="1" fill="#EBEDE9" />
<rect x="55" y="29" width="1" height="1" fill="#EBEDE9" />
<rect x="56" y="29" width="1" height="1" fill="#EBEDE9" />
<rect x="57" y="29" width="1" height="1" fill="#EBEDE9" />
<rect x="58" y="29" width="1" height="1" fill="#EBEDE9" />
<rect x="59" y="29" width="1" height="1" fill="#EBEDE9" />
<rect x="60" y="29" width="1" height="1" fill="#E7D5B3" />
<rect x="46" y="30" width="1" height="1" fill="#EBEDE9" />
<rect x="47" y="30" width="1" height="1" fill="#EBEDE9" />
<rect x="48" y="30" width="1" height="1" fill="#EBEDE9" />
<rect x="49" y="30" width="1" height="1" fill="#E7D5B3" />
<rect x="50" y="30" width="1" height="1" fill="#E7D5B3" />
<rect x="51" y="30" width="1" height="1" fill="#D7B594" />
<rect x="52" y="30" width="1" height="1" fill="#EBEDE9" />
<rect x="53" y="30" width="1" height="1" fill="#EBEDE9" />
<rect x="54" y="30" width="1" height="1" fill="#D7B594" />
<rect x="55" y="30" width="1" height="1" fill="#D7B594" />
<rect x="56" y="30" width="1" height="1" fill="#D7B594" />
<rect x="57" y="30" width="1" height="1" fill="#EBEDE9" />
<rect x="58" y="30" width="1" height="1" fill="#EBEDE9" />
<rect x="59" y="30" width="1" height="1" fill="#EBEDE9" />
<rect x="60" y="30" width="1" height="1" fill="#E7D5B3" />
<rect x="61" y="30" width="1" height="1" fill="#D7B594" />
<rect x="46" y="31" width="1" height="1" fill="#EBEDE9" />
<rect x="47" y="31" width="1" height="1" fill="#EBEDE9" />
<rect x="48" y="31" width="1" height="1" fill="#E7D5B3" />
<rect x="49" y="31" width="1" height="1" fill="#E7D5B3" />
<rect x="50" y="31" width="1" height="1" fill="#E7D5B3" />
<rect x="51" y="31" width="1" height="1" fill="#E7D5B3" />
<rect x="52" y="31" width="1" height="1" fill="#D7B594" />
<rect x="53" y="31" width="1" height="1" fill="#EBEDE9" />
<rect x="54" y="31" width="1" height="1" fill="#E7D5B3" />
<rect x="55" y="31" width="1" height="1" fill="#E7D5B3" />
<rect x="56" y="31" width="1" height="1" fill="#E7D5B3" />
<rect x="57" y="31" width="1" height="1" fill="#D7B594" />
<rect x="58" y="31" width="1" height="1" fill="#EBEDE9" />
<rect x="59" y="31" width="1" height="1" fill="#EBEDE9" />
<rect x="60" y="31" width="1" height="1" fill="#E7D5B3" />
<rect x="61" y="31" width="1" height="1" fill="#D7B594" />
<rect x="46" y="32" width="1" height="1" fill="#AD7757" />
<rect x="47" y="32" width="1" height="1" fill="#EBEDE9" />
<rect x="48" y="32" width="1" height="1" fill="#E7D5B3" />
<rect x="49" y="32" width="1" height="1" fill="#E7D5B3" />
<rect x="50" y="32" width="1" height="1" fill="#E7D5B3" />
<rect x="51" y="32" width="1" height="1" fill="#E7D5B3" />
<rect x="52" y="32" width="1" height="1" fill="#E7D5B3" />
<rect x="53" y="32" width="1" height="1" fill="#E7D5B3" />
<rect x="54" y="32" width="1" height="1" fill="#E7D5B3" />
<rect x="55" y="32" width="1" height="1" fill="#E7D5B3" />
<rect x="56" y="32" width="1" height="1" fill="#E7D5B3" />
<rect x="57" y="32" width="1" height="1" fill="#E7D5B3" />
<rect x="58" y="32" width="1" height="1" fill="#EBEDE9" />
<rect x="59" y="32" width="1" height="1" fill="#AD7757" />
<rect x="61" y="32" width="1" height="1" fill="#202E37" />
<rect x="62" y="32" width="1" height="1" fill="#202E37" />
<rect x="46" y="33" width="1" height="1" fill="#C09473" />
<rect x="47" y="33" width="1" height="1" fill="#EBEDE9" />
<rect x="48" y="33" width="1" height="1" fill="#E7D5B3" />
<rect x="49" y="33" width="1" height="1" fill="#EBEDE9" />
<rect x="50" y="33" width="1" height="1" fill="#EBEDE9" />
<rect x="51" y="33" width="1" height="1" fill="#EBEDE9" />
<rect x="52" y="33" width="1" height="1" fill="#E7D5B3" />
<rect x="53" y="33" width="1" height="1" fill="#E7D5B3" />
<rect x="54" y="33" width="1" height="1" fill="#EBEDE9" />
<rect x="55" y="33" width="1" height="1" fill="#EBEDE9" />
<rect x="56" y="33" width="1" height="1" fill="#EBEDE9" />
<rect x="57" y="33" width="1" height="1" fill="#E7D5B3" />
<rect x="58" y="33" width="1" height="1" fill="#EBEDE9" />
<rect x="59" y="33" width="1" height="1" fill="#C09473" />
<rect x="61" y="33" width="1" height="1" fill="#577277" />
<rect x="62" y="33" width="1" height="1" fill="#394A50" />
<rect x="47" y="34" width="1" height="1" fill="#EBEDE9" />
<rect x="48" y="34" width="1" height="1" fill="#E7D5B3" />
<rect x="49" y="34" width="1" height="1" fill="#E7D5B3" />
<rect x="50" y="34" width="1" height="1" fill="#602C2C" />
<rect x="51" y="34" width="1" height="1" fill="#602C2C" />
<rect x="52" y="34" width="1" height="1" fill="#E7D5B3" />
<rect x="53" y="34" width="1" height="1" fill="#E7D5B3" />
<rect x="54" y="34" width="1" height="1" fill="#E7D5B3" />
<rect x="55" y="34" width="1" height="1" fill="#602C2C" />
<rect x="56" y="34" width="1" height="1" fill="#602C2C" />
<rect x="57" y="34" width="1" height="1" fill="#E7D5B3" />
<rect x="58" y="34" width="1" height="1" fill="#EBEDE9" />
<rect x="61" y="34" width="1" height="1" fill="#A8B5B2" />
<rect x="62" y="34" width="1" height="1" fill="#819796" />
<rect x="47" y="35" width="1" height="1" fill="#EBEDE9" />
<rect x="48" y="35" width="1" height="1" fill="#EBEDE9" />
<rect x="49" y="35" width="1" height="1" fill="#E7D5B3" />
<rect x="50" y="35" width="1" height="1" fill="#E7D5B3" />
<rect x="51" y="35" width="1" height="1" fill="#E7D5B3" />
<rect x="52" y="35" width="1" height="1" fill="#E7D5B3" />
<rect x="53" y="35" width="1" height="1" fill="#E7D5B3" />
<rect x="54" y="35" width="1" height="1" fill="#E7D5B3" />
<rect x="55" y="35" width="1" height="1" fill="#E7D5B3" />
<rect x="56" y="35" width="1" height="1" fill="#E7D5B3" />
<rect x="57" y="35" width="1" height="1" fill="#EBEDE9" />
<rect x="58" y="35" width="1" height="1" fill="#EBEDE9" />
<rect x="61" y="35" width="1" height="1" fill="#577277" />
<rect x="62" y="35" width="1" height="1" fill="#394A50" />
<rect x="48" y="36" width="1" height="1" fill="#EBEDE9" />
<rect x="49" y="36" width="1" height="1" fill="#EBEDE9" />
<rect x="50" y="36" width="1" height="1" fill="#E7D5B3" />
<rect x="51" y="36" width="1" height="1" fill="#EBEDE9" />
<rect x="52" y="36" width="1" height="1" fill="#C09473" />
<rect x="53" y="36" width="1" height="1" fill="#C09473" />
<rect x="54" y="36" width="1" height="1" fill="#EBEDE9" />
<rect x="55" y="36" width="1" height="1" fill="#E7D5B3" />
<rect x="56" y="36" width="1" height="1" fill="#EBEDE9" />
<rect x="57" y="36" width="1" height="1" fill="#EBEDE9" />
<rect x="61" y="36" width="1" height="1" fill="#A8B5B2" />
<rect x="62" y="36" width="1" height="1" fill="#819796" />
<rect x="49" y="37" width="1" height="1" fill="#EBEDE9" />
<rect x="50" y="37" width="1" height="1" fill="#EBEDE9" />
<rect x="51" y="37" width="1" height="1" fill="#EBEDE9" />
<rect x="52" y="37" width="1" height="1" fill="#C09473" />
<rect x="53" y="37" width="1" height="1" fill="#C09473" />
<rect x="54" y="37" width="1" height="1" fill="#EBEDE9" />
<rect x="55" y="37" width="1" height="1" fill="#EBEDE9" />
<rect x="56" y="37" width="1" height="1" fill="#EBEDE9" />
<rect x="60" y="37" width="1" height="1" fill="#394A50" />
<rect x="61" y="37" width="1" height="1" fill="#577277" />
<rect x="62" y="37" width="1" height="1" fill="#394A50" />
<rect x="51" y="38" width="1" height="1" fill="#EBEDE9" />
<rect x="52" y="38" width="1" height="1" fill="#EBEDE9" />
<rect x="53" y="38" width="1" height="1" fill="#EBEDE9" />
<rect x="54" y="38" width="1" height="1" fill="#EBEDE9" />
<rect x="59" y="38" width="1" height="1" fill="#A8B5B2" />
<rect x="60" y="38" width="1" height="1" fill="#819796" />
<rect x="61" y="38" width="1" height="1" fill="#A8B5B2" />
<rect x="62" y="38" width="1" height="1" fill="#819796" />
<rect x="48" y="39" width="1" height="1" fill="#819796" />
<rect x="49" y="39" width="1" height="1" fill="#A8B5B2" />
<rect x="50" y="39" width="1" height="1" fill="#819796" />
<rect x="51" y="39" width="1" height="1" fill="#202E37" />
<rect x="52" y="39" width="1" height="1" fill="#D7B594" />
<rect x="53" y="39" width="1" height="1" fill="#D7B594" />
<rect x="54" y="39" width="1" height="1" fill="#202E37" />
<rect x="55" y="39" width="1" height="1" fill="#A8B5B2" />
<rect x="56" y="39" width="1" height="1" fill="#819796" />
<rect x="57" y="39" width="1" height="1" fill="#A8B5B2" />
<rect x="58" y="39" width="1" height="1" fill="#819796" />
<rect x="59" y="39" width="1" height="1" fill="#577277" />
<rect x="60" y="39" width="1" height="1" fill="#394A50" />
<rect x="61" y="39" width="1" height="1" fill="#577277" />
<rect x="47" y="40" width="1" height="1" fill="#577277" />
<rect x="48" y="40" width="1" height="1" fill="#394A50" />
<rect x="49" y="40" width="1" height="1" fill="#577277" />
<rect x="50" y="40" width="1" height="1" fill="#394A50" />
<rect x="51" y="40" width="1" height="1" fill="#577277" />
<rect x="52" y="40" width="1" height="1" fill="#202E37" />
<rect x="53" y="40" width="1" height="1" fill="#202E37" />
<rect x="54" y="40" width="1" height="1" fill="#394A50" />
<rect x="55" y="40" width="1" height="1" fill="#577277" />
<rect x="56" y="40" width="1" height="1" fill="#394A50" />
<rect x="57" y="40" width="1" height="1" fill="#577277" />
<rect x="58" y="40" width="1" height="1" fill="#394A50" />
<rect x="59" y="40" width="1" height="1" fill="#A8B5B2" />
<rect x="60" y="40" width="1" height="1" fill="#819796" />
<rect x="46" y="41" width="1" height="1" fill="#819796" />
<rect x="47" y="41" width="1" height="1" fill="#A8B5B2" />
<rect x="48" y="41" width="1" height="1" fill="#819796" />
<rect x="49" y="41" width="1" height="1" fill="#A8B5B2" />
<rect x="50" y="41" width="1" height="1" fill="#819796" />
<rect x="51" y="41" width="1" height="1" fill="#A8B5B2" />
<rect x="52" y="41" width="1" height="1" fill="#819796" />
<rect x="53" y="41" width="1" height="1" fill="#A8B5B2" />
<rect x="54" y="41" width="1" height="1" fill="#819796" />
<rect x="55" y="41" width="1" height="1" fill="#A8B5B2" />
<rect x="56" y="41" width="1" height="1" fill="#819796" />
<rect x="57" y="41" width="1" height="1" fill="#A8B5B2" />
<rect x="58" y="41" width="1" height="1" fill="#819796" />
<rect x="59" y="41" width="1" height="1" fill="#577277" />
<rect x="45" y="42" width="1" height="1" fill="#577277" />
<rect x="46" y="42" width="1" height="1" fill="#394A50" />
<rect x="47" y="42" width="1" height="1" fill="#577277" />
<rect x="48" y="42" width="1" height="1" fill="#394A50" />
<rect x="49" y="42" width="1" height="1" fill="#577277" />
<rect x="50" y="42" width="1" height="1" fill="#394A50" />
<rect x="51" y="42" width="1" height="1" fill="#577277" />
<rect x="52" y="42" width="1" height="1" fill="#394A50" />
<rect x="53" y="42" width="1" height="1" fill="#577277" />
<rect x="54" y="42" width="1" height="1" fill="#394A50" />
<rect x="55" y="42" width="1" height="1" fill="#577277" />
<rect x="56" y="42" width="1" height="1" fill="#394A50" />
<rect x="57" y="42" width="1" height="1" fill="#577277" />
<rect x="58" y="42" width="1" height="1" fill="#394A50" />
<rect x="44" y="43" width="1" height="1" fill="#819796" />
<rect x="45" y="43" width="1" height="1" fill="#A8B5B2" />
<rect x="46" y="43" width="1" height="1" fill="#819796" />
<rect x="47" y="43" width="1" height="1" fill="#A8B5B2" />
<rect x="49" y="43" width="1" height="1" fill="#A8B5B2" />
<rect x="50" y="43" width="1" height="1" fill="#819796" />
<rect x="51" y="43" width="1" height="1" fill="#A8B5B2" />
<rect x="52" y="43" width="1" height="1" fill="#819796" />
<rect x="53" y="43" width="1" height="1" fill="#A8B5B2" />
<rect x="54" y="43" width="1" height="1" fill="#819796" />
<rect x="55" y="43" width="1" height="1" fill="#A8B5B2" />
<rect x="56" y="43" width="1" height="1" fill="#819796" />
<rect x="57" y="43" width="1" height="1" fill="#A8B5B2" />
<rect x="44" y="44" width="1" height="1" fill="#E8C170" />
<rect x="45" y="44" width="1" height="1" fill="#E8C170" />
<rect x="46" y="44" width="1" height="1" fill="#E8C170" />
<rect x="49" y="44" width="1" height="1" fill="#577277" />
<rect x="50" y="44" width="1" height="1" fill="#394A50" />
<rect x="51" y="44" width="1" height="1" fill="#577277" />
<rect x="52" y="44" width="1" height="1" fill="#394A50" />
<rect x="53" y="44" width="1" height="1" fill="#577277" />
<rect x="54" y="44" width="1" height="1" fill="#394A50" />
<rect x="55" y="44" width="1" height="1" fill="#577277" />
<rect x="56" y="44" width="1" height="1" fill="#394A50" />
<rect x="57" y="44" width="1" height="1" fill="#577277" />
<rect x="44" y="45" width="1" height="1" fill="#FFFFFF" />
<rect x="45" y="45" width="1" height="1" fill="#FFFFFF" />
<rect x="46" y="45" width="1" height="1" fill="#FFFFFF" />
<rect x="47" y="45" width="1" height="1" fill="#E8C170" />
<rect x="48" y="45" width="1" height="1" fill="#E8C170" />
<rect x="49" y="45" width="1" height="1" fill="#A8B5B2" />
<rect x="50" y="45" width="1" height="1" fill="#819796" />
<rect x="51" y="45" width="1" height="1" fill="#A8B5B2" />
<rect x="52" y="45" width="1" height="1" fill="#819796" />
<rect x="53" y="45" width="1" height="1" fill="#A8B5B2" />
<rect x="54" y="45" width="1" height="1" fill="#819796" />
<rect x="55" y="45" width="1" height="1" fill="#A8B5B2" />
<rect x="56" y="45" width="1" height="1" fill="#819796" />
<rect x="57" y="45" width="1" height="1" fill="#A8B5B2" />
<rect x="44" y="46" width="1" height="1" fill="#DE9E41" />
<rect x="45" y="46" width="1" height="1" fill="#DE9E41" />
<rect x="46" y="46" width="1" height="1" fill="#DE9E41" />
<rect x="47" y="46" width="1" height="1" fill="#DE9E41" />
<rect x="48" y="46" width="1" height="1" fill="#DE9E41" />
<rect x="49" y="46" width="1" height="1" fill="#577277" />
<rect x="50" y="46" width="1" height="1" fill="#394A50" />
<rect x="51" y="46" width="1" height="1" fill="#577277" />
<rect x="52" y="46" width="1" height="1" fill="#394A50" />
<rect x="53" y="46" width="1" height="1" fill="#577277" />
<rect x="54" y="46" width="1" height="1" fill="#394A50" />
<rect x="55" y="46" width="1" height="1" fill="#577277" />
<rect x="56" y="46" width="1" height="1" fill="#394A50" />
<rect x="57" y="46" width="1" height="1" fill="#577277" />
<rect x="44" y="47" width="1" height="1" fill="#DE9E41" />
<rect x="45" y="47" width="1" height="1" fill="#DE9E41" />
<rect x="46" y="47" width="1" height="1" fill="#DE9E41" />
<rect x="47" y="47" width="1" height="1" fill="#DE9E41" />
<rect x="48" y="47" width="1" height="1" fill="#DE9E41" />
<rect x="49" y="47" width="1" height="1" fill="#A8B5B2" />
<rect x="50" y="47" width="1" height="1" fill="#819796" />
<rect x="51" y="47" width="1" height="1" fill="#A8B5B2" />
<rect x="52" y="47" width="1" height="1" fill="#819796" />
<rect x="53" y="47" width="1" height="1" fill="#A8B5B2" />
<rect x="54" y="47" width="1" height="1" fill="#819796" />
<rect x="55" y="47" width="1" height="1" fill="#A8B5B2" />
<rect x="56" y="47" width="1" height="1" fill="#819796" />
<rect x="57" y="47" width="1" height="1" fill="#A8B5B2" />
<rect x="44" y="48" width="1" height="1" fill="#DE9E41" />
<rect x="45" y="48" width="1" height="1" fill="#DE9E41" />
<rect x="46" y="48" width="1" height="1" fill="#DE9E41" />
<rect x="47" y="48" width="1" height="1" fill="#DE9E41" />
<rect x="48" y="48" width="1" height="1" fill="#DE9E41" />
<rect x="49" y="48" width="1" height="1" fill="#341C27" />
<rect x="50" y="48" width="1" height="1" fill="#602C2C" />
<rect x="51" y="48" width="1" height="1" fill="#602C2C" />
<rect x="52" y="48" width="1" height="1" fill="#7A4841" />
<rect x="53" y="48" width="1" height="1" fill="#7A4841" />
<rect x="54" y="48" width="1" height="1" fill="#602C2C" />
<rect x="55" y="48" width="1" height="1" fill="#602C2C" />
<rect x="56" y="48" width="1" height="1" fill="#341C27" />
<rect x="57" y="48" width="1" height="1" fill="#241527" />
<rect x="44" y="49" width="1" height="1" fill="#DE9E41" />
<rect x="45" y="49" width="1" height="1" fill="#DE9E41" />
<rect x="46" y="49" width="1" height="1" fill="#D7B594" />
<rect x="47" y="49" width="1" height="1" fill="#D7B594" />
<rect x="48" y="49" width="1" height="1" fill="#DE9E41" />
<rect x="49" y="49" width="1" height="1" fill="#151D28" />
<rect x="50" y="49" width="1" height="1" fill="#151D28" />
<rect x="51" y="49" width="1" height="1" fill="#151D28" />
<rect x="52" y="49" width="1" height="1" fill="#151D28" />
<rect x="53" y="49" width="1" height="1" fill="#151D28" />
<rect x="54" y="49" width="1" height="1" fill="#151D28" />
<rect x="55" y="49" width="1" height="1" fill="#151D28" />
<rect x="56" y="49" width="1" height="1" fill="#151D28" />
<rect x="57" y="49" width="1" height="1" fill="#090A14" />
<rect x="44" y="50" width="1" height="1" fill="#202E37" />
<rect x="45" y="50" width="1" height="1" fill="#D7B594" />
<rect x="46" y="50" width="1" height="1" fill="#D7B594" />
<rect x="47" y="50" width="1" height="1" fill="#D7B594" />
<rect x="49" y="50" width="1" height="1" fill="#151D28" />
<rect x="50" y="50" width="1" height="1" fill="#151D28" />
<rect x="51" y="50" width="1" height="1" fill="#151D28" />
<rect x="52" y="50" width="1" height="1" fill="#151D28" />
<rect x="53" y="50" width="1" height="1" fill="#151D28" />
<rect x="54" y="50" width="1" height="1" fill="#151D28" />
<rect x="55" y="50" width="1" height="1" fill="#151D28" />
<rect x="56" y="50" width="1" height="1" fill="#151D28" />
<rect x="57" y="50" width="1" height="1" fill="#090A14" />
<rect x="49" y="51" width="1" height="1" fill="#151D28" />
<rect x="50" y="51" width="1" height="1" fill="#151D28" />
<rect x="51" y="51" width="1" height="1" fill="#151D28" />
<rect x="52" y="51" width="1" height="1" fill="#151D28" />
<rect x="53" y="51" width="1" height="1" fill="#151D28" />
<rect x="54" y="51" width="1" height="1" fill="#151D28" />
<rect x="55" y="51" width="1" height="1" fill="#151D28" />
<rect x="56" y="51" width="1" height="1" fill="#151D28" />
<rect x="57" y="51" width="1" height="1" fill="#090A14" />
<rect x="49" y="52" width="1" height="1" fill="#151D28" />
<rect x="50" y="52" width="1" height="1" fill="#151D28" />
<rect x="51" y="52" width="1" height="1" fill="#151D28" />
<rect x="52" y="52" width="1" height="1" fill="#151D28" />
<rect x="53" y="52" width="1" height="1" fill="#151D28" />
<rect x="54" y="52" width="1" height="1" fill="#151D28" />
<rect x="55" y="52" width="1" height="1" fill="#151D28" />
<rect x="56" y="52" width="1" height="1" fill="#151D28" />
<rect x="57" y="52" width="1" height="1" fill="#090A14" />
<rect x="49" y="53" width="1" height="1" fill="#151D28" />
<rect x="50" y="53" width="1" height="1" fill="#151D28" />
<rect x="51" y="53" width="1" height="1" fill="#151D28" />
<rect x="52" y="53" width="1" height="1" fill="#151D28" />
<rect x="53" y="53" width="1" height="1" fill="#151D28" />
<rect x="54" y="53" width="1" height="1" fill="#151D28" />
<rect x="55" y="53" width="1" height="1" fill="#151D28" />
<rect x="56" y="53" width="1" height="1" fill="#151D28" />
<rect x="57" y="53" width="1" height="1" fill="#090A14" />
<rect x="49" y="54" width="1" height="1" fill="#151D28" />
<rect x="50" y="54" width="1" height="1" fill="#151D28" />
<rect x="51" y="54" width="1" height="1" fill="#090A14" />
<rect x="55" y="54" width="1" height="1" fill="#151D28" />
<rect x="56" y="54" width="1" height="1" fill="#151D28" />
<rect x="57" y="54" width="1" height="1" fill="#090A14" />
<rect x="49" y="55" width="1" height="1" fill="#151D28" />
<rect x="50" y="55" width="1" height="1" fill="#151D28" />
<rect x="51" y="55" width="1" height="1" fill="#090A14" />
<rect x="55" y="55" width="1" height="1" fill="#151D28" />
<rect x="56" y="55" width="1" height="1" fill="#151D28" />
<rect x="57" y="55" width="1" height="1" fill="#090A14" />
<rect x="49" y="56" width="1" height="1" fill="#151D28" />
<rect x="50" y="56" width="1" height="1" fill="#151D28" />
<rect x="51" y="56" width="1" height="1" fill="#090A14" />
<rect x="55" y="56" width="1" height="1" fill="#151D28" />
<rect x="56" y="56" width="1" height="1" fill="#151D28" />
<rect x="57" y="56" width="1" height="1" fill="#090A14" />
<rect x="49" y="57" width="1" height="1" fill="#090A14" />
<rect x="50" y="57" width="1" height="1" fill="#151D28" />
<rect x="51" y="57" width="1" height="1" fill="#090A14" />
<rect x="55" y="57" width="1" height="1" fill="#090A14" />
<rect x="56" y="57" width="1" height="1" fill="#151D28" />
<rect x="57" y="57" width="1" height="1" fill="#090A14" />
<rect x="49" y="58" width="1" height="1" fill="#151D28" />
<rect x="50" y="58" width="1" height="1" fill="#151D28" />
<rect x="51" y="58" width="1" height="1" fill="#090A14" />
<rect x="55" y="58" width="1" height="1" fill="#151D28" />
<rect x="56" y="58" width="1" height="1" fill="#151D28" />
<rect x="57" y="58" width="1" height="1" fill="#090A14" />
<rect x="49" y="59" width="1" height="1" fill="#151D28" />
<rect x="50" y="59" width="1" height="1" fill="#151D28" />
<rect x="51" y="59" width="1" height="1" fill="#090A14" />
<rect x="55" y="59" width="1" height="1" fill="#151D28" />
<rect x="56" y="59" width="1" height="1" fill="#151D28" />
<rect x="57" y="59" width="1" height="1" fill="#090A14" />
<rect x="49" y="60" width="1" height="1" fill="#151D28" />
<rect x="50" y="60" width="1" height="1" fill="#151D28" />
<rect x="51" y="60" width="1" height="1" fill="#090A14" />
<rect x="55" y="60" width="1" height="1" fill="#151D28" />
<rect x="56" y="60" width="1" height="1" fill="#151D28" />
<rect x="57" y="60" width="1" height="1" fill="#090A14" />
<rect x="49" y="61" width="1" height="1" fill="#7A4841" />
<rect x="50" y="61" width="1" height="1" fill="#7A4841" />
<rect x="51" y="61" width="1" height="1" fill="#602C2C" />
<rect x="55" y="61" width="1" height="1" fill="#7A4841" />
<rect x="56" y="61" width="1" height="1" fill="#7A4841" />
<rect x="57" y="61" width="1" height="1" fill="#602C2C" />
<rect x="48" y="62" width="1" height="1" fill="#4D2B32" />
<rect x="49" y="62" width="1" height="1" fill="#4D2B32" />
<rect x="50" y="62" width="1" height="1" fill="#602C2C" />
<rect x="51" y="62" width="1" height="1" fill="#602C2C" />
<rect x="54" y="62" width="1" height="1" fill="#4D2B32" />
<rect x="55" y="62" width="1" height="1" fill="#4D2B32" />
<rect x="56" y="62" width="1" height="1" fill="#602C2C" />
<rect x="57" y="62" width="1" height="1" fill="#602C2C" />
<rect x="48" y="63" width="1" height="1" fill="#341C27" />
<rect x="49" y="63" width="1" height="1" fill="#341C27" />
<rect x="50" y="63" width="1" height="1" fill="#241527" />
<rect x="51" y="63" width="1" height="1" fill="#241527" />
<rect x="54" y="63" width="1" height="1" fill="#341C27" />
<rect x="55" y="63" width="1" height="1" fill="#341C27" />
<rect x="56" y="63" width="1" height="1" fill="#241527" />
<rect x="57" y="63" width="1" height="1" fill="#241527" />
</svg>