<?xml version="1.0" encoding="UTF-8" ?>
<svg version="1.1" width="144" height="144" xmlns="http://www.w3.org/2000/svg" shape-rendering="crispEdges">
<rect x="23" y="104" width="1" height="1" fill="#7A4841" />
<rect x="24" y="104" width="1" height="1" fill="#7A4841" />
<rect x="25" y="104" width="1" height="1" fill="#7A4841" />
<rect x="26" y="104" width="1" height="1" fill="#7A4841" />
<rect x="27" y="104" width="1" height="1" fill="#7A4841" />
<rect x="22" y="105" width="1" height="1" fill="#7A4841" />
<rect x="23" y="105" width="1" height="1" fill="#C09473" />
<rect x="24" y="105" width="1" height="1" fill="#C09473" />
<rect x="25" y="105" width="1" height="1" fill="#C09473" />
<rect x="26" y="105" width="1" height="1" fill="#C09473" />
<rect x="27" y="105" width="1" height="1" fill="#C09473" />
<rect x="28" y="105" width="1" height="1" fill="#7A4841" />
<rect x="29" y="105" width="1" height="1" fill="#7A4841" />
<rect x="20" y="106" width="1" height="1" fill="#7A4841" />
<rect x="21" y="106" width="1" height="1" fill="#7A4841" />
<rect x="22" y="106" width="1" height="1" fill="#C09473" />
<rect x="23" y="106" width="1" height="1" fill="#C09473" />
<rect x="24" y="106" width="1" height="1" fill="#C09473" />
<rect x="25" y="106" width="1" height="1" fill="#C09473" />
<rect x="26" y="106" width="1" height="1" fill="#C09473" />
<rect x="27" y="106" width="1" height="1" fill="#C09473" />
<rect x="28" y="106" width="1" height="1" fill="#C09473" />
<rect x="29" y="106" width="1" height="1" fill="#C09473" />
<rect x="30" y="106" width="1" height="1" fill="#7A4841" />
<rect x="19" y="107" width="1" height="1" fill="#7A4841" />
<rect x="20" y="107" width="1" height="1" fill="#C09473" />
<rect x="21" y="107" width="1" height="1" fill="#C09473" />
<rect x="22" y="107" width="1" height="1" fill="#C09473" />
<rect x="23" y="107" width="1" height="1" fill="#C09473" />
<rect x="24" y="107" width="1" height="1" fill="#C09473" />
<rect x="25" y="107" width="1" height="1" fill="#C09473" />
<rect x="26" y="107" width="1" height="1" fill="#C09473" />
<rect x="27" y="107" width="1" height="1" fill="#C09473" />
<rect x="28" y="107" width="1" height="1" fill="#C09473" />
<rect x="29" y="107" width="1" height="1" fill="#C09473" />
<rect x="30" y="107" width="1" height="1" fill="#C09473" />
<rect x="31" y="107" width="1" height="1" fill="#7A4841" />
<rect x="32" y="107" width="1" height="1" fill="#7A4841" />
<rect x="17" y="108" width="1" height="1" fill="#7A4841" />
<rect x="18" y="108" width="1" height="1" fill="#7A4841" />
<rect x="19" y="108" width="1" height="1" fill="#C09473" />
<rect x="20" y="108" width="1" height="1" fill="#C09473" />
<rect x="21" y="108" width="1" height="1" fill="#C09473" />
<rect x="22" y="108" width="1" height="1" fill="#C09473" />
<rect x="23" y="108" width="1" height="1" fill="#411D31" />
<rect x="24" y="108" width="1" height="1" fill="#411D31" />
<rect x="25" y="108" width="1" height="1" fill="#C09473" />
<rect x="26" y="108" width="1" height="1" fill="#C09473" />
<rect x="27" y="108" width="1" height="1" fill="#C09473" />
<rect x="28" y="108" width="1" height="1" fill="#C09473" />
<rect x="29" y="108" width="1" height="1" fill="#C09473" />
<rect x="30" y="108" width="1" height="1" fill="#C09473" />
<rect x="31" y="108" width="1" height="1" fill="#C09473" />
<rect x="32" y="108" width="1" height="1" fill="#C09473" />
<rect x="33" y="108" width="1" height="1" fill="#7A4841" />
<rect x="34" y="108" width="1" height="1" fill="#7A4841" />
<rect x="16" y="109" width="1" height="1" fill="#7A4841" />
<rect x="17" y="109" width="1" height="1" fill="#C09473" />
<rect x="18" y="109" width="1" height="1" fill="#C09473" />
<rect x="19" y="109" width="1" height="1" fill="#C09473" />
<rect x="20" y="109" width="1" height="1" fill="#C09473" />
<rect x="21" y="109" width="1" height="1" fill="#411D31" />
<rect x="22" y="109" width="1" height="1" fill="#411D31" />
<rect x="23" y="109" width="1" height="1" fill="#752438" />
<rect x="24" y="109" width="1" height="1" fill="#752438" />
<rect x="25" y="109" width="1" height="1" fill="#411D31" />
<rect x="26" y="109" width="1" height="1" fill="#411D31" />
<rect x="27" y="109" width="1" height="1" fill="#C09473" />
<rect x="28" y="109" width="1" height="1" fill="#C09473" />
<rect x="29" y="109" width="1" height="1" fill="#C09473" />
<rect x="30" y="109" width="1" height="1" fill="#C09473" />
<rect x="31" y="109" width="1" height="1" fill="#C09473" />
<rect x="32" y="109" width="1" height="1" fill="#C09473" />
<rect x="33" y="109" width="1" height="1" fill="#C09473" />
<rect x="34" y="109" width="1" height="1" fill="#C09473" />
<rect x="35" y="109" width="1" height="1" fill="#7A4841" />
<rect x="14" y="110" width="1" height="1" fill="#7A4841" />
<rect x="15" y="110" width="1" height="1" fill="#7A4841" />
<rect x="16" y="110" width="1" height="1" fill="#C09473" />
<rect x="17" y="110" width="1" height="1" fill="#C09473" />
<rect x="18" y="110" width="1" height="1" fill="#C09473" />
<rect x="19" y="110" width="1" height="1" fill="#C09473" />
<rect x="20" y="110" width="1" height="1" fill="#411D31" />
<rect x="21" y="110" width="1" height="1" fill="#752438" />
<rect x="22" y="110" width="1" height="1" fill="#752438" />
<rect x="23" y="110" width="1" height="1" fill="#752438" />
<rect x="24" y="110" width="1" height="1" fill="#752438" />
<rect x="25" y="110" width="1" height="1" fill="#752438" />
<rect x="26" y="110" width="1" height="1" fill="#752438" />
<rect x="27" y="110" width="1" height="1" fill="#411D31" />
<rect x="28" y="110" width="1" height="1" fill="#C09473" />
<rect x="29" y="110" width="1" height="1" fill="#C09473" />
<rect x="30" y="110" width="1" height="1" fill="#C09473" />
<rect x="31" y="110" width="1" height="1" fill="#C09473" />
<rect x="32" y="110" width="1" height="1" fill="#C09473" />
<rect x="33" y="110" width="1" height="1" fill="#C09473" />
<rect x="34" y="110" width="1" height="1" fill="#C09473" />
<rect x="35" y="110" width="1" height="1" fill="#C09473" />
<rect x="36" y="110" width="1" height="1" fill="#7A4841" />
<rect x="37" y="110" width="1" height="1" fill="#7A4841" />
<rect x="12" y="111" width="1" height="1" fill="#7A4841" />
<rect x="13" y="111" width="1" height="1" fill="#7A4841" />
<rect x="14" y="111" width="1" height="1" fill="#C09473" />
<rect x="15" y="111" width="1" height="1" fill="#C09473" />
<rect x="16" y="111" width="1" height="1" fill="#C09473" />
<rect x="17" y="111" width="1" height="1" fill="#C09473" />
<rect x="18" y="111" width="1" height="1" fill="#411D31" />
<rect x="19" y="111" width="1" height="1" fill="#411D31" />
<rect x="20" y="111" width="1" height="1" fill="#752438" />
<rect x="21" y="111" width="1" height="1" fill="#752438" />
<rect x="22" y="111" width="1" height="1" fill="#752438" />
<rect x="23" y="111" width="1" height="1" fill="#752438" />
<rect x="24" y="111" width="1" height="1" fill="#752438" />
<rect x="25" y="111" width="1" height="1" fill="#752438" />
<rect x="26" y="111" width="1" height="1" fill="#752438" />
<rect x="27" y="111" width="1" height="1" fill="#752438" />
<rect x="28" y="111" width="1" height="1" fill="#411D31" />
<rect x="29" y="111" width="1" height="1" fill="#C09473" />
<rect x="30" y="111" width="1" height="1" fill="#C09473" />
<rect x="31" y="111" width="1" height="1" fill="#C09473" />
<rect x="32" y="111" width="1" height="1" fill="#C09473" />
<rect x="33" y="111" width="1" height="1" fill="#C09473" />
<rect x="34" y="111" width="1" height="1" fill="#C09473" />
<rect x="35" y="111" width="1" height="1" fill="#C09473" />
<rect x="36" y="111" width="1" height="1" fill="#C09473" />
<rect x="37" y="111" width="1" height="1" fill="#C09473" />
<rect x="38" y="111" width="1" height="1" fill="#7A4841" />
<rect x="11" y="112" width="1" height="1" fill="#7A4841" />
<rect x="12" y="112" width="1" height="1" fill="#C09473" />
<rect x="13" y="112" width="1" height="1" fill="#C09473" />
<rect x="14" y="112" width="1" height="1" fill="#C09473" />
<rect x="15" y="112" width="1" height="1" fill="#C09473" />
<rect x="16" y="112" width="1" height="1" fill="#411D31" />
<rect x="17" y="112" width="1" height="1" fill="#411D31" />
<rect x="18" y="112" width="1" height="1" fill="#752438" />
<rect x="19" y="112" width="1" height="1" fill="#752438" />
<rect x="20" y="112" width="1" height="1" fill="#C7CFCC" />
<rect x="21" y="112" width="1" height="1" fill="#C7CFCC" />
<rect x="22" y="112" width="1" height="1" fill="#752438" />
<rect x="23" y="112" width="1" height="1" fill="#752438" />
<rect x="24" y="112" width="1" height="1" fill="#752438" />
<rect x="25" y="112" width="1" height="1" fill="#752438" />
<rect x="26" y="112" width="1" height="1" fill="#752438" />
<rect x="27" y="112" width="1" height="1" fill="#752438" />
<rect x="28" y="112" width="1" height="1" fill="#411D31" />
<rect x="29" y="112" width="1" height="1" fill="#C09473" />
<rect x="30" y="112" width="1" height="1" fill="#C09473" />
<rect x="31" y="112" width="1" height="1" fill="#C09473" />
<rect x="32" y="112" width="1" height="1" fill="#C09473" />
<rect x="33" y="112" width="1" height="1" fill="#C09473" />
<rect x="34" y="112" width="1" height="1" fill="#C09473" />
<rect x="35" y="112" width="1" height="1" fill="#C09473" />
<rect x="36" y="112" width="1" height="1" fill="#C09473" />
<rect x="37" y="112" width="1" height="1" fill="#C09473" />
<rect x="38" y="112" width="1" height="1" fill="#C09473" />
<rect x="39" y="112" width="1" height="1" fill="#7A4841" />
<rect x="40" y="112" width="1" height="1" fill="#7A4841" />
<rect x="9" y="113" width="1" height="1" fill="#7A4841" />
<rect x="10" y="113" width="1" height="1" fill="#7A4841" />
<rect x="11" y="113" width="1" height="1" fill="#C09473" />
<rect x="12" y="113" width="1" height="1" fill="#C09473" />
<rect x="13" y="113" width="1" height="1" fill="#C09473" />
<rect x="14" y="113" width="1" height="1" fill="#C09473" />
<rect x="15" y="113" width="1" height="1" fill="#411D31" />
<rect x="16" y="113" width="1" height="1" fill="#752438" />
<rect x="17" y="113" width="1" height="1" fill="#752438" />
<rect x="18" y="113" width="1" height="1" fill="#752438" />
<rect x="19" y="113" width="1" height="1" fill="#C7CFCC" />
<rect x="20" y="113" width="1" height="1" fill="#C7CFCC" />
<rect x="21" y="113" width="1" height="1" fill="#C7CFCC" />
<rect x="22" y="113" width="1" height="1" fill="#C7CFCC" />
<rect x="23" y="113" width="1" height="1" fill="#C7CFCC" />
<rect x="24" y="113" width="1" height="1" fill="#752438" />
<rect x="25" y="113" width="1" height="1" fill="#752438" />
<rect x="26" y="113" width="1" height="1" fill="#411D31" />
<rect x="27" y="113" width="1" height="1" fill="#411D31" />
<rect x="28" y="113" width="1" height="1" fill="#C09473" />
<rect x="29" y="113" width="1" height="1" fill="#C09473" />
<rect x="30" y="113" width="1" height="1" fill="#C09473" />
<rect x="31" y="113" width="1" height="1" fill="#C09473" />
<rect x="32" y="113" width="1" height="1" fill="#C09473" />
<rect x="33" y="113" width="1" height="1" fill="#C09473" />
<rect x="34" y="113" width="1" height="1" fill="#C09473" />
<rect x="35" y="113" width="1" height="1" fill="#C09473" />
<rect x="36" y="113" width="1" height="1" fill="#C09473" />
<rect x="37" y="113" width="1" height="1" fill="#C09473" />
<rect x="38" y="113" width="1" height="1" fill="#C09473" />
<rect x="39" y="113" width="1" height="1" fill="#C09473" />
<rect x="40" y="113" width="1" height="1" fill="#C09473" />
<rect x="41" y="113" width="1" height="1" fill="#7A4841" />
<rect x="8" y="114" width="1" height="1" fill="#7A4841" />
<rect x="9" y="114" width="1" height="1" fill="#C09473" />
<rect x="10" y="114" width="1" height="1" fill="#C09473" />
<rect x="11" y="114" width="1" height="1" fill="#C09473" />
<rect x="12" y="114" width="1" height="1" fill="#C09473" />
<rect x="13" y="114" width="1" height="1" fill="#C09473" />
<rect x="14" y="114" width="1" height="1" fill="#C09473" />
<rect x="15" y="114" width="1" height="1" fill="#C09473" />
<rect x="16" y="114" width="1" height="1" fill="#411D31" />
<rect x="17" y="114" width="1" height="1" fill="#752438" />
<rect x="18" y="114" width="1" height="1" fill="#752438" />
<rect x="19" y="114" width="1" height="1" fill="#752438" />
<rect x="20" y="114" width="1" height="1" fill="#752438" />
<rect x="21" y="114" width="1" height="1" fill="#C7CFCC" />
<rect x="22" y="114" width="1" height="1" fill="#C7CFCC" />
<rect x="23" y="114" width="1" height="1" fill="#752438" />
<rect x="24" y="114" width="1" height="1" fill="#752438" />
<rect x="25" y="114" width="1" height="1" fill="#411D31" />
<rect x="26" y="114" width="1" height="1" fill="#C09473" />
<rect x="27" y="114" width="1" height="1" fill="#C09473" />
<rect x="28" y="114" width="1" height="1" fill="#C09473" />
<rect x="29" y="114" width="1" height="1" fill="#C09473" />
<rect x="30" y="114" width="1" height="1" fill="#C09473" />
<rect x="31" y="114" width="1" height="1" fill="#C09473" />
<rect x="32" y="114" width="1" height="1" fill="#C09473" />
<rect x="33" y="114" width="1" height="1" fill="#C09473" />
<rect x="34" y="114" width="1" height="1" fill="#C09473" />
<rect x="35" y="114" width="1" height="1" fill="#C09473" />
<rect x="36" y="114" width="1" height="1" fill="#C09473" />
<rect x="37" y="114" width="1" height="1" fill="#C09473" />
<rect x="38" y="114" width="1" height="1" fill="#C09473" />
<rect x="39" y="114" width="1" height="1" fill="#C09473" />
<rect x="40" y="114" width="1" height="1" fill="#AD7757" />
<rect x="41" y="114" width="1" height="1" fill="#7A4841" />
<rect x="7" y="115" width="1" height="1" fill="#7A4841" />
<rect x="8" y="115" width="1" height="1" fill="#AD7757" />
<rect x="9" y="115" width="1" height="1" fill="#C09473" />
<rect x="10" y="115" width="1" height="1" fill="#C09473" />
<rect x="11" y="115" width="1" height="1" fill="#C09473" />
<rect x="12" y="115" width="1" height="1" fill="#C09473" />
<rect x="13" y="115" width="1" height="1" fill="#C09473" />
<rect x="14" y="115" width="1" height="1" fill="#C09473" />
<rect x="15" y="115" width="1" height="1" fill="#C09473" />
<rect x="16" y="115" width="1" height="1" fill="#C09473" />
<rect x="17" y="115" width="1" height="1" fill="#411D31" />
<rect x="18" y="115" width="1" height="1" fill="#411D31" />
<rect x="19" y="115" width="1" height="1" fill="#752438" />
<rect x="20" y="115" width="1" height="1" fill="#752438" />
<rect x="21" y="115" width="1" height="1" fill="#752438" />
<rect x="22" y="115" width="1" height="1" fill="#752438" />
<rect x="23" y="115" width="1" height="1" fill="#411D31" />
<rect x="24" y="115" width="1" height="1" fill="#411D31" />
<rect x="25" y="115" width="1" height="1" fill="#C09473" />
<rect x="26" y="115" width="1" height="1" fill="#C09473" />
<rect x="27" y="115" width="1" height="1" fill="#C09473" />
<rect x="28" y="115" width="1" height="1" fill="#C09473" />
<rect x="29" y="115" width="1" height="1" fill="#C09473" />
<rect x="30" y="115" width="1" height="1" fill="#C09473" />
<rect x="31" y="115" width="1" height="1" fill="#DF84A5" />
<rect x="32" y="115" width="1" height="1" fill="#C09473" />
<rect x="33" y="115" width="1" height="1" fill="#C09473" />
<rect x="34" y="115" width="1" height="1" fill="#C09473" />
<rect x="35" y="115" width="1" height="1" fill="#C09473" />
<rect x="36" y="115" width="1" height="1" fill="#C09473" />
<rect x="37" y="115" width="1" height="1" fill="#C09473" />
<rect x="38" y="115" width="1" height="1" fill="#C09473" />
<rect x="39" y="115" width="1" height="1" fill="#AD7757" />
<rect x="40" y="115" width="1" height="1" fill="#7A4841" />
<rect x="41" y="115" width="1" height="1" fill="#4D2B32" />
<rect x="7" y="116" width="1" height="1" fill="#4D2B32" />
<rect x="8" y="116" width="1" height="1" fill="#7A4841" />
<rect x="9" y="116" width="1" height="1" fill="#AD7757" />
<rect x="10" y="116" width="1" height="1" fill="#AD7757" />
<rect x="11" y="116" width="1" height="1" fill="#C09473" />
<rect x="12" y="116" width="1" height="1" fill="#C09473" />
<rect x="13" y="116" width="1" height="1" fill="#C09473" />
<rect x="14" y="116" width="1" height="1" fill="#C09473" />
<rect x="15" y="116" width="1" height="1" fill="#C09473" />
<rect x="16" y="116" width="1" height="1" fill="#C09473" />
<rect x="17" y="116" width="1" height="1" fill="#C09473" />
<rect x="18" y="116" width="1" height="1" fill="#C09473" />
<rect x="19" y="116" width="1" height="1" fill="#411D31" />
<rect x="20" y="116" width="1" height="1" fill="#411D31" />
<rect x="21" y="116" width="1" height="1" fill="#752438" />
<rect x="22" y="116" width="1" height="1" fill="#411D31" />
<rect x="23" y="116" width="1" height="1" fill="#C09473" />
<rect x="24" y="116" width="1" height="1" fill="#C09473" />
<rect x="25" y="116" width="1" height="1" fill="#C09473" />
<rect x="26" y="116" width="1" height="1" fill="#C09473" />
<rect x="27" y="116" width="1" height="1" fill="#C09473" />
<rect x="28" y="116" width="1" height="1" fill="#C09473" />
<rect x="29" y="116" width="1" height="1" fill="#C09473" />
<rect x="30" y="116" width="1" height="1" fill="#DE9E41" />
<rect x="31" y="116" width="1" height="1" fill="#E8C170" />
<rect x="32" y="116" width="1" height="1" fill="#C09473" />
<rect x="33" y="116" width="1" height="1" fill="#C09473" />
<rect x="34" y="116" width="1" height="1" fill="#C09473" />
<rect x="35" y="116" width="1" height="1" fill="#C09473" />
<rect x="36" y="116" width="1" height="1" fill="#C09473" />
<rect x="37" y="116" width="1" height="1" fill="#C09473" />
<rect x="38" y="116" width="1" height="1" fill="#AD7757" />
<rect x="39" y="116" width="1" height="1" fill="#7A4841" />
<rect x="40" y="116" width="1" height="1" fill="#4D2B32" />
<rect x="8" y="117" width="1" height="1" fill="#4D2B32" />
<rect x="9" y="117" width="1" height="1" fill="#7A4841" />
<rect x="10" y="117" width="1" height="1" fill="#7A4841" />
<rect x="11" y="117" width="1" height="1" fill="#AD7757" />
<rect x="12" y="117" width="1" height="1" fill="#C09473" />
<rect x="13" y="117" width="1" height="1" fill="#C09473" />
<rect x="14" y="117" width="1" height="1" fill="#C09473" />
<rect x="15" y="117" width="1" height="1" fill="#C09473" />
<rect x="16" y="117" width="1" height="1" fill="#C09473" />
<rect x="17" y="117" width="1" height="1" fill="#C09473" />
<rect x="18" y="117" width="1" height="1" fill="#C09473" />
<rect x="19" y="117" width="1" height="1" fill="#C09473" />
<rect x="20" y="117" width="1" height="1" fill="#C09473" />
<rect x="21" y="117" width="1" height="1" fill="#411D31" />
<rect x="22" y="117" width="1" height="1" fill="#C09473" />
<rect x="23" y="117" width="1" height="1" fill="#C09473" />
<rect x="24" y="117" width="1" height="1" fill="#C09473" />
<rect x="25" y="117" width="1" height="1" fill="#C09473" />
<rect x="26" y="117" width="1" height="1" fill="#C09473" />
<rect x="27" y="117" width="1" height="1" fill="#C09473" />
<rect x="28" y="117" width="1" height="1" fill="#DE9E41" />
<rect x="29" y="117" width="1" height="1" fill="#DE9E41" />
<rect x="30" y="117" width="1" height="1" fill="#E8C170" />
<rect x="31" y="117" width="1" height="1" fill="#C09473" />
<rect x="32" y="117" width="1" height="1" fill="#C09473" />
<rect x="33" y="117" width="1" height="1" fill="#C09473" />
<rect x="34" y="117" width="1" height="1" fill="#C09473" />
<rect x="35" y="117" width="1" height="1" fill="#C09473" />
<rect x="36" y="117" width="1" height="1" fill="#AD7757" />
<rect x="37" y="117" width="1" height="1" fill="#AD7757" />
<rect x="38" y="117" width="1" height="1" fill="#7A4841" />
<rect x="39" y="117" width="1" height="1" fill="#4D2B32" />
<rect x="40" y="117" width="1" height="1" fill="#819796" />
<rect x="8" y="118" width="1" height="1" fill="#A8B5B2" />
<rect x="9" y="118" width="1" height="1" fill="#4D2B32" />
<rect x="10" y="118" width="1" height="1" fill="#4D2B32" />
<rect x="11" y="118" width="1" height="1" fill="#7A4841" />
<rect x="12" y="118" width="1" height="1" fill="#AD7757" />
<rect x="13" y="118" width="1" height="1" fill="#AD7757" />
<rect x="14" y="118" width="1" height="1" fill="#C09473" />
<rect x="15" y="118" width="1" height="1" fill="#C09473" />
<rect x="16" y="118" width="1" height="1" fill="#C09473" />
<rect x="17" y="118" width="1" height="1" fill="#C09473" />
<rect x="18" y="118" width="1" height="1" fill="#C09473" />
<rect x="19" y="118" width="1" height="1" fill="#C09473" />
<rect x="20" y="118" width="1" height="1" fill="#C09473" />
<rect x="21" y="118" width="1" height="1" fill="#C09473" />
<rect x="22" y="118" width="1" height="1" fill="#C09473" />
<rect x="23" y="118" width="1" height="1" fill="#C09473" />
<rect x="24" y="118" width="1" height="1" fill="#C09473" />
<rect x="25" y="118" width="1" height="1" fill="#C09473" />
<rect x="26" y="118" width="1" height="1" fill="#C09473" />
<rect x="27" y="118" width="1" height="1" fill="#DE9E41" />
<rect x="28" y="118" width="1" height="1" fill="#E8C170" />
<rect x="29" y="118" width="1" height="1" fill="#E8C170" />
<rect x="30" y="118" width="1" height="1" fill="#C09473" />
<rect x="31" y="118" width="1" height="1" fill="#C09473" />
<rect x="32" y="118" width="1" height="1" fill="#C09473" />
<rect x="33" y="118" width="1" height="1" fill="#C09473" />
<rect x="34" y="118" width="1" height="1" fill="#AD7757" />
<rect x="35" y="118" width="1" height="1" fill="#AD7757" />
<rect x="36" y="118" width="1" height="1" fill="#7A4841" />
<rect x="37" y="118" width="1" height="1" fill="#7A4841" />
<rect x="38" y="118" width="1" height="1" fill="#4D2B32" />
<rect x="39" y="118" width="1" height="1" fill="#577277" />
<rect x="40" y="118" width="1" height="1" fill="#819796" />
<rect x="8" y="119" width="1" height="1" fill="#A8B5B2" />
<rect x="9" y="119" width="1" height="1" fill="#819796" />
<rect x="10" y="119" width="1" height="1" fill="#577277" />
<rect x="11" y="119" width="1" height="1" fill="#4D2B32" />
<rect x="12" y="119" width="1" height="1" fill="#7A4841" />
<rect x="13" y="119" width="1" height="1" fill="#7A4841" />
<rect x="14" y="119" width="1" height="1" fill="#AD7757" />
<rect x="15" y="119" width="1" height="1" fill="#C09473" />
<rect x="16" y="119" width="1" height="1" fill="#C09473" />
<rect x="17" y="119" width="1" height="1" fill="#C09473" />
<rect x="18" y="119" width="1" height="1" fill="#C09473" />
<rect x="19" y="119" width="1" height="1" fill="#C09473" />
<rect x="20" y="119" width="1" height="1" fill="#C09473" />
<rect x="21" y="119" width="1" height="1" fill="#C09473" />
<rect x="22" y="119" width="1" height="1" fill="#C09473" />
<rect x="23" y="119" width="1" height="1" fill="#C09473" />
<rect x="24" y="119" width="1" height="1" fill="#C09473" />
<rect x="25" y="119" width="1" height="1" fill="#C09473" />
<rect x="26" y="119" width="1" height="1" fill="#151D28" />
<rect x="27" y="119" width="1" height="1" fill="#E8C170" />
<rect x="28" y="119" width="1" height="1" fill="#C09473" />
<rect x="29" y="119" width="1" height="1" fill="#C09473" />
<rect x="30" y="119" width="1" height="1" fill="#C09473" />
<rect x="31" y="119" width="1" height="1" fill="#C09473" />
<rect x="32" y="119" width="1" height="1" fill="#C09473" />
<rect x="33" y="119" width="1" height="1" fill="#AD7757" />
<rect x="34" y="119" width="1" height="1" fill="#7A4841" />
<rect x="35" y="119" width="1" height="1" fill="#7A4841" />
<rect x="36" y="119" width="1" height="1" fill="#4D2B32" />
<rect x="37" y="119" width="1" height="1" fill="#4D2B32" />
<rect x="38" y="119" width="1" height="1" fill="#394A50" />
<rect x="39" y="119" width="1" height="1" fill="#577277" />
<rect x="40" y="119" width="1" height="1" fill="#819796" />
<rect x="8" y="120" width="1" height="1" fill="#A8B5B2" />
<rect x="9" y="120" width="1" height="1" fill="#819796" />
<rect x="10" y="120" width="1" height="1" fill="#577277" />
<rect x="12" y="120" width="1" height="1" fill="#4D2B32" />
<rect x="13" y="120" width="1" height="1" fill="#4D2B32" />
<rect x="14" y="120" width="1" height="1" fill="#7A4841" />
<rect x="15" y="120" width="1" height="1" fill="#AD7757" />
<rect x="16" y="120" width="1" height="1" fill="#AD7757" />
<rect x="17" y="120" width="1" height="1" fill="#C09473" />
<rect x="18" y="120" width="1" height="1" fill="#C09473" />
<rect x="19" y="120" width="1" height="1" fill="#C09473" />
<rect x="20" y="120" width="1" height="1" fill="#C09473" />
<rect x="21" y="120" width="1" height="1" fill="#C09473" />
<rect x="22" y="120" width="1" height="1" fill="#C09473" />
<rect x="23" y="120" width="1" height="1" fill="#C09473" />
<rect x="24" y="120" width="1" height="1" fill="#C09473" />
<rect x="25" y="120" width="1" height="1" fill="#C09473" />
<rect x="26" y="120" width="1" height="1" fill="#C09473" />
<rect x="27" y="120" width="1" height="1" fill="#C09473" />
<rect x="28" y="120" width="1" height="1" fill="#C09473" />
<rect x="29" y="120" width="1" height="1" fill="#C09473" />
<rect x="30" y="120" width="1" height="1" fill="#C09473" />
<rect x="31" y="120" width="1" height="1" fill="#AD7757" />
<rect x="32" y="120" width="1" height="1" fill="#AD7757" />
<rect x="33" y="120" width="1" height="1" fill="#7A4841" />
<rect x="34" y="120" width="1" height="1" fill="#7A4841" />
<rect x="35" y="120" width="1" height="1" fill="#4D2B32" />
<rect x="37" y="120" width="1" height="1" fill="#151D28" />
<rect x="38" y="120" width="1" height="1" fill="#394A50" />
<rect x="39" y="120" width="1" height="1" fill="#577277" />
<rect x="40" y="120" width="1" height="1" fill="#819796" />
<rect x="8" y="121" width="1" height="1" fill="#A8B5B2" />
<rect x="9" y="121" width="1" height="1" fill="#819796" />
<rect x="10" y="121" width="1" height="1" fill="#577277" />
<rect x="12" y="121" width="1" height="1" fill="#151D28" />
<rect x="14" y="121" width="1" height="1" fill="#4D2B32" />
<rect x="15" y="121" width="1" height="1" fill="#7A4841" />
<rect x="16" y="121" width="1" height="1" fill="#7A4841" />
<rect x="17" y="121" width="1" height="1" fill="#AD7757" />
<rect x="18" y="121" width="1" height="1" fill="#C09473" />
<rect x="19" y="121" width="1" height="1" fill="#C09473" />
<rect x="20" y="121" width="1" height="1" fill="#C09473" />
<rect x="21" y="121" width="1" height="1" fill="#C09473" />
<rect x="22" y="121" width="1" height="1" fill="#C09473" />
<rect x="23" y="121" width="1" height="1" fill="#C09473" />
<rect x="24" y="121" width="1" height="1" fill="#C09473" />
<rect x="25" y="121" width="1" height="1" fill="#C09473" />
<rect x="26" y="121" width="1" height="1" fill="#C09473" />
<rect x="27" y="121" width="1" height="1" fill="#C09473" />
<rect x="28" y="121" width="1" height="1" fill="#C09473" />
<rect x="29" y="121" width="1" height="1" fill="#C09473" />
<rect x="30" y="121" width="1" height="1" fill="#AD7757" />
<rect x="31" y="121" width="1" height="1" fill="#7A4841" />
<rect x="32" y="121" width="1" height="1" fill="#7A4841" />
<rect x="33" y="121" width="1" height="1" fill="#4D2B32" />
<rect x="34" y="121" width="1" height="1" fill="#4D2B32" />
<rect x="37" y="121" width="1" height="1" fill="#151D28" />
<rect x="38" y="121" width="1" height="1" fill="#394A50" />
<rect x="39" y="121" width="1" height="1" fill="#577277" />
<rect x="40" y="121" width="1" height="1" fill="#819796" />
<rect x="8" y="122" width="1" height="1" fill="#A8B5B2" />
<rect x="9" y="122" width="1" height="1" fill="#819796" />
<rect x="10" y="122" width="1" height="1" fill="#577277" />
<rect x="11" y="122" width="1" height="1" fill="#151D28" />
<rect x="14" y="122" width="1" height="1" fill="#819796" />
<rect x="15" y="122" width="1" height="1" fill="#4D2B32" />
<rect x="16" y="122" width="1" height="1" fill="#4D2B32" />
<rect x="17" y="122" width="1" height="1" fill="#7A4841" />
<rect x="18" y="122" width="1" height="1" fill="#AD7757" />
<rect x="19" y="122" width="1" height="1" fill="#AD7757" />
<rect x="20" y="122" width="1" height="1" fill="#C09473" />
<rect x="21" y="122" width="1" height="1" fill="#C09473" />
<rect x="22" y="122" width="1" height="1" fill="#C09473" />
<rect x="23" y="122" width="1" height="1" fill="#C09473" />
<rect x="24" y="122" width="1" height="1" fill="#C09473" />
<rect x="25" y="122" width="1" height="1" fill="#C09473" />
<rect x="26" y="122" width="1" height="1" fill="#C09473" />
<rect x="27" y="122" width="1" height="1" fill="#C09473" />
<rect x="28" y="122" width="1" height="1" fill="#AD7757" />
<rect x="29" y="122" width="1" height="1" fill="#AD7757" />
<rect x="30" y="122" width="1" height="1" fill="#7A4841" />
<rect x="31" y="122" width="1" height="1" fill="#4D2B32" />
<rect x="32" y="122" width="1" height="1" fill="#4D2B32" />
<rect x="33" y="122" width="1" height="1" fill="#819796" />
<rect x="35" y="122" width="1" height="1" fill="#151D28" />
<rect x="36" y="122" width="1" height="1" fill="#151D28" />
<rect x="37" y="122" width="1" height="1" fill="#202E37" />
<rect x="38" y="122" width="1" height="1" fill="#394A50" />
<rect x="39" y="122" width="1" height="1" fill="#577277" />
<rect x="40" y="122" width="1" height="1" fill="#819796" />
<rect x="8" y="123" width="1" height="1" fill="#A8B5B2" />
<rect x="9" y="123" width="1" height="1" fill="#819796" />
<rect x="10" y="123" width="1" height="1" fill="#577277" />
<rect x="11" y="123" width="1" height="1" fill="#202E37" />
<rect x="12" y="123" width="1" height="1" fill="#151D28" />
<rect x="13" y="123" width="1" height="1" fill="#151D28" />
<rect x="14" y="123" width="1" height="1" fill="#7A4841" opacity="0.996078" />
<rect x="15" y="123" width="1" height="1" fill="#7A4841" opacity="0.996078" />
<rect x="16" y="123" width="1" height="1" fill="#7A4841" opacity="0.996078" />
<rect x="17" y="123" width="1" height="1" fill="#4D2B32" />
<rect x="18" y="123" width="1" height="1" fill="#7A4841" />
<rect x="19" y="123" width="1" height="1" fill="#7A4841" />
<rect x="20" y="123" width="1" height="1" fill="#AD7757" />
<rect x="21" y="123" width="1" height="1" fill="#AD7757" />
<rect x="22" y="123" width="1" height="1" fill="#C09473" />
<rect x="23" y="123" width="1" height="1" fill="#C09473" />
<rect x="24" y="123" width="1" height="1" fill="#C09473" />
<rect x="25" y="123" width="1" height="1" fill="#C09473" />
<rect x="26" y="123" width="1" height="1" fill="#AD7757" />
<rect x="27" y="123" width="1" height="1" fill="#AD7757" />
<rect x="28" y="123" width="1" height="1" fill="#7A4841" />
<rect x="29" y="123" width="1" height="1" fill="#7A4841" />
<rect x="30" y="123" width="1" height="1" fill="#4D2B32" />
<rect x="31" y="123" width="1" height="1" fill="#7A4841" opacity="0.996078" />
<rect x="32" y="123" width="1" height="1" fill="#7A4841" opacity="0.996078" />
<rect x="33" y="123" width="1" height="1" fill="#7A4841" opacity="0.996078" />
<rect x="34" y="123" width="1" height="1" fill="#151D28" />
<rect x="35" y="123" width="1" height="1" fill="#202E37" />
<rect x="36" y="123" width="1" height="1" fill="#202E37" />
<rect x="37" y="123" width="1" height="1" fill="#151D28" />
<rect x="38" y="123" width="1" height="1" fill="#394A50" />
<rect x="39" y="123" width="1" height="1" fill="#577277" />
<rect x="40" y="123" width="1" height="1" fill="#819796" />
<rect x="8" y="124" width="1" height="1" fill="#A8B5B2" />
<rect x="9" y="124" width="1" height="1" fill="#819796" />
<rect x="10" y="124" width="1" height="1" fill="#577277" />
<rect x="11" y="124" width="1" height="1" fill="#151D28" />
<rect x="12" y="124" width="1" height="1" fill="#202E37" />
<rect x="13" y="124" width="1" height="1" fill="#202E37" />
<rect x="14" y="124" width="1" height="1" fill="#151D28" />
<rect x="15" y="124" width="1" height="1" fill="#7A4841" opacity="0.996078" />
<rect x="16" y="124" width="1" height="1" fill="#7A4841" opacity="0.996078" />
<rect x="17" y="124" width="1" height="1" fill="#819796" />
<rect x="18" y="124" width="1" height="1" fill="#4D2B32" />
<rect x="19" y="124" width="1" height="1" fill="#4D2B32" />
<rect x="20" y="124" width="1" height="1" fill="#7A4841" />
<rect x="21" y="124" width="1" height="1" fill="#7A4841" />
<rect x="22" y="124" width="1" height="1" fill="#AD7757" />
<rect x="23" y="124" width="1" height="1" fill="#AD7757" />
<rect x="24" y="124" width="1" height="1" fill="#AD7757" />
<rect x="25" y="124" width="1" height="1" fill="#AD7757" />
<rect x="26" y="124" width="1" height="1" fill="#7A4841" />
<rect x="27" y="124" width="1" height="1" fill="#7A4841" />
<rect x="28" y="124" width="1" height="1" fill="#4D2B32" />
<rect x="29" y="124" width="1" height="1" fill="#4D2B32" />
<rect x="30" y="124" width="1" height="1" fill="#819796" />
<rect x="31" y="124" width="1" height="1" fill="#7A4841" opacity="0.996078" />
<rect x="32" y="124" width="1" height="1" fill="#151D28" />
<rect x="33" y="124" width="1" height="1" fill="#151D28" />
<rect x="34" y="124" width="1" height="1" fill="#202E37" />
<rect x="35" y="124" width="1" height="1" fill="#151D28" />
<rect x="36" y="124" width="1" height="1" fill="#151D28" />
<rect x="38" y="124" width="1" height="1" fill="#394A50" />
<rect x="39" y="124" width="1" height="1" fill="#577277" />
<rect x="40" y="124" width="1" height="1" fill="#819796" />
<rect x="8" y="125" width="1" height="1" fill="#A8B5B2" />
<rect x="9" y="125" width="1" height="1" fill="#819796" />
<rect x="10" y="125" width="1" height="1" fill="#577277" />
<rect x="11" y="125" width="1" height="1" fill="#7A4841" opacity="0.996078" />
<rect x="12" y="125" width="1" height="1" fill="#151D28" />
<rect x="13" y="125" width="1" height="1" fill="#151D28" />
<rect x="14" y="125" width="1" height="1" fill="#202E37" />
<rect x="15" y="125" width="1" height="1" fill="#151D28" />
<rect x="16" y="125" width="1" height="1" fill="#151D28" />
<rect x="17" y="125" width="1" height="1" fill="#7A4841" opacity="0.996078" />
<rect x="18" y="125" width="1" height="1" fill="#7A4841" opacity="0.996078" />
<rect x="19" y="125" width="1" height="1" fill="#7A4841" opacity="0.996078" />
<rect x="20" y="125" width="1" height="1" fill="#4D2B32" />
<rect x="21" y="125" width="1" height="1" fill="#4D2B32" />
<rect x="22" y="125" width="1" height="1" fill="#7A4841" />
<rect x="23" y="125" width="1" height="1" fill="#7A4841" />
<rect x="24" y="125" width="1" height="1" fill="#7A4841" />
<rect x="25" y="125" width="1" height="1" fill="#7A4841" />
<rect x="26" y="125" width="1" height="1" fill="#4D2B32" />
<rect x="27" y="125" width="1" height="1" fill="#4D2B32" />
<rect x="28" y="125" width="1" height="1" fill="#7A4841" opacity="0.996078" />
<rect x="29" y="125" width="1" height="1" fill="#7A4841" opacity="0.996078" />
<rect x="30" y="125" width="1" height="1" fill="#7A4841" opacity="0.996078" />
<rect x="31" y="125" width="1" height="1" fill="#151D28" />
<rect x="32" y="125" width="1" height="1" fill="#202E37" />
<rect x="33" y="125" width="1" height="1" fill="#202E37" />
<rect x="34" y="125" width="1" height="1" fill="#151D28" />
<rect x="35" y="125" width="1" height="1" fill="#7A4841" opacity="0.996078" />
<rect x="36" y="125" width="1" height="1" fill="#7A4841" opacity="0.996078" />
<rect x="37" y="125" width="1" height="1" fill="#7A4841" opacity="0.996078" />
<rect x="38" y="125" width="1" height="1" fill="#394A50" />
<rect x="39" y="125" width="1" height="1" fill="#577277" />
<rect x="40" y="125" width="1" height="1" fill="#819796" />
<rect x="8" y="126" width="1" height="1" fill="#A8B5B2" />
<rect x="9" y="126" width="1" height="1" fill="#819796" />
<rect x="10" y="126" width="1" height="1" fill="#577277" />
<rect x="11" y="126" width="1" height="1" fill="#7A4841" opacity="0.996078" />
<rect x="12" y="126" width="1" height="1" fill="#7A4841" opacity="0.996078" />
<rect x="13" y="126" width="1" height="1" fill="#7A4841" opacity="0.996078" />
<rect x="14" y="126" width="1" height="1" fill="#151D28" />
<rect x="15" y="126" width="1" height="1" fill="#202E37" />
<rect x="16" y="126" width="1" height="1" fill="#202E37" />
<rect x="17" y="126" width="1" height="1" fill="#151D28" />
<rect x="18" y="126" width="1" height="1" fill="#151D28" />
<rect x="19" y="126" width="1" height="1" fill="#7A4841" opacity="0.996078" />
<rect x="20" y="126" width="1" height="1" fill="#819796" />
<rect x="21" y="126" width="1" height="1" fill="#4D2B32" />
<rect x="22" y="126" width="1" height="1" fill="#4D2B32" />
<rect x="23" y="126" width="1" height="1" fill="#4D2B32" />
<rect x="24" y="126" width="1" height="1" fill="#4D2B32" />
<rect x="25" y="126" width="1" height="1" fill="#4D2B32" />
<rect x="26" y="126" width="1" height="1" fill="#4D2B32" />
<rect x="27" y="126" width="1" height="1" fill="#819796" />
<rect x="28" y="126" width="1" height="1" fill="#7A4841" opacity="0.996078" />
<rect x="29" y="126" width="1" height="1" fill="#7A4841" opacity="0.996078" />
<rect x="30" y="126" width="1" height="1" fill="#151D28" />
<rect x="31" y="126" width="1" height="1" fill="#202E37" />
<rect x="32" y="126" width="1" height="1" fill="#151D28" />
<rect x="33" y="126" width="1" height="1" fill="#151D28" />
<rect x="34" y="126" width="1" height="1" fill="#7A4841" opacity="0.996078" />
<rect x="35" y="126" width="1" height="1" fill="#7A4841" opacity="0.996078" />
<rect x="36" y="126" width="1" height="1" fill="#7A4841" opacity="0.996078" />
<rect x="37" y="126" width="1" height="1" fill="#7A4841" opacity="0.996078" />
<rect x="38" y="126" width="1" height="1" fill="#394A50" />
<rect x="39" y="126" width="1" height="1" fill="#577277" />
<rect x="40" y="126" width="1" height="1" fill="#819796" />
<rect x="8" y="127" width="1" height="1" fill="#A8B5B2" />
<rect x="9" y="127" width="1" height="1" fill="#819796" />
<rect x="10" y="127" width="1" height="1" fill="#577277" />
<rect x="11" y="127" width="1" height="1" fill="#7A4841" opacity="0.996078" />
<rect x="12" y="127" width="1" height="1" fill="#7A4841" opacity="0.996078" />
<rect x="13" y="127" width="1" height="1" fill="#7A4841" opacity="0.996078" />
<rect x="14" y="127" width="1" height="1" fill="#7A4841" opacity="0.996078" />
<rect x="15" y="127" width="1" height="1" fill="#151D28" />
<rect x="16" y="127" width="1" height="1" fill="#151D28" />
<rect x="17" y="127" width="1" height="1" fill="#202E37" />
<rect x="18" y="127" width="1" height="1" fill="#202E37" />
<rect x="19" y="127" width="1" height="1" fill="#151D28" />
<rect x="20" y="127" width="1" height="1" fill="#7A4841" opacity="0.996078" />
<rect x="21" y="127" width="1" height="1" fill="#7A4841" opacity="0.996078" />
<rect x="22" y="127" width="1" height="1" fill="#7A4841" opacity="0.996078" />
<rect x="23" y="127" width="1" height="1" fill="#C7CFCC" />
<rect x="24" y="127" width="1" height="1" fill="#A8B5B2" />
<rect x="25" y="127" width="1" height="1" fill="#819796" />
<rect x="26" y="127" width="1" height="1" fill="#577277" />
<rect x="27" y="127" width="1" height="1" fill="#7A4841" opacity="0.996078" />
<rect x="28" y="127" width="1" height="1" fill="#151D28" />
<rect x="29" y="127" width="1" height="1" fill="#151D28" />
<rect x="30" y="127" width="1" height="1" fill="#202E37" />
<rect x="31" y="127" width="1" height="1" fill="#151D28" />
<rect x="32" y="127" width="1" height="1" fill="#7A4841" opacity="0.996078" />
<rect x="33" y="127" width="1" height="1" fill="#7A4841" opacity="0.996078" />
<rect x="34" y="127" width="1" height="1" fill="#7A4841" opacity="0.996078" />
<rect x="35" y="127" width="1" height="1" fill="#7A4841" opacity="0.996078" />
<rect x="36" y="127" width="1" height="1" fill="#7A4841" opacity="0.996078" />
<rect x="37" y="127" width="1" height="1" fill="#7A4841" opacity="0.996078" />
<rect x="38" y="127" width="1" height="1" fill="#394A50" />
<rect x="39" y="127" width="1" height="1" fill="#577277" />
<rect x="40" y="127" width="1" height="1" fill="#819796" />
<rect x="9" y="128" width="1" height="1" fill="#819796" />
<rect x="10" y="128" width="1" height="1" fill="#577277" />
<rect x="11" y="128" width="1" height="1" fill="#7A4841" opacity="0.996078" />
<rect x="12" y="128" width="1" height="1" fill="#7A4841" opacity="0.996078" />
<rect x="13" y="128" width="1" height="1" fill="#7A4841" opacity="0.996078" />
<rect x="14" y="128" width="1" height="1" fill="#7A4841" opacity="0.996078" />
<rect x="15" y="128" width="1" height="1" fill="#7A4841" opacity="0.996078" />
<rect x="16" y="128" width="1" height="1" fill="#7A4841" opacity="0.996078" />
<rect x="17" y="128" width="1" height="1" fill="#151D28" />
<rect x="18" y="128" width="1" height="1" fill="#151D28" />
<rect x="19" y="128" width="1" height="1" fill="#202E37" />
<rect x="20" y="128" width="1" height="1" fill="#151D28" />
<rect x="21" y="128" width="1" height="1" fill="#151D28" />
<rect x="22" y="128" width="1" height="1" fill="#819796" />
<rect x="23" y="128" width="1" height="1" fill="#C7CFCC" />
<rect x="24" y="128" width="1" height="1" fill="#A8B5B2" />
<rect x="25" y="128" width="1" height="1" fill="#819796" />
<rect x="26" y="128" width="1" height="1" fill="#577277" />
<rect x="27" y="128" width="1" height="1" fill="#151D28" />
<rect x="28" y="128" width="1" height="1" fill="#202E37" />
<rect x="29" y="128" width="1" height="1" fill="#202E37" />
<rect x="30" y="128" width="1" height="1" fill="#151D28" />
<rect x="31" y="128" width="1" height="1" fill="#7A4841" opacity="0.996078" />
<rect x="32" y="128" width="1" height="1" fill="#7A4841" opacity="0.996078" />
<rect x="33" y="128" width="1" height="1" fill="#7A4841" opacity="0.996078" />
<rect x="34" y="128" width="1" height="1" fill="#7A4841" opacity="0.996078" />
<rect x="35" y="128" width="1" height="1" fill="#7A4841" opacity="0.996078" />
<rect x="36" y="128" width="1" height="1" fill="#7B4942" opacity="0.996078" />
<rect x="38" y="128" width="1" height="1" fill="#394A50" />
<rect x="39" y="128" width="1" height="1" fill="#577277" />
<rect x="40" y="128" width="1" height="1" fill="#819796" />
<rect x="12" y="129" width="1" height="1" fill="#7A4841" opacity="0.996078" />
<rect x="13" y="129" width="1" height="1" fill="#7A4841" opacity="0.996078" />
<rect x="14" y="129" width="1" height="1" fill="#7A4841" opacity="0.996078" />
<rect x="15" y="129" width="1" height="1" fill="#7A4841" opacity="0.996078" />
<rect x="16" y="129" width="1" height="1" fill="#7A4841" opacity="0.996078" />
<rect x="17" y="129" width="1" height="1" fill="#7A4841" opacity="0.996078" />
<rect x="18" y="129" width="1" height="1" fill="#7A4841" opacity="0.996078" />
<rect x="19" y="129" width="1" height="1" fill="#151D28" />
<rect x="20" y="129" width="1" height="1" fill="#202E37" />
<rect x="21" y="129" width="1" height="1" fill="#202E37" />
<rect x="22" y="129" width="1" height="1" fill="#151D28" />
<rect x="23" y="129" width="1" height="1" fill="#C7CFCC" />
<rect x="24" y="129" width="1" height="1" fill="#A8B5B2" />
<rect x="25" y="129" width="1" height="1" fill="#819796" />
<rect x="26" y="129" width="1" height="1" fill="#577277" />
<rect x="27" y="129" width="1" height="1" fill="#202E37" />
<rect x="28" y="129" width="1" height="1" fill="#151D28" />
<rect x="29" y="129" width="1" height="1" fill="#151D28" />
<rect x="30" y="129" width="1" height="1" fill="#7A4841" opacity="0.996078" />
<rect x="31" y="129" width="1" height="1" fill="#7A4841" opacity="0.996078" />
<rect x="32" y="129" width="1" height="1" fill="#7A4841" opacity="0.996078" />
<rect x="33" y="129" width="1" height="1" fill="#7A4841" opacity="0.996078" />
<rect x="34" y="129" width="1" height="1" fill="#7A4841" opacity="0.996078" />
<rect x="38" y="129" width="1" height="1" fill="#394A50" />
<rect x="39" y="129" width="1" height="1" fill="#577277" />
<rect x="13" y="130" width="1" height="1" fill="#7A4841" opacity="0.996078" />
<rect x="14" y="130" width="1" height="1" fill="#7A4841" opacity="0.996078" />
<rect x="15" y="130" width="1" height="1" fill="#7A4841" opacity="0.996078" />
<rect x="16" y="130" width="1" height="1" fill="#7A4841" opacity="0.996078" />
<rect x="17" y="130" width="1" height="1" fill="#7A4841" opacity="0.996078" />
<rect x="18" y="130" width="1" height="1" fill="#7A4841" opacity="0.996078" />
<rect x="19" y="130" width="1" height="1" fill="#7A4841" opacity="0.996078" />
<rect x="20" y="130" width="1" height="1" fill="#151D28" />
<rect x="21" y="130" width="1" height="1" fill="#151D28" />
<rect x="22" y="130" width="1" height="1" fill="#202E37" />
<rect x="23" y="130" width="1" height="1" fill="#C7CFCC" />
<rect x="24" y="130" width="1" height="1" fill="#A8B5B2" />
<rect x="25" y="130" width="1" height="1" fill="#819796" />
<rect x="26" y="130" width="1" height="1" fill="#577277" />
<rect x="27" y="130" width="1" height="1" fill="#151D28" />
<rect x="28" y="130" width="1" height="1" fill="#7A4841" opacity="0.996078" />
<rect x="29" y="130" width="1" height="1" fill="#7A4841" opacity="0.996078" />
<rect x="30" y="130" width="1" height="1" fill="#7A4841" opacity="0.996078" />
<rect x="31" y="130" width="1" height="1" fill="#7A4841" opacity="0.996078" />
<rect x="32" y="130" width="1" height="1" fill="#7A4841" opacity="0.996078" />
<rect x="15" y="131" width="1" height="1" fill="#7A4841" opacity="0.996078" />
<rect x="16" y="131" width="1" height="1" fill="#7A4841" opacity="0.996078" />
<rect x="17" y="131" width="1" height="1" fill="#7A4841" opacity="0.996078" />
<rect x="18" y="131" width="1" height="1" fill="#7A4841" opacity="0.996078" />
<rect x="19" y="131" width="1" height="1" fill="#7A4841" opacity="0.996078" />
<rect x="20" y="131" width="1" height="1" fill="#7A4841" opacity="0.996078" />
<rect x="21" y="131" width="1" height="1" fill="#7A4841" opacity="0.996078" />
<rect x="22" y="131" width="1" height="1" fill="#151D28" />
<rect x="23" y="131" width="1" height="1" fill="#C7CFCC" />
<rect x="24" y="131" width="1" height="1" fill="#A8B5B2" />
<rect x="25" y="131" width="1" height="1" fill="#819796" />
<rect x="26" y="131" width="1" height="1" fill="#577277" />
<rect x="27" y="131" width="1" height="1" fill="#7A4841" opacity="0.996078" />
<rect x="28" y="131" width="1" height="1" fill="#7A4841" opacity="0.996078" />
<rect x="29" y="131" width="1" height="1" fill="#7A4841" opacity="0.996078" />
<rect x="30" y="131" width="1" height="1" fill="#7A4841" opacity="0.996078" />
<rect x="31" y="131" width="1" height="1" fill="#7A4841" opacity="0.996078" />
<rect x="17" y="132" width="1" height="1" fill="#7A4841" opacity="0.996078" />
<rect x="18" y="132" width="1" height="1" fill="#7A4841" opacity="0.996078" />
<rect x="19" y="132" width="1" height="1" fill="#7A4841" opacity="0.996078" />
<rect x="20" y="132" width="1" height="1" fill="#7A4841" opacity="0.996078" />
<rect x="21" y="132" width="1" height="1" fill="#7A4841" opacity="0.996078" />
<rect x="22" y="132" width="1" height="1" fill="#7A4841" opacity="0.996078" />
<rect x="23" y="132" width="1" height="1" fill="#C7CFCC" />
<rect x="24" y="132" width="1" height="1" fill="#A8B5B2" />
<rect x="25" y="132" width="1" height="1" fill="#819796" />
<rect x="26" y="132" width="1" height="1" fill="#577277" />
<rect x="27" y="132" width="1" height="1" fill="#7A4841" opacity="0.996078" />
<rect x="28" y="132" width="1" height="1" fill="#7A4841" opacity="0.996078" />
<rect x="29" y="132" width="1" height="1" fill="#7A4841" opacity="0.996078" />
<rect x="18" y="133" width="1" height="1" fill="#7A4841" opacity="0.996078" />
<rect x="19" y="133" width="1" height="1" fill="#7A4841" opacity="0.996078" />
<rect x="20" y="133" width="1" height="1" fill="#7A4841" opacity="0.996078" />
<rect x="21" y="133" width="1" height="1" fill="#7A4841" opacity="0.996078" />
<rect x="22" y="133" width="1" height="1" fill="#7A4841" opacity="0.996078" />
<rect x="23" y="133" width="1" height="1" fill="#C7CFCC" />
<rect x="24" y="133" width="1" height="1" fill="#A8B5B2" />
<rect x="25" y="133" width="1" height="1" fill="#819796" />
<rect x="26" y="133" width="1" height="1" fill="#577277" />
<rect x="27" y="133" width="1" height="1" fill="#7A4841" opacity="0.996078" />
<rect x="28" y="133" width="1" height="1" fill="#7A4841" opacity="0.996078" />
<rect x="20" y="134" width="1" height="1" fill="#7A4841" opacity="0.996078" />
<rect x="21" y="134" width="1" height="1" fill="#7A4841" opacity="0.996078" />
<rect x="22" y="134" width="1" height="1" fill="#7A4841" opacity="0.996078" />
<rect x="23" y="134" width="1" height="1" fill="#C7CFCC" />
<rect x="24" y="134" width="1" height="1" fill="#A8B5B2" />
<rect x="25" y="134" width="1" height="1" fill="#819796" />
<rect x="26" y="134" width="1" height="1" fill="#577277" />
<rect x="21" y="135" width="1" height="1" fill="#7A4841" opacity="0.996078" />
<rect x="22" y="135" width="1" height="1" fill="#7A4841" opacity="0.996078" />
<rect x="23" y="135" width="1" height="1" fill="#C7CFCC" />
<rect x="24" y="135" width="1" height="1" fill="#A8B5B2" />
<rect x="25" y="135" width="1" height="1" fill="#819796" />
<rect x="26" y="135" width="1" height="1" fill="#577277" />
<rect x="23" y="136" width="1" height="1" fill="#C7CFCC" />
<rect x="24" y="136" width="1" height="1" fill="#A8B5B2" />
<rect x="25" y="136" width="1" height="1" fill="#819796" />
<rect x="26" y="136" width="1" height="1" fill="#577277" />
<rect x="24" y="137" width="1" height="1" fill="#A8B5B2" />
<rect x="25" y="137" width="1" height="1" fill="#819796" />
</svg>