<?xml version="1.0" encoding="UTF-8" ?>
<svg version="1.1" width="144" height="144" xmlns="http://www.w3.org/2000/svg" shape-rendering="crispEdges">
<rect x="118" y="9" width="1" height="1" fill="#7A4841" />
<rect x="119" y="9" width="1" height="1" fill="#7A4841" />
<rect x="120" y="9" width="1" height="1" fill="#7A4841" />
<rect x="121" y="9" width="1" height="1" fill="#7A4841" />
<rect x="122" y="9" width="1" height="1" fill="#7A4841" />
<rect x="117" y="10" width="1" height="1" fill="#7A4841" />
<rect x="118" y="10" width="1" height="1" fill="#C09473" />
<rect x="119" y="10" width="1" height="1" fill="#C09473" />
<rect x="120" y="10" width="1" height="1" fill="#C09473" />
<rect x="121" y="10" width="1" height="1" fill="#C09473" />
<rect x="122" y="10" width="1" height="1" fill="#C09473" />
<rect x="123" y="10" width="1" height="1" fill="#7A4841" />
<rect x="124" y="10" width="1" height="1" fill="#7A4841" />
<rect x="115" y="11" width="1" height="1" fill="#7A4841" />
<rect x="116" y="11" width="1" height="1" fill="#7A4841" />
<rect x="117" y="11" width="1" height="1" fill="#C09473" />
<rect x="118" y="11" width="1" height="1" fill="#C09473" />
<rect x="119" y="11" width="1" height="1" fill="#C09473" />
<rect x="120" y="11" width="1" height="1" fill="#C09473" />
<rect x="121" y="11" width="1" height="1" fill="#C09473" />
<rect x="122" y="11" width="1" height="1" fill="#C09473" />
<rect x="123" y="11" width="1" height="1" fill="#C09473" />
<rect x="124" y="11" width="1" height="1" fill="#C09473" />
<rect x="125" y="11" width="1" height="1" fill="#7A4841" />
<rect x="114" y="12" width="1" height="1" fill="#7A4841" />
<rect x="115" y="12" width="1" height="1" fill="#C09473" />
<rect x="116" y="12" width="1" height="1" fill="#C09473" />
<rect x="117" y="12" width="1" height="1" fill="#C09473" />
<rect x="118" y="12" width="1" height="1" fill="#C09473" />
<rect x="119" y="12" width="1" height="1" fill="#C09473" />
<rect x="120" y="12" width="1" height="1" fill="#C09473" />
<rect x="121" y="12" width="1" height="1" fill="#C09473" />
<rect x="122" y="12" width="1" height="1" fill="#C09473" />
<rect x="123" y="12" width="1" height="1" fill="#C09473" />
<rect x="124" y="12" width="1" height="1" fill="#C09473" />
<rect x="125" y="12" width="1" height="1" fill="#C09473" />
<rect x="126" y="12" width="1" height="1" fill="#7A4841" />
<rect x="127" y="12" width="1" height="1" fill="#7A4841" />
<rect x="112" y="13" width="1" height="1" fill="#7A4841" />
<rect x="113" y="13" width="1" height="1" fill="#7A4841" />
<rect x="114" y="13" width="1" height="1" fill="#C09473" />
<rect x="115" y="13" width="1" height="1" fill="#C09473" />
<rect x="116" y="13" width="1" height="1" fill="#C09473" />
<rect x="117" y="13" width="1" height="1" fill="#C09473" />
<rect x="118" y="13" width="1" height="1" fill="#4F8FBA" />
<rect x="119" y="13" width="1" height="1" fill="#4F8FBA" />
<rect x="120" y="13" width="1" height="1" fill="#C09473" />
<rect x="121" y="13" width="1" height="1" fill="#C09473" />
<rect x="122" y="13" width="1" height="1" fill="#C09473" />
<rect x="123" y="13" width="1" height="1" fill="#C09473" />
<rect x="124" y="13" width="1" height="1" fill="#C09473" />
<rect x="125" y="13" width="1" height="1" fill="#C09473" />
<rect x="126" y="13" width="1" height="1" fill="#C09473" />
<rect x="127" y="13" width="1" height="1" fill="#C09473" />
<rect x="128" y="13" width="1" height="1" fill="#7A4841" />
<rect x="129" y="13" width="1" height="1" fill="#7A4841" />
<rect x="111" y="14" width="1" height="1" fill="#7A4841" />
<rect x="112" y="14" width="1" height="1" fill="#C09473" />
<rect x="113" y="14" width="1" height="1" fill="#C09473" />
<rect x="114" y="14" width="1" height="1" fill="#C09473" />
<rect x="115" y="14" width="1" height="1" fill="#C09473" />
<rect x="116" y="14" width="1" height="1" fill="#4F8FBA" />
<rect x="117" y="14" width="1" height="1" fill="#4F8FBA" />
<rect x="118" y="14" width="1" height="1" fill="#73BED3" />
<rect x="119" y="14" width="1" height="1" fill="#73BED3" />
<rect x="120" y="14" width="1" height="1" fill="#4F8FBA" />
<rect x="121" y="14" width="1" height="1" fill="#4F8FBA" />
<rect x="122" y="14" width="1" height="1" fill="#C09473" />
<rect x="123" y="14" width="1" height="1" fill="#C09473" />
<rect x="124" y="14" width="1" height="1" fill="#C09473" />
<rect x="125" y="14" width="1" height="1" fill="#C09473" />
<rect x="126" y="14" width="1" height="1" fill="#C09473" />
<rect x="127" y="14" width="1" height="1" fill="#C09473" />
<rect x="128" y="14" width="1" height="1" fill="#C09473" />
<rect x="129" y="14" width="1" height="1" fill="#C09473" />
<rect x="130" y="14" width="1" height="1" fill="#7A4841" />
<rect x="109" y="15" width="1" height="1" fill="#7A4841" />
<rect x="110" y="15" width="1" height="1" fill="#7A4841" />
<rect x="111" y="15" width="1" height="1" fill="#C09473" />
<rect x="112" y="15" width="1" height="1" fill="#C09473" />
<rect x="113" y="15" width="1" height="1" fill="#C09473" />
<rect x="114" y="15" width="1" height="1" fill="#C09473" />
<rect x="115" y="15" width="1" height="1" fill="#4F8FBA" />
<rect x="116" y="15" width="1" height="1" fill="#73BED3" />
<rect x="117" y="15" width="1" height="1" fill="#73BED3" />
<rect x="118" y="15" width="1" height="1" fill="#73BED3" />
<rect x="119" y="15" width="1" height="1" fill="#73BED3" />
<rect x="120" y="15" width="1" height="1" fill="#73BED3" />
<rect x="121" y="15" width="1" height="1" fill="#73BED3" />
<rect x="122" y="15" width="1" height="1" fill="#4F8FBA" />
<rect x="123" y="15" width="1" height="1" fill="#C09473" />
<rect x="124" y="15" width="1" height="1" fill="#C09473" />
<rect x="125" y="15" width="1" height="1" fill="#C09473" />
<rect x="126" y="15" width="1" height="1" fill="#C09473" />
<rect x="127" y="15" width="1" height="1" fill="#C09473" />
<rect x="128" y="15" width="1" height="1" fill="#C09473" />
<rect x="129" y="15" width="1" height="1" fill="#C09473" />
<rect x="130" y="15" width="1" height="1" fill="#C09473" />
<rect x="131" y="15" width="1" height="1" fill="#7A4841" />
<rect x="132" y="15" width="1" height="1" fill="#7A4841" />
<rect x="107" y="16" width="1" height="1" fill="#7A4841" />
<rect x="108" y="16" width="1" height="1" fill="#7A4841" />
<rect x="109" y="16" width="1" height="1" fill="#C09473" />
<rect x="110" y="16" width="1" height="1" fill="#C09473" />
<rect x="111" y="16" width="1" height="1" fill="#C09473" />
<rect x="112" y="16" width="1" height="1" fill="#C09473" />
<rect x="113" y="16" width="1" height="1" fill="#4F8FBA" />
<rect x="114" y="16" width="1" height="1" fill="#4F8FBA" />
<rect x="115" y="16" width="1" height="1" fill="#73BED3" />
<rect x="116" y="16" width="1" height="1" fill="#73BED3" />
<rect x="117" y="16" width="1" height="1" fill="#73BED3" />
<rect x="118" y="16" width="1" height="1" fill="#73BED3" />
<rect x="119" y="16" width="1" height="1" fill="#73BED3" />
<rect x="120" y="16" width="1" height="1" fill="#73BED3" />
<rect x="121" y="16" width="1" height="1" fill="#73BED3" />
<rect x="122" y="16" width="1" height="1" fill="#73BED3" />
<rect x="123" y="16" width="1" height="1" fill="#4F8FBA" />
<rect x="124" y="16" width="1" height="1" fill="#C09473" />
<rect x="125" y="16" width="1" height="1" fill="#C09473" />
<rect x="126" y="16" width="1" height="1" fill="#C09473" />
<rect x="127" y="16" width="1" height="1" fill="#C09473" />
<rect x="128" y="16" width="1" height="1" fill="#C09473" />
<rect x="129" y="16" width="1" height="1" fill="#C09473" />
<rect x="130" y="16" width="1" height="1" fill="#C09473" />
<rect x="131" y="16" width="1" height="1" fill="#C09473" />
<rect x="132" y="16" width="1" height="1" fill="#C09473" />
<rect x="133" y="16" width="1" height="1" fill="#7A4841" />
<rect x="106" y="17" width="1" height="1" fill="#7A4841" />
<rect x="107" y="17" width="1" height="1" fill="#C09473" />
<rect x="108" y="17" width="1" height="1" fill="#C09473" />
<rect x="109" y="17" width="1" height="1" fill="#C09473" />
<rect x="110" y="17" width="1" height="1" fill="#C09473" />
<rect x="111" y="17" width="1" height="1" fill="#4F8FBA" />
<rect x="112" y="17" width="1" height="1" fill="#4F8FBA" />
<rect x="113" y="17" width="1" height="1" fill="#73BED3" />
<rect x="114" y="17" width="1" height="1" fill="#73BED3" />
<rect x="115" y="17" width="1" height="1" fill="#C7CFCC" />
<rect x="116" y="17" width="1" height="1" fill="#C7CFCC" />
<rect x="117" y="17" width="1" height="1" fill="#73BED3" />
<rect x="118" y="17" width="1" height="1" fill="#73BED3" />
<rect x="119" y="17" width="1" height="1" fill="#73BED3" />
<rect x="120" y="17" width="1" height="1" fill="#73BED3" />
<rect x="121" y="17" width="1" height="1" fill="#73BED3" />
<rect x="122" y="17" width="1" height="1" fill="#73BED3" />
<rect x="123" y="17" width="1" height="1" fill="#4F8FBA" />
<rect x="124" y="17" width="1" height="1" fill="#C09473" />
<rect x="125" y="17" width="1" height="1" fill="#C09473" />
<rect x="126" y="17" width="1" height="1" fill="#C09473" />
<rect x="127" y="17" width="1" height="1" fill="#C09473" />
<rect x="128" y="17" width="1" height="1" fill="#C09473" />
<rect x="129" y="17" width="1" height="1" fill="#C09473" />
<rect x="130" y="17" width="1" height="1" fill="#C09473" />
<rect x="131" y="17" width="1" height="1" fill="#C09473" />
<rect x="132" y="17" width="1" height="1" fill="#C09473" />
<rect x="133" y="17" width="1" height="1" fill="#C09473" />
<rect x="134" y="17" width="1" height="1" fill="#7A4841" />
<rect x="135" y="17" width="1" height="1" fill="#7A4841" />
<rect x="104" y="18" width="1" height="1" fill="#7A4841" />
<rect x="105" y="18" width="1" height="1" fill="#7A4841" />
<rect x="106" y="18" width="1" height="1" fill="#C09473" />
<rect x="107" y="18" width="1" height="1" fill="#C09473" />
<rect x="108" y="18" width="1" height="1" fill="#C09473" />
<rect x="109" y="18" width="1" height="1" fill="#C09473" />
<rect x="110" y="18" width="1" height="1" fill="#4F8FBA" />
<rect x="111" y="18" width="1" height="1" fill="#73BED3" />
<rect x="112" y="18" width="1" height="1" fill="#73BED3" />
<rect x="113" y="18" width="1" height="1" fill="#73BED3" />
<rect x="114" y="18" width="1" height="1" fill="#C7CFCC" />
<rect x="115" y="18" width="1" height="1" fill="#C7CFCC" />
<rect x="116" y="18" width="1" height="1" fill="#C7CFCC" />
<rect x="117" y="18" width="1" height="1" fill="#C7CFCC" />
<rect x="118" y="18" width="1" height="1" fill="#C7CFCC" />
<rect x="119" y="18" width="1" height="1" fill="#73BED3" />
<rect x="120" y="18" width="1" height="1" fill="#73BED3" />
<rect x="121" y="18" width="1" height="1" fill="#4F8FBA" />
<rect x="122" y="18" width="1" height="1" fill="#4F8FBA" />
<rect x="123" y="18" width="1" height="1" fill="#C09473" />
<rect x="124" y="18" width="1" height="1" fill="#C09473" />
<rect x="125" y="18" width="1" height="1" fill="#C09473" />
<rect x="126" y="18" width="1" height="1" fill="#C09473" />
<rect x="127" y="18" width="1" height="1" fill="#C09473" />
<rect x="128" y="18" width="1" height="1" fill="#C09473" />
<rect x="129" y="18" width="1" height="1" fill="#C09473" />
<rect x="130" y="18" width="1" height="1" fill="#C09473" />
<rect x="131" y="18" width="1" height="1" fill="#C09473" />
<rect x="132" y="18" width="1" height="1" fill="#C09473" />
<rect x="133" y="18" width="1" height="1" fill="#C09473" />
<rect x="134" y="18" width="1" height="1" fill="#C09473" />
<rect x="135" y="18" width="1" height="1" fill="#C09473" />
<rect x="136" y="18" width="1" height="1" fill="#7A4841" />
<rect x="103" y="19" width="1" height="1" fill="#7A4841" />
<rect x="104" y="19" width="1" height="1" fill="#C09473" />
<rect x="105" y="19" width="1" height="1" fill="#C09473" />
<rect x="106" y="19" width="1" height="1" fill="#C09473" />
<rect x="107" y="19" width="1" height="1" fill="#C09473" />
<rect x="108" y="19" width="1" height="1" fill="#C09473" />
<rect x="109" y="19" width="1" height="1" fill="#C09473" />
<rect x="110" y="19" width="1" height="1" fill="#C09473" />
<rect x="111" y="19" width="1" height="1" fill="#4F8FBA" />
<rect x="112" y="19" width="1" height="1" fill="#73BED3" />
<rect x="113" y="19" width="1" height="1" fill="#73BED3" />
<rect x="114" y="19" width="1" height="1" fill="#73BED3" />
<rect x="115" y="19" width="1" height="1" fill="#73BED3" />
<rect x="116" y="19" width="1" height="1" fill="#C7CFCC" />
<rect x="117" y="19" width="1" height="1" fill="#C7CFCC" />
<rect x="118" y="19" width="1" height="1" fill="#73BED3" />
<rect x="119" y="19" width="1" height="1" fill="#73BED3" />
<rect x="120" y="19" width="1" height="1" fill="#4F8FBA" />
<rect x="121" y="19" width="1" height="1" fill="#C09473" />
<rect x="122" y="19" width="1" height="1" fill="#C09473" />
<rect x="123" y="19" width="1" height="1" fill="#C09473" />
<rect x="124" y="19" width="1" height="1" fill="#C09473" />
<rect x="125" y="19" width="1" height="1" fill="#C09473" />
<rect x="126" y="19" width="1" height="1" fill="#C09473" />
<rect x="127" y="19" width="1" height="1" fill="#C09473" />
<rect x="128" y="19" width="1" height="1" fill="#C09473" />
<rect x="129" y="19" width="1" height="1" fill="#C09473" />
<rect x="130" y="19" width="1" height="1" fill="#C09473" />
<rect x="131" y="19" width="1" height="1" fill="#C09473" />
<rect x="132" y="19" width="1" height="1" fill="#C09473" />
<rect x="133" y="19" width="1" height="1" fill="#C09473" />
<rect x="134" y="19" width="1" height="1" fill="#C09473" />
<rect x="135" y="19" width="1" height="1" fill="#AD7757" />
<rect x="136" y="19" width="1" height="1" fill="#7A4841" />
<rect x="102" y="20" width="1" height="1" fill="#7A4841" />
<rect x="103" y="20" width="1" height="1" fill="#AD7757" />
<rect x="104" y="20" width="1" height="1" fill="#C09473" />
<rect x="105" y="20" width="1" height="1" fill="#C09473" />
<rect x="106" y="20" width="1" height="1" fill="#C09473" />
<rect x="107" y="20" width="1" height="1" fill="#C09473" />
<rect x="108" y="20" width="1" height="1" fill="#C09473" />
<rect x="109" y="20" width="1" height="1" fill="#C09473" />
<rect x="110" y="20" width="1" height="1" fill="#C09473" />
<rect x="111" y="20" width="1" height="1" fill="#C09473" />
<rect x="112" y="20" width="1" height="1" fill="#4F8FBA" />
<rect x="113" y="20" width="1" height="1" fill="#4F8FBA" />
<rect x="114" y="20" width="1" height="1" fill="#73BED3" />
<rect x="115" y="20" width="1" height="1" fill="#73BED3" />
<rect x="116" y="20" width="1" height="1" fill="#73BED3" />
<rect x="117" y="20" width="1" height="1" fill="#73BED3" />
<rect x="118" y="20" width="1" height="1" fill="#4F8FBA" />
<rect x="119" y="20" width="1" height="1" fill="#4F8FBA" />
<rect x="120" y="20" width="1" height="1" fill="#C09473" />
<rect x="121" y="20" width="1" height="1" fill="#C09473" />
<rect x="122" y="20" width="1" height="1" fill="#C09473" />
<rect x="123" y="20" width="1" height="1" fill="#C09473" />
<rect x="124" y="20" width="1" height="1" fill="#C09473" />
<rect x="125" y="20" width="1" height="1" fill="#C09473" />
<rect x="126" y="20" width="1" height="1" fill="#DF84A5" />
<rect x="127" y="20" width="1" height="1" fill="#C09473" />
<rect x="128" y="20" width="1" height="1" fill="#C09473" />
<rect x="129" y="20" width="1" height="1" fill="#C09473" />
<rect x="130" y="20" width="1" height="1" fill="#C09473" />
<rect x="131" y="20" width="1" height="1" fill="#C09473" />
<rect x="132" y="20" width="1" height="1" fill="#C09473" />
<rect x="133" y="20" width="1" height="1" fill="#C09473" />
<rect x="134" y="20" width="1" height="1" fill="#AD7757" />
<rect x="135" y="20" width="1" height="1" fill="#7A4841" />
<rect x="136" y="20" width="1" height="1" fill="#4D2B32" />
<rect x="102" y="21" width="1" height="1" fill="#4D2B32" />
<rect x="103" y="21" width="1" height="1" fill="#7A4841" />
<rect x="104" y="21" width="1" height="1" fill="#AD7757" />
<rect x="105" y="21" width="1" height="1" fill="#AD7757" />
<rect x="106" y="21" width="1" height="1" fill="#C09473" />
<rect x="107" y="21" width="1" height="1" fill="#C09473" />
<rect x="108" y="21" width="1" height="1" fill="#C09473" />
<rect x="109" y="21" width="1" height="1" fill="#C09473" />
<rect x="110" y="21" width="1" height="1" fill="#C09473" />
<rect x="111" y="21" width="1" height="1" fill="#C09473" />
<rect x="112" y="21" width="1" height="1" fill="#C09473" />
<rect x="113" y="21" width="1" height="1" fill="#C09473" />
<rect x="114" y="21" width="1" height="1" fill="#4F8FBA" />
<rect x="115" y="21" width="1" height="1" fill="#4F8FBA" />
<rect x="116" y="21" width="1" height="1" fill="#73BED3" />
<rect x="117" y="21" width="1" height="1" fill="#4F8FBA" />
<rect x="118" y="21" width="1" height="1" fill="#C09473" />
<rect x="119" y="21" width="1" height="1" fill="#C09473" />
<rect x="120" y="21" width="1" height="1" fill="#C09473" />
<rect x="121" y="21" width="1" height="1" fill="#C09473" />
<rect x="122" y="21" width="1" height="1" fill="#C09473" />
<rect x="123" y="21" width="1" height="1" fill="#C09473" />
<rect x="124" y="21" width="1" height="1" fill="#C09473" />
<rect x="125" y="21" width="1" height="1" fill="#DE9E41" />
<rect x="126" y="21" width="1" height="1" fill="#E8C170" />
<rect x="127" y="21" width="1" height="1" fill="#C09473" />
<rect x="128" y="21" width="1" height="1" fill="#C09473" />
<rect x="129" y="21" width="1" height="1" fill="#C09473" />
<rect x="130" y="21" width="1" height="1" fill="#C09473" />
<rect x="131" y="21" width="1" height="1" fill="#C09473" />
<rect x="132" y="21" width="1" height="1" fill="#C09473" />
<rect x="133" y="21" width="1" height="1" fill="#AD7757" />
<rect x="134" y="21" width="1" height="1" fill="#7A4841" />
<rect x="135" y="21" width="1" height="1" fill="#4D2B32" />
<rect x="103" y="22" width="1" height="1" fill="#4D2B32" />
<rect x="104" y="22" width="1" height="1" fill="#7A4841" />
<rect x="105" y="22" width="1" height="1" fill="#7A4841" />
<rect x="106" y="22" width="1" height="1" fill="#AD7757" />
<rect x="107" y="22" width="1" height="1" fill="#C09473" />
<rect x="108" y="22" width="1" height="1" fill="#C09473" />
<rect x="109" y="22" width="1" height="1" fill="#C09473" />
<rect x="110" y="22" width="1" height="1" fill="#C09473" />
<rect x="111" y="22" width="1" height="1" fill="#C09473" />
<rect x="112" y="22" width="1" height="1" fill="#C09473" />
<rect x="113" y="22" width="1" height="1" fill="#C09473" />
<rect x="114" y="22" width="1" height="1" fill="#C09473" />
<rect x="115" y="22" width="1" height="1" fill="#C09473" />
<rect x="116" y="22" width="1" height="1" fill="#4F8FBA" />
<rect x="117" y="22" width="1" height="1" fill="#C09473" />
<rect x="118" y="22" width="1" height="1" fill="#C09473" />
<rect x="119" y="22" width="1" height="1" fill="#C09473" />
<rect x="120" y="22" width="1" height="1" fill="#C09473" />
<rect x="121" y="22" width="1" height="1" fill="#C09473" />
<rect x="122" y="22" width="1" height="1" fill="#C09473" />
<rect x="123" y="22" width="1" height="1" fill="#DE9E41" />
<rect x="124" y="22" width="1" height="1" fill="#DE9E41" />
<rect x="125" y="22" width="1" height="1" fill="#E8C170" />
<rect x="126" y="22" width="1" height="1" fill="#C09473" />
<rect x="127" y="22" width="1" height="1" fill="#C09473" />
<rect x="128" y="22" width="1" height="1" fill="#C09473" />
<rect x="129" y="22" width="1" height="1" fill="#C09473" />
<rect x="130" y="22" width="1" height="1" fill="#C09473" />
<rect x="131" y="22" width="1" height="1" fill="#AD7757" />
<rect x="132" y="22" width="1" height="1" fill="#AD7757" />
<rect x="133" y="22" width="1" height="1" fill="#7A4841" />
<rect x="134" y="22" width="1" height="1" fill="#4D2B32" />
<rect x="135" y="22" width="1" height="1" fill="#819796" />
<rect x="103" y="23" width="1" height="1" fill="#A8B5B2" />
<rect x="104" y="23" width="1" height="1" fill="#4D2B32" />
<rect x="105" y="23" width="1" height="1" fill="#4D2B32" />
<rect x="106" y="23" width="1" height="1" fill="#7A4841" />
<rect x="107" y="23" width="1" height="1" fill="#AD7757" />
<rect x="108" y="23" width="1" height="1" fill="#AD7757" />
<rect x="109" y="23" width="1" height="1" fill="#C09473" />
<rect x="110" y="23" width="1" height="1" fill="#C09473" />
<rect x="111" y="23" width="1" height="1" fill="#C09473" />
<rect x="112" y="23" width="1" height="1" fill="#C09473" />
<rect x="113" y="23" width="1" height="1" fill="#C09473" />
<rect x="114" y="23" width="1" height="1" fill="#C09473" />
<rect x="115" y="23" width="1" height="1" fill="#C09473" />
<rect x="116" y="23" width="1" height="1" fill="#C09473" />
<rect x="117" y="23" width="1" height="1" fill="#C09473" />
<rect x="118" y="23" width="1" height="1" fill="#C09473" />
<rect x="119" y="23" width="1" height="1" fill="#C09473" />
<rect x="120" y="23" width="1" height="1" fill="#C09473" />
<rect x="121" y="23" width="1" height="1" fill="#C09473" />
<rect x="122" y="23" width="1" height="1" fill="#DE9E41" />
<rect x="123" y="23" width="1" height="1" fill="#E8C170" />
<rect x="124" y="23" width="1" height="1" fill="#E8C170" />
<rect x="125" y="23" width="1" height="1" fill="#C09473" />
<rect x="126" y="23" width="1" height="1" fill="#C09473" />
<rect x="127" y="23" width="1" height="1" fill="#C09473" />
<rect x="128" y="23" width="1" height="1" fill="#C09473" />
<rect x="129" y="23" width="1" height="1" fill="#AD7757" />
<rect x="130" y="23" width="1" height="1" fill="#AD7757" />
<rect x="131" y="23" width="1" height="1" fill="#7A4841" />
<rect x="132" y="23" width="1" height="1" fill="#7A4841" />
<rect x="133" y="23" width="1" height="1" fill="#4D2B32" />
<rect x="134" y="23" width="1" height="1" fill="#577277" />
<rect x="135" y="23" width="1" height="1" fill="#819796" />
<rect x="103" y="24" width="1" height="1" fill="#A8B5B2" />
<rect x="104" y="24" width="1" height="1" fill="#819796" />
<rect x="105" y="24" width="1" height="1" fill="#577277" />
<rect x="106" y="24" width="1" height="1" fill="#4D2B32" />
<rect x="107" y="24" width="1" height="1" fill="#7A4841" />
<rect x="108" y="24" width="1" height="1" fill="#7A4841" />
<rect x="109" y="24" width="1" height="1" fill="#AD7757" />
<rect x="110" y="24" width="1" height="1" fill="#C09473" />
<rect x="111" y="24" width="1" height="1" fill="#C09473" />
<rect x="112" y="24" width="1" height="1" fill="#C09473" />
<rect x="113" y="24" width="1" height="1" fill="#C09473" />
<rect x="114" y="24" width="1" height="1" fill="#C09473" />
<rect x="115" y="24" width="1" height="1" fill="#C09473" />
<rect x="116" y="24" width="1" height="1" fill="#C09473" />
<rect x="117" y="24" width="1" height="1" fill="#C09473" />
<rect x="118" y="24" width="1" height="1" fill="#C09473" />
<rect x="119" y="24" width="1" height="1" fill="#C09473" />
<rect x="120" y="24" width="1" height="1" fill="#C09473" />
<rect x="121" y="24" width="1" height="1" fill="#151D28" />
<rect x="122" y="24" width="1" height="1" fill="#E8C170" />
<rect x="123" y="24" width="1" height="1" fill="#C09473" />
<rect x="124" y="24" width="1" height="1" fill="#C09473" />
<rect x="125" y="24" width="1" height="1" fill="#C09473" />
<rect x="126" y="24" width="1" height="1" fill="#C09473" />
<rect x="127" y="24" width="1" height="1" fill="#C09473" />
<rect x="128" y="24" width="1" height="1" fill="#AD7757" />
<rect x="129" y="24" width="1" height="1" fill="#7A4841" />
<rect x="130" y="24" width="1" height="1" fill="#7A4841" />
<rect x="131" y="24" width="1" height="1" fill="#4D2B32" />
<rect x="132" y="24" width="1" height="1" fill="#4D2B32" />
<rect x="133" y="24" width="1" height="1" fill="#394A50" />
<rect x="134" y="24" width="1" height="1" fill="#577277" />
<rect x="135" y="24" width="1" height="1" fill="#819796" />
<rect x="103" y="25" width="1" height="1" fill="#A8B5B2" />
<rect x="104" y="25" width="1" height="1" fill="#819796" />
<rect x="105" y="25" width="1" height="1" fill="#577277" />
<rect x="107" y="25" width="1" height="1" fill="#4D2B32" />
<rect x="108" y="25" width="1" height="1" fill="#4D2B32" />
<rect x="109" y="25" width="1" height="1" fill="#7A4841" />
<rect x="110" y="25" width="1" height="1" fill="#AD7757" />
<rect x="111" y="25" width="1" height="1" fill="#AD7757" />
<rect x="112" y="25" width="1" height="1" fill="#C09473" />
<rect x="113" y="25" width="1" height="1" fill="#C09473" />
<rect x="114" y="25" width="1" height="1" fill="#C09473" />
<rect x="115" y="25" width="1" height="1" fill="#C09473" />
<rect x="116" y="25" width="1" height="1" fill="#C09473" />
<rect x="117" y="25" width="1" height="1" fill="#C09473" />
<rect x="118" y="25" width="1" height="1" fill="#C09473" />
<rect x="119" y="25" width="1" height="1" fill="#C09473" />
<rect x="120" y="25" width="1" height="1" fill="#C09473" />
<rect x="121" y="25" width="1" height="1" fill="#C09473" />
<rect x="122" y="25" width="1" height="1" fill="#C09473" />
<rect x="123" y="25" width="1" height="1" fill="#C09473" />
<rect x="124" y="25" width="1" height="1" fill="#C09473" />
<rect x="125" y="25" width="1" height="1" fill="#C09473" />
<rect x="126" y="25" width="1" height="1" fill="#AD7757" />
<rect x="127" y="25" width="1" height="1" fill="#AD7757" />
<rect x="128" y="25" width="1" height="1" fill="#7A4841" />
<rect x="129" y="25" width="1" height="1" fill="#7A4841" />
<rect x="130" y="25" width="1" height="1" fill="#4D2B32" />
<rect x="132" y="25" width="1" height="1" fill="#151D28" />
<rect x="133" y="25" width="1" height="1" fill="#394A50" />
<rect x="134" y="25" width="1" height="1" fill="#577277" />
<rect x="135" y="25" width="1" height="1" fill="#819796" />
<rect x="103" y="26" width="1" height="1" fill="#A8B5B2" />
<rect x="104" y="26" width="1" height="1" fill="#819796" />
<rect x="105" y="26" width="1" height="1" fill="#577277" />
<rect x="107" y="26" width="1" height="1" fill="#151D28" />
<rect x="109" y="26" width="1" height="1" fill="#4D2B32" />
<rect x="110" y="26" width="1" height="1" fill="#7A4841" />
<rect x="111" y="26" width="1" height="1" fill="#7A4841" />
<rect x="112" y="26" width="1" height="1" fill="#AD7757" />
<rect x="113" y="26" width="1" height="1" fill="#C09473" />
<rect x="114" y="26" width="1" height="1" fill="#C09473" />
<rect x="115" y="26" width="1" height="1" fill="#C09473" />
<rect x="116" y="26" width="1" height="1" fill="#C09473" />
<rect x="117" y="26" width="1" height="1" fill="#C09473" />
<rect x="118" y="26" width="1" height="1" fill="#C09473" />
<rect x="119" y="26" width="1" height="1" fill="#C09473" />
<rect x="120" y="26" width="1" height="1" fill="#C09473" />
<rect x="121" y="26" width="1" height="1" fill="#C09473" />
<rect x="122" y="26" width="1" height="1" fill="#C09473" />
<rect x="123" y="26" width="1" height="1" fill="#C09473" />
<rect x="124" y="26" width="1" height="1" fill="#C09473" />
<rect x="125" y="26" width="1" height="1" fill="#AD7757" />
<rect x="126" y="26" width="1" height="1" fill="#7A4841" />
<rect x="127" y="26" width="1" height="1" fill="#7A4841" />
<rect x="128" y="26" width="1" height="1" fill="#4D2B32" />
<rect x="129" y="26" width="1" height="1" fill="#4D2B32" />
<rect x="132" y="26" width="1" height="1" fill="#151D28" />
<rect x="133" y="26" width="1" height="1" fill="#394A50" />
<rect x="134" y="26" width="1" height="1" fill="#577277" />
<rect x="135" y="26" width="1" height="1" fill="#819796" />
<rect x="103" y="27" width="1" height="1" fill="#A8B5B2" />
<rect x="104" y="27" width="1" height="1" fill="#819796" />
<rect x="105" y="27" width="1" height="1" fill="#577277" />
<rect x="106" y="27" width="1" height="1" fill="#151D28" />
<rect x="109" y="27" width="1" height="1" fill="#819796" />
<rect x="110" y="27" width="1" height="1" fill="#4D2B32" />
<rect x="111" y="27" width="1" height="1" fill="#4D2B32" />
<rect x="112" y="27" width="1" height="1" fill="#7A4841" />
<rect x="113" y="27" width="1" height="1" fill="#AD7757" />
<rect x="114" y="27" width="1" height="1" fill="#AD7757" />
<rect x="115" y="27" width="1" height="1" fill="#C09473" />
<rect x="116" y="27" width="1" height="1" fill="#C09473" />
<rect x="117" y="27" width="1" height="1" fill="#C09473" />
<rect x="118" y="27" width="1" height="1" fill="#C09473" />
<rect x="119" y="27" width="1" height="1" fill="#C09473" />
<rect x="120" y="27" width="1" height="1" fill="#C09473" />
<rect x="121" y="27" width="1" height="1" fill="#C09473" />
<rect x="122" y="27" width="1" height="1" fill="#C09473" />
<rect x="123" y="27" width="1" height="1" fill="#AD7757" />
<rect x="124" y="27" width="1" height="1" fill="#AD7757" />
<rect x="125" y="27" width="1" height="1" fill="#7A4841" />
<rect x="126" y="27" width="1" height="1" fill="#4D2B32" />
<rect x="127" y="27" width="1" height="1" fill="#4D2B32" />
<rect x="128" y="27" width="1" height="1" fill="#819796" />
<rect x="130" y="27" width="1" height="1" fill="#151D28" />
<rect x="131" y="27" width="1" height="1" fill="#151D28" />
<rect x="132" y="27" width="1" height="1" fill="#202E37" />
<rect x="133" y="27" width="1" height="1" fill="#394A50" />
<rect x="134" y="27" width="1" height="1" fill="#577277" />
<rect x="135" y="27" width="1" height="1" fill="#819796" />
<rect x="103" y="28" width="1" height="1" fill="#A8B5B2" />
<rect x="104" y="28" width="1" height="1" fill="#819796" />
<rect x="105" y="28" width="1" height="1" fill="#577277" />
<rect x="106" y="28" width="1" height="1" fill="#202E37" />
<rect x="107" y="28" width="1" height="1" fill="#151D28" />
<rect x="108" y="28" width="1" height="1" fill="#151D28" />
<rect x="109" y="28" width="1" height="1" fill="#7A4841" opacity="0.996078" />
<rect x="110" y="28" width="1" height="1" fill="#7A4841" opacity="0.996078" />
<rect x="111" y="28" width="1" height="1" fill="#7A4841" opacity="0.996078" />
<rect x="112" y="28" width="1" height="1" fill="#4D2B32" />
<rect x="113" y="28" width="1" height="1" fill="#7A4841" />
<rect x="114" y="28" width="1" height="1" fill="#7A4841" />
<rect x="115" y="28" width="1" height="1" fill="#AD7757" />
<rect x="116" y="28" width="1" height="1" fill="#AD7757" />
<rect x="117" y="28" width="1" height="1" fill="#C09473" />
<rect x="118" y="28" width="1" height="1" fill="#C09473" />
<rect x="119" y="28" width="1" height="1" fill="#C09473" />
<rect x="120" y="28" width="1" height="1" fill="#C09473" />
<rect x="121" y="28" width="1" height="1" fill="#AD7757" />
<rect x="122" y="28" width="1" height="1" fill="#AD7757" />
<rect x="123" y="28" width="1" height="1" fill="#7A4841" />
<rect x="124" y="28" width="1" height="1" fill="#7A4841" />
<rect x="125" y="28" width="1" height="1" fill="#4D2B32" />
<rect x="126" y="28" width="1" height="1" fill="#7A4841" opacity="0.996078" />
<rect x="127" y="28" width="1" height="1" fill="#7A4841" opacity="0.996078" />
<rect x="128" y="28" width="1" height="1" fill="#7A4841" opacity="0.996078" />
<rect x="129" y="28" width="1" height="1" fill="#151D28" />
<rect x="130" y="28" width="1" height="1" fill="#202E37" />
<rect x="131" y="28" width="1" height="1" fill="#202E37" />
<rect x="132" y="28" width="1" height="1" fill="#151D28" />
<rect x="133" y="28" width="1" height="1" fill="#394A50" />
<rect x="134" y="28" width="1" height="1" fill="#577277" />
<rect x="135" y="28" width="1" height="1" fill="#819796" />
<rect x="103" y="29" width="1" height="1" fill="#A8B5B2" />
<rect x="104" y="29" width="1" height="1" fill="#819796" />
<rect x="105" y="29" width="1" height="1" fill="#577277" />
<rect x="106" y="29" width="1" height="1" fill="#151D28" />
<rect x="107" y="29" width="1" height="1" fill="#202E37" />
<rect x="108" y="29" width="1" height="1" fill="#202E37" />
<rect x="109" y="29" width="1" height="1" fill="#151D28" />
<rect x="110" y="29" width="1" height="1" fill="#7A4841" opacity="0.996078" />
<rect x="111" y="29" width="1" height="1" fill="#7A4841" opacity="0.996078" />
<rect x="112" y="29" width="1" height="1" fill="#819796" />
<rect x="113" y="29" width="1" height="1" fill="#4D2B32" />
<rect x="114" y="29" width="1" height="1" fill="#4D2B32" />
<rect x="115" y="29" width="1" height="1" fill="#7A4841" />
<rect x="116" y="29" width="1" height="1" fill="#7A4841" />
<rect x="117" y="29" width="1" height="1" fill="#AD7757" />
<rect x="118" y="29" width="1" height="1" fill="#AD7757" />
<rect x="119" y="29" width="1" height="1" fill="#AD7757" />
<rect x="120" y="29" width="1" height="1" fill="#AD7757" />
<rect x="121" y="29" width="1" height="1" fill="#7A4841" />
<rect x="122" y="29" width="1" height="1" fill="#7A4841" />
<rect x="123" y="29" width="1" height="1" fill="#4D2B32" />
<rect x="124" y="29" width="1" height="1" fill="#4D2B32" />
<rect x="125" y="29" width="1" height="1" fill="#819796" />
<rect x="126" y="29" width="1" height="1" fill="#7A4841" opacity="0.996078" />
<rect x="127" y="29" width="1" height="1" fill="#151D28" />
<rect x="128" y="29" width="1" height="1" fill="#151D28" />
<rect x="129" y="29" width="1" height="1" fill="#202E37" />
<rect x="130" y="29" width="1" height="1" fill="#151D28" />
<rect x="131" y="29" width="1" height="1" fill="#151D28" />
<rect x="133" y="29" width="1" height="1" fill="#394A50" />
<rect x="134" y="29" width="1" height="1" fill="#577277" />
<rect x="135" y="29" width="1" height="1" fill="#819796" />
<rect x="103" y="30" width="1" height="1" fill="#A8B5B2" />
<rect x="104" y="30" width="1" height="1" fill="#819796" />
<rect x="105" y="30" width="1" height="1" fill="#577277" />
<rect x="106" y="30" width="1" height="1" fill="#7A4841" opacity="0.996078" />
<rect x="107" y="30" width="1" height="1" fill="#151D28" />
<rect x="108" y="30" width="1" height="1" fill="#151D28" />
<rect x="109" y="30" width="1" height="1" fill="#202E37" />
<rect x="110" y="30" width="1" height="1" fill="#151D28" />
<rect x="111" y="30" width="1" height="1" fill="#151D28" />
<rect x="112" y="30" width="1" height="1" fill="#7A4841" opacity="0.996078" />
<rect x="113" y="30" width="1" height="1" fill="#7A4841" opacity="0.996078" />
<rect x="114" y="30" width="1" height="1" fill="#7A4841" opacity="0.996078" />
<rect x="115" y="30" width="1" height="1" fill="#4D2B32" />
<rect x="116" y="30" width="1" height="1" fill="#4D2B32" />
<rect x="117" y="30" width="1" height="1" fill="#7A4841" />
<rect x="118" y="30" width="1" height="1" fill="#7A4841" />
<rect x="119" y="30" width="1" height="1" fill="#7A4841" />
<rect x="120" y="30" width="1" height="1" fill="#7A4841" />
<rect x="121" y="30" width="1" height="1" fill="#4D2B32" />
<rect x="122" y="30" width="1" height="1" fill="#4D2B32" />
<rect x="123" y="30" width="1" height="1" fill="#7A4841" opacity="0.996078" />
<rect x="124" y="30" width="1" height="1" fill="#7A4841" opacity="0.996078" />
<rect x="125" y="30" width="1" height="1" fill="#7A4841" opacity="0.996078" />
<rect x="126" y="30" width="1" height="1" fill="#151D28" />
<rect x="127" y="30" width="1" height="1" fill="#202E37" />
<rect x="128" y="30" width="1" height="1" fill="#202E37" />
<rect x="129" y="30" width="1" height="1" fill="#151D28" />
<rect x="130" y="30" width="1" height="1" fill="#7A4841" opacity="0.996078" />
<rect x="131" y="30" width="1" height="1" fill="#7A4841" opacity="0.996078" />
<rect x="132" y="30" width="1" height="1" fill="#7A4841" opacity="0.996078" />
<rect x="133" y="30" width="1" height="1" fill="#394A50" />
<rect x="134" y="30" width="1" height="1" fill="#577277" />
<rect x="135" y="30" width="1" height="1" fill="#819796" />
<rect x="103" y="31" width="1" height="1" fill="#A8B5B2" />
<rect x="104" y="31" width="1" height="1" fill="#819796" />
<rect x="105" y="31" width="1" height="1" fill="#577277" />
<rect x="106" y="31" width="1" height="1" fill="#7A4841" opacity="0.996078" />
<rect x="107" y="31" width="1" height="1" fill="#7A4841" opacity="0.996078" />
<rect x="108" y="31" width="1" height="1" fill="#7A4841" opacity="0.996078" />
<rect x="109" y="31" width="1" height="1" fill="#151D28" />
<rect x="110" y="31" width="1" height="1" fill="#202E37" />
<rect x="111" y="31" width="1" height="1" fill="#202E37" />
<rect x="112" y="31" width="1" height="1" fill="#151D28" />
<rect x="113" y="31" width="1" height="1" fill="#151D28" />
<rect x="114" y="31" width="1" height="1" fill="#7A4841" opacity="0.996078" />
<rect x="115" y="31" width="1" height="1" fill="#819796" />
<rect x="116" y="31" width="1" height="1" fill="#4D2B32" />
<rect x="117" y="31" width="1" height="1" fill="#4D2B32" />
<rect x="118" y="31" width="1" height="1" fill="#4D2B32" />
<rect x="119" y="31" width="1" height="1" fill="#4D2B32" />
<rect x="120" y="31" width="1" height="1" fill="#4D2B32" />
<rect x="121" y="31" width="1" height="1" fill="#4D2B32" />
<rect x="122" y="31" width="1" height="1" fill="#819796" />
<rect x="123" y="31" width="1" height="1" fill="#7A4841" opacity="0.996078" />
<rect x="124" y="31" width="1" height="1" fill="#7A4841" opacity="0.996078" />
<rect x="125" y="31" width="1" height="1" fill="#151D28" />
<rect x="126" y="31" width="1" height="1" fill="#202E37" />
<rect x="127" y="31" width="1" height="1" fill="#151D28" />
<rect x="128" y="31" width="1" height="1" fill="#151D28" />
<rect x="129" y="31" width="1" height="1" fill="#7A4841" opacity="0.996078" />
<rect x="130" y="31" width="1" height="1" fill="#7A4841" opacity="0.996078" />
<rect x="131" y="31" width="1" height="1" fill="#7A4841" opacity="0.996078" />
<rect x="132" y="31" width="1" height="1" fill="#7A4841" opacity="0.996078" />
<rect x="133" y="31" width="1" height="1" fill="#394A50" />
<rect x="134" y="31" width="1" height="1" fill="#577277" />
<rect x="135" y="31" width="1" height="1" fill="#819796" />
<rect x="103" y="32" width="1" height="1" fill="#A8B5B2" />
<rect x="104" y="32" width="1" height="1" fill="#819796" />
<rect x="105" y="32" width="1" height="1" fill="#577277" />
<rect x="106" y="32" width="1" height="1" fill="#7A4841" opacity="0.996078" />
<rect x="107" y="32" width="1" height="1" fill="#7A4841" opacity="0.996078" />
<rect x="108" y="32" width="1" height="1" fill="#7A4841" opacity="0.996078" />
<rect x="109" y="32" width="1" height="1" fill="#7A4841" opacity="0.996078" />
<rect x="110" y="32" width="1" height="1" fill="#151D28" />
<rect x="111" y="32" width="1" height="1" fill="#151D28" />
<rect x="112" y="32" width="1" height="1" fill="#202E37" />
<rect x="113" y="32" width="1" height="1" fill="#202E37" />
<rect x="114" y="32" width="1" height="1" fill="#151D28" />
<rect x="115" y="32" width="1" height="1" fill="#7A4841" opacity="0.996078" />
<rect x="116" y="32" width="1" height="1" fill="#7A4841" opacity="0.996078" />
<rect x="117" y="32" width="1" height="1" fill="#7A4841" opacity="0.996078" />
<rect x="118" y="32" width="1" height="1" fill="#C7CFCC" />
<rect x="119" y="32" width="1" height="1" fill="#A8B5B2" />
<rect x="120" y="32" width="1" height="1" fill="#819796" />
<rect x="121" y="32" width="1" height="1" fill="#577277" />
<rect x="122" y="32" width="1" height="1" fill="#7A4841" opacity="0.996078" />
<rect x="123" y="32" width="1" height="1" fill="#151D28" />
<rect x="124" y="32" width="1" height="1" fill="#151D28" />
<rect x="125" y="32" width="1" height="1" fill="#202E37" />
<rect x="126" y="32" width="1" height="1" fill="#151D28" />
<rect x="127" y="32" width="1" height="1" fill="#7A4841" opacity="0.996078" />
<rect x="128" y="32" width="1" height="1" fill="#7A4841" opacity="0.996078" />
<rect x="129" y="32" width="1" height="1" fill="#7A4841" opacity="0.996078" />
<rect x="130" y="32" width="1" height="1" fill="#7A4841" opacity="0.996078" />
<rect x="131" y="32" width="1" height="1" fill="#7A4841" opacity="0.996078" />
<rect x="132" y="32" width="1" height="1" fill="#7A4841" opacity="0.996078" />
<rect x="133" y="32" width="1" height="1" fill="#394A50" />
<rect x="134" y="32" width="1" height="1" fill="#577277" />
<rect x="135" y="32" width="1" height="1" fill="#819796" />
<rect x="104" y="33" width="1" height="1" fill="#819796" />
<rect x="105" y="33" width="1" height="1" fill="#577277" />
<rect x="106" y="33" width="1" height="1" fill="#7A4841" opacity="0.996078" />
<rect x="107" y="33" width="1" height="1" fill="#7A4841" opacity="0.996078" />
<rect x="108" y="33" width="1" height="1" fill="#7A4841" opacity="0.996078" />
<rect x="109" y="33" width="1" height="1" fill="#7A4841" opacity="0.996078" />
<rect x="110" y="33" width="1" height="1" fill="#7A4841" opacity="0.996078" />
<rect x="111" y="33" width="1" height="1" fill="#7A4841" opacity="0.996078" />
<rect x="112" y="33" width="1" height="1" fill="#151D28" />
<rect x="113" y="33" width="1" height="1" fill="#151D28" />
<rect x="114" y="33" width="1" height="1" fill="#202E37" />
<rect x="115" y="33" width="1" height="1" fill="#151D28" />
<rect x="116" y="33" width="1" height="1" fill="#151D28" />
<rect x="117" y="33" width="1" height="1" fill="#819796" />
<rect x="118" y="33" width="1" height="1" fill="#C7CFCC" />
<rect x="119" y="33" width="1" height="1" fill="#A8B5B2" />
<rect x="120" y="33" width="1" height="1" fill="#819796" />
<rect x="121" y="33" width="1" height="1" fill="#577277" />
<rect x="122" y="33" width="1" height="1" fill="#151D28" />
<rect x="123" y="33" width="1" height="1" fill="#202E37" />
<rect x="124" y="33" width="1" height="1" fill="#202E37" />
<rect x="125" y="33" width="1" height="1" fill="#151D28" />
<rect x="126" y="33" width="1" height="1" fill="#7A4841" opacity="0.996078" />
<rect x="127" y="33" width="1" height="1" fill="#7A4841" opacity="0.996078" />
<rect x="128" y="33" width="1" height="1" fill="#7A4841" opacity="0.996078" />
<rect x="129" y="33" width="1" height="1" fill="#7A4841" opacity="0.996078" />
<rect x="130" y="33" width="1" height="1" fill="#7A4841" opacity="0.996078" />
<rect x="131" y="33" width="1" height="1" fill="#7B4942" opacity="0.996078" />
<rect x="133" y="33" width="1" height="1" fill="#394A50" />
<rect x="134" y="33" width="1" height="1" fill="#577277" />
<rect x="135" y="33" width="1" height="1" fill="#819796" />
<rect x="107" y="34" width="1" height="1" fill="#7A4841" opacity="0.996078" />
<rect x="108" y="34" width="1" height="1" fill="#7A4841" opacity="0.996078" />
<rect x="109" y="34" width="1" height="1" fill="#7A4841" opacity="0.996078" />
<rect x="110" y="34" width="1" height="1" fill="#7A4841" opacity="0.996078" />
<rect x="111" y="34" width="1" height="1" fill="#7A4841" opacity="0.996078" />
<rect x="112" y="34" width="1" height="1" fill="#7A4841" opacity="0.996078" />
<rect x="113" y="34" width="1" height="1" fill="#7A4841" opacity="0.996078" />
<rect x="114" y="34" width="1" height="1" fill="#151D28" />
<rect x="115" y="34" width="1" height="1" fill="#202E37" />
<rect x="116" y="34" width="1" height="1" fill="#202E37" />
<rect x="117" y="34" width="1" height="1" fill="#151D28" />
<rect x="118" y="34" width="1" height="1" fill="#C7CFCC" />
<rect x="119" y="34" width="1" height="1" fill="#A8B5B2" />
<rect x="120" y="34" width="1" height="1" fill="#819796" />
<rect x="121" y="34" width="1" height="1" fill="#577277" />
<rect x="122" y="34" width="1" height="1" fill="#202E37" />
<rect x="123" y="34" width="1" height="1" fill="#151D28" />
<rect x="124" y="34" width="1" height="1" fill="#151D28" />
<rect x="125" y="34" width="1" height="1" fill="#7A4841" opacity="0.996078" />
<rect x="126" y="34" width="1" height="1" fill="#7A4841" opacity="0.996078" />
<rect x="127" y="34" width="1" height="1" fill="#7A4841" opacity="0.996078" />
<rect x="128" y="34" width="1" height="1" fill="#7A4841" opacity="0.996078" />
<rect x="129" y="34" width="1" height="1" fill="#7A4841" opacity="0.996078" />
<rect x="133" y="34" width="1" height="1" fill="#394A50" />
<rect x="134" y="34" width="1" height="1" fill="#577277" />
<rect x="108" y="35" width="1" height="1" fill="#7A4841" opacity="0.996078" />
<rect x="109" y="35" width="1" height="1" fill="#7A4841" opacity="0.996078" />
<rect x="110" y="35" width="1" height="1" fill="#7A4841" opacity="0.996078" />
<rect x="111" y="35" width="1" height="1" fill="#7A4841" opacity="0.996078" />
<rect x="112" y="35" width="1" height="1" fill="#7A4841" opacity="0.996078" />
<rect x="113" y="35" width="1" height="1" fill="#7A4841" opacity="0.996078" />
<rect x="114" y="35" width="1" height="1" fill="#7A4841" opacity="0.996078" />
<rect x="115" y="35" width="1" height="1" fill="#151D28" />
<rect x="116" y="35" width="1" height="1" fill="#151D28" />
<rect x="117" y="35" width="1" height="1" fill="#202E37" />
<rect x="118" y="35" width="1" height="1" fill="#C7CFCC" />
<rect x="119" y="35" width="1" height="1" fill="#A8B5B2" />
<rect x="120" y="35" width="1" height="1" fill="#819796" />
<rect x="121" y="35" width="1" height="1" fill="#577277" />
<rect x="122" y="35" width="1" height="1" fill="#151D28" />
<rect x="123" y="35" width="1" height="1" fill="#7A4841" opacity="0.996078" />
<rect x="124" y="35" width="1" height="1" fill="#7A4841" opacity="0.996078" />
<rect x="125" y="35" width="1" height="1" fill="#7A4841" opacity="0.996078" />
<rect x="126" y="35" width="1" height="1" fill="#7A4841" opacity="0.996078" />
<rect x="127" y="35" width="1" height="1" fill="#7A4841" opacity="0.996078" />
<rect x="110" y="36" width="1" height="1" fill="#7A4841" opacity="0.996078" />
<rect x="111" y="36" width="1" height="1" fill="#7A4841" opacity="0.996078" />
<rect x="112" y="36" width="1" height="1" fill="#7A4841" opacity="0.996078" />
<rect x="113" y="36" width="1" height="1" fill="#7A4841" opacity="0.996078" />
<rect x="114" y="36" width="1" height="1" fill="#7A4841" opacity="0.996078" />
<rect x="115" y="36" width="1" height="1" fill="#7A4841" opacity="0.996078" />
<rect x="116" y="36" width="1" height="1" fill="#7A4841" opacity="0.996078" />
<rect x="117" y="36" width="1" height="1" fill="#151D28" />
<rect x="118" y="36" width="1" height="1" fill="#C7CFCC" />
<rect x="119" y="36" width="1" height="1" fill="#A8B5B2" />
<rect x="120" y="36" width="1" height="1" fill="#819796" />
<rect x="121" y="36" width="1" height="1" fill="#577277" />
<rect x="122" y="36" width="1" height="1" fill="#7A4841" opacity="0.996078" />
<rect x="123" y="36" width="1" height="1" fill="#7A4841" opacity="0.996078" />
<rect x="124" y="36" width="1" height="1" fill="#7A4841" opacity="0.996078" />
<rect x="125" y="36" width="1" height="1" fill="#7A4841" opacity="0.996078" />
<rect x="126" y="36" width="1" height="1" fill="#7A4841" opacity="0.996078" />
<rect x="112" y="37" width="1" height="1" fill="#7A4841" opacity="0.996078" />
<rect x="113" y="37" width="1" height="1" fill="#7A4841" opacity="0.996078" />
<rect x="114" y="37" width="1" height="1" fill="#7A4841" opacity="0.996078" />
<rect x="115" y="37" width="1" height="1" fill="#7A4841" opacity="0.996078" />
<rect x="116" y="37" width="1" height="1" fill="#7A4841" opacity="0.996078" />
<rect x="117" y="37" width="1" height="1" fill="#7A4841" opacity="0.996078" />
<rect x="118" y="37" width="1" height="1" fill="#C7CFCC" />
<rect x="119" y="37" width="1" height="1" fill="#A8B5B2" />
<rect x="120" y="37" width="1" height="1" fill="#819796" />
<rect x="121" y="37" width="1" height="1" fill="#577277" />
<rect x="122" y="37" width="1" height="1" fill="#7A4841" opacity="0.996078" />
<rect x="123" y="37" width="1" height="1" fill="#7A4841" opacity="0.996078" />
<rect x="124" y="37" width="1" height="1" fill="#7A4841" opacity="0.996078" />
<rect x="113" y="38" width="1" height="1" fill="#7A4841" opacity="0.996078" />
<rect x="114" y="38" width="1" height="1" fill="#7A4841" opacity="0.996078" />
<rect x="115" y="38" width="1" height="1" fill="#7A4841" opacity="0.996078" />
<rect x="116" y="38" width="1" height="1" fill="#7A4841" opacity="0.996078" />
<rect x="117" y="38" width="1" height="1" fill="#7A4841" opacity="0.996078" />
<rect x="118" y="38" width="1" height="1" fill="#C7CFCC" />
<rect x="119" y="38" width="1" height="1" fill="#A8B5B2" />
<rect x="120" y="38" width="1" height="1" fill="#819796" />
<rect x="121" y="38" width="1" height="1" fill="#577277" />
<rect x="122" y="38" width="1" height="1" fill="#7A4841" opacity="0.996078" />
<rect x="123" y="38" width="1" height="1" fill="#7A4841" opacity="0.996078" />
<rect x="115" y="39" width="1" height="1" fill="#7A4841" opacity="0.996078" />
<rect x="116" y="39" width="1" height="1" fill="#7A4841" opacity="0.996078" />
<rect x="117" y="39" width="1" height="1" fill="#7A4841" opacity="0.996078" />
<rect x="118" y="39" width="1" height="1" fill="#C7CFCC" />
<rect x="119" y="39" width="1" height="1" fill="#A8B5B2" />
<rect x="120" y="39" width="1" height="1" fill="#819796" />
<rect x="121" y="39" width="1" height="1" fill="#577277" />
<rect x="116" y="40" width="1" height="1" fill="#7A4841" opacity="0.996078" />
<rect x="117" y="40" width="1" height="1" fill="#7A4841" opacity="0.996078" />
<rect x="118" y="40" width="1" height="1" fill="#C7CFCC" />
<rect x="119" y="40" width="1" height="1" fill="#A8B5B2" />
<rect x="120" y="40" width="1" height="1" fill="#819796" />
<rect x="121" y="40" width="1" height="1" fill="#577277" />
<rect x="118" y="41" width="1" height="1" fill="#C7CFCC" />
<rect x="119" y="41" width="1" height="1" fill="#A8B5B2" />
<rect x="120" y="41" width="1" height="1" fill="#819796" />
<rect x="121" y="41" width="1" height="1" fill="#577277" />
<rect x="119" y="42" width="1" height="1" fill="#A8B5B2" />
<rect x="120" y="42" width="1" height="1" fill="#819796" />
</svg>