<?xml version="1.0" encoding="UTF-8" ?>
<svg version="1.1" width="128" height="96" xmlns="http://www.w3.org/2000/svg" shape-rendering="crispEdges">
<rect x="74" y="39" width="1" height="1" fill="#341C27" />
<rect x="75" y="39" width="1" height="1" fill="#341C27" />
<rect x="76" y="39" width="1" height="1" fill="#341C27" />
<rect x="77" y="39" width="1" height="1" fill="#341C27" />
<rect x="78" y="39" width="1" height="1" fill="#341C27" />
<rect x="79" y="39" width="1" height="1" fill="#341C27" />
<rect x="72" y="40" width="1" height="1" fill="#341C27" />
<rect x="73" y="40" width="1" height="1" fill="#341C27" />
<rect x="74" y="40" width="1" height="1" fill="#341C27" />
<rect x="75" y="40" width="1" height="1" fill="#341C27" />
<rect x="76" y="40" width="1" height="1" fill="#4D2B32" />
<rect x="77" y="40" width="1" height="1" fill="#4D2B32" />
<rect x="78" y="40" width="1" height="1" fill="#341C27" />
<rect x="79" y="40" width="1" height="1" fill="#341C27" />
<rect x="80" y="40" width="1" height="1" fill="#341C27" />
<rect x="81" y="40" width="1" height="1" fill="#341C27" />
<rect x="71" y="41" width="1" height="1" fill="#341C27" />
<rect x="72" y="41" width="1" height="1" fill="#341C27" />
<rect x="73" y="41" width="1" height="1" fill="#341C27" />
<rect x="74" y="41" width="1" height="1" fill="#341C27" />
<rect x="75" y="41" width="1" height="1" fill="#4D2B32" />
<rect x="76" y="41" width="1" height="1" fill="#D7B594" />
<rect x="77" y="41" width="1" height="1" fill="#D7B594" />
<rect x="78" y="41" width="1" height="1" fill="#4D2B32" />
<rect x="79" y="41" width="1" height="1" fill="#341C27" />
<rect x="80" y="41" width="1" height="1" fill="#341C27" />
<rect x="81" y="41" width="1" height="1" fill="#341C27" />
<rect x="82" y="41" width="1" height="1" fill="#341C27" />
<rect x="71" y="42" width="1" height="1" fill="#341C27" />
<rect x="72" y="42" width="1" height="1" fill="#341C27" />
<rect x="73" y="42" width="1" height="1" fill="#341C27" />
<rect x="74" y="42" width="1" height="1" fill="#4D2B32" />
<rect x="75" y="42" width="1" height="1" fill="#D7B594" />
<rect x="76" y="42" width="1" height="1" fill="#E7D5B3" />
<rect x="77" y="42" width="1" height="1" fill="#E7D5B3" />
<rect x="78" y="42" width="1" height="1" fill="#D7B594" />
<rect x="79" y="42" width="1" height="1" fill="#4D2B32" />
<rect x="80" y="42" width="1" height="1" fill="#341C27" />
<rect x="81" y="42" width="1" height="1" fill="#341C27" />
<rect x="82" y="42" width="1" height="1" fill="#341C27" />
<rect x="83" y="42" width="1" height="1" fill="#341C27" />
<rect x="70" y="43" width="1" height="1" fill="#341C27" />
<rect x="71" y="43" width="1" height="1" fill="#341C27" />
<rect x="72" y="43" width="1" height="1" fill="#341C27" />
<rect x="73" y="43" width="1" height="1" fill="#341C27" />
<rect x="74" y="43" width="1" height="1" fill="#4D2B32" />
<rect x="75" y="43" width="1" height="1" fill="#D7B594" />
<rect x="76" y="43" width="1" height="1" fill="#E7D5B3" />
<rect x="77" y="43" width="1" height="1" fill="#E7D5B3" />
<rect x="78" y="43" width="1" height="1" fill="#D7B594" />
<rect x="79" y="43" width="1" height="1" fill="#4D2B32" />
<rect x="80" y="43" width="1" height="1" fill="#341C27" />
<rect x="81" y="43" width="1" height="1" fill="#341C27" />
<rect x="82" y="43" width="1" height="1" fill="#341C27" />
<rect x="83" y="43" width="1" height="1" fill="#341C27" />
<rect x="65" y="44" width="1" height="1" fill="#C09473" />
<rect x="70" y="44" width="1" height="1" fill="#341C27" />
<rect x="71" y="44" width="1" height="1" fill="#341C27" />
<rect x="72" y="44" width="1" height="1" fill="#341C27" />
<rect x="73" y="44" width="1" height="1" fill="#4D2B32" />
<rect x="74" y="44" width="1" height="1" fill="#D7B594" />
<rect x="75" y="44" width="1" height="1" fill="#E7D5B3" />
<rect x="76" y="44" width="1" height="1" fill="#E7D5B3" />
<rect x="77" y="44" width="1" height="1" fill="#E7D5B3" />
<rect x="78" y="44" width="1" height="1" fill="#E7D5B3" />
<rect x="79" y="44" width="1" height="1" fill="#D7B594" />
<rect x="80" y="44" width="1" height="1" fill="#4D2B32" />
<rect x="81" y="44" width="1" height="1" fill="#341C27" />
<rect x="82" y="44" width="1" height="1" fill="#341C27" />
<rect x="83" y="44" width="1" height="1" fill="#341C27" />
<rect x="89" y="44" width="1" height="1" fill="#C09473" />
<rect x="64" y="45" width="1" height="1" fill="#C09473" />
<rect x="65" y="45" width="1" height="1" fill="#D7B594" />
<rect x="66" y="45" width="1" height="1" fill="#D7B594" />
<rect x="70" y="45" width="1" height="1" fill="#341C27" />
<rect x="71" y="45" width="1" height="1" fill="#4D2B32" />
<rect x="72" y="45" width="1" height="1" fill="#4D2B32" />
<rect x="73" y="45" width="1" height="1" fill="#D7B594" />
<rect x="74" y="45" width="1" height="1" fill="#E7D5B3" />
<rect x="75" y="45" width="1" height="1" fill="#E7D5B3" />
<rect x="76" y="45" width="1" height="1" fill="#E7D5B3" />
<rect x="77" y="45" width="1" height="1" fill="#E7D5B3" />
<rect x="78" y="45" width="1" height="1" fill="#E7D5B3" />
<rect x="79" y="45" width="1" height="1" fill="#E7D5B3" />
<rect x="80" y="45" width="1" height="1" fill="#D7B594" />
<rect x="81" y="45" width="1" height="1" fill="#4D2B32" />
<rect x="82" y="45" width="1" height="1" fill="#4D2B32" />
<rect x="83" y="45" width="1" height="1" fill="#341C27" />
<rect x="88" y="45" width="1" height="1" fill="#D7B594" />
<rect x="89" y="45" width="1" height="1" fill="#D7B594" />
<rect x="90" y="45" width="1" height="1" fill="#C09473" />
<rect x="64" y="46" width="1" height="1" fill="#C09473" />
<rect x="65" y="46" width="1" height="1" fill="#D7B594" />
<rect x="66" y="46" width="1" height="1" fill="#D7B594" />
<rect x="70" y="46" width="1" height="1" fill="#341C27" />
<rect x="71" y="46" width="1" height="1" fill="#D7B594" />
<rect x="72" y="46" width="1" height="1" fill="#151D28" />
<rect x="73" y="46" width="1" height="1" fill="#151D28" />
<rect x="74" y="46" width="1" height="1" fill="#151D28" />
<rect x="75" y="46" width="1" height="1" fill="#E7D5B3" />
<rect x="76" y="46" width="1" height="1" fill="#E7D5B3" />
<rect x="77" y="46" width="1" height="1" fill="#E7D5B3" />
<rect x="78" y="46" width="1" height="1" fill="#151D28" />
<rect x="79" y="46" width="1" height="1" fill="#151D28" />
<rect x="80" y="46" width="1" height="1" fill="#151D28" />
<rect x="81" y="46" width="1" height="1" fill="#D7B594" />
<rect x="82" y="46" width="1" height="1" fill="#D7B594" />
<rect x="83" y="46" width="1" height="1" fill="#341C27" />
<rect x="88" y="46" width="1" height="1" fill="#D7B594" />
<rect x="89" y="46" width="1" height="1" fill="#D7B594" />
<rect x="90" y="46" width="1" height="1" fill="#C09473" />
<rect x="65" y="47" width="1" height="1" fill="#E7D5B3" />
<rect x="66" y="47" width="1" height="1" fill="#E7D5B3" />
<rect x="67" y="47" width="1" height="1" fill="#E7D5B3" />
<rect x="70" y="47" width="1" height="1" fill="#AD7757" />
<rect x="71" y="47" width="1" height="1" fill="#151D28" />
<rect x="72" y="47" width="1" height="1" fill="#819796" />
<rect x="73" y="47" width="1" height="1" fill="#A8B5B2" />
<rect x="74" y="47" width="1" height="1" fill="#EBEDE9" />
<rect x="75" y="47" width="1" height="1" fill="#151D28" />
<rect x="76" y="47" width="1" height="1" fill="#090A14" />
<rect x="77" y="47" width="1" height="1" fill="#151D28" />
<rect x="78" y="47" width="1" height="1" fill="#819796" />
<rect x="79" y="47" width="1" height="1" fill="#A8B5B2" />
<rect x="80" y="47" width="1" height="1" fill="#EBEDE9" />
<rect x="81" y="47" width="1" height="1" fill="#151D28" />
<rect x="82" y="47" width="1" height="1" fill="#090A14" />
<rect x="83" y="47" width="1" height="1" fill="#AD7757" />
<rect x="87" y="47" width="1" height="1" fill="#D7B594" />
<rect x="88" y="47" width="1" height="1" fill="#E7D5B3" />
<rect x="89" y="47" width="1" height="1" fill="#E7D5B3" />
<rect x="66" y="48" width="1" height="1" fill="#E7D5B3" />
<rect x="67" y="48" width="1" height="1" fill="#E7D5B3" />
<rect x="70" y="48" width="1" height="1" fill="#C09473" />
<rect x="71" y="48" width="1" height="1" fill="#151D28" />
<rect x="72" y="48" width="1" height="1" fill="#A8B5B2" />
<rect x="73" y="48" width="1" height="1" fill="#EBEDE9" />
<rect x="74" y="48" width="1" height="1" fill="#C7CFCC" />
<rect x="75" y="48" width="1" height="1" fill="#151D28" />
<rect x="76" y="48" width="1" height="1" fill="#C09473" />
<rect x="77" y="48" width="1" height="1" fill="#151D28" />
<rect x="78" y="48" width="1" height="1" fill="#A8B5B2" />
<rect x="79" y="48" width="1" height="1" fill="#EBEDE9" />
<rect x="80" y="48" width="1" height="1" fill="#C7CFCC" />
<rect x="81" y="48" width="1" height="1" fill="#151D28" />
<rect x="82" y="48" width="1" height="1" fill="#E7D5B3" />
<rect x="83" y="48" width="1" height="1" fill="#C09473" />
<rect x="87" y="48" width="1" height="1" fill="#D7B594" />
<rect x="88" y="48" width="1" height="1" fill="#E7D5B3" />
<rect x="66" y="49" width="1" height="1" fill="#E7D5B3" />
<rect x="67" y="49" width="1" height="1" fill="#E7D5B3" />
<rect x="68" y="49" width="1" height="1" fill="#E7D5B3" />
<rect x="71" y="49" width="1" height="1" fill="#151D28" />
<rect x="72" y="49" width="1" height="1" fill="#EBEDE9" />
<rect x="73" y="49" width="1" height="1" fill="#C7CFCC" />
<rect x="74" y="49" width="1" height="1" fill="#A8B5B2" />
<rect x="75" y="49" width="1" height="1" fill="#151D28" />
<rect x="76" y="49" width="1" height="1" fill="#C09473" />
<rect x="77" y="49" width="1" height="1" fill="#151D28" />
<rect x="78" y="49" width="1" height="1" fill="#EBEDE9" />
<rect x="79" y="49" width="1" height="1" fill="#C7CFCC" />
<rect x="80" y="49" width="1" height="1" fill="#A8B5B2" />
<rect x="81" y="49" width="1" height="1" fill="#151D28" />
<rect x="82" y="49" width="1" height="1" fill="#E7D5B3" />
<rect x="86" y="49" width="1" height="1" fill="#D7B594" />
<rect x="87" y="49" width="1" height="1" fill="#E7D5B3" />
<rect x="88" y="49" width="1" height="1" fill="#E7D5B3" />
<rect x="67" y="50" width="1" height="1" fill="#E7D5B3" />
<rect x="68" y="50" width="1" height="1" fill="#E7D5B3" />
<rect x="71" y="50" width="1" height="1" fill="#E3D1B0" />
<rect x="72" y="50" width="1" height="1" fill="#151D28" />
<rect x="73" y="50" width="1" height="1" fill="#151D28" />
<rect x="74" y="50" width="1" height="1" fill="#151D28" />
<rect x="75" y="50" width="1" height="1" fill="#E7D5B3" />
<rect x="76" y="50" width="1" height="1" fill="#E7D5B3" />
<rect x="77" y="50" width="1" height="1" fill="#E7D5B3" />
<rect x="78" y="50" width="1" height="1" fill="#151D28" />
<rect x="79" y="50" width="1" height="1" fill="#151D28" />
<rect x="80" y="50" width="1" height="1" fill="#151D28" />
<rect x="81" y="50" width="1" height="1" fill="#E7D5B3" />
<rect x="82" y="50" width="1" height="1" fill="#E3D1B0" />
<rect x="86" y="50" width="1" height="1" fill="#D7B594" />
<rect x="87" y="50" width="1" height="1" fill="#E7D5B3" />
<rect x="67" y="51" width="1" height="1" fill="#E7D5B3" />
<rect x="68" y="51" width="1" height="1" fill="#E7D5B3" />
<rect x="69" y="51" width="1" height="1" fill="#E7D5B3" />
<rect x="72" y="51" width="1" height="1" fill="#E3D1B0" />
<rect x="73" y="51" width="1" height="1" fill="#E7D5B3" />
<rect x="74" y="51" width="1" height="1" fill="#E7D5B3" />
<rect x="75" y="51" width="1" height="1" fill="#E7D5B3" />
<rect x="76" y="51" width="1" height="1" fill="#C09473" />
<rect x="77" y="51" width="1" height="1" fill="#C09473" />
<rect x="78" y="51" width="1" height="1" fill="#E7D5B3" />
<rect x="79" y="51" width="1" height="1" fill="#E7D5B3" />
<rect x="80" y="51" width="1" height="1" fill="#E7D5B3" />
<rect x="81" y="51" width="1" height="1" fill="#E3D1B0" />
<rect x="85" y="51" width="1" height="1" fill="#D7B594" />
<rect x="86" y="51" width="1" height="1" fill="#E7D5B3" />
<rect x="87" y="51" width="1" height="1" fill="#E7D5B3" />
<rect x="68" y="52" width="1" height="1" fill="#E7D5B3" />
<rect x="69" y="52" width="1" height="1" fill="#D7B594" />
<rect x="70" y="52" width="1" height="1" fill="#253A5E" />
<rect x="73" y="52" width="1" height="1" fill="#E3D1B0" />
<rect x="74" y="52" width="1" height="1" fill="#E7D5B3" />
<rect x="75" y="52" width="1" height="1" fill="#E7D5B3" />
<rect x="76" y="52" width="1" height="1" fill="#C09473" />
<rect x="77" y="52" width="1" height="1" fill="#C09473" />
<rect x="78" y="52" width="1" height="1" fill="#E7D5B3" />
<rect x="79" y="52" width="1" height="1" fill="#E7D5B3" />
<rect x="80" y="52" width="1" height="1" fill="#E3D1B0" />
<rect x="84" y="52" width="1" height="1" fill="#253A5E" />
<rect x="85" y="52" width="1" height="1" fill="#D7B594" />
<rect x="86" y="52" width="1" height="1" fill="#E7D5B3" />
<rect x="68" y="53" width="1" height="1" fill="#253A5E" />
<rect x="69" y="53" width="1" height="1" fill="#253A5E" />
<rect x="70" y="53" width="1" height="1" fill="#253A5E" />
<rect x="71" y="53" width="1" height="1" fill="#3C5E8B" />
<rect x="75" y="53" width="1" height="1" fill="#E3D1B0" />
<rect x="76" y="53" width="1" height="1" fill="#E7D5B3" />
<rect x="77" y="53" width="1" height="1" fill="#E7D5B3" />
<rect x="78" y="53" width="1" height="1" fill="#E3D1B0" />
<rect x="83" y="53" width="1" height="1" fill="#3C5E8B" />
<rect x="84" y="53" width="1" height="1" fill="#253A5E" />
<rect x="85" y="53" width="1" height="1" fill="#253A5E" />
<rect x="86" y="53" width="1" height="1" fill="#253A5E" />
<rect x="69" y="54" width="1" height="1" fill="#3C5E8B" />
<rect x="70" y="54" width="1" height="1" fill="#3C5E8B" />
<rect x="71" y="54" width="1" height="1" fill="#3C5E8B" />
<rect x="72" y="54" width="1" height="1" fill="#3C5E8B" />
<rect x="73" y="54" width="1" height="1" fill="#3C5E8B" />
<rect x="74" y="54" width="1" height="1" fill="#3C5E8B" />
<rect x="75" y="54" width="1" height="1" fill="#253A5E" />
<rect x="76" y="54" width="1" height="1" fill="#D7B594" />
<rect x="77" y="54" width="1" height="1" fill="#D7B594" />
<rect x="78" y="54" width="1" height="1" fill="#253A5E" />
<rect x="79" y="54" width="1" height="1" fill="#3C5E8B" />
<rect x="80" y="54" width="1" height="1" fill="#3C5E8B" />
<rect x="81" y="54" width="1" height="1" fill="#3C5E8B" />
<rect x="82" y="54" width="1" height="1" fill="#3C5E8B" />
<rect x="83" y="54" width="1" height="1" fill="#3C5E8B" />
<rect x="84" y="54" width="1" height="1" fill="#3C5E8B" />
<rect x="85" y="54" width="1" height="1" fill="#3C5E8B" />
<rect x="70" y="55" width="1" height="1" fill="#3C5E8B" />
<rect x="71" y="55" width="1" height="1" fill="#3C5E8B" />
<rect x="72" y="55" width="1" height="1" fill="#3C5E8B" />
<rect x="73" y="55" width="1" height="1" fill="#3C5E8B" />
<rect x="74" y="55" width="1" height="1" fill="#3C5E8B" />
<rect x="75" y="55" width="1" height="1" fill="#3C5E8B" />
<rect x="76" y="55" width="1" height="1" fill="#253A5E" />
<rect x="77" y="55" width="1" height="1" fill="#253A5E" />
<rect x="78" y="55" width="1" height="1" fill="#3C5E8B" />
<rect x="79" y="55" width="1" height="1" fill="#3C5E8B" />
<rect x="80" y="55" width="1" height="1" fill="#3C5E8B" />
<rect x="81" y="55" width="1" height="1" fill="#3C5E8B" />
<rect x="82" y="55" width="1" height="1" fill="#3C5E8B" />
<rect x="83" y="55" width="1" height="1" fill="#3C5E8B" />
<rect x="84" y="55" width="1" height="1" fill="#3C5E8B" />
<rect x="71" y="56" width="1" height="1" fill="#3C5E8B" />
<rect x="72" y="56" width="1" height="1" fill="#3C5E8B" />
<rect x="73" y="56" width="1" height="1" fill="#3C5E8B" />
<rect x="74" y="56" width="1" height="1" fill="#3C5E8B" />
<rect x="75" y="56" width="1" height="1" fill="#3C5E8B" />
<rect x="76" y="56" width="1" height="1" fill="#3C5E8B" />
<rect x="77" y="56" width="1" height="1" fill="#3C5E8B" />
<rect x="78" y="56" width="1" height="1" fill="#3C5E8B" />
<rect x="79" y="56" width="1" height="1" fill="#3C5E8B" />
<rect x="80" y="56" width="1" height="1" fill="#3C5E8B" />
<rect x="81" y="56" width="1" height="1" fill="#3C5E8B" />
<rect x="82" y="56" width="1" height="1" fill="#3C5E8B" />
<rect x="83" y="56" width="1" height="1" fill="#3C5E8B" />
<rect x="72" y="57" width="1" height="1" fill="#3C5E8B" />
<rect x="73" y="57" width="1" height="1" fill="#3C5E8B" />
<rect x="74" y="57" width="1" height="1" fill="#3C5E8B" />
<rect x="75" y="57" width="1" height="1" fill="#3C5E8B" />
<rect x="76" y="57" width="1" height="1" fill="#3C5E8B" />
<rect x="77" y="57" width="1" height="1" fill="#3C5E8B" />
<rect x="78" y="57" width="1" height="1" fill="#3C5E8B" />
<rect x="79" y="57" width="1" height="1" fill="#3C5E8B" />
<rect x="80" y="57" width="1" height="1" fill="#3C5E8B" />
<rect x="81" y="57" width="1" height="1" fill="#3C5E8B" />
<rect x="82" y="57" width="1" height="1" fill="#3C5E8B" />
<rect x="73" y="58" width="1" height="1" fill="#3C5E8B" />
<rect x="74" y="58" width="1" height="1" fill="#3C5E8B" />
<rect x="75" y="58" width="1" height="1" fill="#3C5E8B" />
<rect x="76" y="58" width="1" height="1" fill="#3C5E8B" />
<rect x="77" y="58" width="1" height="1" fill="#3C5E8B" />
<rect x="78" y="58" width="1" height="1" fill="#3C5E8B" />
<rect x="79" y="58" width="1" height="1" fill="#3C5E8B" />
<rect x="80" y="58" width="1" height="1" fill="#3C5E8B" />
<rect x="81" y="58" width="1" height="1" fill="#3C5E8B" />
<rect x="73" y="59" width="1" height="1" fill="#3C5E8B" />
<rect x="74" y="59" width="1" height="1" fill="#3C5E8B" />
<rect x="75" y="59" width="1" height="1" fill="#3C5E8B" />
<rect x="76" y="59" width="1" height="1" fill="#3C5E8B" />
<rect x="77" y="59" width="1" height="1" fill="#3C5E8B" />
<rect x="78" y="59" width="1" height="1" fill="#3C5E8B" />
<rect x="79" y="59" width="1" height="1" fill="#3C5E8B" />
<rect x="80" y="59" width="1" height="1" fill="#3C5E8B" />
<rect x="81" y="59" width="1" height="1" fill="#3C5E8B" />
<rect x="73" y="60" width="1" height="1" fill="#3C5E8B" />
<rect x="74" y="60" width="1" height="1" fill="#3C5E8B" />
<rect x="75" y="60" width="1" height="1" fill="#3C5E8B" />
<rect x="76" y="60" width="1" height="1" fill="#3C5E8B" />
<rect x="77" y="60" width="1" height="1" fill="#3C5E8B" />
<rect x="78" y="60" width="1" height="1" fill="#3C5E8B" />
<rect x="79" y="60" width="1" height="1" fill="#3C5E8B" />
<rect x="80" y="60" width="1" height="1" fill="#3C5E8B" />
<rect x="81" y="60" width="1" height="1" fill="#3C5E8B" />
<rect x="73" y="61" width="1" height="1" fill="#3C5E8B" />
<rect x="74" y="61" width="1" height="1" fill="#3C5E8B" />
<rect x="75" y="61" width="1" height="1" fill="#3C5E8B" />
<rect x="76" y="61" width="1" height="1" fill="#3C5E8B" />
<rect x="77" y="61" width="1" height="1" fill="#3C5E8B" />
<rect x="78" y="61" width="1" height="1" fill="#3C5E8B" />
<rect x="79" y="61" width="1" height="1" fill="#3C5E8B" />
<rect x="80" y="61" width="1" height="1" fill="#3C5E8B" />
<rect x="81" y="61" width="1" height="1" fill="#3C5E8B" />
<rect x="73" y="62" width="1" height="1" fill="#3C5E8B" />
<rect x="74" y="62" width="1" height="1" fill="#3C5E8B" />
<rect x="75" y="62" width="1" height="1" fill="#3C5E8B" />
<rect x="76" y="62" width="1" height="1" fill="#3C5E8B" />
<rect x="77" y="62" width="1" height="1" fill="#3C5E8B" />
<rect x="78" y="62" width="1" height="1" fill="#3C5E8B" />
<rect x="79" y="62" width="1" height="1" fill="#3C5E8B" />
<rect x="80" y="62" width="1" height="1" fill="#3C5E8B" />
<rect x="81" y="62" width="1" height="1" fill="#3C5E8B" />
<rect x="73" y="63" width="1" height="1" fill="#241527" />
<rect x="74" y="63" width="1" height="1" fill="#241527" />
<rect x="75" y="63" width="1" height="1" fill="#341C27" />
<rect x="76" y="63" width="1" height="1" fill="#C7CFCC" />
<rect x="77" y="63" width="1" height="1" fill="#EBEDE9" />
<rect x="78" y="63" width="1" height="1" fill="#C7CFCC" />
<rect x="79" y="63" width="1" height="1" fill="#341C27" />
<rect x="80" y="63" width="1" height="1" fill="#241527" />
<rect x="81" y="63" width="1" height="1" fill="#241527" />
<rect x="73" y="64" width="1" height="1" fill="#4D2B32" />
<rect x="74" y="64" width="1" height="1" fill="#4D2B32" />
<rect x="75" y="64" width="1" height="1" fill="#4D2B32" />
<rect x="76" y="64" width="1" height="1" fill="#4D2B32" />
<rect x="77" y="64" width="1" height="1" fill="#4D2B32" />
<rect x="78" y="64" width="1" height="1" fill="#4D2B32" />
<rect x="79" y="64" width="1" height="1" fill="#4D2B32" />
<rect x="80" y="64" width="1" height="1" fill="#4D2B32" />
<rect x="81" y="64" width="1" height="1" fill="#4D2B32" />
<rect x="73" y="65" width="1" height="1" fill="#4D2B32" />
<rect x="74" y="65" width="1" height="1" fill="#4D2B32" />
<rect x="75" y="65" width="1" height="1" fill="#4D2B32" />
<rect x="76" y="65" width="1" height="1" fill="#4D2B32" />
<rect x="77" y="65" width="1" height="1" fill="#4D2B32" />
<rect x="78" y="65" width="1" height="1" fill="#4D2B32" />
<rect x="79" y="65" width="1" height="1" fill="#4D2B32" />
<rect x="80" y="65" width="1" height="1" fill="#4D2B32" />
<rect x="81" y="65" width="1" height="1" fill="#4D2B32" />
<rect x="73" y="66" width="1" height="1" fill="#4D2B32" />
<rect x="74" y="66" width="1" height="1" fill="#4D2B32" />
<rect x="75" y="66" width="1" height="1" fill="#4D2B32" />
<rect x="76" y="66" width="1" height="1" fill="#4D2B32" />
<rect x="77" y="66" width="1" height="1" fill="#4D2B32" />
<rect x="78" y="66" width="1" height="1" fill="#4D2B32" />
<rect x="79" y="66" width="1" height="1" fill="#4D2B32" />
<rect x="80" y="66" width="1" height="1" fill="#4D2B32" />
<rect x="81" y="66" width="1" height="1" fill="#4D2B32" />
<rect x="72" y="67" width="1" height="1" fill="#4D2B32" />
<rect x="73" y="67" width="1" height="1" fill="#4D2B32" />
<rect x="74" y="67" width="1" height="1" fill="#4D2B32" />
<rect x="75" y="67" width="1" height="1" fill="#4D2B32" />
<rect x="76" y="67" width="1" height="1" fill="#4D2B32" />
<rect x="77" y="67" width="1" height="1" fill="#4D2B32" />
<rect x="78" y="67" width="1" height="1" fill="#4D2B32" />
<rect x="79" y="67" width="1" height="1" fill="#4D2B32" />
<rect x="80" y="67" width="1" height="1" fill="#4D2B32" />
<rect x="81" y="67" width="1" height="1" fill="#4D2B32" />
<rect x="82" y="67" width="1" height="1" fill="#4D2B32" />
<rect x="72" y="68" width="1" height="1" fill="#4D2B32" />
<rect x="73" y="68" width="1" height="1" fill="#4D2B32" />
<rect x="74" y="68" width="1" height="1" fill="#4D2B32" />
<rect x="75" y="68" width="1" height="1" fill="#4D2B32" />
<rect x="76" y="68" width="1" height="1" fill="#341C27" />
<rect x="77" y="68" width="1" height="1" fill="#341C27" />
<rect x="78" y="68" width="1" height="1" fill="#341C27" />
<rect x="79" y="68" width="1" height="1" fill="#4D2B32" />
<rect x="80" y="68" width="1" height="1" fill="#4D2B32" />
<rect x="81" y="68" width="1" height="1" fill="#4D2B32" />
<rect x="82" y="68" width="1" height="1" fill="#4D2B32" />
<rect x="72" y="69" width="1" height="1" fill="#4D2B32" />
<rect x="73" y="69" width="1" height="1" fill="#4D2B32" />
<rect x="74" y="69" width="1" height="1" fill="#4D2B32" />
<rect x="75" y="69" width="1" height="1" fill="#341C27" />
<rect x="79" y="69" width="1" height="1" fill="#341C27" />
<rect x="80" y="69" width="1" height="1" fill="#4D2B32" />
<rect x="81" y="69" width="1" height="1" fill="#4D2B32" />
<rect x="82" y="69" width="1" height="1" fill="#4D2B32" />
<rect x="71" y="70" width="1" height="1" fill="#341C27" />
<rect x="72" y="70" width="1" height="1" fill="#341C27" />
<rect x="73" y="70" width="1" height="1" fill="#4D2B32" />
<rect x="74" y="70" width="1" height="1" fill="#4D2B32" />
<rect x="75" y="70" width="1" height="1" fill="#341C27" />
<rect x="79" y="70" width="1" height="1" fill="#341C27" />
<rect x="80" y="70" width="1" height="1" fill="#4D2B32" />
<rect x="81" y="70" width="1" height="1" fill="#4D2B32" />
<rect x="82" y="70" width="1" height="1" fill="#341C27" />
<rect x="83" y="70" width="1" height="1" fill="#341C27" />
<rect x="71" y="71" width="1" height="1" fill="#4D2B32" />
<rect x="72" y="71" width="1" height="1" fill="#4D2B32" />
<rect x="73" y="71" width="1" height="1" fill="#4D2B32" />
<rect x="74" y="71" width="1" height="1" fill="#341C27" />
<rect x="80" y="71" width="1" height="1" fill="#341C27" />
<rect x="81" y="71" width="1" height="1" fill="#4D2B32" />
<rect x="82" y="71" width="1" height="1" fill="#4D2B32" />
<rect x="83" y="71" width="1" height="1" fill="#4D2B32" />
<rect x="71" y="72" width="1" height="1" fill="#4D2B32" />
<rect x="72" y="72" width="1" height="1" fill="#4D2B32" />
<rect x="73" y="72" width="1" height="1" fill="#4D2B32" />
<rect x="74" y="72" width="1" height="1" fill="#341C27" />
<rect x="80" y="72" width="1" height="1" fill="#341C27" />
<rect x="81" y="72" width="1" height="1" fill="#4D2B32" />
<rect x="82" y="72" width="1" height="1" fill="#4D2B32" />
<rect x="83" y="72" width="1" height="1" fill="#4D2B32" />
<rect x="71" y="73" width="1" height="1" fill="#4D2B32" />
<rect x="72" y="73" width="1" height="1" fill="#4D2B32" />
<rect x="73" y="73" width="1" height="1" fill="#341C27" />
<rect x="81" y="73" width="1" height="1" fill="#341C27" />
<rect x="82" y="73" width="1" height="1" fill="#4D2B32" />
<rect x="83" y="73" width="1" height="1" fill="#4D2B32" />
<rect x="70" y="74" width="1" height="1" fill="#4D2B32" />
<rect x="71" y="74" width="1" height="1" fill="#4D2B32" />
<rect x="72" y="74" width="1" height="1" fill="#4D2B32" />
<rect x="73" y="74" width="1" height="1" fill="#341C27" />
<rect x="81" y="74" width="1" height="1" fill="#341C27" />
<rect x="82" y="74" width="1" height="1" fill="#4D2B32" />
<rect x="83" y="74" width="1" height="1" fill="#4D2B32" />
<rect x="84" y="74" width="1" height="1" fill="#4D2B32" />
<rect x="70" y="75" width="1" height="1" fill="#4D2B32" />
<rect x="71" y="75" width="1" height="1" fill="#4D2B32" />
<rect x="72" y="75" width="1" height="1" fill="#341C27" />
<rect x="82" y="75" width="1" height="1" fill="#341C27" />
<rect x="83" y="75" width="1" height="1" fill="#4D2B32" />
<rect x="84" y="75" width="1" height="1" fill="#4D2B32" />
<rect x="70" y="76" width="1" height="1" fill="#4D2B32" />
<rect x="71" y="76" width="1" height="1" fill="#4D2B32" />
<rect x="72" y="76" width="1" height="1" fill="#341C27" />
<rect x="82" y="76" width="1" height="1" fill="#341C27" />
<rect x="83" y="76" width="1" height="1" fill="#4D2B32" />
<rect x="84" y="76" width="1" height="1" fill="#4D2B32" />
<rect x="69" y="77" width="1" height="1" fill="#A8B5B2" />
<rect x="70" y="77" width="1" height="1" fill="#A8B5B2" />
<rect x="71" y="77" width="1" height="1" fill="#577277" />
<rect x="72" y="77" width="1" height="1" fill="#394A50" />
<rect x="82" y="77" width="1" height="1" fill="#394A50" />
<rect x="83" y="77" width="1" height="1" fill="#577277" />
<rect x="84" y="77" width="1" height="1" fill="#A8B5B2" />
<rect x="85" y="77" width="1" height="1" fill="#A8B5B2" />
<rect x="68" y="78" width="1" height="1" fill="#819796" />
<rect x="69" y="78" width="1" height="1" fill="#819796" />
<rect x="70" y="78" width="1" height="1" fill="#577277" />
<rect x="71" y="78" width="1" height="1" fill="#394A50" />
<rect x="72" y="78" width="1" height="1" fill="#394A50" />
<rect x="82" y="78" width="1" height="1" fill="#394A50" />
<rect x="83" y="78" width="1" height="1" fill="#394A50" />
<rect x="84" y="78" width="1" height="1" fill="#577277" />
<rect x="85" y="78" width="1" height="1" fill="#819796" />
<rect x="86" y="78" width="1" height="1" fill="#819796" />
<rect x="68" y="79" width="1" height="1" fill="#202E37" />
<rect x="69" y="79" width="1" height="1" fill="#202E37" />
<rect x="70" y="79" width="1" height="1" fill="#202E37" />
<rect x="71" y="79" width="1" height="1" fill="#202E37" />
<rect x="72" y="79" width="1" height="1" fill="#202E37" />
<rect x="82" y="79" width="1" height="1" fill="#202E37" />
<rect x="83" y="79" width="1" height="1" fill="#202E37" />
<rect x="84" y="79" width="1" height="1" fill="#202E37" />
<rect x="85" y="79" width="1" height="1" fill="#202E37" />
<rect x="86" y="79" width="1" height="1" fill="#202E37" />
</svg>