<?xml version="1.0" encoding="UTF-8" ?>
<svg version="1.1" width="128" height="96" xmlns="http://www.w3.org/2000/svg" shape-rendering="crispEdges">
<rect x="45" y="34" width="1" height="1" fill="#DE9E41" />
<rect x="44" y="35" width="1" height="1" fill="#DE9E41" />
<rect x="45" y="35" width="1" height="1" fill="#E8C170" />
<rect x="46" y="35" width="1" height="1" fill="#DE9E41" />
<rect x="45" y="36" width="1" height="1" fill="#DE9E41" />
<rect x="38" y="37" width="1" height="1" fill="#DE9E41" />
<rect x="53" y="37" width="1" height="1" fill="#DE9E41" />
<rect x="37" y="38" width="1" height="1" fill="#DE9E41" />
<rect x="38" y="38" width="1" height="1" fill="#E8C170" />
<rect x="39" y="38" width="1" height="1" fill="#DE9E41" />
<rect x="52" y="38" width="1" height="1" fill="#DE9E41" />
<rect x="53" y="38" width="1" height="1" fill="#E8C170" />
<rect x="54" y="38" width="1" height="1" fill="#DE9E41" />
<rect x="38" y="39" width="1" height="1" fill="#DE9E41" />
<rect x="43" y="39" width="1" height="1" fill="#341C27" />
<rect x="44" y="39" width="1" height="1" fill="#341C27" />
<rect x="45" y="39" width="1" height="1" fill="#341C27" />
<rect x="46" y="39" width="1" height="1" fill="#341C27" />
<rect x="47" y="39" width="1" height="1" fill="#341C27" />
<rect x="48" y="39" width="1" height="1" fill="#341C27" />
<rect x="53" y="39" width="1" height="1" fill="#DE9E41" />
<rect x="41" y="40" width="1" height="1" fill="#341C27" />
<rect x="42" y="40" width="1" height="1" fill="#341C27" />
<rect x="43" y="40" width="1" height="1" fill="#341C27" />
<rect x="44" y="40" width="1" height="1" fill="#341C27" />
<rect x="45" y="40" width="1" height="1" fill="#4D2B32" />
<rect x="46" y="40" width="1" height="1" fill="#4D2B32" />
<rect x="47" y="40" width="1" height="1" fill="#341C27" />
<rect x="48" y="40" width="1" height="1" fill="#341C27" />
<rect x="49" y="40" width="1" height="1" fill="#341C27" />
<rect x="50" y="40" width="1" height="1" fill="#341C27" />
<rect x="40" y="41" width="1" height="1" fill="#341C27" />
<rect x="41" y="41" width="1" height="1" fill="#341C27" />
<rect x="42" y="41" width="1" height="1" fill="#341C27" />
<rect x="43" y="41" width="1" height="1" fill="#341C27" />
<rect x="44" y="41" width="1" height="1" fill="#4D2B32" />
<rect x="45" y="41" width="1" height="1" fill="#D7B594" />
<rect x="46" y="41" width="1" height="1" fill="#D7B594" />
<rect x="47" y="41" width="1" height="1" fill="#4D2B32" />
<rect x="48" y="41" width="1" height="1" fill="#341C27" />
<rect x="49" y="41" width="1" height="1" fill="#341C27" />
<rect x="50" y="41" width="1" height="1" fill="#341C27" />
<rect x="51" y="41" width="1" height="1" fill="#341C27" />
<rect x="40" y="42" width="1" height="1" fill="#341C27" />
<rect x="41" y="42" width="1" height="1" fill="#341C27" />
<rect x="42" y="42" width="1" height="1" fill="#341C27" />
<rect x="43" y="42" width="1" height="1" fill="#4D2B32" />
<rect x="44" y="42" width="1" height="1" fill="#D7B594" />
<rect x="45" y="42" width="1" height="1" fill="#E7D5B3" />
<rect x="46" y="42" width="1" height="1" fill="#E7D5B3" />
<rect x="47" y="42" width="1" height="1" fill="#D7B594" />
<rect x="48" y="42" width="1" height="1" fill="#4D2B32" />
<rect x="49" y="42" width="1" height="1" fill="#341C27" />
<rect x="50" y="42" width="1" height="1" fill="#341C27" />
<rect x="51" y="42" width="1" height="1" fill="#341C27" />
<rect x="52" y="42" width="1" height="1" fill="#341C27" />
<rect x="39" y="43" width="1" height="1" fill="#C09473" />
<rect x="40" y="43" width="1" height="1" fill="#341C27" />
<rect x="41" y="43" width="1" height="1" fill="#341C27" />
<rect x="42" y="43" width="1" height="1" fill="#341C27" />
<rect x="43" y="43" width="1" height="1" fill="#4D2B32" />
<rect x="44" y="43" width="1" height="1" fill="#D7B594" />
<rect x="45" y="43" width="1" height="1" fill="#E7D5B3" />
<rect x="46" y="43" width="1" height="1" fill="#E7D5B3" />
<rect x="47" y="43" width="1" height="1" fill="#D7B594" />
<rect x="48" y="43" width="1" height="1" fill="#4D2B32" />
<rect x="49" y="43" width="1" height="1" fill="#341C27" />
<rect x="50" y="43" width="1" height="1" fill="#090A14" />
<rect x="51" y="43" width="1" height="1" fill="#090A14" />
<rect x="52" y="43" width="1" height="1" fill="#341C27" />
<rect x="38" y="44" width="1" height="1" fill="#D7B594" />
<rect x="39" y="44" width="1" height="1" fill="#C09473" />
<rect x="40" y="44" width="1" height="1" fill="#341C27" />
<rect x="41" y="44" width="1" height="1" fill="#341C27" />
<rect x="42" y="44" width="1" height="1" fill="#4D2B32" />
<rect x="43" y="44" width="1" height="1" fill="#D7B594" />
<rect x="44" y="44" width="1" height="1" fill="#E7D5B3" />
<rect x="45" y="44" width="1" height="1" fill="#E7D5B3" />
<rect x="46" y="44" width="1" height="1" fill="#E7D5B3" />
<rect x="47" y="44" width="1" height="1" fill="#E7D5B3" />
<rect x="48" y="44" width="1" height="1" fill="#341C27" />
<rect x="49" y="44" width="1" height="1" fill="#090A14" />
<rect x="50" y="44" width="1" height="1" fill="#090A14" />
<rect x="51" y="44" width="1" height="1" fill="#341C27" />
<rect x="52" y="44" width="1" height="1" fill="#341C27" />
<rect x="38" y="45" width="1" height="1" fill="#D7B594" />
<rect x="39" y="45" width="1" height="1" fill="#C09473" />
<rect x="40" y="45" width="1" height="1" fill="#341C27" />
<rect x="41" y="45" width="1" height="1" fill="#4D2B32" />
<rect x="42" y="45" width="1" height="1" fill="#D7B594" />
<rect x="43" y="45" width="1" height="1" fill="#E7D5B3" />
<rect x="44" y="45" width="1" height="1" fill="#E7D5B3" />
<rect x="45" y="45" width="1" height="1" fill="#E7D5B3" />
<rect x="46" y="45" width="1" height="1" fill="#151D28" />
<rect x="47" y="45" width="1" height="1" fill="#151D28" />
<rect x="48" y="45" width="1" height="1" fill="#151D28" />
<rect x="49" y="45" width="1" height="1" fill="#090A14" />
<rect x="50" y="45" width="1" height="1" fill="#341C27" />
<rect x="51" y="45" width="1" height="1" fill="#341C27" />
<rect x="52" y="45" width="1" height="1" fill="#341C27" />
<rect x="37" y="46" width="1" height="1" fill="#E7D5B3" />
<rect x="38" y="46" width="1" height="1" fill="#E7D5B3" />
<rect x="39" y="46" width="1" height="1" fill="#341C27" />
<rect x="40" y="46" width="1" height="1" fill="#090A14" />
<rect x="41" y="46" width="1" height="1" fill="#151D28" />
<rect x="42" y="46" width="1" height="1" fill="#151D28" />
<rect x="43" y="46" width="1" height="1" fill="#E7D5B3" />
<rect x="44" y="46" width="1" height="1" fill="#E7D5B3" />
<rect x="45" y="46" width="1" height="1" fill="#151D28" />
<rect x="46" y="46" width="1" height="1" fill="#819796" />
<rect x="47" y="46" width="1" height="1" fill="#A8B5B2" />
<rect x="48" y="46" width="1" height="1" fill="#EBEDE9" />
<rect x="49" y="46" width="1" height="1" fill="#151D28" />
<rect x="50" y="46" width="1" height="1" fill="#E3D1B0" />
<rect x="51" y="46" width="1" height="1" fill="#341C27" />
<rect x="52" y="46" width="1" height="1" fill="#341C27" />
<rect x="37" y="47" width="1" height="1" fill="#E7D5B3" />
<rect x="38" y="47" width="1" height="1" fill="#E7D5B3" />
<rect x="39" y="47" width="1" height="1" fill="#341C27" />
<rect x="40" y="47" width="1" height="1" fill="#151D28" />
<rect x="41" y="47" width="1" height="1" fill="#A8B5B2" />
<rect x="42" y="47" width="1" height="1" fill="#EBEDE9" />
<rect x="43" y="47" width="1" height="1" fill="#151D28" />
<rect x="44" y="47" width="1" height="1" fill="#090A14" />
<rect x="45" y="47" width="1" height="1" fill="#151D28" />
<rect x="46" y="47" width="1" height="1" fill="#A8B5B2" />
<rect x="47" y="47" width="1" height="1" fill="#EBEDE9" />
<rect x="48" y="47" width="1" height="1" fill="#C7CFCC" />
<rect x="49" y="47" width="1" height="1" fill="#151D28" />
<rect x="50" y="47" width="1" height="1" fill="#E7D5B3" />
<rect x="51" y="47" width="1" height="1" fill="#E7D5B3" />
<rect x="52" y="47" width="1" height="1" fill="#AD7757" />
<rect x="37" y="48" width="1" height="1" fill="#E7D5B3" />
<rect x="38" y="48" width="1" height="1" fill="#E7D5B3" />
<rect x="40" y="48" width="1" height="1" fill="#151D28" />
<rect x="41" y="48" width="1" height="1" fill="#A8B5B2" />
<rect x="42" y="48" width="1" height="1" fill="#EBEDE9" />
<rect x="43" y="48" width="1" height="1" fill="#C7CFCC" />
<rect x="44" y="48" width="1" height="1" fill="#151D28" />
<rect x="45" y="48" width="1" height="1" fill="#C09473" />
<rect x="46" y="48" width="1" height="1" fill="#151D28" />
<rect x="47" y="48" width="1" height="1" fill="#EBEDE9" />
<rect x="48" y="48" width="1" height="1" fill="#C7CFCC" />
<rect x="49" y="48" width="1" height="1" fill="#151D28" />
<rect x="50" y="48" width="1" height="1" fill="#E3D1B0" />
<rect x="51" y="48" width="1" height="1" fill="#E7D5B3" />
<rect x="52" y="48" width="1" height="1" fill="#C09473" />
<rect x="37" y="49" width="1" height="1" fill="#E7D5B3" />
<rect x="38" y="49" width="1" height="1" fill="#E7D5B3" />
<rect x="40" y="49" width="1" height="1" fill="#151D28" />
<rect x="41" y="49" width="1" height="1" fill="#EBEDE9" />
<rect x="42" y="49" width="1" height="1" fill="#C7CFCC" />
<rect x="43" y="49" width="1" height="1" fill="#A8B5B2" />
<rect x="44" y="49" width="1" height="1" fill="#151D28" />
<rect x="45" y="49" width="1" height="1" fill="#C09473" />
<rect x="46" y="49" width="1" height="1" fill="#E7D5B3" />
<rect x="47" y="49" width="1" height="1" fill="#151D28" />
<rect x="48" y="49" width="1" height="1" fill="#151D28" />
<rect x="49" y="49" width="1" height="1" fill="#E7D5B3" />
<rect x="50" y="49" width="1" height="1" fill="#E7D5B3" />
<rect x="51" y="49" width="1" height="1" fill="#E3D1B0" />
<rect x="37" y="50" width="1" height="1" fill="#E7D5B3" />
<rect x="38" y="50" width="1" height="1" fill="#E7D5B3" />
<rect x="40" y="50" width="1" height="1" fill="#E3D1B0" />
<rect x="41" y="50" width="1" height="1" fill="#151D28" />
<rect x="42" y="50" width="1" height="1" fill="#151D28" />
<rect x="43" y="50" width="1" height="1" fill="#151D28" />
<rect x="44" y="50" width="1" height="1" fill="#E7D5B3" />
<rect x="45" y="50" width="1" height="1" fill="#E7D5B3" />
<rect x="46" y="50" width="1" height="1" fill="#E3D1B0" />
<rect x="47" y="50" width="1" height="1" fill="#E3D1B0" />
<rect x="48" y="50" width="1" height="1" fill="#E3D1B0" />
<rect x="49" y="50" width="1" height="1" fill="#E3D1B0" />
<rect x="50" y="50" width="1" height="1" fill="#E3D1B0" />
<rect x="51" y="50" width="1" height="1" fill="#E3D1B0" />
<rect x="37" y="51" width="1" height="1" fill="#D7B594" />
<rect x="38" y="51" width="1" height="1" fill="#253A5E" />
<rect x="41" y="51" width="1" height="1" fill="#E3D1B0" />
<rect x="42" y="51" width="1" height="1" fill="#E7D5B3" />
<rect x="43" y="51" width="1" height="1" fill="#E7D5B3" />
<rect x="44" y="51" width="1" height="1" fill="#E7D5B3" />
<rect x="45" y="51" width="1" height="1" fill="#C09473" />
<rect x="46" y="51" width="1" height="1" fill="#C09473" />
<rect x="47" y="51" width="1" height="1" fill="#E7D5B3" />
<rect x="48" y="51" width="1" height="1" fill="#E7D5B3" />
<rect x="49" y="51" width="1" height="1" fill="#E7D5B3" />
<rect x="50" y="51" width="1" height="1" fill="#E3D1B0" />
<rect x="37" y="52" width="1" height="1" fill="#253A5E" />
<rect x="38" y="52" width="1" height="1" fill="#253A5E" />
<rect x="39" y="52" width="1" height="1" fill="#3C5E8B" />
<rect x="42" y="52" width="1" height="1" fill="#E3D1B0" />
<rect x="43" y="52" width="1" height="1" fill="#E7D5B3" />
<rect x="44" y="52" width="1" height="1" fill="#E7D5B3" />
<rect x="45" y="52" width="1" height="1" fill="#C09473" />
<rect x="46" y="52" width="1" height="1" fill="#C09473" />
<rect x="47" y="52" width="1" height="1" fill="#E7D5B3" />
<rect x="48" y="52" width="1" height="1" fill="#E7D5B3" />
<rect x="49" y="52" width="1" height="1" fill="#E3D1B0" />
<rect x="37" y="53" width="1" height="1" fill="#3C5E8B" />
<rect x="38" y="53" width="1" height="1" fill="#3C5E8B" />
<rect x="39" y="53" width="1" height="1" fill="#3C5E8B" />
<rect x="40" y="53" width="1" height="1" fill="#3C5E8B" />
<rect x="44" y="53" width="1" height="1" fill="#E3D1B0" />
<rect x="45" y="53" width="1" height="1" fill="#E7D5B3" />
<rect x="46" y="53" width="1" height="1" fill="#E7D5B3" />
<rect x="47" y="53" width="1" height="1" fill="#E3D1B0" />
<rect x="38" y="54" width="1" height="1" fill="#3C5E8B" />
<rect x="39" y="54" width="1" height="1" fill="#3C5E8B" />
<rect x="40" y="54" width="1" height="1" fill="#3C5E8B" />
<rect x="41" y="54" width="1" height="1" fill="#3C5E8B" />
<rect x="42" y="54" width="1" height="1" fill="#3C5E8B" />
<rect x="43" y="54" width="1" height="1" fill="#3C5E8B" />
<rect x="44" y="54" width="1" height="1" fill="#172038" />
<rect x="45" y="54" width="1" height="1" fill="#D7B594" />
<rect x="46" y="54" width="1" height="1" fill="#D7B594" />
<rect x="47" y="54" width="1" height="1" fill="#172038" />
<rect x="48" y="54" width="1" height="1" fill="#253A5E" />
<rect x="49" y="54" width="1" height="1" fill="#253A5E" />
<rect x="50" y="54" width="1" height="1" fill="#253A5E" />
<rect x="39" y="55" width="1" height="1" fill="#3C5E8B" />
<rect x="40" y="55" width="1" height="1" fill="#3C5E8B" />
<rect x="41" y="55" width="1" height="1" fill="#3C5E8B" />
<rect x="42" y="55" width="1" height="1" fill="#3C5E8B" />
<rect x="43" y="55" width="1" height="1" fill="#3C5E8B" />
<rect x="44" y="55" width="1" height="1" fill="#3C5E8B" />
<rect x="45" y="55" width="1" height="1" fill="#172038" />
<rect x="46" y="55" width="1" height="1" fill="#172038" />
<rect x="47" y="55" width="1" height="1" fill="#253A5E" />
<rect x="48" y="55" width="1" height="1" fill="#253A5E" />
<rect x="49" y="55" width="1" height="1" fill="#253A5E" />
<rect x="50" y="55" width="1" height="1" fill="#253A5E" />
<rect x="51" y="55" width="1" height="1" fill="#253A5E" />
<rect x="40" y="56" width="1" height="1" fill="#3C5E8B" />
<rect x="41" y="56" width="1" height="1" fill="#3C5E8B" />
<rect x="42" y="56" width="1" height="1" fill="#3C5E8B" />
<rect x="43" y="56" width="1" height="1" fill="#3C5E8B" />
<rect x="44" y="56" width="1" height="1" fill="#3C5E8B" />
<rect x="45" y="56" width="1" height="1" fill="#3C5E8B" />
<rect x="46" y="56" width="1" height="1" fill="#3C5E8B" />
<rect x="47" y="56" width="1" height="1" fill="#3C5E8B" />
<rect x="48" y="56" width="1" height="1" fill="#253A5E" />
<rect x="49" y="56" width="1" height="1" fill="#253A5E" />
<rect x="50" y="56" width="1" height="1" fill="#253A5E" />
<rect x="51" y="56" width="1" height="1" fill="#253A5E" />
<rect x="52" y="56" width="1" height="1" fill="#253A5E" />
<rect x="41" y="57" width="1" height="1" fill="#3C5E8B" />
<rect x="42" y="57" width="1" height="1" fill="#3C5E8B" />
<rect x="43" y="57" width="1" height="1" fill="#3C5E8B" />
<rect x="44" y="57" width="1" height="1" fill="#3C5E8B" />
<rect x="45" y="57" width="1" height="1" fill="#3C5E8B" />
<rect x="46" y="57" width="1" height="1" fill="#3C5E8B" />
<rect x="47" y="57" width="1" height="1" fill="#3C5E8B" />
<rect x="48" y="57" width="1" height="1" fill="#3C5E8B" />
<rect x="49" y="57" width="1" height="1" fill="#253A5E" />
<rect x="50" y="57" width="1" height="1" fill="#253A5E" />
<rect x="51" y="57" width="1" height="1" fill="#253A5E" />
<rect x="52" y="57" width="1" height="1" fill="#172038" />
<rect x="53" y="57" width="1" height="1" fill="#172038" />
<rect x="42" y="58" width="1" height="1" fill="#3C5E8B" />
<rect x="43" y="58" width="1" height="1" fill="#3C5E8B" />
<rect x="44" y="58" width="1" height="1" fill="#3C5E8B" />
<rect x="45" y="58" width="1" height="1" fill="#3C5E8B" />
<rect x="46" y="58" width="1" height="1" fill="#3C5E8B" />
<rect x="47" y="58" width="1" height="1" fill="#3C5E8B" />
<rect x="48" y="58" width="1" height="1" fill="#3C5E8B" />
<rect x="49" y="58" width="1" height="1" fill="#3C5E8B" />
<rect x="50" y="58" width="1" height="1" fill="#253A5E" />
<rect x="51" y="58" width="1" height="1" fill="#172038" />
<rect x="52" y="58" width="1" height="1" fill="#D7B594" />
<rect x="53" y="58" width="1" height="1" fill="#E7D5B3" />
<rect x="42" y="59" width="1" height="1" fill="#3C5E8B" />
<rect x="43" y="59" width="1" height="1" fill="#3C5E8B" />
<rect x="44" y="59" width="1" height="1" fill="#3C5E8B" />
<rect x="45" y="59" width="1" height="1" fill="#3C5E8B" />
<rect x="46" y="59" width="1" height="1" fill="#3C5E8B" />
<rect x="47" y="59" width="1" height="1" fill="#3C5E8B" />
<rect x="48" y="59" width="1" height="1" fill="#3C5E8B" />
<rect x="49" y="59" width="1" height="1" fill="#3C5E8B" />
<rect x="50" y="59" width="1" height="1" fill="#253A5E" />
<rect x="52" y="59" width="1" height="1" fill="#E7D5B3" />
<rect x="53" y="59" width="1" height="1" fill="#E7D5B3" />
<rect x="54" y="59" width="1" height="1" fill="#E7D5B3" />
<rect x="42" y="60" width="1" height="1" fill="#3C5E8B" />
<rect x="43" y="60" width="1" height="1" fill="#3C5E8B" />
<rect x="44" y="60" width="1" height="1" fill="#3C5E8B" />
<rect x="45" y="60" width="1" height="1" fill="#3C5E8B" />
<rect x="46" y="60" width="1" height="1" fill="#3C5E8B" />
<rect x="47" y="60" width="1" height="1" fill="#3C5E8B" />
<rect x="48" y="60" width="1" height="1" fill="#3C5E8B" />
<rect x="49" y="60" width="1" height="1" fill="#3C5E8B" />
<rect x="50" y="60" width="1" height="1" fill="#253A5E" />
<rect x="53" y="60" width="1" height="1" fill="#E7D5B3" />
<rect x="54" y="60" width="1" height="1" fill="#E7D5B3" />
<rect x="55" y="60" width="1" height="1" fill="#E7D5B3" />
<rect x="42" y="61" width="1" height="1" fill="#3C5E8B" />
<rect x="43" y="61" width="1" height="1" fill="#3C5E8B" />
<rect x="44" y="61" width="1" height="1" fill="#3C5E8B" />
<rect x="45" y="61" width="1" height="1" fill="#3C5E8B" />
<rect x="46" y="61" width="1" height="1" fill="#3C5E8B" />
<rect x="47" y="61" width="1" height="1" fill="#3C5E8B" />
<rect x="48" y="61" width="1" height="1" fill="#3C5E8B" />
<rect x="49" y="61" width="1" height="1" fill="#3C5E8B" />
<rect x="50" y="61" width="1" height="1" fill="#253A5E" />
<rect x="54" y="61" width="1" height="1" fill="#E7D5B3" />
<rect x="55" y="61" width="1" height="1" fill="#E7D5B3" />
<rect x="56" y="61" width="1" height="1" fill="#E7D5B3" />
<rect x="42" y="62" width="1" height="1" fill="#3C5E8B" />
<rect x="43" y="62" width="1" height="1" fill="#3C5E8B" />
<rect x="44" y="62" width="1" height="1" fill="#3C5E8B" />
<rect x="45" y="62" width="1" height="1" fill="#3C5E8B" />
<rect x="46" y="62" width="1" height="1" fill="#3C5E8B" />
<rect x="47" y="62" width="1" height="1" fill="#3C5E8B" />
<rect x="48" y="62" width="1" height="1" fill="#3C5E8B" />
<rect x="49" y="62" width="1" height="1" fill="#3C5E8B" />
<rect x="50" y="62" width="1" height="1" fill="#253A5E" />
<rect x="55" y="62" width="1" height="1" fill="#D7B594" />
<rect x="56" y="62" width="1" height="1" fill="#D7B594" />
<rect x="57" y="62" width="1" height="1" fill="#D7B594" />
<rect x="42" y="63" width="1" height="1" fill="#241527" />
<rect x="43" y="63" width="1" height="1" fill="#241527" />
<rect x="44" y="63" width="1" height="1" fill="#341C27" />
<rect x="45" y="63" width="1" height="1" fill="#EBEDE9" />
<rect x="46" y="63" width="1" height="1" fill="#C7CFCC" />
<rect x="47" y="63" width="1" height="1" fill="#341C27" />
<rect x="48" y="63" width="1" height="1" fill="#341C27" />
<rect x="49" y="63" width="1" height="1" fill="#241527" />
<rect x="50" y="63" width="1" height="1" fill="#241527" />
<rect x="55" y="63" width="1" height="1" fill="#C09473" />
<rect x="56" y="63" width="1" height="1" fill="#C09473" />
<rect x="42" y="64" width="1" height="1" fill="#4D2B32" />
<rect x="43" y="64" width="1" height="1" fill="#4D2B32" />
<rect x="44" y="64" width="1" height="1" fill="#4D2B32" />
<rect x="45" y="64" width="1" height="1" fill="#4D2B32" />
<rect x="46" y="64" width="1" height="1" fill="#4D2B32" />
<rect x="47" y="64" width="1" height="1" fill="#4D2B32" />
<rect x="48" y="64" width="1" height="1" fill="#4D2B32" />
<rect x="49" y="64" width="1" height="1" fill="#4D2B32" />
<rect x="50" y="64" width="1" height="1" fill="#341C27" />
<rect x="42" y="65" width="1" height="1" fill="#4D2B32" />
<rect x="43" y="65" width="1" height="1" fill="#4D2B32" />
<rect x="44" y="65" width="1" height="1" fill="#4D2B32" />
<rect x="45" y="65" width="1" height="1" fill="#4D2B32" />
<rect x="46" y="65" width="1" height="1" fill="#4D2B32" />
<rect x="47" y="65" width="1" height="1" fill="#4D2B32" />
<rect x="48" y="65" width="1" height="1" fill="#4D2B32" />
<rect x="49" y="65" width="1" height="1" fill="#4D2B32" />
<rect x="50" y="65" width="1" height="1" fill="#341C27" />
<rect x="42" y="66" width="1" height="1" fill="#4D2B32" />
<rect x="43" y="66" width="1" height="1" fill="#4D2B32" />
<rect x="44" y="66" width="1" height="1" fill="#4D2B32" />
<rect x="45" y="66" width="1" height="1" fill="#4D2B32" />
<rect x="46" y="66" width="1" height="1" fill="#4D2B32" />
<rect x="47" y="66" width="1" height="1" fill="#4D2B32" />
<rect x="48" y="66" width="1" height="1" fill="#4D2B32" />
<rect x="49" y="66" width="1" height="1" fill="#4D2B32" />
<rect x="50" y="66" width="1" height="1" fill="#341C27" />
<rect x="42" y="67" width="1" height="1" fill="#4D2B32" />
<rect x="43" y="67" width="1" height="1" fill="#4D2B32" />
<rect x="44" y="67" width="1" height="1" fill="#4D2B32" />
<rect x="45" y="67" width="1" height="1" fill="#4D2B32" />
<rect x="46" y="67" width="1" height="1" fill="#4D2B32" />
<rect x="47" y="67" width="1" height="1" fill="#4D2B32" />
<rect x="48" y="67" width="1" height="1" fill="#4D2B32" />
<rect x="49" y="67" width="1" height="1" fill="#4D2B32" />
<rect x="50" y="67" width="1" height="1" fill="#341C27" />
<rect x="42" y="68" width="1" height="1" fill="#4D2B32" />
<rect x="43" y="68" width="1" height="1" fill="#4D2B32" />
<rect x="44" y="68" width="1" height="1" fill="#4D2B32" />
<rect x="45" y="68" width="1" height="1" fill="#4D2B32" />
<rect x="46" y="68" width="1" height="1" fill="#4D2B32" />
<rect x="47" y="68" width="1" height="1" fill="#4D2B32" />
<rect x="48" y="68" width="1" height="1" fill="#4D2B32" />
<rect x="49" y="68" width="1" height="1" fill="#4D2B32" />
<rect x="50" y="68" width="1" height="1" fill="#341C27" />
<rect x="42" y="69" width="1" height="1" fill="#4D2B32" />
<rect x="43" y="69" width="1" height="1" fill="#4D2B32" />
<rect x="44" y="69" width="1" height="1" fill="#341C27" />
<rect x="48" y="69" width="1" height="1" fill="#4D2B32" />
<rect x="49" y="69" width="1" height="1" fill="#4D2B32" />
<rect x="50" y="69" width="1" height="1" fill="#341C27" />
<rect x="42" y="70" width="1" height="1" fill="#4D2B32" />
<rect x="43" y="70" width="1" height="1" fill="#4D2B32" />
<rect x="44" y="70" width="1" height="1" fill="#341C27" />
<rect x="48" y="70" width="1" height="1" fill="#4D2B32" />
<rect x="49" y="70" width="1" height="1" fill="#4D2B32" />
<rect x="50" y="70" width="1" height="1" fill="#341C27" />
<rect x="42" y="71" width="1" height="1" fill="#4D2B32" />
<rect x="43" y="71" width="1" height="1" fill="#4D2B32" />
<rect x="44" y="71" width="1" height="1" fill="#341C27" />
<rect x="48" y="71" width="1" height="1" fill="#4D2B32" />
<rect x="49" y="71" width="1" height="1" fill="#4D2B32" />
<rect x="50" y="71" width="1" height="1" fill="#341C27" />
<rect x="42" y="72" width="1" height="1" fill="#341C27" />
<rect x="43" y="72" width="1" height="1" fill="#4D2B32" />
<rect x="44" y="72" width="1" height="1" fill="#341C27" />
<rect x="48" y="72" width="1" height="1" fill="#341C27" />
<rect x="49" y="72" width="1" height="1" fill="#4D2B32" />
<rect x="50" y="72" width="1" height="1" fill="#341C27" />
<rect x="42" y="73" width="1" height="1" fill="#4D2B32" />
<rect x="43" y="73" width="1" height="1" fill="#4D2B32" />
<rect x="44" y="73" width="1" height="1" fill="#341C27" />
<rect x="48" y="73" width="1" height="1" fill="#4D2B32" />
<rect x="49" y="73" width="1" height="1" fill="#4D2B32" />
<rect x="50" y="73" width="1" height="1" fill="#341C27" />
<rect x="42" y="74" width="1" height="1" fill="#4D2B32" />
<rect x="43" y="74" width="1" height="1" fill="#4D2B32" />
<rect x="44" y="74" width="1" height="1" fill="#341C27" />
<rect x="48" y="74" width="1" height="1" fill="#4D2B32" />
<rect x="49" y="74" width="1" height="1" fill="#4D2B32" />
<rect x="50" y="74" width="1" height="1" fill="#341C27" />
<rect x="42" y="75" width="1" height="1" fill="#4D2B32" />
<rect x="43" y="75" width="1" height="1" fill="#4D2B32" />
<rect x="44" y="75" width="1" height="1" fill="#341C27" />
<rect x="48" y="75" width="1" height="1" fill="#4D2B32" />
<rect x="49" y="75" width="1" height="1" fill="#4D2B32" />
<rect x="50" y="75" width="1" height="1" fill="#341C27" />
<rect x="42" y="76" width="1" height="1" fill="#341C27" />
<rect x="43" y="76" width="1" height="1" fill="#341C27" />
<rect x="44" y="76" width="1" height="1" fill="#341C27" />
<rect x="48" y="76" width="1" height="1" fill="#341C27" />
<rect x="49" y="76" width="1" height="1" fill="#341C27" />
<rect x="50" y="76" width="1" height="1" fill="#341C27" />
<rect x="41" y="77" width="1" height="1" fill="#A8B5B2" />
<rect x="42" y="77" width="1" height="1" fill="#A8B5B2" />
<rect x="43" y="77" width="1" height="1" fill="#577277" />
<rect x="44" y="77" width="1" height="1" fill="#394A50" />
<rect x="48" y="77" width="1" height="1" fill="#A8B5B2" />
<rect x="49" y="77" width="1" height="1" fill="#A8B5B2" />
<rect x="50" y="77" width="1" height="1" fill="#577277" />
<rect x="40" y="78" width="1" height="1" fill="#819796" />
<rect x="41" y="78" width="1" height="1" fill="#819796" />
<rect x="42" y="78" width="1" height="1" fill="#577277" />
<rect x="43" y="78" width="1" height="1" fill="#394A50" />
<rect x="44" y="78" width="1" height="1" fill="#394A50" />
<rect x="47" y="78" width="1" height="1" fill="#819796" />
<rect x="48" y="78" width="1" height="1" fill="#819796" />
<rect x="49" y="78" width="1" height="1" fill="#577277" />
<rect x="50" y="78" width="1" height="1" fill="#394A50" />
<rect x="40" y="79" width="1" height="1" fill="#202E37" />
<rect x="41" y="79" width="1" height="1" fill="#202E37" />
<rect x="42" y="79" width="1" height="1" fill="#151D28" />
<rect x="43" y="79" width="1" height="1" fill="#151D28" />
<rect x="44" y="79" width="1" height="1" fill="#151D28" />
<rect x="47" y="79" width="1" height="1" fill="#202E37" />
<rect x="48" y="79" width="1" height="1" fill="#202E37" />
<rect x="49" y="79" width="1" height="1" fill="#151D28" />
<rect x="50" y="79" width="1" height="1" fill="#151D28" />
</svg>