<?xml version="1.0" encoding="UTF-8" ?>
<svg version="1.1" width="160" height="64" xmlns="http://www.w3.org/2000/svg" shape-rendering="crispEdges">
<rect x="107" y="3" width="1" height="1" fill="#DE9E41" />
<rect x="106" y="4" width="1" height="1" fill="#DE9E41" />
<rect x="107" y="4" width="1" height="1" fill="#E8C170" />
<rect x="108" y="4" width="1" height="1" fill="#DE9E41" />
<rect x="100" y="5" width="1" height="1" fill="#DE9E41" />
<rect x="107" y="5" width="1" height="1" fill="#DE9E41" />
<rect x="113" y="5" width="1" height="1" fill="#DE9E41" />
<rect x="99" y="6" width="1" height="1" fill="#DE9E41" />
<rect x="100" y="6" width="1" height="1" fill="#E8C170" />
<rect x="101" y="6" width="1" height="1" fill="#DE9E41" />
<rect x="112" y="6" width="1" height="1" fill="#DE9E41" />
<rect x="113" y="6" width="1" height="1" fill="#E8C170" />
<rect x="114" y="6" width="1" height="1" fill="#DE9E41" />
<rect x="100" y="7" width="1" height="1" fill="#DE9E41" />
<rect x="113" y="7" width="1" height="1" fill="#DE9E41" />
<rect x="104" y="8" width="1" height="1" fill="#EBEDE9" />
<rect x="105" y="8" width="1" height="1" fill="#EBEDE9" />
<rect x="106" y="8" width="1" height="1" fill="#EBEDE9" />
<rect x="107" y="8" width="1" height="1" fill="#EBEDE9" />
<rect x="108" y="8" width="1" height="1" fill="#EBEDE9" />
<rect x="109" y="8" width="1" height="1" fill="#EBEDE9" />
<rect x="102" y="9" width="1" height="1" fill="#EBEDE9" />
<rect x="103" y="9" width="1" height="1" fill="#EBEDE9" />
<rect x="104" y="9" width="1" height="1" fill="#EBEDE9" />
<rect x="105" y="9" width="1" height="1" fill="#EBEDE9" />
<rect x="106" y="9" width="1" height="1" fill="#EBEDE9" />
<rect x="107" y="9" width="1" height="1" fill="#EBEDE9" />
<rect x="108" y="9" width="1" height="1" fill="#EBEDE9" />
<rect x="109" y="9" width="1" height="1" fill="#EBEDE9" />
<rect x="110" y="9" width="1" height="1" fill="#EBEDE9" />
<rect x="111" y="9" width="1" height="1" fill="#EBEDE9" />
<rect x="101" y="10" width="1" height="1" fill="#EBEDE9" />
<rect x="102" y="10" width="1" height="1" fill="#EBEDE9" />
<rect x="103" y="10" width="1" height="1" fill="#EBEDE9" />
<rect x="104" y="10" width="1" height="1" fill="#EBEDE9" />
<rect x="105" y="10" width="1" height="1" fill="#EBEDE9" />
<rect x="106" y="10" width="1" height="1" fill="#EBEDE9" />
<rect x="107" y="10" width="1" height="1" fill="#EBEDE9" />
<rect x="108" y="10" width="1" height="1" fill="#EBEDE9" />
<rect x="109" y="10" width="1" height="1" fill="#EBEDE9" />
<rect x="110" y="10" width="1" height="1" fill="#EBEDE9" />
<rect x="111" y="10" width="1" height="1" fill="#EBEDE9" />
<rect x="112" y="10" width="1" height="1" fill="#EBEDE9" />
<rect x="101" y="11" width="1" height="1" fill="#EBEDE9" />
<rect x="102" y="11" width="1" height="1" fill="#EBEDE9" />
<rect x="103" y="11" width="1" height="1" fill="#EBEDE9" />
<rect x="104" y="11" width="1" height="1" fill="#EBEDE9" />
<rect x="105" y="11" width="1" height="1" fill="#EBEDE9" />
<rect x="106" y="11" width="1" height="1" fill="#EBEDE9" />
<rect x="107" y="11" width="1" height="1" fill="#EBEDE9" />
<rect x="108" y="11" width="1" height="1" fill="#EBEDE9" />
<rect x="109" y="11" width="1" height="1" fill="#EBEDE9" />
<rect x="110" y="11" width="1" height="1" fill="#EBEDE9" />
<rect x="111" y="11" width="1" height="1" fill="#EBEDE9" />
<rect x="112" y="11" width="1" height="1" fill="#EBEDE9" />
<rect x="113" y="11" width="1" height="1" fill="#EBEDE9" />
<rect x="100" y="12" width="1" height="1" fill="#EBEDE9" />
<rect x="101" y="12" width="1" height="1" fill="#EBEDE9" />
<rect x="102" y="12" width="1" height="1" fill="#EBEDE9" />
<rect x="103" y="12" width="1" height="1" fill="#EBEDE9" />
<rect x="104" y="12" width="1" height="1" fill="#EBEDE9" />
<rect x="105" y="12" width="1" height="1" fill="#EBEDE9" />
<rect x="106" y="12" width="1" height="1" fill="#EBEDE9" />
<rect x="107" y="12" width="1" height="1" fill="#EBEDE9" />
<rect x="108" y="12" width="1" height="1" fill="#EBEDE9" />
<rect x="109" y="12" width="1" height="1" fill="#EBEDE9" />
<rect x="110" y="12" width="1" height="1" fill="#EBEDE9" />
<rect x="111" y="12" width="1" height="1" fill="#EBEDE9" />
<rect x="112" y="12" width="1" height="1" fill="#EBEDE9" />
<rect x="113" y="12" width="1" height="1" fill="#EBEDE9" />
<rect x="100" y="13" width="1" height="1" fill="#EBEDE9" />
<rect x="101" y="13" width="1" height="1" fill="#EBEDE9" />
<rect x="102" y="13" width="1" height="1" fill="#EBEDE9" />
<rect x="103" y="13" width="1" height="1" fill="#EBEDE9" />
<rect x="104" y="13" width="1" height="1" fill="#EBEDE9" />
<rect x="105" y="13" width="1" height="1" fill="#EBEDE9" />
<rect x="106" y="13" width="1" height="1" fill="#EBEDE9" />
<rect x="107" y="13" width="1" height="1" fill="#EBEDE9" />
<rect x="108" y="13" width="1" height="1" fill="#EBEDE9" />
<rect x="109" y="13" width="1" height="1" fill="#EBEDE9" />
<rect x="110" y="13" width="1" height="1" fill="#EBEDE9" />
<rect x="111" y="13" width="1" height="1" fill="#EBEDE9" />
<rect x="112" y="13" width="1" height="1" fill="#EBEDE9" />
<rect x="113" y="13" width="1" height="1" fill="#EBEDE9" />
<rect x="114" y="13" width="1" height="1" fill="#E7D5B3" />
<rect x="100" y="14" width="1" height="1" fill="#EBEDE9" />
<rect x="101" y="14" width="1" height="1" fill="#EBEDE9" />
<rect x="102" y="14" width="1" height="1" fill="#EBEDE9" />
<rect x="103" y="14" width="1" height="1" fill="#E7D5B3" />
<rect x="104" y="14" width="1" height="1" fill="#E7D5B3" />
<rect x="105" y="14" width="1" height="1" fill="#D7B594" />
<rect x="106" y="14" width="1" height="1" fill="#EBEDE9" />
<rect x="107" y="14" width="1" height="1" fill="#EBEDE9" />
<rect x="108" y="14" width="1" height="1" fill="#D7B594" />
<rect x="109" y="14" width="1" height="1" fill="#D7B594" />
<rect x="110" y="14" width="1" height="1" fill="#D7B594" />
<rect x="111" y="14" width="1" height="1" fill="#EBEDE9" />
<rect x="112" y="14" width="1" height="1" fill="#EBEDE9" />
<rect x="113" y="14" width="1" height="1" fill="#EBEDE9" />
<rect x="114" y="14" width="1" height="1" fill="#E7D5B3" />
<rect x="115" y="14" width="1" height="1" fill="#D7B594" />
<rect x="100" y="15" width="1" height="1" fill="#EBEDE9" />
<rect x="101" y="15" width="1" height="1" fill="#EBEDE9" />
<rect x="102" y="15" width="1" height="1" fill="#E7D5B3" />
<rect x="103" y="15" width="1" height="1" fill="#E7D5B3" />
<rect x="104" y="15" width="1" height="1" fill="#E7D5B3" />
<rect x="105" y="15" width="1" height="1" fill="#E7D5B3" />
<rect x="106" y="15" width="1" height="1" fill="#D7B594" />
<rect x="107" y="15" width="1" height="1" fill="#EBEDE9" />
<rect x="108" y="15" width="1" height="1" fill="#E7D5B3" />
<rect x="109" y="15" width="1" height="1" fill="#E7D5B3" />
<rect x="110" y="15" width="1" height="1" fill="#E7D5B3" />
<rect x="111" y="15" width="1" height="1" fill="#D7B594" />
<rect x="112" y="15" width="1" height="1" fill="#EBEDE9" />
<rect x="113" y="15" width="1" height="1" fill="#EBEDE9" />
<rect x="114" y="15" width="1" height="1" fill="#E7D5B3" />
<rect x="115" y="15" width="1" height="1" fill="#D7B594" />
<rect x="100" y="16" width="1" height="1" fill="#AD7757" />
<rect x="101" y="16" width="1" height="1" fill="#EBEDE9" />
<rect x="102" y="16" width="1" height="1" fill="#E7D5B3" />
<rect x="103" y="16" width="1" height="1" fill="#E7D5B3" />
<rect x="104" y="16" width="1" height="1" fill="#E7D5B3" />
<rect x="105" y="16" width="1" height="1" fill="#E7D5B3" />
<rect x="106" y="16" width="1" height="1" fill="#E7D5B3" />
<rect x="107" y="16" width="1" height="1" fill="#E7D5B3" />
<rect x="108" y="16" width="1" height="1" fill="#E7D5B3" />
<rect x="109" y="16" width="1" height="1" fill="#E7D5B3" />
<rect x="110" y="16" width="1" height="1" fill="#E7D5B3" />
<rect x="111" y="16" width="1" height="1" fill="#E7D5B3" />
<rect x="112" y="16" width="1" height="1" fill="#EBEDE9" />
<rect x="113" y="16" width="1" height="1" fill="#AD7757" />
<rect x="115" y="16" width="1" height="1" fill="#202E37" />
<rect x="116" y="16" width="1" height="1" fill="#202E37" />
<rect x="100" y="17" width="1" height="1" fill="#C09473" />
<rect x="101" y="17" width="1" height="1" fill="#EBEDE9" />
<rect x="102" y="17" width="1" height="1" fill="#E7D5B3" />
<rect x="103" y="17" width="1" height="1" fill="#EBEDE9" />
<rect x="104" y="17" width="1" height="1" fill="#EBEDE9" />
<rect x="105" y="17" width="1" height="1" fill="#EBEDE9" />
<rect x="106" y="17" width="1" height="1" fill="#E7D5B3" />
<rect x="107" y="17" width="1" height="1" fill="#E7D5B3" />
<rect x="108" y="17" width="1" height="1" fill="#EBEDE9" />
<rect x="109" y="17" width="1" height="1" fill="#EBEDE9" />
<rect x="110" y="17" width="1" height="1" fill="#EBEDE9" />
<rect x="111" y="17" width="1" height="1" fill="#E7D5B3" />
<rect x="112" y="17" width="1" height="1" fill="#EBEDE9" />
<rect x="113" y="17" width="1" height="1" fill="#C09473" />
<rect x="115" y="17" width="1" height="1" fill="#577277" />
<rect x="116" y="17" width="1" height="1" fill="#394A50" />
<rect x="101" y="18" width="1" height="1" fill="#EBEDE9" />
<rect x="102" y="18" width="1" height="1" fill="#E7D5B3" />
<rect x="103" y="18" width="1" height="1" fill="#E7D5B3" />
<rect x="104" y="18" width="1" height="1" fill="#602C2C" />
<rect x="105" y="18" width="1" height="1" fill="#602C2C" />
<rect x="106" y="18" width="1" height="1" fill="#E7D5B3" />
<rect x="107" y="18" width="1" height="1" fill="#E7D5B3" />
<rect x="108" y="18" width="1" height="1" fill="#E7D5B3" />
<rect x="109" y="18" width="1" height="1" fill="#602C2C" />
<rect x="110" y="18" width="1" height="1" fill="#602C2C" />
<rect x="111" y="18" width="1" height="1" fill="#E7D5B3" />
<rect x="112" y="18" width="1" height="1" fill="#EBEDE9" />
<rect x="115" y="18" width="1" height="1" fill="#A8B5B2" />
<rect x="116" y="18" width="1" height="1" fill="#819796" />
<rect x="101" y="19" width="1" height="1" fill="#EBEDE9" />
<rect x="102" y="19" width="1" height="1" fill="#EBEDE9" />
<rect x="103" y="19" width="1" height="1" fill="#E7D5B3" />
<rect x="104" y="19" width="1" height="1" fill="#E7D5B3" />
<rect x="105" y="19" width="1" height="1" fill="#E7D5B3" />
<rect x="106" y="19" width="1" height="1" fill="#E7D5B3" />
<rect x="107" y="19" width="1" height="1" fill="#E7D5B3" />
<rect x="108" y="19" width="1" height="1" fill="#E7D5B3" />
<rect x="109" y="19" width="1" height="1" fill="#E7D5B3" />
<rect x="110" y="19" width="1" height="1" fill="#E7D5B3" />
<rect x="111" y="19" width="1" height="1" fill="#EBEDE9" />
<rect x="112" y="19" width="1" height="1" fill="#EBEDE9" />
<rect x="115" y="19" width="1" height="1" fill="#577277" />
<rect x="116" y="19" width="1" height="1" fill="#394A50" />
<rect x="102" y="20" width="1" height="1" fill="#EBEDE9" />
<rect x="103" y="20" width="1" height="1" fill="#EBEDE9" />
<rect x="104" y="20" width="1" height="1" fill="#E7D5B3" />
<rect x="105" y="20" width="1" height="1" fill="#EBEDE9" />
<rect x="106" y="20" width="1" height="1" fill="#C09473" />
<rect x="107" y="20" width="1" height="1" fill="#C09473" />
<rect x="108" y="20" width="1" height="1" fill="#EBEDE9" />
<rect x="109" y="20" width="1" height="1" fill="#E7D5B3" />
<rect x="110" y="20" width="1" height="1" fill="#EBEDE9" />
<rect x="111" y="20" width="1" height="1" fill="#EBEDE9" />
<rect x="115" y="20" width="1" height="1" fill="#A8B5B2" />
<rect x="116" y="20" width="1" height="1" fill="#819796" />
<rect x="103" y="21" width="1" height="1" fill="#EBEDE9" />
<rect x="104" y="21" width="1" height="1" fill="#EBEDE9" />
<rect x="105" y="21" width="1" height="1" fill="#EBEDE9" />
<rect x="106" y="21" width="1" height="1" fill="#C09473" />
<rect x="107" y="21" width="1" height="1" fill="#C09473" />
<rect x="108" y="21" width="1" height="1" fill="#EBEDE9" />
<rect x="109" y="21" width="1" height="1" fill="#EBEDE9" />
<rect x="110" y="21" width="1" height="1" fill="#EBEDE9" />
<rect x="114" y="21" width="1" height="1" fill="#394A50" />
<rect x="115" y="21" width="1" height="1" fill="#577277" />
<rect x="116" y="21" width="1" height="1" fill="#394A50" />
<rect x="105" y="22" width="1" height="1" fill="#EBEDE9" />
<rect x="106" y="22" width="1" height="1" fill="#EBEDE9" />
<rect x="107" y="22" width="1" height="1" fill="#EBEDE9" />
<rect x="108" y="22" width="1" height="1" fill="#EBEDE9" />
<rect x="113" y="22" width="1" height="1" fill="#A8B5B2" />
<rect x="114" y="22" width="1" height="1" fill="#819796" />
<rect x="115" y="22" width="1" height="1" fill="#A8B5B2" />
<rect x="116" y="22" width="1" height="1" fill="#819796" />
<rect x="102" y="23" width="1" height="1" fill="#819796" />
<rect x="103" y="23" width="1" height="1" fill="#A8B5B2" />
<rect x="104" y="23" width="1" height="1" fill="#819796" />
<rect x="105" y="23" width="1" height="1" fill="#202E37" />
<rect x="106" y="23" width="1" height="1" fill="#D7B594" />
<rect x="107" y="23" width="1" height="1" fill="#D7B594" />
<rect x="108" y="23" width="1" height="1" fill="#202E37" />
<rect x="109" y="23" width="1" height="1" fill="#A8B5B2" />
<rect x="110" y="23" width="1" height="1" fill="#819796" />
<rect x="111" y="23" width="1" height="1" fill="#A8B5B2" />
<rect x="112" y="23" width="1" height="1" fill="#819796" />
<rect x="113" y="23" width="1" height="1" fill="#577277" />
<rect x="114" y="23" width="1" height="1" fill="#394A50" />
<rect x="115" y="23" width="1" height="1" fill="#577277" />
<rect x="101" y="24" width="1" height="1" fill="#577277" />
<rect x="102" y="24" width="1" height="1" fill="#394A50" />
<rect x="103" y="24" width="1" height="1" fill="#577277" />
<rect x="104" y="24" width="1" height="1" fill="#394A50" />
<rect x="105" y="24" width="1" height="1" fill="#577277" />
<rect x="106" y="24" width="1" height="1" fill="#202E37" />
<rect x="107" y="24" width="1" height="1" fill="#202E37" />
<rect x="108" y="24" width="1" height="1" fill="#394A50" />
<rect x="109" y="24" width="1" height="1" fill="#577277" />
<rect x="110" y="24" width="1" height="1" fill="#394A50" />
<rect x="111" y="24" width="1" height="1" fill="#577277" />
<rect x="112" y="24" width="1" height="1" fill="#394A50" />
<rect x="113" y="24" width="1" height="1" fill="#A8B5B2" />
<rect x="114" y="24" width="1" height="1" fill="#819796" />
<rect x="100" y="25" width="1" height="1" fill="#819796" />
<rect x="101" y="25" width="1" height="1" fill="#A8B5B2" />
<rect x="102" y="25" width="1" height="1" fill="#819796" />
<rect x="103" y="25" width="1" height="1" fill="#A8B5B2" />
<rect x="104" y="25" width="1" height="1" fill="#819796" />
<rect x="105" y="25" width="1" height="1" fill="#A8B5B2" />
<rect x="106" y="25" width="1" height="1" fill="#819796" />
<rect x="107" y="25" width="1" height="1" fill="#A8B5B2" />
<rect x="108" y="25" width="1" height="1" fill="#819796" />
<rect x="109" y="25" width="1" height="1" fill="#A8B5B2" />
<rect x="110" y="25" width="1" height="1" fill="#819796" />
<rect x="111" y="25" width="1" height="1" fill="#A8B5B2" />
<rect x="112" y="25" width="1" height="1" fill="#819796" />
<rect x="113" y="25" width="1" height="1" fill="#577277" />
<rect x="99" y="26" width="1" height="1" fill="#577277" />
<rect x="100" y="26" width="1" height="1" fill="#394A50" />
<rect x="101" y="26" width="1" height="1" fill="#577277" />
<rect x="102" y="26" width="1" height="1" fill="#394A50" />
<rect x="103" y="26" width="1" height="1" fill="#577277" />
<rect x="104" y="26" width="1" height="1" fill="#394A50" />
<rect x="105" y="26" width="1" height="1" fill="#577277" />
<rect x="106" y="26" width="1" height="1" fill="#394A50" />
<rect x="107" y="26" width="1" height="1" fill="#577277" />
<rect x="108" y="26" width="1" height="1" fill="#394A50" />
<rect x="109" y="26" width="1" height="1" fill="#577277" />
<rect x="110" y="26" width="1" height="1" fill="#394A50" />
<rect x="111" y="26" width="1" height="1" fill="#577277" />
<rect x="112" y="26" width="1" height="1" fill="#394A50" />
<rect x="98" y="27" width="1" height="1" fill="#819796" />
<rect x="99" y="27" width="1" height="1" fill="#A8B5B2" />
<rect x="100" y="27" width="1" height="1" fill="#819796" />
<rect x="101" y="27" width="1" height="1" fill="#A8B5B2" />
<rect x="103" y="27" width="1" height="1" fill="#A8B5B2" />
<rect x="104" y="27" width="1" height="1" fill="#819796" />
<rect x="105" y="27" width="1" height="1" fill="#A8B5B2" />
<rect x="106" y="27" width="1" height="1" fill="#819796" />
<rect x="107" y="27" width="1" height="1" fill="#A8B5B2" />
<rect x="108" y="27" width="1" height="1" fill="#819796" />
<rect x="109" y="27" width="1" height="1" fill="#A8B5B2" />
<rect x="110" y="27" width="1" height="1" fill="#819796" />
<rect x="111" y="27" width="1" height="1" fill="#A8B5B2" />
<rect x="98" y="28" width="1" height="1" fill="#E8C170" />
<rect x="99" y="28" width="1" height="1" fill="#E8C170" />
<rect x="100" y="28" width="1" height="1" fill="#E8C170" />
<rect x="103" y="28" width="1" height="1" fill="#577277" />
<rect x="104" y="28" width="1" height="1" fill="#394A50" />
<rect x="105" y="28" width="1" height="1" fill="#577277" />
<rect x="106" y="28" width="1" height="1" fill="#394A50" />
<rect x="107" y="28" width="1" height="1" fill="#577277" />
<rect x="108" y="28" width="1" height="1" fill="#394A50" />
<rect x="109" y="28" width="1" height="1" fill="#577277" />
<rect x="110" y="28" width="1" height="1" fill="#394A50" />
<rect x="111" y="28" width="1" height="1" fill="#577277" />
<rect x="98" y="29" width="1" height="1" fill="#FFFFFF" />
<rect x="99" y="29" width="1" height="1" fill="#FFFFFF" />
<rect x="100" y="29" width="1" height="1" fill="#FFFFFF" />
<rect x="101" y="29" width="1" height="1" fill="#E8C170" />
<rect x="102" y="29" width="1" height="1" fill="#E8C170" />
<rect x="103" y="29" width="1" height="1" fill="#A8B5B2" />
<rect x="104" y="29" width="1" height="1" fill="#819796" />
<rect x="105" y="29" width="1" height="1" fill="#A8B5B2" />
<rect x="106" y="29" width="1" height="1" fill="#819796" />
<rect x="107" y="29" width="1" height="1" fill="#A8B5B2" />
<rect x="108" y="29" width="1" height="1" fill="#819796" />
<rect x="109" y="29" width="1" height="1" fill="#A8B5B2" />
<rect x="110" y="29" width="1" height="1" fill="#819796" />
<rect x="111" y="29" width="1" height="1" fill="#A8B5B2" />
<rect x="98" y="30" width="1" height="1" fill="#DE9E41" />
<rect x="99" y="30" width="1" height="1" fill="#DE9E41" />
<rect x="100" y="30" width="1" height="1" fill="#DE9E41" />
<rect x="101" y="30" width="1" height="1" fill="#DE9E41" />
<rect x="102" y="30" width="1" height="1" fill="#DE9E41" />
<rect x="103" y="30" width="1" height="1" fill="#577277" />
<rect x="104" y="30" width="1" height="1" fill="#394A50" />
<rect x="105" y="30" width="1" height="1" fill="#577277" />
<rect x="106" y="30" width="1" height="1" fill="#394A50" />
<rect x="107" y="30" width="1" height="1" fill="#577277" />
<rect x="108" y="30" width="1" height="1" fill="#394A50" />
<rect x="109" y="30" width="1" height="1" fill="#577277" />
<rect x="110" y="30" width="1" height="1" fill="#394A50" />
<rect x="111" y="30" width="1" height="1" fill="#577277" />
<rect x="98" y="31" width="1" height="1" fill="#DE9E41" />
<rect x="99" y="31" width="1" height="1" fill="#DE9E41" />
<rect x="100" y="31" width="1" height="1" fill="#DE9E41" />
<rect x="101" y="31" width="1" height="1" fill="#DE9E41" />
<rect x="102" y="31" width="1" height="1" fill="#DE9E41" />
<rect x="103" y="31" width="1" height="1" fill="#A8B5B2" />
<rect x="104" y="31" width="1" height="1" fill="#819796" />
<rect x="105" y="31" width="1" height="1" fill="#A8B5B2" />
<rect x="106" y="31" width="1" height="1" fill="#819796" />
<rect x="107" y="31" width="1" height="1" fill="#A8B5B2" />
<rect x="108" y="31" width="1" height="1" fill="#819796" />
<rect x="109" y="31" width="1" height="1" fill="#A8B5B2" />
<rect x="110" y="31" width="1" height="1" fill="#819796" />
<rect x="111" y="31" width="1" height="1" fill="#A8B5B2" />
<rect x="98" y="32" width="1" height="1" fill="#DE9E41" />
<rect x="99" y="32" width="1" height="1" fill="#DE9E41" />
<rect x="100" y="32" width="1" height="1" fill="#DE9E41" />
<rect x="101" y="32" width="1" height="1" fill="#DE9E41" />
<rect x="102" y="32" width="1" height="1" fill="#DE9E41" />
<rect x="103" y="32" width="1" height="1" fill="#602C2C" />
<rect x="104" y="32" width="1" height="1" fill="#602C2C" />
<rect x="105" y="32" width="1" height="1" fill="#602C2C" />
<rect x="106" y="32" width="1" height="1" fill="#7A4841" />
<rect x="107" y="32" width="1" height="1" fill="#7A4841" />
<rect x="108" y="32" width="1" height="1" fill="#602C2C" />
<rect x="109" y="32" width="1" height="1" fill="#602C2C" />
<rect x="110" y="32" width="1" height="1" fill="#602C2C" />
<rect x="111" y="32" width="1" height="1" fill="#341C27" />
<rect x="98" y="33" width="1" height="1" fill="#DE9E41" />
<rect x="99" y="33" width="1" height="1" fill="#DE9E41" />
<rect x="100" y="33" width="1" height="1" fill="#D7B594" />
<rect x="101" y="33" width="1" height="1" fill="#D7B594" />
<rect x="102" y="33" width="1" height="1" fill="#DE9E41" />
<rect x="103" y="33" width="1" height="1" fill="#151D28" />
<rect x="104" y="33" width="1" height="1" fill="#151D28" />
<rect x="105" y="33" width="1" height="1" fill="#151D28" />
<rect x="106" y="33" width="1" height="1" fill="#151D28" />
<rect x="107" y="33" width="1" height="1" fill="#151D28" />
<rect x="108" y="33" width="1" height="1" fill="#151D28" />
<rect x="109" y="33" width="1" height="1" fill="#151D28" />
<rect x="110" y="33" width="1" height="1" fill="#151D28" />
<rect x="111" y="33" width="1" height="1" fill="#090A14" />
<rect x="98" y="34" width="1" height="1" fill="#202E37" />
<rect x="99" y="34" width="1" height="1" fill="#D7B594" />
<rect x="100" y="34" width="1" height="1" fill="#D7B594" />
<rect x="101" y="34" width="1" height="1" fill="#D7B594" />
<rect x="103" y="34" width="1" height="1" fill="#151D28" />
<rect x="104" y="34" width="1" height="1" fill="#151D28" />
<rect x="105" y="34" width="1" height="1" fill="#151D28" />
<rect x="106" y="34" width="1" height="1" fill="#151D28" />
<rect x="107" y="34" width="1" height="1" fill="#151D28" />
<rect x="108" y="34" width="1" height="1" fill="#151D28" />
<rect x="109" y="34" width="1" height="1" fill="#151D28" />
<rect x="110" y="34" width="1" height="1" fill="#151D28" />
<rect x="111" y="34" width="1" height="1" fill="#090A14" />
<rect x="103" y="35" width="1" height="1" fill="#151D28" />
<rect x="104" y="35" width="1" height="1" fill="#151D28" />
<rect x="105" y="35" width="1" height="1" fill="#151D28" />
<rect x="106" y="35" width="1" height="1" fill="#151D28" />
<rect x="107" y="35" width="1" height="1" fill="#151D28" />
<rect x="108" y="35" width="1" height="1" fill="#151D28" />
<rect x="109" y="35" width="1" height="1" fill="#151D28" />
<rect x="110" y="35" width="1" height="1" fill="#151D28" />
<rect x="111" y="35" width="1" height="1" fill="#090A14" />
<rect x="103" y="36" width="1" height="1" fill="#151D28" />
<rect x="104" y="36" width="1" height="1" fill="#151D28" />
<rect x="105" y="36" width="1" height="1" fill="#151D28" />
<rect x="106" y="36" width="1" height="1" fill="#151D28" />
<rect x="107" y="36" width="1" height="1" fill="#151D28" />
<rect x="108" y="36" width="1" height="1" fill="#151D28" />
<rect x="109" y="36" width="1" height="1" fill="#151D28" />
<rect x="110" y="36" width="1" height="1" fill="#151D28" />
<rect x="111" y="36" width="1" height="1" fill="#090A14" />
<rect x="103" y="37" width="1" height="1" fill="#151D28" />
<rect x="104" y="37" width="1" height="1" fill="#151D28" />
<rect x="105" y="37" width="1" height="1" fill="#151D28" />
<rect x="106" y="37" width="1" height="1" fill="#151D28" />
<rect x="107" y="37" width="1" height="1" fill="#151D28" />
<rect x="108" y="37" width="1" height="1" fill="#151D28" />
<rect x="109" y="37" width="1" height="1" fill="#151D28" />
<rect x="110" y="37" width="1" height="1" fill="#151D28" />
<rect x="111" y="37" width="1" height="1" fill="#090A14" />
<rect x="103" y="38" width="1" height="1" fill="#151D28" />
<rect x="104" y="38" width="1" height="1" fill="#151D28" />
<rect x="105" y="38" width="1" height="1" fill="#090A14" />
<rect x="109" y="38" width="1" height="1" fill="#151D28" />
<rect x="110" y="38" width="1" height="1" fill="#151D28" />
<rect x="111" y="38" width="1" height="1" fill="#090A14" />
<rect x="103" y="39" width="1" height="1" fill="#151D28" />
<rect x="104" y="39" width="1" height="1" fill="#151D28" />
<rect x="105" y="39" width="1" height="1" fill="#090A14" />
<rect x="109" y="39" width="1" height="1" fill="#151D28" />
<rect x="110" y="39" width="1" height="1" fill="#151D28" />
<rect x="111" y="39" width="1" height="1" fill="#090A14" />
<rect x="103" y="40" width="1" height="1" fill="#151D28" />
<rect x="104" y="40" width="1" height="1" fill="#151D28" />
<rect x="105" y="40" width="1" height="1" fill="#090A14" />
<rect x="109" y="40" width="1" height="1" fill="#151D28" />
<rect x="110" y="40" width="1" height="1" fill="#151D28" />
<rect x="111" y="40" width="1" height="1" fill="#090A14" />
<rect x="103" y="41" width="1" height="1" fill="#151D28" />
<rect x="104" y="41" width="1" height="1" fill="#151D28" />
<rect x="105" y="41" width="1" height="1" fill="#090A14" />
<rect x="109" y="41" width="1" height="1" fill="#151D28" />
<rect x="110" y="41" width="1" height="1" fill="#151D28" />
<rect x="111" y="41" width="1" height="1" fill="#090A14" />
<rect x="103" y="42" width="1" height="1" fill="#151D28" />
<rect x="104" y="42" width="1" height="1" fill="#151D28" />
<rect x="105" y="42" width="1" height="1" fill="#090A14" />
<rect x="109" y="42" width="1" height="1" fill="#151D28" />
<rect x="110" y="42" width="1" height="1" fill="#151D28" />
<rect x="111" y="42" width="1" height="1" fill="#090A14" />
<rect x="103" y="43" width="1" height="1" fill="#151D28" />
<rect x="104" y="43" width="1" height="1" fill="#151D28" />
<rect x="105" y="43" width="1" height="1" fill="#090A14" />
<rect x="109" y="43" width="1" height="1" fill="#151D28" />
<rect x="110" y="43" width="1" height="1" fill="#151D28" />
<rect x="111" y="43" width="1" height="1" fill="#090A14" />
<rect x="103" y="44" width="1" height="1" fill="#151D28" />
<rect x="104" y="44" width="1" height="1" fill="#151D28" />
<rect x="105" y="44" width="1" height="1" fill="#090A14" />
<rect x="109" y="44" width="1" height="1" fill="#151D28" />
<rect x="110" y="44" width="1" height="1" fill="#151D28" />
<rect x="111" y="44" width="1" height="1" fill="#090A14" />
<rect x="103" y="45" width="1" height="1" fill="#151D28" />
<rect x="104" y="45" width="1" height="1" fill="#151D28" />
<rect x="105" y="45" width="1" height="1" fill="#090A14" />
<rect x="109" y="45" width="1" height="1" fill="#151D28" />
<rect x="110" y="45" width="1" height="1" fill="#151D28" />
<rect x="111" y="45" width="1" height="1" fill="#090A14" />
<rect x="103" y="46" width="1" height="1" fill="#4D2B32" />
<rect x="104" y="46" width="1" height="1" fill="#602C2C" />
<rect x="105" y="46" width="1" height="1" fill="#341C27" />
<rect x="109" y="46" width="1" height="1" fill="#4D2B32" />
<rect x="110" y="46" width="1" height="1" fill="#602C2C" />
<rect x="111" y="46" width="1" height="1" fill="#341C27" />
<rect x="102" y="47" width="1" height="1" fill="#602C2C" />
<rect x="103" y="47" width="1" height="1" fill="#602C2C" />
<rect x="104" y="47" width="1" height="1" fill="#602C2C" />
<rect x="105" y="47" width="1" height="1" fill="#341C27" />
<rect x="108" y="47" width="1" height="1" fill="#602C2C" />
<rect x="109" y="47" width="1" height="1" fill="#602C2C" />
<rect x="110" y="47" width="1" height="1" fill="#602C2C" />
<rect x="111" y="47" width="1" height="1" fill="#341C27" />
<rect x="102" y="48" width="1" height="1" fill="#151D28" />
<rect x="103" y="48" width="1" height="1" fill="#151D28" />
<rect x="104" y="48" width="1" height="1" fill="#151D28" />
<rect x="105" y="48" width="1" height="1" fill="#090A14" />
<rect x="108" y="48" width="1" height="1" fill="#151D28" />
<rect x="109" y="48" width="1" height="1" fill="#151D28" />
<rect x="110" y="48" width="1" height="1" fill="#151D28" />
<rect x="111" y="48" width="1" height="1" fill="#090A14" />
</svg>