<?xml version="1.0" encoding="UTF-8" ?>
<svg version="1.1" width="160" height="64" xmlns="http://www.w3.org/2000/svg" shape-rendering="crispEdges">
<rect x="136" y="8" width="1" height="1" fill="#EBEDE9" />
<rect x="137" y="8" width="1" height="1" fill="#EBEDE9" />
<rect x="138" y="8" width="1" height="1" fill="#EBEDE9" />
<rect x="139" y="8" width="1" height="1" fill="#EBEDE9" />
<rect x="140" y="8" width="1" height="1" fill="#EBEDE9" />
<rect x="141" y="8" width="1" height="1" fill="#EBEDE9" />
<rect x="134" y="9" width="1" height="1" fill="#EBEDE9" />
<rect x="135" y="9" width="1" height="1" fill="#EBEDE9" />
<rect x="136" y="9" width="1" height="1" fill="#EBEDE9" />
<rect x="137" y="9" width="1" height="1" fill="#EBEDE9" />
<rect x="138" y="9" width="1" height="1" fill="#EBEDE9" />
<rect x="139" y="9" width="1" height="1" fill="#EBEDE9" />
<rect x="140" y="9" width="1" height="1" fill="#EBEDE9" />
<rect x="141" y="9" width="1" height="1" fill="#EBEDE9" />
<rect x="142" y="9" width="1" height="1" fill="#EBEDE9" />
<rect x="143" y="9" width="1" height="1" fill="#EBEDE9" />
<rect x="133" y="10" width="1" height="1" fill="#EBEDE9" />
<rect x="134" y="10" width="1" height="1" fill="#EBEDE9" />
<rect x="135" y="10" width="1" height="1" fill="#EBEDE9" />
<rect x="136" y="10" width="1" height="1" fill="#EBEDE9" />
<rect x="137" y="10" width="1" height="1" fill="#EBEDE9" />
<rect x="138" y="10" width="1" height="1" fill="#EBEDE9" />
<rect x="139" y="10" width="1" height="1" fill="#EBEDE9" />
<rect x="140" y="10" width="1" height="1" fill="#EBEDE9" />
<rect x="141" y="10" width="1" height="1" fill="#EBEDE9" />
<rect x="142" y="10" width="1" height="1" fill="#EBEDE9" />
<rect x="143" y="10" width="1" height="1" fill="#EBEDE9" />
<rect x="144" y="10" width="1" height="1" fill="#EBEDE9" />
<rect x="133" y="11" width="1" height="1" fill="#EBEDE9" />
<rect x="134" y="11" width="1" height="1" fill="#EBEDE9" />
<rect x="135" y="11" width="1" height="1" fill="#EBEDE9" />
<rect x="136" y="11" width="1" height="1" fill="#EBEDE9" />
<rect x="137" y="11" width="1" height="1" fill="#EBEDE9" />
<rect x="138" y="11" width="1" height="1" fill="#EBEDE9" />
<rect x="139" y="11" width="1" height="1" fill="#EBEDE9" />
<rect x="140" y="11" width="1" height="1" fill="#EBEDE9" />
<rect x="141" y="11" width="1" height="1" fill="#EBEDE9" />
<rect x="142" y="11" width="1" height="1" fill="#EBEDE9" />
<rect x="143" y="11" width="1" height="1" fill="#EBEDE9" />
<rect x="144" y="11" width="1" height="1" fill="#EBEDE9" />
<rect x="145" y="11" width="1" height="1" fill="#EBEDE9" />
<rect x="132" y="12" width="1" height="1" fill="#EBEDE9" />
<rect x="133" y="12" width="1" height="1" fill="#EBEDE9" />
<rect x="134" y="12" width="1" height="1" fill="#EBEDE9" />
<rect x="135" y="12" width="1" height="1" fill="#EBEDE9" />
<rect x="136" y="12" width="1" height="1" fill="#EBEDE9" />
<rect x="137" y="12" width="1" height="1" fill="#EBEDE9" />
<rect x="138" y="12" width="1" height="1" fill="#EBEDE9" />
<rect x="139" y="12" width="1" height="1" fill="#EBEDE9" />
<rect x="140" y="12" width="1" height="1" fill="#EBEDE9" />
<rect x="141" y="12" width="1" height="1" fill="#EBEDE9" />
<rect x="142" y="12" width="1" height="1" fill="#EBEDE9" />
<rect x="143" y="12" width="1" height="1" fill="#EBEDE9" />
<rect x="144" y="12" width="1" height="1" fill="#EBEDE9" />
<rect x="145" y="12" width="1" height="1" fill="#EBEDE9" />
<rect x="132" y="13" width="1" height="1" fill="#EBEDE9" />
<rect x="133" y="13" width="1" height="1" fill="#EBEDE9" />
<rect x="134" y="13" width="1" height="1" fill="#EBEDE9" />
<rect x="135" y="13" width="1" height="1" fill="#EBEDE9" />
<rect x="136" y="13" width="1" height="1" fill="#EBEDE9" />
<rect x="137" y="13" width="1" height="1" fill="#EBEDE9" />
<rect x="138" y="13" width="1" height="1" fill="#EBEDE9" />
<rect x="139" y="13" width="1" height="1" fill="#EBEDE9" />
<rect x="140" y="13" width="1" height="1" fill="#EBEDE9" />
<rect x="141" y="13" width="1" height="1" fill="#EBEDE9" />
<rect x="142" y="13" width="1" height="1" fill="#EBEDE9" />
<rect x="143" y="13" width="1" height="1" fill="#EBEDE9" />
<rect x="144" y="13" width="1" height="1" fill="#EBEDE9" />
<rect x="145" y="13" width="1" height="1" fill="#EBEDE9" />
<rect x="132" y="14" width="1" height="1" fill="#EBEDE9" />
<rect x="133" y="14" width="1" height="1" fill="#EBEDE9" />
<rect x="134" y="14" width="1" height="1" fill="#EBEDE9" />
<rect x="135" y="14" width="1" height="1" fill="#E7D5B3" />
<rect x="136" y="14" width="1" height="1" fill="#E7D5B3" />
<rect x="137" y="14" width="1" height="1" fill="#D7B594" />
<rect x="138" y="14" width="1" height="1" fill="#EBEDE9" />
<rect x="139" y="14" width="1" height="1" fill="#EBEDE9" />
<rect x="140" y="14" width="1" height="1" fill="#D7B594" />
<rect x="141" y="14" width="1" height="1" fill="#D7B594" />
<rect x="142" y="14" width="1" height="1" fill="#D7B594" />
<rect x="143" y="14" width="1" height="1" fill="#EBEDE9" />
<rect x="144" y="14" width="1" height="1" fill="#EBEDE9" />
<rect x="145" y="14" width="1" height="1" fill="#EBEDE9" />
<rect x="132" y="15" width="1" height="1" fill="#EBEDE9" />
<rect x="133" y="15" width="1" height="1" fill="#EBEDE9" />
<rect x="134" y="15" width="1" height="1" fill="#E7D5B3" />
<rect x="135" y="15" width="1" height="1" fill="#E7D5B3" />
<rect x="136" y="15" width="1" height="1" fill="#E7D5B3" />
<rect x="137" y="15" width="1" height="1" fill="#E7D5B3" />
<rect x="138" y="15" width="1" height="1" fill="#D7B594" />
<rect x="139" y="15" width="1" height="1" fill="#EBEDE9" />
<rect x="140" y="15" width="1" height="1" fill="#E7D5B3" />
<rect x="141" y="15" width="1" height="1" fill="#E7D5B3" />
<rect x="142" y="15" width="1" height="1" fill="#E7D5B3" />
<rect x="143" y="15" width="1" height="1" fill="#D7B594" />
<rect x="144" y="15" width="1" height="1" fill="#EBEDE9" />
<rect x="145" y="15" width="1" height="1" fill="#EBEDE9" />
<rect x="132" y="16" width="1" height="1" fill="#AD7757" />
<rect x="133" y="16" width="1" height="1" fill="#EBEDE9" />
<rect x="134" y="16" width="1" height="1" fill="#E7D5B3" />
<rect x="135" y="16" width="1" height="1" fill="#E7D5B3" />
<rect x="136" y="16" width="1" height="1" fill="#E7D5B3" />
<rect x="137" y="16" width="1" height="1" fill="#E7D5B3" />
<rect x="138" y="16" width="1" height="1" fill="#E7D5B3" />
<rect x="139" y="16" width="1" height="1" fill="#E7D5B3" />
<rect x="140" y="16" width="1" height="1" fill="#E7D5B3" />
<rect x="141" y="16" width="1" height="1" fill="#E7D5B3" />
<rect x="142" y="16" width="1" height="1" fill="#E7D5B3" />
<rect x="143" y="16" width="1" height="1" fill="#E7D5B3" />
<rect x="144" y="16" width="1" height="1" fill="#EBEDE9" />
<rect x="145" y="16" width="1" height="1" fill="#AD7757" />
<rect x="132" y="17" width="1" height="1" fill="#C09473" />
<rect x="133" y="17" width="1" height="1" fill="#EBEDE9" />
<rect x="134" y="17" width="1" height="1" fill="#E7D5B3" />
<rect x="135" y="17" width="1" height="1" fill="#EBEDE9" />
<rect x="136" y="17" width="1" height="1" fill="#EBEDE9" />
<rect x="137" y="17" width="1" height="1" fill="#EBEDE9" />
<rect x="138" y="17" width="1" height="1" fill="#E7D5B3" />
<rect x="139" y="17" width="1" height="1" fill="#E7D5B3" />
<rect x="140" y="17" width="1" height="1" fill="#EBEDE9" />
<rect x="141" y="17" width="1" height="1" fill="#EBEDE9" />
<rect x="142" y="17" width="1" height="1" fill="#EBEDE9" />
<rect x="143" y="17" width="1" height="1" fill="#E7D5B3" />
<rect x="144" y="17" width="1" height="1" fill="#EBEDE9" />
<rect x="145" y="17" width="1" height="1" fill="#C09473" />
<rect x="133" y="18" width="1" height="1" fill="#EBEDE9" />
<rect x="134" y="18" width="1" height="1" fill="#E7D5B3" />
<rect x="135" y="18" width="1" height="1" fill="#E7D5B3" />
<rect x="136" y="18" width="1" height="1" fill="#602C2C" />
<rect x="137" y="18" width="1" height="1" fill="#E7D5B3" />
<rect x="138" y="18" width="1" height="1" fill="#E7D5B3" />
<rect x="139" y="18" width="1" height="1" fill="#E7D5B3" />
<rect x="140" y="18" width="1" height="1" fill="#E7D5B3" />
<rect x="141" y="18" width="1" height="1" fill="#602C2C" />
<rect x="142" y="18" width="1" height="1" fill="#E7D5B3" />
<rect x="143" y="18" width="1" height="1" fill="#E7D5B3" />
<rect x="144" y="18" width="1" height="1" fill="#EBEDE9" />
<rect x="133" y="19" width="1" height="1" fill="#EBEDE9" />
<rect x="134" y="19" width="1" height="1" fill="#EBEDE9" />
<rect x="135" y="19" width="1" height="1" fill="#E7D5B3" />
<rect x="136" y="19" width="1" height="1" fill="#E7D5B3" />
<rect x="137" y="19" width="1" height="1" fill="#E7D5B3" />
<rect x="138" y="19" width="1" height="1" fill="#E7D5B3" />
<rect x="139" y="19" width="1" height="1" fill="#E7D5B3" />
<rect x="140" y="19" width="1" height="1" fill="#E7D5B3" />
<rect x="141" y="19" width="1" height="1" fill="#E7D5B3" />
<rect x="142" y="19" width="1" height="1" fill="#E7D5B3" />
<rect x="143" y="19" width="1" height="1" fill="#EBEDE9" />
<rect x="144" y="19" width="1" height="1" fill="#EBEDE9" />
<rect x="134" y="20" width="1" height="1" fill="#EBEDE9" />
<rect x="135" y="20" width="1" height="1" fill="#EBEDE9" />
<rect x="136" y="20" width="1" height="1" fill="#E7D5B3" />
<rect x="137" y="20" width="1" height="1" fill="#EBEDE9" />
<rect x="138" y="20" width="1" height="1" fill="#EBEDE9" />
<rect x="139" y="20" width="1" height="1" fill="#EBEDE9" />
<rect x="140" y="20" width="1" height="1" fill="#EBEDE9" />
<rect x="141" y="20" width="1" height="1" fill="#E7D5B3" />
<rect x="142" y="20" width="1" height="1" fill="#EBEDE9" />
<rect x="143" y="20" width="1" height="1" fill="#EBEDE9" />
<rect x="135" y="21" width="1" height="1" fill="#EBEDE9" />
<rect x="136" y="21" width="1" height="1" fill="#EBEDE9" />
<rect x="137" y="21" width="1" height="1" fill="#EBEDE9" />
<rect x="138" y="21" width="1" height="1" fill="#C09473" />
<rect x="139" y="21" width="1" height="1" fill="#C09473" />
<rect x="140" y="21" width="1" height="1" fill="#EBEDE9" />
<rect x="141" y="21" width="1" height="1" fill="#EBEDE9" />
<rect x="142" y="21" width="1" height="1" fill="#EBEDE9" />
<rect x="137" y="22" width="1" height="1" fill="#EBEDE9" />
<rect x="138" y="22" width="1" height="1" fill="#EBEDE9" />
<rect x="139" y="22" width="1" height="1" fill="#EBEDE9" />
<rect x="140" y="22" width="1" height="1" fill="#EBEDE9" />
<rect x="134" y="23" width="1" height="1" fill="#819796" />
<rect x="135" y="23" width="1" height="1" fill="#A8B5B2" />
<rect x="136" y="23" width="1" height="1" fill="#819796" />
<rect x="137" y="23" width="1" height="1" fill="#202E37" />
<rect x="138" y="23" width="1" height="1" fill="#D7B594" />
<rect x="139" y="23" width="1" height="1" fill="#D7B594" />
<rect x="140" y="23" width="1" height="1" fill="#202E37" />
<rect x="141" y="23" width="1" height="1" fill="#A8B5B2" />
<rect x="142" y="23" width="1" height="1" fill="#819796" />
<rect x="143" y="23" width="1" height="1" fill="#A8B5B2" />
<rect x="144" y="23" width="1" height="1" fill="#819796" />
<rect x="133" y="24" width="1" height="1" fill="#577277" />
<rect x="134" y="24" width="1" height="1" fill="#394A50" />
<rect x="135" y="24" width="1" height="1" fill="#577277" />
<rect x="136" y="24" width="1" height="1" fill="#394A50" />
<rect x="137" y="24" width="1" height="1" fill="#577277" />
<rect x="138" y="24" width="1" height="1" fill="#202E37" />
<rect x="139" y="24" width="1" height="1" fill="#202E37" />
<rect x="140" y="24" width="1" height="1" fill="#394A50" />
<rect x="141" y="24" width="1" height="1" fill="#577277" />
<rect x="142" y="24" width="1" height="1" fill="#394A50" />
<rect x="143" y="24" width="1" height="1" fill="#577277" />
<rect x="144" y="24" width="1" height="1" fill="#394A50" />
<rect x="145" y="24" width="1" height="1" fill="#577277" />
<rect x="132" y="25" width="1" height="1" fill="#C7CFCC" />
<rect x="133" y="25" width="1" height="1" fill="#A8B5B2" />
<rect x="134" y="25" width="1" height="1" fill="#819796" />
<rect x="135" y="25" width="1" height="1" fill="#A8B5B2" />
<rect x="136" y="25" width="1" height="1" fill="#819796" />
<rect x="137" y="25" width="1" height="1" fill="#A8B5B2" />
<rect x="138" y="25" width="1" height="1" fill="#819796" />
<rect x="139" y="25" width="1" height="1" fill="#A8B5B2" />
<rect x="140" y="25" width="1" height="1" fill="#819796" />
<rect x="141" y="25" width="1" height="1" fill="#A8B5B2" />
<rect x="142" y="25" width="1" height="1" fill="#819796" />
<rect x="143" y="25" width="1" height="1" fill="#A8B5B2" />
<rect x="144" y="25" width="1" height="1" fill="#819796" />
<rect x="145" y="25" width="1" height="1" fill="#A8B5B2" />
<rect x="146" y="25" width="1" height="1" fill="#577277" />
<rect x="131" y="26" width="1" height="1" fill="#577277" />
<rect x="132" y="26" width="1" height="1" fill="#819796" />
<rect x="133" y="26" width="1" height="1" fill="#577277" />
<rect x="134" y="26" width="1" height="1" fill="#394A50" />
<rect x="135" y="26" width="1" height="1" fill="#577277" />
<rect x="136" y="26" width="1" height="1" fill="#394A50" />
<rect x="137" y="26" width="1" height="1" fill="#577277" />
<rect x="138" y="26" width="1" height="1" fill="#394A50" />
<rect x="139" y="26" width="1" height="1" fill="#577277" />
<rect x="140" y="26" width="1" height="1" fill="#394A50" />
<rect x="141" y="26" width="1" height="1" fill="#577277" />
<rect x="142" y="26" width="1" height="1" fill="#394A50" />
<rect x="143" y="26" width="1" height="1" fill="#577277" />
<rect x="144" y="26" width="1" height="1" fill="#394A50" />
<rect x="145" y="26" width="1" height="1" fill="#819796" />
<rect x="146" y="26" width="1" height="1" fill="#A8B5B2" />
<rect x="130" y="27" width="1" height="1" fill="#E8C170" />
<rect x="131" y="27" width="1" height="1" fill="#E8C170" />
<rect x="132" y="27" width="1" height="1" fill="#E8C170" />
<rect x="133" y="27" width="1" height="1" fill="#A8B5B2" />
<rect x="135" y="27" width="1" height="1" fill="#A8B5B2" />
<rect x="136" y="27" width="1" height="1" fill="#819796" />
<rect x="137" y="27" width="1" height="1" fill="#A8B5B2" />
<rect x="138" y="27" width="1" height="1" fill="#819796" />
<rect x="139" y="27" width="1" height="1" fill="#A8B5B2" />
<rect x="140" y="27" width="1" height="1" fill="#819796" />
<rect x="141" y="27" width="1" height="1" fill="#A8B5B2" />
<rect x="142" y="27" width="1" height="1" fill="#819796" />
<rect x="143" y="27" width="1" height="1" fill="#A8B5B2" />
<rect x="145" y="27" width="1" height="1" fill="#394A50" />
<rect x="146" y="27" width="1" height="1" fill="#577277" />
<rect x="130" y="28" width="1" height="1" fill="#FFFFFF" />
<rect x="131" y="28" width="1" height="1" fill="#FFFFFF" />
<rect x="132" y="28" width="1" height="1" fill="#FFFFFF" />
<rect x="133" y="28" width="1" height="1" fill="#E8C170" />
<rect x="134" y="28" width="1" height="1" fill="#E8C170" />
<rect x="135" y="28" width="1" height="1" fill="#577277" />
<rect x="136" y="28" width="1" height="1" fill="#394A50" />
<rect x="137" y="28" width="1" height="1" fill="#577277" />
<rect x="138" y="28" width="1" height="1" fill="#394A50" />
<rect x="139" y="28" width="1" height="1" fill="#577277" />
<rect x="140" y="28" width="1" height="1" fill="#394A50" />
<rect x="141" y="28" width="1" height="1" fill="#577277" />
<rect x="142" y="28" width="1" height="1" fill="#394A50" />
<rect x="143" y="28" width="1" height="1" fill="#577277" />
<rect x="145" y="28" width="1" height="1" fill="#819796" />
<rect x="146" y="28" width="1" height="1" fill="#A8B5B2" />
<rect x="130" y="29" width="1" height="1" fill="#DE9E41" />
<rect x="131" y="29" width="1" height="1" fill="#DE9E41" />
<rect x="132" y="29" width="1" height="1" fill="#DE9E41" />
<rect x="133" y="29" width="1" height="1" fill="#DE9E41" />
<rect x="134" y="29" width="1" height="1" fill="#DE9E41" />
<rect x="135" y="29" width="1" height="1" fill="#A8B5B2" />
<rect x="136" y="29" width="1" height="1" fill="#819796" />
<rect x="137" y="29" width="1" height="1" fill="#A8B5B2" />
<rect x="138" y="29" width="1" height="1" fill="#819796" />
<rect x="139" y="29" width="1" height="1" fill="#A8B5B2" />
<rect x="140" y="29" width="1" height="1" fill="#819796" />
<rect x="141" y="29" width="1" height="1" fill="#A8B5B2" />
<rect x="142" y="29" width="1" height="1" fill="#819796" />
<rect x="143" y="29" width="1" height="1" fill="#A8B5B2" />
<rect x="145" y="29" width="1" height="1" fill="#394A50" />
<rect x="146" y="29" width="1" height="1" fill="#577277" />
<rect x="130" y="30" width="1" height="1" fill="#DE9E41" />
<rect x="131" y="30" width="1" height="1" fill="#DE9E41" />
<rect x="132" y="30" width="1" height="1" fill="#DE9E41" />
<rect x="133" y="30" width="1" height="1" fill="#DE9E41" />
<rect x="134" y="30" width="1" height="1" fill="#DE9E41" />
<rect x="135" y="30" width="1" height="1" fill="#577277" />
<rect x="136" y="30" width="1" height="1" fill="#394A50" />
<rect x="137" y="30" width="1" height="1" fill="#577277" />
<rect x="138" y="30" width="1" height="1" fill="#394A50" />
<rect x="139" y="30" width="1" height="1" fill="#577277" />
<rect x="140" y="30" width="1" height="1" fill="#394A50" />
<rect x="141" y="30" width="1" height="1" fill="#577277" />
<rect x="142" y="30" width="1" height="1" fill="#394A50" />
<rect x="143" y="30" width="1" height="1" fill="#577277" />
<rect x="145" y="30" width="1" height="1" fill="#819796" />
<rect x="146" y="30" width="1" height="1" fill="#A8B5B2" />
<rect x="130" y="31" width="1" height="1" fill="#DE9E41" />
<rect x="131" y="31" width="1" height="1" fill="#DE9E41" />
<rect x="132" y="31" width="1" height="1" fill="#DE9E41" />
<rect x="133" y="31" width="1" height="1" fill="#DE9E41" />
<rect x="134" y="31" width="1" height="1" fill="#DE9E41" />
<rect x="135" y="31" width="1" height="1" fill="#A8B5B2" />
<rect x="136" y="31" width="1" height="1" fill="#819796" />
<rect x="137" y="31" width="1" height="1" fill="#A8B5B2" />
<rect x="138" y="31" width="1" height="1" fill="#819796" />
<rect x="139" y="31" width="1" height="1" fill="#A8B5B2" />
<rect x="140" y="31" width="1" height="1" fill="#819796" />
<rect x="141" y="31" width="1" height="1" fill="#A8B5B2" />
<rect x="142" y="31" width="1" height="1" fill="#819796" />
<rect x="143" y="31" width="1" height="1" fill="#A8B5B2" />
<rect x="145" y="31" width="1" height="1" fill="#394A50" />
<rect x="146" y="31" width="1" height="1" fill="#577277" />
<rect x="130" y="32" width="1" height="1" fill="#DE9E41" />
<rect x="131" y="32" width="1" height="1" fill="#DE9E41" />
<rect x="132" y="32" width="1" height="1" fill="#DE9E41" />
<rect x="133" y="32" width="1" height="1" fill="#D7B594" />
<rect x="134" y="32" width="1" height="1" fill="#D7B594" />
<rect x="135" y="32" width="1" height="1" fill="#602C2C" />
<rect x="136" y="32" width="1" height="1" fill="#602C2C" />
<rect x="137" y="32" width="1" height="1" fill="#602C2C" />
<rect x="138" y="32" width="1" height="1" fill="#7A4841" />
<rect x="139" y="32" width="1" height="1" fill="#7A4841" />
<rect x="140" y="32" width="1" height="1" fill="#602C2C" />
<rect x="141" y="32" width="1" height="1" fill="#602C2C" />
<rect x="142" y="32" width="1" height="1" fill="#602C2C" />
<rect x="143" y="32" width="1" height="1" fill="#341C27" />
<rect x="145" y="32" width="1" height="1" fill="#202E37" />
<rect x="146" y="32" width="1" height="1" fill="#202E37" />
<rect x="131" y="33" width="1" height="1" fill="#202E37" />
<rect x="132" y="33" width="1" height="1" fill="#D7B594" />
<rect x="133" y="33" width="1" height="1" fill="#D7B594" />
<rect x="134" y="33" width="1" height="1" fill="#D7B594" />
<rect x="135" y="33" width="1" height="1" fill="#151D28" />
<rect x="136" y="33" width="1" height="1" fill="#151D28" />
<rect x="137" y="33" width="1" height="1" fill="#151D28" />
<rect x="138" y="33" width="1" height="1" fill="#151D28" />
<rect x="139" y="33" width="1" height="1" fill="#151D28" />
<rect x="140" y="33" width="1" height="1" fill="#151D28" />
<rect x="141" y="33" width="1" height="1" fill="#151D28" />
<rect x="142" y="33" width="1" height="1" fill="#151D28" />
<rect x="143" y="33" width="1" height="1" fill="#090A14" />
<rect x="145" y="33" width="1" height="1" fill="#E7D5B3" />
<rect x="146" y="33" width="1" height="1" fill="#D7B594" />
<rect x="135" y="34" width="1" height="1" fill="#151D28" />
<rect x="136" y="34" width="1" height="1" fill="#151D28" />
<rect x="137" y="34" width="1" height="1" fill="#151D28" />
<rect x="138" y="34" width="1" height="1" fill="#151D28" />
<rect x="139" y="34" width="1" height="1" fill="#151D28" />
<rect x="140" y="34" width="1" height="1" fill="#151D28" />
<rect x="141" y="34" width="1" height="1" fill="#151D28" />
<rect x="142" y="34" width="1" height="1" fill="#151D28" />
<rect x="143" y="34" width="1" height="1" fill="#090A14" />
<rect x="145" y="34" width="1" height="1" fill="#D7B594" />
<rect x="146" y="34" width="1" height="1" fill="#D7B594" />
<rect x="135" y="35" width="1" height="1" fill="#151D28" />
<rect x="136" y="35" width="1" height="1" fill="#151D28" />
<rect x="137" y="35" width="1" height="1" fill="#151D28" />
<rect x="138" y="35" width="1" height="1" fill="#151D28" />
<rect x="139" y="35" width="1" height="1" fill="#151D28" />
<rect x="140" y="35" width="1" height="1" fill="#151D28" />
<rect x="141" y="35" width="1" height="1" fill="#151D28" />
<rect x="142" y="35" width="1" height="1" fill="#151D28" />
<rect x="143" y="35" width="1" height="1" fill="#090A14" />
<rect x="135" y="36" width="1" height="1" fill="#151D28" />
<rect x="136" y="36" width="1" height="1" fill="#151D28" />
<rect x="137" y="36" width="1" height="1" fill="#151D28" />
<rect x="138" y="36" width="1" height="1" fill="#151D28" />
<rect x="139" y="36" width="1" height="1" fill="#151D28" />
<rect x="140" y="36" width="1" height="1" fill="#151D28" />
<rect x="141" y="36" width="1" height="1" fill="#151D28" />
<rect x="142" y="36" width="1" height="1" fill="#151D28" />
<rect x="143" y="36" width="1" height="1" fill="#090A14" />
<rect x="135" y="37" width="1" height="1" fill="#151D28" />
<rect x="136" y="37" width="1" height="1" fill="#151D28" />
<rect x="137" y="37" width="1" height="1" fill="#151D28" />
<rect x="138" y="37" width="1" height="1" fill="#151D28" />
<rect x="139" y="37" width="1" height="1" fill="#151D28" />
<rect x="140" y="37" width="1" height="1" fill="#151D28" />
<rect x="141" y="37" width="1" height="1" fill="#151D28" />
<rect x="142" y="37" width="1" height="1" fill="#151D28" />
<rect x="143" y="37" width="1" height="1" fill="#090A14" />
<rect x="135" y="38" width="1" height="1" fill="#151D28" />
<rect x="136" y="38" width="1" height="1" fill="#151D28" />
<rect x="137" y="38" width="1" height="1" fill="#090A14" />
<rect x="141" y="38" width="1" height="1" fill="#151D28" />
<rect x="142" y="38" width="1" height="1" fill="#151D28" />
<rect x="143" y="38" width="1" height="1" fill="#090A14" />
<rect x="135" y="39" width="1" height="1" fill="#151D28" />
<rect x="136" y="39" width="1" height="1" fill="#151D28" />
<rect x="137" y="39" width="1" height="1" fill="#090A14" />
<rect x="141" y="39" width="1" height="1" fill="#151D28" />
<rect x="142" y="39" width="1" height="1" fill="#151D28" />
<rect x="143" y="39" width="1" height="1" fill="#090A14" />
<rect x="135" y="40" width="1" height="1" fill="#151D28" />
<rect x="136" y="40" width="1" height="1" fill="#151D28" />
<rect x="137" y="40" width="1" height="1" fill="#090A14" />
<rect x="141" y="40" width="1" height="1" fill="#151D28" />
<rect x="142" y="40" width="1" height="1" fill="#151D28" />
<rect x="143" y="40" width="1" height="1" fill="#090A14" />
<rect x="135" y="41" width="1" height="1" fill="#151D28" />
<rect x="136" y="41" width="1" height="1" fill="#151D28" />
<rect x="137" y="41" width="1" height="1" fill="#090A14" />
<rect x="141" y="41" width="1" height="1" fill="#151D28" />
<rect x="142" y="41" width="1" height="1" fill="#151D28" />
<rect x="143" y="41" width="1" height="1" fill="#090A14" />
<rect x="135" y="42" width="1" height="1" fill="#151D28" />
<rect x="136" y="42" width="1" height="1" fill="#151D28" />
<rect x="137" y="42" width="1" height="1" fill="#090A14" />
<rect x="141" y="42" width="1" height="1" fill="#151D28" />
<rect x="142" y="42" width="1" height="1" fill="#151D28" />
<rect x="143" y="42" width="1" height="1" fill="#090A14" />
<rect x="135" y="43" width="1" height="1" fill="#151D28" />
<rect x="136" y="43" width="1" height="1" fill="#151D28" />
<rect x="137" y="43" width="1" height="1" fill="#090A14" />
<rect x="141" y="43" width="1" height="1" fill="#151D28" />
<rect x="142" y="43" width="1" height="1" fill="#151D28" />
<rect x="143" y="43" width="1" height="1" fill="#090A14" />
<rect x="135" y="44" width="1" height="1" fill="#151D28" />
<rect x="136" y="44" width="1" height="1" fill="#151D28" />
<rect x="137" y="44" width="1" height="1" fill="#090A14" />
<rect x="141" y="44" width="1" height="1" fill="#151D28" />
<rect x="142" y="44" width="1" height="1" fill="#151D28" />
<rect x="143" y="44" width="1" height="1" fill="#090A14" />
<rect x="135" y="45" width="1" height="1" fill="#151D28" />
<rect x="136" y="45" width="1" height="1" fill="#151D28" />
<rect x="137" y="45" width="1" height="1" fill="#090A14" />
<rect x="141" y="45" width="1" height="1" fill="#151D28" />
<rect x="142" y="45" width="1" height="1" fill="#151D28" />
<rect x="143" y="45" width="1" height="1" fill="#090A14" />
<rect x="135" y="46" width="1" height="1" fill="#4D2B32" />
<rect x="136" y="46" width="1" height="1" fill="#602C2C" />
<rect x="137" y="46" width="1" height="1" fill="#341C27" />
<rect x="141" y="46" width="1" height="1" fill="#4D2B32" />
<rect x="142" y="46" width="1" height="1" fill="#602C2C" />
<rect x="143" y="46" width="1" height="1" fill="#341C27" />
<rect x="134" y="47" width="1" height="1" fill="#602C2C" />
<rect x="135" y="47" width="1" height="1" fill="#602C2C" />
<rect x="136" y="47" width="1" height="1" fill="#602C2C" />
<rect x="137" y="47" width="1" height="1" fill="#341C27" />
<rect x="140" y="47" width="1" height="1" fill="#602C2C" />
<rect x="141" y="47" width="1" height="1" fill="#602C2C" />
<rect x="142" y="47" width="1" height="1" fill="#602C2C" />
<rect x="143" y="47" width="1" height="1" fill="#341C27" />
<rect x="134" y="48" width="1" height="1" fill="#151D28" />
<rect x="135" y="48" width="1" height="1" fill="#151D28" />
<rect x="136" y="48" width="1" height="1" fill="#151D28" />
<rect x="137" y="48" width="1" height="1" fill="#090A14" />
<rect x="140" y="48" width="1" height="1" fill="#151D28" />
<rect x="141" y="48" width="1" height="1" fill="#151D28" />
<rect x="142" y="48" width="1" height="1" fill="#151D28" />
<rect x="143" y="48" width="1" height="1" fill="#090A14" />
</svg>