<?xml version="1.0" encoding="UTF-8" ?>
<svg version="1.1" width="144" height="80" xmlns="http://www.w3.org/2000/svg" shape-rendering="crispEdges">
<rect x="21" y="24" width="1" height="1" fill="#EBEDE9" />
<rect x="22" y="24" width="1" height="1" fill="#EBEDE9" />
<rect x="23" y="24" width="1" height="1" fill="#EBEDE9" />
<rect x="24" y="24" width="1" height="1" fill="#EBEDE9" />
<rect x="25" y="24" width="1" height="1" fill="#EBEDE9" />
<rect x="26" y="24" width="1" height="1" fill="#EBEDE9" />
<rect x="19" y="25" width="1" height="1" fill="#EBEDE9" />
<rect x="20" y="25" width="1" height="1" fill="#EBEDE9" />
<rect x="21" y="25" width="1" height="1" fill="#EBEDE9" />
<rect x="22" y="25" width="1" height="1" fill="#EBEDE9" />
<rect x="23" y="25" width="1" height="1" fill="#EBEDE9" />
<rect x="24" y="25" width="1" height="1" fill="#EBEDE9" />
<rect x="25" y="25" width="1" height="1" fill="#EBEDE9" />
<rect x="26" y="25" width="1" height="1" fill="#EBEDE9" />
<rect x="27" y="25" width="1" height="1" fill="#EBEDE9" />
<rect x="28" y="25" width="1" height="1" fill="#EBEDE9" />
<rect x="18" y="26" width="1" height="1" fill="#EBEDE9" />
<rect x="19" y="26" width="1" height="1" fill="#EBEDE9" />
<rect x="20" y="26" width="1" height="1" fill="#EBEDE9" />
<rect x="21" y="26" width="1" height="1" fill="#EBEDE9" />
<rect x="22" y="26" width="1" height="1" fill="#EBEDE9" />
<rect x="23" y="26" width="1" height="1" fill="#EBEDE9" />
<rect x="24" y="26" width="1" height="1" fill="#EBEDE9" />
<rect x="25" y="26" width="1" height="1" fill="#EBEDE9" />
<rect x="26" y="26" width="1" height="1" fill="#EBEDE9" />
<rect x="27" y="26" width="1" height="1" fill="#EBEDE9" />
<rect x="28" y="26" width="1" height="1" fill="#EBEDE9" />
<rect x="29" y="26" width="1" height="1" fill="#EBEDE9" />
<rect x="18" y="27" width="1" height="1" fill="#EBEDE9" />
<rect x="19" y="27" width="1" height="1" fill="#EBEDE9" />
<rect x="20" y="27" width="1" height="1" fill="#EBEDE9" />
<rect x="21" y="27" width="1" height="1" fill="#EBEDE9" />
<rect x="22" y="27" width="1" height="1" fill="#EBEDE9" />
<rect x="23" y="27" width="1" height="1" fill="#EBEDE9" />
<rect x="24" y="27" width="1" height="1" fill="#EBEDE9" />
<rect x="25" y="27" width="1" height="1" fill="#EBEDE9" />
<rect x="26" y="27" width="1" height="1" fill="#EBEDE9" />
<rect x="27" y="27" width="1" height="1" fill="#EBEDE9" />
<rect x="28" y="27" width="1" height="1" fill="#EBEDE9" />
<rect x="29" y="27" width="1" height="1" fill="#EBEDE9" />
<rect x="30" y="27" width="1" height="1" fill="#EBEDE9" />
<rect x="17" y="28" width="1" height="1" fill="#EBEDE9" />
<rect x="18" y="28" width="1" height="1" fill="#EBEDE9" />
<rect x="19" y="28" width="1" height="1" fill="#EBEDE9" />
<rect x="20" y="28" width="1" height="1" fill="#EBEDE9" />
<rect x="21" y="28" width="1" height="1" fill="#EBEDE9" />
<rect x="22" y="28" width="1" height="1" fill="#EBEDE9" />
<rect x="23" y="28" width="1" height="1" fill="#EBEDE9" />
<rect x="24" y="28" width="1" height="1" fill="#EBEDE9" />
<rect x="25" y="28" width="1" height="1" fill="#EBEDE9" />
<rect x="26" y="28" width="1" height="1" fill="#EBEDE9" />
<rect x="27" y="28" width="1" height="1" fill="#EBEDE9" />
<rect x="28" y="28" width="1" height="1" fill="#EBEDE9" />
<rect x="29" y="28" width="1" height="1" fill="#EBEDE9" />
<rect x="30" y="28" width="1" height="1" fill="#EBEDE9" />
<rect x="17" y="29" width="1" height="1" fill="#EBEDE9" />
<rect x="18" y="29" width="1" height="1" fill="#EBEDE9" />
<rect x="19" y="29" width="1" height="1" fill="#EBEDE9" />
<rect x="20" y="29" width="1" height="1" fill="#EBEDE9" />
<rect x="21" y="29" width="1" height="1" fill="#EBEDE9" />
<rect x="22" y="29" width="1" height="1" fill="#EBEDE9" />
<rect x="23" y="29" width="1" height="1" fill="#EBEDE9" />
<rect x="24" y="29" width="1" height="1" fill="#EBEDE9" />
<rect x="25" y="29" width="1" height="1" fill="#EBEDE9" />
<rect x="26" y="29" width="1" height="1" fill="#EBEDE9" />
<rect x="27" y="29" width="1" height="1" fill="#EBEDE9" />
<rect x="28" y="29" width="1" height="1" fill="#EBEDE9" />
<rect x="29" y="29" width="1" height="1" fill="#EBEDE9" />
<rect x="30" y="29" width="1" height="1" fill="#EBEDE9" />
<rect x="17" y="30" width="1" height="1" fill="#EBEDE9" />
<rect x="18" y="30" width="1" height="1" fill="#EBEDE9" />
<rect x="19" y="30" width="1" height="1" fill="#EBEDE9" />
<rect x="20" y="30" width="1" height="1" fill="#E7D5B3" />
<rect x="21" y="30" width="1" height="1" fill="#E7D5B3" />
<rect x="22" y="30" width="1" height="1" fill="#D7B594" />
<rect x="23" y="30" width="1" height="1" fill="#EBEDE9" />
<rect x="24" y="30" width="1" height="1" fill="#EBEDE9" />
<rect x="25" y="30" width="1" height="1" fill="#D7B594" />
<rect x="26" y="30" width="1" height="1" fill="#D7B594" />
<rect x="27" y="30" width="1" height="1" fill="#D7B594" />
<rect x="28" y="30" width="1" height="1" fill="#EBEDE9" />
<rect x="29" y="30" width="1" height="1" fill="#EBEDE9" />
<rect x="30" y="30" width="1" height="1" fill="#EBEDE9" />
<rect x="17" y="31" width="1" height="1" fill="#EBEDE9" />
<rect x="18" y="31" width="1" height="1" fill="#EBEDE9" />
<rect x="19" y="31" width="1" height="1" fill="#E7D5B3" />
<rect x="20" y="31" width="1" height="1" fill="#E7D5B3" />
<rect x="21" y="31" width="1" height="1" fill="#E7D5B3" />
<rect x="22" y="31" width="1" height="1" fill="#E7D5B3" />
<rect x="23" y="31" width="1" height="1" fill="#D7B594" />
<rect x="24" y="31" width="1" height="1" fill="#EBEDE9" />
<rect x="25" y="31" width="1" height="1" fill="#E7D5B3" />
<rect x="26" y="31" width="1" height="1" fill="#E7D5B3" />
<rect x="27" y="31" width="1" height="1" fill="#E7D5B3" />
<rect x="28" y="31" width="1" height="1" fill="#D7B594" />
<rect x="29" y="31" width="1" height="1" fill="#EBEDE9" />
<rect x="30" y="31" width="1" height="1" fill="#EBEDE9" />
<rect x="17" y="32" width="1" height="1" fill="#AD7757" />
<rect x="18" y="32" width="1" height="1" fill="#EBEDE9" />
<rect x="19" y="32" width="1" height="1" fill="#E7D5B3" />
<rect x="20" y="32" width="1" height="1" fill="#E7D5B3" />
<rect x="21" y="32" width="1" height="1" fill="#E7D5B3" />
<rect x="22" y="32" width="1" height="1" fill="#E7D5B3" />
<rect x="23" y="32" width="1" height="1" fill="#E7D5B3" />
<rect x="24" y="32" width="1" height="1" fill="#E7D5B3" />
<rect x="25" y="32" width="1" height="1" fill="#E7D5B3" />
<rect x="26" y="32" width="1" height="1" fill="#E7D5B3" />
<rect x="27" y="32" width="1" height="1" fill="#E7D5B3" />
<rect x="28" y="32" width="1" height="1" fill="#E7D5B3" />
<rect x="29" y="32" width="1" height="1" fill="#EBEDE9" />
<rect x="30" y="32" width="1" height="1" fill="#AD7757" />
<rect x="17" y="33" width="1" height="1" fill="#C09473" />
<rect x="18" y="33" width="1" height="1" fill="#EBEDE9" />
<rect x="19" y="33" width="1" height="1" fill="#E7D5B3" />
<rect x="20" y="33" width="1" height="1" fill="#EBEDE9" />
<rect x="21" y="33" width="1" height="1" fill="#EBEDE9" />
<rect x="22" y="33" width="1" height="1" fill="#EBEDE9" />
<rect x="23" y="33" width="1" height="1" fill="#E7D5B3" />
<rect x="24" y="33" width="1" height="1" fill="#E7D5B3" />
<rect x="25" y="33" width="1" height="1" fill="#EBEDE9" />
<rect x="26" y="33" width="1" height="1" fill="#EBEDE9" />
<rect x="27" y="33" width="1" height="1" fill="#EBEDE9" />
<rect x="28" y="33" width="1" height="1" fill="#E7D5B3" />
<rect x="29" y="33" width="1" height="1" fill="#EBEDE9" />
<rect x="30" y="33" width="1" height="1" fill="#C09473" />
<rect x="18" y="34" width="1" height="1" fill="#EBEDE9" />
<rect x="19" y="34" width="1" height="1" fill="#E7D5B3" />
<rect x="20" y="34" width="1" height="1" fill="#E7D5B3" />
<rect x="21" y="34" width="1" height="1" fill="#602C2C" />
<rect x="22" y="34" width="1" height="1" fill="#E7D5B3" />
<rect x="23" y="34" width="1" height="1" fill="#E7D5B3" />
<rect x="24" y="34" width="1" height="1" fill="#E7D5B3" />
<rect x="25" y="34" width="1" height="1" fill="#E7D5B3" />
<rect x="26" y="34" width="1" height="1" fill="#602C2C" />
<rect x="27" y="34" width="1" height="1" fill="#E7D5B3" />
<rect x="28" y="34" width="1" height="1" fill="#E7D5B3" />
<rect x="29" y="34" width="1" height="1" fill="#EBEDE9" />
<rect x="18" y="35" width="1" height="1" fill="#EBEDE9" />
<rect x="19" y="35" width="1" height="1" fill="#EBEDE9" />
<rect x="20" y="35" width="1" height="1" fill="#E7D5B3" />
<rect x="21" y="35" width="1" height="1" fill="#E7D5B3" />
<rect x="22" y="35" width="1" height="1" fill="#E7D5B3" />
<rect x="23" y="35" width="1" height="1" fill="#E7D5B3" />
<rect x="24" y="35" width="1" height="1" fill="#E7D5B3" />
<rect x="25" y="35" width="1" height="1" fill="#E7D5B3" />
<rect x="26" y="35" width="1" height="1" fill="#E7D5B3" />
<rect x="27" y="35" width="1" height="1" fill="#E7D5B3" />
<rect x="28" y="35" width="1" height="1" fill="#EBEDE9" />
<rect x="29" y="35" width="1" height="1" fill="#EBEDE9" />
<rect x="19" y="36" width="1" height="1" fill="#EBEDE9" />
<rect x="20" y="36" width="1" height="1" fill="#EBEDE9" />
<rect x="21" y="36" width="1" height="1" fill="#E7D5B3" />
<rect x="22" y="36" width="1" height="1" fill="#EBEDE9" />
<rect x="23" y="36" width="1" height="1" fill="#EBEDE9" />
<rect x="24" y="36" width="1" height="1" fill="#EBEDE9" />
<rect x="25" y="36" width="1" height="1" fill="#EBEDE9" />
<rect x="26" y="36" width="1" height="1" fill="#E7D5B3" />
<rect x="27" y="36" width="1" height="1" fill="#EBEDE9" />
<rect x="28" y="36" width="1" height="1" fill="#EBEDE9" />
<rect x="20" y="37" width="1" height="1" fill="#EBEDE9" />
<rect x="21" y="37" width="1" height="1" fill="#EBEDE9" />
<rect x="22" y="37" width="1" height="1" fill="#EBEDE9" />
<rect x="23" y="37" width="1" height="1" fill="#C09473" />
<rect x="24" y="37" width="1" height="1" fill="#C09473" />
<rect x="25" y="37" width="1" height="1" fill="#EBEDE9" />
<rect x="26" y="37" width="1" height="1" fill="#EBEDE9" />
<rect x="27" y="37" width="1" height="1" fill="#EBEDE9" />
<rect x="22" y="38" width="1" height="1" fill="#EBEDE9" />
<rect x="23" y="38" width="1" height="1" fill="#EBEDE9" />
<rect x="24" y="38" width="1" height="1" fill="#EBEDE9" />
<rect x="25" y="38" width="1" height="1" fill="#EBEDE9" />
<rect x="19" y="39" width="1" height="1" fill="#819796" />
<rect x="20" y="39" width="1" height="1" fill="#A8B5B2" />
<rect x="21" y="39" width="1" height="1" fill="#819796" />
<rect x="22" y="39" width="1" height="1" fill="#202E37" />
<rect x="23" y="39" width="1" height="1" fill="#D7B594" />
<rect x="24" y="39" width="1" height="1" fill="#D7B594" />
<rect x="25" y="39" width="1" height="1" fill="#202E37" />
<rect x="26" y="39" width="1" height="1" fill="#A8B5B2" />
<rect x="27" y="39" width="1" height="1" fill="#819796" />
<rect x="28" y="39" width="1" height="1" fill="#A8B5B2" />
<rect x="29" y="39" width="1" height="1" fill="#819796" />
<rect x="18" y="40" width="1" height="1" fill="#577277" />
<rect x="19" y="40" width="1" height="1" fill="#394A50" />
<rect x="20" y="40" width="1" height="1" fill="#577277" />
<rect x="21" y="40" width="1" height="1" fill="#394A50" />
<rect x="22" y="40" width="1" height="1" fill="#577277" />
<rect x="23" y="40" width="1" height="1" fill="#202E37" />
<rect x="24" y="40" width="1" height="1" fill="#202E37" />
<rect x="25" y="40" width="1" height="1" fill="#394A50" />
<rect x="26" y="40" width="1" height="1" fill="#577277" />
<rect x="27" y="40" width="1" height="1" fill="#394A50" />
<rect x="28" y="40" width="1" height="1" fill="#577277" />
<rect x="29" y="40" width="1" height="1" fill="#394A50" />
<rect x="30" y="40" width="1" height="1" fill="#577277" />
<rect x="17" y="41" width="1" height="1" fill="#C7CFCC" />
<rect x="18" y="41" width="1" height="1" fill="#A8B5B2" />
<rect x="19" y="41" width="1" height="1" fill="#819796" />
<rect x="20" y="41" width="1" height="1" fill="#A8B5B2" />
<rect x="21" y="41" width="1" height="1" fill="#819796" />
<rect x="22" y="41" width="1" height="1" fill="#A8B5B2" />
<rect x="23" y="41" width="1" height="1" fill="#819796" />
<rect x="24" y="41" width="1" height="1" fill="#A8B5B2" />
<rect x="25" y="41" width="1" height="1" fill="#819796" />
<rect x="26" y="41" width="1" height="1" fill="#A8B5B2" />
<rect x="27" y="41" width="1" height="1" fill="#819796" />
<rect x="28" y="41" width="1" height="1" fill="#A8B5B2" />
<rect x="29" y="41" width="1" height="1" fill="#819796" />
<rect x="30" y="41" width="1" height="1" fill="#A8B5B2" />
<rect x="31" y="41" width="1" height="1" fill="#577277" />
<rect x="16" y="42" width="1" height="1" fill="#577277" />
<rect x="17" y="42" width="1" height="1" fill="#819796" />
<rect x="18" y="42" width="1" height="1" fill="#577277" />
<rect x="19" y="42" width="1" height="1" fill="#394A50" />
<rect x="20" y="42" width="1" height="1" fill="#577277" />
<rect x="21" y="42" width="1" height="1" fill="#394A50" />
<rect x="22" y="42" width="1" height="1" fill="#577277" />
<rect x="23" y="42" width="1" height="1" fill="#394A50" />
<rect x="24" y="42" width="1" height="1" fill="#577277" />
<rect x="25" y="42" width="1" height="1" fill="#394A50" />
<rect x="26" y="42" width="1" height="1" fill="#577277" />
<rect x="27" y="42" width="1" height="1" fill="#394A50" />
<rect x="28" y="42" width="1" height="1" fill="#577277" />
<rect x="29" y="42" width="1" height="1" fill="#394A50" />
<rect x="30" y="42" width="1" height="1" fill="#819796" />
<rect x="31" y="42" width="1" height="1" fill="#A8B5B2" />
<rect x="15" y="43" width="1" height="1" fill="#E8C170" />
<rect x="16" y="43" width="1" height="1" fill="#E8C170" />
<rect x="17" y="43" width="1" height="1" fill="#E8C170" />
<rect x="18" y="43" width="1" height="1" fill="#A8B5B2" />
<rect x="20" y="43" width="1" height="1" fill="#A8B5B2" />
<rect x="21" y="43" width="1" height="1" fill="#819796" />
<rect x="22" y="43" width="1" height="1" fill="#A8B5B2" />
<rect x="23" y="43" width="1" height="1" fill="#819796" />
<rect x="24" y="43" width="1" height="1" fill="#A8B5B2" />
<rect x="25" y="43" width="1" height="1" fill="#819796" />
<rect x="26" y="43" width="1" height="1" fill="#A8B5B2" />
<rect x="27" y="43" width="1" height="1" fill="#819796" />
<rect x="28" y="43" width="1" height="1" fill="#A8B5B2" />
<rect x="30" y="43" width="1" height="1" fill="#394A50" />
<rect x="31" y="43" width="1" height="1" fill="#577277" />
<rect x="15" y="44" width="1" height="1" fill="#FFFFFF" />
<rect x="16" y="44" width="1" height="1" fill="#FFFFFF" />
<rect x="17" y="44" width="1" height="1" fill="#FFFFFF" />
<rect x="18" y="44" width="1" height="1" fill="#E8C170" />
<rect x="19" y="44" width="1" height="1" fill="#E8C170" />
<rect x="20" y="44" width="1" height="1" fill="#577277" />
<rect x="21" y="44" width="1" height="1" fill="#394A50" />
<rect x="22" y="44" width="1" height="1" fill="#577277" />
<rect x="23" y="44" width="1" height="1" fill="#394A50" />
<rect x="24" y="44" width="1" height="1" fill="#577277" />
<rect x="25" y="44" width="1" height="1" fill="#394A50" />
<rect x="26" y="44" width="1" height="1" fill="#577277" />
<rect x="27" y="44" width="1" height="1" fill="#394A50" />
<rect x="28" y="44" width="1" height="1" fill="#577277" />
<rect x="30" y="44" width="1" height="1" fill="#819796" />
<rect x="31" y="44" width="1" height="1" fill="#A8B5B2" />
<rect x="15" y="45" width="1" height="1" fill="#DE9E41" />
<rect x="16" y="45" width="1" height="1" fill="#DE9E41" />
<rect x="17" y="45" width="1" height="1" fill="#DE9E41" />
<rect x="18" y="45" width="1" height="1" fill="#DE9E41" />
<rect x="19" y="45" width="1" height="1" fill="#DE9E41" />
<rect x="20" y="45" width="1" height="1" fill="#A8B5B2" />
<rect x="21" y="45" width="1" height="1" fill="#819796" />
<rect x="22" y="45" width="1" height="1" fill="#A8B5B2" />
<rect x="23" y="45" width="1" height="1" fill="#819796" />
<rect x="24" y="45" width="1" height="1" fill="#A8B5B2" />
<rect x="25" y="45" width="1" height="1" fill="#819796" />
<rect x="26" y="45" width="1" height="1" fill="#A8B5B2" />
<rect x="27" y="45" width="1" height="1" fill="#819796" />
<rect x="28" y="45" width="1" height="1" fill="#A8B5B2" />
<rect x="30" y="45" width="1" height="1" fill="#394A50" />
<rect x="31" y="45" width="1" height="1" fill="#577277" />
<rect x="15" y="46" width="1" height="1" fill="#DE9E41" />
<rect x="16" y="46" width="1" height="1" fill="#DE9E41" />
<rect x="17" y="46" width="1" height="1" fill="#DE9E41" />
<rect x="18" y="46" width="1" height="1" fill="#DE9E41" />
<rect x="19" y="46" width="1" height="1" fill="#DE9E41" />
<rect x="20" y="46" width="1" height="1" fill="#577277" />
<rect x="21" y="46" width="1" height="1" fill="#394A50" />
<rect x="22" y="46" width="1" height="1" fill="#577277" />
<rect x="23" y="46" width="1" height="1" fill="#394A50" />
<rect x="24" y="46" width="1" height="1" fill="#577277" />
<rect x="25" y="46" width="1" height="1" fill="#394A50" />
<rect x="26" y="46" width="1" height="1" fill="#577277" />
<rect x="27" y="46" width="1" height="1" fill="#394A50" />
<rect x="28" y="46" width="1" height="1" fill="#577277" />
<rect x="30" y="46" width="1" height="1" fill="#819796" />
<rect x="31" y="46" width="1" height="1" fill="#A8B5B2" />
<rect x="15" y="47" width="1" height="1" fill="#DE9E41" />
<rect x="16" y="47" width="1" height="1" fill="#DE9E41" />
<rect x="17" y="47" width="1" height="1" fill="#DE9E41" />
<rect x="18" y="47" width="1" height="1" fill="#DE9E41" />
<rect x="19" y="47" width="1" height="1" fill="#DE9E41" />
<rect x="20" y="47" width="1" height="1" fill="#A8B5B2" />
<rect x="21" y="47" width="1" height="1" fill="#819796" />
<rect x="22" y="47" width="1" height="1" fill="#A8B5B2" />
<rect x="23" y="47" width="1" height="1" fill="#819796" />
<rect x="24" y="47" width="1" height="1" fill="#A8B5B2" />
<rect x="25" y="47" width="1" height="1" fill="#819796" />
<rect x="26" y="47" width="1" height="1" fill="#A8B5B2" />
<rect x="27" y="47" width="1" height="1" fill="#819796" />
<rect x="28" y="47" width="1" height="1" fill="#A8B5B2" />
<rect x="30" y="47" width="1" height="1" fill="#394A50" />
<rect x="31" y="47" width="1" height="1" fill="#577277" />
<rect x="15" y="48" width="1" height="1" fill="#DE9E41" />
<rect x="16" y="48" width="1" height="1" fill="#DE9E41" />
<rect x="17" y="48" width="1" height="1" fill="#DE9E41" />
<rect x="18" y="48" width="1" height="1" fill="#D7B594" />
<rect x="19" y="48" width="1" height="1" fill="#D7B594" />
<rect x="20" y="48" width="1" height="1" fill="#602C2C" />
<rect x="21" y="48" width="1" height="1" fill="#602C2C" />
<rect x="22" y="48" width="1" height="1" fill="#602C2C" />
<rect x="23" y="48" width="1" height="1" fill="#7A4841" />
<rect x="24" y="48" width="1" height="1" fill="#7A4841" />
<rect x="25" y="48" width="1" height="1" fill="#602C2C" />
<rect x="26" y="48" width="1" height="1" fill="#602C2C" />
<rect x="27" y="48" width="1" height="1" fill="#602C2C" />
<rect x="28" y="48" width="1" height="1" fill="#341C27" />
<rect x="30" y="48" width="1" height="1" fill="#202E37" />
<rect x="31" y="48" width="1" height="1" fill="#202E37" />
<rect x="16" y="49" width="1" height="1" fill="#202E37" />
<rect x="17" y="49" width="1" height="1" fill="#D7B594" />
<rect x="18" y="49" width="1" height="1" fill="#D7B594" />
<rect x="19" y="49" width="1" height="1" fill="#D7B594" />
<rect x="20" y="49" width="1" height="1" fill="#151D28" />
<rect x="21" y="49" width="1" height="1" fill="#151D28" />
<rect x="22" y="49" width="1" height="1" fill="#151D28" />
<rect x="23" y="49" width="1" height="1" fill="#151D28" />
<rect x="24" y="49" width="1" height="1" fill="#151D28" />
<rect x="25" y="49" width="1" height="1" fill="#151D28" />
<rect x="26" y="49" width="1" height="1" fill="#151D28" />
<rect x="27" y="49" width="1" height="1" fill="#151D28" />
<rect x="28" y="49" width="1" height="1" fill="#090A14" />
<rect x="30" y="49" width="1" height="1" fill="#E7D5B3" />
<rect x="31" y="49" width="1" height="1" fill="#D7B594" />
<rect x="20" y="50" width="1" height="1" fill="#151D28" />
<rect x="21" y="50" width="1" height="1" fill="#151D28" />
<rect x="22" y="50" width="1" height="1" fill="#151D28" />
<rect x="23" y="50" width="1" height="1" fill="#151D28" />
<rect x="24" y="50" width="1" height="1" fill="#151D28" />
<rect x="25" y="50" width="1" height="1" fill="#151D28" />
<rect x="26" y="50" width="1" height="1" fill="#151D28" />
<rect x="27" y="50" width="1" height="1" fill="#151D28" />
<rect x="28" y="50" width="1" height="1" fill="#090A14" />
<rect x="30" y="50" width="1" height="1" fill="#D7B594" />
<rect x="31" y="50" width="1" height="1" fill="#D7B594" />
<rect x="20" y="51" width="1" height="1" fill="#151D28" />
<rect x="21" y="51" width="1" height="1" fill="#151D28" />
<rect x="22" y="51" width="1" height="1" fill="#151D28" />
<rect x="23" y="51" width="1" height="1" fill="#151D28" />
<rect x="24" y="51" width="1" height="1" fill="#151D28" />
<rect x="25" y="51" width="1" height="1" fill="#151D28" />
<rect x="26" y="51" width="1" height="1" fill="#151D28" />
<rect x="27" y="51" width="1" height="1" fill="#151D28" />
<rect x="28" y="51" width="1" height="1" fill="#090A14" />
<rect x="20" y="52" width="1" height="1" fill="#151D28" />
<rect x="21" y="52" width="1" height="1" fill="#151D28" />
<rect x="22" y="52" width="1" height="1" fill="#151D28" />
<rect x="23" y="52" width="1" height="1" fill="#151D28" />
<rect x="24" y="52" width="1" height="1" fill="#151D28" />
<rect x="25" y="52" width="1" height="1" fill="#151D28" />
<rect x="26" y="52" width="1" height="1" fill="#151D28" />
<rect x="27" y="52" width="1" height="1" fill="#151D28" />
<rect x="28" y="52" width="1" height="1" fill="#090A14" />
<rect x="20" y="53" width="1" height="1" fill="#151D28" />
<rect x="21" y="53" width="1" height="1" fill="#151D28" />
<rect x="22" y="53" width="1" height="1" fill="#151D28" />
<rect x="23" y="53" width="1" height="1" fill="#151D28" />
<rect x="24" y="53" width="1" height="1" fill="#151D28" />
<rect x="25" y="53" width="1" height="1" fill="#151D28" />
<rect x="26" y="53" width="1" height="1" fill="#151D28" />
<rect x="27" y="53" width="1" height="1" fill="#151D28" />
<rect x="28" y="53" width="1" height="1" fill="#090A14" />
<rect x="20" y="54" width="1" height="1" fill="#151D28" />
<rect x="21" y="54" width="1" height="1" fill="#151D28" />
<rect x="22" y="54" width="1" height="1" fill="#090A14" />
<rect x="26" y="54" width="1" height="1" fill="#151D28" />
<rect x="27" y="54" width="1" height="1" fill="#151D28" />
<rect x="28" y="54" width="1" height="1" fill="#090A14" />
<rect x="20" y="55" width="1" height="1" fill="#151D28" />
<rect x="21" y="55" width="1" height="1" fill="#151D28" />
<rect x="22" y="55" width="1" height="1" fill="#090A14" />
<rect x="26" y="55" width="1" height="1" fill="#151D28" />
<rect x="27" y="55" width="1" height="1" fill="#151D28" />
<rect x="28" y="55" width="1" height="1" fill="#090A14" />
<rect x="20" y="56" width="1" height="1" fill="#151D28" />
<rect x="21" y="56" width="1" height="1" fill="#151D28" />
<rect x="22" y="56" width="1" height="1" fill="#090A14" />
<rect x="26" y="56" width="1" height="1" fill="#151D28" />
<rect x="27" y="56" width="1" height="1" fill="#151D28" />
<rect x="28" y="56" width="1" height="1" fill="#090A14" />
<rect x="20" y="57" width="1" height="1" fill="#090A14" />
<rect x="21" y="57" width="1" height="1" fill="#151D28" />
<rect x="22" y="57" width="1" height="1" fill="#090A14" />
<rect x="26" y="57" width="1" height="1" fill="#090A14" />
<rect x="27" y="57" width="1" height="1" fill="#151D28" />
<rect x="28" y="57" width="1" height="1" fill="#090A14" />
<rect x="20" y="58" width="1" height="1" fill="#151D28" />
<rect x="21" y="58" width="1" height="1" fill="#151D28" />
<rect x="22" y="58" width="1" height="1" fill="#090A14" />
<rect x="26" y="58" width="1" height="1" fill="#151D28" />
<rect x="27" y="58" width="1" height="1" fill="#151D28" />
<rect x="28" y="58" width="1" height="1" fill="#090A14" />
<rect x="20" y="59" width="1" height="1" fill="#151D28" />
<rect x="21" y="59" width="1" height="1" fill="#151D28" />
<rect x="22" y="59" width="1" height="1" fill="#090A14" />
<rect x="26" y="59" width="1" height="1" fill="#151D28" />
<rect x="27" y="59" width="1" height="1" fill="#151D28" />
<rect x="28" y="59" width="1" height="1" fill="#090A14" />
<rect x="20" y="60" width="1" height="1" fill="#151D28" />
<rect x="21" y="60" width="1" height="1" fill="#151D28" />
<rect x="22" y="60" width="1" height="1" fill="#090A14" />
<rect x="26" y="60" width="1" height="1" fill="#151D28" />
<rect x="27" y="60" width="1" height="1" fill="#151D28" />
<rect x="28" y="60" width="1" height="1" fill="#090A14" />
<rect x="20" y="61" width="1" height="1" fill="#4D2B32" />
<rect x="21" y="61" width="1" height="1" fill="#602C2C" />
<rect x="22" y="61" width="1" height="1" fill="#341C27" />
<rect x="26" y="61" width="1" height="1" fill="#4D2B32" />
<rect x="27" y="61" width="1" height="1" fill="#602C2C" />
<rect x="28" y="61" width="1" height="1" fill="#341C27" />
<rect x="19" y="62" width="1" height="1" fill="#602C2C" />
<rect x="20" y="62" width="1" height="1" fill="#602C2C" />
<rect x="21" y="62" width="1" height="1" fill="#602C2C" />
<rect x="22" y="62" width="1" height="1" fill="#341C27" />
<rect x="25" y="62" width="1" height="1" fill="#602C2C" />
<rect x="26" y="62" width="1" height="1" fill="#602C2C" />
<rect x="27" y="62" width="1" height="1" fill="#602C2C" />
<rect x="28" y="62" width="1" height="1" fill="#341C27" />
<rect x="19" y="63" width="1" height="1" fill="#151D28" />
<rect x="20" y="63" width="1" height="1" fill="#151D28" />
<rect x="21" y="63" width="1" height="1" fill="#151D28" />
<rect x="22" y="63" width="1" height="1" fill="#090A14" />
<rect x="25" y="63" width="1" height="1" fill="#151D28" />
<rect x="26" y="63" width="1" height="1" fill="#151D28" />
<rect x="27" y="63" width="1" height="1" fill="#151D28" />
<rect x="28" y="63" width="1" height="1" fill="#090A14" />
</svg>