<?xml version="1.0" encoding="UTF-8" ?>
<svg version="1.1" width="144" height="80" xmlns="http://www.w3.org/2000/svg" shape-rendering="crispEdges">
<rect x="79" y="24" width="1" height="1" fill="#EBEDE9" />
<rect x="80" y="24" width="1" height="1" fill="#EBEDE9" />
<rect x="81" y="24" width="1" height="1" fill="#EBEDE9" />
<rect x="82" y="24" width="1" height="1" fill="#EBEDE9" />
<rect x="83" y="24" width="1" height="1" fill="#EBEDE9" />
<rect x="84" y="24" width="1" height="1" fill="#EBEDE9" />
<rect x="77" y="25" width="1" height="1" fill="#EBEDE9" />
<rect x="78" y="25" width="1" height="1" fill="#EBEDE9" />
<rect x="79" y="25" width="1" height="1" fill="#EBEDE9" />
<rect x="80" y="25" width="1" height="1" fill="#EBEDE9" />
<rect x="81" y="25" width="1" height="1" fill="#EBEDE9" />
<rect x="82" y="25" width="1" height="1" fill="#EBEDE9" />
<rect x="83" y="25" width="1" height="1" fill="#EBEDE9" />
<rect x="84" y="25" width="1" height="1" fill="#EBEDE9" />
<rect x="85" y="25" width="1" height="1" fill="#EBEDE9" />
<rect x="86" y="25" width="1" height="1" fill="#EBEDE9" />
<rect x="76" y="26" width="1" height="1" fill="#EBEDE9" />
<rect x="77" y="26" width="1" height="1" fill="#EBEDE9" />
<rect x="78" y="26" width="1" height="1" fill="#EBEDE9" />
<rect x="79" y="26" width="1" height="1" fill="#EBEDE9" />
<rect x="80" y="26" width="1" height="1" fill="#EBEDE9" />
<rect x="81" y="26" width="1" height="1" fill="#EBEDE9" />
<rect x="82" y="26" width="1" height="1" fill="#EBEDE9" />
<rect x="83" y="26" width="1" height="1" fill="#EBEDE9" />
<rect x="84" y="26" width="1" height="1" fill="#EBEDE9" />
<rect x="85" y="26" width="1" height="1" fill="#EBEDE9" />
<rect x="86" y="26" width="1" height="1" fill="#EBEDE9" />
<rect x="87" y="26" width="1" height="1" fill="#EBEDE9" />
<rect x="76" y="27" width="1" height="1" fill="#EBEDE9" />
<rect x="77" y="27" width="1" height="1" fill="#EBEDE9" />
<rect x="78" y="27" width="1" height="1" fill="#EBEDE9" />
<rect x="79" y="27" width="1" height="1" fill="#EBEDE9" />
<rect x="80" y="27" width="1" height="1" fill="#EBEDE9" />
<rect x="81" y="27" width="1" height="1" fill="#EBEDE9" />
<rect x="82" y="27" width="1" height="1" fill="#EBEDE9" />
<rect x="83" y="27" width="1" height="1" fill="#EBEDE9" />
<rect x="84" y="27" width="1" height="1" fill="#EBEDE9" />
<rect x="85" y="27" width="1" height="1" fill="#EBEDE9" />
<rect x="86" y="27" width="1" height="1" fill="#EBEDE9" />
<rect x="87" y="27" width="1" height="1" fill="#EBEDE9" />
<rect x="88" y="27" width="1" height="1" fill="#EBEDE9" />
<rect x="75" y="28" width="1" height="1" fill="#EBEDE9" />
<rect x="76" y="28" width="1" height="1" fill="#EBEDE9" />
<rect x="77" y="28" width="1" height="1" fill="#EBEDE9" />
<rect x="78" y="28" width="1" height="1" fill="#EBEDE9" />
<rect x="79" y="28" width="1" height="1" fill="#EBEDE9" />
<rect x="80" y="28" width="1" height="1" fill="#EBEDE9" />
<rect x="81" y="28" width="1" height="1" fill="#EBEDE9" />
<rect x="82" y="28" width="1" height="1" fill="#EBEDE9" />
<rect x="83" y="28" width="1" height="1" fill="#EBEDE9" />
<rect x="84" y="28" width="1" height="1" fill="#EBEDE9" />
<rect x="85" y="28" width="1" height="1" fill="#EBEDE9" />
<rect x="86" y="28" width="1" height="1" fill="#EBEDE9" />
<rect x="87" y="28" width="1" height="1" fill="#EBEDE9" />
<rect x="88" y="28" width="1" height="1" fill="#EBEDE9" />
<rect x="75" y="29" width="1" height="1" fill="#EBEDE9" />
<rect x="76" y="29" width="1" height="1" fill="#EBEDE9" />
<rect x="77" y="29" width="1" height="1" fill="#EBEDE9" />
<rect x="78" y="29" width="1" height="1" fill="#EBEDE9" />
<rect x="79" y="29" width="1" height="1" fill="#EBEDE9" />
<rect x="80" y="29" width="1" height="1" fill="#EBEDE9" />
<rect x="81" y="29" width="1" height="1" fill="#EBEDE9" />
<rect x="82" y="29" width="1" height="1" fill="#EBEDE9" />
<rect x="83" y="29" width="1" height="1" fill="#EBEDE9" />
<rect x="84" y="29" width="1" height="1" fill="#EBEDE9" />
<rect x="85" y="29" width="1" height="1" fill="#EBEDE9" />
<rect x="86" y="29" width="1" height="1" fill="#EBEDE9" />
<rect x="87" y="29" width="1" height="1" fill="#EBEDE9" />
<rect x="88" y="29" width="1" height="1" fill="#EBEDE9" />
<rect x="75" y="30" width="1" height="1" fill="#EBEDE9" />
<rect x="76" y="30" width="1" height="1" fill="#EBEDE9" />
<rect x="77" y="30" width="1" height="1" fill="#EBEDE9" />
<rect x="78" y="30" width="1" height="1" fill="#E7D5B3" />
<rect x="79" y="30" width="1" height="1" fill="#E7D5B3" />
<rect x="80" y="30" width="1" height="1" fill="#D7B594" />
<rect x="81" y="30" width="1" height="1" fill="#EBEDE9" />
<rect x="82" y="30" width="1" height="1" fill="#EBEDE9" />
<rect x="83" y="30" width="1" height="1" fill="#D7B594" />
<rect x="84" y="30" width="1" height="1" fill="#D7B594" />
<rect x="85" y="30" width="1" height="1" fill="#D7B594" />
<rect x="86" y="30" width="1" height="1" fill="#EBEDE9" />
<rect x="87" y="30" width="1" height="1" fill="#EBEDE9" />
<rect x="88" y="30" width="1" height="1" fill="#EBEDE9" />
<rect x="75" y="31" width="1" height="1" fill="#EBEDE9" />
<rect x="76" y="31" width="1" height="1" fill="#EBEDE9" />
<rect x="77" y="31" width="1" height="1" fill="#E7D5B3" />
<rect x="78" y="31" width="1" height="1" fill="#E7D5B3" />
<rect x="79" y="31" width="1" height="1" fill="#E7D5B3" />
<rect x="80" y="31" width="1" height="1" fill="#E7D5B3" />
<rect x="81" y="31" width="1" height="1" fill="#D7B594" />
<rect x="82" y="31" width="1" height="1" fill="#EBEDE9" />
<rect x="83" y="31" width="1" height="1" fill="#E7D5B3" />
<rect x="84" y="31" width="1" height="1" fill="#E7D5B3" />
<rect x="85" y="31" width="1" height="1" fill="#E7D5B3" />
<rect x="86" y="31" width="1" height="1" fill="#D7B594" />
<rect x="87" y="31" width="1" height="1" fill="#EBEDE9" />
<rect x="88" y="31" width="1" height="1" fill="#EBEDE9" />
<rect x="75" y="32" width="1" height="1" fill="#AD7757" />
<rect x="76" y="32" width="1" height="1" fill="#EBEDE9" />
<rect x="77" y="32" width="1" height="1" fill="#E7D5B3" />
<rect x="78" y="32" width="1" height="1" fill="#E7D5B3" />
<rect x="79" y="32" width="1" height="1" fill="#E7D5B3" />
<rect x="80" y="32" width="1" height="1" fill="#E7D5B3" />
<rect x="81" y="32" width="1" height="1" fill="#E7D5B3" />
<rect x="82" y="32" width="1" height="1" fill="#E7D5B3" />
<rect x="83" y="32" width="1" height="1" fill="#E7D5B3" />
<rect x="84" y="32" width="1" height="1" fill="#E7D5B3" />
<rect x="85" y="32" width="1" height="1" fill="#E7D5B3" />
<rect x="86" y="32" width="1" height="1" fill="#E7D5B3" />
<rect x="87" y="32" width="1" height="1" fill="#EBEDE9" />
<rect x="88" y="32" width="1" height="1" fill="#AD7757" />
<rect x="75" y="33" width="1" height="1" fill="#C09473" />
<rect x="76" y="33" width="1" height="1" fill="#EBEDE9" />
<rect x="77" y="33" width="1" height="1" fill="#E7D5B3" />
<rect x="78" y="33" width="1" height="1" fill="#EBEDE9" />
<rect x="79" y="33" width="1" height="1" fill="#EBEDE9" />
<rect x="80" y="33" width="1" height="1" fill="#EBEDE9" />
<rect x="81" y="33" width="1" height="1" fill="#E7D5B3" />
<rect x="82" y="33" width="1" height="1" fill="#E7D5B3" />
<rect x="83" y="33" width="1" height="1" fill="#EBEDE9" />
<rect x="84" y="33" width="1" height="1" fill="#EBEDE9" />
<rect x="85" y="33" width="1" height="1" fill="#EBEDE9" />
<rect x="86" y="33" width="1" height="1" fill="#E7D5B3" />
<rect x="87" y="33" width="1" height="1" fill="#EBEDE9" />
<rect x="88" y="33" width="1" height="1" fill="#C09473" />
<rect x="76" y="34" width="1" height="1" fill="#EBEDE9" />
<rect x="77" y="34" width="1" height="1" fill="#E7D5B3" />
<rect x="78" y="34" width="1" height="1" fill="#E7D5B3" />
<rect x="79" y="34" width="1" height="1" fill="#602C2C" />
<rect x="80" y="34" width="1" height="1" fill="#E7D5B3" />
<rect x="81" y="34" width="1" height="1" fill="#E7D5B3" />
<rect x="82" y="34" width="1" height="1" fill="#E7D5B3" />
<rect x="83" y="34" width="1" height="1" fill="#E7D5B3" />
<rect x="84" y="34" width="1" height="1" fill="#602C2C" />
<rect x="85" y="34" width="1" height="1" fill="#E7D5B3" />
<rect x="86" y="34" width="1" height="1" fill="#E7D5B3" />
<rect x="87" y="34" width="1" height="1" fill="#EBEDE9" />
<rect x="76" y="35" width="1" height="1" fill="#EBEDE9" />
<rect x="77" y="35" width="1" height="1" fill="#EBEDE9" />
<rect x="78" y="35" width="1" height="1" fill="#E7D5B3" />
<rect x="79" y="35" width="1" height="1" fill="#E7D5B3" />
<rect x="80" y="35" width="1" height="1" fill="#E7D5B3" />
<rect x="81" y="35" width="1" height="1" fill="#E7D5B3" />
<rect x="82" y="35" width="1" height="1" fill="#E7D5B3" />
<rect x="83" y="35" width="1" height="1" fill="#E7D5B3" />
<rect x="84" y="35" width="1" height="1" fill="#E7D5B3" />
<rect x="85" y="35" width="1" height="1" fill="#E7D5B3" />
<rect x="86" y="35" width="1" height="1" fill="#EBEDE9" />
<rect x="87" y="35" width="1" height="1" fill="#EBEDE9" />
<rect x="77" y="36" width="1" height="1" fill="#EBEDE9" />
<rect x="78" y="36" width="1" height="1" fill="#EBEDE9" />
<rect x="79" y="36" width="1" height="1" fill="#E7D5B3" />
<rect x="80" y="36" width="1" height="1" fill="#EBEDE9" />
<rect x="81" y="36" width="1" height="1" fill="#EBEDE9" />
<rect x="82" y="36" width="1" height="1" fill="#EBEDE9" />
<rect x="83" y="36" width="1" height="1" fill="#EBEDE9" />
<rect x="84" y="36" width="1" height="1" fill="#C09473" />
<rect x="85" y="36" width="1" height="1" fill="#EBEDE9" />
<rect x="86" y="36" width="1" height="1" fill="#EBEDE9" />
<rect x="78" y="37" width="1" height="1" fill="#EBEDE9" />
<rect x="79" y="37" width="1" height="1" fill="#EBEDE9" />
<rect x="80" y="37" width="1" height="1" fill="#EBEDE9" />
<rect x="81" y="37" width="1" height="1" fill="#EBEDE9" />
<rect x="82" y="37" width="1" height="1" fill="#C09473" />
<rect x="83" y="37" width="1" height="1" fill="#C09473" />
<rect x="84" y="37" width="1" height="1" fill="#EBEDE9" />
<rect x="85" y="37" width="1" height="1" fill="#EBEDE9" />
<rect x="80" y="38" width="1" height="1" fill="#EBEDE9" />
<rect x="81" y="38" width="1" height="1" fill="#EBEDE9" />
<rect x="82" y="38" width="1" height="1" fill="#EBEDE9" />
<rect x="83" y="38" width="1" height="1" fill="#EBEDE9" />
<rect x="77" y="39" width="1" height="1" fill="#819796" />
<rect x="78" y="39" width="1" height="1" fill="#A8B5B2" />
<rect x="79" y="39" width="1" height="1" fill="#819796" />
<rect x="80" y="39" width="1" height="1" fill="#202E37" />
<rect x="81" y="39" width="1" height="1" fill="#D7B594" />
<rect x="82" y="39" width="1" height="1" fill="#D7B594" />
<rect x="83" y="39" width="1" height="1" fill="#202E37" />
<rect x="84" y="39" width="1" height="1" fill="#A8B5B2" />
<rect x="85" y="39" width="1" height="1" fill="#819796" />
<rect x="86" y="39" width="1" height="1" fill="#A8B5B2" />
<rect x="87" y="39" width="1" height="1" fill="#819796" />
<rect x="76" y="40" width="1" height="1" fill="#577277" />
<rect x="77" y="40" width="1" height="1" fill="#394A50" />
<rect x="78" y="40" width="1" height="1" fill="#577277" />
<rect x="79" y="40" width="1" height="1" fill="#394A50" />
<rect x="80" y="40" width="1" height="1" fill="#577277" />
<rect x="81" y="40" width="1" height="1" fill="#202E37" />
<rect x="82" y="40" width="1" height="1" fill="#202E37" />
<rect x="83" y="40" width="1" height="1" fill="#394A50" />
<rect x="84" y="40" width="1" height="1" fill="#577277" />
<rect x="85" y="40" width="1" height="1" fill="#394A50" />
<rect x="86" y="40" width="1" height="1" fill="#577277" />
<rect x="87" y="40" width="1" height="1" fill="#394A50" />
<rect x="88" y="40" width="1" height="1" fill="#577277" />
<rect x="96" y="40" width="1" height="1" fill="#C7CFCC" />
<rect x="75" y="41" width="1" height="1" fill="#819796" />
<rect x="76" y="41" width="1" height="1" fill="#A8B5B2" />
<rect x="77" y="41" width="1" height="1" fill="#819796" />
<rect x="78" y="41" width="1" height="1" fill="#A8B5B2" />
<rect x="79" y="41" width="1" height="1" fill="#819796" />
<rect x="80" y="41" width="1" height="1" fill="#A8B5B2" />
<rect x="81" y="41" width="1" height="1" fill="#819796" />
<rect x="82" y="41" width="1" height="1" fill="#A8B5B2" />
<rect x="83" y="41" width="1" height="1" fill="#819796" />
<rect x="84" y="41" width="1" height="1" fill="#A8B5B2" />
<rect x="85" y="41" width="1" height="1" fill="#819796" />
<rect x="86" y="41" width="1" height="1" fill="#A8B5B2" />
<rect x="87" y="41" width="1" height="1" fill="#819796" />
<rect x="88" y="41" width="1" height="1" fill="#A8B5B2" />
<rect x="89" y="41" width="1" height="1" fill="#819796" />
<rect x="95" y="41" width="1" height="1" fill="#C7CFCC" />
<rect x="74" y="42" width="1" height="1" fill="#577277" />
<rect x="75" y="42" width="1" height="1" fill="#394A50" />
<rect x="76" y="42" width="1" height="1" fill="#577277" />
<rect x="77" y="42" width="1" height="1" fill="#394A50" />
<rect x="78" y="42" width="1" height="1" fill="#577277" />
<rect x="79" y="42" width="1" height="1" fill="#394A50" />
<rect x="80" y="42" width="1" height="1" fill="#577277" />
<rect x="81" y="42" width="1" height="1" fill="#394A50" />
<rect x="82" y="42" width="1" height="1" fill="#577277" />
<rect x="83" y="42" width="1" height="1" fill="#394A50" />
<rect x="84" y="42" width="1" height="1" fill="#577277" />
<rect x="85" y="42" width="1" height="1" fill="#394A50" />
<rect x="86" y="42" width="1" height="1" fill="#577277" />
<rect x="87" y="42" width="1" height="1" fill="#394A50" />
<rect x="88" y="42" width="1" height="1" fill="#577277" />
<rect x="89" y="42" width="1" height="1" fill="#394A50" />
<rect x="90" y="42" width="1" height="1" fill="#577277" />
<rect x="96" y="42" width="1" height="1" fill="#C7CFCC" />
<rect x="73" y="43" width="1" height="1" fill="#819796" />
<rect x="74" y="43" width="1" height="1" fill="#A8B5B2" />
<rect x="75" y="43" width="1" height="1" fill="#819796" />
<rect x="76" y="43" width="1" height="1" fill="#A8B5B2" />
<rect x="78" y="43" width="1" height="1" fill="#A8B5B2" />
<rect x="79" y="43" width="1" height="1" fill="#819796" />
<rect x="80" y="43" width="1" height="1" fill="#A8B5B2" />
<rect x="81" y="43" width="1" height="1" fill="#819796" />
<rect x="82" y="43" width="1" height="1" fill="#A8B5B2" />
<rect x="83" y="43" width="1" height="1" fill="#819796" />
<rect x="84" y="43" width="1" height="1" fill="#A8B5B2" />
<rect x="85" y="43" width="1" height="1" fill="#819796" />
<rect x="86" y="43" width="1" height="1" fill="#A8B5B2" />
<rect x="88" y="43" width="1" height="1" fill="#A8B5B2" />
<rect x="89" y="43" width="1" height="1" fill="#819796" />
<rect x="90" y="43" width="1" height="1" fill="#A8B5B2" />
<rect x="91" y="43" width="1" height="1" fill="#819796" />
<rect x="95" y="43" width="1" height="1" fill="#C7CFCC" />
<rect x="96" y="43" width="1" height="1" fill="#C7CFCC" />
<rect x="73" y="44" width="1" height="1" fill="#E8C170" />
<rect x="74" y="44" width="1" height="1" fill="#E8C170" />
<rect x="75" y="44" width="1" height="1" fill="#E8C170" />
<rect x="78" y="44" width="1" height="1" fill="#577277" />
<rect x="79" y="44" width="1" height="1" fill="#394A50" />
<rect x="80" y="44" width="1" height="1" fill="#577277" />
<rect x="81" y="44" width="1" height="1" fill="#394A50" />
<rect x="82" y="44" width="1" height="1" fill="#577277" />
<rect x="83" y="44" width="1" height="1" fill="#394A50" />
<rect x="84" y="44" width="1" height="1" fill="#577277" />
<rect x="85" y="44" width="1" height="1" fill="#394A50" />
<rect x="86" y="44" width="1" height="1" fill="#577277" />
<rect x="89" y="44" width="1" height="1" fill="#394A50" />
<rect x="90" y="44" width="1" height="1" fill="#577277" />
<rect x="91" y="44" width="1" height="1" fill="#394A50" />
<rect x="92" y="44" width="1" height="1" fill="#202E37" />
<rect x="93" y="44" width="1" height="1" fill="#D7B594" />
<rect x="94" y="44" width="1" height="1" fill="#A53030" />
<rect x="95" y="44" width="1" height="1" fill="#172038" />
<rect x="96" y="44" width="1" height="1" fill="#172038" />
<rect x="97" y="44" width="1" height="1" fill="#172038" />
<rect x="73" y="45" width="1" height="1" fill="#FFFFFF" />
<rect x="74" y="45" width="1" height="1" fill="#FFFFFF" />
<rect x="75" y="45" width="1" height="1" fill="#FFFFFF" />
<rect x="76" y="45" width="1" height="1" fill="#DE9E41" />
<rect x="77" y="45" width="1" height="1" fill="#DE9E41" />
<rect x="78" y="45" width="1" height="1" fill="#A8B5B2" />
<rect x="79" y="45" width="1" height="1" fill="#819796" />
<rect x="80" y="45" width="1" height="1" fill="#A8B5B2" />
<rect x="81" y="45" width="1" height="1" fill="#819796" />
<rect x="82" y="45" width="1" height="1" fill="#A8B5B2" />
<rect x="83" y="45" width="1" height="1" fill="#819796" />
<rect x="84" y="45" width="1" height="1" fill="#A8B5B2" />
<rect x="85" y="45" width="1" height="1" fill="#819796" />
<rect x="86" y="45" width="1" height="1" fill="#A8B5B2" />
<rect x="90" y="45" width="1" height="1" fill="#A8B5B2" />
<rect x="91" y="45" width="1" height="1" fill="#202E37" />
<rect x="92" y="45" width="1" height="1" fill="#D7B594" />
<rect x="93" y="45" width="1" height="1" fill="#A53030" />
<rect x="94" y="45" width="1" height="1" fill="#D7B594" />
<rect x="95" y="45" width="1" height="1" fill="#172038" />
<rect x="96" y="45" width="1" height="1" fill="#172038" />
<rect x="97" y="45" width="1" height="1" fill="#172038" />
<rect x="73" y="46" width="1" height="1" fill="#DE9E41" />
<rect x="74" y="46" width="1" height="1" fill="#DE9E41" />
<rect x="75" y="46" width="1" height="1" fill="#DE9E41" />
<rect x="76" y="46" width="1" height="1" fill="#DE9E41" />
<rect x="77" y="46" width="1" height="1" fill="#DE9E41" />
<rect x="78" y="46" width="1" height="1" fill="#577277" />
<rect x="79" y="46" width="1" height="1" fill="#394A50" />
<rect x="80" y="46" width="1" height="1" fill="#577277" />
<rect x="81" y="46" width="1" height="1" fill="#394A50" />
<rect x="82" y="46" width="1" height="1" fill="#577277" />
<rect x="83" y="46" width="1" height="1" fill="#394A50" />
<rect x="84" y="46" width="1" height="1" fill="#577277" />
<rect x="85" y="46" width="1" height="1" fill="#394A50" />
<rect x="86" y="46" width="1" height="1" fill="#577277" />
<rect x="91" y="46" width="1" height="1" fill="#394A50" />
<rect x="92" y="46" width="1" height="1" fill="#D7B594" />
<rect x="93" y="46" width="1" height="1" fill="#A53030" />
<rect x="95" y="46" width="1" height="1" fill="#172038" />
<rect x="96" y="46" width="1" height="1" fill="#172038" />
<rect x="97" y="46" width="1" height="1" fill="#172038" />
<rect x="73" y="47" width="1" height="1" fill="#DE9E41" />
<rect x="74" y="47" width="1" height="1" fill="#DE9E41" />
<rect x="75" y="47" width="1" height="1" fill="#DE9E41" />
<rect x="76" y="47" width="1" height="1" fill="#DE9E41" />
<rect x="77" y="47" width="1" height="1" fill="#DE9E41" />
<rect x="78" y="47" width="1" height="1" fill="#A8B5B2" />
<rect x="79" y="47" width="1" height="1" fill="#819796" />
<rect x="80" y="47" width="1" height="1" fill="#A8B5B2" />
<rect x="81" y="47" width="1" height="1" fill="#819796" />
<rect x="82" y="47" width="1" height="1" fill="#A8B5B2" />
<rect x="83" y="47" width="1" height="1" fill="#819796" />
<rect x="84" y="47" width="1" height="1" fill="#A8B5B2" />
<rect x="85" y="47" width="1" height="1" fill="#819796" />
<rect x="86" y="47" width="1" height="1" fill="#A8B5B2" />
<rect x="94" y="47" width="1" height="1" fill="#A53030" />
<rect x="95" y="47" width="1" height="1" fill="#172038" />
<rect x="96" y="47" width="1" height="1" fill="#172038" />
<rect x="97" y="47" width="1" height="1" fill="#172038" />
<rect x="73" y="48" width="1" height="1" fill="#DE9E41" />
<rect x="74" y="48" width="1" height="1" fill="#DE9E41" />
<rect x="75" y="48" width="1" height="1" fill="#DE9E41" />
<rect x="76" y="48" width="1" height="1" fill="#DE9E41" />
<rect x="77" y="48" width="1" height="1" fill="#DE9E41" />
<rect x="78" y="48" width="1" height="1" fill="#602C2C" />
<rect x="79" y="48" width="1" height="1" fill="#602C2C" />
<rect x="80" y="48" width="1" height="1" fill="#602C2C" />
<rect x="81" y="48" width="1" height="1" fill="#7A4841" />
<rect x="82" y="48" width="1" height="1" fill="#7A4841" />
<rect x="83" y="48" width="1" height="1" fill="#602C2C" />
<rect x="84" y="48" width="1" height="1" fill="#602C2C" />
<rect x="85" y="48" width="1" height="1" fill="#602C2C" />
<rect x="86" y="48" width="1" height="1" fill="#341C27" />
<rect x="73" y="49" width="1" height="1" fill="#DE9E41" />
<rect x="74" y="49" width="1" height="1" fill="#DE9E41" />
<rect x="75" y="49" width="1" height="1" fill="#D7B594" />
<rect x="76" y="49" width="1" height="1" fill="#D7B594" />
<rect x="77" y="49" width="1" height="1" fill="#DE9E41" />
<rect x="78" y="49" width="1" height="1" fill="#151D28" />
<rect x="79" y="49" width="1" height="1" fill="#151D28" />
<rect x="80" y="49" width="1" height="1" fill="#151D28" />
<rect x="81" y="49" width="1" height="1" fill="#151D28" />
<rect x="82" y="49" width="1" height="1" fill="#151D28" />
<rect x="83" y="49" width="1" height="1" fill="#151D28" />
<rect x="84" y="49" width="1" height="1" fill="#151D28" />
<rect x="85" y="49" width="1" height="1" fill="#151D28" />
<rect x="86" y="49" width="1" height="1" fill="#090A14" />
<rect x="73" y="50" width="1" height="1" fill="#202E37" />
<rect x="74" y="50" width="1" height="1" fill="#D7B594" />
<rect x="75" y="50" width="1" height="1" fill="#D7B594" />
<rect x="76" y="50" width="1" height="1" fill="#D7B594" />
<rect x="78" y="50" width="1" height="1" fill="#151D28" />
<rect x="79" y="50" width="1" height="1" fill="#151D28" />
<rect x="80" y="50" width="1" height="1" fill="#151D28" />
<rect x="81" y="50" width="1" height="1" fill="#151D28" />
<rect x="82" y="50" width="1" height="1" fill="#151D28" />
<rect x="83" y="50" width="1" height="1" fill="#151D28" />
<rect x="84" y="50" width="1" height="1" fill="#151D28" />
<rect x="85" y="50" width="1" height="1" fill="#151D28" />
<rect x="86" y="50" width="1" height="1" fill="#090A14" />
<rect x="78" y="51" width="1" height="1" fill="#151D28" />
<rect x="79" y="51" width="1" height="1" fill="#151D28" />
<rect x="80" y="51" width="1" height="1" fill="#151D28" />
<rect x="81" y="51" width="1" height="1" fill="#151D28" />
<rect x="82" y="51" width="1" height="1" fill="#151D28" />
<rect x="83" y="51" width="1" height="1" fill="#151D28" />
<rect x="84" y="51" width="1" height="1" fill="#151D28" />
<rect x="85" y="51" width="1" height="1" fill="#151D28" />
<rect x="86" y="51" width="1" height="1" fill="#090A14" />
<rect x="78" y="52" width="1" height="1" fill="#151D28" />
<rect x="79" y="52" width="1" height="1" fill="#151D28" />
<rect x="80" y="52" width="1" height="1" fill="#151D28" />
<rect x="81" y="52" width="1" height="1" fill="#151D28" />
<rect x="82" y="52" width="1" height="1" fill="#151D28" />
<rect x="83" y="52" width="1" height="1" fill="#151D28" />
<rect x="84" y="52" width="1" height="1" fill="#151D28" />
<rect x="85" y="52" width="1" height="1" fill="#151D28" />
<rect x="86" y="52" width="1" height="1" fill="#090A14" />
<rect x="78" y="53" width="1" height="1" fill="#151D28" />
<rect x="79" y="53" width="1" height="1" fill="#151D28" />
<rect x="80" y="53" width="1" height="1" fill="#151D28" />
<rect x="81" y="53" width="1" height="1" fill="#151D28" />
<rect x="82" y="53" width="1" height="1" fill="#151D28" />
<rect x="83" y="53" width="1" height="1" fill="#151D28" />
<rect x="84" y="53" width="1" height="1" fill="#151D28" />
<rect x="85" y="53" width="1" height="1" fill="#151D28" />
<rect x="86" y="53" width="1" height="1" fill="#090A14" />
<rect x="78" y="54" width="1" height="1" fill="#151D28" />
<rect x="79" y="54" width="1" height="1" fill="#151D28" />
<rect x="80" y="54" width="1" height="1" fill="#090A14" />
<rect x="84" y="54" width="1" height="1" fill="#151D28" />
<rect x="85" y="54" width="1" height="1" fill="#151D28" />
<rect x="86" y="54" width="1" height="1" fill="#090A14" />
<rect x="78" y="55" width="1" height="1" fill="#151D28" />
<rect x="79" y="55" width="1" height="1" fill="#151D28" />
<rect x="80" y="55" width="1" height="1" fill="#090A14" />
<rect x="84" y="55" width="1" height="1" fill="#151D28" />
<rect x="85" y="55" width="1" height="1" fill="#151D28" />
<rect x="86" y="55" width="1" height="1" fill="#090A14" />
<rect x="78" y="56" width="1" height="1" fill="#151D28" />
<rect x="79" y="56" width="1" height="1" fill="#151D28" />
<rect x="80" y="56" width="1" height="1" fill="#090A14" />
<rect x="84" y="56" width="1" height="1" fill="#151D28" />
<rect x="85" y="56" width="1" height="1" fill="#151D28" />
<rect x="86" y="56" width="1" height="1" fill="#090A14" />
<rect x="78" y="57" width="1" height="1" fill="#090A14" />
<rect x="79" y="57" width="1" height="1" fill="#151D28" />
<rect x="80" y="57" width="1" height="1" fill="#090A14" />
<rect x="84" y="57" width="1" height="1" fill="#090A14" />
<rect x="85" y="57" width="1" height="1" fill="#151D28" />
<rect x="86" y="57" width="1" height="1" fill="#090A14" />
<rect x="78" y="58" width="1" height="1" fill="#151D28" />
<rect x="79" y="58" width="1" height="1" fill="#151D28" />
<rect x="80" y="58" width="1" height="1" fill="#090A14" />
<rect x="84" y="58" width="1" height="1" fill="#151D28" />
<rect x="85" y="58" width="1" height="1" fill="#151D28" />
<rect x="86" y="58" width="1" height="1" fill="#090A14" />
<rect x="78" y="59" width="1" height="1" fill="#151D28" />
<rect x="79" y="59" width="1" height="1" fill="#151D28" />
<rect x="80" y="59" width="1" height="1" fill="#090A14" />
<rect x="84" y="59" width="1" height="1" fill="#151D28" />
<rect x="85" y="59" width="1" height="1" fill="#151D28" />
<rect x="86" y="59" width="1" height="1" fill="#090A14" />
<rect x="78" y="60" width="1" height="1" fill="#151D28" />
<rect x="79" y="60" width="1" height="1" fill="#151D28" />
<rect x="80" y="60" width="1" height="1" fill="#090A14" />
<rect x="84" y="60" width="1" height="1" fill="#151D28" />
<rect x="85" y="60" width="1" height="1" fill="#151D28" />
<rect x="86" y="60" width="1" height="1" fill="#090A14" />
<rect x="78" y="61" width="1" height="1" fill="#4D2B32" />
<rect x="79" y="61" width="1" height="1" fill="#602C2C" />
<rect x="80" y="61" width="1" height="1" fill="#341C27" />
<rect x="84" y="61" width="1" height="1" fill="#4D2B32" />
<rect x="85" y="61" width="1" height="1" fill="#602C2C" />
<rect x="86" y="61" width="1" height="1" fill="#341C27" />
<rect x="77" y="62" width="1" height="1" fill="#602C2C" />
<rect x="78" y="62" width="1" height="1" fill="#602C2C" />
<rect x="79" y="62" width="1" height="1" fill="#602C2C" />
<rect x="80" y="62" width="1" height="1" fill="#341C27" />
<rect x="83" y="62" width="1" height="1" fill="#602C2C" />
<rect x="84" y="62" width="1" height="1" fill="#602C2C" />
<rect x="85" y="62" width="1" height="1" fill="#602C2C" />
<rect x="86" y="62" width="1" height="1" fill="#341C27" />
<rect x="77" y="63" width="1" height="1" fill="#151D28" />
<rect x="78" y="63" width="1" height="1" fill="#151D28" />
<rect x="79" y="63" width="1" height="1" fill="#151D28" />
<rect x="80" y="63" width="1" height="1" fill="#090A14" />
<rect x="83" y="63" width="1" height="1" fill="#151D28" />
<rect x="84" y="63" width="1" height="1" fill="#151D28" />
<rect x="85" y="63" width="1" height="1" fill="#151D28" />
<rect x="86" y="63" width="1" height="1" fill="#090A14" />
</svg>