<?xml version="1.0" encoding="UTF-8" ?>
<svg version="1.1" width="144" height="80" xmlns="http://www.w3.org/2000/svg" shape-rendering="crispEdges">
<rect x="112" y="24" width="1" height="1" fill="#EBEDE9" />
<rect x="113" y="24" width="1" height="1" fill="#EBEDE9" />
<rect x="114" y="24" width="1" height="1" fill="#EBEDE9" />
<rect x="115" y="24" width="1" height="1" fill="#EBEDE9" />
<rect x="116" y="24" width="1" height="1" fill="#EBEDE9" />
<rect x="117" y="24" width="1" height="1" fill="#EBEDE9" />
<rect x="110" y="25" width="1" height="1" fill="#EBEDE9" />
<rect x="111" y="25" width="1" height="1" fill="#EBEDE9" />
<rect x="112" y="25" width="1" height="1" fill="#EBEDE9" />
<rect x="113" y="25" width="1" height="1" fill="#EBEDE9" />
<rect x="114" y="25" width="1" height="1" fill="#EBEDE9" />
<rect x="115" y="25" width="1" height="1" fill="#EBEDE9" />
<rect x="116" y="25" width="1" height="1" fill="#EBEDE9" />
<rect x="117" y="25" width="1" height="1" fill="#EBEDE9" />
<rect x="118" y="25" width="1" height="1" fill="#EBEDE9" />
<rect x="119" y="25" width="1" height="1" fill="#EBEDE9" />
<rect x="109" y="26" width="1" height="1" fill="#EBEDE9" />
<rect x="110" y="26" width="1" height="1" fill="#EBEDE9" />
<rect x="111" y="26" width="1" height="1" fill="#EBEDE9" />
<rect x="112" y="26" width="1" height="1" fill="#EBEDE9" />
<rect x="113" y="26" width="1" height="1" fill="#EBEDE9" />
<rect x="114" y="26" width="1" height="1" fill="#EBEDE9" />
<rect x="115" y="26" width="1" height="1" fill="#EBEDE9" />
<rect x="116" y="26" width="1" height="1" fill="#EBEDE9" />
<rect x="117" y="26" width="1" height="1" fill="#EBEDE9" />
<rect x="118" y="26" width="1" height="1" fill="#EBEDE9" />
<rect x="119" y="26" width="1" height="1" fill="#EBEDE9" />
<rect x="120" y="26" width="1" height="1" fill="#EBEDE9" />
<rect x="109" y="27" width="1" height="1" fill="#EBEDE9" />
<rect x="110" y="27" width="1" height="1" fill="#EBEDE9" />
<rect x="111" y="27" width="1" height="1" fill="#EBEDE9" />
<rect x="112" y="27" width="1" height="1" fill="#EBEDE9" />
<rect x="113" y="27" width="1" height="1" fill="#EBEDE9" />
<rect x="114" y="27" width="1" height="1" fill="#EBEDE9" />
<rect x="115" y="27" width="1" height="1" fill="#EBEDE9" />
<rect x="116" y="27" width="1" height="1" fill="#EBEDE9" />
<rect x="117" y="27" width="1" height="1" fill="#EBEDE9" />
<rect x="118" y="27" width="1" height="1" fill="#EBEDE9" />
<rect x="119" y="27" width="1" height="1" fill="#090A14" />
<rect x="120" y="27" width="1" height="1" fill="#EBEDE9" />
<rect x="108" y="28" width="1" height="1" fill="#EBEDE9" />
<rect x="109" y="28" width="1" height="1" fill="#EBEDE9" />
<rect x="110" y="28" width="1" height="1" fill="#EBEDE9" />
<rect x="111" y="28" width="1" height="1" fill="#EBEDE9" />
<rect x="112" y="28" width="1" height="1" fill="#EBEDE9" />
<rect x="113" y="28" width="1" height="1" fill="#EBEDE9" />
<rect x="114" y="28" width="1" height="1" fill="#EBEDE9" />
<rect x="115" y="28" width="1" height="1" fill="#EBEDE9" />
<rect x="116" y="28" width="1" height="1" fill="#EBEDE9" />
<rect x="117" y="28" width="1" height="1" fill="#EBEDE9" />
<rect x="118" y="28" width="1" height="1" fill="#EBEDE9" />
<rect x="119" y="28" width="1" height="1" fill="#090A14" />
<rect x="120" y="28" width="1" height="1" fill="#EBEDE9" />
<rect x="121" y="28" width="1" height="1" fill="#090A14" />
<rect x="108" y="29" width="1" height="1" fill="#EBEDE9" />
<rect x="109" y="29" width="1" height="1" fill="#EBEDE9" />
<rect x="110" y="29" width="1" height="1" fill="#EBEDE9" />
<rect x="111" y="29" width="1" height="1" fill="#EBEDE9" />
<rect x="112" y="29" width="1" height="1" fill="#EBEDE9" />
<rect x="113" y="29" width="1" height="1" fill="#EBEDE9" />
<rect x="114" y="29" width="1" height="1" fill="#EBEDE9" />
<rect x="115" y="29" width="1" height="1" fill="#EBEDE9" />
<rect x="116" y="29" width="1" height="1" fill="#EBEDE9" />
<rect x="117" y="29" width="1" height="1" fill="#EBEDE9" />
<rect x="118" y="29" width="1" height="1" fill="#EBEDE9" />
<rect x="119" y="29" width="1" height="1" fill="#090A14" />
<rect x="120" y="29" width="1" height="1" fill="#EBEDE9" />
<rect x="121" y="29" width="1" height="1" fill="#090A14" />
<rect x="108" y="30" width="1" height="1" fill="#EBEDE9" />
<rect x="109" y="30" width="1" height="1" fill="#EBEDE9" />
<rect x="110" y="30" width="1" height="1" fill="#EBEDE9" />
<rect x="111" y="30" width="1" height="1" fill="#E7D5B3" />
<rect x="112" y="30" width="1" height="1" fill="#E7D5B3" />
<rect x="113" y="30" width="1" height="1" fill="#D7B594" />
<rect x="114" y="30" width="1" height="1" fill="#EBEDE9" />
<rect x="115" y="30" width="1" height="1" fill="#EBEDE9" />
<rect x="116" y="30" width="1" height="1" fill="#D7B594" />
<rect x="117" y="30" width="1" height="1" fill="#D7B594" />
<rect x="118" y="30" width="1" height="1" fill="#D7B594" />
<rect x="119" y="30" width="1" height="1" fill="#EBEDE9" />
<rect x="120" y="30" width="1" height="1" fill="#EBEDE9" />
<rect x="121" y="30" width="1" height="1" fill="#090A14" />
<rect x="108" y="31" width="1" height="1" fill="#EBEDE9" />
<rect x="109" y="31" width="1" height="1" fill="#EBEDE9" />
<rect x="110" y="31" width="1" height="1" fill="#E7D5B3" />
<rect x="111" y="31" width="1" height="1" fill="#E7D5B3" />
<rect x="112" y="31" width="1" height="1" fill="#E7D5B3" />
<rect x="113" y="31" width="1" height="1" fill="#E7D5B3" />
<rect x="114" y="31" width="1" height="1" fill="#D7B594" />
<rect x="115" y="31" width="1" height="1" fill="#EBEDE9" />
<rect x="116" y="31" width="1" height="1" fill="#E7D5B3" />
<rect x="117" y="31" width="1" height="1" fill="#E7D5B3" />
<rect x="118" y="31" width="1" height="1" fill="#E7D5B3" />
<rect x="119" y="31" width="1" height="1" fill="#D7B594" />
<rect x="120" y="31" width="1" height="1" fill="#EBEDE9" />
<rect x="121" y="31" width="1" height="1" fill="#EBEDE9" />
<rect x="108" y="32" width="1" height="1" fill="#AD7757" />
<rect x="109" y="32" width="1" height="1" fill="#EBEDE9" />
<rect x="110" y="32" width="1" height="1" fill="#E7D5B3" />
<rect x="111" y="32" width="1" height="1" fill="#E7D5B3" />
<rect x="112" y="32" width="1" height="1" fill="#E7D5B3" />
<rect x="113" y="32" width="1" height="1" fill="#E7D5B3" />
<rect x="114" y="32" width="1" height="1" fill="#E7D5B3" />
<rect x="115" y="32" width="1" height="1" fill="#E7D5B3" />
<rect x="116" y="32" width="1" height="1" fill="#E7D5B3" />
<rect x="117" y="32" width="1" height="1" fill="#E7D5B3" />
<rect x="118" y="32" width="1" height="1" fill="#E7D5B3" />
<rect x="119" y="32" width="1" height="1" fill="#E7D5B3" />
<rect x="120" y="32" width="1" height="1" fill="#EBEDE9" />
<rect x="121" y="32" width="1" height="1" fill="#AD7757" />
<rect x="108" y="33" width="1" height="1" fill="#C09473" />
<rect x="109" y="33" width="1" height="1" fill="#EBEDE9" />
<rect x="110" y="33" width="1" height="1" fill="#E7D5B3" />
<rect x="111" y="33" width="1" height="1" fill="#EBEDE9" />
<rect x="112" y="33" width="1" height="1" fill="#EBEDE9" />
<rect x="113" y="33" width="1" height="1" fill="#EBEDE9" />
<rect x="114" y="33" width="1" height="1" fill="#E7D5B3" />
<rect x="115" y="33" width="1" height="1" fill="#E7D5B3" />
<rect x="116" y="33" width="1" height="1" fill="#EBEDE9" />
<rect x="117" y="33" width="1" height="1" fill="#EBEDE9" />
<rect x="118" y="33" width="1" height="1" fill="#EBEDE9" />
<rect x="119" y="33" width="1" height="1" fill="#E7D5B3" />
<rect x="120" y="33" width="1" height="1" fill="#EBEDE9" />
<rect x="121" y="33" width="1" height="1" fill="#C09473" />
<rect x="109" y="34" width="1" height="1" fill="#EBEDE9" />
<rect x="110" y="34" width="1" height="1" fill="#E7D5B3" />
<rect x="111" y="34" width="1" height="1" fill="#E7D5B3" />
<rect x="112" y="34" width="1" height="1" fill="#E7D5B3" />
<rect x="113" y="34" width="1" height="1" fill="#E7D5B3" />
<rect x="114" y="34" width="1" height="1" fill="#E7D5B3" />
<rect x="115" y="34" width="1" height="1" fill="#E7D5B3" />
<rect x="116" y="34" width="1" height="1" fill="#E7D5B3" />
<rect x="117" y="34" width="1" height="1" fill="#E7D5B3" />
<rect x="118" y="34" width="1" height="1" fill="#E7D5B3" />
<rect x="119" y="34" width="1" height="1" fill="#E7D5B3" />
<rect x="120" y="34" width="1" height="1" fill="#EBEDE9" />
<rect x="109" y="35" width="1" height="1" fill="#EBEDE9" />
<rect x="110" y="35" width="1" height="1" fill="#EBEDE9" />
<rect x="111" y="35" width="1" height="1" fill="#E7D5B3" />
<rect x="112" y="35" width="1" height="1" fill="#E7D5B3" />
<rect x="113" y="35" width="1" height="1" fill="#602C2C" />
<rect x="114" y="35" width="1" height="1" fill="#E7D5B3" />
<rect x="115" y="35" width="1" height="1" fill="#E7D5B3" />
<rect x="116" y="35" width="1" height="1" fill="#E7D5B3" />
<rect x="117" y="35" width="1" height="1" fill="#E7D5B3" />
<rect x="118" y="35" width="1" height="1" fill="#602C2C" />
<rect x="119" y="35" width="1" height="1" fill="#EBEDE9" />
<rect x="120" y="35" width="1" height="1" fill="#EBEDE9" />
<rect x="110" y="36" width="1" height="1" fill="#EBEDE9" />
<rect x="111" y="36" width="1" height="1" fill="#EBEDE9" />
<rect x="112" y="36" width="1" height="1" fill="#E7D5B3" />
<rect x="113" y="36" width="1" height="1" fill="#EBEDE9" />
<rect x="114" y="36" width="1" height="1" fill="#EBEDE9" />
<rect x="115" y="36" width="1" height="1" fill="#EBEDE9" />
<rect x="116" y="36" width="1" height="1" fill="#EBEDE9" />
<rect x="117" y="36" width="1" height="1" fill="#E7D5B3" />
<rect x="118" y="36" width="1" height="1" fill="#EBEDE9" />
<rect x="119" y="36" width="1" height="1" fill="#EBEDE9" />
<rect x="111" y="37" width="1" height="1" fill="#EBEDE9" />
<rect x="112" y="37" width="1" height="1" fill="#EBEDE9" />
<rect x="113" y="37" width="1" height="1" fill="#EBEDE9" />
<rect x="114" y="37" width="1" height="1" fill="#C09473" />
<rect x="115" y="37" width="1" height="1" fill="#C09473" />
<rect x="116" y="37" width="1" height="1" fill="#EBEDE9" />
<rect x="117" y="37" width="1" height="1" fill="#EBEDE9" />
<rect x="118" y="37" width="1" height="1" fill="#EBEDE9" />
<rect x="113" y="38" width="1" height="1" fill="#EBEDE9" />
<rect x="114" y="38" width="1" height="1" fill="#EBEDE9" />
<rect x="115" y="38" width="1" height="1" fill="#EBEDE9" />
<rect x="116" y="38" width="1" height="1" fill="#EBEDE9" />
<rect x="110" y="39" width="1" height="1" fill="#819796" />
<rect x="111" y="39" width="1" height="1" fill="#A8B5B2" />
<rect x="112" y="39" width="1" height="1" fill="#819796" />
<rect x="113" y="39" width="1" height="1" fill="#A8B5B2" />
<rect x="114" y="39" width="1" height="1" fill="#D7B594" />
<rect x="115" y="39" width="1" height="1" fill="#D7B594" />
<rect x="116" y="39" width="1" height="1" fill="#819796" />
<rect x="117" y="39" width="1" height="1" fill="#A8B5B2" />
<rect x="118" y="39" width="1" height="1" fill="#819796" />
<rect x="119" y="39" width="1" height="1" fill="#A8B5B2" />
<rect x="120" y="39" width="1" height="1" fill="#819796" />
<rect x="109" y="40" width="1" height="1" fill="#577277" />
<rect x="110" y="40" width="1" height="1" fill="#394A50" />
<rect x="111" y="40" width="1" height="1" fill="#577277" />
<rect x="112" y="40" width="1" height="1" fill="#394A50" />
<rect x="113" y="40" width="1" height="1" fill="#577277" />
<rect x="114" y="40" width="1" height="1" fill="#394A50" />
<rect x="115" y="40" width="1" height="1" fill="#577277" />
<rect x="116" y="40" width="1" height="1" fill="#394A50" />
<rect x="117" y="40" width="1" height="1" fill="#577277" />
<rect x="118" y="40" width="1" height="1" fill="#394A50" />
<rect x="119" y="40" width="1" height="1" fill="#577277" />
<rect x="120" y="40" width="1" height="1" fill="#394A50" />
<rect x="121" y="40" width="1" height="1" fill="#577277" />
<rect x="109" y="41" width="1" height="1" fill="#A8B5B2" />
<rect x="110" y="41" width="1" height="1" fill="#819796" />
<rect x="111" y="41" width="1" height="1" fill="#A8B5B2" />
<rect x="112" y="41" width="1" height="1" fill="#819796" />
<rect x="113" y="41" width="1" height="1" fill="#A8B5B2" />
<rect x="114" y="41" width="1" height="1" fill="#819796" />
<rect x="115" y="41" width="1" height="1" fill="#A8B5B2" />
<rect x="116" y="41" width="1" height="1" fill="#819796" />
<rect x="117" y="41" width="1" height="1" fill="#A8B5B2" />
<rect x="118" y="41" width="1" height="1" fill="#819796" />
<rect x="119" y="41" width="1" height="1" fill="#A8B5B2" />
<rect x="120" y="41" width="1" height="1" fill="#819796" />
<rect x="121" y="41" width="1" height="1" fill="#A8B5B2" />
<rect x="122" y="41" width="1" height="1" fill="#819796" />
<rect x="108" y="42" width="1" height="1" fill="#394A50" />
<rect x="109" y="42" width="1" height="1" fill="#577277" />
<rect x="110" y="42" width="1" height="1" fill="#394A50" />
<rect x="111" y="42" width="1" height="1" fill="#577277" />
<rect x="112" y="42" width="1" height="1" fill="#394A50" />
<rect x="113" y="42" width="1" height="1" fill="#577277" />
<rect x="114" y="42" width="1" height="1" fill="#394A50" />
<rect x="115" y="42" width="1" height="1" fill="#577277" />
<rect x="116" y="42" width="1" height="1" fill="#394A50" />
<rect x="117" y="42" width="1" height="1" fill="#577277" />
<rect x="118" y="42" width="1" height="1" fill="#394A50" />
<rect x="119" y="42" width="1" height="1" fill="#577277" />
<rect x="120" y="42" width="1" height="1" fill="#394A50" />
<rect x="121" y="42" width="1" height="1" fill="#577277" />
<rect x="122" y="42" width="1" height="1" fill="#394A50" />
<rect x="108" y="43" width="1" height="1" fill="#819796" />
<rect x="109" y="43" width="1" height="1" fill="#A8B5B2" />
<rect x="111" y="43" width="1" height="1" fill="#A8B5B2" />
<rect x="112" y="43" width="1" height="1" fill="#819796" />
<rect x="113" y="43" width="1" height="1" fill="#A8B5B2" />
<rect x="114" y="43" width="1" height="1" fill="#819796" />
<rect x="115" y="43" width="1" height="1" fill="#A8B5B2" />
<rect x="116" y="43" width="1" height="1" fill="#819796" />
<rect x="117" y="43" width="1" height="1" fill="#A8B5B2" />
<rect x="118" y="43" width="1" height="1" fill="#819796" />
<rect x="119" y="43" width="1" height="1" fill="#A8B5B2" />
<rect x="121" y="43" width="1" height="1" fill="#A8B5B2" />
<rect x="122" y="43" width="1" height="1" fill="#819796" />
<rect x="123" y="43" width="1" height="1" fill="#A8B5B2" />
<rect x="107" y="44" width="1" height="1" fill="#577277" />
<rect x="108" y="44" width="1" height="1" fill="#394A50" />
<rect x="109" y="44" width="1" height="1" fill="#577277" />
<rect x="111" y="44" width="1" height="1" fill="#577277" />
<rect x="112" y="44" width="1" height="1" fill="#394A50" />
<rect x="113" y="44" width="1" height="1" fill="#577277" />
<rect x="114" y="44" width="1" height="1" fill="#394A50" />
<rect x="115" y="44" width="1" height="1" fill="#577277" />
<rect x="116" y="44" width="1" height="1" fill="#394A50" />
<rect x="117" y="44" width="1" height="1" fill="#577277" />
<rect x="118" y="44" width="1" height="1" fill="#394A50" />
<rect x="119" y="44" width="1" height="1" fill="#577277" />
<rect x="121" y="44" width="1" height="1" fill="#577277" />
<rect x="122" y="44" width="1" height="1" fill="#394A50" />
<rect x="123" y="44" width="1" height="1" fill="#577277" />
<rect x="107" y="45" width="1" height="1" fill="#A8B5B2" />
<rect x="108" y="45" width="1" height="1" fill="#819796" />
<rect x="111" y="45" width="1" height="1" fill="#A8B5B2" />
<rect x="112" y="45" width="1" height="1" fill="#819796" />
<rect x="113" y="45" width="1" height="1" fill="#A8B5B2" />
<rect x="114" y="45" width="1" height="1" fill="#819796" />
<rect x="115" y="45" width="1" height="1" fill="#A8B5B2" />
<rect x="116" y="45" width="1" height="1" fill="#819796" />
<rect x="117" y="45" width="1" height="1" fill="#A8B5B2" />
<rect x="118" y="45" width="1" height="1" fill="#819796" />
<rect x="119" y="45" width="1" height="1" fill="#A8B5B2" />
<rect x="122" y="45" width="1" height="1" fill="#819796" />
<rect x="123" y="45" width="1" height="1" fill="#A8B5B2" />
<rect x="124" y="45" width="1" height="1" fill="#819796" />
<rect x="107" y="46" width="1" height="1" fill="#577277" />
<rect x="108" y="46" width="1" height="1" fill="#394A50" />
<rect x="111" y="46" width="1" height="1" fill="#577277" />
<rect x="112" y="46" width="1" height="1" fill="#394A50" />
<rect x="113" y="46" width="1" height="1" fill="#577277" />
<rect x="114" y="46" width="1" height="1" fill="#394A50" />
<rect x="115" y="46" width="1" height="1" fill="#577277" />
<rect x="116" y="46" width="1" height="1" fill="#394A50" />
<rect x="117" y="46" width="1" height="1" fill="#577277" />
<rect x="118" y="46" width="1" height="1" fill="#394A50" />
<rect x="119" y="46" width="1" height="1" fill="#577277" />
<rect x="122" y="46" width="1" height="1" fill="#394A50" />
<rect x="123" y="46" width="1" height="1" fill="#577277" />
<rect x="124" y="46" width="1" height="1" fill="#394A50" />
<rect x="106" y="47" width="1" height="1" fill="#819796" />
<rect x="107" y="47" width="1" height="1" fill="#A8B5B2" />
<rect x="108" y="47" width="1" height="1" fill="#819796" />
<rect x="111" y="47" width="1" height="1" fill="#A8B5B2" />
<rect x="112" y="47" width="1" height="1" fill="#819796" />
<rect x="113" y="47" width="1" height="1" fill="#A8B5B2" />
<rect x="114" y="47" width="1" height="1" fill="#819796" />
<rect x="115" y="47" width="1" height="1" fill="#A8B5B2" />
<rect x="116" y="47" width="1" height="1" fill="#819796" />
<rect x="117" y="47" width="1" height="1" fill="#A8B5B2" />
<rect x="118" y="47" width="1" height="1" fill="#819796" />
<rect x="119" y="47" width="1" height="1" fill="#A8B5B2" />
<rect x="123" y="47" width="1" height="1" fill="#202E37" />
<rect x="124" y="47" width="1" height="1" fill="#202E37" />
<rect x="106" y="48" width="1" height="1" fill="#202E37" />
<rect x="107" y="48" width="1" height="1" fill="#202E37" />
<rect x="111" y="48" width="1" height="1" fill="#602C2C" />
<rect x="112" y="48" width="1" height="1" fill="#602C2C" />
<rect x="113" y="48" width="1" height="1" fill="#602C2C" />
<rect x="114" y="48" width="1" height="1" fill="#7A4841" />
<rect x="115" y="48" width="1" height="1" fill="#7A4841" />
<rect x="116" y="48" width="1" height="1" fill="#602C2C" />
<rect x="117" y="48" width="1" height="1" fill="#602C2C" />
<rect x="118" y="48" width="1" height="1" fill="#602C2C" />
<rect x="119" y="48" width="1" height="1" fill="#341C27" />
<rect x="123" y="48" width="1" height="1" fill="#D7B594" />
<rect x="124" y="48" width="1" height="1" fill="#E7D5B3" />
<rect x="125" y="48" width="1" height="1" fill="#E7D5B3" />
<rect x="106" y="49" width="1" height="1" fill="#E7D5B3" />
<rect x="107" y="49" width="1" height="1" fill="#E7D5B3" />
<rect x="111" y="49" width="1" height="1" fill="#151D28" />
<rect x="112" y="49" width="1" height="1" fill="#151D28" />
<rect x="113" y="49" width="1" height="1" fill="#151D28" />
<rect x="114" y="49" width="1" height="1" fill="#151D28" />
<rect x="115" y="49" width="1" height="1" fill="#151D28" />
<rect x="116" y="49" width="1" height="1" fill="#151D28" />
<rect x="117" y="49" width="1" height="1" fill="#151D28" />
<rect x="118" y="49" width="1" height="1" fill="#151D28" />
<rect x="119" y="49" width="1" height="1" fill="#090A14" />
<rect x="123" y="49" width="1" height="1" fill="#E7D5B3" />
<rect x="124" y="49" width="1" height="1" fill="#E7D5B3" />
<rect x="103" y="50" width="1" height="1" fill="#E8C170" />
<rect x="104" y="50" width="1" height="1" fill="#E8C170" />
<rect x="105" y="50" width="1" height="1" fill="#E7D5B3" />
<rect x="106" y="50" width="1" height="1" fill="#E7D5B3" />
<rect x="107" y="50" width="1" height="1" fill="#E8C170" />
<rect x="111" y="50" width="1" height="1" fill="#151D28" />
<rect x="112" y="50" width="1" height="1" fill="#151D28" />
<rect x="113" y="50" width="1" height="1" fill="#151D28" />
<rect x="114" y="50" width="1" height="1" fill="#151D28" />
<rect x="115" y="50" width="1" height="1" fill="#151D28" />
<rect x="116" y="50" width="1" height="1" fill="#151D28" />
<rect x="117" y="50" width="1" height="1" fill="#151D28" />
<rect x="118" y="50" width="1" height="1" fill="#151D28" />
<rect x="119" y="50" width="1" height="1" fill="#090A14" />
<rect x="103" y="51" width="1" height="1" fill="#E8C170" />
<rect x="104" y="51" width="1" height="1" fill="#E8C170" />
<rect x="105" y="51" width="1" height="1" fill="#E8C170" />
<rect x="106" y="51" width="1" height="1" fill="#E8C170" />
<rect x="107" y="51" width="1" height="1" fill="#E8C170" />
<rect x="111" y="51" width="1" height="1" fill="#151D28" />
<rect x="112" y="51" width="1" height="1" fill="#151D28" />
<rect x="113" y="51" width="1" height="1" fill="#151D28" />
<rect x="114" y="51" width="1" height="1" fill="#151D28" />
<rect x="115" y="51" width="1" height="1" fill="#151D28" />
<rect x="116" y="51" width="1" height="1" fill="#151D28" />
<rect x="117" y="51" width="1" height="1" fill="#151D28" />
<rect x="118" y="51" width="1" height="1" fill="#151D28" />
<rect x="119" y="51" width="1" height="1" fill="#090A14" />
<rect x="103" y="52" width="1" height="1" fill="#E8C170" />
<rect x="104" y="52" width="1" height="1" fill="#E8C170" />
<rect x="105" y="52" width="1" height="1" fill="#E8C170" />
<rect x="106" y="52" width="1" height="1" fill="#E8C170" />
<rect x="107" y="52" width="1" height="1" fill="#E8C170" />
<rect x="111" y="52" width="1" height="1" fill="#151D28" />
<rect x="112" y="52" width="1" height="1" fill="#151D28" />
<rect x="113" y="52" width="1" height="1" fill="#151D28" />
<rect x="114" y="52" width="1" height="1" fill="#151D28" />
<rect x="115" y="52" width="1" height="1" fill="#151D28" />
<rect x="116" y="52" width="1" height="1" fill="#151D28" />
<rect x="117" y="52" width="1" height="1" fill="#151D28" />
<rect x="118" y="52" width="1" height="1" fill="#151D28" />
<rect x="119" y="52" width="1" height="1" fill="#090A14" />
<rect x="103" y="53" width="1" height="1" fill="#DE9E41" />
<rect x="104" y="53" width="1" height="1" fill="#DE9E41" />
<rect x="105" y="53" width="1" height="1" fill="#DE9E41" />
<rect x="106" y="53" width="1" height="1" fill="#DE9E41" />
<rect x="107" y="53" width="1" height="1" fill="#DE9E41" />
<rect x="111" y="53" width="1" height="1" fill="#151D28" />
<rect x="112" y="53" width="1" height="1" fill="#151D28" />
<rect x="113" y="53" width="1" height="1" fill="#151D28" />
<rect x="114" y="53" width="1" height="1" fill="#151D28" />
<rect x="115" y="53" width="1" height="1" fill="#151D28" />
<rect x="116" y="53" width="1" height="1" fill="#151D28" />
<rect x="117" y="53" width="1" height="1" fill="#151D28" />
<rect x="118" y="53" width="1" height="1" fill="#151D28" />
<rect x="119" y="53" width="1" height="1" fill="#090A14" />
<rect x="103" y="54" width="1" height="1" fill="#DE9E41" />
<rect x="104" y="54" width="1" height="1" fill="#DE9E41" />
<rect x="105" y="54" width="1" height="1" fill="#DE9E41" />
<rect x="106" y="54" width="1" height="1" fill="#DE9E41" />
<rect x="107" y="54" width="1" height="1" fill="#DE9E41" />
<rect x="111" y="54" width="1" height="1" fill="#151D28" />
<rect x="112" y="54" width="1" height="1" fill="#151D28" />
<rect x="113" y="54" width="1" height="1" fill="#090A14" />
<rect x="117" y="54" width="1" height="1" fill="#151D28" />
<rect x="118" y="54" width="1" height="1" fill="#151D28" />
<rect x="119" y="54" width="1" height="1" fill="#090A14" />
<rect x="105" y="55" width="1" height="1" fill="#DE9E41" />
<rect x="106" y="55" width="1" height="1" fill="#DE9E41" />
<rect x="107" y="55" width="1" height="1" fill="#DE9E41" />
<rect x="111" y="55" width="1" height="1" fill="#151D28" />
<rect x="112" y="55" width="1" height="1" fill="#151D28" />
<rect x="113" y="55" width="1" height="1" fill="#090A14" />
<rect x="117" y="55" width="1" height="1" fill="#151D28" />
<rect x="118" y="55" width="1" height="1" fill="#151D28" />
<rect x="119" y="55" width="1" height="1" fill="#090A14" />
<rect x="111" y="56" width="1" height="1" fill="#151D28" />
<rect x="112" y="56" width="1" height="1" fill="#151D28" />
<rect x="113" y="56" width="1" height="1" fill="#090A14" />
<rect x="117" y="56" width="1" height="1" fill="#151D28" />
<rect x="118" y="56" width="1" height="1" fill="#151D28" />
<rect x="119" y="56" width="1" height="1" fill="#090A14" />
<rect x="111" y="57" width="1" height="1" fill="#090A14" />
<rect x="112" y="57" width="1" height="1" fill="#151D28" />
<rect x="113" y="57" width="1" height="1" fill="#090A14" />
<rect x="117" y="57" width="1" height="1" fill="#090A14" />
<rect x="118" y="57" width="1" height="1" fill="#151D28" />
<rect x="119" y="57" width="1" height="1" fill="#090A14" />
<rect x="111" y="58" width="1" height="1" fill="#151D28" />
<rect x="112" y="58" width="1" height="1" fill="#151D28" />
<rect x="113" y="58" width="1" height="1" fill="#090A14" />
<rect x="117" y="58" width="1" height="1" fill="#151D28" />
<rect x="118" y="58" width="1" height="1" fill="#151D28" />
<rect x="119" y="58" width="1" height="1" fill="#090A14" />
<rect x="111" y="59" width="1" height="1" fill="#151D28" />
<rect x="112" y="59" width="1" height="1" fill="#151D28" />
<rect x="113" y="59" width="1" height="1" fill="#090A14" />
<rect x="117" y="59" width="1" height="1" fill="#151D28" />
<rect x="118" y="59" width="1" height="1" fill="#151D28" />
<rect x="119" y="59" width="1" height="1" fill="#090A14" />
<rect x="111" y="60" width="1" height="1" fill="#151D28" />
<rect x="112" y="60" width="1" height="1" fill="#151D28" />
<rect x="113" y="60" width="1" height="1" fill="#090A14" />
<rect x="117" y="60" width="1" height="1" fill="#151D28" />
<rect x="118" y="60" width="1" height="1" fill="#151D28" />
<rect x="119" y="60" width="1" height="1" fill="#090A14" />
<rect x="124" y="60" width="1" height="1" fill="#172038" />
<rect x="111" y="61" width="1" height="1" fill="#4D2B32" />
<rect x="112" y="61" width="1" height="1" fill="#602C2C" />
<rect x="113" y="61" width="1" height="1" fill="#341C27" />
<rect x="117" y="61" width="1" height="1" fill="#4D2B32" />
<rect x="118" y="61" width="1" height="1" fill="#602C2C" />
<rect x="119" y="61" width="1" height="1" fill="#341C27" />
<rect x="126" y="61" width="1" height="1" fill="#172038" />
<rect x="127" y="61" width="1" height="1" fill="#172038" />
<rect x="128" y="61" width="1" height="1" fill="#172038" />
<rect x="129" y="61" width="1" height="1" fill="#172038" />
<rect x="110" y="62" width="1" height="1" fill="#602C2C" />
<rect x="111" y="62" width="1" height="1" fill="#602C2C" />
<rect x="112" y="62" width="1" height="1" fill="#602C2C" />
<rect x="113" y="62" width="1" height="1" fill="#341C27" />
<rect x="116" y="62" width="1" height="1" fill="#602C2C" />
<rect x="117" y="62" width="1" height="1" fill="#602C2C" />
<rect x="118" y="62" width="1" height="1" fill="#602C2C" />
<rect x="119" y="62" width="1" height="1" fill="#341C27" />
<rect x="123" y="62" width="1" height="1" fill="#172038" />
<rect x="125" y="62" width="1" height="1" fill="#172038" />
<rect x="126" y="62" width="1" height="1" fill="#172038" />
<rect x="127" y="62" width="1" height="1" fill="#172038" />
<rect x="128" y="62" width="1" height="1" fill="#172038" />
<rect x="129" y="62" width="1" height="1" fill="#172038" />
<rect x="105" y="63" width="1" height="1" fill="#FFFFFF" />
<rect x="106" y="63" width="1" height="1" fill="#FFFFFF" />
<rect x="107" y="63" width="1" height="1" fill="#FFFFFF" />
<rect x="108" y="63" width="1" height="1" fill="#FFFFFF" />
<rect x="109" y="63" width="1" height="1" fill="#FFFFFF" />
<rect x="110" y="63" width="1" height="1" fill="#151D28" />
<rect x="111" y="63" width="1" height="1" fill="#151D28" />
<rect x="112" y="63" width="1" height="1" fill="#151D28" />
<rect x="113" y="63" width="1" height="1" fill="#090A14" />
<rect x="116" y="63" width="1" height="1" fill="#151D28" />
<rect x="117" y="63" width="1" height="1" fill="#151D28" />
<rect x="118" y="63" width="1" height="1" fill="#151D28" />
<rect x="119" y="63" width="1" height="1" fill="#090A14" />
<rect x="122" y="63" width="1" height="1" fill="#172038" />
<rect x="123" y="63" width="1" height="1" fill="#172038" />
<rect x="126" y="63" width="1" height="1" fill="#A53030" />
<rect x="127" y="63" width="1" height="1" fill="#A53030" />
<rect x="128" y="63" width="1" height="1" fill="#A53030" />
</svg>