<?xml version="1.0" encoding="UTF-8" ?>
<svg version="1.1" width="48" height="48" xmlns="http://www.w3.org/2000/svg" shape-rendering="crispEdges">
<rect x="8" y="35" width="1" height="1" fill="#D7B594" />
<rect x="9" y="35" width="1" height="1" fill="#D7B594" />
<rect x="10" y="35" width="1" height="1" fill="#D7B594" />
<rect x="11" y="35" width="1" height="1" fill="#D7B594" />
<rect x="12" y="35" width="1" height="1" fill="#D7B594" />
<rect x="13" y="35" width="1" height="1" fill="#D7B594" />
<rect x="14" y="35" width="1" height="1" fill="#D7B594" />
<rect x="15" y="35" width="1" height="1" fill="#D7B594" />
<rect x="16" y="35" width="1" height="1" fill="#D7B594" />
<rect x="17" y="35" width="1" height="1" fill="#D7B594" />
<rect x="18" y="35" width="1" height="1" fill="#D7B594" />
<rect x="19" y="35" width="1" height="1" fill="#D7B594" />
<rect x="20" y="35" width="1" height="1" fill="#D7B594" />
<rect x="21" y="35" width="1" height="1" fill="#D7B594" />
<rect x="22" y="35" width="1" height="1" fill="#D7B594" />
<rect x="23" y="35" width="1" height="1" fill="#D7B594" />
<rect x="24" y="35" width="1" height="1" fill="#D7B594" />
<rect x="25" y="35" width="1" height="1" fill="#D7B594" />
<rect x="26" y="35" width="1" height="1" fill="#D7B594" />
<rect x="27" y="35" width="1" height="1" fill="#D7B594" />
<rect x="28" y="35" width="1" height="1" fill="#D7B594" />
<rect x="29" y="35" width="1" height="1" fill="#D7B594" />
<rect x="30" y="35" width="1" height="1" fill="#D7B594" />
<rect x="31" y="35" width="1" height="1" fill="#D7B594" />
<rect x="32" y="35" width="1" height="1" fill="#D7B594" />
<rect x="33" y="35" width="1" height="1" fill="#D7B594" />
<rect x="34" y="35" width="1" height="1" fill="#D7B594" />
<rect x="35" y="35" width="1" height="1" fill="#D7B594" />
<rect x="36" y="35" width="1" height="1" fill="#D7B594" />
<rect x="37" y="35" width="1" height="1" fill="#D7B594" />
<rect x="38" y="35" width="1" height="1" fill="#D7B594" />
<rect x="39" y="35" width="1" height="1" fill="#D7B594" />
<rect x="7" y="36" width="1" height="1" fill="#D7B594" />
<rect x="8" y="36" width="1" height="1" fill="#D7B594" />
<rect x="9" y="36" width="1" height="1" fill="#D7B594" />
<rect x="10" y="36" width="1" height="1" fill="#D7B594" />
<rect x="11" y="36" width="1" height="1" fill="#D7B594" />
<rect x="12" y="36" width="1" height="1" fill="#D7B594" />
<rect x="13" y="36" width="1" height="1" fill="#D7B594" />
<rect x="14" y="36" width="1" height="1" fill="#D7B594" />
<rect x="15" y="36" width="1" height="1" fill="#D7B594" />
<rect x="16" y="36" width="1" height="1" fill="#D7B594" />
<rect x="17" y="36" width="1" height="1" fill="#D7B594" />
<rect x="18" y="36" width="1" height="1" fill="#D7B594" />
<rect x="19" y="36" width="1" height="1" fill="#D7B594" />
<rect x="20" y="36" width="1" height="1" fill="#D7B594" />
<rect x="21" y="36" width="1" height="1" fill="#D7B594" />
<rect x="22" y="36" width="1" height="1" fill="#D7B594" />
<rect x="23" y="36" width="1" height="1" fill="#D7B594" />
<rect x="24" y="36" width="1" height="1" fill="#D7B594" />
<rect x="25" y="36" width="1" height="1" fill="#D7B594" />
<rect x="26" y="36" width="1" height="1" fill="#D7B594" />
<rect x="27" y="36" width="1" height="1" fill="#D7B594" />
<rect x="28" y="36" width="1" height="1" fill="#D7B594" />
<rect x="29" y="36" width="1" height="1" fill="#D7B594" />
<rect x="30" y="36" width="1" height="1" fill="#D7B594" />
<rect x="31" y="36" width="1" height="1" fill="#D7B594" />
<rect x="32" y="36" width="1" height="1" fill="#D7B594" />
<rect x="33" y="36" width="1" height="1" fill="#D7B594" />
<rect x="34" y="36" width="1" height="1" fill="#D7B594" />
<rect x="35" y="36" width="1" height="1" fill="#D7B594" />
<rect x="36" y="36" width="1" height="1" fill="#D7B594" />
<rect x="37" y="36" width="1" height="1" fill="#D7B594" />
<rect x="38" y="36" width="1" height="1" fill="#D7B594" />
<rect x="39" y="36" width="1" height="1" fill="#D7B594" />
<rect x="40" y="36" width="1" height="1" fill="#D7B594" />
<rect x="6" y="37" width="1" height="1" fill="#D7B594" />
<rect x="7" y="37" width="1" height="1" fill="#D7B594" />
<rect x="8" y="37" width="1" height="1" fill="#D7B594" />
<rect x="9" y="37" width="1" height="1" fill="#D7B594" />
<rect x="10" y="37" width="1" height="1" fill="#D7B594" />
<rect x="11" y="37" width="1" height="1" fill="#D7B594" />
<rect x="12" y="37" width="1" height="1" fill="#D7B594" />
<rect x="13" y="37" width="1" height="1" fill="#D7B594" />
<rect x="14" y="37" width="1" height="1" fill="#D7B594" />
<rect x="15" y="37" width="1" height="1" fill="#D7B594" />
<rect x="16" y="37" width="1" height="1" fill="#D7B594" />
<rect x="17" y="37" width="1" height="1" fill="#D7B594" />
<rect x="18" y="37" width="1" height="1" fill="#D7B594" />
<rect x="19" y="37" width="1" height="1" fill="#D7B594" />
<rect x="20" y="37" width="1" height="1" fill="#D7B594" />
<rect x="21" y="37" width="1" height="1" fill="#D7B594" />
<rect x="22" y="37" width="1" height="1" fill="#D7B594" />
<rect x="23" y="37" width="1" height="1" fill="#D7B594" />
<rect x="24" y="37" width="1" height="1" fill="#D7B594" />
<rect x="25" y="37" width="1" height="1" fill="#D7B594" />
<rect x="26" y="37" width="1" height="1" fill="#D7B594" />
<rect x="27" y="37" width="1" height="1" fill="#D7B594" />
<rect x="28" y="37" width="1" height="1" fill="#D7B594" />
<rect x="29" y="37" width="1" height="1" fill="#D7B594" />
<rect x="30" y="37" width="1" height="1" fill="#D7B594" />
<rect x="31" y="37" width="1" height="1" fill="#D7B594" />
<rect x="32" y="37" width="1" height="1" fill="#D7B594" />
<rect x="33" y="37" width="1" height="1" fill="#D7B594" />
<rect x="34" y="37" width="1" height="1" fill="#D7B594" />
<rect x="35" y="37" width="1" height="1" fill="#D7B594" />
<rect x="36" y="37" width="1" height="1" fill="#D7B594" />
<rect x="37" y="37" width="1" height="1" fill="#D7B594" />
<rect x="38" y="37" width="1" height="1" fill="#D7B594" />
<rect x="39" y="37" width="1" height="1" fill="#D7B594" />
<rect x="40" y="37" width="1" height="1" fill="#D7B594" />
<rect x="41" y="37" width="1" height="1" fill="#D7B594" />
<rect x="6" y="38" width="1" height="1" fill="#D7B594" />
<rect x="7" y="38" width="1" height="1" fill="#D7B594" />
<rect x="8" y="38" width="1" height="1" fill="#D7B594" />
<rect x="9" y="38" width="1" height="1" fill="#D7B594" />
<rect x="10" y="38" width="1" height="1" fill="#D7B594" />
<rect x="11" y="38" width="1" height="1" fill="#D7B594" />
<rect x="12" y="38" width="1" height="1" fill="#D7B594" />
<rect x="13" y="38" width="1" height="1" fill="#D7B594" />
<rect x="14" y="38" width="1" height="1" fill="#D7B594" />
<rect x="15" y="38" width="1" height="1" fill="#D7B594" />
<rect x="16" y="38" width="1" height="1" fill="#D7B594" />
<rect x="17" y="38" width="1" height="1" fill="#D7B594" />
<rect x="18" y="38" width="1" height="1" fill="#D7B594" />
<rect x="19" y="38" width="1" height="1" fill="#D7B594" />
<rect x="20" y="38" width="1" height="1" fill="#D7B594" />
<rect x="21" y="38" width="1" height="1" fill="#D7B594" />
<rect x="22" y="38" width="1" height="1" fill="#D7B594" />
<rect x="23" y="38" width="1" height="1" fill="#D7B594" />
<rect x="24" y="38" width="1" height="1" fill="#D7B594" />
<rect x="25" y="38" width="1" height="1" fill="#D7B594" />
<rect x="26" y="38" width="1" height="1" fill="#D7B594" />
<rect x="27" y="38" width="1" height="1" fill="#D7B594" />
<rect x="28" y="38" width="1" height="1" fill="#D7B594" />
<rect x="29" y="38" width="1" height="1" fill="#D7B594" />
<rect x="30" y="38" width="1" height="1" fill="#D7B594" />
<rect x="31" y="38" width="1" height="1" fill="#D7B594" />
<rect x="32" y="38" width="1" height="1" fill="#D7B594" />
<rect x="33" y="38" width="1" height="1" fill="#D7B594" />
<rect x="34" y="38" width="1" height="1" fill="#D7B594" />
<rect x="35" y="38" width="1" height="1" fill="#D7B594" />
<rect x="36" y="38" width="1" height="1" fill="#D7B594" />
<rect x="37" y="38" width="1" height="1" fill="#D7B594" />
<rect x="38" y="38" width="1" height="1" fill="#D7B594" />
<rect x="39" y="38" width="1" height="1" fill="#D7B594" />
<rect x="40" y="38" width="1" height="1" fill="#D7B594" />
<rect x="41" y="38" width="1" height="1" fill="#D7B594" />
<rect x="6" y="39" width="1" height="1" fill="#D7B594" />
<rect x="7" y="39" width="1" height="1" fill="#D7B594" />
<rect x="8" y="39" width="1" height="1" fill="#D7B594" />
<rect x="9" y="39" width="1" height="1" fill="#D7B594" />
<rect x="10" y="39" width="1" height="1" fill="#D7B594" />
<rect x="11" y="39" width="1" height="1" fill="#D7B594" />
<rect x="12" y="39" width="1" height="1" fill="#D7B594" />
<rect x="13" y="39" width="1" height="1" fill="#D7B594" />
<rect x="14" y="39" width="1" height="1" fill="#D7B594" />
<rect x="15" y="39" width="1" height="1" fill="#D7B594" />
<rect x="16" y="39" width="1" height="1" fill="#D7B594" />
<rect x="17" y="39" width="1" height="1" fill="#D7B594" />
<rect x="18" y="39" width="1" height="1" fill="#D7B594" />
<rect x="19" y="39" width="1" height="1" fill="#D7B594" />
<rect x="20" y="39" width="1" height="1" fill="#D7B594" />
<rect x="21" y="39" width="1" height="1" fill="#D7B594" />
<rect x="22" y="39" width="1" height="1" fill="#D7B594" />
<rect x="23" y="39" width="1" height="1" fill="#D7B594" />
<rect x="24" y="39" width="1" height="1" fill="#D7B594" />
<rect x="25" y="39" width="1" height="1" fill="#D7B594" />
<rect x="26" y="39" width="1" height="1" fill="#D7B594" />
<rect x="27" y="39" width="1" height="1" fill="#D7B594" />
<rect x="28" y="39" width="1" height="1" fill="#D7B594" />
<rect x="29" y="39" width="1" height="1" fill="#D7B594" />
<rect x="30" y="39" width="1" height="1" fill="#D7B594" />
<rect x="31" y="39" width="1" height="1" fill="#D7B594" />
<rect x="32" y="39" width="1" height="1" fill="#D7B594" />
<rect x="33" y="39" width="1" height="1" fill="#D7B594" />
<rect x="34" y="39" width="1" height="1" fill="#D7B594" />
<rect x="35" y="39" width="1" height="1" fill="#D7B594" />
<rect x="36" y="39" width="1" height="1" fill="#D7B594" />
<rect x="37" y="39" width="1" height="1" fill="#D7B594" />
<rect x="38" y="39" width="1" height="1" fill="#D7B594" />
<rect x="39" y="39" width="1" height="1" fill="#D7B594" />
<rect x="40" y="39" width="1" height="1" fill="#D7B594" />
<rect x="41" y="39" width="1" height="1" fill="#D7B594" />
<rect x="6" y="40" width="1" height="1" fill="#D7B594" />
<rect x="7" y="40" width="1" height="1" fill="#D7B594" />
<rect x="8" y="40" width="1" height="1" fill="#D7B594" />
<rect x="9" y="40" width="1" height="1" fill="#D7B594" />
<rect x="10" y="40" width="1" height="1" fill="#D7B594" />
<rect x="11" y="40" width="1" height="1" fill="#D7B594" />
<rect x="12" y="40" width="1" height="1" fill="#D7B594" />
<rect x="13" y="40" width="1" height="1" fill="#D7B594" />
<rect x="14" y="40" width="1" height="1" fill="#D7B594" />
<rect x="15" y="40" width="1" height="1" fill="#D7B594" />
<rect x="16" y="40" width="1" height="1" fill="#D7B594" />
<rect x="17" y="40" width="1" height="1" fill="#D7B594" />
<rect x="18" y="40" width="1" height="1" fill="#D7B594" />
<rect x="19" y="40" width="1" height="1" fill="#D7B594" />
<rect x="20" y="40" width="1" height="1" fill="#D7B594" />
<rect x="21" y="40" width="1" height="1" fill="#D7B594" />
<rect x="22" y="40" width="1" height="1" fill="#D7B594" />
<rect x="23" y="40" width="1" height="1" fill="#D7B594" />
<rect x="24" y="40" width="1" height="1" fill="#D7B594" />
<rect x="25" y="40" width="1" height="1" fill="#D7B594" />
<rect x="26" y="40" width="1" height="1" fill="#D7B594" />
<rect x="27" y="40" width="1" height="1" fill="#D7B594" />
<rect x="28" y="40" width="1" height="1" fill="#D7B594" />
<rect x="29" y="40" width="1" height="1" fill="#D7B594" />
<rect x="30" y="40" width="1" height="1" fill="#D7B594" />
<rect x="31" y="40" width="1" height="1" fill="#D7B594" />
<rect x="32" y="40" width="1" height="1" fill="#D7B594" />
<rect x="33" y="40" width="1" height="1" fill="#D7B594" />
<rect x="34" y="40" width="1" height="1" fill="#D7B594" />
<rect x="35" y="40" width="1" height="1" fill="#D7B594" />
<rect x="36" y="40" width="1" height="1" fill="#D7B594" />
<rect x="37" y="40" width="1" height="1" fill="#D7B594" />
<rect x="38" y="40" width="1" height="1" fill="#D7B594" />
<rect x="39" y="40" width="1" height="1" fill="#D7B594" />
<rect x="40" y="40" width="1" height="1" fill="#D7B594" />
<rect x="41" y="40" width="1" height="1" fill="#D7B594" />
<rect x="6" y="41" width="1" height="1" fill="#D7B594" />
<rect x="7" y="41" width="1" height="1" fill="#D7B594" />
<rect x="8" y="41" width="1" height="1" fill="#D7B594" />
<rect x="9" y="41" width="1" height="1" fill="#D7B594" />
<rect x="10" y="41" width="1" height="1" fill="#D7B594" />
<rect x="11" y="41" width="1" height="1" fill="#D7B594" />
<rect x="12" y="41" width="1" height="1" fill="#D7B594" />
<rect x="13" y="41" width="1" height="1" fill="#D7B594" />
<rect x="14" y="41" width="1" height="1" fill="#D7B594" />
<rect x="15" y="41" width="1" height="1" fill="#D7B594" />
<rect x="16" y="41" width="1" height="1" fill="#D7B594" />
<rect x="17" y="41" width="1" height="1" fill="#D7B594" />
<rect x="18" y="41" width="1" height="1" fill="#D7B594" />
<rect x="19" y="41" width="1" height="1" fill="#D7B594" />
<rect x="20" y="41" width="1" height="1" fill="#D7B594" />
<rect x="21" y="41" width="1" height="1" fill="#D7B594" />
<rect x="22" y="41" width="1" height="1" fill="#D7B594" />
<rect x="23" y="41" width="1" height="1" fill="#D7B594" />
<rect x="24" y="41" width="1" height="1" fill="#D7B594" />
<rect x="25" y="41" width="1" height="1" fill="#D7B594" />
<rect x="26" y="41" width="1" height="1" fill="#D7B594" />
<rect x="27" y="41" width="1" height="1" fill="#D7B594" />
<rect x="28" y="41" width="1" height="1" fill="#D7B594" />
<rect x="29" y="41" width="1" height="1" fill="#D7B594" />
<rect x="30" y="41" width="1" height="1" fill="#D7B594" />
<rect x="31" y="41" width="1" height="1" fill="#D7B594" />
<rect x="32" y="41" width="1" height="1" fill="#D7B594" />
<rect x="33" y="41" width="1" height="1" fill="#D7B594" />
<rect x="34" y="41" width="1" height="1" fill="#D7B594" />
<rect x="35" y="41" width="1" height="1" fill="#D7B594" />
<rect x="36" y="41" width="1" height="1" fill="#D7B594" />
<rect x="37" y="41" width="1" height="1" fill="#D7B594" />
<rect x="38" y="41" width="1" height="1" fill="#D7B594" />
<rect x="39" y="41" width="1" height="1" fill="#D7B594" />
<rect x="40" y="41" width="1" height="1" fill="#D7B594" />
<rect x="41" y="41" width="1" height="1" fill="#D7B594" />
<rect x="6" y="42" width="1" height="1" fill="#C09473" />
<rect x="7" y="42" width="1" height="1" fill="#D7B594" />
<rect x="8" y="42" width="1" height="1" fill="#D7B594" />
<rect x="9" y="42" width="1" height="1" fill="#D7B594" />
<rect x="10" y="42" width="1" height="1" fill="#D7B594" />
<rect x="11" y="42" width="1" height="1" fill="#D7B594" />
<rect x="12" y="42" width="1" height="1" fill="#D7B594" />
<rect x="13" y="42" width="1" height="1" fill="#D7B594" />
<rect x="14" y="42" width="1" height="1" fill="#D7B594" />
<rect x="15" y="42" width="1" height="1" fill="#D7B594" />
<rect x="16" y="42" width="1" height="1" fill="#D7B594" />
<rect x="17" y="42" width="1" height="1" fill="#D7B594" />
<rect x="18" y="42" width="1" height="1" fill="#D7B594" />
<rect x="19" y="42" width="1" height="1" fill="#D7B594" />
<rect x="20" y="42" width="1" height="1" fill="#D7B594" />
<rect x="21" y="42" width="1" height="1" fill="#D7B594" />
<rect x="22" y="42" width="1" height="1" fill="#D7B594" />
<rect x="23" y="42" width="1" height="1" fill="#D7B594" />
<rect x="24" y="42" width="1" height="1" fill="#D7B594" />
<rect x="25" y="42" width="1" height="1" fill="#D7B594" />
<rect x="26" y="42" width="1" height="1" fill="#D7B594" />
<rect x="27" y="42" width="1" height="1" fill="#D7B594" />
<rect x="28" y="42" width="1" height="1" fill="#D7B594" />
<rect x="29" y="42" width="1" height="1" fill="#D7B594" />
<rect x="30" y="42" width="1" height="1" fill="#D7B594" />
<rect x="31" y="42" width="1" height="1" fill="#D7B594" />
<rect x="32" y="42" width="1" height="1" fill="#D7B594" />
<rect x="33" y="42" width="1" height="1" fill="#D7B594" />
<rect x="34" y="42" width="1" height="1" fill="#D7B594" />
<rect x="35" y="42" width="1" height="1" fill="#D7B594" />
<rect x="36" y="42" width="1" height="1" fill="#D7B594" />
<rect x="37" y="42" width="1" height="1" fill="#D7B594" />
<rect x="38" y="42" width="1" height="1" fill="#D7B594" />
<rect x="39" y="42" width="1" height="1" fill="#D7B594" />
<rect x="40" y="42" width="1" height="1" fill="#D7B594" />
<rect x="41" y="42" width="1" height="1" fill="#C09473" />
<rect x="7" y="43" width="1" height="1" fill="#C09473" />
<rect x="8" y="43" width="1" height="1" fill="#D7B594" />
<rect x="9" y="43" width="1" height="1" fill="#D7B594" />
<rect x="10" y="43" width="1" height="1" fill="#D7B594" />
<rect x="11" y="43" width="1" height="1" fill="#D7B594" />
<rect x="12" y="43" width="1" height="1" fill="#D7B594" />
<rect x="13" y="43" width="1" height="1" fill="#D7B594" />
<rect x="14" y="43" width="1" height="1" fill="#D7B594" />
<rect x="15" y="43" width="1" height="1" fill="#D7B594" />
<rect x="16" y="43" width="1" height="1" fill="#D7B594" />
<rect x="17" y="43" width="1" height="1" fill="#D7B594" />
<rect x="18" y="43" width="1" height="1" fill="#D7B594" />
<rect x="19" y="43" width="1" height="1" fill="#D7B594" />
<rect x="20" y="43" width="1" height="1" fill="#D7B594" />
<rect x="21" y="43" width="1" height="1" fill="#D7B594" />
<rect x="22" y="43" width="1" height="1" fill="#D7B594" />
<rect x="23" y="43" width="1" height="1" fill="#D7B594" />
<rect x="24" y="43" width="1" height="1" fill="#D7B594" />
<rect x="25" y="43" width="1" height="1" fill="#D7B594" />
<rect x="26" y="43" width="1" height="1" fill="#D7B594" />
<rect x="27" y="43" width="1" height="1" fill="#D7B594" />
<rect x="28" y="43" width="1" height="1" fill="#D7B594" />
<rect x="29" y="43" width="1" height="1" fill="#D7B594" />
<rect x="30" y="43" width="1" height="1" fill="#D7B594" />
<rect x="31" y="43" width="1" height="1" fill="#D7B594" />
<rect x="32" y="43" width="1" height="1" fill="#D7B594" />
<rect x="33" y="43" width="1" height="1" fill="#D7B594" />
<rect x="34" y="43" width="1" height="1" fill="#D7B594" />
<rect x="35" y="43" width="1" height="1" fill="#D7B594" />
<rect x="36" y="43" width="1" height="1" fill="#D7B594" />
<rect x="37" y="43" width="1" height="1" fill="#D7B594" />
<rect x="38" y="43" width="1" height="1" fill="#D7B594" />
<rect x="39" y="43" width="1" height="1" fill="#D7B594" />
<rect x="40" y="43" width="1" height="1" fill="#C09473" />
<rect x="8" y="44" width="1" height="1" fill="#C09473" />
<rect x="9" y="44" width="1" height="1" fill="#C09473" />
<rect x="10" y="44" width="1" height="1" fill="#C09473" />
<rect x="11" y="44" width="1" height="1" fill="#C09473" />
<rect x="12" y="44" width="1" height="1" fill="#C09473" />
<rect x="13" y="44" width="1" height="1" fill="#C09473" />
<rect x="14" y="44" width="1" height="1" fill="#C09473" />
<rect x="15" y="44" width="1" height="1" fill="#C09473" />
<rect x="16" y="44" width="1" height="1" fill="#C09473" />
<rect x="17" y="44" width="1" height="1" fill="#C09473" />
<rect x="18" y="44" width="1" height="1" fill="#C09473" />
<rect x="19" y="44" width="1" height="1" fill="#C09473" />
<rect x="20" y="44" width="1" height="1" fill="#C09473" />
<rect x="21" y="44" width="1" height="1" fill="#C09473" />
<rect x="22" y="44" width="1" height="1" fill="#C09473" />
<rect x="23" y="44" width="1" height="1" fill="#C09473" />
<rect x="24" y="44" width="1" height="1" fill="#C09473" />
<rect x="25" y="44" width="1" height="1" fill="#C09473" />
<rect x="26" y="44" width="1" height="1" fill="#C09473" />
<rect x="27" y="44" width="1" height="1" fill="#C09473" />
<rect x="28" y="44" width="1" height="1" fill="#C09473" />
<rect x="29" y="44" width="1" height="1" fill="#C09473" />
<rect x="30" y="44" width="1" height="1" fill="#C09473" />
<rect x="31" y="44" width="1" height="1" fill="#C09473" />
<rect x="32" y="44" width="1" height="1" fill="#C09473" />
<rect x="33" y="44" width="1" height="1" fill="#C09473" />
<rect x="34" y="44" width="1" height="1" fill="#C09473" />
<rect x="35" y="44" width="1" height="1" fill="#C09473" />
<rect x="36" y="44" width="1" height="1" fill="#C09473" />
<rect x="37" y="44" width="1" height="1" fill="#C09473" />
<rect x="38" y="44" width="1" height="1" fill="#C09473" />
<rect x="39" y="44" width="1" height="1" fill="#C09473" />
</svg>