<?xml version="1.0" encoding="UTF-8" ?>
<svg version="1.1" width="144" height="144" xmlns="http://www.w3.org/2000/svg" shape-rendering="crispEdges">
<rect x="120" y="105" width="1" height="1" fill="#7A4841" />
<rect x="121" y="105" width="1" height="1" fill="#7A4841" />
<rect x="122" y="105" width="1" height="1" fill="#7A4841" />
<rect x="123" y="105" width="1" height="1" fill="#7A4841" />
<rect x="124" y="105" width="1" height="1" fill="#7A4841" />
<rect x="119" y="106" width="1" height="1" fill="#7A4841" />
<rect x="120" y="106" width="1" height="1" fill="#C09473" />
<rect x="121" y="106" width="1" height="1" fill="#C09473" />
<rect x="122" y="106" width="1" height="1" fill="#C09473" />
<rect x="123" y="106" width="1" height="1" fill="#C09473" />
<rect x="124" y="106" width="1" height="1" fill="#C09473" />
<rect x="125" y="106" width="1" height="1" fill="#7A4841" />
<rect x="126" y="106" width="1" height="1" fill="#7A4841" />
<rect x="117" y="107" width="1" height="1" fill="#7A4841" />
<rect x="118" y="107" width="1" height="1" fill="#7A4841" />
<rect x="119" y="107" width="1" height="1" fill="#C09473" />
<rect x="120" y="107" width="1" height="1" fill="#C09473" />
<rect x="121" y="107" width="1" height="1" fill="#C09473" />
<rect x="122" y="107" width="1" height="1" fill="#C09473" />
<rect x="123" y="107" width="1" height="1" fill="#C09473" />
<rect x="124" y="107" width="1" height="1" fill="#C09473" />
<rect x="125" y="107" width="1" height="1" fill="#C09473" />
<rect x="126" y="107" width="1" height="1" fill="#C09473" />
<rect x="127" y="107" width="1" height="1" fill="#7A4841" />
<rect x="116" y="108" width="1" height="1" fill="#7A4841" />
<rect x="117" y="108" width="1" height="1" fill="#C09473" />
<rect x="118" y="108" width="1" height="1" fill="#C09473" />
<rect x="119" y="108" width="1" height="1" fill="#C09473" />
<rect x="120" y="108" width="1" height="1" fill="#C09473" />
<rect x="121" y="108" width="1" height="1" fill="#C09473" />
<rect x="122" y="108" width="1" height="1" fill="#C09473" />
<rect x="123" y="108" width="1" height="1" fill="#C09473" />
<rect x="124" y="108" width="1" height="1" fill="#C09473" />
<rect x="125" y="108" width="1" height="1" fill="#C09473" />
<rect x="126" y="108" width="1" height="1" fill="#C09473" />
<rect x="127" y="108" width="1" height="1" fill="#C09473" />
<rect x="128" y="108" width="1" height="1" fill="#7A4841" />
<rect x="129" y="108" width="1" height="1" fill="#7A4841" />
<rect x="114" y="109" width="1" height="1" fill="#7A4841" />
<rect x="115" y="109" width="1" height="1" fill="#7A4841" />
<rect x="116" y="109" width="1" height="1" fill="#C09473" />
<rect x="117" y="109" width="1" height="1" fill="#C09473" />
<rect x="118" y="109" width="1" height="1" fill="#C09473" />
<rect x="119" y="109" width="1" height="1" fill="#C09473" />
<rect x="120" y="109" width="1" height="1" fill="#A53030" />
<rect x="121" y="109" width="1" height="1" fill="#A53030" />
<rect x="122" y="109" width="1" height="1" fill="#C09473" />
<rect x="123" y="109" width="1" height="1" fill="#C09473" />
<rect x="124" y="109" width="1" height="1" fill="#C09473" />
<rect x="125" y="109" width="1" height="1" fill="#C09473" />
<rect x="126" y="109" width="1" height="1" fill="#C09473" />
<rect x="127" y="109" width="1" height="1" fill="#C09473" />
<rect x="128" y="109" width="1" height="1" fill="#C09473" />
<rect x="129" y="109" width="1" height="1" fill="#C09473" />
<rect x="130" y="109" width="1" height="1" fill="#7A4841" />
<rect x="131" y="109" width="1" height="1" fill="#7A4841" />
<rect x="113" y="110" width="1" height="1" fill="#7A4841" />
<rect x="114" y="110" width="1" height="1" fill="#C09473" />
<rect x="115" y="110" width="1" height="1" fill="#C09473" />
<rect x="116" y="110" width="1" height="1" fill="#C09473" />
<rect x="117" y="110" width="1" height="1" fill="#C09473" />
<rect x="118" y="110" width="1" height="1" fill="#A53030" />
<rect x="119" y="110" width="1" height="1" fill="#A53030" />
<rect x="120" y="110" width="1" height="1" fill="#CF573C" />
<rect x="121" y="110" width="1" height="1" fill="#CF573C" />
<rect x="122" y="110" width="1" height="1" fill="#A53030" />
<rect x="123" y="110" width="1" height="1" fill="#A53030" />
<rect x="124" y="110" width="1" height="1" fill="#C09473" />
<rect x="125" y="110" width="1" height="1" fill="#C09473" />
<rect x="126" y="110" width="1" height="1" fill="#C09473" />
<rect x="127" y="110" width="1" height="1" fill="#C09473" />
<rect x="128" y="110" width="1" height="1" fill="#C09473" />
<rect x="129" y="110" width="1" height="1" fill="#C09473" />
<rect x="130" y="110" width="1" height="1" fill="#C09473" />
<rect x="131" y="110" width="1" height="1" fill="#C09473" />
<rect x="132" y="110" width="1" height="1" fill="#7A4841" />
<rect x="111" y="111" width="1" height="1" fill="#7A4841" />
<rect x="112" y="111" width="1" height="1" fill="#7A4841" />
<rect x="113" y="111" width="1" height="1" fill="#C09473" />
<rect x="114" y="111" width="1" height="1" fill="#C09473" />
<rect x="115" y="111" width="1" height="1" fill="#C09473" />
<rect x="116" y="111" width="1" height="1" fill="#C09473" />
<rect x="117" y="111" width="1" height="1" fill="#A53030" />
<rect x="118" y="111" width="1" height="1" fill="#CF573C" />
<rect x="119" y="111" width="1" height="1" fill="#CF573C" />
<rect x="120" y="111" width="1" height="1" fill="#CF573C" />
<rect x="121" y="111" width="1" height="1" fill="#CF573C" />
<rect x="122" y="111" width="1" height="1" fill="#CF573C" />
<rect x="123" y="111" width="1" height="1" fill="#CF573C" />
<rect x="124" y="111" width="1" height="1" fill="#A53030" />
<rect x="125" y="111" width="1" height="1" fill="#C09473" />
<rect x="126" y="111" width="1" height="1" fill="#C09473" />
<rect x="127" y="111" width="1" height="1" fill="#C09473" />
<rect x="128" y="111" width="1" height="1" fill="#C09473" />
<rect x="129" y="111" width="1" height="1" fill="#C09473" />
<rect x="130" y="111" width="1" height="1" fill="#C09473" />
<rect x="131" y="111" width="1" height="1" fill="#C09473" />
<rect x="132" y="111" width="1" height="1" fill="#C09473" />
<rect x="133" y="111" width="1" height="1" fill="#7A4841" />
<rect x="134" y="111" width="1" height="1" fill="#7A4841" />
<rect x="109" y="112" width="1" height="1" fill="#7A4841" />
<rect x="110" y="112" width="1" height="1" fill="#7A4841" />
<rect x="111" y="112" width="1" height="1" fill="#C09473" />
<rect x="112" y="112" width="1" height="1" fill="#C09473" />
<rect x="113" y="112" width="1" height="1" fill="#C09473" />
<rect x="114" y="112" width="1" height="1" fill="#C09473" />
<rect x="115" y="112" width="1" height="1" fill="#A53030" />
<rect x="116" y="112" width="1" height="1" fill="#A53030" />
<rect x="117" y="112" width="1" height="1" fill="#CF573C" />
<rect x="118" y="112" width="1" height="1" fill="#CF573C" />
<rect x="119" y="112" width="1" height="1" fill="#CF573C" />
<rect x="120" y="112" width="1" height="1" fill="#CF573C" />
<rect x="121" y="112" width="1" height="1" fill="#CF573C" />
<rect x="122" y="112" width="1" height="1" fill="#CF573C" />
<rect x="123" y="112" width="1" height="1" fill="#CF573C" />
<rect x="124" y="112" width="1" height="1" fill="#CF573C" />
<rect x="125" y="112" width="1" height="1" fill="#A53030" />
<rect x="126" y="112" width="1" height="1" fill="#C09473" />
<rect x="127" y="112" width="1" height="1" fill="#C09473" />
<rect x="128" y="112" width="1" height="1" fill="#C09473" />
<rect x="129" y="112" width="1" height="1" fill="#C09473" />
<rect x="130" y="112" width="1" height="1" fill="#C09473" />
<rect x="131" y="112" width="1" height="1" fill="#C09473" />
<rect x="132" y="112" width="1" height="1" fill="#C09473" />
<rect x="133" y="112" width="1" height="1" fill="#C09473" />
<rect x="134" y="112" width="1" height="1" fill="#C09473" />
<rect x="135" y="112" width="1" height="1" fill="#7A4841" />
<rect x="108" y="113" width="1" height="1" fill="#7A4841" />
<rect x="109" y="113" width="1" height="1" fill="#C09473" />
<rect x="110" y="113" width="1" height="1" fill="#C09473" />
<rect x="111" y="113" width="1" height="1" fill="#C09473" />
<rect x="112" y="113" width="1" height="1" fill="#C09473" />
<rect x="113" y="113" width="1" height="1" fill="#A53030" />
<rect x="114" y="113" width="1" height="1" fill="#A53030" />
<rect x="115" y="113" width="1" height="1" fill="#CF573C" />
<rect x="116" y="113" width="1" height="1" fill="#CF573C" />
<rect x="117" y="113" width="1" height="1" fill="#C7CFCC" />
<rect x="118" y="113" width="1" height="1" fill="#C7CFCC" />
<rect x="119" y="113" width="1" height="1" fill="#CF573C" />
<rect x="120" y="113" width="1" height="1" fill="#CF573C" />
<rect x="121" y="113" width="1" height="1" fill="#CF573C" />
<rect x="122" y="113" width="1" height="1" fill="#CF573C" />
<rect x="123" y="113" width="1" height="1" fill="#CF573C" />
<rect x="124" y="113" width="1" height="1" fill="#CF573C" />
<rect x="125" y="113" width="1" height="1" fill="#A53030" />
<rect x="126" y="113" width="1" height="1" fill="#C09473" />
<rect x="127" y="113" width="1" height="1" fill="#C09473" />
<rect x="128" y="113" width="1" height="1" fill="#C09473" />
<rect x="129" y="113" width="1" height="1" fill="#C09473" />
<rect x="130" y="113" width="1" height="1" fill="#C09473" />
<rect x="131" y="113" width="1" height="1" fill="#C09473" />
<rect x="132" y="113" width="1" height="1" fill="#C09473" />
<rect x="133" y="113" width="1" height="1" fill="#C09473" />
<rect x="134" y="113" width="1" height="1" fill="#C09473" />
<rect x="135" y="113" width="1" height="1" fill="#C09473" />
<rect x="136" y="113" width="1" height="1" fill="#7A4841" />
<rect x="137" y="113" width="1" height="1" fill="#7A4841" />
<rect x="106" y="114" width="1" height="1" fill="#7A4841" />
<rect x="107" y="114" width="1" height="1" fill="#7A4841" />
<rect x="108" y="114" width="1" height="1" fill="#C09473" />
<rect x="109" y="114" width="1" height="1" fill="#C09473" />
<rect x="110" y="114" width="1" height="1" fill="#C09473" />
<rect x="111" y="114" width="1" height="1" fill="#C09473" />
<rect x="112" y="114" width="1" height="1" fill="#A53030" />
<rect x="113" y="114" width="1" height="1" fill="#CF573C" />
<rect x="114" y="114" width="1" height="1" fill="#CF573C" />
<rect x="115" y="114" width="1" height="1" fill="#CF573C" />
<rect x="116" y="114" width="1" height="1" fill="#C7CFCC" />
<rect x="117" y="114" width="1" height="1" fill="#C7CFCC" />
<rect x="118" y="114" width="1" height="1" fill="#C7CFCC" />
<rect x="119" y="114" width="1" height="1" fill="#C7CFCC" />
<rect x="120" y="114" width="1" height="1" fill="#C7CFCC" />
<rect x="121" y="114" width="1" height="1" fill="#CF573C" />
<rect x="122" y="114" width="1" height="1" fill="#CF573C" />
<rect x="123" y="114" width="1" height="1" fill="#A53030" />
<rect x="124" y="114" width="1" height="1" fill="#A53030" />
<rect x="125" y="114" width="1" height="1" fill="#C09473" />
<rect x="126" y="114" width="1" height="1" fill="#C09473" />
<rect x="127" y="114" width="1" height="1" fill="#C09473" />
<rect x="128" y="114" width="1" height="1" fill="#C09473" />
<rect x="129" y="114" width="1" height="1" fill="#C09473" />
<rect x="130" y="114" width="1" height="1" fill="#C09473" />
<rect x="131" y="114" width="1" height="1" fill="#C09473" />
<rect x="132" y="114" width="1" height="1" fill="#C09473" />
<rect x="133" y="114" width="1" height="1" fill="#C09473" />
<rect x="134" y="114" width="1" height="1" fill="#C09473" />
<rect x="135" y="114" width="1" height="1" fill="#C09473" />
<rect x="136" y="114" width="1" height="1" fill="#C09473" />
<rect x="137" y="114" width="1" height="1" fill="#C09473" />
<rect x="138" y="114" width="1" height="1" fill="#7A4841" />
<rect x="105" y="115" width="1" height="1" fill="#7A4841" />
<rect x="106" y="115" width="1" height="1" fill="#C09473" />
<rect x="107" y="115" width="1" height="1" fill="#C09473" />
<rect x="108" y="115" width="1" height="1" fill="#C09473" />
<rect x="109" y="115" width="1" height="1" fill="#C09473" />
<rect x="110" y="115" width="1" height="1" fill="#C09473" />
<rect x="111" y="115" width="1" height="1" fill="#C09473" />
<rect x="112" y="115" width="1" height="1" fill="#C09473" />
<rect x="113" y="115" width="1" height="1" fill="#A53030" />
<rect x="114" y="115" width="1" height="1" fill="#CF573C" />
<rect x="115" y="115" width="1" height="1" fill="#CF573C" />
<rect x="116" y="115" width="1" height="1" fill="#CF573C" />
<rect x="117" y="115" width="1" height="1" fill="#CF573C" />
<rect x="118" y="115" width="1" height="1" fill="#C7CFCC" />
<rect x="119" y="115" width="1" height="1" fill="#C7CFCC" />
<rect x="120" y="115" width="1" height="1" fill="#CF573C" />
<rect x="121" y="115" width="1" height="1" fill="#CF573C" />
<rect x="122" y="115" width="1" height="1" fill="#A53030" />
<rect x="123" y="115" width="1" height="1" fill="#C09473" />
<rect x="124" y="115" width="1" height="1" fill="#C09473" />
<rect x="125" y="115" width="1" height="1" fill="#C09473" />
<rect x="126" y="115" width="1" height="1" fill="#C09473" />
<rect x="127" y="115" width="1" height="1" fill="#C09473" />
<rect x="128" y="115" width="1" height="1" fill="#C09473" />
<rect x="129" y="115" width="1" height="1" fill="#C09473" />
<rect x="130" y="115" width="1" height="1" fill="#C09473" />
<rect x="131" y="115" width="1" height="1" fill="#C09473" />
<rect x="132" y="115" width="1" height="1" fill="#C09473" />
<rect x="133" y="115" width="1" height="1" fill="#C09473" />
<rect x="134" y="115" width="1" height="1" fill="#C09473" />
<rect x="135" y="115" width="1" height="1" fill="#C09473" />
<rect x="136" y="115" width="1" height="1" fill="#C09473" />
<rect x="137" y="115" width="1" height="1" fill="#AD7757" />
<rect x="138" y="115" width="1" height="1" fill="#7A4841" />
<rect x="104" y="116" width="1" height="1" fill="#7A4841" />
<rect x="105" y="116" width="1" height="1" fill="#AD7757" />
<rect x="106" y="116" width="1" height="1" fill="#C09473" />
<rect x="107" y="116" width="1" height="1" fill="#C09473" />
<rect x="108" y="116" width="1" height="1" fill="#C09473" />
<rect x="109" y="116" width="1" height="1" fill="#C09473" />
<rect x="110" y="116" width="1" height="1" fill="#C09473" />
<rect x="111" y="116" width="1" height="1" fill="#C09473" />
<rect x="112" y="116" width="1" height="1" fill="#C09473" />
<rect x="113" y="116" width="1" height="1" fill="#C09473" />
<rect x="114" y="116" width="1" height="1" fill="#A53030" />
<rect x="115" y="116" width="1" height="1" fill="#A53030" />
<rect x="116" y="116" width="1" height="1" fill="#CF573C" />
<rect x="117" y="116" width="1" height="1" fill="#CF573C" />
<rect x="118" y="116" width="1" height="1" fill="#CF573C" />
<rect x="119" y="116" width="1" height="1" fill="#CF573C" />
<rect x="120" y="116" width="1" height="1" fill="#A53030" />
<rect x="121" y="116" width="1" height="1" fill="#A53030" />
<rect x="122" y="116" width="1" height="1" fill="#C09473" />
<rect x="123" y="116" width="1" height="1" fill="#C09473" />
<rect x="124" y="116" width="1" height="1" fill="#C09473" />
<rect x="125" y="116" width="1" height="1" fill="#C09473" />
<rect x="126" y="116" width="1" height="1" fill="#C09473" />
<rect x="127" y="116" width="1" height="1" fill="#C09473" />
<rect x="128" y="116" width="1" height="1" fill="#DF84A5" />
<rect x="129" y="116" width="1" height="1" fill="#C09473" />
<rect x="130" y="116" width="1" height="1" fill="#C09473" />
<rect x="131" y="116" width="1" height="1" fill="#C09473" />
<rect x="132" y="116" width="1" height="1" fill="#C09473" />
<rect x="133" y="116" width="1" height="1" fill="#C09473" />
<rect x="134" y="116" width="1" height="1" fill="#C09473" />
<rect x="135" y="116" width="1" height="1" fill="#C09473" />
<rect x="136" y="116" width="1" height="1" fill="#AD7757" />
<rect x="137" y="116" width="1" height="1" fill="#7A4841" />
<rect x="138" y="116" width="1" height="1" fill="#4D2B32" />
<rect x="104" y="117" width="1" height="1" fill="#4D2B32" />
<rect x="105" y="117" width="1" height="1" fill="#7A4841" />
<rect x="106" y="117" width="1" height="1" fill="#AD7757" />
<rect x="107" y="117" width="1" height="1" fill="#AD7757" />
<rect x="108" y="117" width="1" height="1" fill="#C09473" />
<rect x="109" y="117" width="1" height="1" fill="#C09473" />
<rect x="110" y="117" width="1" height="1" fill="#C09473" />
<rect x="111" y="117" width="1" height="1" fill="#C09473" />
<rect x="112" y="117" width="1" height="1" fill="#C09473" />
<rect x="113" y="117" width="1" height="1" fill="#C09473" />
<rect x="114" y="117" width="1" height="1" fill="#C09473" />
<rect x="115" y="117" width="1" height="1" fill="#C09473" />
<rect x="116" y="117" width="1" height="1" fill="#A53030" />
<rect x="117" y="117" width="1" height="1" fill="#A53030" />
<rect x="118" y="117" width="1" height="1" fill="#CF573C" />
<rect x="119" y="117" width="1" height="1" fill="#A53030" />
<rect x="120" y="117" width="1" height="1" fill="#C09473" />
<rect x="121" y="117" width="1" height="1" fill="#C09473" />
<rect x="122" y="117" width="1" height="1" fill="#C09473" />
<rect x="123" y="117" width="1" height="1" fill="#C09473" />
<rect x="124" y="117" width="1" height="1" fill="#C09473" />
<rect x="125" y="117" width="1" height="1" fill="#C09473" />
<rect x="126" y="117" width="1" height="1" fill="#C09473" />
<rect x="127" y="117" width="1" height="1" fill="#DE9E41" />
<rect x="128" y="117" width="1" height="1" fill="#E8C170" />
<rect x="129" y="117" width="1" height="1" fill="#C09473" />
<rect x="130" y="117" width="1" height="1" fill="#C09473" />
<rect x="131" y="117" width="1" height="1" fill="#C09473" />
<rect x="132" y="117" width="1" height="1" fill="#C09473" />
<rect x="133" y="117" width="1" height="1" fill="#C09473" />
<rect x="134" y="117" width="1" height="1" fill="#C09473" />
<rect x="135" y="117" width="1" height="1" fill="#AD7757" />
<rect x="136" y="117" width="1" height="1" fill="#7A4841" />
<rect x="137" y="117" width="1" height="1" fill="#4D2B32" />
<rect x="105" y="118" width="1" height="1" fill="#4D2B32" />
<rect x="106" y="118" width="1" height="1" fill="#7A4841" />
<rect x="107" y="118" width="1" height="1" fill="#7A4841" />
<rect x="108" y="118" width="1" height="1" fill="#AD7757" />
<rect x="109" y="118" width="1" height="1" fill="#C09473" />
<rect x="110" y="118" width="1" height="1" fill="#C09473" />
<rect x="111" y="118" width="1" height="1" fill="#C09473" />
<rect x="112" y="118" width="1" height="1" fill="#C09473" />
<rect x="113" y="118" width="1" height="1" fill="#C09473" />
<rect x="114" y="118" width="1" height="1" fill="#C09473" />
<rect x="115" y="118" width="1" height="1" fill="#C09473" />
<rect x="116" y="118" width="1" height="1" fill="#C09473" />
<rect x="117" y="118" width="1" height="1" fill="#C09473" />
<rect x="118" y="118" width="1" height="1" fill="#A53030" />
<rect x="119" y="118" width="1" height="1" fill="#C09473" />
<rect x="120" y="118" width="1" height="1" fill="#C09473" />
<rect x="121" y="118" width="1" height="1" fill="#C09473" />
<rect x="122" y="118" width="1" height="1" fill="#C09473" />
<rect x="123" y="118" width="1" height="1" fill="#C09473" />
<rect x="124" y="118" width="1" height="1" fill="#C09473" />
<rect x="125" y="118" width="1" height="1" fill="#DE9E41" />
<rect x="126" y="118" width="1" height="1" fill="#DE9E41" />
<rect x="127" y="118" width="1" height="1" fill="#E8C170" />
<rect x="128" y="118" width="1" height="1" fill="#C09473" />
<rect x="129" y="118" width="1" height="1" fill="#C09473" />
<rect x="130" y="118" width="1" height="1" fill="#C09473" />
<rect x="131" y="118" width="1" height="1" fill="#C09473" />
<rect x="132" y="118" width="1" height="1" fill="#C09473" />
<rect x="133" y="118" width="1" height="1" fill="#AD7757" />
<rect x="134" y="118" width="1" height="1" fill="#AD7757" />
<rect x="135" y="118" width="1" height="1" fill="#7A4841" />
<rect x="136" y="118" width="1" height="1" fill="#4D2B32" />
<rect x="137" y="118" width="1" height="1" fill="#819796" />
<rect x="105" y="119" width="1" height="1" fill="#A8B5B2" />
<rect x="106" y="119" width="1" height="1" fill="#4D2B32" />
<rect x="107" y="119" width="1" height="1" fill="#4D2B32" />
<rect x="108" y="119" width="1" height="1" fill="#7A4841" />
<rect x="109" y="119" width="1" height="1" fill="#AD7757" />
<rect x="110" y="119" width="1" height="1" fill="#AD7757" />
<rect x="111" y="119" width="1" height="1" fill="#C09473" />
<rect x="112" y="119" width="1" height="1" fill="#C09473" />
<rect x="113" y="119" width="1" height="1" fill="#C09473" />
<rect x="114" y="119" width="1" height="1" fill="#C09473" />
<rect x="115" y="119" width="1" height="1" fill="#C09473" />
<rect x="116" y="119" width="1" height="1" fill="#C09473" />
<rect x="117" y="119" width="1" height="1" fill="#C09473" />
<rect x="118" y="119" width="1" height="1" fill="#C09473" />
<rect x="119" y="119" width="1" height="1" fill="#C09473" />
<rect x="120" y="119" width="1" height="1" fill="#C09473" />
<rect x="121" y="119" width="1" height="1" fill="#C09473" />
<rect x="122" y="119" width="1" height="1" fill="#C09473" />
<rect x="123" y="119" width="1" height="1" fill="#C09473" />
<rect x="124" y="119" width="1" height="1" fill="#DE9E41" />
<rect x="125" y="119" width="1" height="1" fill="#E8C170" />
<rect x="126" y="119" width="1" height="1" fill="#E8C170" />
<rect x="127" y="119" width="1" height="1" fill="#C09473" />
<rect x="128" y="119" width="1" height="1" fill="#C09473" />
<rect x="129" y="119" width="1" height="1" fill="#C09473" />
<rect x="130" y="119" width="1" height="1" fill="#C09473" />
<rect x="131" y="119" width="1" height="1" fill="#AD7757" />
<rect x="132" y="119" width="1" height="1" fill="#AD7757" />
<rect x="133" y="119" width="1" height="1" fill="#7A4841" />
<rect x="134" y="119" width="1" height="1" fill="#7A4841" />
<rect x="135" y="119" width="1" height="1" fill="#4D2B32" />
<rect x="136" y="119" width="1" height="1" fill="#577277" />
<rect x="137" y="119" width="1" height="1" fill="#819796" />
<rect x="105" y="120" width="1" height="1" fill="#A8B5B2" />
<rect x="106" y="120" width="1" height="1" fill="#819796" />
<rect x="107" y="120" width="1" height="1" fill="#577277" />
<rect x="108" y="120" width="1" height="1" fill="#4D2B32" />
<rect x="109" y="120" width="1" height="1" fill="#7A4841" />
<rect x="110" y="120" width="1" height="1" fill="#7A4841" />
<rect x="111" y="120" width="1" height="1" fill="#AD7757" />
<rect x="112" y="120" width="1" height="1" fill="#C09473" />
<rect x="113" y="120" width="1" height="1" fill="#C09473" />
<rect x="114" y="120" width="1" height="1" fill="#C09473" />
<rect x="115" y="120" width="1" height="1" fill="#C09473" />
<rect x="116" y="120" width="1" height="1" fill="#C09473" />
<rect x="117" y="120" width="1" height="1" fill="#C09473" />
<rect x="118" y="120" width="1" height="1" fill="#C09473" />
<rect x="119" y="120" width="1" height="1" fill="#C09473" />
<rect x="120" y="120" width="1" height="1" fill="#C09473" />
<rect x="121" y="120" width="1" height="1" fill="#C09473" />
<rect x="122" y="120" width="1" height="1" fill="#C09473" />
<rect x="123" y="120" width="1" height="1" fill="#151D28" />
<rect x="124" y="120" width="1" height="1" fill="#E8C170" />
<rect x="125" y="120" width="1" height="1" fill="#C09473" />
<rect x="126" y="120" width="1" height="1" fill="#C09473" />
<rect x="127" y="120" width="1" height="1" fill="#C09473" />
<rect x="128" y="120" width="1" height="1" fill="#C09473" />
<rect x="129" y="120" width="1" height="1" fill="#C09473" />
<rect x="130" y="120" width="1" height="1" fill="#AD7757" />
<rect x="131" y="120" width="1" height="1" fill="#7A4841" />
<rect x="132" y="120" width="1" height="1" fill="#7A4841" />
<rect x="133" y="120" width="1" height="1" fill="#4D2B32" />
<rect x="134" y="120" width="1" height="1" fill="#4D2B32" />
<rect x="135" y="120" width="1" height="1" fill="#394A50" />
<rect x="136" y="120" width="1" height="1" fill="#577277" />
<rect x="137" y="120" width="1" height="1" fill="#819796" />
<rect x="105" y="121" width="1" height="1" fill="#A8B5B2" />
<rect x="106" y="121" width="1" height="1" fill="#819796" />
<rect x="107" y="121" width="1" height="1" fill="#577277" />
<rect x="109" y="121" width="1" height="1" fill="#4D2B32" />
<rect x="110" y="121" width="1" height="1" fill="#4D2B32" />
<rect x="111" y="121" width="1" height="1" fill="#7A4841" />
<rect x="112" y="121" width="1" height="1" fill="#AD7757" />
<rect x="113" y="121" width="1" height="1" fill="#AD7757" />
<rect x="114" y="121" width="1" height="1" fill="#C09473" />
<rect x="115" y="121" width="1" height="1" fill="#C09473" />
<rect x="116" y="121" width="1" height="1" fill="#C09473" />
<rect x="117" y="121" width="1" height="1" fill="#C09473" />
<rect x="118" y="121" width="1" height="1" fill="#C09473" />
<rect x="119" y="121" width="1" height="1" fill="#C09473" />
<rect x="120" y="121" width="1" height="1" fill="#C09473" />
<rect x="121" y="121" width="1" height="1" fill="#C09473" />
<rect x="122" y="121" width="1" height="1" fill="#C09473" />
<rect x="123" y="121" width="1" height="1" fill="#C09473" />
<rect x="124" y="121" width="1" height="1" fill="#C09473" />
<rect x="125" y="121" width="1" height="1" fill="#C09473" />
<rect x="126" y="121" width="1" height="1" fill="#C09473" />
<rect x="127" y="121" width="1" height="1" fill="#C09473" />
<rect x="128" y="121" width="1" height="1" fill="#AD7757" />
<rect x="129" y="121" width="1" height="1" fill="#AD7757" />
<rect x="130" y="121" width="1" height="1" fill="#7A4841" />
<rect x="131" y="121" width="1" height="1" fill="#7A4841" />
<rect x="132" y="121" width="1" height="1" fill="#4D2B32" />
<rect x="134" y="121" width="1" height="1" fill="#151D28" />
<rect x="135" y="121" width="1" height="1" fill="#394A50" />
<rect x="136" y="121" width="1" height="1" fill="#577277" />
<rect x="137" y="121" width="1" height="1" fill="#819796" />
<rect x="105" y="122" width="1" height="1" fill="#A8B5B2" />
<rect x="106" y="122" width="1" height="1" fill="#819796" />
<rect x="107" y="122" width="1" height="1" fill="#577277" />
<rect x="109" y="122" width="1" height="1" fill="#151D28" />
<rect x="111" y="122" width="1" height="1" fill="#4D2B32" />
<rect x="112" y="122" width="1" height="1" fill="#7A4841" />
<rect x="113" y="122" width="1" height="1" fill="#7A4841" />
<rect x="114" y="122" width="1" height="1" fill="#AD7757" />
<rect x="115" y="122" width="1" height="1" fill="#C09473" />
<rect x="116" y="122" width="1" height="1" fill="#C09473" />
<rect x="117" y="122" width="1" height="1" fill="#C09473" />
<rect x="118" y="122" width="1" height="1" fill="#C09473" />
<rect x="119" y="122" width="1" height="1" fill="#C09473" />
<rect x="120" y="122" width="1" height="1" fill="#C09473" />
<rect x="121" y="122" width="1" height="1" fill="#C09473" />
<rect x="122" y="122" width="1" height="1" fill="#C09473" />
<rect x="123" y="122" width="1" height="1" fill="#C09473" />
<rect x="124" y="122" width="1" height="1" fill="#C09473" />
<rect x="125" y="122" width="1" height="1" fill="#C09473" />
<rect x="126" y="122" width="1" height="1" fill="#C09473" />
<rect x="127" y="122" width="1" height="1" fill="#AD7757" />
<rect x="128" y="122" width="1" height="1" fill="#7A4841" />
<rect x="129" y="122" width="1" height="1" fill="#7A4841" />
<rect x="130" y="122" width="1" height="1" fill="#4D2B32" />
<rect x="131" y="122" width="1" height="1" fill="#4D2B32" />
<rect x="134" y="122" width="1" height="1" fill="#151D28" />
<rect x="135" y="122" width="1" height="1" fill="#394A50" />
<rect x="136" y="122" width="1" height="1" fill="#577277" />
<rect x="137" y="122" width="1" height="1" fill="#819796" />
<rect x="105" y="123" width="1" height="1" fill="#A8B5B2" />
<rect x="106" y="123" width="1" height="1" fill="#819796" />
<rect x="107" y="123" width="1" height="1" fill="#577277" />
<rect x="108" y="123" width="1" height="1" fill="#151D28" />
<rect x="111" y="123" width="1" height="1" fill="#819796" />
<rect x="112" y="123" width="1" height="1" fill="#4D2B32" />
<rect x="113" y="123" width="1" height="1" fill="#4D2B32" />
<rect x="114" y="123" width="1" height="1" fill="#7A4841" />
<rect x="115" y="123" width="1" height="1" fill="#AD7757" />
<rect x="116" y="123" width="1" height="1" fill="#AD7757" />
<rect x="117" y="123" width="1" height="1" fill="#C09473" />
<rect x="118" y="123" width="1" height="1" fill="#C09473" />
<rect x="119" y="123" width="1" height="1" fill="#C09473" />
<rect x="120" y="123" width="1" height="1" fill="#C09473" />
<rect x="121" y="123" width="1" height="1" fill="#C09473" />
<rect x="122" y="123" width="1" height="1" fill="#C09473" />
<rect x="123" y="123" width="1" height="1" fill="#C09473" />
<rect x="124" y="123" width="1" height="1" fill="#C09473" />
<rect x="125" y="123" width="1" height="1" fill="#AD7757" />
<rect x="126" y="123" width="1" height="1" fill="#AD7757" />
<rect x="127" y="123" width="1" height="1" fill="#7A4841" />
<rect x="128" y="123" width="1" height="1" fill="#4D2B32" />
<rect x="129" y="123" width="1" height="1" fill="#4D2B32" />
<rect x="130" y="123" width="1" height="1" fill="#819796" />
<rect x="132" y="123" width="1" height="1" fill="#151D28" />
<rect x="133" y="123" width="1" height="1" fill="#151D28" />
<rect x="134" y="123" width="1" height="1" fill="#202E37" />
<rect x="135" y="123" width="1" height="1" fill="#394A50" />
<rect x="136" y="123" width="1" height="1" fill="#577277" />
<rect x="137" y="123" width="1" height="1" fill="#819796" />
<rect x="105" y="124" width="1" height="1" fill="#A8B5B2" />
<rect x="106" y="124" width="1" height="1" fill="#819796" />
<rect x="107" y="124" width="1" height="1" fill="#577277" />
<rect x="108" y="124" width="1" height="1" fill="#202E37" />
<rect x="109" y="124" width="1" height="1" fill="#151D28" />
<rect x="110" y="124" width="1" height="1" fill="#151D28" />
<rect x="111" y="124" width="1" height="1" fill="#7A4841" opacity="0.996078" />
<rect x="112" y="124" width="1" height="1" fill="#7A4841" opacity="0.996078" />
<rect x="113" y="124" width="1" height="1" fill="#7A4841" opacity="0.996078" />
<rect x="114" y="124" width="1" height="1" fill="#4D2B32" />
<rect x="115" y="124" width="1" height="1" fill="#7A4841" />
<rect x="116" y="124" width="1" height="1" fill="#7A4841" />
<rect x="117" y="124" width="1" height="1" fill="#AD7757" />
<rect x="118" y="124" width="1" height="1" fill="#AD7757" />
<rect x="119" y="124" width="1" height="1" fill="#C09473" />
<rect x="120" y="124" width="1" height="1" fill="#C09473" />
<rect x="121" y="124" width="1" height="1" fill="#C09473" />
<rect x="122" y="124" width="1" height="1" fill="#C09473" />
<rect x="123" y="124" width="1" height="1" fill="#AD7757" />
<rect x="124" y="124" width="1" height="1" fill="#AD7757" />
<rect x="125" y="124" width="1" height="1" fill="#7A4841" />
<rect x="126" y="124" width="1" height="1" fill="#7A4841" />
<rect x="127" y="124" width="1" height="1" fill="#4D2B32" />
<rect x="128" y="124" width="1" height="1" fill="#7A4841" opacity="0.996078" />
<rect x="129" y="124" width="1" height="1" fill="#7A4841" opacity="0.996078" />
<rect x="130" y="124" width="1" height="1" fill="#7A4841" opacity="0.996078" />
<rect x="131" y="124" width="1" height="1" fill="#151D28" />
<rect x="132" y="124" width="1" height="1" fill="#202E37" />
<rect x="133" y="124" width="1" height="1" fill="#202E37" />
<rect x="134" y="124" width="1" height="1" fill="#151D28" />
<rect x="135" y="124" width="1" height="1" fill="#394A50" />
<rect x="136" y="124" width="1" height="1" fill="#577277" />
<rect x="137" y="124" width="1" height="1" fill="#819796" />
<rect x="105" y="125" width="1" height="1" fill="#A8B5B2" />
<rect x="106" y="125" width="1" height="1" fill="#819796" />
<rect x="107" y="125" width="1" height="1" fill="#577277" />
<rect x="108" y="125" width="1" height="1" fill="#151D28" />
<rect x="109" y="125" width="1" height="1" fill="#202E37" />
<rect x="110" y="125" width="1" height="1" fill="#202E37" />
<rect x="111" y="125" width="1" height="1" fill="#151D28" />
<rect x="112" y="125" width="1" height="1" fill="#7A4841" opacity="0.996078" />
<rect x="113" y="125" width="1" height="1" fill="#7A4841" opacity="0.996078" />
<rect x="114" y="125" width="1" height="1" fill="#819796" />
<rect x="115" y="125" width="1" height="1" fill="#4D2B32" />
<rect x="116" y="125" width="1" height="1" fill="#4D2B32" />
<rect x="117" y="125" width="1" height="1" fill="#7A4841" />
<rect x="118" y="125" width="1" height="1" fill="#7A4841" />
<rect x="119" y="125" width="1" height="1" fill="#AD7757" />
<rect x="120" y="125" width="1" height="1" fill="#AD7757" />
<rect x="121" y="125" width="1" height="1" fill="#AD7757" />
<rect x="122" y="125" width="1" height="1" fill="#AD7757" />
<rect x="123" y="125" width="1" height="1" fill="#7A4841" />
<rect x="124" y="125" width="1" height="1" fill="#7A4841" />
<rect x="125" y="125" width="1" height="1" fill="#4D2B32" />
<rect x="126" y="125" width="1" height="1" fill="#4D2B32" />
<rect x="127" y="125" width="1" height="1" fill="#819796" />
<rect x="128" y="125" width="1" height="1" fill="#7A4841" opacity="0.996078" />
<rect x="129" y="125" width="1" height="1" fill="#151D28" />
<rect x="130" y="125" width="1" height="1" fill="#151D28" />
<rect x="131" y="125" width="1" height="1" fill="#202E37" />
<rect x="132" y="125" width="1" height="1" fill="#151D28" />
<rect x="133" y="125" width="1" height="1" fill="#151D28" />
<rect x="135" y="125" width="1" height="1" fill="#394A50" />
<rect x="136" y="125" width="1" height="1" fill="#577277" />
<rect x="137" y="125" width="1" height="1" fill="#819796" />
<rect x="105" y="126" width="1" height="1" fill="#A8B5B2" />
<rect x="106" y="126" width="1" height="1" fill="#819796" />
<rect x="107" y="126" width="1" height="1" fill="#577277" />
<rect x="108" y="126" width="1" height="1" fill="#7A4841" opacity="0.996078" />
<rect x="109" y="126" width="1" height="1" fill="#151D28" />
<rect x="110" y="126" width="1" height="1" fill="#151D28" />
<rect x="111" y="126" width="1" height="1" fill="#202E37" />
<rect x="112" y="126" width="1" height="1" fill="#151D28" />
<rect x="113" y="126" width="1" height="1" fill="#151D28" />
<rect x="114" y="126" width="1" height="1" fill="#7A4841" opacity="0.996078" />
<rect x="115" y="126" width="1" height="1" fill="#7A4841" opacity="0.996078" />
<rect x="116" y="126" width="1" height="1" fill="#7A4841" opacity="0.996078" />
<rect x="117" y="126" width="1" height="1" fill="#4D2B32" />
<rect x="118" y="126" width="1" height="1" fill="#4D2B32" />
<rect x="119" y="126" width="1" height="1" fill="#7A4841" />
<rect x="120" y="126" width="1" height="1" fill="#7A4841" />
<rect x="121" y="126" width="1" height="1" fill="#7A4841" />
<rect x="122" y="126" width="1" height="1" fill="#7A4841" />
<rect x="123" y="126" width="1" height="1" fill="#4D2B32" />
<rect x="124" y="126" width="1" height="1" fill="#4D2B32" />
<rect x="125" y="126" width="1" height="1" fill="#7A4841" opacity="0.996078" />
<rect x="126" y="126" width="1" height="1" fill="#7A4841" opacity="0.996078" />
<rect x="127" y="126" width="1" height="1" fill="#7A4841" opacity="0.996078" />
<rect x="128" y="126" width="1" height="1" fill="#151D28" />
<rect x="129" y="126" width="1" height="1" fill="#202E37" />
<rect x="130" y="126" width="1" height="1" fill="#202E37" />
<rect x="131" y="126" width="1" height="1" fill="#151D28" />
<rect x="132" y="126" width="1" height="1" fill="#7A4841" opacity="0.996078" />
<rect x="133" y="126" width="1" height="1" fill="#7A4841" opacity="0.996078" />
<rect x="134" y="126" width="1" height="1" fill="#7A4841" opacity="0.996078" />
<rect x="135" y="126" width="1" height="1" fill="#394A50" />
<rect x="136" y="126" width="1" height="1" fill="#577277" />
<rect x="137" y="126" width="1" height="1" fill="#819796" />
<rect x="105" y="127" width="1" height="1" fill="#A8B5B2" />
<rect x="106" y="127" width="1" height="1" fill="#819796" />
<rect x="107" y="127" width="1" height="1" fill="#577277" />
<rect x="108" y="127" width="1" height="1" fill="#7A4841" opacity="0.996078" />
<rect x="109" y="127" width="1" height="1" fill="#7A4841" opacity="0.996078" />
<rect x="110" y="127" width="1" height="1" fill="#7A4841" opacity="0.996078" />
<rect x="111" y="127" width="1" height="1" fill="#151D28" />
<rect x="112" y="127" width="1" height="1" fill="#202E37" />
<rect x="113" y="127" width="1" height="1" fill="#202E37" />
<rect x="114" y="127" width="1" height="1" fill="#151D28" />
<rect x="115" y="127" width="1" height="1" fill="#151D28" />
<rect x="116" y="127" width="1" height="1" fill="#7A4841" opacity="0.996078" />
<rect x="117" y="127" width="1" height="1" fill="#819796" />
<rect x="118" y="127" width="1" height="1" fill="#4D2B32" />
<rect x="119" y="127" width="1" height="1" fill="#4D2B32" />
<rect x="120" y="127" width="1" height="1" fill="#4D2B32" />
<rect x="121" y="127" width="1" height="1" fill="#4D2B32" />
<rect x="122" y="127" width="1" height="1" fill="#4D2B32" />
<rect x="123" y="127" width="1" height="1" fill="#4D2B32" />
<rect x="124" y="127" width="1" height="1" fill="#819796" />
<rect x="125" y="127" width="1" height="1" fill="#7A4841" opacity="0.996078" />
<rect x="126" y="127" width="1" height="1" fill="#7A4841" opacity="0.996078" />
<rect x="127" y="127" width="1" height="1" fill="#151D28" />
<rect x="128" y="127" width="1" height="1" fill="#202E37" />
<rect x="129" y="127" width="1" height="1" fill="#151D28" />
<rect x="130" y="127" width="1" height="1" fill="#151D28" />
<rect x="131" y="127" width="1" height="1" fill="#7A4841" opacity="0.996078" />
<rect x="132" y="127" width="1" height="1" fill="#7A4841" opacity="0.996078" />
<rect x="133" y="127" width="1" height="1" fill="#7A4841" opacity="0.996078" />
<rect x="134" y="127" width="1" height="1" fill="#7A4841" opacity="0.996078" />
<rect x="135" y="127" width="1" height="1" fill="#394A50" />
<rect x="136" y="127" width="1" height="1" fill="#577277" />
<rect x="137" y="127" width="1" height="1" fill="#819796" />
<rect x="105" y="128" width="1" height="1" fill="#A8B5B2" />
<rect x="106" y="128" width="1" height="1" fill="#819796" />
<rect x="107" y="128" width="1" height="1" fill="#577277" />
<rect x="108" y="128" width="1" height="1" fill="#7A4841" opacity="0.996078" />
<rect x="109" y="128" width="1" height="1" fill="#7A4841" opacity="0.996078" />
<rect x="110" y="128" width="1" height="1" fill="#7A4841" opacity="0.996078" />
<rect x="111" y="128" width="1" height="1" fill="#7A4841" opacity="0.996078" />
<rect x="112" y="128" width="1" height="1" fill="#151D28" />
<rect x="113" y="128" width="1" height="1" fill="#151D28" />
<rect x="114" y="128" width="1" height="1" fill="#202E37" />
<rect x="115" y="128" width="1" height="1" fill="#202E37" />
<rect x="116" y="128" width="1" height="1" fill="#151D28" />
<rect x="117" y="128" width="1" height="1" fill="#7A4841" opacity="0.996078" />
<rect x="118" y="128" width="1" height="1" fill="#7A4841" opacity="0.996078" />
<rect x="119" y="128" width="1" height="1" fill="#7A4841" opacity="0.996078" />
<rect x="120" y="128" width="1" height="1" fill="#C7CFCC" />
<rect x="121" y="128" width="1" height="1" fill="#A8B5B2" />
<rect x="122" y="128" width="1" height="1" fill="#819796" />
<rect x="123" y="128" width="1" height="1" fill="#577277" />
<rect x="124" y="128" width="1" height="1" fill="#7A4841" opacity="0.996078" />
<rect x="125" y="128" width="1" height="1" fill="#151D28" />
<rect x="126" y="128" width="1" height="1" fill="#151D28" />
<rect x="127" y="128" width="1" height="1" fill="#202E37" />
<rect x="128" y="128" width="1" height="1" fill="#151D28" />
<rect x="129" y="128" width="1" height="1" fill="#7A4841" opacity="0.996078" />
<rect x="130" y="128" width="1" height="1" fill="#7A4841" opacity="0.996078" />
<rect x="131" y="128" width="1" height="1" fill="#7A4841" opacity="0.996078" />
<rect x="132" y="128" width="1" height="1" fill="#7A4841" opacity="0.996078" />
<rect x="133" y="128" width="1" height="1" fill="#7A4841" opacity="0.996078" />
<rect x="134" y="128" width="1" height="1" fill="#7A4841" opacity="0.996078" />
<rect x="135" y="128" width="1" height="1" fill="#394A50" />
<rect x="136" y="128" width="1" height="1" fill="#577277" />
<rect x="137" y="128" width="1" height="1" fill="#819796" />
<rect x="106" y="129" width="1" height="1" fill="#819796" />
<rect x="107" y="129" width="1" height="1" fill="#577277" />
<rect x="108" y="129" width="1" height="1" fill="#7A4841" opacity="0.996078" />
<rect x="109" y="129" width="1" height="1" fill="#7A4841" opacity="0.996078" />
<rect x="110" y="129" width="1" height="1" fill="#7A4841" opacity="0.996078" />
<rect x="111" y="129" width="1" height="1" fill="#7A4841" opacity="0.996078" />
<rect x="112" y="129" width="1" height="1" fill="#7A4841" opacity="0.996078" />
<rect x="113" y="129" width="1" height="1" fill="#7A4841" opacity="0.996078" />
<rect x="114" y="129" width="1" height="1" fill="#151D28" />
<rect x="115" y="129" width="1" height="1" fill="#151D28" />
<rect x="116" y="129" width="1" height="1" fill="#202E37" />
<rect x="117" y="129" width="1" height="1" fill="#151D28" />
<rect x="118" y="129" width="1" height="1" fill="#151D28" />
<rect x="119" y="129" width="1" height="1" fill="#819796" />
<rect x="120" y="129" width="1" height="1" fill="#C7CFCC" />
<rect x="121" y="129" width="1" height="1" fill="#A8B5B2" />
<rect x="122" y="129" width="1" height="1" fill="#819796" />
<rect x="123" y="129" width="1" height="1" fill="#577277" />
<rect x="124" y="129" width="1" height="1" fill="#151D28" />
<rect x="125" y="129" width="1" height="1" fill="#202E37" />
<rect x="126" y="129" width="1" height="1" fill="#202E37" />
<rect x="127" y="129" width="1" height="1" fill="#151D28" />
<rect x="128" y="129" width="1" height="1" fill="#7A4841" opacity="0.996078" />
<rect x="129" y="129" width="1" height="1" fill="#7A4841" opacity="0.996078" />
<rect x="130" y="129" width="1" height="1" fill="#7A4841" opacity="0.996078" />
<rect x="131" y="129" width="1" height="1" fill="#7A4841" opacity="0.996078" />
<rect x="132" y="129" width="1" height="1" fill="#7A4841" opacity="0.996078" />
<rect x="133" y="129" width="1" height="1" fill="#7B4942" opacity="0.996078" />
<rect x="135" y="129" width="1" height="1" fill="#394A50" />
<rect x="136" y="129" width="1" height="1" fill="#577277" />
<rect x="137" y="129" width="1" height="1" fill="#819796" />
<rect x="109" y="130" width="1" height="1" fill="#7A4841" opacity="0.996078" />
<rect x="110" y="130" width="1" height="1" fill="#7A4841" opacity="0.996078" />
<rect x="111" y="130" width="1" height="1" fill="#7A4841" opacity="0.996078" />
<rect x="112" y="130" width="1" height="1" fill="#7A4841" opacity="0.996078" />
<rect x="113" y="130" width="1" height="1" fill="#7A4841" opacity="0.996078" />
<rect x="114" y="130" width="1" height="1" fill="#7A4841" opacity="0.996078" />
<rect x="115" y="130" width="1" height="1" fill="#7A4841" opacity="0.996078" />
<rect x="116" y="130" width="1" height="1" fill="#151D28" />
<rect x="117" y="130" width="1" height="1" fill="#202E37" />
<rect x="118" y="130" width="1" height="1" fill="#202E37" />
<rect x="119" y="130" width="1" height="1" fill="#151D28" />
<rect x="120" y="130" width="1" height="1" fill="#C7CFCC" />
<rect x="121" y="130" width="1" height="1" fill="#A8B5B2" />
<rect x="122" y="130" width="1" height="1" fill="#819796" />
<rect x="123" y="130" width="1" height="1" fill="#577277" />
<rect x="124" y="130" width="1" height="1" fill="#202E37" />
<rect x="125" y="130" width="1" height="1" fill="#151D28" />
<rect x="126" y="130" width="1" height="1" fill="#151D28" />
<rect x="127" y="130" width="1" height="1" fill="#7A4841" opacity="0.996078" />
<rect x="128" y="130" width="1" height="1" fill="#7A4841" opacity="0.996078" />
<rect x="129" y="130" width="1" height="1" fill="#7A4841" opacity="0.996078" />
<rect x="130" y="130" width="1" height="1" fill="#7A4841" opacity="0.996078" />
<rect x="131" y="130" width="1" height="1" fill="#7A4841" opacity="0.996078" />
<rect x="135" y="130" width="1" height="1" fill="#394A50" />
<rect x="136" y="130" width="1" height="1" fill="#577277" />
<rect x="110" y="131" width="1" height="1" fill="#7A4841" opacity="0.996078" />
<rect x="111" y="131" width="1" height="1" fill="#7A4841" opacity="0.996078" />
<rect x="112" y="131" width="1" height="1" fill="#7A4841" opacity="0.996078" />
<rect x="113" y="131" width="1" height="1" fill="#7A4841" opacity="0.996078" />
<rect x="114" y="131" width="1" height="1" fill="#7A4841" opacity="0.996078" />
<rect x="115" y="131" width="1" height="1" fill="#7A4841" opacity="0.996078" />
<rect x="116" y="131" width="1" height="1" fill="#7A4841" opacity="0.996078" />
<rect x="117" y="131" width="1" height="1" fill="#151D28" />
<rect x="118" y="131" width="1" height="1" fill="#151D28" />
<rect x="119" y="131" width="1" height="1" fill="#202E37" />
<rect x="120" y="131" width="1" height="1" fill="#C7CFCC" />
<rect x="121" y="131" width="1" height="1" fill="#A8B5B2" />
<rect x="122" y="131" width="1" height="1" fill="#819796" />
<rect x="123" y="131" width="1" height="1" fill="#577277" />
<rect x="124" y="131" width="1" height="1" fill="#151D28" />
<rect x="125" y="131" width="1" height="1" fill="#7A4841" opacity="0.996078" />
<rect x="126" y="131" width="1" height="1" fill="#7A4841" opacity="0.996078" />
<rect x="127" y="131" width="1" height="1" fill="#7A4841" opacity="0.996078" />
<rect x="128" y="131" width="1" height="1" fill="#7A4841" opacity="0.996078" />
<rect x="129" y="131" width="1" height="1" fill="#7A4841" opacity="0.996078" />
<rect x="112" y="132" width="1" height="1" fill="#7A4841" opacity="0.996078" />
<rect x="113" y="132" width="1" height="1" fill="#7A4841" opacity="0.996078" />
<rect x="114" y="132" width="1" height="1" fill="#7A4841" opacity="0.996078" />
<rect x="115" y="132" width="1" height="1" fill="#7A4841" opacity="0.996078" />
<rect x="116" y="132" width="1" height="1" fill="#7A4841" opacity="0.996078" />
<rect x="117" y="132" width="1" height="1" fill="#7A4841" opacity="0.996078" />
<rect x="118" y="132" width="1" height="1" fill="#7A4841" opacity="0.996078" />
<rect x="119" y="132" width="1" height="1" fill="#151D28" />
<rect x="120" y="132" width="1" height="1" fill="#C7CFCC" />
<rect x="121" y="132" width="1" height="1" fill="#A8B5B2" />
<rect x="122" y="132" width="1" height="1" fill="#819796" />
<rect x="123" y="132" width="1" height="1" fill="#577277" />
<rect x="124" y="132" width="1" height="1" fill="#7A4841" opacity="0.996078" />
<rect x="125" y="132" width="1" height="1" fill="#7A4841" opacity="0.996078" />
<rect x="126" y="132" width="1" height="1" fill="#7A4841" opacity="0.996078" />
<rect x="127" y="132" width="1" height="1" fill="#7A4841" opacity="0.996078" />
<rect x="128" y="132" width="1" height="1" fill="#7A4841" opacity="0.996078" />
<rect x="114" y="133" width="1" height="1" fill="#7A4841" opacity="0.996078" />
<rect x="115" y="133" width="1" height="1" fill="#7A4841" opacity="0.996078" />
<rect x="116" y="133" width="1" height="1" fill="#7A4841" opacity="0.996078" />
<rect x="117" y="133" width="1" height="1" fill="#7A4841" opacity="0.996078" />
<rect x="118" y="133" width="1" height="1" fill="#7A4841" opacity="0.996078" />
<rect x="119" y="133" width="1" height="1" fill="#7A4841" opacity="0.996078" />
<rect x="120" y="133" width="1" height="1" fill="#C7CFCC" />
<rect x="121" y="133" width="1" height="1" fill="#A8B5B2" />
<rect x="122" y="133" width="1" height="1" fill="#819796" />
<rect x="123" y="133" width="1" height="1" fill="#577277" />
<rect x="124" y="133" width="1" height="1" fill="#7A4841" opacity="0.996078" />
<rect x="125" y="133" width="1" height="1" fill="#7A4841" opacity="0.996078" />
<rect x="126" y="133" width="1" height="1" fill="#7A4841" opacity="0.996078" />
<rect x="115" y="134" width="1" height="1" fill="#7A4841" opacity="0.996078" />
<rect x="116" y="134" width="1" height="1" fill="#7A4841" opacity="0.996078" />
<rect x="117" y="134" width="1" height="1" fill="#7A4841" opacity="0.996078" />
<rect x="118" y="134" width="1" height="1" fill="#7A4841" opacity="0.996078" />
<rect x="119" y="134" width="1" height="1" fill="#7A4841" opacity="0.996078" />
<rect x="120" y="134" width="1" height="1" fill="#C7CFCC" />
<rect x="121" y="134" width="1" height="1" fill="#A8B5B2" />
<rect x="122" y="134" width="1" height="1" fill="#819796" />
<rect x="123" y="134" width="1" height="1" fill="#577277" />
<rect x="124" y="134" width="1" height="1" fill="#7A4841" opacity="0.996078" />
<rect x="125" y="134" width="1" height="1" fill="#7A4841" opacity="0.996078" />
<rect x="117" y="135" width="1" height="1" fill="#7A4841" opacity="0.996078" />
<rect x="118" y="135" width="1" height="1" fill="#7A4841" opacity="0.996078" />
<rect x="119" y="135" width="1" height="1" fill="#7A4841" opacity="0.996078" />
<rect x="120" y="135" width="1" height="1" fill="#C7CFCC" />
<rect x="121" y="135" width="1" height="1" fill="#A8B5B2" />
<rect x="122" y="135" width="1" height="1" fill="#819796" />
<rect x="123" y="135" width="1" height="1" fill="#577277" />
<rect x="118" y="136" width="1" height="1" fill="#7A4841" opacity="0.996078" />
<rect x="119" y="136" width="1" height="1" fill="#7A4841" opacity="0.996078" />
<rect x="120" y="136" width="1" height="1" fill="#C7CFCC" />
<rect x="121" y="136" width="1" height="1" fill="#A8B5B2" />
<rect x="122" y="136" width="1" height="1" fill="#819796" />
<rect x="123" y="136" width="1" height="1" fill="#577277" />
<rect x="120" y="137" width="1" height="1" fill="#C7CFCC" />
<rect x="121" y="137" width="1" height="1" fill="#A8B5B2" />
<rect x="122" y="137" width="1" height="1" fill="#819796" />
<rect x="123" y="137" width="1" height="1" fill="#577277" />
<rect x="121" y="138" width="1" height="1" fill="#A8B5B2" />
<rect x="122" y="138" width="1" height="1" fill="#819796" />
</svg>