<?xml version="1.0" encoding="UTF-8" ?>
<svg version="1.1" width="54" height="32" xmlns="http://www.w3.org/2000/svg" shape-rendering="crispEdges">
<rect x="4" y="4" width="1" height="1" fill="#C09473" />
<rect x="5" y="4" width="1" height="1" fill="#C09473" />
<rect x="6" y="4" width="1" height="1" fill="#C09473" />
<rect x="7" y="4" width="1" height="1" fill="#C09473" />
<rect x="8" y="4" width="1" height="1" fill="#C09473" />
<rect x="9" y="4" width="1" height="1" fill="#C09473" />
<rect x="10" y="4" width="1" height="1" fill="#C09473" />
<rect x="11" y="4" width="1" height="1" fill="#C09473" />
<rect x="12" y="4" width="1" height="1" fill="#C09473" />
<rect x="13" y="4" width="1" height="1" fill="#C09473" />
<rect x="14" y="4" width="1" height="1" fill="#C09473" />
<rect x="15" y="4" width="1" height="1" fill="#C09473" />
<rect x="16" y="4" width="1" height="1" fill="#C09473" />
<rect x="17" y="4" width="1" height="1" fill="#C09473" />
<rect x="18" y="4" width="1" height="1" fill="#C09473" />
<rect x="19" y="4" width="1" height="1" fill="#C09473" />
<rect x="20" y="4" width="1" height="1" fill="#C09473" />
<rect x="21" y="4" width="1" height="1" fill="#C09473" />
<rect x="22" y="4" width="1" height="1" fill="#C09473" />
<rect x="23" y="4" width="1" height="1" fill="#C09473" />
<rect x="24" y="4" width="1" height="1" fill="#C09473" />
<rect x="25" y="4" width="1" height="1" fill="#C09473" />
<rect x="26" y="4" width="1" height="1" fill="#C09473" />
<rect x="27" y="4" width="1" height="1" fill="#C09473" />
<rect x="28" y="4" width="1" height="1" fill="#C09473" />
<rect x="29" y="4" width="1" height="1" fill="#C09473" />
<rect x="30" y="4" width="1" height="1" fill="#C09473" />
<rect x="31" y="4" width="1" height="1" fill="#C09473" />
<rect x="32" y="4" width="1" height="1" fill="#C09473" />
<rect x="33" y="4" width="1" height="1" fill="#C09473" />
<rect x="34" y="4" width="1" height="1" fill="#C09473" />
<rect x="35" y="4" width="1" height="1" fill="#C09473" />
<rect x="36" y="4" width="1" height="1" fill="#C09473" />
<rect x="37" y="4" width="1" height="1" fill="#C09473" />
<rect x="38" y="4" width="1" height="1" fill="#C09473" />
<rect x="39" y="4" width="1" height="1" fill="#C09473" />
<rect x="40" y="4" width="1" height="1" fill="#C09473" />
<rect x="41" y="4" width="1" height="1" fill="#C09473" />
<rect x="42" y="4" width="1" height="1" fill="#C09473" />
<rect x="43" y="4" width="1" height="1" fill="#C09473" />
<rect x="44" y="4" width="1" height="1" fill="#C09473" />
<rect x="45" y="4" width="1" height="1" fill="#C09473" />
<rect x="46" y="4" width="1" height="1" fill="#C09473" />
<rect x="47" y="4" width="1" height="1" fill="#C09473" />
<rect x="48" y="4" width="1" height="1" fill="#C09473" />
<rect x="49" y="4" width="1" height="1" fill="#C09473" />
<rect x="3" y="5" width="1" height="1" fill="#C09473" />
<rect x="4" y="5" width="1" height="1" fill="#C09473" />
<rect x="5" y="5" width="1" height="1" fill="#C09473" />
<rect x="6" y="5" width="1" height="1" fill="#C09473" />
<rect x="7" y="5" width="1" height="1" fill="#C09473" />
<rect x="8" y="5" width="1" height="1" fill="#C09473" />
<rect x="9" y="5" width="1" height="1" fill="#C09473" />
<rect x="10" y="5" width="1" height="1" fill="#C09473" />
<rect x="11" y="5" width="1" height="1" fill="#C09473" />
<rect x="12" y="5" width="1" height="1" fill="#C09473" />
<rect x="13" y="5" width="1" height="1" fill="#C09473" />
<rect x="14" y="5" width="1" height="1" fill="#C09473" />
<rect x="15" y="5" width="1" height="1" fill="#C09473" />
<rect x="16" y="5" width="1" height="1" fill="#C09473" />
<rect x="17" y="5" width="1" height="1" fill="#C09473" />
<rect x="18" y="5" width="1" height="1" fill="#C09473" />
<rect x="19" y="5" width="1" height="1" fill="#C09473" />
<rect x="20" y="5" width="1" height="1" fill="#C09473" />
<rect x="21" y="5" width="1" height="1" fill="#C09473" />
<rect x="22" y="5" width="1" height="1" fill="#C09473" />
<rect x="23" y="5" width="1" height="1" fill="#C09473" />
<rect x="24" y="5" width="1" height="1" fill="#C09473" />
<rect x="25" y="5" width="1" height="1" fill="#C09473" />
<rect x="26" y="5" width="1" height="1" fill="#C09473" />
<rect x="27" y="5" width="1" height="1" fill="#C09473" />
<rect x="28" y="5" width="1" height="1" fill="#C09473" />
<rect x="29" y="5" width="1" height="1" fill="#C09473" />
<rect x="30" y="5" width="1" height="1" fill="#C09473" />
<rect x="31" y="5" width="1" height="1" fill="#C09473" />
<rect x="32" y="5" width="1" height="1" fill="#C09473" />
<rect x="33" y="5" width="1" height="1" fill="#C09473" />
<rect x="34" y="5" width="1" height="1" fill="#C09473" />
<rect x="35" y="5" width="1" height="1" fill="#C09473" />
<rect x="36" y="5" width="1" height="1" fill="#C09473" />
<rect x="37" y="5" width="1" height="1" fill="#C09473" />
<rect x="38" y="5" width="1" height="1" fill="#C09473" />
<rect x="39" y="5" width="1" height="1" fill="#C09473" />
<rect x="40" y="5" width="1" height="1" fill="#C09473" />
<rect x="41" y="5" width="1" height="1" fill="#C09473" />
<rect x="42" y="5" width="1" height="1" fill="#C09473" />
<rect x="43" y="5" width="1" height="1" fill="#C09473" />
<rect x="44" y="5" width="1" height="1" fill="#C09473" />
<rect x="45" y="5" width="1" height="1" fill="#C09473" />
<rect x="46" y="5" width="1" height="1" fill="#C09473" />
<rect x="47" y="5" width="1" height="1" fill="#C09473" />
<rect x="48" y="5" width="1" height="1" fill="#C09473" />
<rect x="49" y="5" width="1" height="1" fill="#C09473" />
<rect x="50" y="5" width="1" height="1" fill="#C09473" />
<rect x="3" y="6" width="1" height="1" fill="#C09473" />
<rect x="4" y="6" width="1" height="1" fill="#C09473" />
<rect x="5" y="6" width="1" height="1" fill="#C09473" />
<rect x="6" y="6" width="1" height="1" fill="#C09473" />
<rect x="7" y="6" width="1" height="1" fill="#C09473" />
<rect x="8" y="6" width="1" height="1" fill="#C09473" />
<rect x="9" y="6" width="1" height="1" fill="#C09473" />
<rect x="10" y="6" width="1" height="1" fill="#C09473" />
<rect x="11" y="6" width="1" height="1" fill="#C09473" />
<rect x="12" y="6" width="1" height="1" fill="#C09473" />
<rect x="13" y="6" width="1" height="1" fill="#C09473" />
<rect x="14" y="6" width="1" height="1" fill="#C09473" />
<rect x="15" y="6" width="1" height="1" fill="#C09473" />
<rect x="16" y="6" width="1" height="1" fill="#C09473" />
<rect x="17" y="6" width="1" height="1" fill="#C09473" />
<rect x="18" y="6" width="1" height="1" fill="#C09473" />
<rect x="19" y="6" width="1" height="1" fill="#C09473" />
<rect x="20" y="6" width="1" height="1" fill="#C09473" />
<rect x="21" y="6" width="1" height="1" fill="#C09473" />
<rect x="22" y="6" width="1" height="1" fill="#C09473" />
<rect x="23" y="6" width="1" height="1" fill="#C09473" />
<rect x="24" y="6" width="1" height="1" fill="#C09473" />
<rect x="25" y="6" width="1" height="1" fill="#C09473" />
<rect x="26" y="6" width="1" height="1" fill="#C09473" />
<rect x="27" y="6" width="1" height="1" fill="#C09473" />
<rect x="28" y="6" width="1" height="1" fill="#C09473" />
<rect x="29" y="6" width="1" height="1" fill="#C09473" />
<rect x="30" y="6" width="1" height="1" fill="#C09473" />
<rect x="31" y="6" width="1" height="1" fill="#C09473" />
<rect x="32" y="6" width="1" height="1" fill="#C09473" />
<rect x="33" y="6" width="1" height="1" fill="#C09473" />
<rect x="34" y="6" width="1" height="1" fill="#C09473" />
<rect x="35" y="6" width="1" height="1" fill="#C09473" />
<rect x="36" y="6" width="1" height="1" fill="#C09473" />
<rect x="37" y="6" width="1" height="1" fill="#C09473" />
<rect x="38" y="6" width="1" height="1" fill="#C09473" />
<rect x="39" y="6" width="1" height="1" fill="#C09473" />
<rect x="40" y="6" width="1" height="1" fill="#C09473" />
<rect x="41" y="6" width="1" height="1" fill="#C09473" />
<rect x="42" y="6" width="1" height="1" fill="#C09473" />
<rect x="43" y="6" width="1" height="1" fill="#C09473" />
<rect x="44" y="6" width="1" height="1" fill="#C09473" />
<rect x="45" y="6" width="1" height="1" fill="#C09473" />
<rect x="46" y="6" width="1" height="1" fill="#C09473" />
<rect x="47" y="6" width="1" height="1" fill="#C09473" />
<rect x="48" y="6" width="1" height="1" fill="#C09473" />
<rect x="49" y="6" width="1" height="1" fill="#C09473" />
<rect x="50" y="6" width="1" height="1" fill="#C09473" />
<rect x="3" y="7" width="1" height="1" fill="#C09473" />
<rect x="4" y="7" width="1" height="1" fill="#C09473" />
<rect x="5" y="7" width="1" height="1" fill="#C09473" />
<rect x="6" y="7" width="1" height="1" fill="#C09473" />
<rect x="7" y="7" width="1" height="1" fill="#C09473" />
<rect x="8" y="7" width="1" height="1" fill="#C09473" />
<rect x="9" y="7" width="1" height="1" fill="#C09473" />
<rect x="10" y="7" width="1" height="1" fill="#C09473" />
<rect x="11" y="7" width="1" height="1" fill="#C09473" />
<rect x="12" y="7" width="1" height="1" fill="#C09473" />
<rect x="13" y="7" width="1" height="1" fill="#C09473" />
<rect x="14" y="7" width="1" height="1" fill="#C09473" />
<rect x="15" y="7" width="1" height="1" fill="#C09473" />
<rect x="16" y="7" width="1" height="1" fill="#C09473" />
<rect x="17" y="7" width="1" height="1" fill="#C09473" />
<rect x="18" y="7" width="1" height="1" fill="#C09473" />
<rect x="19" y="7" width="1" height="1" fill="#C09473" />
<rect x="20" y="7" width="1" height="1" fill="#C09473" />
<rect x="21" y="7" width="1" height="1" fill="#C09473" />
<rect x="22" y="7" width="1" height="1" fill="#C09473" />
<rect x="23" y="7" width="1" height="1" fill="#C09473" />
<rect x="24" y="7" width="1" height="1" fill="#C09473" />
<rect x="25" y="7" width="1" height="1" fill="#C09473" />
<rect x="26" y="7" width="1" height="1" fill="#C09473" />
<rect x="27" y="7" width="1" height="1" fill="#C09473" />
<rect x="28" y="7" width="1" height="1" fill="#C09473" />
<rect x="29" y="7" width="1" height="1" fill="#C09473" />
<rect x="30" y="7" width="1" height="1" fill="#C09473" />
<rect x="31" y="7" width="1" height="1" fill="#C09473" />
<rect x="32" y="7" width="1" height="1" fill="#C09473" />
<rect x="33" y="7" width="1" height="1" fill="#C09473" />
<rect x="34" y="7" width="1" height="1" fill="#C09473" />
<rect x="35" y="7" width="1" height="1" fill="#C09473" />
<rect x="36" y="7" width="1" height="1" fill="#C09473" />
<rect x="37" y="7" width="1" height="1" fill="#C09473" />
<rect x="38" y="7" width="1" height="1" fill="#C09473" />
<rect x="39" y="7" width="1" height="1" fill="#C09473" />
<rect x="40" y="7" width="1" height="1" fill="#C09473" />
<rect x="41" y="7" width="1" height="1" fill="#C09473" />
<rect x="42" y="7" width="1" height="1" fill="#C09473" />
<rect x="43" y="7" width="1" height="1" fill="#C09473" />
<rect x="44" y="7" width="1" height="1" fill="#C09473" />
<rect x="45" y="7" width="1" height="1" fill="#C09473" />
<rect x="46" y="7" width="1" height="1" fill="#C09473" />
<rect x="47" y="7" width="1" height="1" fill="#C09473" />
<rect x="48" y="7" width="1" height="1" fill="#C09473" />
<rect x="49" y="7" width="1" height="1" fill="#C09473" />
<rect x="50" y="7" width="1" height="1" fill="#C09473" />
<rect x="3" y="8" width="1" height="1" fill="#AD7757" />
<rect x="4" y="8" width="1" height="1" fill="#C09473" />
<rect x="5" y="8" width="1" height="1" fill="#C09473" />
<rect x="6" y="8" width="1" height="1" fill="#C09473" />
<rect x="7" y="8" width="1" height="1" fill="#C09473" />
<rect x="8" y="8" width="1" height="1" fill="#C09473" />
<rect x="9" y="8" width="1" height="1" fill="#C09473" />
<rect x="10" y="8" width="1" height="1" fill="#C09473" />
<rect x="11" y="8" width="1" height="1" fill="#C09473" />
<rect x="12" y="8" width="1" height="1" fill="#C09473" />
<rect x="13" y="8" width="1" height="1" fill="#C09473" />
<rect x="14" y="8" width="1" height="1" fill="#C09473" />
<rect x="15" y="8" width="1" height="1" fill="#C09473" />
<rect x="16" y="8" width="1" height="1" fill="#C09473" />
<rect x="17" y="8" width="1" height="1" fill="#C09473" />
<rect x="18" y="8" width="1" height="1" fill="#C09473" />
<rect x="19" y="8" width="1" height="1" fill="#C09473" />
<rect x="20" y="8" width="1" height="1" fill="#C09473" />
<rect x="21" y="8" width="1" height="1" fill="#C09473" />
<rect x="22" y="8" width="1" height="1" fill="#C09473" />
<rect x="23" y="8" width="1" height="1" fill="#C09473" />
<rect x="24" y="8" width="1" height="1" fill="#C09473" />
<rect x="25" y="8" width="1" height="1" fill="#C09473" />
<rect x="26" y="8" width="1" height="1" fill="#C09473" />
<rect x="27" y="8" width="1" height="1" fill="#C09473" />
<rect x="28" y="8" width="1" height="1" fill="#C09473" />
<rect x="29" y="8" width="1" height="1" fill="#C09473" />
<rect x="30" y="8" width="1" height="1" fill="#C09473" />
<rect x="31" y="8" width="1" height="1" fill="#C09473" />
<rect x="32" y="8" width="1" height="1" fill="#C09473" />
<rect x="33" y="8" width="1" height="1" fill="#C09473" />
<rect x="34" y="8" width="1" height="1" fill="#C09473" />
<rect x="35" y="8" width="1" height="1" fill="#C09473" />
<rect x="36" y="8" width="1" height="1" fill="#C09473" />
<rect x="37" y="8" width="1" height="1" fill="#C09473" />
<rect x="38" y="8" width="1" height="1" fill="#C09473" />
<rect x="39" y="8" width="1" height="1" fill="#C09473" />
<rect x="40" y="8" width="1" height="1" fill="#C09473" />
<rect x="41" y="8" width="1" height="1" fill="#C09473" />
<rect x="42" y="8" width="1" height="1" fill="#C09473" />
<rect x="43" y="8" width="1" height="1" fill="#C09473" />
<rect x="44" y="8" width="1" height="1" fill="#C09473" />
<rect x="45" y="8" width="1" height="1" fill="#C09473" />
<rect x="46" y="8" width="1" height="1" fill="#C09473" />
<rect x="47" y="8" width="1" height="1" fill="#C09473" />
<rect x="48" y="8" width="1" height="1" fill="#C09473" />
<rect x="49" y="8" width="1" height="1" fill="#C09473" />
<rect x="50" y="8" width="1" height="1" fill="#AD7757" />
<rect x="4" y="9" width="1" height="1" fill="#AD7757" />
<rect x="5" y="9" width="1" height="1" fill="#AD7757" />
<rect x="6" y="9" width="1" height="1" fill="#AD7757" />
<rect x="7" y="9" width="1" height="1" fill="#AD7757" />
<rect x="8" y="9" width="1" height="1" fill="#AD7757" />
<rect x="9" y="9" width="1" height="1" fill="#AD7757" />
<rect x="10" y="9" width="1" height="1" fill="#AD7757" />
<rect x="11" y="9" width="1" height="1" fill="#AD7757" />
<rect x="12" y="9" width="1" height="1" fill="#AD7757" />
<rect x="13" y="9" width="1" height="1" fill="#AD7757" />
<rect x="14" y="9" width="1" height="1" fill="#AD7757" />
<rect x="15" y="9" width="1" height="1" fill="#AD7757" />
<rect x="16" y="9" width="1" height="1" fill="#AD7757" />
<rect x="17" y="9" width="1" height="1" fill="#AD7757" />
<rect x="18" y="9" width="1" height="1" fill="#AD7757" />
<rect x="19" y="9" width="1" height="1" fill="#AD7757" />
<rect x="20" y="9" width="1" height="1" fill="#AD7757" />
<rect x="21" y="9" width="1" height="1" fill="#AD7757" />
<rect x="22" y="9" width="1" height="1" fill="#AD7757" />
<rect x="23" y="9" width="1" height="1" fill="#AD7757" />
<rect x="24" y="9" width="1" height="1" fill="#AD7757" />
<rect x="25" y="9" width="1" height="1" fill="#AD7757" />
<rect x="26" y="9" width="1" height="1" fill="#AD7757" />
<rect x="27" y="9" width="1" height="1" fill="#AD7757" />
<rect x="28" y="9" width="1" height="1" fill="#AD7757" />
<rect x="29" y="9" width="1" height="1" fill="#AD7757" />
<rect x="30" y="9" width="1" height="1" fill="#AD7757" />
<rect x="31" y="9" width="1" height="1" fill="#AD7757" />
<rect x="32" y="9" width="1" height="1" fill="#AD7757" />
<rect x="33" y="9" width="1" height="1" fill="#AD7757" />
<rect x="34" y="9" width="1" height="1" fill="#AD7757" />
<rect x="35" y="9" width="1" height="1" fill="#AD7757" />
<rect x="36" y="9" width="1" height="1" fill="#AD7757" />
<rect x="37" y="9" width="1" height="1" fill="#AD7757" />
<rect x="38" y="9" width="1" height="1" fill="#AD7757" />
<rect x="39" y="9" width="1" height="1" fill="#AD7757" />
<rect x="40" y="9" width="1" height="1" fill="#AD7757" />
<rect x="41" y="9" width="1" height="1" fill="#AD7757" />
<rect x="42" y="9" width="1" height="1" fill="#AD7757" />
<rect x="43" y="9" width="1" height="1" fill="#AD7757" />
<rect x="44" y="9" width="1" height="1" fill="#AD7757" />
<rect x="45" y="9" width="1" height="1" fill="#AD7757" />
<rect x="46" y="9" width="1" height="1" fill="#AD7757" />
<rect x="47" y="9" width="1" height="1" fill="#AD7757" />
<rect x="48" y="9" width="1" height="1" fill="#AD7757" />
<rect x="49" y="9" width="1" height="1" fill="#AD7757" />
</svg>