<?xml version="1.0" encoding="UTF-8" ?>
<svg version="1.1" width="54" height="32" xmlns="http://www.w3.org/2000/svg" shape-rendering="crispEdges">
<rect x="4" y="23" width="1" height="1" fill="#D7B594" />
<rect x="5" y="23" width="1" height="1" fill="#D7B594" />
<rect x="6" y="23" width="1" height="1" fill="#D7B594" />
<rect x="7" y="23" width="1" height="1" fill="#D7B594" />
<rect x="8" y="23" width="1" height="1" fill="#D7B594" />
<rect x="9" y="23" width="1" height="1" fill="#D7B594" />
<rect x="10" y="23" width="1" height="1" fill="#D7B594" />
<rect x="11" y="23" width="1" height="1" fill="#D7B594" />
<rect x="12" y="23" width="1" height="1" fill="#D7B594" />
<rect x="13" y="23" width="1" height="1" fill="#D7B594" />
<rect x="14" y="23" width="1" height="1" fill="#D7B594" />
<rect x="15" y="23" width="1" height="1" fill="#D7B594" />
<rect x="16" y="23" width="1" height="1" fill="#D7B594" />
<rect x="17" y="23" width="1" height="1" fill="#D7B594" />
<rect x="18" y="23" width="1" height="1" fill="#D7B594" />
<rect x="19" y="23" width="1" height="1" fill="#D7B594" />
<rect x="20" y="23" width="1" height="1" fill="#D7B594" />
<rect x="21" y="23" width="1" height="1" fill="#D7B594" />
<rect x="22" y="23" width="1" height="1" fill="#D7B594" />
<rect x="23" y="23" width="1" height="1" fill="#D7B594" />
<rect x="24" y="23" width="1" height="1" fill="#D7B594" />
<rect x="25" y="23" width="1" height="1" fill="#D7B594" />
<rect x="26" y="23" width="1" height="1" fill="#D7B594" />
<rect x="27" y="23" width="1" height="1" fill="#D7B594" />
<rect x="28" y="23" width="1" height="1" fill="#D7B594" />
<rect x="29" y="23" width="1" height="1" fill="#D7B594" />
<rect x="30" y="23" width="1" height="1" fill="#D7B594" />
<rect x="31" y="23" width="1" height="1" fill="#D7B594" />
<rect x="32" y="23" width="1" height="1" fill="#D7B594" />
<rect x="33" y="23" width="1" height="1" fill="#D7B594" />
<rect x="34" y="23" width="1" height="1" fill="#D7B594" />
<rect x="35" y="23" width="1" height="1" fill="#D7B594" />
<rect x="36" y="23" width="1" height="1" fill="#D7B594" />
<rect x="37" y="23" width="1" height="1" fill="#D7B594" />
<rect x="38" y="23" width="1" height="1" fill="#D7B594" />
<rect x="39" y="23" width="1" height="1" fill="#D7B594" />
<rect x="40" y="23" width="1" height="1" fill="#D7B594" />
<rect x="41" y="23" width="1" height="1" fill="#D7B594" />
<rect x="42" y="23" width="1" height="1" fill="#D7B594" />
<rect x="43" y="23" width="1" height="1" fill="#D7B594" />
<rect x="44" y="23" width="1" height="1" fill="#D7B594" />
<rect x="45" y="23" width="1" height="1" fill="#D7B594" />
<rect x="46" y="23" width="1" height="1" fill="#D7B594" />
<rect x="47" y="23" width="1" height="1" fill="#D7B594" />
<rect x="48" y="23" width="1" height="1" fill="#D7B594" />
<rect x="49" y="23" width="1" height="1" fill="#D7B594" />
<rect x="3" y="24" width="1" height="1" fill="#D7B594" />
<rect x="4" y="24" width="1" height="1" fill="#D7B594" />
<rect x="5" y="24" width="1" height="1" fill="#D7B594" />
<rect x="6" y="24" width="1" height="1" fill="#D7B594" />
<rect x="7" y="24" width="1" height="1" fill="#D7B594" />
<rect x="8" y="24" width="1" height="1" fill="#D7B594" />
<rect x="9" y="24" width="1" height="1" fill="#D7B594" />
<rect x="10" y="24" width="1" height="1" fill="#D7B594" />
<rect x="11" y="24" width="1" height="1" fill="#D7B594" />
<rect x="12" y="24" width="1" height="1" fill="#D7B594" />
<rect x="13" y="24" width="1" height="1" fill="#D7B594" />
<rect x="14" y="24" width="1" height="1" fill="#D7B594" />
<rect x="15" y="24" width="1" height="1" fill="#D7B594" />
<rect x="16" y="24" width="1" height="1" fill="#D7B594" />
<rect x="17" y="24" width="1" height="1" fill="#D7B594" />
<rect x="18" y="24" width="1" height="1" fill="#D7B594" />
<rect x="19" y="24" width="1" height="1" fill="#D7B594" />
<rect x="20" y="24" width="1" height="1" fill="#D7B594" />
<rect x="21" y="24" width="1" height="1" fill="#D7B594" />
<rect x="22" y="24" width="1" height="1" fill="#D7B594" />
<rect x="23" y="24" width="1" height="1" fill="#D7B594" />
<rect x="24" y="24" width="1" height="1" fill="#D7B594" />
<rect x="25" y="24" width="1" height="1" fill="#D7B594" />
<rect x="26" y="24" width="1" height="1" fill="#D7B594" />
<rect x="27" y="24" width="1" height="1" fill="#D7B594" />
<rect x="28" y="24" width="1" height="1" fill="#D7B594" />
<rect x="29" y="24" width="1" height="1" fill="#D7B594" />
<rect x="30" y="24" width="1" height="1" fill="#D7B594" />
<rect x="31" y="24" width="1" height="1" fill="#D7B594" />
<rect x="32" y="24" width="1" height="1" fill="#D7B594" />
<rect x="33" y="24" width="1" height="1" fill="#D7B594" />
<rect x="34" y="24" width="1" height="1" fill="#D7B594" />
<rect x="35" y="24" width="1" height="1" fill="#D7B594" />
<rect x="36" y="24" width="1" height="1" fill="#D7B594" />
<rect x="37" y="24" width="1" height="1" fill="#D7B594" />
<rect x="38" y="24" width="1" height="1" fill="#D7B594" />
<rect x="39" y="24" width="1" height="1" fill="#D7B594" />
<rect x="40" y="24" width="1" height="1" fill="#D7B594" />
<rect x="41" y="24" width="1" height="1" fill="#D7B594" />
<rect x="42" y="24" width="1" height="1" fill="#D7B594" />
<rect x="43" y="24" width="1" height="1" fill="#D7B594" />
<rect x="44" y="24" width="1" height="1" fill="#D7B594" />
<rect x="45" y="24" width="1" height="1" fill="#D7B594" />
<rect x="46" y="24" width="1" height="1" fill="#D7B594" />
<rect x="47" y="24" width="1" height="1" fill="#D7B594" />
<rect x="48" y="24" width="1" height="1" fill="#D7B594" />
<rect x="49" y="24" width="1" height="1" fill="#D7B594" />
<rect x="50" y="24" width="1" height="1" fill="#D7B594" />
<rect x="3" y="25" width="1" height="1" fill="#D7B594" />
<rect x="4" y="25" width="1" height="1" fill="#D7B594" />
<rect x="5" y="25" width="1" height="1" fill="#D7B594" />
<rect x="6" y="25" width="1" height="1" fill="#D7B594" />
<rect x="7" y="25" width="1" height="1" fill="#D7B594" />
<rect x="8" y="25" width="1" height="1" fill="#D7B594" />
<rect x="9" y="25" width="1" height="1" fill="#D7B594" />
<rect x="10" y="25" width="1" height="1" fill="#D7B594" />
<rect x="11" y="25" width="1" height="1" fill="#D7B594" />
<rect x="12" y="25" width="1" height="1" fill="#D7B594" />
<rect x="13" y="25" width="1" height="1" fill="#D7B594" />
<rect x="14" y="25" width="1" height="1" fill="#D7B594" />
<rect x="15" y="25" width="1" height="1" fill="#D7B594" />
<rect x="16" y="25" width="1" height="1" fill="#D7B594" />
<rect x="17" y="25" width="1" height="1" fill="#D7B594" />
<rect x="18" y="25" width="1" height="1" fill="#D7B594" />
<rect x="19" y="25" width="1" height="1" fill="#D7B594" />
<rect x="20" y="25" width="1" height="1" fill="#D7B594" />
<rect x="21" y="25" width="1" height="1" fill="#D7B594" />
<rect x="22" y="25" width="1" height="1" fill="#D7B594" />
<rect x="23" y="25" width="1" height="1" fill="#D7B594" />
<rect x="24" y="25" width="1" height="1" fill="#D7B594" />
<rect x="25" y="25" width="1" height="1" fill="#D7B594" />
<rect x="26" y="25" width="1" height="1" fill="#D7B594" />
<rect x="27" y="25" width="1" height="1" fill="#D7B594" />
<rect x="28" y="25" width="1" height="1" fill="#D7B594" />
<rect x="29" y="25" width="1" height="1" fill="#D7B594" />
<rect x="30" y="25" width="1" height="1" fill="#D7B594" />
<rect x="31" y="25" width="1" height="1" fill="#D7B594" />
<rect x="32" y="25" width="1" height="1" fill="#D7B594" />
<rect x="33" y="25" width="1" height="1" fill="#D7B594" />
<rect x="34" y="25" width="1" height="1" fill="#D7B594" />
<rect x="35" y="25" width="1" height="1" fill="#D7B594" />
<rect x="36" y="25" width="1" height="1" fill="#D7B594" />
<rect x="37" y="25" width="1" height="1" fill="#D7B594" />
<rect x="38" y="25" width="1" height="1" fill="#D7B594" />
<rect x="39" y="25" width="1" height="1" fill="#D7B594" />
<rect x="40" y="25" width="1" height="1" fill="#D7B594" />
<rect x="41" y="25" width="1" height="1" fill="#D7B594" />
<rect x="42" y="25" width="1" height="1" fill="#D7B594" />
<rect x="43" y="25" width="1" height="1" fill="#D7B594" />
<rect x="44" y="25" width="1" height="1" fill="#D7B594" />
<rect x="45" y="25" width="1" height="1" fill="#D7B594" />
<rect x="46" y="25" width="1" height="1" fill="#D7B594" />
<rect x="47" y="25" width="1" height="1" fill="#D7B594" />
<rect x="48" y="25" width="1" height="1" fill="#D7B594" />
<rect x="49" y="25" width="1" height="1" fill="#D7B594" />
<rect x="50" y="25" width="1" height="1" fill="#D7B594" />
<rect x="3" y="26" width="1" height="1" fill="#D7B594" />
<rect x="4" y="26" width="1" height="1" fill="#D7B594" />
<rect x="5" y="26" width="1" height="1" fill="#D7B594" />
<rect x="6" y="26" width="1" height="1" fill="#D7B594" />
<rect x="7" y="26" width="1" height="1" fill="#D7B594" />
<rect x="8" y="26" width="1" height="1" fill="#D7B594" />
<rect x="9" y="26" width="1" height="1" fill="#D7B594" />
<rect x="10" y="26" width="1" height="1" fill="#D7B594" />
<rect x="11" y="26" width="1" height="1" fill="#D7B594" />
<rect x="12" y="26" width="1" height="1" fill="#D7B594" />
<rect x="13" y="26" width="1" height="1" fill="#D7B594" />
<rect x="14" y="26" width="1" height="1" fill="#D7B594" />
<rect x="15" y="26" width="1" height="1" fill="#D7B594" />
<rect x="16" y="26" width="1" height="1" fill="#D7B594" />
<rect x="17" y="26" width="1" height="1" fill="#D7B594" />
<rect x="18" y="26" width="1" height="1" fill="#D7B594" />
<rect x="19" y="26" width="1" height="1" fill="#D7B594" />
<rect x="20" y="26" width="1" height="1" fill="#D7B594" />
<rect x="21" y="26" width="1" height="1" fill="#D7B594" />
<rect x="22" y="26" width="1" height="1" fill="#D7B594" />
<rect x="23" y="26" width="1" height="1" fill="#D7B594" />
<rect x="24" y="26" width="1" height="1" fill="#D7B594" />
<rect x="25" y="26" width="1" height="1" fill="#D7B594" />
<rect x="26" y="26" width="1" height="1" fill="#D7B594" />
<rect x="27" y="26" width="1" height="1" fill="#D7B594" />
<rect x="28" y="26" width="1" height="1" fill="#D7B594" />
<rect x="29" y="26" width="1" height="1" fill="#D7B594" />
<rect x="30" y="26" width="1" height="1" fill="#D7B594" />
<rect x="31" y="26" width="1" height="1" fill="#D7B594" />
<rect x="32" y="26" width="1" height="1" fill="#D7B594" />
<rect x="33" y="26" width="1" height="1" fill="#D7B594" />
<rect x="34" y="26" width="1" height="1" fill="#D7B594" />
<rect x="35" y="26" width="1" height="1" fill="#D7B594" />
<rect x="36" y="26" width="1" height="1" fill="#D7B594" />
<rect x="37" y="26" width="1" height="1" fill="#D7B594" />
<rect x="38" y="26" width="1" height="1" fill="#D7B594" />
<rect x="39" y="26" width="1" height="1" fill="#D7B594" />
<rect x="40" y="26" width="1" height="1" fill="#D7B594" />
<rect x="41" y="26" width="1" height="1" fill="#D7B594" />
<rect x="42" y="26" width="1" height="1" fill="#D7B594" />
<rect x="43" y="26" width="1" height="1" fill="#D7B594" />
<rect x="44" y="26" width="1" height="1" fill="#D7B594" />
<rect x="45" y="26" width="1" height="1" fill="#D7B594" />
<rect x="46" y="26" width="1" height="1" fill="#D7B594" />
<rect x="47" y="26" width="1" height="1" fill="#D7B594" />
<rect x="48" y="26" width="1" height="1" fill="#D7B594" />
<rect x="49" y="26" width="1" height="1" fill="#D7B594" />
<rect x="50" y="26" width="1" height="1" fill="#D7B594" />
<rect x="4" y="27" width="1" height="1" fill="#D7B594" />
<rect x="5" y="27" width="1" height="1" fill="#D7B594" />
<rect x="6" y="27" width="1" height="1" fill="#D7B594" />
<rect x="7" y="27" width="1" height="1" fill="#D7B594" />
<rect x="8" y="27" width="1" height="1" fill="#D7B594" />
<rect x="9" y="27" width="1" height="1" fill="#D7B594" />
<rect x="10" y="27" width="1" height="1" fill="#D7B594" />
<rect x="11" y="27" width="1" height="1" fill="#D7B594" />
<rect x="12" y="27" width="1" height="1" fill="#D7B594" />
<rect x="13" y="27" width="1" height="1" fill="#D7B594" />
<rect x="14" y="27" width="1" height="1" fill="#D7B594" />
<rect x="15" y="27" width="1" height="1" fill="#D7B594" />
<rect x="16" y="27" width="1" height="1" fill="#D7B594" />
<rect x="17" y="27" width="1" height="1" fill="#D7B594" />
<rect x="18" y="27" width="1" height="1" fill="#D7B594" />
<rect x="19" y="27" width="1" height="1" fill="#D7B594" />
<rect x="20" y="27" width="1" height="1" fill="#D7B594" />
<rect x="21" y="27" width="1" height="1" fill="#D7B594" />
<rect x="22" y="27" width="1" height="1" fill="#D7B594" />
<rect x="23" y="27" width="1" height="1" fill="#D7B594" />
<rect x="24" y="27" width="1" height="1" fill="#D7B594" />
<rect x="25" y="27" width="1" height="1" fill="#D7B594" />
<rect x="26" y="27" width="1" height="1" fill="#D7B594" />
<rect x="27" y="27" width="1" height="1" fill="#D7B594" />
<rect x="28" y="27" width="1" height="1" fill="#D7B594" />
<rect x="29" y="27" width="1" height="1" fill="#D7B594" />
<rect x="30" y="27" width="1" height="1" fill="#D7B594" />
<rect x="31" y="27" width="1" height="1" fill="#D7B594" />
<rect x="32" y="27" width="1" height="1" fill="#D7B594" />
<rect x="33" y="27" width="1" height="1" fill="#D7B594" />
<rect x="34" y="27" width="1" height="1" fill="#D7B594" />
<rect x="35" y="27" width="1" height="1" fill="#D7B594" />
<rect x="36" y="27" width="1" height="1" fill="#D7B594" />
<rect x="37" y="27" width="1" height="1" fill="#D7B594" />
<rect x="38" y="27" width="1" height="1" fill="#D7B594" />
<rect x="39" y="27" width="1" height="1" fill="#D7B594" />
<rect x="40" y="27" width="1" height="1" fill="#D7B594" />
<rect x="41" y="27" width="1" height="1" fill="#D7B594" />
<rect x="42" y="27" width="1" height="1" fill="#D7B594" />
<rect x="43" y="27" width="1" height="1" fill="#D7B594" />
<rect x="44" y="27" width="1" height="1" fill="#D7B594" />
<rect x="45" y="27" width="1" height="1" fill="#D7B594" />
<rect x="46" y="27" width="1" height="1" fill="#D7B594" />
<rect x="47" y="27" width="1" height="1" fill="#D7B594" />
<rect x="48" y="27" width="1" height="1" fill="#D7B594" />
<rect x="49" y="27" width="1" height="1" fill="#D7B594" />
</svg>