<?xml version="1.0" encoding="UTF-8" ?>
<svg version="1.1" width="128" height="80" xmlns="http://www.w3.org/2000/svg" shape-rendering="crispEdges">
<rect x="45" y="19" width="1" height="1" fill="#DE9E41" />
<rect x="44" y="20" width="1" height="1" fill="#DE9E41" />
<rect x="45" y="20" width="1" height="1" fill="#E8C170" />
<rect x="46" y="20" width="1" height="1" fill="#DE9E41" />
<rect x="39" y="21" width="1" height="1" fill="#DE9E41" />
<rect x="45" y="21" width="1" height="1" fill="#DE9E41" />
<rect x="52" y="21" width="1" height="1" fill="#DE9E41" />
<rect x="38" y="22" width="1" height="1" fill="#DE9E41" />
<rect x="39" y="22" width="1" height="1" fill="#E8C170" />
<rect x="40" y="22" width="1" height="1" fill="#DE9E41" />
<rect x="51" y="22" width="1" height="1" fill="#DE9E41" />
<rect x="52" y="22" width="1" height="1" fill="#E8C170" />
<rect x="53" y="22" width="1" height="1" fill="#DE9E41" />
<rect x="39" y="23" width="1" height="1" fill="#DE9E41" />
<rect x="52" y="23" width="1" height="1" fill="#DE9E41" />
<rect x="42" y="25" width="1" height="1" fill="#BE772B" />
<rect x="43" y="25" width="1" height="1" fill="#BE772B" />
<rect x="44" y="25" width="1" height="1" fill="#BE772B" />
<rect x="45" y="25" width="1" height="1" fill="#BE772B" />
<rect x="46" y="25" width="1" height="1" fill="#BE772B" />
<rect x="47" y="25" width="1" height="1" fill="#BE772B" />
<rect x="48" y="25" width="1" height="1" fill="#BE772B" />
<rect x="49" y="25" width="1" height="1" fill="#BE772B" />
<rect x="40" y="26" width="1" height="1" fill="#DE9E41" />
<rect x="41" y="26" width="1" height="1" fill="#DE9E41" />
<rect x="42" y="26" width="1" height="1" fill="#DE9E41" />
<rect x="43" y="26" width="1" height="1" fill="#DE9E41" />
<rect x="44" y="26" width="1" height="1" fill="#DE9E41" />
<rect x="45" y="26" width="1" height="1" fill="#DE9E41" />
<rect x="46" y="26" width="1" height="1" fill="#DE9E41" />
<rect x="47" y="26" width="1" height="1" fill="#DE9E41" />
<rect x="48" y="26" width="1" height="1" fill="#DE9E41" />
<rect x="49" y="26" width="1" height="1" fill="#DE9E41" />
<rect x="50" y="26" width="1" height="1" fill="#BE772B" />
<rect x="51" y="26" width="1" height="1" fill="#BE772B" />
<rect x="39" y="27" width="1" height="1" fill="#DE9E41" />
<rect x="40" y="27" width="1" height="1" fill="#DE9E41" />
<rect x="41" y="27" width="1" height="1" fill="#DE9E41" />
<rect x="42" y="27" width="1" height="1" fill="#DE9E41" />
<rect x="43" y="27" width="1" height="1" fill="#DE9E41" />
<rect x="44" y="27" width="1" height="1" fill="#DE9E41" />
<rect x="45" y="27" width="1" height="1" fill="#DE9E41" />
<rect x="46" y="27" width="1" height="1" fill="#DE9E41" />
<rect x="47" y="27" width="1" height="1" fill="#DE9E41" />
<rect x="48" y="27" width="1" height="1" fill="#DE9E41" />
<rect x="49" y="27" width="1" height="1" fill="#DE9E41" />
<rect x="50" y="27" width="1" height="1" fill="#DE9E41" />
<rect x="51" y="27" width="1" height="1" fill="#DE9E41" />
<rect x="52" y="27" width="1" height="1" fill="#BE772B" />
<rect x="38" y="28" width="1" height="1" fill="#DE9E41" />
<rect x="39" y="28" width="1" height="1" fill="#DE9E41" />
<rect x="40" y="28" width="1" height="1" fill="#DE9E41" />
<rect x="41" y="28" width="1" height="1" fill="#DE9E41" />
<rect x="42" y="28" width="1" height="1" fill="#DE9E41" />
<rect x="43" y="28" width="1" height="1" fill="#E8C170" />
<rect x="44" y="28" width="1" height="1" fill="#E8C170" />
<rect x="45" y="28" width="1" height="1" fill="#E8C170" />
<rect x="46" y="28" width="1" height="1" fill="#E8C170" />
<rect x="47" y="28" width="1" height="1" fill="#E8C170" />
<rect x="48" y="28" width="1" height="1" fill="#E8C170" />
<rect x="49" y="28" width="1" height="1" fill="#DE9E41" />
<rect x="50" y="28" width="1" height="1" fill="#DE9E41" />
<rect x="51" y="28" width="1" height="1" fill="#DE9E41" />
<rect x="52" y="28" width="1" height="1" fill="#DE9E41" />
<rect x="53" y="28" width="1" height="1" fill="#BE772B" />
<rect x="37" y="29" width="1" height="1" fill="#DE9E41" />
<rect x="38" y="29" width="1" height="1" fill="#DE9E41" />
<rect x="39" y="29" width="1" height="1" fill="#DE9E41" />
<rect x="40" y="29" width="1" height="1" fill="#DE9E41" />
<rect x="41" y="29" width="1" height="1" fill="#E7D5B3" />
<rect x="42" y="29" width="1" height="1" fill="#E7D5B3" />
<rect x="43" y="29" width="1" height="1" fill="#E7D5B3" />
<rect x="44" y="29" width="1" height="1" fill="#E7D5B3" />
<rect x="45" y="29" width="1" height="1" fill="#E7D5B3" />
<rect x="46" y="29" width="1" height="1" fill="#E7D5B3" />
<rect x="47" y="29" width="1" height="1" fill="#E7D5B3" />
<rect x="48" y="29" width="1" height="1" fill="#E7D5B3" />
<rect x="49" y="29" width="1" height="1" fill="#E8C170" />
<rect x="50" y="29" width="1" height="1" fill="#E8C170" />
<rect x="51" y="29" width="1" height="1" fill="#DE9E41" />
<rect x="52" y="29" width="1" height="1" fill="#DE9E41" />
<rect x="53" y="29" width="1" height="1" fill="#DE9E41" />
<rect x="54" y="29" width="1" height="1" fill="#BE772B" />
<rect x="37" y="30" width="1" height="1" fill="#DE9E41" />
<rect x="38" y="30" width="1" height="1" fill="#DE9E41" />
<rect x="39" y="30" width="1" height="1" fill="#DE9E41" />
<rect x="40" y="30" width="1" height="1" fill="#E7D5B3" />
<rect x="41" y="30" width="1" height="1" fill="#E7D5B3" />
<rect x="42" y="30" width="1" height="1" fill="#E7D5B3" />
<rect x="43" y="30" width="1" height="1" fill="#E7D5B3" />
<rect x="44" y="30" width="1" height="1" fill="#E7D5B3" />
<rect x="45" y="30" width="1" height="1" fill="#E7D5B3" />
<rect x="46" y="30" width="1" height="1" fill="#E7D5B3" />
<rect x="47" y="30" width="1" height="1" fill="#E7D5B3" />
<rect x="48" y="30" width="1" height="1" fill="#E7D5B3" />
<rect x="49" y="30" width="1" height="1" fill="#E7D5B3" />
<rect x="50" y="30" width="1" height="1" fill="#E7D5B3" />
<rect x="51" y="30" width="1" height="1" fill="#E8C170" />
<rect x="52" y="30" width="1" height="1" fill="#DE9E41" />
<rect x="53" y="30" width="1" height="1" fill="#DE9E41" />
<rect x="54" y="30" width="1" height="1" fill="#BE772B" />
<rect x="37" y="31" width="1" height="1" fill="#DE9E41" />
<rect x="38" y="31" width="1" height="1" fill="#DE9E41" />
<rect x="39" y="31" width="1" height="1" fill="#DE9E41" />
<rect x="40" y="31" width="1" height="1" fill="#E7D5B3" />
<rect x="41" y="31" width="1" height="1" fill="#341C27" />
<rect x="42" y="31" width="1" height="1" fill="#341C27" />
<rect x="43" y="31" width="1" height="1" fill="#341C27" />
<rect x="44" y="31" width="1" height="1" fill="#E7D5B3" />
<rect x="45" y="31" width="1" height="1" fill="#E7D5B3" />
<rect x="46" y="31" width="1" height="1" fill="#E7D5B3" />
<rect x="47" y="31" width="1" height="1" fill="#341C27" />
<rect x="48" y="31" width="1" height="1" fill="#341C27" />
<rect x="49" y="31" width="1" height="1" fill="#341C27" />
<rect x="50" y="31" width="1" height="1" fill="#E7D5B3" />
<rect x="51" y="31" width="1" height="1" fill="#E8C170" />
<rect x="52" y="31" width="1" height="1" fill="#DE9E41" />
<rect x="53" y="31" width="1" height="1" fill="#DE9E41" />
<rect x="54" y="31" width="1" height="1" fill="#BE772B" />
<rect x="37" y="32" width="1" height="1" fill="#DE9E41" />
<rect x="38" y="32" width="1" height="1" fill="#DE9E41" />
<rect x="39" y="32" width="1" height="1" fill="#D7B594" />
<rect x="40" y="32" width="1" height="1" fill="#341C27" />
<rect x="41" y="32" width="1" height="1" fill="#EBEDE9" />
<rect x="42" y="32" width="1" height="1" fill="#EBEDE9" />
<rect x="43" y="32" width="1" height="1" fill="#EBEDE9" />
<rect x="44" y="32" width="1" height="1" fill="#341C27" />
<rect x="45" y="32" width="1" height="1" fill="#341C27" />
<rect x="46" y="32" width="1" height="1" fill="#341C27" />
<rect x="47" y="32" width="1" height="1" fill="#EBEDE9" />
<rect x="48" y="32" width="1" height="1" fill="#EBEDE9" />
<rect x="49" y="32" width="1" height="1" fill="#EBEDE9" />
<rect x="50" y="32" width="1" height="1" fill="#341C27" />
<rect x="51" y="32" width="1" height="1" fill="#341C27" />
<rect x="52" y="32" width="1" height="1" fill="#D7B594" />
<rect x="53" y="32" width="1" height="1" fill="#DE9E41" />
<rect x="54" y="32" width="1" height="1" fill="#BE772B" />
<rect x="37" y="33" width="1" height="1" fill="#E7D5B3" />
<rect x="38" y="33" width="1" height="1" fill="#DE9E41" />
<rect x="39" y="33" width="1" height="1" fill="#D7B594" />
<rect x="40" y="33" width="1" height="1" fill="#341C27" />
<rect x="41" y="33" width="1" height="1" fill="#C7CFCC" />
<rect x="42" y="33" width="1" height="1" fill="#C7CFCC" />
<rect x="43" y="33" width="1" height="1" fill="#25562E" />
<rect x="44" y="33" width="1" height="1" fill="#341C27" />
<rect x="45" y="33" width="1" height="1" fill="#D7B594" />
<rect x="46" y="33" width="1" height="1" fill="#341C27" />
<rect x="47" y="33" width="1" height="1" fill="#25562E" />
<rect x="48" y="33" width="1" height="1" fill="#C7CFCC" />
<rect x="49" y="33" width="1" height="1" fill="#C7CFCC" />
<rect x="50" y="33" width="1" height="1" fill="#341C27" />
<rect x="51" y="33" width="1" height="1" fill="#E7D5B3" />
<rect x="52" y="33" width="1" height="1" fill="#D7B594" />
<rect x="53" y="33" width="1" height="1" fill="#DE9E41" />
<rect x="54" y="33" width="1" height="1" fill="#BE772B" />
<rect x="36" y="34" width="1" height="1" fill="#E7D5B3" />
<rect x="37" y="34" width="1" height="1" fill="#E7D5B3" />
<rect x="38" y="34" width="1" height="1" fill="#DE9E41" />
<rect x="39" y="34" width="1" height="1" fill="#DA863E" />
<rect x="40" y="34" width="1" height="1" fill="#341C27" />
<rect x="41" y="34" width="1" height="1" fill="#C7CFCC" />
<rect x="42" y="34" width="1" height="1" fill="#C7CFCC" />
<rect x="43" y="34" width="1" height="1" fill="#25562E" />
<rect x="44" y="34" width="1" height="1" fill="#341C27" />
<rect x="45" y="34" width="1" height="1" fill="#D7B594" />
<rect x="46" y="34" width="1" height="1" fill="#341C27" />
<rect x="47" y="34" width="1" height="1" fill="#25562E" />
<rect x="48" y="34" width="1" height="1" fill="#C7CFCC" />
<rect x="49" y="34" width="1" height="1" fill="#C7CFCC" />
<rect x="50" y="34" width="1" height="1" fill="#341C27" />
<rect x="51" y="34" width="1" height="1" fill="#E7D5B3" />
<rect x="52" y="34" width="1" height="1" fill="#DA863E" />
<rect x="53" y="34" width="1" height="1" fill="#DE9E41" />
<rect x="54" y="34" width="1" height="1" fill="#BE772B" />
<rect x="36" y="35" width="1" height="1" fill="#E7D5B3" />
<rect x="37" y="35" width="1" height="1" fill="#E7D5B3" />
<rect x="38" y="35" width="1" height="1" fill="#DE9E41" />
<rect x="39" y="35" width="1" height="1" fill="#DE9E41" />
<rect x="40" y="35" width="1" height="1" fill="#E3D1B0" />
<rect x="41" y="35" width="1" height="1" fill="#341C27" />
<rect x="42" y="35" width="1" height="1" fill="#341C27" />
<rect x="43" y="35" width="1" height="1" fill="#341C27" />
<rect x="44" y="35" width="1" height="1" fill="#E7D5B3" />
<rect x="45" y="35" width="1" height="1" fill="#E7D5B3" />
<rect x="46" y="35" width="1" height="1" fill="#E7D5B3" />
<rect x="47" y="35" width="1" height="1" fill="#341C27" />
<rect x="48" y="35" width="1" height="1" fill="#341C27" />
<rect x="49" y="35" width="1" height="1" fill="#341C27" />
<rect x="50" y="35" width="1" height="1" fill="#E7D5B3" />
<rect x="51" y="35" width="1" height="1" fill="#E7D5B3" />
<rect x="52" y="35" width="1" height="1" fill="#DE9E41" />
<rect x="53" y="35" width="1" height="1" fill="#DE9E41" />
<rect x="54" y="35" width="1" height="1" fill="#BE772B" />
<rect x="35" y="36" width="1" height="1" fill="#151D28" />
<rect x="36" y="36" width="1" height="1" fill="#151D28" />
<rect x="37" y="36" width="1" height="1" fill="#151D28" />
<rect x="38" y="36" width="1" height="1" fill="#DE9E41" />
<rect x="39" y="36" width="1" height="1" fill="#DE9E41" />
<rect x="40" y="36" width="1" height="1" fill="#E3D1B0" />
<rect x="41" y="36" width="1" height="1" fill="#E7D5B3" />
<rect x="42" y="36" width="1" height="1" fill="#E7D5B3" />
<rect x="43" y="36" width="1" height="1" fill="#E7D5B3" />
<rect x="44" y="36" width="1" height="1" fill="#E7D5B3" />
<rect x="45" y="36" width="1" height="1" fill="#E7D5B3" />
<rect x="46" y="36" width="1" height="1" fill="#E7D5B3" />
<rect x="47" y="36" width="1" height="1" fill="#E7D5B3" />
<rect x="48" y="36" width="1" height="1" fill="#E7D5B3" />
<rect x="49" y="36" width="1" height="1" fill="#E7D5B3" />
<rect x="50" y="36" width="1" height="1" fill="#E7D5B3" />
<rect x="51" y="36" width="1" height="1" fill="#E3D1B0" />
<rect x="52" y="36" width="1" height="1" fill="#DE9E41" />
<rect x="53" y="36" width="1" height="1" fill="#DE9E41" />
<rect x="54" y="36" width="1" height="1" fill="#BE772B" />
<rect x="36" y="37" width="1" height="1" fill="#151D28" />
<rect x="37" y="37" width="1" height="1" fill="#151D28" />
<rect x="38" y="37" width="1" height="1" fill="#DE9E41" />
<rect x="39" y="37" width="1" height="1" fill="#DE9E41" />
<rect x="40" y="37" width="1" height="1" fill="#DE9E41" />
<rect x="41" y="37" width="1" height="1" fill="#E3D1B0" />
<rect x="42" y="37" width="1" height="1" fill="#E7D5B3" />
<rect x="43" y="37" width="1" height="1" fill="#E7D5B3" />
<rect x="44" y="37" width="1" height="1" fill="#E7D5B3" />
<rect x="45" y="37" width="1" height="1" fill="#DF84A5" />
<rect x="46" y="37" width="1" height="1" fill="#DF84A5" />
<rect x="47" y="37" width="1" height="1" fill="#E7D5B3" />
<rect x="48" y="37" width="1" height="1" fill="#E7D5B3" />
<rect x="49" y="37" width="1" height="1" fill="#E7D5B3" />
<rect x="50" y="37" width="1" height="1" fill="#E3D1B0" />
<rect x="51" y="37" width="1" height="1" fill="#DE9E41" />
<rect x="52" y="37" width="1" height="1" fill="#DE9E41" />
<rect x="53" y="37" width="1" height="1" fill="#DE9E41" />
<rect x="54" y="37" width="1" height="1" fill="#BE772B" />
<rect x="36" y="38" width="1" height="1" fill="#151D28" />
<rect x="37" y="38" width="1" height="1" fill="#151D28" />
<rect x="38" y="38" width="1" height="1" fill="#DE9E41" />
<rect x="39" y="38" width="1" height="1" fill="#DE9E41" />
<rect x="40" y="38" width="1" height="1" fill="#DE9E41" />
<rect x="41" y="38" width="1" height="1" fill="#DE9E41" />
<rect x="42" y="38" width="1" height="1" fill="#E3D1B0" />
<rect x="43" y="38" width="1" height="1" fill="#E7D5B3" />
<rect x="44" y="38" width="1" height="1" fill="#E7D5B3" />
<rect x="45" y="38" width="1" height="1" fill="#DF84A5" />
<rect x="46" y="38" width="1" height="1" fill="#DF84A5" />
<rect x="47" y="38" width="1" height="1" fill="#E7D5B3" />
<rect x="48" y="38" width="1" height="1" fill="#E7D5B3" />
<rect x="49" y="38" width="1" height="1" fill="#E3D1B0" />
<rect x="50" y="38" width="1" height="1" fill="#DE9E41" />
<rect x="51" y="38" width="1" height="1" fill="#DE9E41" />
<rect x="52" y="38" width="1" height="1" fill="#DE9E41" />
<rect x="53" y="38" width="1" height="1" fill="#BE772B" />
<rect x="36" y="39" width="1" height="1" fill="#151D28" />
<rect x="37" y="39" width="1" height="1" fill="#151D28" />
<rect x="38" y="39" width="1" height="1" fill="#151D28" />
<rect x="39" y="39" width="1" height="1" fill="#DE9E41" />
<rect x="40" y="39" width="1" height="1" fill="#DE9E41" />
<rect x="41" y="39" width="1" height="1" fill="#DE9E41" />
<rect x="42" y="39" width="1" height="1" fill="#DE9E41" />
<rect x="43" y="39" width="1" height="1" fill="#DE9E41" />
<rect x="44" y="39" width="1" height="1" fill="#E3D1B0" />
<rect x="45" y="39" width="1" height="1" fill="#E3D1B0" />
<rect x="46" y="39" width="1" height="1" fill="#E3D1B0" />
<rect x="47" y="39" width="1" height="1" fill="#E3D1B0" />
<rect x="48" y="39" width="1" height="1" fill="#DE9E41" />
<rect x="49" y="39" width="1" height="1" fill="#DE9E41" />
<rect x="50" y="39" width="1" height="1" fill="#DE9E41" />
<rect x="51" y="39" width="1" height="1" fill="#DE9E41" />
<rect x="52" y="39" width="1" height="1" fill="#DE9E41" />
<rect x="37" y="40" width="1" height="1" fill="#151D28" />
<rect x="38" y="40" width="1" height="1" fill="#151D28" />
<rect x="41" y="40" width="1" height="1" fill="#DE9E41" />
<rect x="42" y="40" width="1" height="1" fill="#DE9E41" />
<rect x="44" y="40" width="1" height="1" fill="#752438" />
<rect x="45" y="40" width="1" height="1" fill="#D7B594" />
<rect x="46" y="40" width="1" height="1" fill="#D7B594" />
<rect x="47" y="40" width="1" height="1" fill="#752438" />
<rect x="49" y="40" width="1" height="1" fill="#DE9E41" />
<rect x="50" y="40" width="1" height="1" fill="#DE9E41" />
<rect x="51" y="40" width="1" height="1" fill="#DE9E41" />
<rect x="37" y="41" width="1" height="1" fill="#151D28" />
<rect x="38" y="41" width="1" height="1" fill="#151D28" />
<rect x="43" y="41" width="1" height="1" fill="#EBEDE9" />
<rect x="44" y="41" width="1" height="1" fill="#EBEDE9" />
<rect x="45" y="41" width="1" height="1" fill="#A53030" />
<rect x="46" y="41" width="1" height="1" fill="#A53030" />
<rect x="47" y="41" width="1" height="1" fill="#EBEDE9" />
<rect x="48" y="41" width="1" height="1" fill="#EBEDE9" />
<rect x="37" y="42" width="1" height="1" fill="#151D28" />
<rect x="38" y="42" width="1" height="1" fill="#151D28" />
<rect x="39" y="42" width="1" height="1" fill="#151D28" />
<rect x="41" y="42" width="1" height="1" fill="#151D28" />
<rect x="42" y="42" width="1" height="1" fill="#090A14" />
<rect x="43" y="42" width="1" height="1" fill="#090A14" />
<rect x="44" y="42" width="1" height="1" fill="#EBEDE9" />
<rect x="45" y="42" width="1" height="1" fill="#A53030" />
<rect x="46" y="42" width="1" height="1" fill="#A53030" />
<rect x="47" y="42" width="1" height="1" fill="#EBEDE9" />
<rect x="48" y="42" width="1" height="1" fill="#EBEDE9" />
<rect x="49" y="42" width="1" height="1" fill="#090A14" />
<rect x="50" y="42" width="1" height="1" fill="#151D28" />
<rect x="38" y="43" width="1" height="1" fill="#151D28" />
<rect x="39" y="43" width="1" height="1" fill="#151D28" />
<rect x="40" y="43" width="1" height="1" fill="#151D28" />
<rect x="41" y="43" width="1" height="1" fill="#151D28" />
<rect x="42" y="43" width="1" height="1" fill="#151D28" />
<rect x="43" y="43" width="1" height="1" fill="#090A14" />
<rect x="44" y="43" width="1" height="1" fill="#EBEDE9" />
<rect x="45" y="43" width="1" height="1" fill="#A53030" />
<rect x="46" y="43" width="1" height="1" fill="#A53030" />
<rect x="47" y="43" width="1" height="1" fill="#EBEDE9" />
<rect x="48" y="43" width="1" height="1" fill="#090A14" />
<rect x="49" y="43" width="1" height="1" fill="#090A14" />
<rect x="50" y="43" width="1" height="1" fill="#151D28" />
<rect x="51" y="43" width="1" height="1" fill="#151D28" />
<rect x="52" y="43" width="1" height="1" fill="#151D28" />
<rect x="38" y="44" width="1" height="1" fill="#151D28" />
<rect x="39" y="44" width="1" height="1" fill="#151D28" />
<rect x="40" y="44" width="1" height="1" fill="#151D28" />
<rect x="41" y="44" width="1" height="1" fill="#151D28" />
<rect x="42" y="44" width="1" height="1" fill="#151D28" />
<rect x="43" y="44" width="1" height="1" fill="#090A14" />
<rect x="44" y="44" width="1" height="1" fill="#090A14" />
<rect x="45" y="44" width="1" height="1" fill="#752438" />
<rect x="46" y="44" width="1" height="1" fill="#A53030" />
<rect x="47" y="44" width="1" height="1" fill="#EBEDE9" />
<rect x="48" y="44" width="1" height="1" fill="#090A14" />
<rect x="49" y="44" width="1" height="1" fill="#151D28" />
<rect x="50" y="44" width="1" height="1" fill="#151D28" />
<rect x="51" y="44" width="1" height="1" fill="#151D28" />
<rect x="52" y="44" width="1" height="1" fill="#151D28" />
<rect x="39" y="45" width="1" height="1" fill="#151D28" />
<rect x="40" y="45" width="1" height="1" fill="#151D28" />
<rect x="41" y="45" width="1" height="1" fill="#151D28" />
<rect x="42" y="45" width="1" height="1" fill="#151D28" />
<rect x="43" y="45" width="1" height="1" fill="#151D28" />
<rect x="44" y="45" width="1" height="1" fill="#090A14" />
<rect x="45" y="45" width="1" height="1" fill="#411D31" />
<rect x="46" y="45" width="1" height="1" fill="#752438" />
<rect x="47" y="45" width="1" height="1" fill="#090A14" />
<rect x="48" y="45" width="1" height="1" fill="#090A14" />
<rect x="49" y="45" width="1" height="1" fill="#151D28" />
<rect x="50" y="45" width="1" height="1" fill="#151D28" />
<rect x="51" y="45" width="1" height="1" fill="#151D28" />
<rect x="52" y="45" width="1" height="1" fill="#151D28" />
<rect x="53" y="45" width="1" height="1" fill="#151D28" />
<rect x="40" y="46" width="1" height="1" fill="#151D28" />
<rect x="41" y="46" width="1" height="1" fill="#151D28" />
<rect x="42" y="46" width="1" height="1" fill="#151D28" />
<rect x="43" y="46" width="1" height="1" fill="#151D28" />
<rect x="44" y="46" width="1" height="1" fill="#090A14" />
<rect x="45" y="46" width="1" height="1" fill="#090A14" />
<rect x="46" y="46" width="1" height="1" fill="#411D31" />
<rect x="47" y="46" width="1" height="1" fill="#090A14" />
<rect x="48" y="46" width="1" height="1" fill="#151D28" />
<rect x="49" y="46" width="1" height="1" fill="#151D28" />
<rect x="50" y="46" width="1" height="1" fill="#151D28" />
<rect x="51" y="46" width="1" height="1" fill="#151D28" />
<rect x="52" y="46" width="1" height="1" fill="#151D28" />
<rect x="53" y="46" width="1" height="1" fill="#151D28" />
<rect x="41" y="47" width="1" height="1" fill="#151D28" />
<rect x="42" y="47" width="1" height="1" fill="#151D28" />
<rect x="43" y="47" width="1" height="1" fill="#151D28" />
<rect x="44" y="47" width="1" height="1" fill="#151D28" />
<rect x="45" y="47" width="1" height="1" fill="#090A14" />
<rect x="46" y="47" width="1" height="1" fill="#090A14" />
<rect x="47" y="47" width="1" height="1" fill="#090A14" />
<rect x="48" y="47" width="1" height="1" fill="#151D28" />
<rect x="49" y="47" width="1" height="1" fill="#151D28" />
<rect x="50" y="47" width="1" height="1" fill="#151D28" />
<rect x="52" y="47" width="1" height="1" fill="#151D28" />
<rect x="53" y="47" width="1" height="1" fill="#151D28" />
<rect x="54" y="47" width="1" height="1" fill="#151D28" />
<rect x="41" y="48" width="1" height="1" fill="#10141F" />
<rect x="42" y="48" width="1" height="1" fill="#151D28" />
<rect x="43" y="48" width="1" height="1" fill="#151D28" />
<rect x="44" y="48" width="1" height="1" fill="#151D28" />
<rect x="45" y="48" width="1" height="1" fill="#151D28" />
<rect x="46" y="48" width="1" height="1" fill="#090A14" />
<rect x="47" y="48" width="1" height="1" fill="#151D28" />
<rect x="48" y="48" width="1" height="1" fill="#151D28" />
<rect x="49" y="48" width="1" height="1" fill="#151D28" />
<rect x="50" y="48" width="1" height="1" fill="#10141F" />
<rect x="51" y="48" width="1" height="1" fill="#341C27" />
<rect x="52" y="48" width="1" height="1" fill="#602C2C" />
<rect x="53" y="48" width="1" height="1" fill="#151D28" />
<rect x="54" y="48" width="1" height="1" fill="#151D28" />
<rect x="42" y="49" width="1" height="1" fill="#10141F" />
<rect x="43" y="49" width="1" height="1" fill="#10141F" />
<rect x="44" y="49" width="1" height="1" fill="#151D28" />
<rect x="45" y="49" width="1" height="1" fill="#151D28" />
<rect x="46" y="49" width="1" height="1" fill="#151D28" />
<rect x="47" y="49" width="1" height="1" fill="#151D28" />
<rect x="48" y="49" width="1" height="1" fill="#10141F" />
<rect x="49" y="49" width="1" height="1" fill="#10141F" />
<rect x="50" y="49" width="1" height="1" fill="#341C27" />
<rect x="51" y="49" width="1" height="1" fill="#602C2C" />
<rect x="52" y="49" width="1" height="1" fill="#602C2C" />
<rect x="53" y="49" width="1" height="1" fill="#E7D5B3" />
<rect x="54" y="49" width="1" height="1" fill="#151D28" />
<rect x="55" y="49" width="1" height="1" fill="#341C27" />
<rect x="43" y="50" width="1" height="1" fill="#10141F" />
<rect x="44" y="50" width="1" height="1" fill="#10141F" />
<rect x="45" y="50" width="1" height="1" fill="#151D28" />
<rect x="46" y="50" width="1" height="1" fill="#151D28" />
<rect x="47" y="50" width="1" height="1" fill="#10141F" />
<rect x="48" y="50" width="1" height="1" fill="#10141F" />
<rect x="49" y="50" width="1" height="1" fill="#341C27" />
<rect x="50" y="50" width="1" height="1" fill="#602C2C" />
<rect x="51" y="50" width="1" height="1" fill="#602C2C" />
<rect x="52" y="50" width="1" height="1" fill="#E7D5B3" />
<rect x="53" y="50" width="1" height="1" fill="#E7D5B3" />
<rect x="54" y="50" width="1" height="1" fill="#E7D5B3" />
<rect x="55" y="50" width="1" height="1" fill="#341C27" />
<rect x="42" y="51" width="1" height="1" fill="#10141F" />
<rect x="43" y="51" width="1" height="1" fill="#10141F" />
<rect x="44" y="51" width="1" height="1" fill="#151D28" />
<rect x="45" y="51" width="1" height="1" fill="#151D28" />
<rect x="46" y="51" width="1" height="1" fill="#151D28" />
<rect x="47" y="51" width="1" height="1" fill="#151D28" />
<rect x="48" y="51" width="1" height="1" fill="#341C27" />
<rect x="49" y="51" width="1" height="1" fill="#EBEDE9" />
<rect x="50" y="51" width="1" height="1" fill="#602C2C" />
<rect x="51" y="51" width="1" height="1" fill="#602C2C" />
<rect x="52" y="51" width="1" height="1" fill="#602C2C" />
<rect x="53" y="51" width="1" height="1" fill="#E7D5B3" />
<rect x="54" y="51" width="1" height="1" fill="#341C27" />
<rect x="41" y="52" width="1" height="1" fill="#151D28" />
<rect x="42" y="52" width="1" height="1" fill="#151D28" />
<rect x="43" y="52" width="1" height="1" fill="#151D28" />
<rect x="44" y="52" width="1" height="1" fill="#151D28" />
<rect x="45" y="52" width="1" height="1" fill="#151D28" />
<rect x="46" y="52" width="1" height="1" fill="#151D28" />
<rect x="47" y="52" width="1" height="1" fill="#151D28" />
<rect x="48" y="52" width="1" height="1" fill="#151D28" />
<rect x="49" y="52" width="1" height="1" fill="#341C27" />
<rect x="50" y="52" width="1" height="1" fill="#EBEDE9" />
<rect x="51" y="52" width="1" height="1" fill="#EBEDE9" />
<rect x="52" y="52" width="1" height="1" fill="#EBEDE9" />
<rect x="53" y="52" width="1" height="1" fill="#341C27" />
<rect x="41" y="53" width="1" height="1" fill="#151D28" />
<rect x="42" y="53" width="1" height="1" fill="#151D28" />
<rect x="43" y="53" width="1" height="1" fill="#151D28" />
<rect x="44" y="53" width="1" height="1" fill="#151D28" />
<rect x="45" y="53" width="1" height="1" fill="#151D28" />
<rect x="46" y="53" width="1" height="1" fill="#151D28" />
<rect x="47" y="53" width="1" height="1" fill="#151D28" />
<rect x="48" y="53" width="1" height="1" fill="#151D28" />
<rect x="49" y="53" width="1" height="1" fill="#151D28" />
<rect x="50" y="53" width="1" height="1" fill="#341C27" />
<rect x="51" y="53" width="1" height="1" fill="#341C27" />
<rect x="52" y="53" width="1" height="1" fill="#341C27" />
<rect x="41" y="54" width="1" height="1" fill="#151D28" />
<rect x="42" y="54" width="1" height="1" fill="#151D28" />
<rect x="43" y="54" width="1" height="1" fill="#151D28" />
<rect x="44" y="54" width="1" height="1" fill="#151D28" />
<rect x="45" y="54" width="1" height="1" fill="#151D28" />
<rect x="46" y="54" width="1" height="1" fill="#151D28" />
<rect x="47" y="54" width="1" height="1" fill="#151D28" />
<rect x="48" y="54" width="1" height="1" fill="#151D28" />
<rect x="49" y="54" width="1" height="1" fill="#151D28" />
<rect x="50" y="54" width="1" height="1" fill="#151D28" />
<rect x="41" y="55" width="1" height="1" fill="#10141F" />
<rect x="42" y="55" width="1" height="1" fill="#151D28" />
<rect x="43" y="55" width="1" height="1" fill="#151D28" />
<rect x="44" y="55" width="1" height="1" fill="#151D28" />
<rect x="45" y="55" width="1" height="1" fill="#151D28" />
<rect x="46" y="55" width="1" height="1" fill="#10141F" />
<rect x="47" y="55" width="1" height="1" fill="#151D28" />
<rect x="48" y="55" width="1" height="1" fill="#151D28" />
<rect x="49" y="55" width="1" height="1" fill="#151D28" />
<rect x="50" y="55" width="1" height="1" fill="#10141F" />
<rect x="42" y="56" width="1" height="1" fill="#10141F" />
<rect x="43" y="56" width="1" height="1" fill="#151D28" />
<rect x="44" y="56" width="1" height="1" fill="#151D28" />
<rect x="45" y="56" width="1" height="1" fill="#151D28" />
<rect x="46" y="56" width="1" height="1" fill="#10141F" />
<rect x="47" y="56" width="1" height="1" fill="#151D28" />
<rect x="48" y="56" width="1" height="1" fill="#151D28" />
<rect x="49" y="56" width="1" height="1" fill="#10141F" />
<rect x="42" y="57" width="1" height="1" fill="#151D28" />
<rect x="43" y="57" width="1" height="1" fill="#151D28" />
<rect x="44" y="57" width="1" height="1" fill="#151D28" />
<rect x="45" y="57" width="1" height="1" fill="#10141F" />
<rect x="46" y="57" width="1" height="1" fill="#10141F" />
<rect x="47" y="57" width="1" height="1" fill="#151D28" />
<rect x="48" y="57" width="1" height="1" fill="#151D28" />
<rect x="49" y="57" width="1" height="1" fill="#10141F" />
<rect x="42" y="58" width="1" height="1" fill="#151D28" />
<rect x="43" y="58" width="1" height="1" fill="#151D28" />
<rect x="44" y="58" width="1" height="1" fill="#151D28" />
<rect x="45" y="58" width="1" height="1" fill="#10141F" />
<rect x="46" y="58" width="1" height="1" fill="#090A14" />
<rect x="47" y="58" width="1" height="1" fill="#151D28" />
<rect x="48" y="58" width="1" height="1" fill="#151D28" />
<rect x="49" y="58" width="1" height="1" fill="#10141F" />
<rect x="43" y="59" width="1" height="1" fill="#151D28" />
<rect x="44" y="59" width="1" height="1" fill="#151D28" />
<rect x="45" y="59" width="1" height="1" fill="#090A14" />
<rect x="46" y="59" width="1" height="1" fill="#090A14" />
<rect x="47" y="59" width="1" height="1" fill="#151D28" />
<rect x="48" y="59" width="1" height="1" fill="#10141F" />
<rect x="43" y="60" width="1" height="1" fill="#151D28" />
<rect x="44" y="60" width="1" height="1" fill="#151D28" />
<rect x="45" y="60" width="1" height="1" fill="#090A14" />
<rect x="46" y="60" width="1" height="1" fill="#090A14" />
<rect x="47" y="60" width="1" height="1" fill="#151D28" />
<rect x="48" y="60" width="1" height="1" fill="#10141F" />
<rect x="43" y="61" width="1" height="1" fill="#151D28" />
<rect x="44" y="61" width="1" height="1" fill="#602C2C" />
<rect x="46" y="61" width="1" height="1" fill="#090A14" />
<rect x="47" y="61" width="1" height="1" fill="#151D28" />
<rect x="48" y="61" width="1" height="1" fill="#602C2C" />
<rect x="42" y="62" width="1" height="1" fill="#7A4841" />
<rect x="43" y="62" width="1" height="1" fill="#602C2C" />
<rect x="44" y="62" width="1" height="1" fill="#602C2C" />
<rect x="46" y="62" width="1" height="1" fill="#7A4841" />
<rect x="47" y="62" width="1" height="1" fill="#602C2C" />
<rect x="48" y="62" width="1" height="1" fill="#602C2C" />
<rect x="41" y="63" width="1" height="1" fill="#7A4841" />
<rect x="42" y="63" width="1" height="1" fill="#602C2C" />
<rect x="44" y="63" width="1" height="1" fill="#341C27" />
<rect x="45" y="63" width="1" height="1" fill="#7A4841" />
<rect x="46" y="63" width="1" height="1" fill="#602C2C" />
<rect x="48" y="63" width="1" height="1" fill="#341C27" />
</svg>