<?xml version="1.0" encoding="UTF-8" ?>
<svg version="1.1" width="128" height="96" xmlns="http://www.w3.org/2000/svg" shape-rendering="crispEdges">
<rect x="97" y="40" width="1" height="1" fill="#DE9E41" />
<rect x="98" y="40" width="1" height="1" fill="#DE9E41" />
<rect x="99" y="40" width="1" height="1" fill="#DE9E41" />
<rect x="100" y="40" width="1" height="1" fill="#DE9E41" />
<rect x="101" y="40" width="1" height="1" fill="#DE9E41" />
<rect x="102" y="40" width="1" height="1" fill="#DE9E41" />
<rect x="95" y="41" width="1" height="1" fill="#DE9E41" />
<rect x="96" y="41" width="1" height="1" fill="#DE9E41" />
<rect x="97" y="41" width="1" height="1" fill="#DE9E41" />
<rect x="98" y="41" width="1" height="1" fill="#DE9E41" />
<rect x="99" y="41" width="1" height="1" fill="#DE9E41" />
<rect x="100" y="41" width="1" height="1" fill="#DE9E41" />
<rect x="101" y="41" width="1" height="1" fill="#DE9E41" />
<rect x="102" y="41" width="1" height="1" fill="#DE9E41" />
<rect x="103" y="41" width="1" height="1" fill="#DE9E41" />
<rect x="104" y="41" width="1" height="1" fill="#DE9E41" />
<rect x="94" y="42" width="1" height="1" fill="#DE9E41" />
<rect x="95" y="42" width="1" height="1" fill="#DE9E41" />
<rect x="96" y="42" width="1" height="1" fill="#DE9E41" />
<rect x="97" y="42" width="1" height="1" fill="#DE9E41" />
<rect x="98" y="42" width="1" height="1" fill="#DE9E41" />
<rect x="99" y="42" width="1" height="1" fill="#DE9E41" />
<rect x="100" y="42" width="1" height="1" fill="#DE9E41" />
<rect x="101" y="42" width="1" height="1" fill="#DE9E41" />
<rect x="102" y="42" width="1" height="1" fill="#DE9E41" />
<rect x="103" y="42" width="1" height="1" fill="#DE9E41" />
<rect x="104" y="42" width="1" height="1" fill="#DE9E41" />
<rect x="105" y="42" width="1" height="1" fill="#DE9E41" />
<rect x="93" y="43" width="1" height="1" fill="#DE9E41" />
<rect x="94" y="43" width="1" height="1" fill="#DE9E41" />
<rect x="95" y="43" width="1" height="1" fill="#DE9E41" />
<rect x="96" y="43" width="1" height="1" fill="#DE9E41" />
<rect x="97" y="43" width="1" height="1" fill="#DE9E41" />
<rect x="98" y="43" width="1" height="1" fill="#DE9E41" />
<rect x="99" y="43" width="1" height="1" fill="#DE9E41" />
<rect x="100" y="43" width="1" height="1" fill="#DE9E41" />
<rect x="101" y="43" width="1" height="1" fill="#DE9E41" />
<rect x="102" y="43" width="1" height="1" fill="#DE9E41" />
<rect x="103" y="43" width="1" height="1" fill="#DE9E41" />
<rect x="104" y="43" width="1" height="1" fill="#DE9E41" />
<rect x="105" y="43" width="1" height="1" fill="#DE9E41" />
<rect x="106" y="43" width="1" height="1" fill="#DE9E41" />
<rect x="92" y="44" width="1" height="1" fill="#DE9E41" />
<rect x="93" y="44" width="1" height="1" fill="#DE9E41" />
<rect x="94" y="44" width="1" height="1" fill="#DE9E41" />
<rect x="95" y="44" width="1" height="1" fill="#DE9E41" />
<rect x="96" y="44" width="1" height="1" fill="#DE9E41" />
<rect x="97" y="44" width="1" height="1" fill="#DE9E41" />
<rect x="98" y="44" width="1" height="1" fill="#E7D5B3" />
<rect x="99" y="44" width="1" height="1" fill="#E7D5B3" />
<rect x="100" y="44" width="1" height="1" fill="#E7D5B3" />
<rect x="101" y="44" width="1" height="1" fill="#E7D5B3" />
<rect x="102" y="44" width="1" height="1" fill="#DE9E41" />
<rect x="103" y="44" width="1" height="1" fill="#DE9E41" />
<rect x="104" y="44" width="1" height="1" fill="#DE9E41" />
<rect x="105" y="44" width="1" height="1" fill="#DE9E41" />
<rect x="106" y="44" width="1" height="1" fill="#DE9E41" />
<rect x="107" y="44" width="1" height="1" fill="#DE9E41" />
<rect x="91" y="45" width="1" height="1" fill="#DE9E41" />
<rect x="92" y="45" width="1" height="1" fill="#DE9E41" />
<rect x="93" y="45" width="1" height="1" fill="#DE9E41" />
<rect x="94" y="45" width="1" height="1" fill="#DE9E41" />
<rect x="95" y="45" width="1" height="1" fill="#DE9E41" />
<rect x="96" y="45" width="1" height="1" fill="#E7D5B3" />
<rect x="97" y="45" width="1" height="1" fill="#E7D5B3" />
<rect x="98" y="45" width="1" height="1" fill="#E7D5B3" />
<rect x="99" y="45" width="1" height="1" fill="#E7D5B3" />
<rect x="100" y="45" width="1" height="1" fill="#E7D5B3" />
<rect x="101" y="45" width="1" height="1" fill="#E7D5B3" />
<rect x="102" y="45" width="1" height="1" fill="#E7D5B3" />
<rect x="103" y="45" width="1" height="1" fill="#E7D5B3" />
<rect x="104" y="45" width="1" height="1" fill="#DE9E41" />
<rect x="105" y="45" width="1" height="1" fill="#DE9E41" />
<rect x="106" y="45" width="1" height="1" fill="#DE9E41" />
<rect x="107" y="45" width="1" height="1" fill="#DE9E41" />
<rect x="108" y="45" width="1" height="1" fill="#DE9E41" />
<rect x="91" y="46" width="1" height="1" fill="#DE9E41" />
<rect x="92" y="46" width="1" height="1" fill="#DE9E41" />
<rect x="93" y="46" width="1" height="1" fill="#DE9E41" />
<rect x="94" y="46" width="1" height="1" fill="#E7D5B3" />
<rect x="95" y="46" width="1" height="1" fill="#341C27" />
<rect x="96" y="46" width="1" height="1" fill="#341C27" />
<rect x="97" y="46" width="1" height="1" fill="#341C27" />
<rect x="98" y="46" width="1" height="1" fill="#E7D5B3" />
<rect x="99" y="46" width="1" height="1" fill="#E7D5B3" />
<rect x="100" y="46" width="1" height="1" fill="#E7D5B3" />
<rect x="101" y="46" width="1" height="1" fill="#341C27" />
<rect x="102" y="46" width="1" height="1" fill="#341C27" />
<rect x="103" y="46" width="1" height="1" fill="#341C27" />
<rect x="104" y="46" width="1" height="1" fill="#E7D5B3" />
<rect x="105" y="46" width="1" height="1" fill="#E7D5B3" />
<rect x="106" y="46" width="1" height="1" fill="#DE9E41" />
<rect x="107" y="46" width="1" height="1" fill="#DE9E41" />
<rect x="108" y="46" width="1" height="1" fill="#DE9E41" />
<rect x="91" y="47" width="1" height="1" fill="#DE9E41" />
<rect x="92" y="47" width="1" height="1" fill="#DE9E41" />
<rect x="93" y="47" width="1" height="1" fill="#D7B594" />
<rect x="94" y="47" width="1" height="1" fill="#341C27" />
<rect x="95" y="47" width="1" height="1" fill="#EBEDE9" />
<rect x="96" y="47" width="1" height="1" fill="#EBEDE9" />
<rect x="97" y="47" width="1" height="1" fill="#EBEDE9" />
<rect x="98" y="47" width="1" height="1" fill="#341C27" />
<rect x="99" y="47" width="1" height="1" fill="#341C27" />
<rect x="100" y="47" width="1" height="1" fill="#341C27" />
<rect x="101" y="47" width="1" height="1" fill="#EBEDE9" />
<rect x="102" y="47" width="1" height="1" fill="#EBEDE9" />
<rect x="103" y="47" width="1" height="1" fill="#EBEDE9" />
<rect x="104" y="47" width="1" height="1" fill="#341C27" />
<rect x="105" y="47" width="1" height="1" fill="#341C27" />
<rect x="106" y="47" width="1" height="1" fill="#D7B594" />
<rect x="107" y="47" width="1" height="1" fill="#DE9E41" />
<rect x="108" y="47" width="1" height="1" fill="#DE9E41" />
<rect x="91" y="48" width="1" height="1" fill="#DE9E41" />
<rect x="92" y="48" width="1" height="1" fill="#DE9E41" />
<rect x="93" y="48" width="1" height="1" fill="#D7B594" />
<rect x="94" y="48" width="1" height="1" fill="#341C27" />
<rect x="95" y="48" width="1" height="1" fill="#EBEDE9" />
<rect x="96" y="48" width="1" height="1" fill="#EBEDE9" />
<rect x="97" y="48" width="1" height="1" fill="#EBEDE9" />
<rect x="98" y="48" width="1" height="1" fill="#341C27" />
<rect x="99" y="48" width="1" height="1" fill="#D7B594" />
<rect x="100" y="48" width="1" height="1" fill="#341C27" />
<rect x="101" y="48" width="1" height="1" fill="#EBEDE9" />
<rect x="102" y="48" width="1" height="1" fill="#EBEDE9" />
<rect x="103" y="48" width="1" height="1" fill="#EBEDE9" />
<rect x="104" y="48" width="1" height="1" fill="#341C27" />
<rect x="105" y="48" width="1" height="1" fill="#E7D5B3" />
<rect x="106" y="48" width="1" height="1" fill="#D7B594" />
<rect x="107" y="48" width="1" height="1" fill="#DE9E41" />
<rect x="108" y="48" width="1" height="1" fill="#DE9E41" />
<rect x="91" y="49" width="1" height="1" fill="#DE9E41" />
<rect x="92" y="49" width="1" height="1" fill="#DE9E41" />
<rect x="93" y="49" width="1" height="1" fill="#DA863E" />
<rect x="94" y="49" width="1" height="1" fill="#341C27" />
<rect x="95" y="49" width="1" height="1" fill="#EBEDE9" />
<rect x="96" y="49" width="1" height="1" fill="#EBEDE9" />
<rect x="97" y="49" width="1" height="1" fill="#EBEDE9" />
<rect x="98" y="49" width="1" height="1" fill="#341C27" />
<rect x="99" y="49" width="1" height="1" fill="#D7B594" />
<rect x="100" y="49" width="1" height="1" fill="#341C27" />
<rect x="101" y="49" width="1" height="1" fill="#EBEDE9" />
<rect x="102" y="49" width="1" height="1" fill="#EBEDE9" />
<rect x="103" y="49" width="1" height="1" fill="#EBEDE9" />
<rect x="104" y="49" width="1" height="1" fill="#341C27" />
<rect x="105" y="49" width="1" height="1" fill="#E7D5B3" />
<rect x="106" y="49" width="1" height="1" fill="#DA863E" />
<rect x="107" y="49" width="1" height="1" fill="#DE9E41" />
<rect x="108" y="49" width="1" height="1" fill="#DE9E41" />
<rect x="91" y="50" width="1" height="1" fill="#DE9E41" />
<rect x="92" y="50" width="1" height="1" fill="#DE9E41" />
<rect x="93" y="50" width="1" height="1" fill="#DE9E41" />
<rect x="94" y="50" width="1" height="1" fill="#E3D1B0" />
<rect x="95" y="50" width="1" height="1" fill="#341C27" />
<rect x="96" y="50" width="1" height="1" fill="#341C27" />
<rect x="97" y="50" width="1" height="1" fill="#341C27" />
<rect x="98" y="50" width="1" height="1" fill="#E7D5B3" />
<rect x="99" y="50" width="1" height="1" fill="#E7D5B3" />
<rect x="100" y="50" width="1" height="1" fill="#E7D5B3" />
<rect x="101" y="50" width="1" height="1" fill="#341C27" />
<rect x="102" y="50" width="1" height="1" fill="#341C27" />
<rect x="103" y="50" width="1" height="1" fill="#341C27" />
<rect x="104" y="50" width="1" height="1" fill="#E7D5B3" />
<rect x="105" y="50" width="1" height="1" fill="#E3D1B0" />
<rect x="106" y="50" width="1" height="1" fill="#DE9E41" />
<rect x="107" y="50" width="1" height="1" fill="#DE9E41" />
<rect x="108" y="50" width="1" height="1" fill="#DE9E41" />
<rect x="91" y="51" width="1" height="1" fill="#DE9E41" />
<rect x="92" y="51" width="1" height="1" fill="#DE9E41" />
<rect x="95" y="51" width="1" height="1" fill="#4F8FBA" />
<rect x="96" y="51" width="1" height="1" fill="#4F8FBA" />
<rect x="97" y="51" width="1" height="1" fill="#E7D5B3" />
<rect x="98" y="51" width="1" height="1" fill="#DF84A5" />
<rect x="99" y="51" width="1" height="1" fill="#DF84A5" />
<rect x="100" y="51" width="1" height="1" fill="#DF84A5" />
<rect x="101" y="51" width="1" height="1" fill="#E7D5B3" />
<rect x="102" y="51" width="1" height="1" fill="#4F8FBA" />
<rect x="103" y="51" width="1" height="1" fill="#4F8FBA" />
<rect x="104" y="51" width="1" height="1" fill="#E3D1B0" />
<rect x="107" y="51" width="1" height="1" fill="#DE9E41" />
<rect x="108" y="51" width="1" height="1" fill="#DE9E41" />
<rect x="88" y="52" width="1" height="1" fill="#C09473" />
<rect x="92" y="52" width="1" height="1" fill="#DE9E41" />
<rect x="93" y="52" width="1" height="1" fill="#DE9E41" />
<rect x="96" y="52" width="1" height="1" fill="#4F8FBA" />
<rect x="97" y="52" width="1" height="1" fill="#E7D5B3" />
<rect x="98" y="52" width="1" height="1" fill="#DF84A5" />
<rect x="99" y="52" width="1" height="1" fill="#E7D5B3" />
<rect x="100" y="52" width="1" height="1" fill="#DF84A5" />
<rect x="101" y="52" width="1" height="1" fill="#E7D5B3" />
<rect x="102" y="52" width="1" height="1" fill="#4F8FBA" />
<rect x="103" y="52" width="1" height="1" fill="#4F8FBA" />
<rect x="106" y="52" width="1" height="1" fill="#DE9E41" />
<rect x="107" y="52" width="1" height="1" fill="#DE9E41" />
<rect x="108" y="52" width="1" height="1" fill="#DE9E41" />
<rect x="112" y="52" width="1" height="1" fill="#C09473" />
<rect x="87" y="53" width="1" height="1" fill="#C09473" />
<rect x="88" y="53" width="1" height="1" fill="#D7B594" />
<rect x="89" y="53" width="1" height="1" fill="#D7B594" />
<rect x="92" y="53" width="1" height="1" fill="#DE9E41" />
<rect x="93" y="53" width="1" height="1" fill="#DE9E41" />
<rect x="98" y="53" width="1" height="1" fill="#E3D1B0" />
<rect x="99" y="53" width="1" height="1" fill="#E7D5B3" />
<rect x="100" y="53" width="1" height="1" fill="#E7D5B3" />
<rect x="101" y="53" width="1" height="1" fill="#E3D1B0" />
<rect x="106" y="53" width="1" height="1" fill="#DE9E41" />
<rect x="107" y="53" width="1" height="1" fill="#DE9E41" />
<rect x="111" y="53" width="1" height="1" fill="#D7B594" />
<rect x="112" y="53" width="1" height="1" fill="#D7B594" />
<rect x="113" y="53" width="1" height="1" fill="#C09473" />
<rect x="87" y="54" width="1" height="1" fill="#C09473" />
<rect x="88" y="54" width="1" height="1" fill="#D7B594" />
<rect x="89" y="54" width="1" height="1" fill="#D7B594" />
<rect x="95" y="54" width="1" height="1" fill="#090A14" />
<rect x="96" y="54" width="1" height="1" fill="#577277" />
<rect x="97" y="54" width="1" height="1" fill="#EBEDE9" />
<rect x="98" y="54" width="1" height="1" fill="#A53030" />
<rect x="99" y="54" width="1" height="1" fill="#D7B594" />
<rect x="100" y="54" width="1" height="1" fill="#D7B594" />
<rect x="101" y="54" width="1" height="1" fill="#A53030" />
<rect x="102" y="54" width="1" height="1" fill="#EBEDE9" />
<rect x="103" y="54" width="1" height="1" fill="#577277" />
<rect x="104" y="54" width="1" height="1" fill="#090A14" />
<rect x="111" y="54" width="1" height="1" fill="#D7B594" />
<rect x="112" y="54" width="1" height="1" fill="#D7B594" />
<rect x="113" y="54" width="1" height="1" fill="#C09473" />
<rect x="88" y="55" width="1" height="1" fill="#E7D5B3" />
<rect x="89" y="55" width="1" height="1" fill="#E7D5B3" />
<rect x="90" y="55" width="1" height="1" fill="#090A14" />
<rect x="94" y="55" width="1" height="1" fill="#090A14" />
<rect x="95" y="55" width="1" height="1" fill="#090A14" />
<rect x="96" y="55" width="1" height="1" fill="#577277" />
<rect x="97" y="55" width="1" height="1" fill="#EBEDE9" />
<rect x="98" y="55" width="1" height="1" fill="#EBEDE9" />
<rect x="99" y="55" width="1" height="1" fill="#A53030" />
<rect x="100" y="55" width="1" height="1" fill="#A53030" />
<rect x="101" y="55" width="1" height="1" fill="#EBEDE9" />
<rect x="102" y="55" width="1" height="1" fill="#EBEDE9" />
<rect x="103" y="55" width="1" height="1" fill="#577277" />
<rect x="104" y="55" width="1" height="1" fill="#090A14" />
<rect x="105" y="55" width="1" height="1" fill="#090A14" />
<rect x="106" y="55" width="1" height="1" fill="#090A14" />
<rect x="110" y="55" width="1" height="1" fill="#090A14" />
<rect x="111" y="55" width="1" height="1" fill="#090A14" />
<rect x="112" y="55" width="1" height="1" fill="#E7D5B3" />
<rect x="89" y="56" width="1" height="1" fill="#090A14" />
<rect x="90" y="56" width="1" height="1" fill="#090A14" />
<rect x="93" y="56" width="1" height="1" fill="#090A14" />
<rect x="94" y="56" width="1" height="1" fill="#090A14" />
<rect x="95" y="56" width="1" height="1" fill="#090A14" />
<rect x="96" y="56" width="1" height="1" fill="#202E37" />
<rect x="97" y="56" width="1" height="1" fill="#577277" />
<rect x="98" y="56" width="1" height="1" fill="#EBEDE9" />
<rect x="99" y="56" width="1" height="1" fill="#A53030" />
<rect x="100" y="56" width="1" height="1" fill="#A53030" />
<rect x="101" y="56" width="1" height="1" fill="#EBEDE9" />
<rect x="102" y="56" width="1" height="1" fill="#577277" />
<rect x="103" y="56" width="1" height="1" fill="#090A14" />
<rect x="104" y="56" width="1" height="1" fill="#202E37" />
<rect x="105" y="56" width="1" height="1" fill="#090A14" />
<rect x="106" y="56" width="1" height="1" fill="#090A14" />
<rect x="107" y="56" width="1" height="1" fill="#090A14" />
<rect x="110" y="56" width="1" height="1" fill="#090A14" />
<rect x="111" y="56" width="1" height="1" fill="#090A14" />
<rect x="89" y="57" width="1" height="1" fill="#090A14" />
<rect x="90" y="57" width="1" height="1" fill="#090A14" />
<rect x="91" y="57" width="1" height="1" fill="#090A14" />
<rect x="92" y="57" width="1" height="1" fill="#090A14" />
<rect x="93" y="57" width="1" height="1" fill="#090A14" />
<rect x="94" y="57" width="1" height="1" fill="#090A14" />
<rect x="95" y="57" width="1" height="1" fill="#202E37" />
<rect x="96" y="57" width="1" height="1" fill="#090A14" />
<rect x="97" y="57" width="1" height="1" fill="#090A14" />
<rect x="98" y="57" width="1" height="1" fill="#577277" />
<rect x="99" y="57" width="1" height="1" fill="#EBEDE9" />
<rect x="100" y="57" width="1" height="1" fill="#A53030" />
<rect x="101" y="57" width="1" height="1" fill="#577277" />
<rect x="102" y="57" width="1" height="1" fill="#090A14" />
<rect x="103" y="57" width="1" height="1" fill="#090A14" />
<rect x="104" y="57" width="1" height="1" fill="#090A14" />
<rect x="105" y="57" width="1" height="1" fill="#202E37" />
<rect x="106" y="57" width="1" height="1" fill="#090A14" />
<rect x="107" y="57" width="1" height="1" fill="#090A14" />
<rect x="108" y="57" width="1" height="1" fill="#090A14" />
<rect x="109" y="57" width="1" height="1" fill="#090A14" />
<rect x="110" y="57" width="1" height="1" fill="#090A14" />
<rect x="111" y="57" width="1" height="1" fill="#090A14" />
<rect x="90" y="58" width="1" height="1" fill="#090A14" />
<rect x="91" y="58" width="1" height="1" fill="#090A14" />
<rect x="92" y="58" width="1" height="1" fill="#090A14" />
<rect x="93" y="58" width="1" height="1" fill="#090A14" />
<rect x="94" y="58" width="1" height="1" fill="#577277" />
<rect x="95" y="58" width="1" height="1" fill="#202E37" />
<rect x="96" y="58" width="1" height="1" fill="#090A14" />
<rect x="97" y="58" width="1" height="1" fill="#090A14" />
<rect x="98" y="58" width="1" height="1" fill="#090A14" />
<rect x="99" y="58" width="1" height="1" fill="#577277" />
<rect x="100" y="58" width="1" height="1" fill="#577277" />
<rect x="101" y="58" width="1" height="1" fill="#090A14" />
<rect x="102" y="58" width="1" height="1" fill="#090A14" />
<rect x="103" y="58" width="1" height="1" fill="#090A14" />
<rect x="104" y="58" width="1" height="1" fill="#090A14" />
<rect x="105" y="58" width="1" height="1" fill="#202E37" />
<rect x="106" y="58" width="1" height="1" fill="#577277" />
<rect x="107" y="58" width="1" height="1" fill="#090A14" />
<rect x="108" y="58" width="1" height="1" fill="#090A14" />
<rect x="109" y="58" width="1" height="1" fill="#090A14" />
<rect x="110" y="58" width="1" height="1" fill="#090A14" />
<rect x="90" y="59" width="1" height="1" fill="#577277" />
<rect x="91" y="59" width="1" height="1" fill="#090A14" />
<rect x="92" y="59" width="1" height="1" fill="#090A14" />
<rect x="93" y="59" width="1" height="1" fill="#577277" />
<rect x="95" y="59" width="1" height="1" fill="#202E37" />
<rect x="96" y="59" width="1" height="1" fill="#090A14" />
<rect x="97" y="59" width="1" height="1" fill="#090A14" />
<rect x="98" y="59" width="1" height="1" fill="#090A14" />
<rect x="99" y="59" width="1" height="1" fill="#090A14" />
<rect x="100" y="59" width="1" height="1" fill="#090A14" />
<rect x="101" y="59" width="1" height="1" fill="#090A14" />
<rect x="102" y="59" width="1" height="1" fill="#090A14" />
<rect x="103" y="59" width="1" height="1" fill="#090A14" />
<rect x="104" y="59" width="1" height="1" fill="#090A14" />
<rect x="105" y="59" width="1" height="1" fill="#202E37" />
<rect x="107" y="59" width="1" height="1" fill="#577277" />
<rect x="108" y="59" width="1" height="1" fill="#090A14" />
<rect x="109" y="59" width="1" height="1" fill="#090A14" />
<rect x="110" y="59" width="1" height="1" fill="#577277" />
<rect x="91" y="60" width="1" height="1" fill="#577277" />
<rect x="92" y="60" width="1" height="1" fill="#577277" />
<rect x="95" y="60" width="1" height="1" fill="#202E37" />
<rect x="96" y="60" width="1" height="1" fill="#202E37" />
<rect x="97" y="60" width="1" height="1" fill="#090A14" />
<rect x="98" y="60" width="1" height="1" fill="#090A14" />
<rect x="99" y="60" width="1" height="1" fill="#090A14" />
<rect x="100" y="60" width="1" height="1" fill="#090A14" />
<rect x="101" y="60" width="1" height="1" fill="#090A14" />
<rect x="102" y="60" width="1" height="1" fill="#090A14" />
<rect x="103" y="60" width="1" height="1" fill="#090A14" />
<rect x="104" y="60" width="1" height="1" fill="#202E37" />
<rect x="105" y="60" width="1" height="1" fill="#202E37" />
<rect x="108" y="60" width="1" height="1" fill="#577277" />
<rect x="109" y="60" width="1" height="1" fill="#577277" />
<rect x="96" y="61" width="1" height="1" fill="#090A14" />
<rect x="97" y="61" width="1" height="1" fill="#090A14" />
<rect x="98" y="61" width="1" height="1" fill="#090A14" />
<rect x="99" y="61" width="1" height="1" fill="#090A14" />
<rect x="100" y="61" width="1" height="1" fill="#090A14" />
<rect x="101" y="61" width="1" height="1" fill="#090A14" />
<rect x="102" y="61" width="1" height="1" fill="#090A14" />
<rect x="103" y="61" width="1" height="1" fill="#090A14" />
<rect x="104" y="61" width="1" height="1" fill="#090A14" />
<rect x="96" y="62" width="1" height="1" fill="#090A14" />
<rect x="97" y="62" width="1" height="1" fill="#090A14" />
<rect x="98" y="62" width="1" height="1" fill="#090A14" />
<rect x="99" y="62" width="1" height="1" fill="#090A14" />
<rect x="100" y="62" width="1" height="1" fill="#090A14" />
<rect x="101" y="62" width="1" height="1" fill="#090A14" />
<rect x="102" y="62" width="1" height="1" fill="#090A14" />
<rect x="103" y="62" width="1" height="1" fill="#090A14" />
<rect x="104" y="62" width="1" height="1" fill="#090A14" />
<rect x="96" y="63" width="1" height="1" fill="#577277" />
<rect x="97" y="63" width="1" height="1" fill="#577277" />
<rect x="98" y="63" width="1" height="1" fill="#577277" />
<rect x="99" y="63" width="1" height="1" fill="#577277" />
<rect x="100" y="63" width="1" height="1" fill="#577277" />
<rect x="101" y="63" width="1" height="1" fill="#577277" />
<rect x="102" y="63" width="1" height="1" fill="#577277" />
<rect x="103" y="63" width="1" height="1" fill="#577277" />
<rect x="104" y="63" width="1" height="1" fill="#577277" />
<rect x="96" y="64" width="1" height="1" fill="#A23E8C" />
<rect x="97" y="64" width="1" height="1" fill="#A23E8C" />
<rect x="98" y="64" width="1" height="1" fill="#A23E8C" />
<rect x="99" y="64" width="1" height="1" fill="#A23E8C" />
<rect x="100" y="64" width="1" height="1" fill="#A23E8C" />
<rect x="101" y="64" width="1" height="1" fill="#A23E8C" />
<rect x="102" y="64" width="1" height="1" fill="#A23E8C" />
<rect x="103" y="64" width="1" height="1" fill="#A23E8C" />
<rect x="104" y="64" width="1" height="1" fill="#7A367B" />
<rect x="96" y="65" width="1" height="1" fill="#A23E8C" />
<rect x="97" y="65" width="1" height="1" fill="#A23E8C" />
<rect x="98" y="65" width="1" height="1" fill="#A23E8C" />
<rect x="99" y="65" width="1" height="1" fill="#A23E8C" />
<rect x="100" y="65" width="1" height="1" fill="#A23E8C" />
<rect x="101" y="65" width="1" height="1" fill="#A23E8C" />
<rect x="102" y="65" width="1" height="1" fill="#A23E8C" />
<rect x="103" y="65" width="1" height="1" fill="#A23E8C" />
<rect x="104" y="65" width="1" height="1" fill="#7A367B" />
<rect x="96" y="66" width="1" height="1" fill="#A23E8C" />
<rect x="97" y="66" width="1" height="1" fill="#A23E8C" />
<rect x="98" y="66" width="1" height="1" fill="#A23E8C" />
<rect x="99" y="66" width="1" height="1" fill="#A23E8C" />
<rect x="100" y="66" width="1" height="1" fill="#A23E8C" />
<rect x="101" y="66" width="1" height="1" fill="#A23E8C" />
<rect x="102" y="66" width="1" height="1" fill="#A23E8C" />
<rect x="103" y="66" width="1" height="1" fill="#A23E8C" />
<rect x="104" y="66" width="1" height="1" fill="#7A367B" />
<rect x="96" y="67" width="1" height="1" fill="#A23E8C" />
<rect x="97" y="67" width="1" height="1" fill="#A23E8C" />
<rect x="98" y="67" width="1" height="1" fill="#A23E8C" />
<rect x="99" y="67" width="1" height="1" fill="#A23E8C" />
<rect x="100" y="67" width="1" height="1" fill="#A23E8C" />
<rect x="101" y="67" width="1" height="1" fill="#A23E8C" />
<rect x="102" y="67" width="1" height="1" fill="#A23E8C" />
<rect x="103" y="67" width="1" height="1" fill="#A23E8C" />
<rect x="104" y="67" width="1" height="1" fill="#7A367B" />
<rect x="96" y="68" width="1" height="1" fill="#A23E8C" />
<rect x="97" y="68" width="1" height="1" fill="#A23E8C" />
<rect x="98" y="68" width="1" height="1" fill="#A23E8C" />
<rect x="99" y="68" width="1" height="1" fill="#A23E8C" />
<rect x="100" y="68" width="1" height="1" fill="#A23E8C" />
<rect x="101" y="68" width="1" height="1" fill="#A23E8C" />
<rect x="102" y="68" width="1" height="1" fill="#A23E8C" />
<rect x="103" y="68" width="1" height="1" fill="#A23E8C" />
<rect x="104" y="68" width="1" height="1" fill="#7A367B" />
<rect x="96" y="69" width="1" height="1" fill="#A23E8C" />
<rect x="97" y="69" width="1" height="1" fill="#A23E8C" />
<rect x="98" y="69" width="1" height="1" fill="#7A367B" />
<rect x="102" y="69" width="1" height="1" fill="#A23E8C" />
<rect x="103" y="69" width="1" height="1" fill="#A23E8C" />
<rect x="104" y="69" width="1" height="1" fill="#7A367B" />
<rect x="96" y="70" width="1" height="1" fill="#A23E8C" />
<rect x="97" y="70" width="1" height="1" fill="#A23E8C" />
<rect x="98" y="70" width="1" height="1" fill="#7A367B" />
<rect x="102" y="70" width="1" height="1" fill="#A23E8C" />
<rect x="103" y="70" width="1" height="1" fill="#A23E8C" />
<rect x="104" y="70" width="1" height="1" fill="#7A367B" />
<rect x="96" y="71" width="1" height="1" fill="#A23E8C" />
<rect x="97" y="71" width="1" height="1" fill="#A23E8C" />
<rect x="98" y="71" width="1" height="1" fill="#7A367B" />
<rect x="102" y="71" width="1" height="1" fill="#A23E8C" />
<rect x="103" y="71" width="1" height="1" fill="#A23E8C" />
<rect x="104" y="71" width="1" height="1" fill="#7A367B" />
<rect x="112" y="71" width="1" height="1" fill="#602C2C" />
<rect x="113" y="71" width="1" height="1" fill="#602C2C" />
<rect x="114" y="71" width="1" height="1" fill="#602C2C" />
<rect x="96" y="72" width="1" height="1" fill="#7A367B" />
<rect x="97" y="72" width="1" height="1" fill="#A23E8C" />
<rect x="98" y="72" width="1" height="1" fill="#7A367B" />
<rect x="102" y="72" width="1" height="1" fill="#7A367B" />
<rect x="103" y="72" width="1" height="1" fill="#A23E8C" />
<rect x="104" y="72" width="1" height="1" fill="#7A367B" />
<rect x="111" y="72" width="1" height="1" fill="#602C2C" />
<rect x="112" y="72" width="1" height="1" fill="#602C2C" />
<rect x="113" y="72" width="1" height="1" fill="#602C2C" />
<rect x="114" y="72" width="1" height="1" fill="#602C2C" />
<rect x="115" y="72" width="1" height="1" fill="#602C2C" />
<rect x="96" y="73" width="1" height="1" fill="#A23E8C" />
<rect x="97" y="73" width="1" height="1" fill="#A23E8C" />
<rect x="98" y="73" width="1" height="1" fill="#7A367B" />
<rect x="102" y="73" width="1" height="1" fill="#A23E8C" />
<rect x="103" y="73" width="1" height="1" fill="#A23E8C" />
<rect x="104" y="73" width="1" height="1" fill="#7A367B" />
<rect x="110" y="73" width="1" height="1" fill="#602C2C" />
<rect x="111" y="73" width="1" height="1" fill="#602C2C" />
<rect x="112" y="73" width="1" height="1" fill="#602C2C" />
<rect x="113" y="73" width="1" height="1" fill="#602C2C" />
<rect x="114" y="73" width="1" height="1" fill="#602C2C" />
<rect x="115" y="73" width="1" height="1" fill="#602C2C" />
<rect x="116" y="73" width="1" height="1" fill="#602C2C" />
<rect x="96" y="74" width="1" height="1" fill="#A23E8C" />
<rect x="97" y="74" width="1" height="1" fill="#A23E8C" />
<rect x="98" y="74" width="1" height="1" fill="#7A367B" />
<rect x="102" y="74" width="1" height="1" fill="#A23E8C" />
<rect x="103" y="74" width="1" height="1" fill="#A23E8C" />
<rect x="104" y="74" width="1" height="1" fill="#7A367B" />
<rect x="109" y="74" width="1" height="1" fill="#602C2C" />
<rect x="110" y="74" width="1" height="1" fill="#602C2C" />
<rect x="111" y="74" width="1" height="1" fill="#602C2C" />
<rect x="112" y="74" width="1" height="1" fill="#602C2C" />
<rect x="113" y="74" width="1" height="1" fill="#602C2C" />
<rect x="114" y="74" width="1" height="1" fill="#602C2C" />
<rect x="115" y="74" width="1" height="1" fill="#602C2C" />
<rect x="116" y="74" width="1" height="1" fill="#602C2C" />
<rect x="117" y="74" width="1" height="1" fill="#602C2C" />
<rect x="96" y="75" width="1" height="1" fill="#E7D5B3" />
<rect x="97" y="75" width="1" height="1" fill="#E7D5B3" />
<rect x="98" y="75" width="1" height="1" fill="#E7D5B3" />
<rect x="102" y="75" width="1" height="1" fill="#E7D5B3" />
<rect x="103" y="75" width="1" height="1" fill="#E7D5B3" />
<rect x="104" y="75" width="1" height="1" fill="#E7D5B3" />
<rect x="108" y="75" width="1" height="1" fill="#602C2C" />
<rect x="109" y="75" width="1" height="1" fill="#602C2C" />
<rect x="110" y="75" width="1" height="1" fill="#602C2C" />
<rect x="111" y="75" width="1" height="1" fill="#602C2C" />
<rect x="112" y="75" width="1" height="1" fill="#602C2C" />
<rect x="113" y="75" width="1" height="1" fill="#602C2C" />
<rect x="114" y="75" width="1" height="1" fill="#602C2C" />
<rect x="115" y="75" width="1" height="1" fill="#602C2C" />
<rect x="116" y="75" width="1" height="1" fill="#EBEDE9" />
<rect x="117" y="75" width="1" height="1" fill="#602C2C" />
<rect x="96" y="76" width="1" height="1" fill="#E7D5B3" />
<rect x="97" y="76" width="1" height="1" fill="#E7D5B3" />
<rect x="98" y="76" width="1" height="1" fill="#E7D5B3" />
<rect x="102" y="76" width="1" height="1" fill="#E7D5B3" />
<rect x="103" y="76" width="1" height="1" fill="#E7D5B3" />
<rect x="104" y="76" width="1" height="1" fill="#E7D5B3" />
<rect x="108" y="76" width="1" height="1" fill="#602C2C" />
<rect x="109" y="76" width="1" height="1" fill="#EBEDE9" />
<rect x="110" y="76" width="1" height="1" fill="#602C2C" />
<rect x="111" y="76" width="1" height="1" fill="#602C2C" />
<rect x="112" y="76" width="1" height="1" fill="#602C2C" />
<rect x="113" y="76" width="1" height="1" fill="#602C2C" />
<rect x="114" y="76" width="1" height="1" fill="#602C2C" />
<rect x="115" y="76" width="1" height="1" fill="#EBEDE9" />
<rect x="116" y="76" width="1" height="1" fill="#602C2C" />
<rect x="95" y="77" width="1" height="1" fill="#7A4841" />
<rect x="96" y="77" width="1" height="1" fill="#7A4841" />
<rect x="97" y="77" width="1" height="1" fill="#602C2C" />
<rect x="98" y="77" width="1" height="1" fill="#602C2C" />
<rect x="102" y="77" width="1" height="1" fill="#7A4841" />
<rect x="103" y="77" width="1" height="1" fill="#7A4841" />
<rect x="104" y="77" width="1" height="1" fill="#602C2C" />
<rect x="109" y="77" width="1" height="1" fill="#602C2C" />
<rect x="110" y="77" width="1" height="1" fill="#EBEDE9" />
<rect x="111" y="77" width="1" height="1" fill="#602C2C" />
<rect x="112" y="77" width="1" height="1" fill="#602C2C" />
<rect x="113" y="77" width="1" height="1" fill="#602C2C" />
<rect x="114" y="77" width="1" height="1" fill="#EBEDE9" />
<rect x="115" y="77" width="1" height="1" fill="#602C2C" />
<rect x="94" y="78" width="1" height="1" fill="#4D2B32" />
<rect x="95" y="78" width="1" height="1" fill="#4D2B32" />
<rect x="96" y="78" width="1" height="1" fill="#602C2C" />
<rect x="97" y="78" width="1" height="1" fill="#602C2C" />
<rect x="98" y="78" width="1" height="1" fill="#602C2C" />
<rect x="101" y="78" width="1" height="1" fill="#4D2B32" />
<rect x="102" y="78" width="1" height="1" fill="#4D2B32" />
<rect x="103" y="78" width="1" height="1" fill="#602C2C" />
<rect x="104" y="78" width="1" height="1" fill="#602C2C" />
<rect x="110" y="78" width="1" height="1" fill="#602C2C" />
<rect x="111" y="78" width="1" height="1" fill="#EBEDE9" />
<rect x="112" y="78" width="1" height="1" fill="#EBEDE9" />
<rect x="113" y="78" width="1" height="1" fill="#EBEDE9" />
<rect x="114" y="78" width="1" height="1" fill="#602C2C" />
<rect x="94" y="79" width="1" height="1" fill="#341C27" />
<rect x="95" y="79" width="1" height="1" fill="#341C27" />
<rect x="96" y="79" width="1" height="1" fill="#341C27" />
<rect x="97" y="79" width="1" height="1" fill="#341C27" />
<rect x="98" y="79" width="1" height="1" fill="#341C27" />
<rect x="101" y="79" width="1" height="1" fill="#341C27" />
<rect x="102" y="79" width="1" height="1" fill="#341C27" />
<rect x="103" y="79" width="1" height="1" fill="#341C27" />
<rect x="104" y="79" width="1" height="1" fill="#341C27" />
<rect x="111" y="79" width="1" height="1" fill="#602C2C" />
<rect x="112" y="79" width="1" height="1" fill="#602C2C" />
<rect x="113" y="79" width="1" height="1" fill="#602C2C" />
</svg>