<?xml version="1.0" encoding="UTF-8" ?>
<svg version="1.1" width="128" height="96" xmlns="http://www.w3.org/2000/svg" shape-rendering="crispEdges">
<rect x="65" y="36" width="1" height="1" fill="#E8C170" />
<rect x="66" y="36" width="1" height="1" fill="#E8C170" />
<rect x="67" y="36" width="1" height="1" fill="#E8C170" />
<rect x="68" y="36" width="1" height="1" fill="#E8C170" />
<rect x="69" y="36" width="1" height="1" fill="#E8C170" />
<rect x="70" y="36" width="1" height="1" fill="#E8C170" />
<rect x="71" y="36" width="1" height="1" fill="#E8C170" />
<rect x="72" y="36" width="1" height="1" fill="#E8C170" />
<rect x="63" y="37" width="1" height="1" fill="#E8C170" />
<rect x="64" y="37" width="1" height="1" fill="#E8C170" />
<rect x="73" y="37" width="1" height="1" fill="#E8C170" />
<rect x="74" y="37" width="1" height="1" fill="#E8C170" />
<rect x="65" y="38" width="1" height="1" fill="#E8C170" />
<rect x="66" y="38" width="1" height="1" fill="#E8C170" />
<rect x="67" y="38" width="1" height="1" fill="#E8C170" />
<rect x="68" y="38" width="1" height="1" fill="#E8C170" />
<rect x="69" y="38" width="1" height="1" fill="#E8C170" />
<rect x="70" y="38" width="1" height="1" fill="#E8C170" />
<rect x="71" y="38" width="1" height="1" fill="#E8C170" />
<rect x="72" y="38" width="1" height="1" fill="#E8C170" />
<rect x="66" y="40" width="1" height="1" fill="#DE9E41" />
<rect x="67" y="40" width="1" height="1" fill="#DE9E41" />
<rect x="68" y="40" width="1" height="1" fill="#DE9E41" />
<rect x="69" y="40" width="1" height="1" fill="#DE9E41" />
<rect x="70" y="40" width="1" height="1" fill="#DE9E41" />
<rect x="71" y="40" width="1" height="1" fill="#DE9E41" />
<rect x="64" y="41" width="1" height="1" fill="#DE9E41" />
<rect x="65" y="41" width="1" height="1" fill="#DE9E41" />
<rect x="66" y="41" width="1" height="1" fill="#DE9E41" />
<rect x="67" y="41" width="1" height="1" fill="#DE9E41" />
<rect x="68" y="41" width="1" height="1" fill="#DE9E41" />
<rect x="69" y="41" width="1" height="1" fill="#DE9E41" />
<rect x="70" y="41" width="1" height="1" fill="#DE9E41" />
<rect x="71" y="41" width="1" height="1" fill="#DE9E41" />
<rect x="72" y="41" width="1" height="1" fill="#DE9E41" />
<rect x="73" y="41" width="1" height="1" fill="#DE9E41" />
<rect x="63" y="42" width="1" height="1" fill="#DE9E41" />
<rect x="64" y="42" width="1" height="1" fill="#DE9E41" />
<rect x="65" y="42" width="1" height="1" fill="#DE9E41" />
<rect x="66" y="42" width="1" height="1" fill="#DE9E41" />
<rect x="67" y="42" width="1" height="1" fill="#DE9E41" />
<rect x="68" y="42" width="1" height="1" fill="#DE9E41" />
<rect x="69" y="42" width="1" height="1" fill="#DE9E41" />
<rect x="70" y="42" width="1" height="1" fill="#DE9E41" />
<rect x="71" y="42" width="1" height="1" fill="#DE9E41" />
<rect x="72" y="42" width="1" height="1" fill="#DE9E41" />
<rect x="73" y="42" width="1" height="1" fill="#DE9E41" />
<rect x="74" y="42" width="1" height="1" fill="#DE9E41" />
<rect x="62" y="43" width="1" height="1" fill="#DE9E41" />
<rect x="63" y="43" width="1" height="1" fill="#DE9E41" />
<rect x="64" y="43" width="1" height="1" fill="#DE9E41" />
<rect x="65" y="43" width="1" height="1" fill="#DE9E41" />
<rect x="66" y="43" width="1" height="1" fill="#DE9E41" />
<rect x="67" y="43" width="1" height="1" fill="#DE9E41" />
<rect x="68" y="43" width="1" height="1" fill="#DE9E41" />
<rect x="69" y="43" width="1" height="1" fill="#DE9E41" />
<rect x="70" y="43" width="1" height="1" fill="#DE9E41" />
<rect x="71" y="43" width="1" height="1" fill="#DE9E41" />
<rect x="72" y="43" width="1" height="1" fill="#DE9E41" />
<rect x="73" y="43" width="1" height="1" fill="#DE9E41" />
<rect x="74" y="43" width="1" height="1" fill="#DE9E41" />
<rect x="75" y="43" width="1" height="1" fill="#DE9E41" />
<rect x="61" y="44" width="1" height="1" fill="#DE9E41" />
<rect x="62" y="44" width="1" height="1" fill="#DE9E41" />
<rect x="63" y="44" width="1" height="1" fill="#DE9E41" />
<rect x="64" y="44" width="1" height="1" fill="#DE9E41" />
<rect x="65" y="44" width="1" height="1" fill="#DE9E41" />
<rect x="66" y="44" width="1" height="1" fill="#DE9E41" />
<rect x="67" y="44" width="1" height="1" fill="#E7D5B3" />
<rect x="68" y="44" width="1" height="1" fill="#E7D5B3" />
<rect x="69" y="44" width="1" height="1" fill="#E7D5B3" />
<rect x="70" y="44" width="1" height="1" fill="#E7D5B3" />
<rect x="71" y="44" width="1" height="1" fill="#DE9E41" />
<rect x="72" y="44" width="1" height="1" fill="#DE9E41" />
<rect x="73" y="44" width="1" height="1" fill="#DE9E41" />
<rect x="74" y="44" width="1" height="1" fill="#DE9E41" />
<rect x="75" y="44" width="1" height="1" fill="#DE9E41" />
<rect x="76" y="44" width="1" height="1" fill="#DE9E41" />
<rect x="60" y="45" width="1" height="1" fill="#DE9E41" />
<rect x="61" y="45" width="1" height="1" fill="#DE9E41" />
<rect x="62" y="45" width="1" height="1" fill="#DE9E41" />
<rect x="63" y="45" width="1" height="1" fill="#DE9E41" />
<rect x="64" y="45" width="1" height="1" fill="#DE9E41" />
<rect x="65" y="45" width="1" height="1" fill="#E7D5B3" />
<rect x="66" y="45" width="1" height="1" fill="#E7D5B3" />
<rect x="67" y="45" width="1" height="1" fill="#E7D5B3" />
<rect x="68" y="45" width="1" height="1" fill="#E7D5B3" />
<rect x="69" y="45" width="1" height="1" fill="#E7D5B3" />
<rect x="70" y="45" width="1" height="1" fill="#E7D5B3" />
<rect x="71" y="45" width="1" height="1" fill="#E7D5B3" />
<rect x="72" y="45" width="1" height="1" fill="#E7D5B3" />
<rect x="73" y="45" width="1" height="1" fill="#DE9E41" />
<rect x="74" y="45" width="1" height="1" fill="#DE9E41" />
<rect x="75" y="45" width="1" height="1" fill="#DE9E41" />
<rect x="76" y="45" width="1" height="1" fill="#DE9E41" />
<rect x="77" y="45" width="1" height="1" fill="#DE9E41" />
<rect x="60" y="46" width="1" height="1" fill="#DE9E41" />
<rect x="61" y="46" width="1" height="1" fill="#DE9E41" />
<rect x="62" y="46" width="1" height="1" fill="#DE9E41" />
<rect x="63" y="46" width="1" height="1" fill="#E7D5B3" />
<rect x="64" y="46" width="1" height="1" fill="#341C27" />
<rect x="65" y="46" width="1" height="1" fill="#341C27" />
<rect x="66" y="46" width="1" height="1" fill="#341C27" />
<rect x="67" y="46" width="1" height="1" fill="#E7D5B3" />
<rect x="68" y="46" width="1" height="1" fill="#E7D5B3" />
<rect x="69" y="46" width="1" height="1" fill="#E7D5B3" />
<rect x="70" y="46" width="1" height="1" fill="#341C27" />
<rect x="71" y="46" width="1" height="1" fill="#341C27" />
<rect x="72" y="46" width="1" height="1" fill="#341C27" />
<rect x="73" y="46" width="1" height="1" fill="#E7D5B3" />
<rect x="74" y="46" width="1" height="1" fill="#E7D5B3" />
<rect x="75" y="46" width="1" height="1" fill="#DE9E41" />
<rect x="76" y="46" width="1" height="1" fill="#DE9E41" />
<rect x="77" y="46" width="1" height="1" fill="#DE9E41" />
<rect x="60" y="47" width="1" height="1" fill="#DE9E41" />
<rect x="61" y="47" width="1" height="1" fill="#DE9E41" />
<rect x="62" y="47" width="1" height="1" fill="#D7B594" />
<rect x="63" y="47" width="1" height="1" fill="#341C27" />
<rect x="64" y="47" width="1" height="1" fill="#DE9E41" />
<rect x="65" y="47" width="1" height="1" fill="#DE9E41" />
<rect x="66" y="47" width="1" height="1" fill="#DE9E41" />
<rect x="67" y="47" width="1" height="1" fill="#341C27" />
<rect x="68" y="47" width="1" height="1" fill="#341C27" />
<rect x="69" y="47" width="1" height="1" fill="#341C27" />
<rect x="70" y="47" width="1" height="1" fill="#DE9E41" />
<rect x="71" y="47" width="1" height="1" fill="#DE9E41" />
<rect x="72" y="47" width="1" height="1" fill="#DE9E41" />
<rect x="73" y="47" width="1" height="1" fill="#341C27" />
<rect x="74" y="47" width="1" height="1" fill="#341C27" />
<rect x="75" y="47" width="1" height="1" fill="#D7B594" />
<rect x="76" y="47" width="1" height="1" fill="#DE9E41" />
<rect x="77" y="47" width="1" height="1" fill="#DE9E41" />
<rect x="60" y="48" width="1" height="1" fill="#DE9E41" />
<rect x="61" y="48" width="1" height="1" fill="#DE9E41" />
<rect x="62" y="48" width="1" height="1" fill="#D7B594" />
<rect x="63" y="48" width="1" height="1" fill="#341C27" />
<rect x="64" y="48" width="1" height="1" fill="#EBEDE9" />
<rect x="65" y="48" width="1" height="1" fill="#090A14" />
<rect x="66" y="48" width="1" height="1" fill="#EBEDE9" />
<rect x="67" y="48" width="1" height="1" fill="#341C27" />
<rect x="68" y="48" width="1" height="1" fill="#D7B594" />
<rect x="69" y="48" width="1" height="1" fill="#341C27" />
<rect x="70" y="48" width="1" height="1" fill="#EBEDE9" />
<rect x="71" y="48" width="1" height="1" fill="#090A14" />
<rect x="72" y="48" width="1" height="1" fill="#EBEDE9" />
<rect x="73" y="48" width="1" height="1" fill="#341C27" />
<rect x="74" y="48" width="1" height="1" fill="#E7D5B3" />
<rect x="75" y="48" width="1" height="1" fill="#D7B594" />
<rect x="76" y="48" width="1" height="1" fill="#DE9E41" />
<rect x="77" y="48" width="1" height="1" fill="#DE9E41" />
<rect x="60" y="49" width="1" height="1" fill="#DE9E41" />
<rect x="61" y="49" width="1" height="1" fill="#DE9E41" />
<rect x="62" y="49" width="1" height="1" fill="#DA863E" />
<rect x="63" y="49" width="1" height="1" fill="#341C27" />
<rect x="64" y="49" width="1" height="1" fill="#E7D5B3" />
<rect x="65" y="49" width="1" height="1" fill="#EBEDE9" />
<rect x="66" y="49" width="1" height="1" fill="#E7D5B3" />
<rect x="67" y="49" width="1" height="1" fill="#341C27" />
<rect x="68" y="49" width="1" height="1" fill="#D7B594" />
<rect x="69" y="49" width="1" height="1" fill="#341C27" />
<rect x="70" y="49" width="1" height="1" fill="#E7D5B3" />
<rect x="71" y="49" width="1" height="1" fill="#EBEDE9" />
<rect x="72" y="49" width="1" height="1" fill="#E7D5B3" />
<rect x="73" y="49" width="1" height="1" fill="#341C27" />
<rect x="74" y="49" width="1" height="1" fill="#E7D5B3" />
<rect x="75" y="49" width="1" height="1" fill="#DA863E" />
<rect x="76" y="49" width="1" height="1" fill="#DE9E41" />
<rect x="77" y="49" width="1" height="1" fill="#DE9E41" />
<rect x="60" y="50" width="1" height="1" fill="#DE9E41" />
<rect x="61" y="50" width="1" height="1" fill="#DE9E41" />
<rect x="62" y="50" width="1" height="1" fill="#DE9E41" />
<rect x="63" y="50" width="1" height="1" fill="#E3D1B0" />
<rect x="64" y="50" width="1" height="1" fill="#341C27" />
<rect x="65" y="50" width="1" height="1" fill="#341C27" />
<rect x="66" y="50" width="1" height="1" fill="#341C27" />
<rect x="67" y="50" width="1" height="1" fill="#E7D5B3" />
<rect x="68" y="50" width="1" height="1" fill="#E7D5B3" />
<rect x="69" y="50" width="1" height="1" fill="#E7D5B3" />
<rect x="70" y="50" width="1" height="1" fill="#341C27" />
<rect x="71" y="50" width="1" height="1" fill="#341C27" />
<rect x="72" y="50" width="1" height="1" fill="#341C27" />
<rect x="73" y="50" width="1" height="1" fill="#E7D5B3" />
<rect x="74" y="50" width="1" height="1" fill="#E3D1B0" />
<rect x="75" y="50" width="1" height="1" fill="#DE9E41" />
<rect x="76" y="50" width="1" height="1" fill="#DE9E41" />
<rect x="77" y="50" width="1" height="1" fill="#DE9E41" />
<rect x="60" y="51" width="1" height="1" fill="#DE9E41" />
<rect x="61" y="51" width="1" height="1" fill="#DE9E41" />
<rect x="64" y="51" width="1" height="1" fill="#E3D1B0" />
<rect x="65" y="51" width="1" height="1" fill="#E7D5B3" />
<rect x="66" y="51" width="1" height="1" fill="#E7D5B3" />
<rect x="67" y="51" width="1" height="1" fill="#E7D5B3" />
<rect x="68" y="51" width="1" height="1" fill="#DF84A5" />
<rect x="69" y="51" width="1" height="1" fill="#DF84A5" />
<rect x="70" y="51" width="1" height="1" fill="#E7D5B3" />
<rect x="71" y="51" width="1" height="1" fill="#E7D5B3" />
<rect x="72" y="51" width="1" height="1" fill="#E7D5B3" />
<rect x="73" y="51" width="1" height="1" fill="#E3D1B0" />
<rect x="76" y="51" width="1" height="1" fill="#DE9E41" />
<rect x="77" y="51" width="1" height="1" fill="#DE9E41" />
<rect x="61" y="52" width="1" height="1" fill="#DE9E41" />
<rect x="62" y="52" width="1" height="1" fill="#DE9E41" />
<rect x="65" y="52" width="1" height="1" fill="#E3D1B0" />
<rect x="66" y="52" width="1" height="1" fill="#E7D5B3" />
<rect x="67" y="52" width="1" height="1" fill="#E7D5B3" />
<rect x="68" y="52" width="1" height="1" fill="#DF84A5" />
<rect x="69" y="52" width="1" height="1" fill="#DF84A5" />
<rect x="70" y="52" width="1" height="1" fill="#E7D5B3" />
<rect x="71" y="52" width="1" height="1" fill="#E7D5B3" />
<rect x="72" y="52" width="1" height="1" fill="#E3D1B0" />
<rect x="75" y="52" width="1" height="1" fill="#DE9E41" />
<rect x="76" y="52" width="1" height="1" fill="#DE9E41" />
<rect x="77" y="52" width="1" height="1" fill="#DE9E41" />
<rect x="61" y="53" width="1" height="1" fill="#DE9E41" />
<rect x="62" y="53" width="1" height="1" fill="#DE9E41" />
<rect x="67" y="53" width="1" height="1" fill="#E3D1B0" />
<rect x="68" y="53" width="1" height="1" fill="#E7D5B3" />
<rect x="69" y="53" width="1" height="1" fill="#E7D5B3" />
<rect x="70" y="53" width="1" height="1" fill="#E3D1B0" />
<rect x="75" y="53" width="1" height="1" fill="#DE9E41" />
<rect x="76" y="53" width="1" height="1" fill="#DE9E41" />
<rect x="64" y="54" width="1" height="1" fill="#090A14" />
<rect x="65" y="54" width="1" height="1" fill="#577277" />
<rect x="66" y="54" width="1" height="1" fill="#EBEDE9" />
<rect x="67" y="54" width="1" height="1" fill="#A53030" />
<rect x="68" y="54" width="1" height="1" fill="#D7B594" />
<rect x="69" y="54" width="1" height="1" fill="#D7B594" />
<rect x="70" y="54" width="1" height="1" fill="#A53030" />
<rect x="71" y="54" width="1" height="1" fill="#EBEDE9" />
<rect x="72" y="54" width="1" height="1" fill="#577277" />
<rect x="73" y="54" width="1" height="1" fill="#090A14" />
<rect x="63" y="55" width="1" height="1" fill="#090A14" />
<rect x="64" y="55" width="1" height="1" fill="#090A14" />
<rect x="65" y="55" width="1" height="1" fill="#577277" />
<rect x="66" y="55" width="1" height="1" fill="#EBEDE9" />
<rect x="67" y="55" width="1" height="1" fill="#EBEDE9" />
<rect x="68" y="55" width="1" height="1" fill="#A53030" />
<rect x="69" y="55" width="1" height="1" fill="#A53030" />
<rect x="70" y="55" width="1" height="1" fill="#EBEDE9" />
<rect x="71" y="55" width="1" height="1" fill="#EBEDE9" />
<rect x="72" y="55" width="1" height="1" fill="#577277" />
<rect x="73" y="55" width="1" height="1" fill="#090A14" />
<rect x="74" y="55" width="1" height="1" fill="#090A14" />
<rect x="75" y="55" width="1" height="1" fill="#090A14" />
<rect x="62" y="56" width="1" height="1" fill="#090A14" />
<rect x="63" y="56" width="1" height="1" fill="#090A14" />
<rect x="64" y="56" width="1" height="1" fill="#090A14" />
<rect x="65" y="56" width="1" height="1" fill="#202E37" />
<rect x="66" y="56" width="1" height="1" fill="#577277" />
<rect x="67" y="56" width="1" height="1" fill="#EBEDE9" />
<rect x="68" y="56" width="1" height="1" fill="#A53030" />
<rect x="69" y="56" width="1" height="1" fill="#A53030" />
<rect x="70" y="56" width="1" height="1" fill="#EBEDE9" />
<rect x="71" y="56" width="1" height="1" fill="#577277" />
<rect x="72" y="56" width="1" height="1" fill="#090A14" />
<rect x="73" y="56" width="1" height="1" fill="#202E37" />
<rect x="74" y="56" width="1" height="1" fill="#090A14" />
<rect x="75" y="56" width="1" height="1" fill="#090A14" />
<rect x="76" y="56" width="1" height="1" fill="#090A14" />
<rect x="61" y="57" width="1" height="1" fill="#090A14" />
<rect x="62" y="57" width="1" height="1" fill="#090A14" />
<rect x="63" y="57" width="1" height="1" fill="#090A14" />
<rect x="64" y="57" width="1" height="1" fill="#202E37" />
<rect x="65" y="57" width="1" height="1" fill="#090A14" />
<rect x="66" y="57" width="1" height="1" fill="#090A14" />
<rect x="67" y="57" width="1" height="1" fill="#577277" />
<rect x="68" y="57" width="1" height="1" fill="#EBEDE9" />
<rect x="69" y="57" width="1" height="1" fill="#A53030" />
<rect x="70" y="57" width="1" height="1" fill="#577277" />
<rect x="71" y="57" width="1" height="1" fill="#090A14" />
<rect x="72" y="57" width="1" height="1" fill="#090A14" />
<rect x="73" y="57" width="1" height="1" fill="#090A14" />
<rect x="74" y="57" width="1" height="1" fill="#202E37" />
<rect x="75" y="57" width="1" height="1" fill="#090A14" />
<rect x="76" y="57" width="1" height="1" fill="#090A14" />
<rect x="77" y="57" width="1" height="1" fill="#090A14" />
<rect x="60" y="58" width="1" height="1" fill="#090A14" />
<rect x="61" y="58" width="1" height="1" fill="#090A14" />
<rect x="62" y="58" width="1" height="1" fill="#090A14" />
<rect x="63" y="58" width="1" height="1" fill="#577277" />
<rect x="64" y="58" width="1" height="1" fill="#202E37" />
<rect x="65" y="58" width="1" height="1" fill="#090A14" />
<rect x="66" y="58" width="1" height="1" fill="#090A14" />
<rect x="67" y="58" width="1" height="1" fill="#090A14" />
<rect x="68" y="58" width="1" height="1" fill="#577277" />
<rect x="69" y="58" width="1" height="1" fill="#577277" />
<rect x="70" y="58" width="1" height="1" fill="#090A14" />
<rect x="71" y="58" width="1" height="1" fill="#090A14" />
<rect x="72" y="58" width="1" height="1" fill="#090A14" />
<rect x="73" y="58" width="1" height="1" fill="#090A14" />
<rect x="74" y="58" width="1" height="1" fill="#202E37" />
<rect x="75" y="58" width="1" height="1" fill="#577277" />
<rect x="76" y="58" width="1" height="1" fill="#090A14" />
<rect x="77" y="58" width="1" height="1" fill="#090A14" />
<rect x="60" y="59" width="1" height="1" fill="#090A14" />
<rect x="61" y="59" width="1" height="1" fill="#090A14" />
<rect x="62" y="59" width="1" height="1" fill="#577277" />
<rect x="64" y="59" width="1" height="1" fill="#202E37" />
<rect x="65" y="59" width="1" height="1" fill="#090A14" />
<rect x="66" y="59" width="1" height="1" fill="#090A14" />
<rect x="67" y="59" width="1" height="1" fill="#090A14" />
<rect x="68" y="59" width="1" height="1" fill="#090A14" />
<rect x="69" y="59" width="1" height="1" fill="#090A14" />
<rect x="70" y="59" width="1" height="1" fill="#090A14" />
<rect x="71" y="59" width="1" height="1" fill="#090A14" />
<rect x="72" y="59" width="1" height="1" fill="#090A14" />
<rect x="73" y="59" width="1" height="1" fill="#090A14" />
<rect x="74" y="59" width="1" height="1" fill="#202E37" />
<rect x="76" y="59" width="1" height="1" fill="#577277" />
<rect x="77" y="59" width="1" height="1" fill="#090A14" />
<rect x="78" y="59" width="1" height="1" fill="#090A14" />
<rect x="60" y="60" width="1" height="1" fill="#090A14" />
<rect x="61" y="60" width="1" height="1" fill="#090A14" />
<rect x="64" y="60" width="1" height="1" fill="#202E37" />
<rect x="65" y="60" width="1" height="1" fill="#202E37" />
<rect x="66" y="60" width="1" height="1" fill="#090A14" />
<rect x="67" y="60" width="1" height="1" fill="#090A14" />
<rect x="68" y="60" width="1" height="1" fill="#090A14" />
<rect x="69" y="60" width="1" height="1" fill="#090A14" />
<rect x="70" y="60" width="1" height="1" fill="#090A14" />
<rect x="71" y="60" width="1" height="1" fill="#090A14" />
<rect x="72" y="60" width="1" height="1" fill="#090A14" />
<rect x="73" y="60" width="1" height="1" fill="#202E37" />
<rect x="74" y="60" width="1" height="1" fill="#202E37" />
<rect x="77" y="60" width="1" height="1" fill="#090A14" />
<rect x="78" y="60" width="1" height="1" fill="#090A14" />
<rect x="60" y="61" width="1" height="1" fill="#090A14" />
<rect x="61" y="61" width="1" height="1" fill="#090A14" />
<rect x="65" y="61" width="1" height="1" fill="#090A14" />
<rect x="66" y="61" width="1" height="1" fill="#090A14" />
<rect x="67" y="61" width="1" height="1" fill="#090A14" />
<rect x="68" y="61" width="1" height="1" fill="#090A14" />
<rect x="69" y="61" width="1" height="1" fill="#090A14" />
<rect x="70" y="61" width="1" height="1" fill="#090A14" />
<rect x="71" y="61" width="1" height="1" fill="#090A14" />
<rect x="72" y="61" width="1" height="1" fill="#090A14" />
<rect x="73" y="61" width="1" height="1" fill="#090A14" />
<rect x="77" y="61" width="1" height="1" fill="#090A14" />
<rect x="78" y="61" width="1" height="1" fill="#090A14" />
<rect x="60" y="62" width="1" height="1" fill="#090A14" />
<rect x="61" y="62" width="1" height="1" fill="#090A14" />
<rect x="62" y="62" width="1" height="1" fill="#090A14" />
<rect x="65" y="62" width="1" height="1" fill="#090A14" />
<rect x="66" y="62" width="1" height="1" fill="#090A14" />
<rect x="67" y="62" width="1" height="1" fill="#090A14" />
<rect x="68" y="62" width="1" height="1" fill="#090A14" />
<rect x="69" y="62" width="1" height="1" fill="#090A14" />
<rect x="70" y="62" width="1" height="1" fill="#090A14" />
<rect x="71" y="62" width="1" height="1" fill="#090A14" />
<rect x="72" y="62" width="1" height="1" fill="#090A14" />
<rect x="73" y="62" width="1" height="1" fill="#090A14" />
<rect x="76" y="62" width="1" height="1" fill="#C09473" />
<rect x="77" y="62" width="1" height="1" fill="#090A14" />
<rect x="78" y="62" width="1" height="1" fill="#090A14" />
<rect x="61" y="63" width="1" height="1" fill="#090A14" />
<rect x="62" y="63" width="1" height="1" fill="#090A14" />
<rect x="63" y="63" width="1" height="1" fill="#090A14" />
<rect x="65" y="63" width="1" height="1" fill="#577277" />
<rect x="66" y="63" width="1" height="1" fill="#577277" />
<rect x="67" y="63" width="1" height="1" fill="#577277" />
<rect x="68" y="63" width="1" height="1" fill="#577277" />
<rect x="69" y="63" width="1" height="1" fill="#577277" />
<rect x="70" y="63" width="1" height="1" fill="#577277" />
<rect x="71" y="63" width="1" height="1" fill="#577277" />
<rect x="72" y="63" width="1" height="1" fill="#577277" />
<rect x="73" y="63" width="1" height="1" fill="#577277" />
<rect x="75" y="63" width="1" height="1" fill="#C09473" />
<rect x="76" y="63" width="1" height="1" fill="#E7D5B3" />
<rect x="77" y="63" width="1" height="1" fill="#E7D5B3" />
<rect x="78" y="63" width="1" height="1" fill="#E7D5B3" />
<rect x="62" y="64" width="1" height="1" fill="#090A14" />
<rect x="63" y="64" width="1" height="1" fill="#E7D5B3" />
<rect x="64" y="64" width="1" height="1" fill="#D7B594" />
<rect x="65" y="64" width="1" height="1" fill="#A23E8C" />
<rect x="66" y="64" width="1" height="1" fill="#A23E8C" />
<rect x="67" y="64" width="1" height="1" fill="#A23E8C" />
<rect x="68" y="64" width="1" height="1" fill="#A23E8C" />
<rect x="69" y="64" width="1" height="1" fill="#A23E8C" />
<rect x="70" y="64" width="1" height="1" fill="#A23E8C" />
<rect x="71" y="64" width="1" height="1" fill="#A23E8C" />
<rect x="72" y="64" width="1" height="1" fill="#A23E8C" />
<rect x="73" y="64" width="1" height="1" fill="#7A367B" />
<rect x="76" y="64" width="1" height="1" fill="#E7D5B3" />
<rect x="77" y="64" width="1" height="1" fill="#E7D5B3" />
<rect x="63" y="65" width="1" height="1" fill="#E7D5B3" />
<rect x="64" y="65" width="1" height="1" fill="#E7D5B3" />
<rect x="65" y="65" width="1" height="1" fill="#D7B594" />
<rect x="66" y="65" width="1" height="1" fill="#A23E8C" />
<rect x="67" y="65" width="1" height="1" fill="#A23E8C" />
<rect x="68" y="65" width="1" height="1" fill="#A23E8C" />
<rect x="69" y="65" width="1" height="1" fill="#A23E8C" />
<rect x="70" y="65" width="1" height="1" fill="#A23E8C" />
<rect x="71" y="65" width="1" height="1" fill="#A23E8C" />
<rect x="72" y="65" width="1" height="1" fill="#A23E8C" />
<rect x="73" y="65" width="1" height="1" fill="#7A367B" />
<rect x="64" y="66" width="1" height="1" fill="#E7D5B3" />
<rect x="65" y="66" width="1" height="1" fill="#D7B594" />
<rect x="66" y="66" width="1" height="1" fill="#A23E8C" />
<rect x="67" y="66" width="1" height="1" fill="#A23E8C" />
<rect x="68" y="66" width="1" height="1" fill="#A23E8C" />
<rect x="69" y="66" width="1" height="1" fill="#A23E8C" />
<rect x="70" y="66" width="1" height="1" fill="#A23E8C" />
<rect x="71" y="66" width="1" height="1" fill="#A23E8C" />
<rect x="72" y="66" width="1" height="1" fill="#A23E8C" />
<rect x="73" y="66" width="1" height="1" fill="#7A367B" />
<rect x="65" y="67" width="1" height="1" fill="#A23E8C" />
<rect x="66" y="67" width="1" height="1" fill="#A23E8C" />
<rect x="67" y="67" width="1" height="1" fill="#A23E8C" />
<rect x="68" y="67" width="1" height="1" fill="#A23E8C" />
<rect x="69" y="67" width="1" height="1" fill="#A23E8C" />
<rect x="70" y="67" width="1" height="1" fill="#A23E8C" />
<rect x="71" y="67" width="1" height="1" fill="#A23E8C" />
<rect x="72" y="67" width="1" height="1" fill="#A23E8C" />
<rect x="73" y="67" width="1" height="1" fill="#7A367B" />
<rect x="65" y="68" width="1" height="1" fill="#A23E8C" />
<rect x="66" y="68" width="1" height="1" fill="#A23E8C" />
<rect x="67" y="68" width="1" height="1" fill="#A23E8C" />
<rect x="68" y="68" width="1" height="1" fill="#A23E8C" />
<rect x="69" y="68" width="1" height="1" fill="#A23E8C" />
<rect x="70" y="68" width="1" height="1" fill="#A23E8C" />
<rect x="71" y="68" width="1" height="1" fill="#A23E8C" />
<rect x="72" y="68" width="1" height="1" fill="#A23E8C" />
<rect x="73" y="68" width="1" height="1" fill="#7A367B" />
<rect x="65" y="69" width="1" height="1" fill="#A23E8C" />
<rect x="66" y="69" width="1" height="1" fill="#A23E8C" />
<rect x="67" y="69" width="1" height="1" fill="#7A367B" />
<rect x="71" y="69" width="1" height="1" fill="#A23E8C" />
<rect x="72" y="69" width="1" height="1" fill="#A23E8C" />
<rect x="73" y="69" width="1" height="1" fill="#7A367B" />
<rect x="65" y="70" width="1" height="1" fill="#A23E8C" />
<rect x="66" y="70" width="1" height="1" fill="#A23E8C" />
<rect x="67" y="70" width="1" height="1" fill="#7A367B" />
<rect x="71" y="70" width="1" height="1" fill="#A23E8C" />
<rect x="72" y="70" width="1" height="1" fill="#A23E8C" />
<rect x="73" y="70" width="1" height="1" fill="#7A367B" />
<rect x="65" y="71" width="1" height="1" fill="#A23E8C" />
<rect x="66" y="71" width="1" height="1" fill="#A23E8C" />
<rect x="67" y="71" width="1" height="1" fill="#7A367B" />
<rect x="71" y="71" width="1" height="1" fill="#A23E8C" />
<rect x="72" y="71" width="1" height="1" fill="#A23E8C" />
<rect x="73" y="71" width="1" height="1" fill="#7A367B" />
<rect x="65" y="72" width="1" height="1" fill="#7A367B" />
<rect x="66" y="72" width="1" height="1" fill="#A23E8C" />
<rect x="67" y="72" width="1" height="1" fill="#7A367B" />
<rect x="71" y="72" width="1" height="1" fill="#7A367B" />
<rect x="72" y="72" width="1" height="1" fill="#A23E8C" />
<rect x="73" y="72" width="1" height="1" fill="#7A367B" />
<rect x="65" y="73" width="1" height="1" fill="#A23E8C" />
<rect x="66" y="73" width="1" height="1" fill="#A23E8C" />
<rect x="67" y="73" width="1" height="1" fill="#7A367B" />
<rect x="71" y="73" width="1" height="1" fill="#A23E8C" />
<rect x="72" y="73" width="1" height="1" fill="#A23E8C" />
<rect x="73" y="73" width="1" height="1" fill="#7A367B" />
<rect x="65" y="74" width="1" height="1" fill="#A23E8C" />
<rect x="66" y="74" width="1" height="1" fill="#A23E8C" />
<rect x="67" y="74" width="1" height="1" fill="#7A367B" />
<rect x="71" y="74" width="1" height="1" fill="#A23E8C" />
<rect x="72" y="74" width="1" height="1" fill="#A23E8C" />
<rect x="73" y="74" width="1" height="1" fill="#7A367B" />
<rect x="65" y="75" width="1" height="1" fill="#E7D5B3" />
<rect x="66" y="75" width="1" height="1" fill="#E7D5B3" />
<rect x="67" y="75" width="1" height="1" fill="#E7D5B3" />
<rect x="71" y="75" width="1" height="1" fill="#E7D5B3" />
<rect x="72" y="75" width="1" height="1" fill="#E7D5B3" />
<rect x="73" y="75" width="1" height="1" fill="#E7D5B3" />
<rect x="65" y="76" width="1" height="1" fill="#E7D5B3" />
<rect x="66" y="76" width="1" height="1" fill="#E7D5B3" />
<rect x="67" y="76" width="1" height="1" fill="#E7D5B3" />
<rect x="71" y="76" width="1" height="1" fill="#E7D5B3" />
<rect x="72" y="76" width="1" height="1" fill="#E7D5B3" />
<rect x="73" y="76" width="1" height="1" fill="#E7D5B3" />
<rect x="64" y="77" width="1" height="1" fill="#7A4841" />
<rect x="65" y="77" width="1" height="1" fill="#7A4841" />
<rect x="66" y="77" width="1" height="1" fill="#602C2C" />
<rect x="67" y="77" width="1" height="1" fill="#602C2C" />
<rect x="71" y="77" width="1" height="1" fill="#7A4841" />
<rect x="72" y="77" width="1" height="1" fill="#7A4841" />
<rect x="73" y="77" width="1" height="1" fill="#602C2C" />
<rect x="63" y="78" width="1" height="1" fill="#4D2B32" />
<rect x="64" y="78" width="1" height="1" fill="#4D2B32" />
<rect x="65" y="78" width="1" height="1" fill="#602C2C" />
<rect x="66" y="78" width="1" height="1" fill="#602C2C" />
<rect x="67" y="78" width="1" height="1" fill="#602C2C" />
<rect x="70" y="78" width="1" height="1" fill="#4D2B32" />
<rect x="71" y="78" width="1" height="1" fill="#4D2B32" />
<rect x="72" y="78" width="1" height="1" fill="#602C2C" />
<rect x="73" y="78" width="1" height="1" fill="#602C2C" />
<rect x="63" y="79" width="1" height="1" fill="#341C27" />
<rect x="64" y="79" width="1" height="1" fill="#341C27" />
<rect x="65" y="79" width="1" height="1" fill="#341C27" />
<rect x="66" y="79" width="1" height="1" fill="#341C27" />
<rect x="67" y="79" width="1" height="1" fill="#341C27" />
<rect x="70" y="79" width="1" height="1" fill="#341C27" />
<rect x="71" y="79" width="1" height="1" fill="#341C27" />
<rect x="72" y="79" width="1" height="1" fill="#341C27" />
<rect x="73" y="79" width="1" height="1" fill="#341C27" />
</svg>