<?xml version="1.0" encoding="UTF-8" ?>
<svg version="1.1" width="128" height="80" xmlns="http://www.w3.org/2000/svg" shape-rendering="crispEdges">
<rect x="106" y="25" width="1" height="1" fill="#BE772B" />
<rect x="107" y="25" width="1" height="1" fill="#BE772B" />
<rect x="108" y="25" width="1" height="1" fill="#BE772B" />
<rect x="109" y="25" width="1" height="1" fill="#BE772B" />
<rect x="110" y="25" width="1" height="1" fill="#BE772B" />
<rect x="111" y="25" width="1" height="1" fill="#BE772B" />
<rect x="112" y="25" width="1" height="1" fill="#BE772B" />
<rect x="113" y="25" width="1" height="1" fill="#BE772B" />
<rect x="104" y="26" width="1" height="1" fill="#DE9E41" />
<rect x="105" y="26" width="1" height="1" fill="#DE9E41" />
<rect x="106" y="26" width="1" height="1" fill="#DE9E41" />
<rect x="107" y="26" width="1" height="1" fill="#DE9E41" />
<rect x="108" y="26" width="1" height="1" fill="#DE9E41" />
<rect x="109" y="26" width="1" height="1" fill="#DE9E41" />
<rect x="110" y="26" width="1" height="1" fill="#DE9E41" />
<rect x="111" y="26" width="1" height="1" fill="#DE9E41" />
<rect x="112" y="26" width="1" height="1" fill="#DE9E41" />
<rect x="113" y="26" width="1" height="1" fill="#DE9E41" />
<rect x="114" y="26" width="1" height="1" fill="#BE772B" />
<rect x="115" y="26" width="1" height="1" fill="#BE772B" />
<rect x="103" y="27" width="1" height="1" fill="#DE9E41" />
<rect x="104" y="27" width="1" height="1" fill="#DE9E41" />
<rect x="105" y="27" width="1" height="1" fill="#DE9E41" />
<rect x="106" y="27" width="1" height="1" fill="#DE9E41" />
<rect x="107" y="27" width="1" height="1" fill="#DE9E41" />
<rect x="108" y="27" width="1" height="1" fill="#DE9E41" />
<rect x="109" y="27" width="1" height="1" fill="#DE9E41" />
<rect x="110" y="27" width="1" height="1" fill="#DE9E41" />
<rect x="111" y="27" width="1" height="1" fill="#DE9E41" />
<rect x="112" y="27" width="1" height="1" fill="#DE9E41" />
<rect x="113" y="27" width="1" height="1" fill="#DE9E41" />
<rect x="114" y="27" width="1" height="1" fill="#DE9E41" />
<rect x="115" y="27" width="1" height="1" fill="#DE9E41" />
<rect x="116" y="27" width="1" height="1" fill="#BE772B" />
<rect x="102" y="28" width="1" height="1" fill="#DE9E41" />
<rect x="103" y="28" width="1" height="1" fill="#DE9E41" />
<rect x="104" y="28" width="1" height="1" fill="#DE9E41" />
<rect x="105" y="28" width="1" height="1" fill="#DE9E41" />
<rect x="106" y="28" width="1" height="1" fill="#DE9E41" />
<rect x="107" y="28" width="1" height="1" fill="#E8C170" />
<rect x="108" y="28" width="1" height="1" fill="#E8C170" />
<rect x="109" y="28" width="1" height="1" fill="#E8C170" />
<rect x="110" y="28" width="1" height="1" fill="#E8C170" />
<rect x="111" y="28" width="1" height="1" fill="#E8C170" />
<rect x="112" y="28" width="1" height="1" fill="#E8C170" />
<rect x="113" y="28" width="1" height="1" fill="#DE9E41" />
<rect x="114" y="28" width="1" height="1" fill="#DE9E41" />
<rect x="115" y="28" width="1" height="1" fill="#DE9E41" />
<rect x="116" y="28" width="1" height="1" fill="#DE9E41" />
<rect x="117" y="28" width="1" height="1" fill="#BE772B" />
<rect x="101" y="29" width="1" height="1" fill="#DE9E41" />
<rect x="102" y="29" width="1" height="1" fill="#DE9E41" />
<rect x="103" y="29" width="1" height="1" fill="#DE9E41" />
<rect x="104" y="29" width="1" height="1" fill="#DE9E41" />
<rect x="105" y="29" width="1" height="1" fill="#E7D5B3" />
<rect x="106" y="29" width="1" height="1" fill="#E7D5B3" />
<rect x="107" y="29" width="1" height="1" fill="#E7D5B3" />
<rect x="108" y="29" width="1" height="1" fill="#E7D5B3" />
<rect x="109" y="29" width="1" height="1" fill="#E7D5B3" />
<rect x="110" y="29" width="1" height="1" fill="#E7D5B3" />
<rect x="111" y="29" width="1" height="1" fill="#E7D5B3" />
<rect x="112" y="29" width="1" height="1" fill="#E7D5B3" />
<rect x="113" y="29" width="1" height="1" fill="#E8C170" />
<rect x="114" y="29" width="1" height="1" fill="#E8C170" />
<rect x="115" y="29" width="1" height="1" fill="#DE9E41" />
<rect x="116" y="29" width="1" height="1" fill="#DE9E41" />
<rect x="117" y="29" width="1" height="1" fill="#DE9E41" />
<rect x="118" y="29" width="1" height="1" fill="#BE772B" />
<rect x="101" y="30" width="1" height="1" fill="#DE9E41" />
<rect x="102" y="30" width="1" height="1" fill="#DE9E41" />
<rect x="103" y="30" width="1" height="1" fill="#DE9E41" />
<rect x="104" y="30" width="1" height="1" fill="#E7D5B3" />
<rect x="105" y="30" width="1" height="1" fill="#E7D5B3" />
<rect x="106" y="30" width="1" height="1" fill="#E7D5B3" />
<rect x="107" y="30" width="1" height="1" fill="#E7D5B3" />
<rect x="108" y="30" width="1" height="1" fill="#E7D5B3" />
<rect x="109" y="30" width="1" height="1" fill="#E7D5B3" />
<rect x="110" y="30" width="1" height="1" fill="#E7D5B3" />
<rect x="111" y="30" width="1" height="1" fill="#E7D5B3" />
<rect x="112" y="30" width="1" height="1" fill="#E7D5B3" />
<rect x="113" y="30" width="1" height="1" fill="#E7D5B3" />
<rect x="114" y="30" width="1" height="1" fill="#E7D5B3" />
<rect x="115" y="30" width="1" height="1" fill="#E8C170" />
<rect x="116" y="30" width="1" height="1" fill="#DE9E41" />
<rect x="117" y="30" width="1" height="1" fill="#DE9E41" />
<rect x="118" y="30" width="1" height="1" fill="#BE772B" />
<rect x="101" y="31" width="1" height="1" fill="#DE9E41" />
<rect x="102" y="31" width="1" height="1" fill="#DE9E41" />
<rect x="103" y="31" width="1" height="1" fill="#DE9E41" />
<rect x="104" y="31" width="1" height="1" fill="#E7D5B3" />
<rect x="105" y="31" width="1" height="1" fill="#341C27" />
<rect x="106" y="31" width="1" height="1" fill="#341C27" />
<rect x="107" y="31" width="1" height="1" fill="#341C27" />
<rect x="108" y="31" width="1" height="1" fill="#E7D5B3" />
<rect x="109" y="31" width="1" height="1" fill="#E7D5B3" />
<rect x="110" y="31" width="1" height="1" fill="#E7D5B3" />
<rect x="111" y="31" width="1" height="1" fill="#341C27" />
<rect x="112" y="31" width="1" height="1" fill="#341C27" />
<rect x="113" y="31" width="1" height="1" fill="#341C27" />
<rect x="114" y="31" width="1" height="1" fill="#E7D5B3" />
<rect x="115" y="31" width="1" height="1" fill="#E8C170" />
<rect x="116" y="31" width="1" height="1" fill="#DE9E41" />
<rect x="117" y="31" width="1" height="1" fill="#DE9E41" />
<rect x="118" y="31" width="1" height="1" fill="#BE772B" />
<rect x="101" y="32" width="1" height="1" fill="#DE9E41" />
<rect x="102" y="32" width="1" height="1" fill="#DE9E41" />
<rect x="103" y="32" width="1" height="1" fill="#D7B594" />
<rect x="104" y="32" width="1" height="1" fill="#341C27" />
<rect x="105" y="32" width="1" height="1" fill="#EBEDE9" />
<rect x="106" y="32" width="1" height="1" fill="#EBEDE9" />
<rect x="107" y="32" width="1" height="1" fill="#EBEDE9" />
<rect x="108" y="32" width="1" height="1" fill="#341C27" />
<rect x="109" y="32" width="1" height="1" fill="#341C27" />
<rect x="110" y="32" width="1" height="1" fill="#341C27" />
<rect x="111" y="32" width="1" height="1" fill="#EBEDE9" />
<rect x="112" y="32" width="1" height="1" fill="#EBEDE9" />
<rect x="113" y="32" width="1" height="1" fill="#EBEDE9" />
<rect x="114" y="32" width="1" height="1" fill="#341C27" />
<rect x="115" y="32" width="1" height="1" fill="#341C27" />
<rect x="116" y="32" width="1" height="1" fill="#D7B594" />
<rect x="117" y="32" width="1" height="1" fill="#DE9E41" />
<rect x="118" y="32" width="1" height="1" fill="#BE772B" />
<rect x="101" y="33" width="1" height="1" fill="#DE9E41" />
<rect x="102" y="33" width="1" height="1" fill="#DE9E41" />
<rect x="103" y="33" width="1" height="1" fill="#D7B594" />
<rect x="104" y="33" width="1" height="1" fill="#341C27" />
<rect x="105" y="33" width="1" height="1" fill="#EBEDE9" />
<rect x="106" y="33" width="1" height="1" fill="#EBEDE9" />
<rect x="107" y="33" width="1" height="1" fill="#EBEDE9" />
<rect x="108" y="33" width="1" height="1" fill="#341C27" />
<rect x="109" y="33" width="1" height="1" fill="#D7B594" />
<rect x="110" y="33" width="1" height="1" fill="#341C27" />
<rect x="111" y="33" width="1" height="1" fill="#EBEDE9" />
<rect x="112" y="33" width="1" height="1" fill="#EBEDE9" />
<rect x="113" y="33" width="1" height="1" fill="#EBEDE9" />
<rect x="114" y="33" width="1" height="1" fill="#341C27" />
<rect x="115" y="33" width="1" height="1" fill="#E7D5B3" />
<rect x="116" y="33" width="1" height="1" fill="#D7B594" />
<rect x="117" y="33" width="1" height="1" fill="#DE9E41" />
<rect x="118" y="33" width="1" height="1" fill="#BE772B" />
<rect x="101" y="34" width="1" height="1" fill="#DE9E41" />
<rect x="102" y="34" width="1" height="1" fill="#DE9E41" />
<rect x="103" y="34" width="1" height="1" fill="#DA863E" />
<rect x="104" y="34" width="1" height="1" fill="#341C27" />
<rect x="105" y="34" width="1" height="1" fill="#EBEDE9" />
<rect x="106" y="34" width="1" height="1" fill="#EBEDE9" />
<rect x="107" y="34" width="1" height="1" fill="#EBEDE9" />
<rect x="108" y="34" width="1" height="1" fill="#341C27" />
<rect x="109" y="34" width="1" height="1" fill="#D7B594" />
<rect x="110" y="34" width="1" height="1" fill="#341C27" />
<rect x="111" y="34" width="1" height="1" fill="#EBEDE9" />
<rect x="112" y="34" width="1" height="1" fill="#EBEDE9" />
<rect x="113" y="34" width="1" height="1" fill="#EBEDE9" />
<rect x="114" y="34" width="1" height="1" fill="#341C27" />
<rect x="115" y="34" width="1" height="1" fill="#E7D5B3" />
<rect x="116" y="34" width="1" height="1" fill="#DA863E" />
<rect x="117" y="34" width="1" height="1" fill="#DE9E41" />
<rect x="118" y="34" width="1" height="1" fill="#BE772B" />
<rect x="101" y="35" width="1" height="1" fill="#DE9E41" />
<rect x="102" y="35" width="1" height="1" fill="#DE9E41" />
<rect x="103" y="35" width="1" height="1" fill="#DE9E41" />
<rect x="104" y="35" width="1" height="1" fill="#E3D1B0" />
<rect x="105" y="35" width="1" height="1" fill="#341C27" />
<rect x="106" y="35" width="1" height="1" fill="#341C27" />
<rect x="107" y="35" width="1" height="1" fill="#341C27" />
<rect x="108" y="35" width="1" height="1" fill="#E7D5B3" />
<rect x="109" y="35" width="1" height="1" fill="#E7D5B3" />
<rect x="110" y="35" width="1" height="1" fill="#E7D5B3" />
<rect x="111" y="35" width="1" height="1" fill="#341C27" />
<rect x="112" y="35" width="1" height="1" fill="#341C27" />
<rect x="113" y="35" width="1" height="1" fill="#341C27" />
<rect x="114" y="35" width="1" height="1" fill="#E7D5B3" />
<rect x="115" y="35" width="1" height="1" fill="#E7D5B3" />
<rect x="116" y="35" width="1" height="1" fill="#DE9E41" />
<rect x="117" y="35" width="1" height="1" fill="#DE9E41" />
<rect x="118" y="35" width="1" height="1" fill="#BE772B" />
<rect x="101" y="36" width="1" height="1" fill="#DE9E41" />
<rect x="102" y="36" width="1" height="1" fill="#DE9E41" />
<rect x="103" y="36" width="1" height="1" fill="#DE9E41" />
<rect x="104" y="36" width="1" height="1" fill="#E3D1B0" />
<rect x="105" y="36" width="1" height="1" fill="#4F8FBA" />
<rect x="106" y="36" width="1" height="1" fill="#4F8FBA" />
<rect x="107" y="36" width="1" height="1" fill="#E7D5B3" />
<rect x="108" y="36" width="1" height="1" fill="#DF84A5" />
<rect x="109" y="36" width="1" height="1" fill="#DF84A5" />
<rect x="110" y="36" width="1" height="1" fill="#DF84A5" />
<rect x="111" y="36" width="1" height="1" fill="#E7D5B3" />
<rect x="112" y="36" width="1" height="1" fill="#4F8FBA" />
<rect x="113" y="36" width="1" height="1" fill="#4F8FBA" />
<rect x="114" y="36" width="1" height="1" fill="#E7D5B3" />
<rect x="115" y="36" width="1" height="1" fill="#E3D1B0" />
<rect x="116" y="36" width="1" height="1" fill="#DE9E41" />
<rect x="117" y="36" width="1" height="1" fill="#DE9E41" />
<rect x="118" y="36" width="1" height="1" fill="#BE772B" />
<rect x="98" y="37" width="1" height="1" fill="#D7B594" />
<rect x="102" y="37" width="1" height="1" fill="#DE9E41" />
<rect x="103" y="37" width="1" height="1" fill="#DE9E41" />
<rect x="104" y="37" width="1" height="1" fill="#DE9E41" />
<rect x="105" y="37" width="1" height="1" fill="#E3D1B0" />
<rect x="106" y="37" width="1" height="1" fill="#4F8FBA" />
<rect x="107" y="37" width="1" height="1" fill="#E7D5B3" />
<rect x="108" y="37" width="1" height="1" fill="#DF84A5" />
<rect x="109" y="37" width="1" height="1" fill="#E7D5B3" />
<rect x="110" y="37" width="1" height="1" fill="#DF84A5" />
<rect x="111" y="37" width="1" height="1" fill="#E7D5B3" />
<rect x="112" y="37" width="1" height="1" fill="#4F8FBA" />
<rect x="113" y="37" width="1" height="1" fill="#E7D5B3" />
<rect x="114" y="37" width="1" height="1" fill="#E3D1B0" />
<rect x="115" y="37" width="1" height="1" fill="#DE9E41" />
<rect x="116" y="37" width="1" height="1" fill="#DE9E41" />
<rect x="117" y="37" width="1" height="1" fill="#DE9E41" />
<rect x="118" y="37" width="1" height="1" fill="#BE772B" />
<rect x="121" y="37" width="1" height="1" fill="#D7B594" />
<rect x="97" y="38" width="1" height="1" fill="#D7B594" />
<rect x="98" y="38" width="1" height="1" fill="#D7B594" />
<rect x="99" y="38" width="1" height="1" fill="#D7B594" />
<rect x="102" y="38" width="1" height="1" fill="#DE9E41" />
<rect x="103" y="38" width="1" height="1" fill="#DE9E41" />
<rect x="104" y="38" width="1" height="1" fill="#DE9E41" />
<rect x="105" y="38" width="1" height="1" fill="#DE9E41" />
<rect x="106" y="38" width="1" height="1" fill="#E3D1B0" />
<rect x="107" y="38" width="1" height="1" fill="#E7D5B3" />
<rect x="108" y="38" width="1" height="1" fill="#E7D5B3" />
<rect x="109" y="38" width="1" height="1" fill="#E7D5B3" />
<rect x="110" y="38" width="1" height="1" fill="#E7D5B3" />
<rect x="111" y="38" width="1" height="1" fill="#E7D5B3" />
<rect x="112" y="38" width="1" height="1" fill="#E7D5B3" />
<rect x="113" y="38" width="1" height="1" fill="#E3D1B0" />
<rect x="114" y="38" width="1" height="1" fill="#DE9E41" />
<rect x="115" y="38" width="1" height="1" fill="#DE9E41" />
<rect x="116" y="38" width="1" height="1" fill="#DE9E41" />
<rect x="117" y="38" width="1" height="1" fill="#BE772B" />
<rect x="120" y="38" width="1" height="1" fill="#D7B594" />
<rect x="121" y="38" width="1" height="1" fill="#D7B594" />
<rect x="122" y="38" width="1" height="1" fill="#D7B594" />
<rect x="98" y="39" width="1" height="1" fill="#D7B594" />
<rect x="99" y="39" width="1" height="1" fill="#151D28" />
<rect x="100" y="39" width="1" height="1" fill="#151D28" />
<rect x="103" y="39" width="1" height="1" fill="#DE9E41" />
<rect x="104" y="39" width="1" height="1" fill="#DE9E41" />
<rect x="105" y="39" width="1" height="1" fill="#DE9E41" />
<rect x="106" y="39" width="1" height="1" fill="#DE9E41" />
<rect x="107" y="39" width="1" height="1" fill="#DE9E41" />
<rect x="108" y="39" width="1" height="1" fill="#E3D1B0" />
<rect x="109" y="39" width="1" height="1" fill="#E3D1B0" />
<rect x="110" y="39" width="1" height="1" fill="#E3D1B0" />
<rect x="111" y="39" width="1" height="1" fill="#E3D1B0" />
<rect x="112" y="39" width="1" height="1" fill="#DE9E41" />
<rect x="113" y="39" width="1" height="1" fill="#DE9E41" />
<rect x="114" y="39" width="1" height="1" fill="#DE9E41" />
<rect x="115" y="39" width="1" height="1" fill="#DE9E41" />
<rect x="116" y="39" width="1" height="1" fill="#DE9E41" />
<rect x="119" y="39" width="1" height="1" fill="#151D28" />
<rect x="120" y="39" width="1" height="1" fill="#151D28" />
<rect x="121" y="39" width="1" height="1" fill="#D7B594" />
<rect x="98" y="40" width="1" height="1" fill="#10141F" />
<rect x="99" y="40" width="1" height="1" fill="#151D28" />
<rect x="100" y="40" width="1" height="1" fill="#151D28" />
<rect x="101" y="40" width="1" height="1" fill="#151D28" />
<rect x="105" y="40" width="1" height="1" fill="#DE9E41" />
<rect x="106" y="40" width="1" height="1" fill="#DE9E41" />
<rect x="108" y="40" width="1" height="1" fill="#752438" />
<rect x="109" y="40" width="1" height="1" fill="#D7B594" />
<rect x="110" y="40" width="1" height="1" fill="#D7B594" />
<rect x="111" y="40" width="1" height="1" fill="#752438" />
<rect x="113" y="40" width="1" height="1" fill="#DE9E41" />
<rect x="114" y="40" width="1" height="1" fill="#DE9E41" />
<rect x="115" y="40" width="1" height="1" fill="#DE9E41" />
<rect x="118" y="40" width="1" height="1" fill="#151D28" />
<rect x="119" y="40" width="1" height="1" fill="#151D28" />
<rect x="120" y="40" width="1" height="1" fill="#151D28" />
<rect x="121" y="40" width="1" height="1" fill="#10141F" />
<rect x="99" y="41" width="1" height="1" fill="#10141F" />
<rect x="100" y="41" width="1" height="1" fill="#151D28" />
<rect x="101" y="41" width="1" height="1" fill="#151D28" />
<rect x="102" y="41" width="1" height="1" fill="#151D28" />
<rect x="107" y="41" width="1" height="1" fill="#EBEDE9" />
<rect x="108" y="41" width="1" height="1" fill="#EBEDE9" />
<rect x="109" y="41" width="1" height="1" fill="#A53030" />
<rect x="110" y="41" width="1" height="1" fill="#A53030" />
<rect x="111" y="41" width="1" height="1" fill="#EBEDE9" />
<rect x="112" y="41" width="1" height="1" fill="#EBEDE9" />
<rect x="117" y="41" width="1" height="1" fill="#151D28" />
<rect x="118" y="41" width="1" height="1" fill="#151D28" />
<rect x="119" y="41" width="1" height="1" fill="#151D28" />
<rect x="120" y="41" width="1" height="1" fill="#10141F" />
<rect x="100" y="42" width="1" height="1" fill="#10141F" />
<rect x="101" y="42" width="1" height="1" fill="#151D28" />
<rect x="102" y="42" width="1" height="1" fill="#151D28" />
<rect x="103" y="42" width="1" height="1" fill="#151D28" />
<rect x="105" y="42" width="1" height="1" fill="#151D28" />
<rect x="106" y="42" width="1" height="1" fill="#090A14" />
<rect x="107" y="42" width="1" height="1" fill="#090A14" />
<rect x="108" y="42" width="1" height="1" fill="#EBEDE9" />
<rect x="109" y="42" width="1" height="1" fill="#A53030" />
<rect x="110" y="42" width="1" height="1" fill="#A53030" />
<rect x="111" y="42" width="1" height="1" fill="#EBEDE9" />
<rect x="112" y="42" width="1" height="1" fill="#EBEDE9" />
<rect x="113" y="42" width="1" height="1" fill="#090A14" />
<rect x="114" y="42" width="1" height="1" fill="#151D28" />
<rect x="116" y="42" width="1" height="1" fill="#151D28" />
<rect x="117" y="42" width="1" height="1" fill="#151D28" />
<rect x="118" y="42" width="1" height="1" fill="#151D28" />
<rect x="119" y="42" width="1" height="1" fill="#10141F" />
<rect x="101" y="43" width="1" height="1" fill="#10141F" />
<rect x="102" y="43" width="1" height="1" fill="#151D28" />
<rect x="103" y="43" width="1" height="1" fill="#151D28" />
<rect x="104" y="43" width="1" height="1" fill="#151D28" />
<rect x="105" y="43" width="1" height="1" fill="#151D28" />
<rect x="106" y="43" width="1" height="1" fill="#151D28" />
<rect x="107" y="43" width="1" height="1" fill="#090A14" />
<rect x="108" y="43" width="1" height="1" fill="#EBEDE9" />
<rect x="109" y="43" width="1" height="1" fill="#A53030" />
<rect x="110" y="43" width="1" height="1" fill="#A53030" />
<rect x="111" y="43" width="1" height="1" fill="#EBEDE9" />
<rect x="112" y="43" width="1" height="1" fill="#090A14" />
<rect x="113" y="43" width="1" height="1" fill="#090A14" />
<rect x="114" y="43" width="1" height="1" fill="#151D28" />
<rect x="115" y="43" width="1" height="1" fill="#151D28" />
<rect x="116" y="43" width="1" height="1" fill="#151D28" />
<rect x="117" y="43" width="1" height="1" fill="#151D28" />
<rect x="118" y="43" width="1" height="1" fill="#10141F" />
<rect x="102" y="44" width="1" height="1" fill="#10141F" />
<rect x="103" y="44" width="1" height="1" fill="#151D28" />
<rect x="104" y="44" width="1" height="1" fill="#151D28" />
<rect x="105" y="44" width="1" height="1" fill="#151D28" />
<rect x="106" y="44" width="1" height="1" fill="#151D28" />
<rect x="107" y="44" width="1" height="1" fill="#090A14" />
<rect x="108" y="44" width="1" height="1" fill="#090A14" />
<rect x="109" y="44" width="1" height="1" fill="#752438" />
<rect x="110" y="44" width="1" height="1" fill="#A53030" />
<rect x="111" y="44" width="1" height="1" fill="#EBEDE9" />
<rect x="112" y="44" width="1" height="1" fill="#090A14" />
<rect x="113" y="44" width="1" height="1" fill="#151D28" />
<rect x="114" y="44" width="1" height="1" fill="#151D28" />
<rect x="115" y="44" width="1" height="1" fill="#151D28" />
<rect x="116" y="44" width="1" height="1" fill="#151D28" />
<rect x="117" y="44" width="1" height="1" fill="#10141F" />
<rect x="103" y="45" width="1" height="1" fill="#10141F" />
<rect x="104" y="45" width="1" height="1" fill="#151D28" />
<rect x="105" y="45" width="1" height="1" fill="#151D28" />
<rect x="106" y="45" width="1" height="1" fill="#151D28" />
<rect x="107" y="45" width="1" height="1" fill="#151D28" />
<rect x="108" y="45" width="1" height="1" fill="#090A14" />
<rect x="109" y="45" width="1" height="1" fill="#411D31" />
<rect x="110" y="45" width="1" height="1" fill="#752438" />
<rect x="111" y="45" width="1" height="1" fill="#090A14" />
<rect x="112" y="45" width="1" height="1" fill="#090A14" />
<rect x="113" y="45" width="1" height="1" fill="#151D28" />
<rect x="114" y="45" width="1" height="1" fill="#151D28" />
<rect x="115" y="45" width="1" height="1" fill="#151D28" />
<rect x="116" y="45" width="1" height="1" fill="#10141F" />
<rect x="120" y="45" width="1" height="1" fill="#090A14" />
<rect x="104" y="46" width="1" height="1" fill="#151D28" />
<rect x="105" y="46" width="1" height="1" fill="#151D28" />
<rect x="106" y="46" width="1" height="1" fill="#151D28" />
<rect x="107" y="46" width="1" height="1" fill="#151D28" />
<rect x="108" y="46" width="1" height="1" fill="#090A14" />
<rect x="109" y="46" width="1" height="1" fill="#090A14" />
<rect x="110" y="46" width="1" height="1" fill="#411D31" />
<rect x="111" y="46" width="1" height="1" fill="#090A14" />
<rect x="112" y="46" width="1" height="1" fill="#151D28" />
<rect x="113" y="46" width="1" height="1" fill="#151D28" />
<rect x="114" y="46" width="1" height="1" fill="#151D28" />
<rect x="115" y="46" width="1" height="1" fill="#151D28" />
<rect x="120" y="46" width="1" height="1" fill="#090A14" />
<rect x="104" y="47" width="1" height="1" fill="#151D28" />
<rect x="105" y="47" width="1" height="1" fill="#151D28" />
<rect x="106" y="47" width="1" height="1" fill="#151D28" />
<rect x="107" y="47" width="1" height="1" fill="#151D28" />
<rect x="108" y="47" width="1" height="1" fill="#151D28" />
<rect x="109" y="47" width="1" height="1" fill="#090A14" />
<rect x="110" y="47" width="1" height="1" fill="#090A14" />
<rect x="111" y="47" width="1" height="1" fill="#090A14" />
<rect x="112" y="47" width="1" height="1" fill="#151D28" />
<rect x="113" y="47" width="1" height="1" fill="#151D28" />
<rect x="114" y="47" width="1" height="1" fill="#151D28" />
<rect x="115" y="47" width="1" height="1" fill="#151D28" />
<rect x="120" y="47" width="1" height="1" fill="#090A14" />
<rect x="123" y="47" width="1" height="1" fill="#090A14" />
<rect x="105" y="48" width="1" height="1" fill="#10141F" />
<rect x="106" y="48" width="1" height="1" fill="#151D28" />
<rect x="107" y="48" width="1" height="1" fill="#151D28" />
<rect x="108" y="48" width="1" height="1" fill="#151D28" />
<rect x="109" y="48" width="1" height="1" fill="#151D28" />
<rect x="110" y="48" width="1" height="1" fill="#090A14" />
<rect x="111" y="48" width="1" height="1" fill="#151D28" />
<rect x="112" y="48" width="1" height="1" fill="#151D28" />
<rect x="113" y="48" width="1" height="1" fill="#151D28" />
<rect x="114" y="48" width="1" height="1" fill="#10141F" />
<rect x="120" y="48" width="1" height="1" fill="#090A14" />
<rect x="123" y="48" width="1" height="1" fill="#090A14" />
<rect x="106" y="49" width="1" height="1" fill="#10141F" />
<rect x="107" y="49" width="1" height="1" fill="#10141F" />
<rect x="108" y="49" width="1" height="1" fill="#151D28" />
<rect x="109" y="49" width="1" height="1" fill="#151D28" />
<rect x="110" y="49" width="1" height="1" fill="#151D28" />
<rect x="111" y="49" width="1" height="1" fill="#151D28" />
<rect x="112" y="49" width="1" height="1" fill="#10141F" />
<rect x="113" y="49" width="1" height="1" fill="#10141F" />
<rect x="123" y="49" width="1" height="1" fill="#090A14" />
<rect x="107" y="50" width="1" height="1" fill="#10141F" />
<rect x="108" y="50" width="1" height="1" fill="#10141F" />
<rect x="109" y="50" width="1" height="1" fill="#151D28" />
<rect x="110" y="50" width="1" height="1" fill="#151D28" />
<rect x="111" y="50" width="1" height="1" fill="#10141F" />
<rect x="112" y="50" width="1" height="1" fill="#10141F" />
<rect x="123" y="50" width="1" height="1" fill="#090A14" />
<rect x="106" y="51" width="1" height="1" fill="#10141F" />
<rect x="107" y="51" width="1" height="1" fill="#10141F" />
<rect x="108" y="51" width="1" height="1" fill="#151D28" />
<rect x="109" y="51" width="1" height="1" fill="#151D28" />
<rect x="110" y="51" width="1" height="1" fill="#151D28" />
<rect x="111" y="51" width="1" height="1" fill="#151D28" />
<rect x="112" y="51" width="1" height="1" fill="#10141F" />
<rect x="113" y="51" width="1" height="1" fill="#10141F" />
<rect x="105" y="52" width="1" height="1" fill="#151D28" />
<rect x="106" y="52" width="1" height="1" fill="#151D28" />
<rect x="107" y="52" width="1" height="1" fill="#151D28" />
<rect x="108" y="52" width="1" height="1" fill="#151D28" />
<rect x="109" y="52" width="1" height="1" fill="#151D28" />
<rect x="110" y="52" width="1" height="1" fill="#151D28" />
<rect x="111" y="52" width="1" height="1" fill="#151D28" />
<rect x="112" y="52" width="1" height="1" fill="#151D28" />
<rect x="113" y="52" width="1" height="1" fill="#151D28" />
<rect x="114" y="52" width="1" height="1" fill="#151D28" />
<rect x="118" y="52" width="1" height="1" fill="#090A14" />
<rect x="122" y="52" width="1" height="1" fill="#341C27" />
<rect x="123" y="52" width="1" height="1" fill="#341C27" />
<rect x="105" y="53" width="1" height="1" fill="#151D28" />
<rect x="106" y="53" width="1" height="1" fill="#151D28" />
<rect x="107" y="53" width="1" height="1" fill="#151D28" />
<rect x="108" y="53" width="1" height="1" fill="#151D28" />
<rect x="109" y="53" width="1" height="1" fill="#151D28" />
<rect x="110" y="53" width="1" height="1" fill="#151D28" />
<rect x="111" y="53" width="1" height="1" fill="#151D28" />
<rect x="112" y="53" width="1" height="1" fill="#151D28" />
<rect x="113" y="53" width="1" height="1" fill="#151D28" />
<rect x="114" y="53" width="1" height="1" fill="#151D28" />
<rect x="118" y="53" width="1" height="1" fill="#090A14" />
<rect x="121" y="53" width="1" height="1" fill="#341C27" />
<rect x="122" y="53" width="1" height="1" fill="#602C2C" />
<rect x="123" y="53" width="1" height="1" fill="#602C2C" />
<rect x="124" y="53" width="1" height="1" fill="#341C27" />
<rect x="105" y="54" width="1" height="1" fill="#151D28" />
<rect x="106" y="54" width="1" height="1" fill="#151D28" />
<rect x="107" y="54" width="1" height="1" fill="#151D28" />
<rect x="108" y="54" width="1" height="1" fill="#151D28" />
<rect x="109" y="54" width="1" height="1" fill="#151D28" />
<rect x="110" y="54" width="1" height="1" fill="#151D28" />
<rect x="111" y="54" width="1" height="1" fill="#151D28" />
<rect x="112" y="54" width="1" height="1" fill="#151D28" />
<rect x="113" y="54" width="1" height="1" fill="#151D28" />
<rect x="114" y="54" width="1" height="1" fill="#151D28" />
<rect x="120" y="54" width="1" height="1" fill="#341C27" />
<rect x="121" y="54" width="1" height="1" fill="#602C2C" />
<rect x="122" y="54" width="1" height="1" fill="#602C2C" />
<rect x="123" y="54" width="1" height="1" fill="#602C2C" />
<rect x="124" y="54" width="1" height="1" fill="#602C2C" />
<rect x="125" y="54" width="1" height="1" fill="#341C27" />
<rect x="105" y="55" width="1" height="1" fill="#10141F" />
<rect x="106" y="55" width="1" height="1" fill="#151D28" />
<rect x="107" y="55" width="1" height="1" fill="#151D28" />
<rect x="108" y="55" width="1" height="1" fill="#151D28" />
<rect x="109" y="55" width="1" height="1" fill="#151D28" />
<rect x="110" y="55" width="1" height="1" fill="#10141F" />
<rect x="111" y="55" width="1" height="1" fill="#151D28" />
<rect x="112" y="55" width="1" height="1" fill="#151D28" />
<rect x="113" y="55" width="1" height="1" fill="#151D28" />
<rect x="114" y="55" width="1" height="1" fill="#10141F" />
<rect x="119" y="55" width="1" height="1" fill="#341C27" />
<rect x="120" y="55" width="1" height="1" fill="#602C2C" />
<rect x="121" y="55" width="1" height="1" fill="#602C2C" />
<rect x="122" y="55" width="1" height="1" fill="#602C2C" />
<rect x="123" y="55" width="1" height="1" fill="#602C2C" />
<rect x="124" y="55" width="1" height="1" fill="#EBEDE9" />
<rect x="125" y="55" width="1" height="1" fill="#341C27" />
<rect x="106" y="56" width="1" height="1" fill="#10141F" />
<rect x="107" y="56" width="1" height="1" fill="#151D28" />
<rect x="108" y="56" width="1" height="1" fill="#151D28" />
<rect x="109" y="56" width="1" height="1" fill="#151D28" />
<rect x="110" y="56" width="1" height="1" fill="#10141F" />
<rect x="111" y="56" width="1" height="1" fill="#151D28" />
<rect x="112" y="56" width="1" height="1" fill="#151D28" />
<rect x="113" y="56" width="1" height="1" fill="#10141F" />
<rect x="118" y="56" width="1" height="1" fill="#341C27" />
<rect x="119" y="56" width="1" height="1" fill="#EBEDE9" />
<rect x="120" y="56" width="1" height="1" fill="#602C2C" />
<rect x="121" y="56" width="1" height="1" fill="#602C2C" />
<rect x="122" y="56" width="1" height="1" fill="#602C2C" />
<rect x="123" y="56" width="1" height="1" fill="#EBEDE9" />
<rect x="124" y="56" width="1" height="1" fill="#341C27" />
<rect x="106" y="57" width="1" height="1" fill="#151D28" />
<rect x="107" y="57" width="1" height="1" fill="#151D28" />
<rect x="108" y="57" width="1" height="1" fill="#151D28" />
<rect x="109" y="57" width="1" height="1" fill="#10141F" />
<rect x="110" y="57" width="1" height="1" fill="#10141F" />
<rect x="111" y="57" width="1" height="1" fill="#151D28" />
<rect x="112" y="57" width="1" height="1" fill="#151D28" />
<rect x="113" y="57" width="1" height="1" fill="#10141F" />
<rect x="119" y="57" width="1" height="1" fill="#341C27" />
<rect x="120" y="57" width="1" height="1" fill="#EBEDE9" />
<rect x="121" y="57" width="1" height="1" fill="#EBEDE9" />
<rect x="122" y="57" width="1" height="1" fill="#EBEDE9" />
<rect x="123" y="57" width="1" height="1" fill="#341C27" />
<rect x="106" y="58" width="1" height="1" fill="#151D28" />
<rect x="107" y="58" width="1" height="1" fill="#151D28" />
<rect x="108" y="58" width="1" height="1" fill="#151D28" />
<rect x="109" y="58" width="1" height="1" fill="#10141F" />
<rect x="110" y="58" width="1" height="1" fill="#090A14" />
<rect x="111" y="58" width="1" height="1" fill="#151D28" />
<rect x="112" y="58" width="1" height="1" fill="#151D28" />
<rect x="113" y="58" width="1" height="1" fill="#10141F" />
<rect x="120" y="58" width="1" height="1" fill="#341C27" />
<rect x="121" y="58" width="1" height="1" fill="#341C27" />
<rect x="122" y="58" width="1" height="1" fill="#341C27" />
<rect x="107" y="59" width="1" height="1" fill="#151D28" />
<rect x="108" y="59" width="1" height="1" fill="#151D28" />
<rect x="109" y="59" width="1" height="1" fill="#090A14" />
<rect x="110" y="59" width="1" height="1" fill="#090A14" />
<rect x="111" y="59" width="1" height="1" fill="#151D28" />
<rect x="112" y="59" width="1" height="1" fill="#10141F" />
<rect x="107" y="60" width="1" height="1" fill="#151D28" />
<rect x="108" y="60" width="1" height="1" fill="#151D28" />
<rect x="109" y="60" width="1" height="1" fill="#090A14" />
<rect x="110" y="60" width="1" height="1" fill="#090A14" />
<rect x="111" y="60" width="1" height="1" fill="#151D28" />
<rect x="112" y="60" width="1" height="1" fill="#10141F" />
<rect x="107" y="61" width="1" height="1" fill="#151D28" />
<rect x="108" y="61" width="1" height="1" fill="#602C2C" />
<rect x="110" y="61" width="1" height="1" fill="#090A14" />
<rect x="111" y="61" width="1" height="1" fill="#151D28" />
<rect x="112" y="61" width="1" height="1" fill="#602C2C" />
<rect x="106" y="62" width="1" height="1" fill="#7A4841" />
<rect x="107" y="62" width="1" height="1" fill="#602C2C" />
<rect x="108" y="62" width="1" height="1" fill="#602C2C" />
<rect x="110" y="62" width="1" height="1" fill="#7A4841" />
<rect x="111" y="62" width="1" height="1" fill="#602C2C" />
<rect x="112" y="62" width="1" height="1" fill="#602C2C" />
<rect x="105" y="63" width="1" height="1" fill="#7A4841" />
<rect x="106" y="63" width="1" height="1" fill="#602C2C" />
<rect x="108" y="63" width="1" height="1" fill="#341C27" />
<rect x="109" y="63" width="1" height="1" fill="#7A4841" />
<rect x="110" y="63" width="1" height="1" fill="#602C2C" />
<rect x="112" y="63" width="1" height="1" fill="#341C27" />
</svg>