<?xml version="1.0" encoding="UTF-8" ?>
<svg version="1.1" width="128" height="80" xmlns="http://www.w3.org/2000/svg" shape-rendering="crispEdges">
<rect x="90" y="21" width="1" height="1" fill="#341C27" />
<rect x="91" y="21" width="1" height="1" fill="#341C27" />
<rect x="89" y="22" width="1" height="1" fill="#341C27" />
<rect x="90" y="22" width="1" height="1" fill="#602C2C" />
<rect x="91" y="22" width="1" height="1" fill="#602C2C" />
<rect x="92" y="22" width="1" height="1" fill="#341C27" />
<rect x="88" y="23" width="1" height="1" fill="#341C27" />
<rect x="89" y="23" width="1" height="1" fill="#602C2C" />
<rect x="90" y="23" width="1" height="1" fill="#602C2C" />
<rect x="91" y="23" width="1" height="1" fill="#602C2C" />
<rect x="92" y="23" width="1" height="1" fill="#602C2C" />
<rect x="93" y="23" width="1" height="1" fill="#341C27" />
<rect x="87" y="24" width="1" height="1" fill="#341C27" />
<rect x="88" y="24" width="1" height="1" fill="#602C2C" />
<rect x="89" y="24" width="1" height="1" fill="#602C2C" />
<rect x="90" y="24" width="1" height="1" fill="#602C2C" />
<rect x="91" y="24" width="1" height="1" fill="#602C2C" />
<rect x="92" y="24" width="1" height="1" fill="#EBEDE9" />
<rect x="93" y="24" width="1" height="1" fill="#341C27" />
<rect x="72" y="25" width="1" height="1" fill="#BE772B" />
<rect x="73" y="25" width="1" height="1" fill="#BE772B" />
<rect x="74" y="25" width="1" height="1" fill="#BE772B" />
<rect x="75" y="25" width="1" height="1" fill="#BE772B" />
<rect x="76" y="25" width="1" height="1" fill="#BE772B" />
<rect x="77" y="25" width="1" height="1" fill="#BE772B" />
<rect x="78" y="25" width="1" height="1" fill="#BE772B" />
<rect x="79" y="25" width="1" height="1" fill="#BE772B" />
<rect x="86" y="25" width="1" height="1" fill="#341C27" />
<rect x="87" y="25" width="1" height="1" fill="#EBEDE9" />
<rect x="88" y="25" width="1" height="1" fill="#602C2C" />
<rect x="89" y="25" width="1" height="1" fill="#602C2C" />
<rect x="90" y="25" width="1" height="1" fill="#602C2C" />
<rect x="91" y="25" width="1" height="1" fill="#EBEDE9" />
<rect x="92" y="25" width="1" height="1" fill="#341C27" />
<rect x="70" y="26" width="1" height="1" fill="#DE9E41" />
<rect x="71" y="26" width="1" height="1" fill="#DE9E41" />
<rect x="72" y="26" width="1" height="1" fill="#DE9E41" />
<rect x="73" y="26" width="1" height="1" fill="#DE9E41" />
<rect x="74" y="26" width="1" height="1" fill="#DE9E41" />
<rect x="75" y="26" width="1" height="1" fill="#DE9E41" />
<rect x="76" y="26" width="1" height="1" fill="#DE9E41" />
<rect x="77" y="26" width="1" height="1" fill="#DE9E41" />
<rect x="78" y="26" width="1" height="1" fill="#DE9E41" />
<rect x="79" y="26" width="1" height="1" fill="#DE9E41" />
<rect x="80" y="26" width="1" height="1" fill="#BE772B" />
<rect x="81" y="26" width="1" height="1" fill="#BE772B" />
<rect x="87" y="26" width="1" height="1" fill="#341C27" />
<rect x="88" y="26" width="1" height="1" fill="#EBEDE9" />
<rect x="89" y="26" width="1" height="1" fill="#EBEDE9" />
<rect x="90" y="26" width="1" height="1" fill="#EBEDE9" />
<rect x="91" y="26" width="1" height="1" fill="#341C27" />
<rect x="69" y="27" width="1" height="1" fill="#DE9E41" />
<rect x="70" y="27" width="1" height="1" fill="#DE9E41" />
<rect x="71" y="27" width="1" height="1" fill="#341C27" />
<rect x="72" y="27" width="1" height="1" fill="#341C27" />
<rect x="73" y="27" width="1" height="1" fill="#341C27" />
<rect x="74" y="27" width="1" height="1" fill="#DE9E41" />
<rect x="75" y="27" width="1" height="1" fill="#DE9E41" />
<rect x="76" y="27" width="1" height="1" fill="#DE9E41" />
<rect x="77" y="27" width="1" height="1" fill="#341C27" />
<rect x="78" y="27" width="1" height="1" fill="#341C27" />
<rect x="79" y="27" width="1" height="1" fill="#341C27" />
<rect x="80" y="27" width="1" height="1" fill="#DE9E41" />
<rect x="81" y="27" width="1" height="1" fill="#DE9E41" />
<rect x="82" y="27" width="1" height="1" fill="#BE772B" />
<rect x="88" y="27" width="1" height="1" fill="#341C27" />
<rect x="89" y="27" width="1" height="1" fill="#341C27" />
<rect x="90" y="27" width="1" height="1" fill="#341C27" />
<rect x="68" y="28" width="1" height="1" fill="#DE9E41" />
<rect x="69" y="28" width="1" height="1" fill="#DE9E41" />
<rect x="70" y="28" width="1" height="1" fill="#341C27" />
<rect x="71" y="28" width="1" height="1" fill="#DE9E41" />
<rect x="72" y="28" width="1" height="1" fill="#DE9E41" />
<rect x="73" y="28" width="1" height="1" fill="#E8C170" />
<rect x="74" y="28" width="1" height="1" fill="#341C27" />
<rect x="75" y="28" width="1" height="1" fill="#341C27" />
<rect x="76" y="28" width="1" height="1" fill="#341C27" />
<rect x="77" y="28" width="1" height="1" fill="#E8C170" />
<rect x="78" y="28" width="1" height="1" fill="#E8C170" />
<rect x="79" y="28" width="1" height="1" fill="#DE9E41" />
<rect x="80" y="28" width="1" height="1" fill="#341C27" />
<rect x="81" y="28" width="1" height="1" fill="#341C27" />
<rect x="82" y="28" width="1" height="1" fill="#DE9E41" />
<rect x="83" y="28" width="1" height="1" fill="#BE772B" />
<rect x="67" y="29" width="1" height="1" fill="#DE9E41" />
<rect x="68" y="29" width="1" height="1" fill="#DE9E41" />
<rect x="69" y="29" width="1" height="1" fill="#DE9E41" />
<rect x="70" y="29" width="1" height="1" fill="#341C27" />
<rect x="71" y="29" width="1" height="1" fill="#E7D5B3" />
<rect x="72" y="29" width="1" height="1" fill="#E7D5B3" />
<rect x="73" y="29" width="1" height="1" fill="#E7D5B3" />
<rect x="74" y="29" width="1" height="1" fill="#341C27" />
<rect x="75" y="29" width="1" height="1" fill="#E7D5B3" />
<rect x="76" y="29" width="1" height="1" fill="#341C27" />
<rect x="77" y="29" width="1" height="1" fill="#E7D5B3" />
<rect x="78" y="29" width="1" height="1" fill="#E7D5B3" />
<rect x="79" y="29" width="1" height="1" fill="#E8C170" />
<rect x="80" y="29" width="1" height="1" fill="#341C27" />
<rect x="81" y="29" width="1" height="1" fill="#DE9E41" />
<rect x="82" y="29" width="1" height="1" fill="#DE9E41" />
<rect x="83" y="29" width="1" height="1" fill="#DE9E41" />
<rect x="84" y="29" width="1" height="1" fill="#BE772B" />
<rect x="87" y="29" width="1" height="1" fill="#090A14" />
<rect x="67" y="30" width="1" height="1" fill="#DE9E41" />
<rect x="68" y="30" width="1" height="1" fill="#DE9E41" />
<rect x="69" y="30" width="1" height="1" fill="#C09473" />
<rect x="70" y="30" width="1" height="1" fill="#D7B594" />
<rect x="71" y="30" width="1" height="1" fill="#E7D5B3" />
<rect x="72" y="30" width="1" height="1" fill="#E7D5B3" />
<rect x="73" y="30" width="1" height="1" fill="#E7D5B3" />
<rect x="74" y="30" width="1" height="1" fill="#341C27" />
<rect x="75" y="30" width="1" height="1" fill="#E7D5B3" />
<rect x="76" y="30" width="1" height="1" fill="#341C27" />
<rect x="77" y="30" width="1" height="1" fill="#E7D5B3" />
<rect x="78" y="30" width="1" height="1" fill="#E7D5B3" />
<rect x="79" y="30" width="1" height="1" fill="#E7D5B3" />
<rect x="80" y="30" width="1" height="1" fill="#341C27" />
<rect x="81" y="30" width="1" height="1" fill="#E8C170" />
<rect x="82" y="30" width="1" height="1" fill="#DE9E41" />
<rect x="83" y="30" width="1" height="1" fill="#DE9E41" />
<rect x="84" y="30" width="1" height="1" fill="#BE772B" />
<rect x="87" y="30" width="1" height="1" fill="#10141F" />
<rect x="67" y="31" width="1" height="1" fill="#DE9E41" />
<rect x="68" y="31" width="1" height="1" fill="#C09473" />
<rect x="69" y="31" width="1" height="1" fill="#D7B594" />
<rect x="70" y="31" width="1" height="1" fill="#E7D5B3" />
<rect x="71" y="31" width="1" height="1" fill="#341C27" />
<rect x="72" y="31" width="1" height="1" fill="#341C27" />
<rect x="73" y="31" width="1" height="1" fill="#341C27" />
<rect x="74" y="31" width="1" height="1" fill="#E7D5B3" />
<rect x="75" y="31" width="1" height="1" fill="#E7D5B3" />
<rect x="76" y="31" width="1" height="1" fill="#E7D5B3" />
<rect x="77" y="31" width="1" height="1" fill="#341C27" />
<rect x="78" y="31" width="1" height="1" fill="#341C27" />
<rect x="79" y="31" width="1" height="1" fill="#341C27" />
<rect x="80" y="31" width="1" height="1" fill="#E7D5B3" />
<rect x="81" y="31" width="1" height="1" fill="#E8C170" />
<rect x="82" y="31" width="1" height="1" fill="#DE9E41" />
<rect x="83" y="31" width="1" height="1" fill="#DE9E41" />
<rect x="84" y="31" width="1" height="1" fill="#BE772B" />
<rect x="87" y="31" width="1" height="1" fill="#10141F" />
<rect x="67" y="32" width="1" height="1" fill="#DE9E41" />
<rect x="68" y="32" width="1" height="1" fill="#C09473" />
<rect x="69" y="32" width="1" height="1" fill="#D7B594" />
<rect x="70" y="32" width="1" height="1" fill="#E7D5B3" />
<rect x="71" y="32" width="1" height="1" fill="#E7D5B3" />
<rect x="72" y="32" width="1" height="1" fill="#E7D5B3" />
<rect x="73" y="32" width="1" height="1" fill="#E7D5B3" />
<rect x="74" y="32" width="1" height="1" fill="#E7D5B3" />
<rect x="75" y="32" width="1" height="1" fill="#E7D5B3" />
<rect x="76" y="32" width="1" height="1" fill="#E7D5B3" />
<rect x="77" y="32" width="1" height="1" fill="#E7D5B3" />
<rect x="78" y="32" width="1" height="1" fill="#E7D5B3" />
<rect x="79" y="32" width="1" height="1" fill="#E7D5B3" />
<rect x="80" y="32" width="1" height="1" fill="#E7D5B3" />
<rect x="81" y="32" width="1" height="1" fill="#E7D5B3" />
<rect x="82" y="32" width="1" height="1" fill="#D7B594" />
<rect x="83" y="32" width="1" height="1" fill="#DE9E41" />
<rect x="84" y="32" width="1" height="1" fill="#BE772B" />
<rect x="87" y="32" width="1" height="1" fill="#151D28" />
<rect x="90" y="32" width="1" height="1" fill="#090A14" />
<rect x="67" y="33" width="1" height="1" fill="#151D28" />
<rect x="68" y="33" width="1" height="1" fill="#151D28" />
<rect x="69" y="33" width="1" height="1" fill="#151D28" />
<rect x="70" y="33" width="1" height="1" fill="#E7D5B3" />
<rect x="71" y="33" width="1" height="1" fill="#E7D5B3" />
<rect x="72" y="33" width="1" height="1" fill="#25562E" />
<rect x="73" y="33" width="1" height="1" fill="#25562E" />
<rect x="74" y="33" width="1" height="1" fill="#E7D5B3" />
<rect x="75" y="33" width="1" height="1" fill="#E7D5B3" />
<rect x="76" y="33" width="1" height="1" fill="#E7D5B3" />
<rect x="77" y="33" width="1" height="1" fill="#E7D5B3" />
<rect x="78" y="33" width="1" height="1" fill="#25562E" />
<rect x="79" y="33" width="1" height="1" fill="#25562E" />
<rect x="80" y="33" width="1" height="1" fill="#E7D5B3" />
<rect x="81" y="33" width="1" height="1" fill="#E7D5B3" />
<rect x="82" y="33" width="1" height="1" fill="#D7B594" />
<rect x="83" y="33" width="1" height="1" fill="#DE9E41" />
<rect x="84" y="33" width="1" height="1" fill="#BE772B" />
<rect x="90" y="33" width="1" height="1" fill="#10141F" />
<rect x="67" y="34" width="1" height="1" fill="#151D28" />
<rect x="68" y="34" width="1" height="1" fill="#151D28" />
<rect x="69" y="34" width="1" height="1" fill="#151D28" />
<rect x="70" y="34" width="1" height="1" fill="#E7D5B3" />
<rect x="71" y="34" width="1" height="1" fill="#E7D5B3" />
<rect x="72" y="34" width="1" height="1" fill="#E3D1B0" />
<rect x="73" y="34" width="1" height="1" fill="#19332D" />
<rect x="74" y="34" width="1" height="1" fill="#E7D5B3" />
<rect x="75" y="34" width="1" height="1" fill="#D7B594" />
<rect x="76" y="34" width="1" height="1" fill="#E7D5B3" />
<rect x="77" y="34" width="1" height="1" fill="#E7D5B3" />
<rect x="78" y="34" width="1" height="1" fill="#19332D" />
<rect x="79" y="34" width="1" height="1" fill="#E3D1B0" />
<rect x="80" y="34" width="1" height="1" fill="#E7D5B3" />
<rect x="81" y="34" width="1" height="1" fill="#E7D5B3" />
<rect x="82" y="34" width="1" height="1" fill="#DA863E" />
<rect x="83" y="34" width="1" height="1" fill="#DE9E41" />
<rect x="84" y="34" width="1" height="1" fill="#BE772B" />
<rect x="90" y="34" width="1" height="1" fill="#151D28" />
<rect x="67" y="35" width="1" height="1" fill="#151D28" />
<rect x="68" y="35" width="1" height="1" fill="#151D28" />
<rect x="69" y="35" width="1" height="1" fill="#151D28" />
<rect x="70" y="35" width="1" height="1" fill="#E3D1B0" />
<rect x="71" y="35" width="1" height="1" fill="#E7D5B3" />
<rect x="72" y="35" width="1" height="1" fill="#E7D5B3" />
<rect x="73" y="35" width="1" height="1" fill="#E7D5B3" />
<rect x="74" y="35" width="1" height="1" fill="#E7D5B3" />
<rect x="75" y="35" width="1" height="1" fill="#D7B594" />
<rect x="76" y="35" width="1" height="1" fill="#E7D5B3" />
<rect x="77" y="35" width="1" height="1" fill="#E7D5B3" />
<rect x="78" y="35" width="1" height="1" fill="#E7D5B3" />
<rect x="79" y="35" width="1" height="1" fill="#E7D5B3" />
<rect x="80" y="35" width="1" height="1" fill="#E7D5B3" />
<rect x="81" y="35" width="1" height="1" fill="#E7D5B3" />
<rect x="82" y="35" width="1" height="1" fill="#DE9E41" />
<rect x="83" y="35" width="1" height="1" fill="#DE9E41" />
<rect x="84" y="35" width="1" height="1" fill="#BE772B" />
<rect x="67" y="36" width="1" height="1" fill="#151D28" />
<rect x="68" y="36" width="1" height="1" fill="#151D28" />
<rect x="69" y="36" width="1" height="1" fill="#151D28" />
<rect x="70" y="36" width="1" height="1" fill="#E3D1B0" />
<rect x="71" y="36" width="1" height="1" fill="#E7D5B3" />
<rect x="72" y="36" width="1" height="1" fill="#E7D5B3" />
<rect x="73" y="36" width="1" height="1" fill="#E7D5B3" />
<rect x="74" y="36" width="1" height="1" fill="#E7D5B3" />
<rect x="75" y="36" width="1" height="1" fill="#E7D5B3" />
<rect x="76" y="36" width="1" height="1" fill="#E7D5B3" />
<rect x="77" y="36" width="1" height="1" fill="#E7D5B3" />
<rect x="78" y="36" width="1" height="1" fill="#A53030" />
<rect x="79" y="36" width="1" height="1" fill="#E7D5B3" />
<rect x="80" y="36" width="1" height="1" fill="#E7D5B3" />
<rect x="81" y="36" width="1" height="1" fill="#E3D1B0" />
<rect x="82" y="36" width="1" height="1" fill="#DE9E41" />
<rect x="83" y="36" width="1" height="1" fill="#DE9E41" />
<rect x="84" y="36" width="1" height="1" fill="#BE772B" />
<rect x="87" y="36" width="1" height="1" fill="#D7B594" />
<rect x="88" y="36" width="1" height="1" fill="#D7B594" />
<rect x="67" y="37" width="1" height="1" fill="#151D28" />
<rect x="68" y="37" width="1" height="1" fill="#151D28" />
<rect x="69" y="37" width="1" height="1" fill="#151D28" />
<rect x="70" y="37" width="1" height="1" fill="#DE9E41" />
<rect x="71" y="37" width="1" height="1" fill="#E3D1B0" />
<rect x="72" y="37" width="1" height="1" fill="#E7D5B3" />
<rect x="73" y="37" width="1" height="1" fill="#E7D5B3" />
<rect x="74" y="37" width="1" height="1" fill="#E7D5B3" />
<rect x="75" y="37" width="1" height="1" fill="#E7D5B3" />
<rect x="76" y="37" width="1" height="1" fill="#A53030" />
<rect x="77" y="37" width="1" height="1" fill="#A53030" />
<rect x="78" y="37" width="1" height="1" fill="#E7D5B3" />
<rect x="79" y="37" width="1" height="1" fill="#E7D5B3" />
<rect x="80" y="37" width="1" height="1" fill="#E3D1B0" />
<rect x="81" y="37" width="1" height="1" fill="#DE9E41" />
<rect x="82" y="37" width="1" height="1" fill="#DE9E41" />
<rect x="83" y="37" width="1" height="1" fill="#DE9E41" />
<rect x="84" y="37" width="1" height="1" fill="#BE772B" />
<rect x="86" y="37" width="1" height="1" fill="#D7B594" />
<rect x="87" y="37" width="1" height="1" fill="#E7D5B3" />
<rect x="88" y="37" width="1" height="1" fill="#E7D5B3" />
<rect x="68" y="38" width="1" height="1" fill="#151D28" />
<rect x="69" y="38" width="1" height="1" fill="#151D28" />
<rect x="70" y="38" width="1" height="1" fill="#151D28" />
<rect x="71" y="38" width="1" height="1" fill="#DE9E41" />
<rect x="72" y="38" width="1" height="1" fill="#E3D1B0" />
<rect x="73" y="38" width="1" height="1" fill="#E7D5B3" />
<rect x="74" y="38" width="1" height="1" fill="#E7D5B3" />
<rect x="75" y="38" width="1" height="1" fill="#E7D5B3" />
<rect x="76" y="38" width="1" height="1" fill="#E7D5B3" />
<rect x="77" y="38" width="1" height="1" fill="#E7D5B3" />
<rect x="78" y="38" width="1" height="1" fill="#E7D5B3" />
<rect x="79" y="38" width="1" height="1" fill="#E3D1B0" />
<rect x="80" y="38" width="1" height="1" fill="#DE9E41" />
<rect x="81" y="38" width="1" height="1" fill="#DE9E41" />
<rect x="82" y="38" width="1" height="1" fill="#DE9E41" />
<rect x="83" y="38" width="1" height="1" fill="#BE772B" />
<rect x="87" y="38" width="1" height="1" fill="#E7D5B3" />
<rect x="88" y="38" width="1" height="1" fill="#E7D5B3" />
<rect x="68" y="39" width="1" height="1" fill="#151D28" />
<rect x="69" y="39" width="1" height="1" fill="#151D28" />
<rect x="70" y="39" width="1" height="1" fill="#151D28" />
<rect x="71" y="39" width="1" height="1" fill="#DE9E41" />
<rect x="72" y="39" width="1" height="1" fill="#DE9E41" />
<rect x="73" y="39" width="1" height="1" fill="#DE9E41" />
<rect x="74" y="39" width="1" height="1" fill="#E3D1B0" />
<rect x="75" y="39" width="1" height="1" fill="#E3D1B0" />
<rect x="76" y="39" width="1" height="1" fill="#E3D1B0" />
<rect x="77" y="39" width="1" height="1" fill="#E3D1B0" />
<rect x="78" y="39" width="1" height="1" fill="#DE9E41" />
<rect x="79" y="39" width="1" height="1" fill="#DE9E41" />
<rect x="80" y="39" width="1" height="1" fill="#DE9E41" />
<rect x="81" y="39" width="1" height="1" fill="#DE9E41" />
<rect x="82" y="39" width="1" height="1" fill="#DE9E41" />
<rect x="87" y="39" width="1" height="1" fill="#151D28" />
<rect x="88" y="39" width="1" height="1" fill="#151D28" />
<rect x="68" y="40" width="1" height="1" fill="#151D28" />
<rect x="69" y="40" width="1" height="1" fill="#151D28" />
<rect x="70" y="40" width="1" height="1" fill="#151D28" />
<rect x="71" y="40" width="1" height="1" fill="#DE9E41" />
<rect x="72" y="40" width="1" height="1" fill="#DE9E41" />
<rect x="74" y="40" width="1" height="1" fill="#752438" />
<rect x="75" y="40" width="1" height="1" fill="#D7B594" />
<rect x="76" y="40" width="1" height="1" fill="#D7B594" />
<rect x="77" y="40" width="1" height="1" fill="#752438" />
<rect x="79" y="40" width="1" height="1" fill="#DE9E41" />
<rect x="80" y="40" width="1" height="1" fill="#DE9E41" />
<rect x="81" y="40" width="1" height="1" fill="#DE9E41" />
<rect x="86" y="40" width="1" height="1" fill="#151D28" />
<rect x="87" y="40" width="1" height="1" fill="#151D28" />
<rect x="88" y="40" width="1" height="1" fill="#151D28" />
<rect x="69" y="41" width="1" height="1" fill="#10141F" />
<rect x="70" y="41" width="1" height="1" fill="#151D28" />
<rect x="71" y="41" width="1" height="1" fill="#151D28" />
<rect x="73" y="41" width="1" height="1" fill="#EBEDE9" />
<rect x="74" y="41" width="1" height="1" fill="#EBEDE9" />
<rect x="75" y="41" width="1" height="1" fill="#A53030" />
<rect x="76" y="41" width="1" height="1" fill="#A53030" />
<rect x="77" y="41" width="1" height="1" fill="#EBEDE9" />
<rect x="78" y="41" width="1" height="1" fill="#EBEDE9" />
<rect x="85" y="41" width="1" height="1" fill="#151D28" />
<rect x="86" y="41" width="1" height="1" fill="#151D28" />
<rect x="87" y="41" width="1" height="1" fill="#151D28" />
<rect x="88" y="41" width="1" height="1" fill="#10141F" />
<rect x="69" y="42" width="1" height="1" fill="#10141F" />
<rect x="70" y="42" width="1" height="1" fill="#151D28" />
<rect x="71" y="42" width="1" height="1" fill="#151D28" />
<rect x="72" y="42" width="1" height="1" fill="#090A14" />
<rect x="73" y="42" width="1" height="1" fill="#090A14" />
<rect x="74" y="42" width="1" height="1" fill="#EBEDE9" />
<rect x="75" y="42" width="1" height="1" fill="#A53030" />
<rect x="76" y="42" width="1" height="1" fill="#A53030" />
<rect x="77" y="42" width="1" height="1" fill="#EBEDE9" />
<rect x="78" y="42" width="1" height="1" fill="#EBEDE9" />
<rect x="79" y="42" width="1" height="1" fill="#090A14" />
<rect x="80" y="42" width="1" height="1" fill="#151D28" />
<rect x="83" y="42" width="1" height="1" fill="#151D28" />
<rect x="84" y="42" width="1" height="1" fill="#151D28" />
<rect x="85" y="42" width="1" height="1" fill="#151D28" />
<rect x="86" y="42" width="1" height="1" fill="#151D28" />
<rect x="87" y="42" width="1" height="1" fill="#10141F" />
<rect x="69" y="43" width="1" height="1" fill="#10141F" />
<rect x="70" y="43" width="1" height="1" fill="#151D28" />
<rect x="71" y="43" width="1" height="1" fill="#151D28" />
<rect x="72" y="43" width="1" height="1" fill="#151D28" />
<rect x="73" y="43" width="1" height="1" fill="#090A14" />
<rect x="74" y="43" width="1" height="1" fill="#C7CFCC" />
<rect x="75" y="43" width="1" height="1" fill="#A53030" />
<rect x="76" y="43" width="1" height="1" fill="#A53030" />
<rect x="77" y="43" width="1" height="1" fill="#EBEDE9" />
<rect x="78" y="43" width="1" height="1" fill="#090A14" />
<rect x="79" y="43" width="1" height="1" fill="#090A14" />
<rect x="80" y="43" width="1" height="1" fill="#151D28" />
<rect x="81" y="43" width="1" height="1" fill="#151D28" />
<rect x="82" y="43" width="1" height="1" fill="#151D28" />
<rect x="83" y="43" width="1" height="1" fill="#151D28" />
<rect x="84" y="43" width="1" height="1" fill="#151D28" />
<rect x="85" y="43" width="1" height="1" fill="#151D28" />
<rect x="86" y="43" width="1" height="1" fill="#10141F" />
<rect x="70" y="44" width="1" height="1" fill="#10141F" />
<rect x="71" y="44" width="1" height="1" fill="#151D28" />
<rect x="72" y="44" width="1" height="1" fill="#151D28" />
<rect x="73" y="44" width="1" height="1" fill="#090A14" />
<rect x="74" y="44" width="1" height="1" fill="#090A14" />
<rect x="75" y="44" width="1" height="1" fill="#752438" />
<rect x="76" y="44" width="1" height="1" fill="#A53030" />
<rect x="77" y="44" width="1" height="1" fill="#C7CFCC" />
<rect x="78" y="44" width="1" height="1" fill="#090A14" />
<rect x="79" y="44" width="1" height="1" fill="#151D28" />
<rect x="80" y="44" width="1" height="1" fill="#151D28" />
<rect x="81" y="44" width="1" height="1" fill="#151D28" />
<rect x="82" y="44" width="1" height="1" fill="#151D28" />
<rect x="83" y="44" width="1" height="1" fill="#151D28" />
<rect x="84" y="44" width="1" height="1" fill="#10141F" />
<rect x="85" y="44" width="1" height="1" fill="#10141F" />
<rect x="70" y="45" width="1" height="1" fill="#10141F" />
<rect x="71" y="45" width="1" height="1" fill="#151D28" />
<rect x="72" y="45" width="1" height="1" fill="#151D28" />
<rect x="73" y="45" width="1" height="1" fill="#151D28" />
<rect x="74" y="45" width="1" height="1" fill="#090A14" />
<rect x="75" y="45" width="1" height="1" fill="#411D31" />
<rect x="76" y="45" width="1" height="1" fill="#752438" />
<rect x="77" y="45" width="1" height="1" fill="#090A14" />
<rect x="78" y="45" width="1" height="1" fill="#090A14" />
<rect x="79" y="45" width="1" height="1" fill="#151D28" />
<rect x="80" y="45" width="1" height="1" fill="#151D28" />
<rect x="81" y="45" width="1" height="1" fill="#151D28" />
<rect x="82" y="45" width="1" height="1" fill="#10141F" />
<rect x="83" y="45" width="1" height="1" fill="#10141F" />
<rect x="70" y="46" width="1" height="1" fill="#10141F" />
<rect x="71" y="46" width="1" height="1" fill="#151D28" />
<rect x="72" y="46" width="1" height="1" fill="#151D28" />
<rect x="73" y="46" width="1" height="1" fill="#151D28" />
<rect x="74" y="46" width="1" height="1" fill="#090A14" />
<rect x="75" y="46" width="1" height="1" fill="#090A14" />
<rect x="76" y="46" width="1" height="1" fill="#411D31" />
<rect x="77" y="46" width="1" height="1" fill="#090A14" />
<rect x="78" y="46" width="1" height="1" fill="#151D28" />
<rect x="79" y="46" width="1" height="1" fill="#151D28" />
<rect x="80" y="46" width="1" height="1" fill="#151D28" />
<rect x="81" y="46" width="1" height="1" fill="#10141F" />
<rect x="71" y="47" width="1" height="1" fill="#151D28" />
<rect x="72" y="47" width="1" height="1" fill="#151D28" />
<rect x="73" y="47" width="1" height="1" fill="#151D28" />
<rect x="74" y="47" width="1" height="1" fill="#151D28" />
<rect x="75" y="47" width="1" height="1" fill="#090A14" />
<rect x="76" y="47" width="1" height="1" fill="#090A14" />
<rect x="77" y="47" width="1" height="1" fill="#090A14" />
<rect x="78" y="47" width="1" height="1" fill="#151D28" />
<rect x="79" y="47" width="1" height="1" fill="#151D28" />
<rect x="80" y="47" width="1" height="1" fill="#151D28" />
<rect x="71" y="48" width="1" height="1" fill="#10141F" />
<rect x="72" y="48" width="1" height="1" fill="#151D28" />
<rect x="73" y="48" width="1" height="1" fill="#151D28" />
<rect x="74" y="48" width="1" height="1" fill="#151D28" />
<rect x="75" y="48" width="1" height="1" fill="#151D28" />
<rect x="76" y="48" width="1" height="1" fill="#090A14" />
<rect x="77" y="48" width="1" height="1" fill="#151D28" />
<rect x="78" y="48" width="1" height="1" fill="#151D28" />
<rect x="79" y="48" width="1" height="1" fill="#151D28" />
<rect x="80" y="48" width="1" height="1" fill="#10141F" />
<rect x="72" y="49" width="1" height="1" fill="#10141F" />
<rect x="73" y="49" width="1" height="1" fill="#10141F" />
<rect x="74" y="49" width="1" height="1" fill="#151D28" />
<rect x="75" y="49" width="1" height="1" fill="#151D28" />
<rect x="76" y="49" width="1" height="1" fill="#151D28" />
<rect x="77" y="49" width="1" height="1" fill="#151D28" />
<rect x="78" y="49" width="1" height="1" fill="#10141F" />
<rect x="79" y="49" width="1" height="1" fill="#10141F" />
<rect x="73" y="50" width="1" height="1" fill="#10141F" />
<rect x="74" y="50" width="1" height="1" fill="#151D28" />
<rect x="75" y="50" width="1" height="1" fill="#151D28" />
<rect x="76" y="50" width="1" height="1" fill="#151D28" />
<rect x="77" y="50" width="1" height="1" fill="#151D28" />
<rect x="78" y="50" width="1" height="1" fill="#10141F" />
<rect x="72" y="51" width="1" height="1" fill="#10141F" />
<rect x="73" y="51" width="1" height="1" fill="#10141F" />
<rect x="74" y="51" width="1" height="1" fill="#151D28" />
<rect x="75" y="51" width="1" height="1" fill="#151D28" />
<rect x="76" y="51" width="1" height="1" fill="#151D28" />
<rect x="77" y="51" width="1" height="1" fill="#151D28" />
<rect x="78" y="51" width="1" height="1" fill="#10141F" />
<rect x="79" y="51" width="1" height="1" fill="#10141F" />
<rect x="71" y="52" width="1" height="1" fill="#151D28" />
<rect x="72" y="52" width="1" height="1" fill="#151D28" />
<rect x="73" y="52" width="1" height="1" fill="#151D28" />
<rect x="74" y="52" width="1" height="1" fill="#151D28" />
<rect x="75" y="52" width="1" height="1" fill="#151D28" />
<rect x="76" y="52" width="1" height="1" fill="#151D28" />
<rect x="77" y="52" width="1" height="1" fill="#151D28" />
<rect x="78" y="52" width="1" height="1" fill="#151D28" />
<rect x="79" y="52" width="1" height="1" fill="#151D28" />
<rect x="80" y="52" width="1" height="1" fill="#151D28" />
<rect x="71" y="53" width="1" height="1" fill="#151D28" />
<rect x="72" y="53" width="1" height="1" fill="#151D28" />
<rect x="73" y="53" width="1" height="1" fill="#151D28" />
<rect x="74" y="53" width="1" height="1" fill="#151D28" />
<rect x="75" y="53" width="1" height="1" fill="#151D28" />
<rect x="76" y="53" width="1" height="1" fill="#151D28" />
<rect x="77" y="53" width="1" height="1" fill="#151D28" />
<rect x="78" y="53" width="1" height="1" fill="#151D28" />
<rect x="79" y="53" width="1" height="1" fill="#151D28" />
<rect x="80" y="53" width="1" height="1" fill="#151D28" />
<rect x="71" y="54" width="1" height="1" fill="#151D28" />
<rect x="72" y="54" width="1" height="1" fill="#151D28" />
<rect x="73" y="54" width="1" height="1" fill="#151D28" />
<rect x="74" y="54" width="1" height="1" fill="#151D28" />
<rect x="75" y="54" width="1" height="1" fill="#151D28" />
<rect x="76" y="54" width="1" height="1" fill="#151D28" />
<rect x="77" y="54" width="1" height="1" fill="#151D28" />
<rect x="78" y="54" width="1" height="1" fill="#151D28" />
<rect x="79" y="54" width="1" height="1" fill="#151D28" />
<rect x="80" y="54" width="1" height="1" fill="#151D28" />
<rect x="71" y="55" width="1" height="1" fill="#10141F" />
<rect x="72" y="55" width="1" height="1" fill="#151D28" />
<rect x="73" y="55" width="1" height="1" fill="#151D28" />
<rect x="74" y="55" width="1" height="1" fill="#151D28" />
<rect x="75" y="55" width="1" height="1" fill="#151D28" />
<rect x="76" y="55" width="1" height="1" fill="#10141F" />
<rect x="77" y="55" width="1" height="1" fill="#151D28" />
<rect x="78" y="55" width="1" height="1" fill="#151D28" />
<rect x="79" y="55" width="1" height="1" fill="#151D28" />
<rect x="80" y="55" width="1" height="1" fill="#10141F" />
<rect x="72" y="56" width="1" height="1" fill="#10141F" />
<rect x="73" y="56" width="1" height="1" fill="#151D28" />
<rect x="74" y="56" width="1" height="1" fill="#151D28" />
<rect x="75" y="56" width="1" height="1" fill="#151D28" />
<rect x="76" y="56" width="1" height="1" fill="#10141F" />
<rect x="77" y="56" width="1" height="1" fill="#151D28" />
<rect x="78" y="56" width="1" height="1" fill="#151D28" />
<rect x="79" y="56" width="1" height="1" fill="#10141F" />
<rect x="72" y="57" width="1" height="1" fill="#151D28" />
<rect x="73" y="57" width="1" height="1" fill="#151D28" />
<rect x="74" y="57" width="1" height="1" fill="#151D28" />
<rect x="75" y="57" width="1" height="1" fill="#10141F" />
<rect x="76" y="57" width="1" height="1" fill="#10141F" />
<rect x="77" y="57" width="1" height="1" fill="#151D28" />
<rect x="78" y="57" width="1" height="1" fill="#151D28" />
<rect x="79" y="57" width="1" height="1" fill="#10141F" />
<rect x="73" y="58" width="1" height="1" fill="#151D28" />
<rect x="74" y="58" width="1" height="1" fill="#151D28" />
<rect x="75" y="58" width="1" height="1" fill="#10141F" />
<rect x="76" y="58" width="1" height="1" fill="#090A14" />
<rect x="77" y="58" width="1" height="1" fill="#151D28" />
<rect x="78" y="58" width="1" height="1" fill="#151D28" />
<rect x="79" y="58" width="1" height="1" fill="#10141F" />
<rect x="73" y="59" width="1" height="1" fill="#151D28" />
<rect x="74" y="59" width="1" height="1" fill="#151D28" />
<rect x="75" y="59" width="1" height="1" fill="#090A14" />
<rect x="76" y="59" width="1" height="1" fill="#090A14" />
<rect x="77" y="59" width="1" height="1" fill="#151D28" />
<rect x="78" y="59" width="1" height="1" fill="#10141F" />
<rect x="73" y="60" width="1" height="1" fill="#151D28" />
<rect x="74" y="60" width="1" height="1" fill="#151D28" />
<rect x="75" y="60" width="1" height="1" fill="#090A14" />
<rect x="76" y="60" width="1" height="1" fill="#090A14" />
<rect x="77" y="60" width="1" height="1" fill="#151D28" />
<rect x="78" y="60" width="1" height="1" fill="#10141F" />
<rect x="73" y="61" width="1" height="1" fill="#151D28" />
<rect x="74" y="61" width="1" height="1" fill="#602C2C" />
<rect x="76" y="61" width="1" height="1" fill="#090A14" />
<rect x="77" y="61" width="1" height="1" fill="#151D28" />
<rect x="78" y="61" width="1" height="1" fill="#602C2C" />
<rect x="72" y="62" width="1" height="1" fill="#7A4841" />
<rect x="73" y="62" width="1" height="1" fill="#602C2C" />
<rect x="74" y="62" width="1" height="1" fill="#602C2C" />
<rect x="76" y="62" width="1" height="1" fill="#7A4841" />
<rect x="77" y="62" width="1" height="1" fill="#602C2C" />
<rect x="78" y="62" width="1" height="1" fill="#602C2C" />
<rect x="71" y="63" width="1" height="1" fill="#7A4841" />
<rect x="72" y="63" width="1" height="1" fill="#602C2C" />
<rect x="74" y="63" width="1" height="1" fill="#341C27" />
<rect x="75" y="63" width="1" height="1" fill="#7A4841" />
<rect x="76" y="63" width="1" height="1" fill="#602C2C" />
<rect x="78" y="63" width="1" height="1" fill="#341C27" />
</svg>