<?xml version="1.0" encoding="UTF-8" ?>
<svg version="1.1" width="128" height="96" xmlns="http://www.w3.org/2000/svg" shape-rendering="crispEdges">
<rect x="70" y="44" width="1" height="1" fill="#201114" />
<rect x="71" y="44" width="1" height="1" fill="#E7D5B3" />
<rect x="72" y="44" width="1" height="1" fill="#E7D5B3" />
<rect x="73" y="44" width="1" height="1" fill="#E7D5B3" />
<rect x="74" y="44" width="1" height="1" fill="#E7D5B3" />
<rect x="75" y="44" width="1" height="1" fill="#E7D5B3" />
<rect x="76" y="44" width="1" height="1" fill="#E7D5B3" />
<rect x="77" y="44" width="1" height="1" fill="#E7D5B3" />
<rect x="78" y="44" width="1" height="1" fill="#E7D5B3" />
<rect x="79" y="44" width="1" height="1" fill="#201114" />
<rect x="70" y="45" width="1" height="1" fill="#201114" />
<rect x="71" y="45" width="1" height="1" fill="#E7D5B3" />
<rect x="72" y="45" width="1" height="1" fill="#E7D5B3" />
<rect x="73" y="45" width="1" height="1" fill="#E7D5B3" />
<rect x="74" y="45" width="1" height="1" fill="#E7D5B3" />
<rect x="75" y="45" width="1" height="1" fill="#E7D5B3" />
<rect x="76" y="45" width="1" height="1" fill="#E7D5B3" />
<rect x="77" y="45" width="1" height="1" fill="#E7D5B3" />
<rect x="78" y="45" width="1" height="1" fill="#E7D5B3" />
<rect x="79" y="45" width="1" height="1" fill="#201114" />
<rect x="69" y="46" width="1" height="1" fill="#201114" />
<rect x="70" y="46" width="1" height="1" fill="#201114" />
<rect x="71" y="46" width="1" height="1" fill="#E7D5B3" />
<rect x="72" y="46" width="1" height="1" fill="#E7D5B3" />
<rect x="73" y="46" width="1" height="1" fill="#E7D5B3" />
<rect x="74" y="46" width="1" height="1" fill="#E7D5B3" />
<rect x="75" y="46" width="1" height="1" fill="#E7D5B3" />
<rect x="76" y="46" width="1" height="1" fill="#E7D5B3" />
<rect x="77" y="46" width="1" height="1" fill="#E7D5B3" />
<rect x="78" y="46" width="1" height="1" fill="#E7D5B3" />
<rect x="79" y="46" width="1" height="1" fill="#201114" />
<rect x="80" y="46" width="1" height="1" fill="#201114" />
<rect x="69" y="47" width="1" height="1" fill="#201114" />
<rect x="70" y="47" width="1" height="1" fill="#201114" />
<rect x="71" y="47" width="1" height="1" fill="#E7D5B3" />
<rect x="72" y="47" width="1" height="1" fill="#E7D5B3" />
<rect x="73" y="47" width="1" height="1" fill="#E7D5B3" />
<rect x="74" y="47" width="1" height="1" fill="#E7D5B3" />
<rect x="75" y="47" width="1" height="1" fill="#E7D5B3" />
<rect x="76" y="47" width="1" height="1" fill="#E7D5B3" />
<rect x="77" y="47" width="1" height="1" fill="#E7D5B3" />
<rect x="78" y="47" width="1" height="1" fill="#E7D5B3" />
<rect x="79" y="47" width="1" height="1" fill="#201114" />
<rect x="80" y="47" width="1" height="1" fill="#201114" />
<rect x="69" y="48" width="1" height="1" fill="#201114" />
<rect x="70" y="48" width="1" height="1" fill="#E7D5B3" />
<rect x="71" y="48" width="1" height="1" fill="#E7D5B3" />
<rect x="72" y="48" width="1" height="1" fill="#E7D5B3" />
<rect x="73" y="48" width="1" height="1" fill="#E7D5B3" />
<rect x="74" y="48" width="1" height="1" fill="#E7D5B3" />
<rect x="75" y="48" width="1" height="1" fill="#E7D5B3" />
<rect x="76" y="48" width="1" height="1" fill="#E7D5B3" />
<rect x="77" y="48" width="1" height="1" fill="#E7D5B3" />
<rect x="78" y="48" width="1" height="1" fill="#E7D5B3" />
<rect x="79" y="48" width="1" height="1" fill="#E7D5B3" />
<rect x="80" y="48" width="1" height="1" fill="#201114" />
<rect x="69" y="49" width="1" height="1" fill="#201114" />
<rect x="70" y="49" width="1" height="1" fill="#E7D5B3" />
<rect x="71" y="49" width="1" height="1" fill="#0A1018" />
<rect x="72" y="49" width="1" height="1" fill="#E7D5B3" />
<rect x="73" y="49" width="1" height="1" fill="#E7D5B3" />
<rect x="74" y="49" width="1" height="1" fill="#E7D5B3" />
<rect x="75" y="49" width="1" height="1" fill="#E7D5B3" />
<rect x="76" y="49" width="1" height="1" fill="#0A1018" />
<rect x="77" y="49" width="1" height="1" fill="#E7D5B3" />
<rect x="78" y="49" width="1" height="1" fill="#E7D5B3" />
<rect x="79" y="49" width="1" height="1" fill="#E7D5B3" />
<rect x="80" y="49" width="1" height="1" fill="#201114" />
<rect x="69" y="50" width="1" height="1" fill="#C09473" />
<rect x="70" y="50" width="1" height="1" fill="#E7D5B3" />
<rect x="71" y="50" width="1" height="1" fill="#E7D5B3" />
<rect x="72" y="50" width="1" height="1" fill="#E7D5B3" />
<rect x="73" y="50" width="1" height="1" fill="#E7D5B3" />
<rect x="74" y="50" width="1" height="1" fill="#E7D5B3" />
<rect x="75" y="50" width="1" height="1" fill="#E7D5B3" />
<rect x="76" y="50" width="1" height="1" fill="#E7D5B3" />
<rect x="77" y="50" width="1" height="1" fill="#E7D5B3" />
<rect x="78" y="50" width="1" height="1" fill="#E7D5B3" />
<rect x="79" y="50" width="1" height="1" fill="#E7D5B3" />
<rect x="80" y="50" width="1" height="1" fill="#C09473" />
<rect x="69" y="51" width="1" height="1" fill="#E7D5B3" />
<rect x="70" y="51" width="1" height="1" fill="#E7D5B3" />
<rect x="71" y="51" width="1" height="1" fill="#E7D5B3" />
<rect x="72" y="51" width="1" height="1" fill="#C09473" />
<rect x="73" y="51" width="1" height="1" fill="#E7D5B3" />
<rect x="74" y="51" width="1" height="1" fill="#C09473" />
<rect x="75" y="51" width="1" height="1" fill="#E7D5B3" />
<rect x="76" y="51" width="1" height="1" fill="#E7D5B3" />
<rect x="77" y="51" width="1" height="1" fill="#E7D5B3" />
<rect x="78" y="51" width="1" height="1" fill="#E7D5B3" />
<rect x="79" y="51" width="1" height="1" fill="#E7D5B3" />
<rect x="80" y="51" width="1" height="1" fill="#E7D5B3" />
<rect x="70" y="52" width="1" height="1" fill="#E7D5B3" />
<rect x="71" y="52" width="1" height="1" fill="#E7D5B3" />
<rect x="72" y="52" width="1" height="1" fill="#C09473" />
<rect x="73" y="52" width="1" height="1" fill="#C09473" />
<rect x="74" y="52" width="1" height="1" fill="#C09473" />
<rect x="75" y="52" width="1" height="1" fill="#E7D5B3" />
<rect x="76" y="52" width="1" height="1" fill="#E7D5B3" />
<rect x="77" y="52" width="1" height="1" fill="#E7D5B3" />
<rect x="78" y="52" width="1" height="1" fill="#E7D5B3" />
<rect x="79" y="52" width="1" height="1" fill="#E7D5B3" />
<rect x="70" y="53" width="1" height="1" fill="#E7D5B3" />
<rect x="71" y="53" width="1" height="1" fill="#E7D5B3" />
<rect x="72" y="53" width="1" height="1" fill="#E7D5B3" />
<rect x="73" y="53" width="1" height="1" fill="#E7D5B3" />
<rect x="74" y="53" width="1" height="1" fill="#E7D5B3" />
<rect x="75" y="53" width="1" height="1" fill="#E7D5B3" />
<rect x="76" y="53" width="1" height="1" fill="#E7D5B3" />
<rect x="77" y="53" width="1" height="1" fill="#E7D5B3" />
<rect x="78" y="53" width="1" height="1" fill="#E7D5B3" />
<rect x="61" y="54" width="1" height="1" fill="#E7D5B3" />
<rect x="72" y="54" width="1" height="1" fill="#E7D5B3" />
<rect x="73" y="54" width="1" height="1" fill="#E7D5B3" />
<rect x="74" y="54" width="1" height="1" fill="#E7D5B3" />
<rect x="75" y="54" width="1" height="1" fill="#E7D5B3" />
<rect x="76" y="54" width="1" height="1" fill="#E7D5B3" />
<rect x="88" y="54" width="1" height="1" fill="#E7D5B3" />
<rect x="60" y="55" width="1" height="1" fill="#E7D5B3" />
<rect x="61" y="55" width="1" height="1" fill="#E7D5B3" />
<rect x="62" y="55" width="1" height="1" fill="#FFFFFF" />
<rect x="63" y="55" width="1" height="1" fill="#201611" />
<rect x="64" y="55" width="1" height="1" fill="#201611" />
<rect x="65" y="55" width="1" height="1" fill="#201611" />
<rect x="66" y="55" width="1" height="1" fill="#201611" />
<rect x="67" y="55" width="1" height="1" fill="#201611" />
<rect x="68" y="55" width="1" height="1" fill="#201611" />
<rect x="69" y="55" width="1" height="1" fill="#201611" />
<rect x="70" y="55" width="1" height="1" fill="#201611" />
<rect x="71" y="55" width="1" height="1" fill="#201611" />
<rect x="72" y="55" width="1" height="1" fill="#201611" />
<rect x="73" y="55" width="1" height="1" fill="#E7D5B3" />
<rect x="74" y="55" width="1" height="1" fill="#E7D5B3" />
<rect x="75" y="55" width="1" height="1" fill="#E7D5B3" />
<rect x="76" y="55" width="1" height="1" fill="#201611" />
<rect x="77" y="55" width="1" height="1" fill="#201611" />
<rect x="78" y="55" width="1" height="1" fill="#201611" />
<rect x="79" y="55" width="1" height="1" fill="#201611" />
<rect x="80" y="55" width="1" height="1" fill="#201611" />
<rect x="81" y="55" width="1" height="1" fill="#201611" />
<rect x="82" y="55" width="1" height="1" fill="#201611" />
<rect x="83" y="55" width="1" height="1" fill="#201611" />
<rect x="84" y="55" width="1" height="1" fill="#201611" />
<rect x="85" y="55" width="1" height="1" fill="#201611" />
<rect x="86" y="55" width="1" height="1" fill="#201611" />
<rect x="87" y="55" width="1" height="1" fill="#201611" />
<rect x="88" y="55" width="1" height="1" fill="#E7D5B3" />
<rect x="89" y="55" width="1" height="1" fill="#E7D5B3" />
<rect x="60" y="56" width="1" height="1" fill="#E7D5B3" />
<rect x="61" y="56" width="1" height="1" fill="#E7D5B3" />
<rect x="62" y="56" width="1" height="1" fill="#000000" />
<rect x="63" y="56" width="1" height="1" fill="#201611" />
<rect x="64" y="56" width="1" height="1" fill="#201611" />
<rect x="65" y="56" width="1" height="1" fill="#201611" />
<rect x="66" y="56" width="1" height="1" fill="#201611" />
<rect x="67" y="56" width="1" height="1" fill="#201611" />
<rect x="68" y="56" width="1" height="1" fill="#201611" />
<rect x="69" y="56" width="1" height="1" fill="#201611" />
<rect x="70" y="56" width="1" height="1" fill="#201611" />
<rect x="71" y="56" width="1" height="1" fill="#201611" />
<rect x="72" y="56" width="1" height="1" fill="#201611" />
<rect x="73" y="56" width="1" height="1" fill="#201611" />
<rect x="74" y="56" width="1" height="1" fill="#201611" />
<rect x="75" y="56" width="1" height="1" fill="#201611" />
<rect x="76" y="56" width="1" height="1" fill="#201611" />
<rect x="77" y="56" width="1" height="1" fill="#201611" />
<rect x="78" y="56" width="1" height="1" fill="#201611" />
<rect x="79" y="56" width="1" height="1" fill="#201611" />
<rect x="80" y="56" width="1" height="1" fill="#201611" />
<rect x="81" y="56" width="1" height="1" fill="#201611" />
<rect x="82" y="56" width="1" height="1" fill="#201611" />
<rect x="83" y="56" width="1" height="1" fill="#201611" />
<rect x="84" y="56" width="1" height="1" fill="#201611" />
<rect x="85" y="56" width="1" height="1" fill="#18120E" />
<rect x="86" y="56" width="1" height="1" fill="#18120E" />
<rect x="87" y="56" width="1" height="1" fill="#18120E" />
<rect x="88" y="56" width="1" height="1" fill="#E7D5B3" />
<rect x="89" y="56" width="1" height="1" fill="#E7D5B3" />
<rect x="65" y="57" width="1" height="1" fill="#201611" />
<rect x="66" y="57" width="1" height="1" fill="#201611" />
<rect x="67" y="57" width="1" height="1" fill="#201611" />
<rect x="68" y="57" width="1" height="1" fill="#201611" />
<rect x="69" y="57" width="1" height="1" fill="#201611" />
<rect x="70" y="57" width="1" height="1" fill="#201611" />
<rect x="71" y="57" width="1" height="1" fill="#201611" />
<rect x="72" y="57" width="1" height="1" fill="#201611" />
<rect x="73" y="57" width="1" height="1" fill="#201611" />
<rect x="74" y="57" width="1" height="1" fill="#201611" />
<rect x="75" y="57" width="1" height="1" fill="#201611" />
<rect x="76" y="57" width="1" height="1" fill="#201611" />
<rect x="77" y="57" width="1" height="1" fill="#201611" />
<rect x="78" y="57" width="1" height="1" fill="#201611" />
<rect x="79" y="57" width="1" height="1" fill="#201611" />
<rect x="80" y="57" width="1" height="1" fill="#201611" />
<rect x="81" y="57" width="1" height="1" fill="#201611" />
<rect x="82" y="57" width="1" height="1" fill="#18120E" />
<rect x="83" y="57" width="1" height="1" fill="#18120E" />
<rect x="84" y="57" width="1" height="1" fill="#18120E" />
<rect x="66" y="58" width="1" height="1" fill="#18120E" />
<rect x="67" y="58" width="1" height="1" fill="#18120E" />
<rect x="68" y="58" width="1" height="1" fill="#18120E" />
<rect x="69" y="58" width="1" height="1" fill="#18120E" />
<rect x="70" y="58" width="1" height="1" fill="#201611" />
<rect x="71" y="58" width="1" height="1" fill="#201611" />
<rect x="72" y="58" width="1" height="1" fill="#201611" />
<rect x="73" y="58" width="1" height="1" fill="#201611" />
<rect x="74" y="58" width="1" height="1" fill="#201611" />
<rect x="75" y="58" width="1" height="1" fill="#201611" />
<rect x="76" y="58" width="1" height="1" fill="#201611" />
<rect x="77" y="58" width="1" height="1" fill="#201611" />
<rect x="78" y="58" width="1" height="1" fill="#201611" />
<rect x="79" y="58" width="1" height="1" fill="#201611" />
<rect x="80" y="58" width="1" height="1" fill="#18120E" />
<rect x="81" y="58" width="1" height="1" fill="#18120E" />
<rect x="69" y="59" width="1" height="1" fill="#18120E" />
<rect x="70" y="59" width="1" height="1" fill="#201611" />
<rect x="71" y="59" width="1" height="1" fill="#201611" />
<rect x="72" y="59" width="1" height="1" fill="#201611" />
<rect x="73" y="59" width="1" height="1" fill="#201611" />
<rect x="74" y="59" width="1" height="1" fill="#201611" />
<rect x="75" y="59" width="1" height="1" fill="#201611" />
<rect x="76" y="59" width="1" height="1" fill="#201611" />
<rect x="77" y="59" width="1" height="1" fill="#201611" />
<rect x="78" y="59" width="1" height="1" fill="#201611" />
<rect x="79" y="59" width="1" height="1" fill="#201611" />
<rect x="68" y="60" width="1" height="1" fill="#18120E" />
<rect x="69" y="60" width="1" height="1" fill="#201611" />
<rect x="70" y="60" width="1" height="1" fill="#201611" />
<rect x="71" y="60" width="1" height="1" fill="#201611" />
<rect x="72" y="60" width="1" height="1" fill="#201611" />
<rect x="73" y="60" width="1" height="1" fill="#201611" />
<rect x="74" y="60" width="1" height="1" fill="#201611" />
<rect x="75" y="60" width="1" height="1" fill="#201611" />
<rect x="76" y="60" width="1" height="1" fill="#201611" />
<rect x="77" y="60" width="1" height="1" fill="#201611" />
<rect x="78" y="60" width="1" height="1" fill="#201611" />
<rect x="79" y="60" width="1" height="1" fill="#18120E" />
<rect x="68" y="61" width="1" height="1" fill="#18120E" />
<rect x="69" y="61" width="1" height="1" fill="#201611" />
<rect x="70" y="61" width="1" height="1" fill="#201611" />
<rect x="71" y="61" width="1" height="1" fill="#201611" />
<rect x="72" y="61" width="1" height="1" fill="#201611" />
<rect x="73" y="61" width="1" height="1" fill="#201611" />
<rect x="74" y="61" width="1" height="1" fill="#201611" />
<rect x="75" y="61" width="1" height="1" fill="#201611" />
<rect x="76" y="61" width="1" height="1" fill="#201611" />
<rect x="77" y="61" width="1" height="1" fill="#201611" />
<rect x="78" y="61" width="1" height="1" fill="#201611" />
<rect x="79" y="61" width="1" height="1" fill="#18120E" />
<rect x="68" y="62" width="1" height="1" fill="#18120E" />
<rect x="69" y="62" width="1" height="1" fill="#201611" />
<rect x="70" y="62" width="1" height="1" fill="#201611" />
<rect x="71" y="62" width="1" height="1" fill="#201611" />
<rect x="72" y="62" width="1" height="1" fill="#201611" />
<rect x="73" y="62" width="1" height="1" fill="#201611" />
<rect x="74" y="62" width="1" height="1" fill="#201611" />
<rect x="75" y="62" width="1" height="1" fill="#201611" />
<rect x="76" y="62" width="1" height="1" fill="#201611" />
<rect x="77" y="62" width="1" height="1" fill="#201611" />
<rect x="78" y="62" width="1" height="1" fill="#201611" />
<rect x="79" y="62" width="1" height="1" fill="#18120E" />
<rect x="68" y="63" width="1" height="1" fill="#201611" />
<rect x="69" y="63" width="1" height="1" fill="#18120E" />
<rect x="70" y="63" width="1" height="1" fill="#201611" />
<rect x="71" y="63" width="1" height="1" fill="#201611" />
<rect x="72" y="63" width="1" height="1" fill="#201611" />
<rect x="73" y="63" width="1" height="1" fill="#201611" />
<rect x="74" y="63" width="1" height="1" fill="#201611" />
<rect x="75" y="63" width="1" height="1" fill="#201611" />
<rect x="76" y="63" width="1" height="1" fill="#201611" />
<rect x="77" y="63" width="1" height="1" fill="#201611" />
<rect x="78" y="63" width="1" height="1" fill="#201611" />
<rect x="79" y="63" width="1" height="1" fill="#18120E" />
<rect x="68" y="64" width="1" height="1" fill="#000000" />
<rect x="69" y="64" width="1" height="1" fill="#000000" />
<rect x="70" y="64" width="1" height="1" fill="#000000" />
<rect x="71" y="64" width="1" height="1" fill="#000000" />
<rect x="72" y="64" width="1" height="1" fill="#000000" />
<rect x="73" y="64" width="1" height="1" fill="#FFFFFF" />
<rect x="74" y="64" width="1" height="1" fill="#FFFFFF" />
<rect x="75" y="64" width="1" height="1" fill="#000000" />
<rect x="76" y="64" width="1" height="1" fill="#000000" />
<rect x="77" y="64" width="1" height="1" fill="#000000" />
<rect x="78" y="64" width="1" height="1" fill="#000000" />
<rect x="79" y="64" width="1" height="1" fill="#000000" />
<rect x="69" y="65" width="1" height="1" fill="#0D0C14" />
<rect x="70" y="65" width="1" height="1" fill="#0D0C14" />
<rect x="71" y="65" width="1" height="1" fill="#0D0C14" />
<rect x="72" y="65" width="1" height="1" fill="#0D0C14" />
<rect x="73" y="65" width="1" height="1" fill="#0D0C14" />
<rect x="74" y="65" width="1" height="1" fill="#0D0C14" />
<rect x="75" y="65" width="1" height="1" fill="#0D0C14" />
<rect x="76" y="65" width="1" height="1" fill="#0D0C14" />
<rect x="77" y="65" width="1" height="1" fill="#0D0C14" />
<rect x="78" y="65" width="1" height="1" fill="#0D0C14" />
<rect x="79" y="65" width="1" height="1" fill="#08070C" />
<rect x="70" y="66" width="1" height="1" fill="#0D0C14" />
<rect x="71" y="66" width="1" height="1" fill="#0D0C14" />
<rect x="72" y="66" width="1" height="1" fill="#0D0C14" />
<rect x="73" y="66" width="1" height="1" fill="#0D0C14" />
<rect x="74" y="66" width="1" height="1" fill="#0D0C14" />
<rect x="75" y="66" width="1" height="1" fill="#0D0C14" />
<rect x="76" y="66" width="1" height="1" fill="#08070C" />
<rect x="77" y="66" width="1" height="1" fill="#0D0C14" />
<rect x="78" y="66" width="1" height="1" fill="#0D0C14" />
<rect x="79" y="66" width="1" height="1" fill="#08070C" />
<rect x="70" y="67" width="1" height="1" fill="#08070C" />
<rect x="71" y="67" width="1" height="1" fill="#0D0C14" />
<rect x="72" y="67" width="1" height="1" fill="#0D0C14" />
<rect x="73" y="67" width="1" height="1" fill="#0D0C14" />
<rect x="74" y="67" width="1" height="1" fill="#0D0C14" />
<rect x="75" y="67" width="1" height="1" fill="#0D0C14" />
<rect x="76" y="67" width="1" height="1" fill="#0D0C14" />
<rect x="77" y="67" width="1" height="1" fill="#0D0C14" />
<rect x="78" y="67" width="1" height="1" fill="#0D0C14" />
<rect x="79" y="67" width="1" height="1" fill="#08070C" />
<rect x="70" y="68" width="1" height="1" fill="#0D0C14" />
<rect x="71" y="68" width="1" height="1" fill="#0D0C14" />
<rect x="72" y="68" width="1" height="1" fill="#08070C" />
<rect x="77" y="68" width="1" height="1" fill="#0D0C14" />
<rect x="78" y="68" width="1" height="1" fill="#0D0C14" />
<rect x="79" y="68" width="1" height="1" fill="#08070C" />
<rect x="70" y="69" width="1" height="1" fill="#0D0C14" />
<rect x="71" y="69" width="1" height="1" fill="#0D0C14" />
<rect x="72" y="69" width="1" height="1" fill="#08070C" />
<rect x="77" y="69" width="1" height="1" fill="#0D0C14" />
<rect x="78" y="69" width="1" height="1" fill="#0D0C14" />
<rect x="79" y="69" width="1" height="1" fill="#08070C" />
<rect x="70" y="70" width="1" height="1" fill="#0D0C14" />
<rect x="71" y="70" width="1" height="1" fill="#0D0C14" />
<rect x="72" y="70" width="1" height="1" fill="#08070C" />
<rect x="77" y="70" width="1" height="1" fill="#0D0C14" />
<rect x="78" y="70" width="1" height="1" fill="#0D0C14" />
<rect x="79" y="70" width="1" height="1" fill="#08070C" />
<rect x="70" y="71" width="1" height="1" fill="#08070C" />
<rect x="71" y="71" width="1" height="1" fill="#0D0C14" />
<rect x="72" y="71" width="1" height="1" fill="#08070C" />
<rect x="77" y="71" width="1" height="1" fill="#0D0C14" />
<rect x="78" y="71" width="1" height="1" fill="#0D0C14" />
<rect x="79" y="71" width="1" height="1" fill="#08070C" />
<rect x="70" y="72" width="1" height="1" fill="#0D0C14" />
<rect x="71" y="72" width="1" height="1" fill="#0D0C14" />
<rect x="72" y="72" width="1" height="1" fill="#08070C" />
<rect x="77" y="72" width="1" height="1" fill="#08070C" />
<rect x="78" y="72" width="1" height="1" fill="#0D0C14" />
<rect x="79" y="72" width="1" height="1" fill="#08070C" />
<rect x="70" y="73" width="1" height="1" fill="#0D0C14" />
<rect x="71" y="73" width="1" height="1" fill="#0D0C14" />
<rect x="72" y="73" width="1" height="1" fill="#08070C" />
<rect x="77" y="73" width="1" height="1" fill="#0D0C14" />
<rect x="78" y="73" width="1" height="1" fill="#0D0C14" />
<rect x="79" y="73" width="1" height="1" fill="#08070C" />
<rect x="70" y="74" width="1" height="1" fill="#0D0C14" />
<rect x="71" y="74" width="1" height="1" fill="#0D0C14" />
<rect x="72" y="74" width="1" height="1" fill="#08070C" />
<rect x="77" y="74" width="1" height="1" fill="#0D0C14" />
<rect x="78" y="74" width="1" height="1" fill="#0D0C14" />
<rect x="79" y="74" width="1" height="1" fill="#08070C" />
<rect x="70" y="75" width="1" height="1" fill="#08070C" />
<rect x="71" y="75" width="1" height="1" fill="#08070C" />
<rect x="72" y="75" width="1" height="1" fill="#08070C" />
<rect x="77" y="75" width="1" height="1" fill="#08070C" />
<rect x="78" y="75" width="1" height="1" fill="#08070C" />
<rect x="79" y="75" width="1" height="1" fill="#08070C" />
<rect x="69" y="76" width="1" height="1" fill="#000000" />
<rect x="70" y="76" width="1" height="1" fill="#000000" />
<rect x="71" y="76" width="1" height="1" fill="#000000" />
<rect x="72" y="76" width="1" height="1" fill="#000000" />
<rect x="76" y="76" width="1" height="1" fill="#000000" />
<rect x="77" y="76" width="1" height="1" fill="#000000" />
<rect x="78" y="76" width="1" height="1" fill="#000000" />
<rect x="79" y="76" width="1" height="1" fill="#000000" />
<rect x="68" y="77" width="1" height="1" fill="#000000" />
<rect x="69" y="77" width="1" height="1" fill="#000000" />
<rect x="70" y="77" width="1" height="1" fill="#000000" />
<rect x="71" y="77" width="1" height="1" fill="#000000" />
<rect x="72" y="77" width="1" height="1" fill="#000000" />
<rect x="75" y="77" width="1" height="1" fill="#000000" />
<rect x="76" y="77" width="1" height="1" fill="#000000" />
<rect x="77" y="77" width="1" height="1" fill="#000000" />
<rect x="78" y="77" width="1" height="1" fill="#000000" />
<rect x="79" y="77" width="1" height="1" fill="#000000" />
<rect x="68" y="78" width="1" height="1" fill="#000000" />
<rect x="69" y="78" width="1" height="1" fill="#000000" />
<rect x="70" y="78" width="1" height="1" fill="#000000" />
<rect x="71" y="78" width="1" height="1" fill="#000000" />
<rect x="72" y="78" width="1" height="1" fill="#000000" />
<rect x="75" y="78" width="1" height="1" fill="#000000" />
<rect x="76" y="78" width="1" height="1" fill="#000000" />
<rect x="77" y="78" width="1" height="1" fill="#000000" />
<rect x="78" y="78" width="1" height="1" fill="#000000" />
<rect x="79" y="78" width="1" height="1" fill="#000000" />
</svg>