<?xml version="1.0" encoding="UTF-8" ?>
<svg version="1.1" width="150" height="80" xmlns="http://www.w3.org/2000/svg" shape-rendering="crispEdges">
<rect x="88" y="20" width="1" height="1" fill="#341C27" />
<rect x="89" y="20" width="1" height="1" fill="#341C27" />
<rect x="90" y="20" width="1" height="1" fill="#341C27" />
<rect x="91" y="20" width="1" height="1" fill="#341C27" />
<rect x="86" y="21" width="1" height="1" fill="#E7D5B3" />
<rect x="87" y="21" width="1" height="1" fill="#E7D5B3" />
<rect x="88" y="21" width="1" height="1" fill="#E7D5B3" />
<rect x="89" y="21" width="1" height="1" fill="#E7D5B3" />
<rect x="90" y="21" width="1" height="1" fill="#E7D5B3" />
<rect x="91" y="21" width="1" height="1" fill="#E7D5B3" />
<rect x="92" y="21" width="1" height="1" fill="#E7D5B3" />
<rect x="93" y="21" width="1" height="1" fill="#E7D5B3" />
<rect x="84" y="22" width="1" height="1" fill="#341C27" />
<rect x="85" y="22" width="1" height="1" fill="#E7D5B3" />
<rect x="86" y="22" width="1" height="1" fill="#E7D5B3" />
<rect x="87" y="22" width="1" height="1" fill="#E7D5B3" />
<rect x="88" y="22" width="1" height="1" fill="#341C27" />
<rect x="89" y="22" width="1" height="1" fill="#341C27" />
<rect x="90" y="22" width="1" height="1" fill="#341C27" />
<rect x="91" y="22" width="1" height="1" fill="#341C27" />
<rect x="92" y="22" width="1" height="1" fill="#E7D5B3" />
<rect x="93" y="22" width="1" height="1" fill="#E7D5B3" />
<rect x="94" y="22" width="1" height="1" fill="#E7D5B3" />
<rect x="95" y="22" width="1" height="1" fill="#341C27" />
<rect x="83" y="23" width="1" height="1" fill="#341C27" />
<rect x="84" y="23" width="1" height="1" fill="#E7D5B3" />
<rect x="85" y="23" width="1" height="1" fill="#E7D5B3" />
<rect x="86" y="23" width="1" height="1" fill="#E7D5B3" />
<rect x="87" y="23" width="1" height="1" fill="#341C27" />
<rect x="88" y="23" width="1" height="1" fill="#E7D5B3" />
<rect x="89" y="23" width="1" height="1" fill="#E7D5B3" />
<rect x="90" y="23" width="1" height="1" fill="#E7D5B3" />
<rect x="91" y="23" width="1" height="1" fill="#E7D5B3" />
<rect x="92" y="23" width="1" height="1" fill="#E7D5B3" />
<rect x="93" y="23" width="1" height="1" fill="#E7D5B3" />
<rect x="94" y="23" width="1" height="1" fill="#E7D5B3" />
<rect x="95" y="23" width="1" height="1" fill="#E2CFAE" />
<rect x="96" y="23" width="1" height="1" fill="#341C27" />
<rect x="83" y="24" width="1" height="1" fill="#341C27" />
<rect x="84" y="24" width="1" height="1" fill="#E7D5B3" />
<rect x="85" y="24" width="1" height="1" fill="#E7D5B3" />
<rect x="86" y="24" width="1" height="1" fill="#E7D5B3" />
<rect x="87" y="24" width="1" height="1" fill="#E7D5B3" />
<rect x="88" y="24" width="1" height="1" fill="#E7D5B3" />
<rect x="89" y="24" width="1" height="1" fill="#E7D5B3" />
<rect x="90" y="24" width="1" height="1" fill="#E7D5B3" />
<rect x="91" y="24" width="1" height="1" fill="#E7D5B3" />
<rect x="92" y="24" width="1" height="1" fill="#E7D5B3" />
<rect x="93" y="24" width="1" height="1" fill="#E7D5B3" />
<rect x="94" y="24" width="1" height="1" fill="#E7D5B3" />
<rect x="95" y="24" width="1" height="1" fill="#E2CFAE" />
<rect x="96" y="24" width="1" height="1" fill="#341C27" />
<rect x="82" y="25" width="1" height="1" fill="#341C27" />
<rect x="83" y="25" width="1" height="1" fill="#E7D5B3" />
<rect x="84" y="25" width="1" height="1" fill="#E7D5B3" />
<rect x="85" y="25" width="1" height="1" fill="#E7D5B3" />
<rect x="86" y="25" width="1" height="1" fill="#E7D5B3" />
<rect x="87" y="25" width="1" height="1" fill="#E7D5B3" />
<rect x="88" y="25" width="1" height="1" fill="#E7D5B3" />
<rect x="89" y="25" width="1" height="1" fill="#E7D5B3" />
<rect x="90" y="25" width="1" height="1" fill="#E7D5B3" />
<rect x="91" y="25" width="1" height="1" fill="#E7D5B3" />
<rect x="92" y="25" width="1" height="1" fill="#E7D5B3" />
<rect x="93" y="25" width="1" height="1" fill="#E7D5B3" />
<rect x="94" y="25" width="1" height="1" fill="#E7D5B3" />
<rect x="95" y="25" width="1" height="1" fill="#E6D4B2" />
<rect x="96" y="25" width="1" height="1" fill="#E2CFAE" />
<rect x="97" y="25" width="1" height="1" fill="#341C27" />
<rect x="82" y="26" width="1" height="1" fill="#341C27" />
<rect x="83" y="26" width="1" height="1" fill="#E7D5B3" />
<rect x="84" y="26" width="1" height="1" fill="#E7D5B3" />
<rect x="85" y="26" width="1" height="1" fill="#E7D5B3" />
<rect x="86" y="26" width="1" height="1" fill="#10141F" />
<rect x="87" y="26" width="1" height="1" fill="#090A14" />
<rect x="88" y="26" width="1" height="1" fill="#E7D5B3" />
<rect x="89" y="26" width="1" height="1" fill="#E7D5B3" />
<rect x="90" y="26" width="1" height="1" fill="#E7D5B3" />
<rect x="91" y="26" width="1" height="1" fill="#E7D5B3" />
<rect x="92" y="26" width="1" height="1" fill="#10141F" />
<rect x="93" y="26" width="1" height="1" fill="#090A14" />
<rect x="94" y="26" width="1" height="1" fill="#E7D5B3" />
<rect x="95" y="26" width="1" height="1" fill="#E7D5B3" />
<rect x="96" y="26" width="1" height="1" fill="#E2CFAE" />
<rect x="97" y="26" width="1" height="1" fill="#341C27" />
<rect x="82" y="27" width="1" height="1" fill="#E7D5B3" />
<rect x="83" y="27" width="1" height="1" fill="#E7D5B3" />
<rect x="84" y="27" width="1" height="1" fill="#E7D5B3" />
<rect x="85" y="27" width="1" height="1" fill="#E7D5B3" />
<rect x="86" y="27" width="1" height="1" fill="#3C5E8B" />
<rect x="87" y="27" width="1" height="1" fill="#EBEDE9" />
<rect x="88" y="27" width="1" height="1" fill="#E7D5B3" />
<rect x="89" y="27" width="1" height="1" fill="#E7D5B3" />
<rect x="90" y="27" width="1" height="1" fill="#E7D5B3" />
<rect x="91" y="27" width="1" height="1" fill="#E7D5B3" />
<rect x="92" y="27" width="1" height="1" fill="#3C5E8B" />
<rect x="93" y="27" width="1" height="1" fill="#EBEDE9" />
<rect x="94" y="27" width="1" height="1" fill="#E7D5B3" />
<rect x="95" y="27" width="1" height="1" fill="#E7D5B3" />
<rect x="96" y="27" width="1" height="1" fill="#E6D4B2" />
<rect x="97" y="27" width="1" height="1" fill="#E2CFAE" />
<rect x="81" y="28" width="1" height="1" fill="#C09473" />
<rect x="82" y="28" width="1" height="1" fill="#E7D5B3" />
<rect x="83" y="28" width="1" height="1" fill="#E7D5B3" />
<rect x="84" y="28" width="1" height="1" fill="#E7D5B3" />
<rect x="85" y="28" width="1" height="1" fill="#E7D5B3" />
<rect x="86" y="28" width="1" height="1" fill="#253A5E" />
<rect x="87" y="28" width="1" height="1" fill="#EBEDE9" />
<rect x="88" y="28" width="1" height="1" fill="#E7D5B3" />
<rect x="89" y="28" width="1" height="1" fill="#E7D5B3" />
<rect x="90" y="28" width="1" height="1" fill="#D7B594" />
<rect x="91" y="28" width="1" height="1" fill="#E7D5B3" />
<rect x="92" y="28" width="1" height="1" fill="#253A5E" />
<rect x="93" y="28" width="1" height="1" fill="#EBEDE9" />
<rect x="94" y="28" width="1" height="1" fill="#E7D5B3" />
<rect x="95" y="28" width="1" height="1" fill="#E7D5B3" />
<rect x="96" y="28" width="1" height="1" fill="#E7D5B3" />
<rect x="97" y="28" width="1" height="1" fill="#E2CFAE" />
<rect x="98" y="28" width="1" height="1" fill="#C09473" />
<rect x="81" y="29" width="1" height="1" fill="#C09473" />
<rect x="82" y="29" width="1" height="1" fill="#E7D5B3" />
<rect x="83" y="29" width="1" height="1" fill="#E7D5B3" />
<rect x="84" y="29" width="1" height="1" fill="#E7D5B3" />
<rect x="85" y="29" width="1" height="1" fill="#E7D5B3" />
<rect x="86" y="29" width="1" height="1" fill="#E7D5B3" />
<rect x="87" y="29" width="1" height="1" fill="#E7D5B3" />
<rect x="88" y="29" width="1" height="1" fill="#E7D5B3" />
<rect x="89" y="29" width="1" height="1" fill="#D7B594" />
<rect x="90" y="29" width="1" height="1" fill="#D7B594" />
<rect x="91" y="29" width="1" height="1" fill="#E7D5B3" />
<rect x="92" y="29" width="1" height="1" fill="#E7D5B3" />
<rect x="93" y="29" width="1" height="1" fill="#E7D5B3" />
<rect x="94" y="29" width="1" height="1" fill="#E7D5B3" />
<rect x="95" y="29" width="1" height="1" fill="#E7D5B3" />
<rect x="96" y="29" width="1" height="1" fill="#E7D5B3" />
<rect x="97" y="29" width="1" height="1" fill="#E2CFAE" />
<rect x="98" y="29" width="1" height="1" fill="#C09473" />
<rect x="81" y="30" width="1" height="1" fill="#D7B594" />
<rect x="82" y="30" width="1" height="1" fill="#E7D5B3" />
<rect x="83" y="30" width="1" height="1" fill="#E7D5B3" />
<rect x="84" y="30" width="1" height="1" fill="#E7D5B3" />
<rect x="85" y="30" width="1" height="1" fill="#E7D5B3" />
<rect x="86" y="30" width="1" height="1" fill="#E7D5B3" />
<rect x="87" y="30" width="1" height="1" fill="#E7D5B3" />
<rect x="88" y="30" width="1" height="1" fill="#E7D5B3" />
<rect x="89" y="30" width="1" height="1" fill="#D7B594" />
<rect x="90" y="30" width="1" height="1" fill="#D7B594" />
<rect x="91" y="30" width="1" height="1" fill="#E7D5B3" />
<rect x="92" y="30" width="1" height="1" fill="#E7D5B3" />
<rect x="93" y="30" width="1" height="1" fill="#E7D5B3" />
<rect x="94" y="30" width="1" height="1" fill="#E7D5B3" />
<rect x="95" y="30" width="1" height="1" fill="#E7D5B3" />
<rect x="96" y="30" width="1" height="1" fill="#E7D5B3" />
<rect x="97" y="30" width="1" height="1" fill="#E2CFAE" />
<rect x="98" y="30" width="1" height="1" fill="#D7B594" />
<rect x="82" y="31" width="1" height="1" fill="#E7D5B3" />
<rect x="83" y="31" width="1" height="1" fill="#E7D5B3" />
<rect x="84" y="31" width="1" height="1" fill="#E7D5B3" />
<rect x="85" y="31" width="1" height="1" fill="#E7D5B3" />
<rect x="86" y="31" width="1" height="1" fill="#E7D5B3" />
<rect x="87" y="31" width="1" height="1" fill="#341C27" />
<rect x="88" y="31" width="1" height="1" fill="#341C27" />
<rect x="89" y="31" width="1" height="1" fill="#341C27" />
<rect x="90" y="31" width="1" height="1" fill="#341C27" />
<rect x="91" y="31" width="1" height="1" fill="#341C27" />
<rect x="92" y="31" width="1" height="1" fill="#341C27" />
<rect x="93" y="31" width="1" height="1" fill="#E7D5B3" />
<rect x="94" y="31" width="1" height="1" fill="#E7D5B3" />
<rect x="95" y="31" width="1" height="1" fill="#E7D5B3" />
<rect x="96" y="31" width="1" height="1" fill="#E7D5B3" />
<rect x="97" y="31" width="1" height="1" fill="#E2CFAE" />
<rect x="82" y="32" width="1" height="1" fill="#E7D5B3" />
<rect x="83" y="32" width="1" height="1" fill="#E7D5B3" />
<rect x="84" y="32" width="1" height="1" fill="#E7D5B3" />
<rect x="85" y="32" width="1" height="1" fill="#E7D5B3" />
<rect x="86" y="32" width="1" height="1" fill="#E7D5B3" />
<rect x="87" y="32" width="1" height="1" fill="#E7D5B3" />
<rect x="88" y="32" width="1" height="1" fill="#E7D5B3" />
<rect x="89" y="32" width="1" height="1" fill="#E7D5B3" />
<rect x="90" y="32" width="1" height="1" fill="#E7D5B3" />
<rect x="91" y="32" width="1" height="1" fill="#E7D5B3" />
<rect x="92" y="32" width="1" height="1" fill="#E7D5B3" />
<rect x="93" y="32" width="1" height="1" fill="#E7D5B3" />
<rect x="94" y="32" width="1" height="1" fill="#E7D5B3" />
<rect x="95" y="32" width="1" height="1" fill="#E7D5B3" />
<rect x="96" y="32" width="1" height="1" fill="#E2CFAE" />
<rect x="97" y="32" width="1" height="1" fill="#E2CFAE" />
<rect x="83" y="33" width="1" height="1" fill="#E7D5B3" />
<rect x="84" y="33" width="1" height="1" fill="#E7D5B3" />
<rect x="85" y="33" width="1" height="1" fill="#E7D5B3" />
<rect x="86" y="33" width="1" height="1" fill="#E7D5B3" />
<rect x="87" y="33" width="1" height="1" fill="#E7D5B3" />
<rect x="88" y="33" width="1" height="1" fill="#E7D5B3" />
<rect x="89" y="33" width="1" height="1" fill="#E7D5B3" />
<rect x="90" y="33" width="1" height="1" fill="#E7D5B3" />
<rect x="91" y="33" width="1" height="1" fill="#E7D5B3" />
<rect x="92" y="33" width="1" height="1" fill="#D7B594" />
<rect x="93" y="33" width="1" height="1" fill="#E7D5B3" />
<rect x="94" y="33" width="1" height="1" fill="#E7D5B3" />
<rect x="95" y="33" width="1" height="1" fill="#E6D4B2" />
<rect x="96" y="33" width="1" height="1" fill="#E2CFAE" />
<rect x="84" y="34" width="1" height="1" fill="#E7D5B3" />
<rect x="85" y="34" width="1" height="1" fill="#E7D5B3" />
<rect x="86" y="34" width="1" height="1" fill="#E7D5B3" />
<rect x="87" y="34" width="1" height="1" fill="#E7D5B3" />
<rect x="88" y="34" width="1" height="1" fill="#E7D5B3" />
<rect x="89" y="34" width="1" height="1" fill="#D7B594" />
<rect x="90" y="34" width="1" height="1" fill="#D7B594" />
<rect x="91" y="34" width="1" height="1" fill="#D7B594" />
<rect x="92" y="34" width="1" height="1" fill="#E7D5B3" />
<rect x="93" y="34" width="1" height="1" fill="#E7D5B3" />
<rect x="94" y="34" width="1" height="1" fill="#E7D5B3" />
<rect x="95" y="34" width="1" height="1" fill="#E2CFAE" />
<rect x="96" y="34" width="1" height="1" fill="#E2CFAE" />
<rect x="85" y="35" width="1" height="1" fill="#D7B594" />
<rect x="86" y="35" width="1" height="1" fill="#E7D5B3" />
<rect x="87" y="35" width="1" height="1" fill="#E7D5B3" />
<rect x="88" y="35" width="1" height="1" fill="#E7D5B3" />
<rect x="89" y="35" width="1" height="1" fill="#E7D5B3" />
<rect x="90" y="35" width="1" height="1" fill="#E7D5B3" />
<rect x="91" y="35" width="1" height="1" fill="#E7D5B3" />
<rect x="92" y="35" width="1" height="1" fill="#E7D5B3" />
<rect x="93" y="35" width="1" height="1" fill="#E7D5B3" />
<rect x="94" y="35" width="1" height="1" fill="#E2CFAE" />
<rect x="95" y="35" width="1" height="1" fill="#D7B594" />
<rect x="107" y="35" width="1" height="1" fill="#E7D5B3" />
<rect x="85" y="36" width="1" height="1" fill="#819796" />
<rect x="86" y="36" width="1" height="1" fill="#D7B594" />
<rect x="87" y="36" width="1" height="1" fill="#E7D5B3" />
<rect x="88" y="36" width="1" height="1" fill="#E7D5B3" />
<rect x="89" y="36" width="1" height="1" fill="#E7D5B3" />
<rect x="90" y="36" width="1" height="1" fill="#E7D5B3" />
<rect x="91" y="36" width="1" height="1" fill="#E7D5B3" />
<rect x="92" y="36" width="1" height="1" fill="#E7D5B3" />
<rect x="93" y="36" width="1" height="1" fill="#E2CFAE" />
<rect x="94" y="36" width="1" height="1" fill="#D7B594" />
<rect x="95" y="36" width="1" height="1" fill="#7A8F8E" />
<rect x="105" y="36" width="1" height="1" fill="#819796" />
<rect x="106" y="36" width="1" height="1" fill="#577277" />
<rect x="107" y="36" width="1" height="1" fill="#E7D5B3" />
<rect x="108" y="36" width="1" height="1" fill="#E7D5B3" />
<rect x="109" y="36" width="1" height="1" fill="#E7D5B3" />
<rect x="82" y="37" width="1" height="1" fill="#BE772B" />
<rect x="83" y="37" width="1" height="1" fill="#BE772B" />
<rect x="84" y="37" width="1" height="1" fill="#AB6B26" />
<rect x="85" y="37" width="1" height="1" fill="#748887" />
<rect x="86" y="37" width="1" height="1" fill="#A8B5B2" />
<rect x="87" y="37" width="1" height="1" fill="#819796" />
<rect x="88" y="37" width="1" height="1" fill="#D7B594" />
<rect x="89" y="37" width="1" height="1" fill="#D7B594" />
<rect x="90" y="37" width="1" height="1" fill="#D7B594" />
<rect x="91" y="37" width="1" height="1" fill="#D7B594" />
<rect x="92" y="37" width="1" height="1" fill="#D7B594" />
<rect x="93" y="37" width="1" height="1" fill="#7A8F8E" />
<rect x="94" y="37" width="1" height="1" fill="#8F9B98" />
<rect x="95" y="37" width="1" height="1" fill="#6E8080" />
<rect x="96" y="37" width="1" height="1" fill="#AB6B26" />
<rect x="97" y="37" width="1" height="1" fill="#BE772B" />
<rect x="98" y="37" width="1" height="1" fill="#BE772B" />
<rect x="102" y="37" width="1" height="1" fill="#A8B5B2" />
<rect x="103" y="37" width="1" height="1" fill="#819796" />
<rect x="104" y="37" width="1" height="1" fill="#577277" />
<rect x="105" y="37" width="1" height="1" fill="#819796" />
<rect x="106" y="37" width="1" height="1" fill="#A8B5B2" />
<rect x="107" y="37" width="1" height="1" fill="#D7B594" />
<rect x="108" y="37" width="1" height="1" fill="#E7D5B3" />
<rect x="109" y="37" width="1" height="1" fill="#E7D5B3" />
<rect x="80" y="38" width="1" height="1" fill="#879E9D" />
<rect x="81" y="38" width="1" height="1" fill="#BE772B" />
<rect x="82" y="38" width="1" height="1" fill="#BE772B" />
<rect x="83" y="38" width="1" height="1" fill="#BE772B" />
<rect x="84" y="38" width="1" height="1" fill="#AB6B26" />
<rect x="85" y="38" width="1" height="1" fill="#AB6B26" />
<rect x="86" y="38" width="1" height="1" fill="#4E666B" />
<rect x="87" y="38" width="1" height="1" fill="#819796" />
<rect x="88" y="38" width="1" height="1" fill="#A8B5B2" />
<rect x="89" y="38" width="1" height="1" fill="#819796" />
<rect x="90" y="38" width="1" height="1" fill="#A8B5B2" />
<rect x="91" y="38" width="1" height="1" fill="#819796" />
<rect x="92" y="38" width="1" height="1" fill="#A8B5B2" />
<rect x="93" y="38" width="1" height="1" fill="#7A8F8E" />
<rect x="94" y="38" width="1" height="1" fill="#4E666B" />
<rect x="95" y="38" width="1" height="1" fill="#AB6B26" />
<rect x="96" y="38" width="1" height="1" fill="#AB6B26" />
<rect x="97" y="38" width="1" height="1" fill="#BE772B" />
<rect x="98" y="38" width="1" height="1" fill="#BE772B" />
<rect x="99" y="38" width="1" height="1" fill="#AB6B26" />
<rect x="100" y="38" width="1" height="1" fill="#A8B5B2" />
<rect x="101" y="38" width="1" height="1" fill="#819796" />
<rect x="102" y="38" width="1" height="1" fill="#577277" />
<rect x="103" y="38" width="1" height="1" fill="#819796" />
<rect x="104" y="38" width="1" height="1" fill="#A8B5B2" />
<rect x="105" y="38" width="1" height="1" fill="#819796" />
<rect x="106" y="38" width="1" height="1" fill="#577277" />
<rect x="107" y="38" width="1" height="1" fill="#D7B594" />
<rect x="108" y="38" width="1" height="1" fill="#E7D5B3" />
<rect x="109" y="38" width="1" height="1" fill="#E7D5B3" />
<rect x="79" y="39" width="1" height="1" fill="#B0BEBB" />
<rect x="80" y="39" width="1" height="1" fill="#879E9D" />
<rect x="81" y="39" width="1" height="1" fill="#BE772B" />
<rect x="82" y="39" width="1" height="1" fill="#BE772B" />
<rect x="83" y="39" width="1" height="1" fill="#BE772B" />
<rect x="84" y="39" width="1" height="1" fill="#BE772B" />
<rect x="85" y="39" width="1" height="1" fill="#AB6B26" />
<rect x="86" y="39" width="1" height="1" fill="#AB6B26" />
<rect x="87" y="39" width="1" height="1" fill="#748887" />
<rect x="88" y="39" width="1" height="1" fill="#4E666B" />
<rect x="89" y="39" width="1" height="1" fill="#819796" />
<rect x="90" y="39" width="1" height="1" fill="#577277" />
<rect x="91" y="39" width="1" height="1" fill="#819796" />
<rect x="92" y="39" width="1" height="1" fill="#496165" />
<rect x="93" y="39" width="1" height="1" fill="#6E8080" />
<rect x="94" y="39" width="1" height="1" fill="#AB6B26" />
<rect x="95" y="39" width="1" height="1" fill="#AB6B26" />
<rect x="96" y="39" width="1" height="1" fill="#BE772B" />
<rect x="97" y="39" width="1" height="1" fill="#BE772B" />
<rect x="98" y="39" width="1" height="1" fill="#BE772B" />
<rect x="99" y="39" width="1" height="1" fill="#AB6B26" />
<rect x="100" y="39" width="1" height="1" fill="#577277" />
<rect x="101" y="39" width="1" height="1" fill="#819796" />
<rect x="102" y="39" width="1" height="1" fill="#A8B5B2" />
<rect x="103" y="39" width="1" height="1" fill="#819796" />
<rect x="104" y="39" width="1" height="1" fill="#577277" />
<rect x="105" y="39" width="1" height="1" fill="#819796" />
<rect x="106" y="39" width="1" height="1" fill="#A8B5B2" />
<rect x="107" y="39" width="1" height="1" fill="#819796" />
<rect x="78" y="40" width="1" height="1" fill="#879E9D" />
<rect x="79" y="40" width="1" height="1" fill="#577277" />
<rect x="80" y="40" width="1" height="1" fill="#819796" />
<rect x="81" y="40" width="1" height="1" fill="#BE772B" />
<rect x="82" y="40" width="1" height="1" fill="#BE772B" />
<rect x="83" y="40" width="1" height="1" fill="#BE772B" />
<rect x="84" y="40" width="1" height="1" fill="#BE772B" />
<rect x="85" y="40" width="1" height="1" fill="#BE772B" />
<rect x="86" y="40" width="1" height="1" fill="#AB6B26" />
<rect x="87" y="40" width="1" height="1" fill="#AB6B26" />
<rect x="88" y="40" width="1" height="1" fill="#8F9B98" />
<rect x="89" y="40" width="1" height="1" fill="#748887" />
<rect x="90" y="40" width="1" height="1" fill="#8F9B98" />
<rect x="91" y="40" width="1" height="1" fill="#6E8080" />
<rect x="92" y="40" width="1" height="1" fill="#8F9B98" />
<rect x="93" y="40" width="1" height="1" fill="#AB6B26" />
<rect x="94" y="40" width="1" height="1" fill="#AB6B26" />
<rect x="95" y="40" width="1" height="1" fill="#BE772B" />
<rect x="96" y="40" width="1" height="1" fill="#BE772B" />
<rect x="97" y="40" width="1" height="1" fill="#BE772B" />
<rect x="98" y="40" width="1" height="1" fill="#BE772B" />
<rect x="99" y="40" width="1" height="1" fill="#AB6B26" />
<rect x="100" y="40" width="1" height="1" fill="#A8B5B2" />
<rect x="101" y="40" width="1" height="1" fill="#819796" />
<rect x="102" y="40" width="1" height="1" fill="#577277" />
<rect x="103" y="40" width="1" height="1" fill="#819796" />
<rect x="104" y="40" width="1" height="1" fill="#A8B5B2" />
<rect x="105" y="40" width="1" height="1" fill="#819796" />
<rect x="106" y="40" width="1" height="1" fill="#577277" />
<rect x="77" y="41" width="1" height="1" fill="#B0BEBB" />
<rect x="78" y="41" width="1" height="1" fill="#879E9D" />
<rect x="79" y="41" width="1" height="1" fill="#A8B5B2" />
<rect x="80" y="41" width="1" height="1" fill="#BE772B" />
<rect x="81" y="41" width="1" height="1" fill="#BE772B" />
<rect x="82" y="41" width="1" height="1" fill="#BE772B" />
<rect x="83" y="41" width="1" height="1" fill="#BE772B" />
<rect x="84" y="41" width="1" height="1" fill="#BE772B" />
<rect x="85" y="41" width="1" height="1" fill="#BE772B" />
<rect x="86" y="41" width="1" height="1" fill="#BE772B" />
<rect x="87" y="41" width="1" height="1" fill="#AB6B26" />
<rect x="88" y="41" width="1" height="1" fill="#AB6B26" />
<rect x="89" y="41" width="1" height="1" fill="#748887" />
<rect x="90" y="41" width="1" height="1" fill="#496165" />
<rect x="91" y="41" width="1" height="1" fill="#6E8080" />
<rect x="92" y="41" width="1" height="1" fill="#AB6B26" />
<rect x="93" y="41" width="1" height="1" fill="#AB6B26" />
<rect x="94" y="41" width="1" height="1" fill="#BE772B" />
<rect x="95" y="41" width="1" height="1" fill="#BE772B" />
<rect x="96" y="41" width="1" height="1" fill="#BE772B" />
<rect x="97" y="41" width="1" height="1" fill="#BE772B" />
<rect x="98" y="41" width="1" height="1" fill="#BE772B" />
<rect x="99" y="41" width="1" height="1" fill="#BE772B" />
<rect x="100" y="41" width="1" height="1" fill="#577277" />
<rect x="101" y="41" width="1" height="1" fill="#819796" />
<rect x="102" y="41" width="1" height="1" fill="#A8B5B2" />
<rect x="103" y="41" width="1" height="1" fill="#819796" />
<rect x="104" y="41" width="1" height="1" fill="#577277" />
<rect x="77" y="42" width="1" height="1" fill="#5B777D" />
<rect x="78" y="42" width="1" height="1" fill="#819796" />
<rect x="79" y="42" width="1" height="1" fill="#577277" />
<rect x="80" y="42" width="1" height="1" fill="#BE772B" />
<rect x="81" y="42" width="1" height="1" fill="#BE772B" />
<rect x="82" y="42" width="1" height="1" fill="#BE772B" />
<rect x="83" y="42" width="1" height="1" fill="#BE772B" />
<rect x="84" y="42" width="1" height="1" fill="#BE772B" />
<rect x="85" y="42" width="1" height="1" fill="#BE772B" />
<rect x="86" y="42" width="1" height="1" fill="#BE772B" />
<rect x="87" y="42" width="1" height="1" fill="#BE772B" />
<rect x="88" y="42" width="1" height="1" fill="#AB6B26" />
<rect x="89" y="42" width="1" height="1" fill="#AB6B26" />
<rect x="90" y="42" width="1" height="1" fill="#626B69" />
<rect x="91" y="42" width="1" height="1" fill="#AB6B26" />
<rect x="92" y="42" width="1" height="1" fill="#AB6B26" />
<rect x="93" y="42" width="1" height="1" fill="#BE772B" />
<rect x="94" y="42" width="1" height="1" fill="#BE772B" />
<rect x="95" y="42" width="1" height="1" fill="#BE772B" />
<rect x="96" y="42" width="1" height="1" fill="#BE772B" />
<rect x="97" y="42" width="1" height="1" fill="#BE772B" />
<rect x="98" y="42" width="1" height="1" fill="#BE772B" />
<rect x="99" y="42" width="1" height="1" fill="#BE772B" />
<rect x="100" y="42" width="1" height="1" fill="#BE772B" />
<rect x="101" y="42" width="1" height="1" fill="#819796" />
<rect x="102" y="42" width="1" height="1" fill="#577277" />
<rect x="76" y="43" width="1" height="1" fill="#879E9D" />
<rect x="77" y="43" width="1" height="1" fill="#A8B5B2" />
<rect x="78" y="43" width="1" height="1" fill="#819796" />
<rect x="79" y="43" width="1" height="1" fill="#BE772B" />
<rect x="80" y="43" width="1" height="1" fill="#BE772B" />
<rect x="81" y="43" width="1" height="1" fill="#BE772B" />
<rect x="82" y="43" width="1" height="1" fill="#BE772B" />
<rect x="83" y="43" width="1" height="1" fill="#172038" />
<rect x="84" y="43" width="1" height="1" fill="#752438" />
<rect x="85" y="43" width="1" height="1" fill="#BE772B" />
<rect x="86" y="43" width="1" height="1" fill="#BE772B" />
<rect x="87" y="43" width="1" height="1" fill="#BE772B" />
<rect x="88" y="43" width="1" height="1" fill="#BE772B" />
<rect x="89" y="43" width="1" height="1" fill="#AB6B26" />
<rect x="90" y="43" width="1" height="1" fill="#AB6B26" />
<rect x="91" y="43" width="1" height="1" fill="#AB6B26" />
<rect x="92" y="43" width="1" height="1" fill="#BE772B" />
<rect x="93" y="43" width="1" height="1" fill="#BE772B" />
<rect x="94" y="43" width="1" height="1" fill="#BE772B" />
<rect x="95" y="43" width="1" height="1" fill="#BE772B" />
<rect x="96" y="43" width="1" height="1" fill="#BE772B" />
<rect x="97" y="43" width="1" height="1" fill="#BE772B" />
<rect x="98" y="43" width="1" height="1" fill="#BE772B" />
<rect x="99" y="43" width="1" height="1" fill="#BE772B" />
<rect x="100" y="43" width="1" height="1" fill="#BE772B" />
<rect x="101" y="43" width="1" height="1" fill="#BE772B" />
<rect x="102" y="43" width="1" height="1" fill="#AB6B26" />
<rect x="76" y="44" width="1" height="1" fill="#879E9D" />
<rect x="77" y="44" width="1" height="1" fill="#577277" />
<rect x="78" y="44" width="1" height="1" fill="#BE772B" />
<rect x="79" y="44" width="1" height="1" fill="#BE772B" />
<rect x="80" y="44" width="1" height="1" fill="#BE772B" />
<rect x="81" y="44" width="1" height="1" fill="#BE772B" />
<rect x="82" y="44" width="1" height="1" fill="#BE772B" />
<rect x="83" y="44" width="1" height="1" fill="#253A5E" />
<rect x="84" y="44" width="1" height="1" fill="#A53030" />
<rect x="85" y="44" width="1" height="1" fill="#BE772B" />
<rect x="86" y="44" width="1" height="1" fill="#BE772B" />
<rect x="87" y="44" width="1" height="1" fill="#BE772B" />
<rect x="88" y="44" width="1" height="1" fill="#BE772B" />
<rect x="89" y="44" width="1" height="1" fill="#BE772B" />
<rect x="90" y="44" width="1" height="1" fill="#884B2B" />
<rect x="91" y="44" width="1" height="1" fill="#BE772B" />
<rect x="92" y="44" width="1" height="1" fill="#BE772B" />
<rect x="93" y="44" width="1" height="1" fill="#BE772B" />
<rect x="94" y="44" width="1" height="1" fill="#BE772B" />
<rect x="95" y="44" width="1" height="1" fill="#BE772B" />
<rect x="96" y="44" width="1" height="1" fill="#BE772B" />
<rect x="97" y="44" width="1" height="1" fill="#BE772B" />
<rect x="98" y="44" width="1" height="1" fill="#BE772B" />
<rect x="99" y="44" width="1" height="1" fill="#BE772B" />
<rect x="100" y="44" width="1" height="1" fill="#BE772B" />
<rect x="101" y="44" width="1" height="1" fill="#BE772B" />
<rect x="102" y="44" width="1" height="1" fill="#AB6B26" />
<rect x="103" y="44" width="1" height="1" fill="#AB6B26" />
<rect x="76" y="45" width="1" height="1" fill="#879E9D" />
<rect x="77" y="45" width="1" height="1" fill="#A8B5B2" />
<rect x="78" y="45" width="1" height="1" fill="#BE772B" />
<rect x="79" y="45" width="1" height="1" fill="#BE772B" />
<rect x="80" y="45" width="1" height="1" fill="#BE772B" />
<rect x="81" y="45" width="1" height="1" fill="#BE772B" />
<rect x="82" y="45" width="1" height="1" fill="#884B2B" />
<rect x="83" y="45" width="1" height="1" fill="#884B2B" />
<rect x="84" y="45" width="1" height="1" fill="#884B2B" />
<rect x="85" y="45" width="1" height="1" fill="#884B2B" />
<rect x="86" y="45" width="1" height="1" fill="#BE772B" />
<rect x="87" y="45" width="1" height="1" fill="#BE772B" />
<rect x="88" y="45" width="1" height="1" fill="#BE772B" />
<rect x="89" y="45" width="1" height="1" fill="#BE772B" />
<rect x="90" y="45" width="1" height="1" fill="#884B2B" />
<rect x="91" y="45" width="1" height="1" fill="#BE772B" />
<rect x="92" y="45" width="1" height="1" fill="#BE772B" />
<rect x="93" y="45" width="1" height="1" fill="#BE772B" />
<rect x="94" y="45" width="1" height="1" fill="#BE772B" />
<rect x="95" y="45" width="1" height="1" fill="#884B2B" />
<rect x="96" y="45" width="1" height="1" fill="#884B2B" />
<rect x="97" y="45" width="1" height="1" fill="#884B2B" />
<rect x="98" y="45" width="1" height="1" fill="#884B2B" />
<rect x="99" y="45" width="1" height="1" fill="#BE772B" />
<rect x="100" y="45" width="1" height="1" fill="#BE772B" />
<rect x="101" y="45" width="1" height="1" fill="#BE772B" />
<rect x="102" y="45" width="1" height="1" fill="#AB6B26" />
<rect x="103" y="45" width="1" height="1" fill="#AB6B26" />
<rect x="76" y="46" width="1" height="1" fill="#E7D5B3" />
<rect x="77" y="46" width="1" height="1" fill="#E7D5B3" />
<rect x="78" y="46" width="1" height="1" fill="#BE772B" />
<rect x="79" y="46" width="1" height="1" fill="#BE772B" />
<rect x="80" y="46" width="1" height="1" fill="#BE772B" />
<rect x="81" y="46" width="1" height="1" fill="#BE772B" />
<rect x="82" y="46" width="1" height="1" fill="#884B2B" />
<rect x="83" y="46" width="1" height="1" fill="#884B2B" />
<rect x="84" y="46" width="1" height="1" fill="#884B2B" />
<rect x="85" y="46" width="1" height="1" fill="#884B2B" />
<rect x="86" y="46" width="1" height="1" fill="#BE772B" />
<rect x="87" y="46" width="1" height="1" fill="#BE772B" />
<rect x="88" y="46" width="1" height="1" fill="#BE772B" />
<rect x="89" y="46" width="1" height="1" fill="#BE772B" />
<rect x="90" y="46" width="1" height="1" fill="#884B2B" />
<rect x="91" y="46" width="1" height="1" fill="#602C2C" />
<rect x="92" y="46" width="1" height="1" fill="#BE772B" />
<rect x="93" y="46" width="1" height="1" fill="#BE772B" />
<rect x="94" y="46" width="1" height="1" fill="#BE772B" />
<rect x="95" y="46" width="1" height="1" fill="#884B2B" />
<rect x="96" y="46" width="1" height="1" fill="#884B2B" />
<rect x="97" y="46" width="1" height="1" fill="#884B2B" />
<rect x="98" y="46" width="1" height="1" fill="#884B2B" />
<rect x="99" y="46" width="1" height="1" fill="#BE772B" />
<rect x="100" y="46" width="1" height="1" fill="#BE772B" />
<rect x="101" y="46" width="1" height="1" fill="#BE772B" />
<rect x="102" y="46" width="1" height="1" fill="#AB6B26" />
<rect x="103" y="46" width="1" height="1" fill="#AB6B26" />
<rect x="76" y="47" width="1" height="1" fill="#D7B594" />
<rect x="77" y="47" width="1" height="1" fill="#D7B594" />
<rect x="78" y="47" width="1" height="1" fill="#BE772B" />
<rect x="79" y="47" width="1" height="1" fill="#BE772B" />
<rect x="80" y="47" width="1" height="1" fill="#BE772B" />
<rect x="81" y="47" width="1" height="1" fill="#BE772B" />
<rect x="82" y="47" width="1" height="1" fill="#BE772B" />
<rect x="83" y="47" width="1" height="1" fill="#BE772B" />
<rect x="84" y="47" width="1" height="1" fill="#BE772B" />
<rect x="85" y="47" width="1" height="1" fill="#BE772B" />
<rect x="86" y="47" width="1" height="1" fill="#BE772B" />
<rect x="87" y="47" width="1" height="1" fill="#BE772B" />
<rect x="88" y="47" width="1" height="1" fill="#BE772B" />
<rect x="89" y="47" width="1" height="1" fill="#BE772B" />
<rect x="90" y="47" width="1" height="1" fill="#884B2B" />
<rect x="91" y="47" width="1" height="1" fill="#BE772B" />
<rect x="92" y="47" width="1" height="1" fill="#BE772B" />
<rect x="93" y="47" width="1" height="1" fill="#BE772B" />
<rect x="94" y="47" width="1" height="1" fill="#BE772B" />
<rect x="95" y="47" width="1" height="1" fill="#BE772B" />
<rect x="96" y="47" width="1" height="1" fill="#BE772B" />
<rect x="97" y="47" width="1" height="1" fill="#BE772B" />
<rect x="98" y="47" width="1" height="1" fill="#BE772B" />
<rect x="99" y="47" width="1" height="1" fill="#BE772B" />
<rect x="100" y="47" width="1" height="1" fill="#BE772B" />
<rect x="101" y="47" width="1" height="1" fill="#BE772B" />
<rect x="102" y="47" width="1" height="1" fill="#AB6B26" />
<rect x="103" y="47" width="1" height="1" fill="#AB6B26" />
<rect x="78" y="48" width="1" height="1" fill="#BE772B" />
<rect x="79" y="48" width="1" height="1" fill="#BE772B" />
<rect x="80" y="48" width="1" height="1" fill="#BE772B" />
<rect x="81" y="48" width="1" height="1" fill="#BE772B" />
<rect x="82" y="48" width="1" height="1" fill="#BE772B" />
<rect x="83" y="48" width="1" height="1" fill="#BE772B" />
<rect x="84" y="48" width="1" height="1" fill="#BE772B" />
<rect x="85" y="48" width="1" height="1" fill="#BE772B" />
<rect x="86" y="48" width="1" height="1" fill="#BE772B" />
<rect x="87" y="48" width="1" height="1" fill="#BE772B" />
<rect x="88" y="48" width="1" height="1" fill="#BE772B" />
<rect x="89" y="48" width="1" height="1" fill="#BE772B" />
<rect x="90" y="48" width="1" height="1" fill="#884B2B" />
<rect x="91" y="48" width="1" height="1" fill="#BE772B" />
<rect x="92" y="48" width="1" height="1" fill="#BE772B" />
<rect x="93" y="48" width="1" height="1" fill="#BE772B" />
<rect x="94" y="48" width="1" height="1" fill="#BE772B" />
<rect x="95" y="48" width="1" height="1" fill="#BE772B" />
<rect x="96" y="48" width="1" height="1" fill="#BE772B" />
<rect x="97" y="48" width="1" height="1" fill="#BE772B" />
<rect x="98" y="48" width="1" height="1" fill="#BE772B" />
<rect x="99" y="48" width="1" height="1" fill="#BE772B" />
<rect x="100" y="48" width="1" height="1" fill="#BE772B" />
<rect x="101" y="48" width="1" height="1" fill="#BE772B" />
<rect x="102" y="48" width="1" height="1" fill="#AB6B26" />
<rect x="103" y="48" width="1" height="1" fill="#AB6B26" />
<rect x="78" y="49" width="1" height="1" fill="#BE772B" />
<rect x="79" y="49" width="1" height="1" fill="#BE772B" />
<rect x="80" y="49" width="1" height="1" fill="#BE772B" />
<rect x="81" y="49" width="1" height="1" fill="#BE772B" />
<rect x="82" y="49" width="1" height="1" fill="#BE772B" />
<rect x="83" y="49" width="1" height="1" fill="#BE772B" />
<rect x="84" y="49" width="1" height="1" fill="#BE772B" />
<rect x="85" y="49" width="1" height="1" fill="#BE772B" />
<rect x="86" y="49" width="1" height="1" fill="#BE772B" />
<rect x="87" y="49" width="1" height="1" fill="#BE772B" />
<rect x="88" y="49" width="1" height="1" fill="#BE772B" />
<rect x="89" y="49" width="1" height="1" fill="#BE772B" />
<rect x="90" y="49" width="1" height="1" fill="#884B2B" />
<rect x="91" y="49" width="1" height="1" fill="#602C2C" />
<rect x="92" y="49" width="1" height="1" fill="#BE772B" />
<rect x="93" y="49" width="1" height="1" fill="#BE772B" />
<rect x="94" y="49" width="1" height="1" fill="#BE772B" />
<rect x="95" y="49" width="1" height="1" fill="#BE772B" />
<rect x="96" y="49" width="1" height="1" fill="#BE772B" />
<rect x="97" y="49" width="1" height="1" fill="#BE772B" />
<rect x="98" y="49" width="1" height="1" fill="#BE772B" />
<rect x="99" y="49" width="1" height="1" fill="#BE772B" />
<rect x="100" y="49" width="1" height="1" fill="#BE772B" />
<rect x="101" y="49" width="1" height="1" fill="#BE772B" />
<rect x="102" y="49" width="1" height="1" fill="#AB6B26" />
<rect x="103" y="49" width="1" height="1" fill="#AB6B26" />
<rect x="78" y="50" width="1" height="1" fill="#C47A2C" />
<rect x="79" y="50" width="1" height="1" fill="#BE772B" />
<rect x="80" y="50" width="1" height="1" fill="#BE772B" />
<rect x="81" y="50" width="1" height="1" fill="#BE772B" />
<rect x="82" y="50" width="1" height="1" fill="#BE772B" />
<rect x="83" y="50" width="1" height="1" fill="#BE772B" />
<rect x="84" y="50" width="1" height="1" fill="#BE772B" />
<rect x="85" y="50" width="1" height="1" fill="#BE772B" />
<rect x="86" y="50" width="1" height="1" fill="#BE772B" />
<rect x="87" y="50" width="1" height="1" fill="#BE772B" />
<rect x="88" y="50" width="1" height="1" fill="#BE772B" />
<rect x="89" y="50" width="1" height="1" fill="#BE772B" />
<rect x="90" y="50" width="1" height="1" fill="#884B2B" />
<rect x="91" y="50" width="1" height="1" fill="#BE772B" />
<rect x="92" y="50" width="1" height="1" fill="#BE772B" />
<rect x="93" y="50" width="1" height="1" fill="#BE772B" />
<rect x="94" y="50" width="1" height="1" fill="#BE772B" />
<rect x="95" y="50" width="1" height="1" fill="#BE772B" />
<rect x="96" y="50" width="1" height="1" fill="#BE772B" />
<rect x="97" y="50" width="1" height="1" fill="#BE772B" />
<rect x="98" y="50" width="1" height="1" fill="#BE772B" />
<rect x="99" y="50" width="1" height="1" fill="#BE772B" />
<rect x="100" y="50" width="1" height="1" fill="#BE772B" />
<rect x="101" y="50" width="1" height="1" fill="#BE772B" />
<rect x="102" y="50" width="1" height="1" fill="#AB6B26" />
<rect x="103" y="50" width="1" height="1" fill="#AB6B26" />
<rect x="79" y="51" width="1" height="1" fill="#BE772B" />
<rect x="80" y="51" width="1" height="1" fill="#BE772B" />
<rect x="81" y="51" width="1" height="1" fill="#BE772B" />
<rect x="82" y="51" width="1" height="1" fill="#BE772B" />
<rect x="83" y="51" width="1" height="1" fill="#BE772B" />
<rect x="84" y="51" width="1" height="1" fill="#BE772B" />
<rect x="85" y="51" width="1" height="1" fill="#BE772B" />
<rect x="86" y="51" width="1" height="1" fill="#BE772B" />
<rect x="87" y="51" width="1" height="1" fill="#BE772B" />
<rect x="88" y="51" width="1" height="1" fill="#BE772B" />
<rect x="89" y="51" width="1" height="1" fill="#BE772B" />
<rect x="90" y="51" width="1" height="1" fill="#884B2B" />
<rect x="91" y="51" width="1" height="1" fill="#BE772B" />
<rect x="92" y="51" width="1" height="1" fill="#BE772B" />
<rect x="93" y="51" width="1" height="1" fill="#BE772B" />
<rect x="94" y="51" width="1" height="1" fill="#BE772B" />
<rect x="95" y="51" width="1" height="1" fill="#BE772B" />
<rect x="96" y="51" width="1" height="1" fill="#BE772B" />
<rect x="97" y="51" width="1" height="1" fill="#BE772B" />
<rect x="98" y="51" width="1" height="1" fill="#BE772B" />
<rect x="99" y="51" width="1" height="1" fill="#BE772B" />
<rect x="100" y="51" width="1" height="1" fill="#BE772B" />
<rect x="101" y="51" width="1" height="1" fill="#AB6B26" />
<rect x="102" y="51" width="1" height="1" fill="#AB6B26" />
<rect x="79" y="52" width="1" height="1" fill="#C47A2C" />
<rect x="80" y="52" width="1" height="1" fill="#BE772B" />
<rect x="81" y="52" width="1" height="1" fill="#BE772B" />
<rect x="82" y="52" width="1" height="1" fill="#BE772B" />
<rect x="83" y="52" width="1" height="1" fill="#BE772B" />
<rect x="84" y="52" width="1" height="1" fill="#BE772B" />
<rect x="85" y="52" width="1" height="1" fill="#BE772B" />
<rect x="86" y="52" width="1" height="1" fill="#BE772B" />
<rect x="87" y="52" width="1" height="1" fill="#BE772B" />
<rect x="88" y="52" width="1" height="1" fill="#BE772B" />
<rect x="89" y="52" width="1" height="1" fill="#BE772B" />
<rect x="90" y="52" width="1" height="1" fill="#884B2B" />
<rect x="91" y="52" width="1" height="1" fill="#602C2C" />
<rect x="92" y="52" width="1" height="1" fill="#BE772B" />
<rect x="93" y="52" width="1" height="1" fill="#BE772B" />
<rect x="94" y="52" width="1" height="1" fill="#BE772B" />
<rect x="95" y="52" width="1" height="1" fill="#BE772B" />
<rect x="96" y="52" width="1" height="1" fill="#BE772B" />
<rect x="97" y="52" width="1" height="1" fill="#BE772B" />
<rect x="98" y="52" width="1" height="1" fill="#BE772B" />
<rect x="99" y="52" width="1" height="1" fill="#BE772B" />
<rect x="100" y="52" width="1" height="1" fill="#BE772B" />
<rect x="101" y="52" width="1" height="1" fill="#AB6B26" />
<rect x="102" y="52" width="1" height="1" fill="#AB6B26" />
<rect x="80" y="53" width="1" height="1" fill="#C47A2C" />
<rect x="81" y="53" width="1" height="1" fill="#BE772B" />
<rect x="82" y="53" width="1" height="1" fill="#BE772B" />
<rect x="83" y="53" width="1" height="1" fill="#BE772B" />
<rect x="84" y="53" width="1" height="1" fill="#BE772B" />
<rect x="85" y="53" width="1" height="1" fill="#BE772B" />
<rect x="86" y="53" width="1" height="1" fill="#BE772B" />
<rect x="87" y="53" width="1" height="1" fill="#BE772B" />
<rect x="88" y="53" width="1" height="1" fill="#BE772B" />
<rect x="89" y="53" width="1" height="1" fill="#BE772B" />
<rect x="90" y="53" width="1" height="1" fill="#884B2B" />
<rect x="91" y="53" width="1" height="1" fill="#BE772B" />
<rect x="92" y="53" width="1" height="1" fill="#BE772B" />
<rect x="93" y="53" width="1" height="1" fill="#BE772B" />
<rect x="94" y="53" width="1" height="1" fill="#BE772B" />
<rect x="95" y="53" width="1" height="1" fill="#BE772B" />
<rect x="96" y="53" width="1" height="1" fill="#BE772B" />
<rect x="97" y="53" width="1" height="1" fill="#BE772B" />
<rect x="98" y="53" width="1" height="1" fill="#BE772B" />
<rect x="99" y="53" width="1" height="1" fill="#BE772B" />
<rect x="100" y="53" width="1" height="1" fill="#AB6B26" />
<rect x="101" y="53" width="1" height="1" fill="#AB6B26" />
<rect x="81" y="54" width="1" height="1" fill="#C47A2C" />
<rect x="82" y="54" width="1" height="1" fill="#BE772B" />
<rect x="83" y="54" width="1" height="1" fill="#BE772B" />
<rect x="84" y="54" width="1" height="1" fill="#BE772B" />
<rect x="85" y="54" width="1" height="1" fill="#BE772B" />
<rect x="86" y="54" width="1" height="1" fill="#BE772B" />
<rect x="87" y="54" width="1" height="1" fill="#BE772B" />
<rect x="88" y="54" width="1" height="1" fill="#BE772B" />
<rect x="89" y="54" width="1" height="1" fill="#BE772B" />
<rect x="90" y="54" width="1" height="1" fill="#884B2B" />
<rect x="91" y="54" width="1" height="1" fill="#BE772B" />
<rect x="92" y="54" width="1" height="1" fill="#BE772B" />
<rect x="93" y="54" width="1" height="1" fill="#BE772B" />
<rect x="94" y="54" width="1" height="1" fill="#BE772B" />
<rect x="95" y="54" width="1" height="1" fill="#BE772B" />
<rect x="96" y="54" width="1" height="1" fill="#BE772B" />
<rect x="97" y="54" width="1" height="1" fill="#BE772B" />
<rect x="98" y="54" width="1" height="1" fill="#BE772B" />
<rect x="99" y="54" width="1" height="1" fill="#AB6B26" />
<rect x="100" y="54" width="1" height="1" fill="#AB6B26" />
<rect x="82" y="55" width="1" height="1" fill="#C47A2C" />
<rect x="83" y="55" width="1" height="1" fill="#BE772B" />
<rect x="84" y="55" width="1" height="1" fill="#BE772B" />
<rect x="85" y="55" width="1" height="1" fill="#BE772B" />
<rect x="86" y="55" width="1" height="1" fill="#BE772B" />
<rect x="87" y="55" width="1" height="1" fill="#BE772B" />
<rect x="88" y="55" width="1" height="1" fill="#172038" />
<rect x="89" y="55" width="1" height="1" fill="#A8B5B2" />
<rect x="90" y="55" width="1" height="1" fill="#C7CFCC" />
<rect x="91" y="55" width="1" height="1" fill="#172038" />
<rect x="92" y="55" width="1" height="1" fill="#172038" />
<rect x="93" y="55" width="1" height="1" fill="#BE772B" />
<rect x="94" y="55" width="1" height="1" fill="#BE772B" />
<rect x="95" y="55" width="1" height="1" fill="#BE772B" />
<rect x="96" y="55" width="1" height="1" fill="#BE772B" />
<rect x="97" y="55" width="1" height="1" fill="#BE772B" />
<rect x="98" y="55" width="1" height="1" fill="#AB6B26" />
<rect x="99" y="55" width="1" height="1" fill="#AB6B26" />
<rect x="84" y="56" width="1" height="1" fill="#C47A2C" />
<rect x="85" y="56" width="1" height="1" fill="#BE772B" />
<rect x="86" y="56" width="1" height="1" fill="#BE772B" />
<rect x="87" y="56" width="1" height="1" fill="#3C5E8B" />
<rect x="88" y="56" width="1" height="1" fill="#3C5E8B" />
<rect x="89" y="56" width="1" height="1" fill="#3C5E8B" />
<rect x="90" y="56" width="1" height="1" fill="#253A5E" />
<rect x="91" y="56" width="1" height="1" fill="#36547D" />
<rect x="92" y="56" width="1" height="1" fill="#36547D" />
<rect x="93" y="56" width="1" height="1" fill="#36547D" />
<rect x="94" y="56" width="1" height="1" fill="#BE772B" />
<rect x="95" y="56" width="1" height="1" fill="#BE772B" />
<rect x="96" y="56" width="1" height="1" fill="#BE772B" />
<rect x="97" y="56" width="1" height="1" fill="#AB6B26" />
<rect x="85" y="57" width="1" height="1" fill="#3C5E8B" />
<rect x="86" y="57" width="1" height="1" fill="#3C5E8B" />
<rect x="87" y="57" width="1" height="1" fill="#3C5E8B" />
<rect x="88" y="57" width="1" height="1" fill="#3C5E8B" />
<rect x="89" y="57" width="1" height="1" fill="#3C5E8B" />
<rect x="90" y="57" width="1" height="1" fill="#253A5E" />
<rect x="91" y="57" width="1" height="1" fill="#36547D" />
<rect x="92" y="57" width="1" height="1" fill="#36547D" />
<rect x="93" y="57" width="1" height="1" fill="#36547D" />
<rect x="94" y="57" width="1" height="1" fill="#36547D" />
<rect x="95" y="57" width="1" height="1" fill="#36547D" />
<rect x="96" y="57" width="1" height="1" fill="#253A5E" />
<rect x="85" y="58" width="1" height="1" fill="#3C5E8B" />
<rect x="86" y="58" width="1" height="1" fill="#3C5E8B" />
<rect x="87" y="58" width="1" height="1" fill="#253A5E" />
<rect x="88" y="58" width="1" height="1" fill="#3C5E8B" />
<rect x="89" y="58" width="1" height="1" fill="#3C5E8B" />
<rect x="90" y="58" width="1" height="1" fill="#253A5E" />
<rect x="91" y="58" width="1" height="1" fill="#36547D" />
<rect x="92" y="58" width="1" height="1" fill="#213454" />
<rect x="93" y="58" width="1" height="1" fill="#36547D" />
<rect x="94" y="58" width="1" height="1" fill="#36547D" />
<rect x="95" y="58" width="1" height="1" fill="#36547D" />
<rect x="96" y="58" width="1" height="1" fill="#253A5E" />
<rect x="85" y="59" width="1" height="1" fill="#3C5E8B" />
<rect x="86" y="59" width="1" height="1" fill="#3C5E8B" />
<rect x="87" y="59" width="1" height="1" fill="#3C5E8B" />
<rect x="88" y="59" width="1" height="1" fill="#253A5E" />
<rect x="89" y="59" width="1" height="1" fill="#3C5E8B" />
<rect x="90" y="59" width="1" height="1" fill="#253A5E" />
<rect x="91" y="59" width="1" height="1" fill="#36547D" />
<rect x="92" y="59" width="1" height="1" fill="#36547D" />
<rect x="93" y="59" width="1" height="1" fill="#213454" />
<rect x="94" y="59" width="1" height="1" fill="#36547D" />
<rect x="95" y="59" width="1" height="1" fill="#36547D" />
<rect x="96" y="59" width="1" height="1" fill="#253A5E" />
<rect x="85" y="60" width="1" height="1" fill="#3C5E8B" />
<rect x="86" y="60" width="1" height="1" fill="#3C5E8B" />
<rect x="87" y="60" width="1" height="1" fill="#3C5E8B" />
<rect x="88" y="60" width="1" height="1" fill="#3C5E8B" />
<rect x="89" y="60" width="1" height="1" fill="#3C5E8B" />
<rect x="90" y="60" width="1" height="1" fill="#253A5E" />
<rect x="91" y="60" width="1" height="1" fill="#36547D" />
<rect x="92" y="60" width="1" height="1" fill="#36547D" />
<rect x="93" y="60" width="1" height="1" fill="#36547D" />
<rect x="94" y="60" width="1" height="1" fill="#36547D" />
<rect x="95" y="60" width="1" height="1" fill="#36547D" />
<rect x="96" y="60" width="1" height="1" fill="#253A5E" />
<rect x="85" y="61" width="1" height="1" fill="#3C5E8B" />
<rect x="86" y="61" width="1" height="1" fill="#3C5E8B" />
<rect x="87" y="61" width="1" height="1" fill="#3C5E8B" />
<rect x="88" y="61" width="1" height="1" fill="#3C5E8B" />
<rect x="89" y="61" width="1" height="1" fill="#3C5E8B" />
<rect x="90" y="61" width="1" height="1" fill="#253A5E" />
<rect x="91" y="61" width="1" height="1" fill="#36547D" />
<rect x="92" y="61" width="1" height="1" fill="#36547D" />
<rect x="93" y="61" width="1" height="1" fill="#36547D" />
<rect x="94" y="61" width="1" height="1" fill="#36547D" />
<rect x="95" y="61" width="1" height="1" fill="#36547D" />
<rect x="96" y="61" width="1" height="1" fill="#253A5E" />
<rect x="84" y="62" width="1" height="1" fill="#202E37" />
<rect x="85" y="62" width="1" height="1" fill="#202E37" />
<rect x="86" y="62" width="1" height="1" fill="#202E37" />
<rect x="87" y="62" width="1" height="1" fill="#151D28" />
<rect x="88" y="62" width="1" height="1" fill="#151D28" />
<rect x="89" y="62" width="1" height="1" fill="#151D28" />
<rect x="91" y="62" width="1" height="1" fill="#202E37" />
<rect x="92" y="62" width="1" height="1" fill="#202E37" />
<rect x="93" y="62" width="1" height="1" fill="#202E37" />
<rect x="94" y="62" width="1" height="1" fill="#151D28" />
<rect x="95" y="62" width="1" height="1" fill="#151D28" />
<rect x="96" y="62" width="1" height="1" fill="#151D28" />
<rect x="84" y="63" width="1" height="1" fill="#202E37" />
<rect x="85" y="63" width="1" height="1" fill="#202E37" />
<rect x="86" y="63" width="1" height="1" fill="#202E37" />
<rect x="87" y="63" width="1" height="1" fill="#151D28" />
<rect x="88" y="63" width="1" height="1" fill="#151D28" />
<rect x="89" y="63" width="1" height="1" fill="#151D28" />
<rect x="91" y="63" width="1" height="1" fill="#202E37" />
<rect x="92" y="63" width="1" height="1" fill="#202E37" />
<rect x="93" y="63" width="1" height="1" fill="#202E37" />
<rect x="94" y="63" width="1" height="1" fill="#151D28" />
<rect x="95" y="63" width="1" height="1" fill="#151D28" />
<rect x="96" y="63" width="1" height="1" fill="#151D28" />
</svg>