<?xml version="1.0" encoding="UTF-8" ?>
<svg version="1.1" width="128" height="96" xmlns="http://www.w3.org/2000/svg" shape-rendering="crispEdges">
<rect x="82" y="40" width="1" height="1" fill="#DE9E41" />
<rect x="81" y="41" width="1" height="1" fill="#DE9E41" />
<rect x="82" y="41" width="1" height="1" fill="#E8C170" />
<rect x="83" y="41" width="1" height="1" fill="#DE9E41" />
<rect x="82" y="42" width="1" height="1" fill="#DE9E41" />
<rect x="12" y="44" width="1" height="1" fill="#201114" />
<rect x="13" y="44" width="1" height="1" fill="#E7D5B3" />
<rect x="14" y="44" width="1" height="1" fill="#E7D5B3" />
<rect x="15" y="44" width="1" height="1" fill="#E7D5B3" />
<rect x="16" y="44" width="1" height="1" fill="#E7D5B3" />
<rect x="17" y="44" width="1" height="1" fill="#E7D5B3" />
<rect x="18" y="44" width="1" height="1" fill="#E7D5B3" />
<rect x="19" y="44" width="1" height="1" fill="#E7D5B3" />
<rect x="20" y="44" width="1" height="1" fill="#E7D5B3" />
<rect x="21" y="44" width="1" height="1" fill="#201114" />
<rect x="12" y="45" width="1" height="1" fill="#201114" />
<rect x="13" y="45" width="1" height="1" fill="#E7D5B3" />
<rect x="14" y="45" width="1" height="1" fill="#E7D5B3" />
<rect x="15" y="45" width="1" height="1" fill="#E7D5B3" />
<rect x="16" y="45" width="1" height="1" fill="#E7D5B3" />
<rect x="17" y="45" width="1" height="1" fill="#E7D5B3" />
<rect x="18" y="45" width="1" height="1" fill="#E7D5B3" />
<rect x="19" y="45" width="1" height="1" fill="#E7D5B3" />
<rect x="20" y="45" width="1" height="1" fill="#E7D5B3" />
<rect x="21" y="45" width="1" height="1" fill="#201114" />
<rect x="11" y="46" width="1" height="1" fill="#201114" />
<rect x="12" y="46" width="1" height="1" fill="#201114" />
<rect x="13" y="46" width="1" height="1" fill="#E7D5B3" />
<rect x="14" y="46" width="1" height="1" fill="#E7D5B3" />
<rect x="15" y="46" width="1" height="1" fill="#E7D5B3" />
<rect x="16" y="46" width="1" height="1" fill="#E7D5B3" />
<rect x="17" y="46" width="1" height="1" fill="#E7D5B3" />
<rect x="18" y="46" width="1" height="1" fill="#E7D5B3" />
<rect x="19" y="46" width="1" height="1" fill="#E7D5B3" />
<rect x="20" y="46" width="1" height="1" fill="#E7D5B3" />
<rect x="21" y="46" width="1" height="1" fill="#201114" />
<rect x="22" y="46" width="1" height="1" fill="#201114" />
<rect x="11" y="47" width="1" height="1" fill="#201114" />
<rect x="12" y="47" width="1" height="1" fill="#201114" />
<rect x="13" y="47" width="1" height="1" fill="#E7D5B3" />
<rect x="14" y="47" width="1" height="1" fill="#E7D5B3" />
<rect x="15" y="47" width="1" height="1" fill="#E7D5B3" />
<rect x="16" y="47" width="1" height="1" fill="#E7D5B3" />
<rect x="17" y="47" width="1" height="1" fill="#E7D5B3" />
<rect x="18" y="47" width="1" height="1" fill="#E7D5B3" />
<rect x="19" y="47" width="1" height="1" fill="#E7D5B3" />
<rect x="20" y="47" width="1" height="1" fill="#E7D5B3" />
<rect x="21" y="47" width="1" height="1" fill="#201114" />
<rect x="22" y="47" width="1" height="1" fill="#201114" />
<rect x="7" y="48" width="1" height="1" fill="#C09473" />
<rect x="8" y="48" width="1" height="1" fill="#E7D5B3" />
<rect x="11" y="48" width="1" height="1" fill="#201114" />
<rect x="12" y="48" width="1" height="1" fill="#E7D5B3" />
<rect x="13" y="48" width="1" height="1" fill="#E7D5B3" />
<rect x="14" y="48" width="1" height="1" fill="#E7D5B3" />
<rect x="15" y="48" width="1" height="1" fill="#E7D5B3" />
<rect x="16" y="48" width="1" height="1" fill="#E7D5B3" />
<rect x="17" y="48" width="1" height="1" fill="#E7D5B3" />
<rect x="18" y="48" width="1" height="1" fill="#E7D5B3" />
<rect x="19" y="48" width="1" height="1" fill="#E7D5B3" />
<rect x="20" y="48" width="1" height="1" fill="#E7D5B3" />
<rect x="21" y="48" width="1" height="1" fill="#E7D5B3" />
<rect x="22" y="48" width="1" height="1" fill="#201114" />
<rect x="7" y="49" width="1" height="1" fill="#000000" />
<rect x="8" y="49" width="1" height="1" fill="#FFFFFF" />
<rect x="11" y="49" width="1" height="1" fill="#201114" />
<rect x="12" y="49" width="1" height="1" fill="#E7D5B3" />
<rect x="13" y="49" width="1" height="1" fill="#0A1018" />
<rect x="14" y="49" width="1" height="1" fill="#E7D5B3" />
<rect x="15" y="49" width="1" height="1" fill="#E7D5B3" />
<rect x="16" y="49" width="1" height="1" fill="#E7D5B3" />
<rect x="17" y="49" width="1" height="1" fill="#E7D5B3" />
<rect x="18" y="49" width="1" height="1" fill="#0A1018" />
<rect x="19" y="49" width="1" height="1" fill="#E7D5B3" />
<rect x="20" y="49" width="1" height="1" fill="#E7D5B3" />
<rect x="21" y="49" width="1" height="1" fill="#E7D5B3" />
<rect x="22" y="49" width="1" height="1" fill="#201114" />
<rect x="7" y="50" width="1" height="1" fill="#201611" />
<rect x="8" y="50" width="1" height="1" fill="#201611" />
<rect x="11" y="50" width="1" height="1" fill="#C09473" />
<rect x="12" y="50" width="1" height="1" fill="#E7D5B3" />
<rect x="13" y="50" width="1" height="1" fill="#E7D5B3" />
<rect x="14" y="50" width="1" height="1" fill="#E7D5B3" />
<rect x="15" y="50" width="1" height="1" fill="#E7D5B3" />
<rect x="16" y="50" width="1" height="1" fill="#E7D5B3" />
<rect x="17" y="50" width="1" height="1" fill="#E7D5B3" />
<rect x="18" y="50" width="1" height="1" fill="#E7D5B3" />
<rect x="19" y="50" width="1" height="1" fill="#E7D5B3" />
<rect x="20" y="50" width="1" height="1" fill="#E7D5B3" />
<rect x="21" y="50" width="1" height="1" fill="#E7D5B3" />
<rect x="22" y="50" width="1" height="1" fill="#C09473" />
<rect x="7" y="51" width="1" height="1" fill="#201611" />
<rect x="8" y="51" width="1" height="1" fill="#201611" />
<rect x="11" y="51" width="1" height="1" fill="#E7D5B3" />
<rect x="12" y="51" width="1" height="1" fill="#E7D5B3" />
<rect x="13" y="51" width="1" height="1" fill="#E7D5B3" />
<rect x="14" y="51" width="1" height="1" fill="#E7D5B3" />
<rect x="15" y="51" width="1" height="1" fill="#E7D5B3" />
<rect x="16" y="51" width="1" height="1" fill="#E7D5B3" />
<rect x="17" y="51" width="1" height="1" fill="#E7D5B3" />
<rect x="18" y="51" width="1" height="1" fill="#E7D5B3" />
<rect x="19" y="51" width="1" height="1" fill="#E7D5B3" />
<rect x="20" y="51" width="1" height="1" fill="#E7D5B3" />
<rect x="21" y="51" width="1" height="1" fill="#E7D5B3" />
<rect x="22" y="51" width="1" height="1" fill="#E7D5B3" />
<rect x="7" y="52" width="1" height="1" fill="#201611" />
<rect x="8" y="52" width="1" height="1" fill="#201611" />
<rect x="12" y="52" width="1" height="1" fill="#E7D5B3" />
<rect x="13" y="52" width="1" height="1" fill="#E7D5B3" />
<rect x="14" y="52" width="1" height="1" fill="#E7D5B3" />
<rect x="15" y="52" width="1" height="1" fill="#C09473" />
<rect x="16" y="52" width="1" height="1" fill="#C09473" />
<rect x="17" y="52" width="1" height="1" fill="#E7D5B3" />
<rect x="18" y="52" width="1" height="1" fill="#E7D5B3" />
<rect x="19" y="52" width="1" height="1" fill="#E7D5B3" />
<rect x="20" y="52" width="1" height="1" fill="#E7D5B3" />
<rect x="21" y="52" width="1" height="1" fill="#E7D5B3" />
<rect x="7" y="53" width="1" height="1" fill="#201611" />
<rect x="8" y="53" width="1" height="1" fill="#201611" />
<rect x="12" y="53" width="1" height="1" fill="#E7D5B3" />
<rect x="13" y="53" width="1" height="1" fill="#E7D5B3" />
<rect x="14" y="53" width="1" height="1" fill="#E7D5B3" />
<rect x="15" y="53" width="1" height="1" fill="#E7D5B3" />
<rect x="16" y="53" width="1" height="1" fill="#E7D5B3" />
<rect x="17" y="53" width="1" height="1" fill="#E7D5B3" />
<rect x="18" y="53" width="1" height="1" fill="#E7D5B3" />
<rect x="19" y="53" width="1" height="1" fill="#E7D5B3" />
<rect x="20" y="53" width="1" height="1" fill="#E7D5B3" />
<rect x="7" y="54" width="1" height="1" fill="#201611" />
<rect x="8" y="54" width="1" height="1" fill="#201611" />
<rect x="14" y="54" width="1" height="1" fill="#E7D5B3" />
<rect x="15" y="54" width="1" height="1" fill="#E7D5B3" />
<rect x="16" y="54" width="1" height="1" fill="#E7D5B3" />
<rect x="17" y="54" width="1" height="1" fill="#E7D5B3" />
<rect x="18" y="54" width="1" height="1" fill="#E7D5B3" />
<rect x="7" y="55" width="1" height="1" fill="#201611" />
<rect x="8" y="55" width="1" height="1" fill="#201611" />
<rect x="9" y="55" width="1" height="1" fill="#201611" />
<rect x="10" y="55" width="1" height="1" fill="#201611" />
<rect x="11" y="55" width="1" height="1" fill="#201611" />
<rect x="12" y="55" width="1" height="1" fill="#201611" />
<rect x="13" y="55" width="1" height="1" fill="#201611" />
<rect x="14" y="55" width="1" height="1" fill="#201611" />
<rect x="15" y="55" width="1" height="1" fill="#E7D5B3" />
<rect x="16" y="55" width="1" height="1" fill="#E7D5B3" />
<rect x="17" y="55" width="1" height="1" fill="#E7D5B3" />
<rect x="18" y="55" width="1" height="1" fill="#201611" />
<rect x="19" y="55" width="1" height="1" fill="#201611" />
<rect x="20" y="55" width="1" height="1" fill="#201611" />
<rect x="21" y="55" width="1" height="1" fill="#201611" />
<rect x="22" y="55" width="1" height="1" fill="#201611" />
<rect x="7" y="56" width="1" height="1" fill="#201611" />
<rect x="8" y="56" width="1" height="1" fill="#201611" />
<rect x="9" y="56" width="1" height="1" fill="#201611" />
<rect x="10" y="56" width="1" height="1" fill="#201611" />
<rect x="11" y="56" width="1" height="1" fill="#201611" />
<rect x="12" y="56" width="1" height="1" fill="#201611" />
<rect x="13" y="56" width="1" height="1" fill="#201611" />
<rect x="14" y="56" width="1" height="1" fill="#201611" />
<rect x="15" y="56" width="1" height="1" fill="#201611" />
<rect x="16" y="56" width="1" height="1" fill="#201611" />
<rect x="17" y="56" width="1" height="1" fill="#201611" />
<rect x="18" y="56" width="1" height="1" fill="#201611" />
<rect x="19" y="56" width="1" height="1" fill="#201611" />
<rect x="20" y="56" width="1" height="1" fill="#201611" />
<rect x="21" y="56" width="1" height="1" fill="#201611" />
<rect x="22" y="56" width="1" height="1" fill="#201611" />
<rect x="23" y="56" width="1" height="1" fill="#201611" />
<rect x="24" y="56" width="1" height="1" fill="#18120E" />
<rect x="7" y="57" width="1" height="1" fill="#201611" />
<rect x="8" y="57" width="1" height="1" fill="#201611" />
<rect x="9" y="57" width="1" height="1" fill="#201611" />
<rect x="10" y="57" width="1" height="1" fill="#201611" />
<rect x="11" y="57" width="1" height="1" fill="#201611" />
<rect x="12" y="57" width="1" height="1" fill="#201611" />
<rect x="13" y="57" width="1" height="1" fill="#201611" />
<rect x="14" y="57" width="1" height="1" fill="#201611" />
<rect x="15" y="57" width="1" height="1" fill="#201611" />
<rect x="16" y="57" width="1" height="1" fill="#201611" />
<rect x="17" y="57" width="1" height="1" fill="#201611" />
<rect x="18" y="57" width="1" height="1" fill="#201611" />
<rect x="19" y="57" width="1" height="1" fill="#201611" />
<rect x="20" y="57" width="1" height="1" fill="#201611" />
<rect x="21" y="57" width="1" height="1" fill="#201611" />
<rect x="22" y="57" width="1" height="1" fill="#201611" />
<rect x="23" y="57" width="1" height="1" fill="#201611" />
<rect x="24" y="57" width="1" height="1" fill="#18120E" />
<rect x="9" y="58" width="1" height="1" fill="#18120E" />
<rect x="10" y="58" width="1" height="1" fill="#18120E" />
<rect x="11" y="58" width="1" height="1" fill="#201611" />
<rect x="12" y="58" width="1" height="1" fill="#201611" />
<rect x="13" y="58" width="1" height="1" fill="#201611" />
<rect x="14" y="58" width="1" height="1" fill="#201611" />
<rect x="15" y="58" width="1" height="1" fill="#201611" />
<rect x="16" y="58" width="1" height="1" fill="#201611" />
<rect x="17" y="58" width="1" height="1" fill="#201611" />
<rect x="18" y="58" width="1" height="1" fill="#201611" />
<rect x="19" y="58" width="1" height="1" fill="#201611" />
<rect x="20" y="58" width="1" height="1" fill="#201611" />
<rect x="21" y="58" width="1" height="1" fill="#201611" />
<rect x="22" y="58" width="1" height="1" fill="#18120E" />
<rect x="23" y="58" width="1" height="1" fill="#201611" />
<rect x="24" y="58" width="1" height="1" fill="#18120E" />
<rect x="11" y="59" width="1" height="1" fill="#18120E" />
<rect x="12" y="59" width="1" height="1" fill="#201611" />
<rect x="13" y="59" width="1" height="1" fill="#201611" />
<rect x="14" y="59" width="1" height="1" fill="#201611" />
<rect x="15" y="59" width="1" height="1" fill="#201611" />
<rect x="16" y="59" width="1" height="1" fill="#201611" />
<rect x="17" y="59" width="1" height="1" fill="#201611" />
<rect x="18" y="59" width="1" height="1" fill="#201611" />
<rect x="19" y="59" width="1" height="1" fill="#201611" />
<rect x="20" y="59" width="1" height="1" fill="#201611" />
<rect x="21" y="59" width="1" height="1" fill="#18120E" />
<rect x="23" y="59" width="1" height="1" fill="#201611" />
<rect x="24" y="59" width="1" height="1" fill="#18120E" />
<rect x="10" y="60" width="1" height="1" fill="#18120E" />
<rect x="11" y="60" width="1" height="1" fill="#201611" />
<rect x="12" y="60" width="1" height="1" fill="#201611" />
<rect x="13" y="60" width="1" height="1" fill="#201611" />
<rect x="14" y="60" width="1" height="1" fill="#201611" />
<rect x="15" y="60" width="1" height="1" fill="#201611" />
<rect x="16" y="60" width="1" height="1" fill="#201611" />
<rect x="17" y="60" width="1" height="1" fill="#201611" />
<rect x="18" y="60" width="1" height="1" fill="#201611" />
<rect x="19" y="60" width="1" height="1" fill="#201611" />
<rect x="20" y="60" width="1" height="1" fill="#201611" />
<rect x="21" y="60" width="1" height="1" fill="#18120E" />
<rect x="23" y="60" width="1" height="1" fill="#201611" />
<rect x="24" y="60" width="1" height="1" fill="#18120E" />
<rect x="10" y="61" width="1" height="1" fill="#18120E" />
<rect x="11" y="61" width="1" height="1" fill="#201611" />
<rect x="12" y="61" width="1" height="1" fill="#201611" />
<rect x="13" y="61" width="1" height="1" fill="#201611" />
<rect x="14" y="61" width="1" height="1" fill="#201611" />
<rect x="15" y="61" width="1" height="1" fill="#201611" />
<rect x="16" y="61" width="1" height="1" fill="#201611" />
<rect x="17" y="61" width="1" height="1" fill="#201611" />
<rect x="18" y="61" width="1" height="1" fill="#201611" />
<rect x="19" y="61" width="1" height="1" fill="#201611" />
<rect x="20" y="61" width="1" height="1" fill="#201611" />
<rect x="21" y="61" width="1" height="1" fill="#18120E" />
<rect x="23" y="61" width="1" height="1" fill="#201611" />
<rect x="24" y="61" width="1" height="1" fill="#18120E" />
<rect x="10" y="62" width="1" height="1" fill="#18120E" />
<rect x="11" y="62" width="1" height="1" fill="#201611" />
<rect x="12" y="62" width="1" height="1" fill="#201611" />
<rect x="13" y="62" width="1" height="1" fill="#201611" />
<rect x="14" y="62" width="1" height="1" fill="#201611" />
<rect x="15" y="62" width="1" height="1" fill="#201611" />
<rect x="16" y="62" width="1" height="1" fill="#201611" />
<rect x="17" y="62" width="1" height="1" fill="#201611" />
<rect x="18" y="62" width="1" height="1" fill="#201611" />
<rect x="19" y="62" width="1" height="1" fill="#201611" />
<rect x="20" y="62" width="1" height="1" fill="#201611" />
<rect x="21" y="62" width="1" height="1" fill="#18120E" />
<rect x="23" y="62" width="1" height="1" fill="#201611" />
<rect x="24" y="62" width="1" height="1" fill="#18120E" />
<rect x="10" y="63" width="1" height="1" fill="#201611" />
<rect x="11" y="63" width="1" height="1" fill="#18120E" />
<rect x="12" y="63" width="1" height="1" fill="#18120E" />
<rect x="13" y="63" width="1" height="1" fill="#201611" />
<rect x="14" y="63" width="1" height="1" fill="#201611" />
<rect x="15" y="63" width="1" height="1" fill="#201611" />
<rect x="16" y="63" width="1" height="1" fill="#201611" />
<rect x="17" y="63" width="1" height="1" fill="#201611" />
<rect x="18" y="63" width="1" height="1" fill="#201611" />
<rect x="19" y="63" width="1" height="1" fill="#201611" />
<rect x="20" y="63" width="1" height="1" fill="#201611" />
<rect x="21" y="63" width="1" height="1" fill="#18120E" />
<rect x="23" y="63" width="1" height="1" fill="#201611" />
<rect x="24" y="63" width="1" height="1" fill="#18120E" />
<rect x="10" y="64" width="1" height="1" fill="#000000" />
<rect x="11" y="64" width="1" height="1" fill="#000000" />
<rect x="12" y="64" width="1" height="1" fill="#000000" />
<rect x="13" y="64" width="1" height="1" fill="#000000" />
<rect x="14" y="64" width="1" height="1" fill="#000000" />
<rect x="15" y="64" width="1" height="1" fill="#FFFFFF" />
<rect x="16" y="64" width="1" height="1" fill="#FFFFFF" />
<rect x="17" y="64" width="1" height="1" fill="#000000" />
<rect x="18" y="64" width="1" height="1" fill="#000000" />
<rect x="19" y="64" width="1" height="1" fill="#000000" />
<rect x="20" y="64" width="1" height="1" fill="#000000" />
<rect x="21" y="64" width="1" height="1" fill="#000000" />
<rect x="23" y="64" width="1" height="1" fill="#E7D5B3" />
<rect x="24" y="64" width="1" height="1" fill="#C09473" />
<rect x="11" y="65" width="1" height="1" fill="#0D0C14" />
<rect x="12" y="65" width="1" height="1" fill="#0D0C14" />
<rect x="13" y="65" width="1" height="1" fill="#0D0C14" />
<rect x="14" y="65" width="1" height="1" fill="#0D0C14" />
<rect x="15" y="65" width="1" height="1" fill="#0D0C14" />
<rect x="16" y="65" width="1" height="1" fill="#0D0C14" />
<rect x="17" y="65" width="1" height="1" fill="#0D0C14" />
<rect x="18" y="65" width="1" height="1" fill="#0D0C14" />
<rect x="19" y="65" width="1" height="1" fill="#0D0C14" />
<rect x="20" y="65" width="1" height="1" fill="#0D0C14" />
<rect x="21" y="65" width="1" height="1" fill="#08070C" />
<rect x="12" y="66" width="1" height="1" fill="#0D0C14" />
<rect x="13" y="66" width="1" height="1" fill="#0D0C14" />
<rect x="14" y="66" width="1" height="1" fill="#0D0C14" />
<rect x="15" y="66" width="1" height="1" fill="#0D0C14" />
<rect x="16" y="66" width="1" height="1" fill="#0D0C14" />
<rect x="17" y="66" width="1" height="1" fill="#0D0C14" />
<rect x="18" y="66" width="1" height="1" fill="#08070C" />
<rect x="19" y="66" width="1" height="1" fill="#0D0C14" />
<rect x="20" y="66" width="1" height="1" fill="#0D0C14" />
<rect x="21" y="66" width="1" height="1" fill="#08070C" />
<rect x="12" y="67" width="1" height="1" fill="#08070C" />
<rect x="13" y="67" width="1" height="1" fill="#0D0C14" />
<rect x="14" y="67" width="1" height="1" fill="#0D0C14" />
<rect x="15" y="67" width="1" height="1" fill="#0D0C14" />
<rect x="16" y="67" width="1" height="1" fill="#0D0C14" />
<rect x="17" y="67" width="1" height="1" fill="#0D0C14" />
<rect x="18" y="67" width="1" height="1" fill="#0D0C14" />
<rect x="19" y="67" width="1" height="1" fill="#0D0C14" />
<rect x="20" y="67" width="1" height="1" fill="#0D0C14" />
<rect x="21" y="67" width="1" height="1" fill="#08070C" />
<rect x="12" y="68" width="1" height="1" fill="#0D0C14" />
<rect x="13" y="68" width="1" height="1" fill="#0D0C14" />
<rect x="14" y="68" width="1" height="1" fill="#08070C" />
<rect x="19" y="68" width="1" height="1" fill="#0D0C14" />
<rect x="20" y="68" width="1" height="1" fill="#0D0C14" />
<rect x="21" y="68" width="1" height="1" fill="#08070C" />
<rect x="12" y="69" width="1" height="1" fill="#0D0C14" />
<rect x="13" y="69" width="1" height="1" fill="#0D0C14" />
<rect x="14" y="69" width="1" height="1" fill="#08070C" />
<rect x="19" y="69" width="1" height="1" fill="#0D0C14" />
<rect x="20" y="69" width="1" height="1" fill="#0D0C14" />
<rect x="21" y="69" width="1" height="1" fill="#08070C" />
<rect x="12" y="70" width="1" height="1" fill="#0D0C14" />
<rect x="13" y="70" width="1" height="1" fill="#0D0C14" />
<rect x="14" y="70" width="1" height="1" fill="#08070C" />
<rect x="19" y="70" width="1" height="1" fill="#0D0C14" />
<rect x="20" y="70" width="1" height="1" fill="#0D0C14" />
<rect x="21" y="70" width="1" height="1" fill="#08070C" />
<rect x="12" y="71" width="1" height="1" fill="#08070C" />
<rect x="13" y="71" width="1" height="1" fill="#0D0C14" />
<rect x="14" y="71" width="1" height="1" fill="#08070C" />
<rect x="19" y="71" width="1" height="1" fill="#0D0C14" />
<rect x="20" y="71" width="1" height="1" fill="#0D0C14" />
<rect x="21" y="71" width="1" height="1" fill="#08070C" />
<rect x="12" y="72" width="1" height="1" fill="#0D0C14" />
<rect x="13" y="72" width="1" height="1" fill="#0D0C14" />
<rect x="14" y="72" width="1" height="1" fill="#08070C" />
<rect x="19" y="72" width="1" height="1" fill="#08070C" />
<rect x="20" y="72" width="1" height="1" fill="#0D0C14" />
<rect x="21" y="72" width="1" height="1" fill="#08070C" />
<rect x="12" y="73" width="1" height="1" fill="#0D0C14" />
<rect x="13" y="73" width="1" height="1" fill="#0D0C14" />
<rect x="14" y="73" width="1" height="1" fill="#08070C" />
<rect x="19" y="73" width="1" height="1" fill="#0D0C14" />
<rect x="20" y="73" width="1" height="1" fill="#0D0C14" />
<rect x="21" y="73" width="1" height="1" fill="#08070C" />
<rect x="12" y="74" width="1" height="1" fill="#0D0C14" />
<rect x="13" y="74" width="1" height="1" fill="#0D0C14" />
<rect x="14" y="74" width="1" height="1" fill="#08070C" />
<rect x="19" y="74" width="1" height="1" fill="#0D0C14" />
<rect x="20" y="74" width="1" height="1" fill="#0D0C14" />
<rect x="21" y="74" width="1" height="1" fill="#08070C" />
<rect x="12" y="75" width="1" height="1" fill="#08070C" />
<rect x="13" y="75" width="1" height="1" fill="#08070C" />
<rect x="14" y="75" width="1" height="1" fill="#08070C" />
<rect x="19" y="75" width="1" height="1" fill="#08070C" />
<rect x="20" y="75" width="1" height="1" fill="#08070C" />
<rect x="21" y="75" width="1" height="1" fill="#08070C" />
<rect x="11" y="76" width="1" height="1" fill="#000000" />
<rect x="12" y="76" width="1" height="1" fill="#000000" />
<rect x="13" y="76" width="1" height="1" fill="#000000" />
<rect x="14" y="76" width="1" height="1" fill="#000000" />
<rect x="18" y="76" width="1" height="1" fill="#000000" />
<rect x="19" y="76" width="1" height="1" fill="#000000" />
<rect x="20" y="76" width="1" height="1" fill="#000000" />
<rect x="21" y="76" width="1" height="1" fill="#000000" />
<rect x="10" y="77" width="1" height="1" fill="#000000" />
<rect x="11" y="77" width="1" height="1" fill="#000000" />
<rect x="12" y="77" width="1" height="1" fill="#000000" />
<rect x="13" y="77" width="1" height="1" fill="#000000" />
<rect x="14" y="77" width="1" height="1" fill="#000000" />
<rect x="17" y="77" width="1" height="1" fill="#000000" />
<rect x="18" y="77" width="1" height="1" fill="#000000" />
<rect x="19" y="77" width="1" height="1" fill="#000000" />
<rect x="20" y="77" width="1" height="1" fill="#000000" />
<rect x="21" y="77" width="1" height="1" fill="#000000" />
<rect x="10" y="78" width="1" height="1" fill="#000000" />
<rect x="11" y="78" width="1" height="1" fill="#000000" />
<rect x="12" y="78" width="1" height="1" fill="#000000" />
<rect x="13" y="78" width="1" height="1" fill="#000000" />
<rect x="14" y="78" width="1" height="1" fill="#000000" />
<rect x="17" y="78" width="1" height="1" fill="#000000" />
<rect x="18" y="78" width="1" height="1" fill="#000000" />
<rect x="19" y="78" width="1" height="1" fill="#000000" />
<rect x="20" y="78" width="1" height="1" fill="#000000" />
<rect x="21" y="78" width="1" height="1" fill="#000000" />
</svg>