<?xml version="1.0" encoding="UTF-8" ?>
<svg version="1.1" width="128" height="96" xmlns="http://www.w3.org/2000/svg" shape-rendering="crispEdges">
<rect x="44" y="39" width="1" height="1" fill="#DE9E41" />
<rect x="50" y="39" width="1" height="1" fill="#DE9E41" />
<rect x="43" y="40" width="1" height="1" fill="#DE9E41" />
<rect x="44" y="40" width="1" height="1" fill="#E8C170" />
<rect x="45" y="40" width="1" height="1" fill="#DE9E41" />
<rect x="49" y="40" width="1" height="1" fill="#DE9E41" />
<rect x="50" y="40" width="1" height="1" fill="#E8C170" />
<rect x="51" y="40" width="1" height="1" fill="#DE9E41" />
<rect x="44" y="41" width="1" height="1" fill="#DE9E41" />
<rect x="50" y="41" width="1" height="1" fill="#DE9E41" />
<rect x="53" y="41" width="1" height="1" fill="#DE9E41" />
<rect x="52" y="42" width="1" height="1" fill="#DE9E41" />
<rect x="53" y="42" width="1" height="1" fill="#E8C170" />
<rect x="54" y="42" width="1" height="1" fill="#DE9E41" />
<rect x="45" y="43" width="1" height="1" fill="#201114" />
<rect x="46" y="43" width="1" height="1" fill="#201114" />
<rect x="47" y="43" width="1" height="1" fill="#201114" />
<rect x="48" y="43" width="1" height="1" fill="#201114" />
<rect x="49" y="43" width="1" height="1" fill="#201114" />
<rect x="50" y="43" width="1" height="1" fill="#201114" />
<rect x="53" y="43" width="1" height="1" fill="#DE9E41" />
<rect x="44" y="44" width="1" height="1" fill="#201114" />
<rect x="45" y="44" width="1" height="1" fill="#201114" />
<rect x="46" y="44" width="1" height="1" fill="#201114" />
<rect x="47" y="44" width="1" height="1" fill="#201114" />
<rect x="48" y="44" width="1" height="1" fill="#201114" />
<rect x="49" y="44" width="1" height="1" fill="#201114" />
<rect x="50" y="44" width="1" height="1" fill="#201114" />
<rect x="51" y="44" width="1" height="1" fill="#201114" />
<rect x="43" y="45" width="1" height="1" fill="#201114" />
<rect x="44" y="45" width="1" height="1" fill="#201114" />
<rect x="45" y="45" width="1" height="1" fill="#201114" />
<rect x="46" y="45" width="1" height="1" fill="#201114" />
<rect x="47" y="45" width="1" height="1" fill="#201114" />
<rect x="48" y="45" width="1" height="1" fill="#201114" />
<rect x="49" y="45" width="1" height="1" fill="#201114" />
<rect x="50" y="45" width="1" height="1" fill="#201114" />
<rect x="51" y="45" width="1" height="1" fill="#201114" />
<rect x="52" y="45" width="1" height="1" fill="#201114" />
<rect x="43" y="46" width="1" height="1" fill="#201114" />
<rect x="44" y="46" width="1" height="1" fill="#201114" />
<rect x="45" y="46" width="1" height="1" fill="#201114" />
<rect x="46" y="46" width="1" height="1" fill="#201114" />
<rect x="47" y="46" width="1" height="1" fill="#201114" />
<rect x="48" y="46" width="1" height="1" fill="#201114" />
<rect x="49" y="46" width="1" height="1" fill="#201114" />
<rect x="50" y="46" width="1" height="1" fill="#201114" />
<rect x="51" y="46" width="1" height="1" fill="#201114" />
<rect x="52" y="46" width="1" height="1" fill="#201114" />
<rect x="42" y="47" width="1" height="1" fill="#201114" />
<rect x="43" y="47" width="1" height="1" fill="#201114" />
<rect x="44" y="47" width="1" height="1" fill="#201114" />
<rect x="45" y="47" width="1" height="1" fill="#201114" />
<rect x="46" y="47" width="1" height="1" fill="#201114" />
<rect x="47" y="47" width="1" height="1" fill="#201114" />
<rect x="48" y="47" width="1" height="1" fill="#201114" />
<rect x="49" y="47" width="1" height="1" fill="#201114" />
<rect x="50" y="47" width="1" height="1" fill="#201114" />
<rect x="51" y="47" width="1" height="1" fill="#201114" />
<rect x="52" y="47" width="1" height="1" fill="#201114" />
<rect x="53" y="47" width="1" height="1" fill="#201114" />
<rect x="42" y="48" width="1" height="1" fill="#201114" />
<rect x="43" y="48" width="1" height="1" fill="#201114" />
<rect x="44" y="48" width="1" height="1" fill="#E7D5B3" />
<rect x="45" y="48" width="1" height="1" fill="#E7D5B3" />
<rect x="46" y="48" width="1" height="1" fill="#201114" />
<rect x="47" y="48" width="1" height="1" fill="#201114" />
<rect x="48" y="48" width="1" height="1" fill="#E7D5B3" />
<rect x="49" y="48" width="1" height="1" fill="#E7D5B3" />
<rect x="50" y="48" width="1" height="1" fill="#E7D5B3" />
<rect x="51" y="48" width="1" height="1" fill="#E7D5B3" />
<rect x="52" y="48" width="1" height="1" fill="#201114" />
<rect x="53" y="48" width="1" height="1" fill="#201114" />
<rect x="39" y="49" width="1" height="1" fill="#E7D5B3" />
<rect x="40" y="49" width="1" height="1" fill="#E7D5B3" />
<rect x="42" y="49" width="1" height="1" fill="#201114" />
<rect x="43" y="49" width="1" height="1" fill="#E7D5B3" />
<rect x="44" y="49" width="1" height="1" fill="#E7D5B3" />
<rect x="45" y="49" width="1" height="1" fill="#E7D5B3" />
<rect x="46" y="49" width="1" height="1" fill="#E7D5B3" />
<rect x="47" y="49" width="1" height="1" fill="#201114" />
<rect x="48" y="49" width="1" height="1" fill="#E7D5B3" />
<rect x="49" y="49" width="1" height="1" fill="#E7D5B3" />
<rect x="50" y="49" width="1" height="1" fill="#E7D5B3" />
<rect x="51" y="49" width="1" height="1" fill="#E7D5B3" />
<rect x="52" y="49" width="1" height="1" fill="#E7D5B3" />
<rect x="53" y="49" width="1" height="1" fill="#201114" />
<rect x="56" y="49" width="1" height="1" fill="#E7D5B3" />
<rect x="57" y="49" width="1" height="1" fill="#E7D5B3" />
<rect x="38" y="50" width="1" height="1" fill="#0C131C" />
<rect x="39" y="50" width="1" height="1" fill="#0C131C" />
<rect x="40" y="50" width="1" height="1" fill="#E7D5B3" />
<rect x="42" y="50" width="1" height="1" fill="#201114" />
<rect x="43" y="50" width="1" height="1" fill="#E7D5B3" />
<rect x="44" y="50" width="1" height="1" fill="#E7D5B3" />
<rect x="45" y="50" width="1" height="1" fill="#0A1018" />
<rect x="46" y="50" width="1" height="1" fill="#E7D5B3" />
<rect x="47" y="50" width="1" height="1" fill="#E7D5B3" />
<rect x="48" y="50" width="1" height="1" fill="#E7D5B3" />
<rect x="49" y="50" width="1" height="1" fill="#E7D5B3" />
<rect x="50" y="50" width="1" height="1" fill="#0A1018" />
<rect x="51" y="50" width="1" height="1" fill="#E7D5B3" />
<rect x="52" y="50" width="1" height="1" fill="#E7D5B3" />
<rect x="53" y="50" width="1" height="1" fill="#201114" />
<rect x="56" y="50" width="1" height="1" fill="#E7D5B3" />
<rect x="57" y="50" width="1" height="1" fill="#0C131C" />
<rect x="58" y="50" width="1" height="1" fill="#0C131C" />
<rect x="38" y="51" width="1" height="1" fill="#0C131C" />
<rect x="39" y="51" width="1" height="1" fill="#0C131C" />
<rect x="42" y="51" width="1" height="1" fill="#C09473" />
<rect x="43" y="51" width="1" height="1" fill="#E7D5B3" />
<rect x="44" y="51" width="1" height="1" fill="#E7D5B3" />
<rect x="45" y="51" width="1" height="1" fill="#E7D5B3" />
<rect x="46" y="51" width="1" height="1" fill="#E7D5B3" />
<rect x="47" y="51" width="1" height="1" fill="#E7D5B3" />
<rect x="48" y="51" width="1" height="1" fill="#E7D5B3" />
<rect x="49" y="51" width="1" height="1" fill="#E7D5B3" />
<rect x="50" y="51" width="1" height="1" fill="#E7D5B3" />
<rect x="51" y="51" width="1" height="1" fill="#E7D5B3" />
<rect x="52" y="51" width="1" height="1" fill="#E7D5B3" />
<rect x="53" y="51" width="1" height="1" fill="#C09473" />
<rect x="57" y="51" width="1" height="1" fill="#0C131C" />
<rect x="58" y="51" width="1" height="1" fill="#0C131C" />
<rect x="37" y="52" width="1" height="1" fill="#0C131C" />
<rect x="38" y="52" width="1" height="1" fill="#0C131C" />
<rect x="42" y="52" width="1" height="1" fill="#E7D5B3" />
<rect x="43" y="52" width="1" height="1" fill="#E7D5B3" />
<rect x="44" y="52" width="1" height="1" fill="#E7D5B3" />
<rect x="45" y="52" width="1" height="1" fill="#E7D5B3" />
<rect x="46" y="52" width="1" height="1" fill="#E7D5B3" />
<rect x="47" y="52" width="1" height="1" fill="#E7D5B3" />
<rect x="48" y="52" width="1" height="1" fill="#E7D5B3" />
<rect x="49" y="52" width="1" height="1" fill="#E7D5B3" />
<rect x="50" y="52" width="1" height="1" fill="#E7D5B3" />
<rect x="51" y="52" width="1" height="1" fill="#E7D5B3" />
<rect x="52" y="52" width="1" height="1" fill="#E7D5B3" />
<rect x="53" y="52" width="1" height="1" fill="#E7D5B3" />
<rect x="58" y="52" width="1" height="1" fill="#0A1018" />
<rect x="59" y="52" width="1" height="1" fill="#0C131C" />
<rect x="37" y="53" width="1" height="1" fill="#0C131C" />
<rect x="38" y="53" width="1" height="1" fill="#0C131C" />
<rect x="39" y="53" width="1" height="1" fill="#0C131C" />
<rect x="43" y="53" width="1" height="1" fill="#E7D5B3" />
<rect x="44" y="53" width="1" height="1" fill="#E7D5B3" />
<rect x="45" y="53" width="1" height="1" fill="#E7D5B3" />
<rect x="46" y="53" width="1" height="1" fill="#E7D5B3" />
<rect x="47" y="53" width="1" height="1" fill="#C09473" />
<rect x="48" y="53" width="1" height="1" fill="#C09473" />
<rect x="49" y="53" width="1" height="1" fill="#E7D5B3" />
<rect x="50" y="53" width="1" height="1" fill="#E7D5B3" />
<rect x="51" y="53" width="1" height="1" fill="#E7D5B3" />
<rect x="52" y="53" width="1" height="1" fill="#E7D5B3" />
<rect x="57" y="53" width="1" height="1" fill="#0A1018" />
<rect x="58" y="53" width="1" height="1" fill="#0A1018" />
<rect x="59" y="53" width="1" height="1" fill="#0C131C" />
<rect x="38" y="54" width="1" height="1" fill="#0C131C" />
<rect x="39" y="54" width="1" height="1" fill="#0C131C" />
<rect x="40" y="54" width="1" height="1" fill="#0C131C" />
<rect x="44" y="54" width="1" height="1" fill="#E7D5B3" />
<rect x="45" y="54" width="1" height="1" fill="#E7D5B3" />
<rect x="46" y="54" width="1" height="1" fill="#E7D5B3" />
<rect x="47" y="54" width="1" height="1" fill="#C09473" />
<rect x="48" y="54" width="1" height="1" fill="#C09473" />
<rect x="49" y="54" width="1" height="1" fill="#E7D5B3" />
<rect x="50" y="54" width="1" height="1" fill="#E7D5B3" />
<rect x="51" y="54" width="1" height="1" fill="#E7D5B3" />
<rect x="56" y="54" width="1" height="1" fill="#0A1018" />
<rect x="57" y="54" width="1" height="1" fill="#0A1018" />
<rect x="58" y="54" width="1" height="1" fill="#0C131C" />
<rect x="39" y="55" width="1" height="1" fill="#0C131C" />
<rect x="40" y="55" width="1" height="1" fill="#0C131C" />
<rect x="41" y="55" width="1" height="1" fill="#0C131C" />
<rect x="46" y="55" width="1" height="1" fill="#E7D5B3" />
<rect x="47" y="55" width="1" height="1" fill="#E7D5B3" />
<rect x="48" y="55" width="1" height="1" fill="#E7D5B3" />
<rect x="49" y="55" width="1" height="1" fill="#E7D5B3" />
<rect x="55" y="55" width="1" height="1" fill="#0A1018" />
<rect x="56" y="55" width="1" height="1" fill="#0A1018" />
<rect x="57" y="55" width="1" height="1" fill="#0C131C" />
<rect x="40" y="56" width="1" height="1" fill="#0C131C" />
<rect x="41" y="56" width="1" height="1" fill="#0C131C" />
<rect x="42" y="56" width="1" height="1" fill="#0A1018" />
<rect x="43" y="56" width="1" height="1" fill="#0A1018" />
<rect x="44" y="56" width="1" height="1" fill="#0A1018" />
<rect x="45" y="56" width="1" height="1" fill="#0A1018" />
<rect x="46" y="56" width="1" height="1" fill="#577277" />
<rect x="47" y="56" width="1" height="1" fill="#E7D5B3" />
<rect x="48" y="56" width="1" height="1" fill="#E7D5B3" />
<rect x="49" y="56" width="1" height="1" fill="#577277" />
<rect x="50" y="56" width="1" height="1" fill="#0A1018" />
<rect x="51" y="56" width="1" height="1" fill="#0A1018" />
<rect x="52" y="56" width="1" height="1" fill="#0A1018" />
<rect x="53" y="56" width="1" height="1" fill="#0A1018" />
<rect x="54" y="56" width="1" height="1" fill="#0A1018" />
<rect x="55" y="56" width="1" height="1" fill="#0A1018" />
<rect x="56" y="56" width="1" height="1" fill="#0C131C" />
<rect x="41" y="57" width="1" height="1" fill="#0C131C" />
<rect x="42" y="57" width="1" height="1" fill="#0A1018" />
<rect x="43" y="57" width="1" height="1" fill="#0A1018" />
<rect x="44" y="57" width="1" height="1" fill="#0A1018" />
<rect x="45" y="57" width="1" height="1" fill="#0A1018" />
<rect x="46" y="57" width="1" height="1" fill="#0A1018" />
<rect x="47" y="57" width="1" height="1" fill="#577277" />
<rect x="48" y="57" width="1" height="1" fill="#577277" />
<rect x="49" y="57" width="1" height="1" fill="#0A1018" />
<rect x="50" y="57" width="1" height="1" fill="#0A1018" />
<rect x="51" y="57" width="1" height="1" fill="#0A1018" />
<rect x="52" y="57" width="1" height="1" fill="#0A1018" />
<rect x="53" y="57" width="1" height="1" fill="#0A1018" />
<rect x="54" y="57" width="1" height="1" fill="#0A1018" />
<rect x="55" y="57" width="1" height="1" fill="#0A1018" />
<rect x="42" y="58" width="1" height="1" fill="#0A1018" />
<rect x="43" y="58" width="1" height="1" fill="#0A1018" />
<rect x="44" y="58" width="1" height="1" fill="#0A1018" />
<rect x="45" y="58" width="1" height="1" fill="#0A1018" />
<rect x="46" y="58" width="1" height="1" fill="#0A1018" />
<rect x="47" y="58" width="1" height="1" fill="#0A1018" />
<rect x="48" y="58" width="1" height="1" fill="#0A1018" />
<rect x="49" y="58" width="1" height="1" fill="#0A1018" />
<rect x="50" y="58" width="1" height="1" fill="#0A1018" />
<rect x="51" y="58" width="1" height="1" fill="#0A1018" />
<rect x="52" y="58" width="1" height="1" fill="#0A1018" />
<rect x="53" y="58" width="1" height="1" fill="#0A1018" />
<rect x="54" y="58" width="1" height="1" fill="#0A1018" />
<rect x="44" y="59" width="1" height="1" fill="#0A1018" />
<rect x="45" y="59" width="1" height="1" fill="#0A1018" />
<rect x="46" y="59" width="1" height="1" fill="#0A1018" />
<rect x="47" y="59" width="1" height="1" fill="#0A1018" />
<rect x="48" y="59" width="1" height="1" fill="#0A1018" />
<rect x="49" y="59" width="1" height="1" fill="#0A1018" />
<rect x="50" y="59" width="1" height="1" fill="#0A1018" />
<rect x="51" y="59" width="1" height="1" fill="#0A1018" />
<rect x="52" y="59" width="1" height="1" fill="#0C131C" />
<rect x="44" y="60" width="1" height="1" fill="#0A1018" />
<rect x="45" y="60" width="1" height="1" fill="#0A1018" />
<rect x="46" y="60" width="1" height="1" fill="#0A1018" />
<rect x="47" y="60" width="1" height="1" fill="#0A1018" />
<rect x="48" y="60" width="1" height="1" fill="#0A1018" />
<rect x="49" y="60" width="1" height="1" fill="#0A1018" />
<rect x="50" y="60" width="1" height="1" fill="#0A1018" />
<rect x="51" y="60" width="1" height="1" fill="#0A1018" />
<rect x="52" y="60" width="1" height="1" fill="#0C131C" />
<rect x="44" y="61" width="1" height="1" fill="#0A1018" />
<rect x="45" y="61" width="1" height="1" fill="#0A1018" />
<rect x="46" y="61" width="1" height="1" fill="#0A1018" />
<rect x="47" y="61" width="1" height="1" fill="#0A1018" />
<rect x="48" y="61" width="1" height="1" fill="#0A1018" />
<rect x="49" y="61" width="1" height="1" fill="#0A1018" />
<rect x="50" y="61" width="1" height="1" fill="#0A1018" />
<rect x="51" y="61" width="1" height="1" fill="#0A1018" />
<rect x="52" y="61" width="1" height="1" fill="#0C131C" />
<rect x="44" y="62" width="1" height="1" fill="#0A1018" />
<rect x="45" y="62" width="1" height="1" fill="#0A1018" />
<rect x="46" y="62" width="1" height="1" fill="#0A1018" />
<rect x="47" y="62" width="1" height="1" fill="#0A1018" />
<rect x="48" y="62" width="1" height="1" fill="#0A1018" />
<rect x="49" y="62" width="1" height="1" fill="#0A1018" />
<rect x="50" y="62" width="1" height="1" fill="#0A1018" />
<rect x="51" y="62" width="1" height="1" fill="#0A1018" />
<rect x="52" y="62" width="1" height="1" fill="#0C131C" />
<rect x="44" y="63" width="1" height="1" fill="#0A1018" />
<rect x="45" y="63" width="1" height="1" fill="#0A1018" />
<rect x="46" y="63" width="1" height="1" fill="#0A1018" />
<rect x="47" y="63" width="1" height="1" fill="#0A1018" />
<rect x="48" y="63" width="1" height="1" fill="#0A1018" />
<rect x="49" y="63" width="1" height="1" fill="#0A1018" />
<rect x="50" y="63" width="1" height="1" fill="#0A1018" />
<rect x="51" y="63" width="1" height="1" fill="#0A1018" />
<rect x="52" y="63" width="1" height="1" fill="#0C131C" />
<rect x="44" y="64" width="1" height="1" fill="#0A1018" />
<rect x="45" y="64" width="1" height="1" fill="#0A1018" />
<rect x="46" y="64" width="1" height="1" fill="#0A1018" />
<rect x="47" y="64" width="1" height="1" fill="#0A1018" />
<rect x="48" y="64" width="1" height="1" fill="#0A1018" />
<rect x="49" y="64" width="1" height="1" fill="#0A1018" />
<rect x="50" y="64" width="1" height="1" fill="#0A1018" />
<rect x="51" y="64" width="1" height="1" fill="#0A1018" />
<rect x="52" y="64" width="1" height="1" fill="#0C131C" />
<rect x="44" y="65" width="1" height="1" fill="#000000" />
<rect x="45" y="65" width="1" height="1" fill="#000000" />
<rect x="46" y="65" width="1" height="1" fill="#000000" />
<rect x="47" y="65" width="1" height="1" fill="#EBEDE9" />
<rect x="48" y="65" width="1" height="1" fill="#EBEDE9" />
<rect x="49" y="65" width="1" height="1" fill="#000000" />
<rect x="50" y="65" width="1" height="1" fill="#000000" />
<rect x="51" y="65" width="1" height="1" fill="#000000" />
<rect x="52" y="65" width="1" height="1" fill="#000000" />
<rect x="44" y="66" width="1" height="1" fill="#512822" />
<rect x="45" y="66" width="1" height="1" fill="#512822" />
<rect x="46" y="66" width="1" height="1" fill="#512822" />
<rect x="47" y="66" width="1" height="1" fill="#512822" />
<rect x="48" y="66" width="1" height="1" fill="#512822" />
<rect x="49" y="66" width="1" height="1" fill="#512822" />
<rect x="50" y="66" width="1" height="1" fill="#512822" />
<rect x="51" y="66" width="1" height="1" fill="#512822" />
<rect x="52" y="66" width="1" height="1" fill="#1C0F0D" />
<rect x="44" y="67" width="1" height="1" fill="#512822" />
<rect x="45" y="67" width="1" height="1" fill="#512822" />
<rect x="46" y="67" width="1" height="1" fill="#512822" />
<rect x="47" y="67" width="1" height="1" fill="#512822" />
<rect x="48" y="67" width="1" height="1" fill="#512822" />
<rect x="49" y="67" width="1" height="1" fill="#512822" />
<rect x="50" y="67" width="1" height="1" fill="#512822" />
<rect x="51" y="67" width="1" height="1" fill="#512822" />
<rect x="52" y="67" width="1" height="1" fill="#1C0F0D" />
<rect x="44" y="68" width="1" height="1" fill="#512822" />
<rect x="45" y="68" width="1" height="1" fill="#512822" />
<rect x="46" y="68" width="1" height="1" fill="#512822" />
<rect x="47" y="68" width="1" height="1" fill="#512822" />
<rect x="48" y="68" width="1" height="1" fill="#512822" />
<rect x="49" y="68" width="1" height="1" fill="#512822" />
<rect x="50" y="68" width="1" height="1" fill="#512822" />
<rect x="51" y="68" width="1" height="1" fill="#512822" />
<rect x="52" y="68" width="1" height="1" fill="#1C0F0D" />
<rect x="44" y="69" width="1" height="1" fill="#512822" />
<rect x="45" y="69" width="1" height="1" fill="#512822" />
<rect x="46" y="69" width="1" height="1" fill="#2D1714" />
<rect x="50" y="69" width="1" height="1" fill="#512822" />
<rect x="51" y="69" width="1" height="1" fill="#512822" />
<rect x="52" y="69" width="1" height="1" fill="#1C0F0D" />
<rect x="44" y="70" width="1" height="1" fill="#1C0F0D" />
<rect x="45" y="70" width="1" height="1" fill="#512822" />
<rect x="46" y="70" width="1" height="1" fill="#2D1714" />
<rect x="50" y="70" width="1" height="1" fill="#1C0F0D" />
<rect x="51" y="70" width="1" height="1" fill="#512822" />
<rect x="52" y="70" width="1" height="1" fill="#1C0F0D" />
<rect x="44" y="71" width="1" height="1" fill="#512822" />
<rect x="45" y="71" width="1" height="1" fill="#512822" />
<rect x="46" y="71" width="1" height="1" fill="#2D1714" />
<rect x="50" y="71" width="1" height="1" fill="#512822" />
<rect x="51" y="71" width="1" height="1" fill="#512822" />
<rect x="52" y="71" width="1" height="1" fill="#1C0F0D" />
<rect x="44" y="72" width="1" height="1" fill="#512822" />
<rect x="45" y="72" width="1" height="1" fill="#512822" />
<rect x="46" y="72" width="1" height="1" fill="#2D1714" />
<rect x="50" y="72" width="1" height="1" fill="#512822" />
<rect x="51" y="72" width="1" height="1" fill="#512822" />
<rect x="52" y="72" width="1" height="1" fill="#1C0F0D" />
<rect x="44" y="73" width="1" height="1" fill="#512822" />
<rect x="45" y="73" width="1" height="1" fill="#512822" />
<rect x="46" y="73" width="1" height="1" fill="#2D1714" />
<rect x="50" y="73" width="1" height="1" fill="#512822" />
<rect x="51" y="73" width="1" height="1" fill="#512822" />
<rect x="52" y="73" width="1" height="1" fill="#1C0F0D" />
<rect x="44" y="74" width="1" height="1" fill="#512822" />
<rect x="45" y="74" width="1" height="1" fill="#512822" />
<rect x="46" y="74" width="1" height="1" fill="#2D1714" />
<rect x="50" y="74" width="1" height="1" fill="#1C0F0D" />
<rect x="51" y="74" width="1" height="1" fill="#512822" />
<rect x="52" y="74" width="1" height="1" fill="#1C0F0D" />
<rect x="44" y="75" width="1" height="1" fill="#2D1714" />
<rect x="45" y="75" width="1" height="1" fill="#2D1714" />
<rect x="46" y="75" width="1" height="1" fill="#2D1714" />
<rect x="50" y="75" width="1" height="1" fill="#2D1714" />
<rect x="51" y="75" width="1" height="1" fill="#2D1714" />
<rect x="52" y="75" width="1" height="1" fill="#1C0F0D" />
<rect x="43" y="76" width="1" height="1" fill="#000000" />
<rect x="44" y="76" width="1" height="1" fill="#000000" />
<rect x="45" y="76" width="1" height="1" fill="#000000" />
<rect x="46" y="76" width="1" height="1" fill="#000000" />
<rect x="49" y="76" width="1" height="1" fill="#000000" />
<rect x="50" y="76" width="1" height="1" fill="#000000" />
<rect x="51" y="76" width="1" height="1" fill="#000000" />
<rect x="52" y="76" width="1" height="1" fill="#000000" />
<rect x="42" y="77" width="1" height="1" fill="#000000" />
<rect x="43" y="77" width="1" height="1" fill="#000000" />
<rect x="44" y="77" width="1" height="1" fill="#000000" />
<rect x="45" y="77" width="1" height="1" fill="#000000" />
<rect x="46" y="77" width="1" height="1" fill="#000000" />
<rect x="48" y="77" width="1" height="1" fill="#000000" />
<rect x="49" y="77" width="1" height="1" fill="#000000" />
<rect x="50" y="77" width="1" height="1" fill="#000000" />
<rect x="51" y="77" width="1" height="1" fill="#000000" />
<rect x="52" y="77" width="1" height="1" fill="#000000" />
<rect x="42" y="78" width="1" height="1" fill="#000000" />
<rect x="43" y="78" width="1" height="1" fill="#000000" />
<rect x="44" y="78" width="1" height="1" fill="#000000" />
<rect x="45" y="78" width="1" height="1" fill="#000000" />
<rect x="46" y="78" width="1" height="1" fill="#000000" />
<rect x="48" y="78" width="1" height="1" fill="#000000" />
<rect x="49" y="78" width="1" height="1" fill="#000000" />
<rect x="50" y="78" width="1" height="1" fill="#000000" />
<rect x="51" y="78" width="1" height="1" fill="#000000" />
<rect x="52" y="78" width="1" height="1" fill="#000000" />
</svg>