<?xml version="1.0" encoding="UTF-8" ?>
<svg version="1.1" width="150" height="80" xmlns="http://www.w3.org/2000/svg" shape-rendering="crispEdges">
<rect x="14" y="20" width="1" height="1" fill="#341C27" />
<rect x="15" y="20" width="1" height="1" fill="#341C27" />
<rect x="16" y="20" width="1" height="1" fill="#341C27" />
<rect x="17" y="20" width="1" height="1" fill="#341C27" />
<rect x="12" y="21" width="1" height="1" fill="#E7D5B3" />
<rect x="13" y="21" width="1" height="1" fill="#E7D5B3" />
<rect x="14" y="21" width="1" height="1" fill="#E7D5B3" />
<rect x="15" y="21" width="1" height="1" fill="#E7D5B3" />
<rect x="16" y="21" width="1" height="1" fill="#E7D5B3" />
<rect x="17" y="21" width="1" height="1" fill="#E7D5B3" />
<rect x="18" y="21" width="1" height="1" fill="#E7D5B3" />
<rect x="19" y="21" width="1" height="1" fill="#E7D5B3" />
<rect x="10" y="22" width="1" height="1" fill="#341C27" />
<rect x="11" y="22" width="1" height="1" fill="#E7D5B3" />
<rect x="12" y="22" width="1" height="1" fill="#E7D5B3" />
<rect x="13" y="22" width="1" height="1" fill="#E7D5B3" />
<rect x="14" y="22" width="1" height="1" fill="#341C27" />
<rect x="15" y="22" width="1" height="1" fill="#341C27" />
<rect x="16" y="22" width="1" height="1" fill="#341C27" />
<rect x="17" y="22" width="1" height="1" fill="#341C27" />
<rect x="18" y="22" width="1" height="1" fill="#E7D5B3" />
<rect x="19" y="22" width="1" height="1" fill="#E7D5B3" />
<rect x="20" y="22" width="1" height="1" fill="#E7D5B3" />
<rect x="21" y="22" width="1" height="1" fill="#341C27" />
<rect x="9" y="23" width="1" height="1" fill="#341C27" />
<rect x="10" y="23" width="1" height="1" fill="#E7D5B3" />
<rect x="11" y="23" width="1" height="1" fill="#E7D5B3" />
<rect x="12" y="23" width="1" height="1" fill="#E7D5B3" />
<rect x="13" y="23" width="1" height="1" fill="#341C27" />
<rect x="14" y="23" width="1" height="1" fill="#E7D5B3" />
<rect x="15" y="23" width="1" height="1" fill="#E7D5B3" />
<rect x="16" y="23" width="1" height="1" fill="#E7D5B3" />
<rect x="17" y="23" width="1" height="1" fill="#E7D5B3" />
<rect x="18" y="23" width="1" height="1" fill="#E7D5B3" />
<rect x="19" y="23" width="1" height="1" fill="#E7D5B3" />
<rect x="20" y="23" width="1" height="1" fill="#E7D5B3" />
<rect x="21" y="23" width="1" height="1" fill="#E2CFAE" />
<rect x="22" y="23" width="1" height="1" fill="#341C27" />
<rect x="9" y="24" width="1" height="1" fill="#341C27" />
<rect x="10" y="24" width="1" height="1" fill="#E7D5B3" />
<rect x="11" y="24" width="1" height="1" fill="#E7D5B3" />
<rect x="12" y="24" width="1" height="1" fill="#E7D5B3" />
<rect x="13" y="24" width="1" height="1" fill="#E7D5B3" />
<rect x="14" y="24" width="1" height="1" fill="#E7D5B3" />
<rect x="15" y="24" width="1" height="1" fill="#E7D5B3" />
<rect x="16" y="24" width="1" height="1" fill="#E7D5B3" />
<rect x="17" y="24" width="1" height="1" fill="#E7D5B3" />
<rect x="18" y="24" width="1" height="1" fill="#E7D5B3" />
<rect x="19" y="24" width="1" height="1" fill="#E7D5B3" />
<rect x="20" y="24" width="1" height="1" fill="#E7D5B3" />
<rect x="21" y="24" width="1" height="1" fill="#E2CFAE" />
<rect x="22" y="24" width="1" height="1" fill="#341C27" />
<rect x="8" y="25" width="1" height="1" fill="#341C27" />
<rect x="9" y="25" width="1" height="1" fill="#E7D5B3" />
<rect x="10" y="25" width="1" height="1" fill="#E7D5B3" />
<rect x="11" y="25" width="1" height="1" fill="#E7D5B3" />
<rect x="12" y="25" width="1" height="1" fill="#E7D5B3" />
<rect x="13" y="25" width="1" height="1" fill="#E7D5B3" />
<rect x="14" y="25" width="1" height="1" fill="#E7D5B3" />
<rect x="15" y="25" width="1" height="1" fill="#E7D5B3" />
<rect x="16" y="25" width="1" height="1" fill="#E7D5B3" />
<rect x="17" y="25" width="1" height="1" fill="#E7D5B3" />
<rect x="18" y="25" width="1" height="1" fill="#E7D5B3" />
<rect x="19" y="25" width="1" height="1" fill="#E7D5B3" />
<rect x="20" y="25" width="1" height="1" fill="#E7D5B3" />
<rect x="21" y="25" width="1" height="1" fill="#E6D4B2" />
<rect x="22" y="25" width="1" height="1" fill="#E2CFAE" />
<rect x="23" y="25" width="1" height="1" fill="#341C27" />
<rect x="8" y="26" width="1" height="1" fill="#341C27" />
<rect x="9" y="26" width="1" height="1" fill="#E7D5B3" />
<rect x="10" y="26" width="1" height="1" fill="#E7D5B3" />
<rect x="11" y="26" width="1" height="1" fill="#E7D5B3" />
<rect x="12" y="26" width="1" height="1" fill="#10141F" />
<rect x="13" y="26" width="1" height="1" fill="#090A14" />
<rect x="14" y="26" width="1" height="1" fill="#E7D5B3" />
<rect x="15" y="26" width="1" height="1" fill="#E7D5B3" />
<rect x="16" y="26" width="1" height="1" fill="#E7D5B3" />
<rect x="17" y="26" width="1" height="1" fill="#E7D5B3" />
<rect x="18" y="26" width="1" height="1" fill="#10141F" />
<rect x="19" y="26" width="1" height="1" fill="#090A14" />
<rect x="20" y="26" width="1" height="1" fill="#E7D5B3" />
<rect x="21" y="26" width="1" height="1" fill="#E7D5B3" />
<rect x="22" y="26" width="1" height="1" fill="#E2CFAE" />
<rect x="23" y="26" width="1" height="1" fill="#341C27" />
<rect x="8" y="27" width="1" height="1" fill="#E7D5B3" />
<rect x="9" y="27" width="1" height="1" fill="#E7D5B3" />
<rect x="10" y="27" width="1" height="1" fill="#E7D5B3" />
<rect x="11" y="27" width="1" height="1" fill="#E7D5B3" />
<rect x="12" y="27" width="1" height="1" fill="#3C5E8B" />
<rect x="13" y="27" width="1" height="1" fill="#EBEDE9" />
<rect x="14" y="27" width="1" height="1" fill="#E7D5B3" />
<rect x="15" y="27" width="1" height="1" fill="#E7D5B3" />
<rect x="16" y="27" width="1" height="1" fill="#E7D5B3" />
<rect x="17" y="27" width="1" height="1" fill="#E7D5B3" />
<rect x="18" y="27" width="1" height="1" fill="#3C5E8B" />
<rect x="19" y="27" width="1" height="1" fill="#EBEDE9" />
<rect x="20" y="27" width="1" height="1" fill="#E7D5B3" />
<rect x="21" y="27" width="1" height="1" fill="#E7D5B3" />
<rect x="22" y="27" width="1" height="1" fill="#E6D4B2" />
<rect x="23" y="27" width="1" height="1" fill="#E2CFAE" />
<rect x="7" y="28" width="1" height="1" fill="#C09473" />
<rect x="8" y="28" width="1" height="1" fill="#E7D5B3" />
<rect x="9" y="28" width="1" height="1" fill="#E7D5B3" />
<rect x="10" y="28" width="1" height="1" fill="#E7D5B3" />
<rect x="11" y="28" width="1" height="1" fill="#E7D5B3" />
<rect x="12" y="28" width="1" height="1" fill="#253A5E" />
<rect x="13" y="28" width="1" height="1" fill="#EBEDE9" />
<rect x="14" y="28" width="1" height="1" fill="#E7D5B3" />
<rect x="15" y="28" width="1" height="1" fill="#E7D5B3" />
<rect x="16" y="28" width="1" height="1" fill="#D7B594" />
<rect x="17" y="28" width="1" height="1" fill="#E7D5B3" />
<rect x="18" y="28" width="1" height="1" fill="#253A5E" />
<rect x="19" y="28" width="1" height="1" fill="#EBEDE9" />
<rect x="20" y="28" width="1" height="1" fill="#E7D5B3" />
<rect x="21" y="28" width="1" height="1" fill="#E7D5B3" />
<rect x="22" y="28" width="1" height="1" fill="#E7D5B3" />
<rect x="23" y="28" width="1" height="1" fill="#E2CFAE" />
<rect x="24" y="28" width="1" height="1" fill="#C09473" />
<rect x="7" y="29" width="1" height="1" fill="#C09473" />
<rect x="8" y="29" width="1" height="1" fill="#E7D5B3" />
<rect x="9" y="29" width="1" height="1" fill="#E7D5B3" />
<rect x="10" y="29" width="1" height="1" fill="#E7D5B3" />
<rect x="11" y="29" width="1" height="1" fill="#E7D5B3" />
<rect x="12" y="29" width="1" height="1" fill="#E7D5B3" />
<rect x="13" y="29" width="1" height="1" fill="#E7D5B3" />
<rect x="14" y="29" width="1" height="1" fill="#E7D5B3" />
<rect x="15" y="29" width="1" height="1" fill="#D7B594" />
<rect x="16" y="29" width="1" height="1" fill="#D7B594" />
<rect x="17" y="29" width="1" height="1" fill="#E7D5B3" />
<rect x="18" y="29" width="1" height="1" fill="#E7D5B3" />
<rect x="19" y="29" width="1" height="1" fill="#E7D5B3" />
<rect x="20" y="29" width="1" height="1" fill="#E7D5B3" />
<rect x="21" y="29" width="1" height="1" fill="#E7D5B3" />
<rect x="22" y="29" width="1" height="1" fill="#E7D5B3" />
<rect x="23" y="29" width="1" height="1" fill="#E2CFAE" />
<rect x="24" y="29" width="1" height="1" fill="#C09473" />
<rect x="7" y="30" width="1" height="1" fill="#D7B594" />
<rect x="8" y="30" width="1" height="1" fill="#E7D5B3" />
<rect x="9" y="30" width="1" height="1" fill="#E7D5B3" />
<rect x="10" y="30" width="1" height="1" fill="#E7D5B3" />
<rect x="11" y="30" width="1" height="1" fill="#E7D5B3" />
<rect x="12" y="30" width="1" height="1" fill="#E7D5B3" />
<rect x="13" y="30" width="1" height="1" fill="#E7D5B3" />
<rect x="14" y="30" width="1" height="1" fill="#E7D5B3" />
<rect x="15" y="30" width="1" height="1" fill="#D7B594" />
<rect x="16" y="30" width="1" height="1" fill="#D7B594" />
<rect x="17" y="30" width="1" height="1" fill="#E7D5B3" />
<rect x="18" y="30" width="1" height="1" fill="#E7D5B3" />
<rect x="19" y="30" width="1" height="1" fill="#E7D5B3" />
<rect x="20" y="30" width="1" height="1" fill="#E7D5B3" />
<rect x="21" y="30" width="1" height="1" fill="#E7D5B3" />
<rect x="22" y="30" width="1" height="1" fill="#E7D5B3" />
<rect x="23" y="30" width="1" height="1" fill="#E2CFAE" />
<rect x="24" y="30" width="1" height="1" fill="#D7B594" />
<rect x="8" y="31" width="1" height="1" fill="#E7D5B3" />
<rect x="9" y="31" width="1" height="1" fill="#E7D5B3" />
<rect x="10" y="31" width="1" height="1" fill="#E7D5B3" />
<rect x="11" y="31" width="1" height="1" fill="#E7D5B3" />
<rect x="12" y="31" width="1" height="1" fill="#E7D5B3" />
<rect x="13" y="31" width="1" height="1" fill="#341C27" />
<rect x="14" y="31" width="1" height="1" fill="#341C27" />
<rect x="15" y="31" width="1" height="1" fill="#341C27" />
<rect x="16" y="31" width="1" height="1" fill="#341C27" />
<rect x="17" y="31" width="1" height="1" fill="#341C27" />
<rect x="18" y="31" width="1" height="1" fill="#341C27" />
<rect x="19" y="31" width="1" height="1" fill="#E7D5B3" />
<rect x="20" y="31" width="1" height="1" fill="#E7D5B3" />
<rect x="21" y="31" width="1" height="1" fill="#E7D5B3" />
<rect x="22" y="31" width="1" height="1" fill="#E7D5B3" />
<rect x="23" y="31" width="1" height="1" fill="#E2CFAE" />
<rect x="8" y="32" width="1" height="1" fill="#E7D5B3" />
<rect x="9" y="32" width="1" height="1" fill="#E7D5B3" />
<rect x="10" y="32" width="1" height="1" fill="#E7D5B3" />
<rect x="11" y="32" width="1" height="1" fill="#E7D5B3" />
<rect x="12" y="32" width="1" height="1" fill="#E7D5B3" />
<rect x="13" y="32" width="1" height="1" fill="#E7D5B3" />
<rect x="14" y="32" width="1" height="1" fill="#E7D5B3" />
<rect x="15" y="32" width="1" height="1" fill="#E7D5B3" />
<rect x="16" y="32" width="1" height="1" fill="#E7D5B3" />
<rect x="17" y="32" width="1" height="1" fill="#E7D5B3" />
<rect x="18" y="32" width="1" height="1" fill="#E7D5B3" />
<rect x="19" y="32" width="1" height="1" fill="#E7D5B3" />
<rect x="20" y="32" width="1" height="1" fill="#E7D5B3" />
<rect x="21" y="32" width="1" height="1" fill="#E7D5B3" />
<rect x="22" y="32" width="1" height="1" fill="#E2CFAE" />
<rect x="23" y="32" width="1" height="1" fill="#E2CFAE" />
<rect x="9" y="33" width="1" height="1" fill="#E7D5B3" />
<rect x="10" y="33" width="1" height="1" fill="#E7D5B3" />
<rect x="11" y="33" width="1" height="1" fill="#E7D5B3" />
<rect x="12" y="33" width="1" height="1" fill="#E7D5B3" />
<rect x="13" y="33" width="1" height="1" fill="#E7D5B3" />
<rect x="14" y="33" width="1" height="1" fill="#D7B594" />
<rect x="15" y="33" width="1" height="1" fill="#D7B594" />
<rect x="16" y="33" width="1" height="1" fill="#D7B594" />
<rect x="17" y="33" width="1" height="1" fill="#D7B594" />
<rect x="18" y="33" width="1" height="1" fill="#E7D5B3" />
<rect x="19" y="33" width="1" height="1" fill="#E7D5B3" />
<rect x="20" y="33" width="1" height="1" fill="#E7D5B3" />
<rect x="21" y="33" width="1" height="1" fill="#E6D4B2" />
<rect x="22" y="33" width="1" height="1" fill="#E2CFAE" />
<rect x="10" y="34" width="1" height="1" fill="#E7D5B3" />
<rect x="11" y="34" width="1" height="1" fill="#E7D5B3" />
<rect x="12" y="34" width="1" height="1" fill="#E7D5B3" />
<rect x="13" y="34" width="1" height="1" fill="#E7D5B3" />
<rect x="14" y="34" width="1" height="1" fill="#E7D5B3" />
<rect x="15" y="34" width="1" height="1" fill="#C09473" />
<rect x="16" y="34" width="1" height="1" fill="#C09473" />
<rect x="17" y="34" width="1" height="1" fill="#E7D5B3" />
<rect x="18" y="34" width="1" height="1" fill="#E7D5B3" />
<rect x="19" y="34" width="1" height="1" fill="#E7D5B3" />
<rect x="20" y="34" width="1" height="1" fill="#E7D5B3" />
<rect x="21" y="34" width="1" height="1" fill="#E2CFAE" />
<rect x="22" y="34" width="1" height="1" fill="#E2CFAE" />
<rect x="11" y="35" width="1" height="1" fill="#D7B594" />
<rect x="12" y="35" width="1" height="1" fill="#E7D5B3" />
<rect x="13" y="35" width="1" height="1" fill="#E7D5B3" />
<rect x="14" y="35" width="1" height="1" fill="#E7D5B3" />
<rect x="15" y="35" width="1" height="1" fill="#E7D5B3" />
<rect x="16" y="35" width="1" height="1" fill="#E7D5B3" />
<rect x="17" y="35" width="1" height="1" fill="#E7D5B3" />
<rect x="18" y="35" width="1" height="1" fill="#E7D5B3" />
<rect x="19" y="35" width="1" height="1" fill="#E7D5B3" />
<rect x="20" y="35" width="1" height="1" fill="#E2CFAE" />
<rect x="21" y="35" width="1" height="1" fill="#D7B594" />
<rect x="11" y="36" width="1" height="1" fill="#819796" />
<rect x="12" y="36" width="1" height="1" fill="#D7B594" />
<rect x="13" y="36" width="1" height="1" fill="#E7D5B3" />
<rect x="14" y="36" width="1" height="1" fill="#E7D5B3" />
<rect x="15" y="36" width="1" height="1" fill="#E7D5B3" />
<rect x="16" y="36" width="1" height="1" fill="#E7D5B3" />
<rect x="17" y="36" width="1" height="1" fill="#E7D5B3" />
<rect x="18" y="36" width="1" height="1" fill="#E7D5B3" />
<rect x="19" y="36" width="1" height="1" fill="#E2CFAE" />
<rect x="20" y="36" width="1" height="1" fill="#D7B594" />
<rect x="21" y="36" width="1" height="1" fill="#7A8F8E" />
<rect x="8" y="37" width="1" height="1" fill="#BE772B" />
<rect x="9" y="37" width="1" height="1" fill="#BE772B" />
<rect x="10" y="37" width="1" height="1" fill="#AB6B26" />
<rect x="11" y="37" width="1" height="1" fill="#748887" />
<rect x="12" y="37" width="1" height="1" fill="#A8B5B2" />
<rect x="13" y="37" width="1" height="1" fill="#819796" />
<rect x="14" y="37" width="1" height="1" fill="#D7B594" />
<rect x="15" y="37" width="1" height="1" fill="#D7B594" />
<rect x="16" y="37" width="1" height="1" fill="#D7B594" />
<rect x="17" y="37" width="1" height="1" fill="#D7B594" />
<rect x="18" y="37" width="1" height="1" fill="#D7B594" />
<rect x="19" y="37" width="1" height="1" fill="#7A8F8E" />
<rect x="20" y="37" width="1" height="1" fill="#8F9B98" />
<rect x="21" y="37" width="1" height="1" fill="#6E8080" />
<rect x="22" y="37" width="1" height="1" fill="#AB6B26" />
<rect x="23" y="37" width="1" height="1" fill="#BE772B" />
<rect x="24" y="37" width="1" height="1" fill="#BE772B" />
<rect x="6" y="38" width="1" height="1" fill="#879E9D" />
<rect x="7" y="38" width="1" height="1" fill="#BE772B" />
<rect x="8" y="38" width="1" height="1" fill="#BE772B" />
<rect x="9" y="38" width="1" height="1" fill="#BE772B" />
<rect x="10" y="38" width="1" height="1" fill="#AB6B26" />
<rect x="11" y="38" width="1" height="1" fill="#AB6B26" />
<rect x="12" y="38" width="1" height="1" fill="#4E666B" />
<rect x="13" y="38" width="1" height="1" fill="#819796" />
<rect x="14" y="38" width="1" height="1" fill="#A8B5B2" />
<rect x="15" y="38" width="1" height="1" fill="#819796" />
<rect x="16" y="38" width="1" height="1" fill="#A8B5B2" />
<rect x="17" y="38" width="1" height="1" fill="#819796" />
<rect x="18" y="38" width="1" height="1" fill="#A8B5B2" />
<rect x="19" y="38" width="1" height="1" fill="#7A8F8E" />
<rect x="20" y="38" width="1" height="1" fill="#4E666B" />
<rect x="21" y="38" width="1" height="1" fill="#AB6B26" />
<rect x="22" y="38" width="1" height="1" fill="#AB6B26" />
<rect x="23" y="38" width="1" height="1" fill="#BE772B" />
<rect x="24" y="38" width="1" height="1" fill="#BE772B" />
<rect x="25" y="38" width="1" height="1" fill="#AB6B26" />
<rect x="26" y="38" width="1" height="1" fill="#748887" />
<rect x="5" y="39" width="1" height="1" fill="#B0BEBB" />
<rect x="6" y="39" width="1" height="1" fill="#879E9D" />
<rect x="7" y="39" width="1" height="1" fill="#BE772B" />
<rect x="8" y="39" width="1" height="1" fill="#BE772B" />
<rect x="9" y="39" width="1" height="1" fill="#BE772B" />
<rect x="10" y="39" width="1" height="1" fill="#BE772B" />
<rect x="11" y="39" width="1" height="1" fill="#AB6B26" />
<rect x="12" y="39" width="1" height="1" fill="#AB6B26" />
<rect x="13" y="39" width="1" height="1" fill="#748887" />
<rect x="14" y="39" width="1" height="1" fill="#4E666B" />
<rect x="15" y="39" width="1" height="1" fill="#819796" />
<rect x="16" y="39" width="1" height="1" fill="#577277" />
<rect x="17" y="39" width="1" height="1" fill="#819796" />
<rect x="18" y="39" width="1" height="1" fill="#496165" />
<rect x="19" y="39" width="1" height="1" fill="#6E8080" />
<rect x="20" y="39" width="1" height="1" fill="#AB6B26" />
<rect x="21" y="39" width="1" height="1" fill="#AB6B26" />
<rect x="22" y="39" width="1" height="1" fill="#BE772B" />
<rect x="23" y="39" width="1" height="1" fill="#BE772B" />
<rect x="24" y="39" width="1" height="1" fill="#BE772B" />
<rect x="25" y="39" width="1" height="1" fill="#AB6B26" />
<rect x="26" y="39" width="1" height="1" fill="#748887" />
<rect x="27" y="39" width="1" height="1" fill="#97A3A0" />
<rect x="4" y="40" width="1" height="1" fill="#879E9D" />
<rect x="5" y="40" width="1" height="1" fill="#577277" />
<rect x="6" y="40" width="1" height="1" fill="#819796" />
<rect x="7" y="40" width="1" height="1" fill="#BE772B" />
<rect x="8" y="40" width="1" height="1" fill="#BE772B" />
<rect x="9" y="40" width="1" height="1" fill="#BE772B" />
<rect x="10" y="40" width="1" height="1" fill="#BE772B" />
<rect x="11" y="40" width="1" height="1" fill="#BE772B" />
<rect x="12" y="40" width="1" height="1" fill="#AB6B26" />
<rect x="13" y="40" width="1" height="1" fill="#AB6B26" />
<rect x="14" y="40" width="1" height="1" fill="#8F9B98" />
<rect x="15" y="40" width="1" height="1" fill="#748887" />
<rect x="16" y="40" width="1" height="1" fill="#8F9B98" />
<rect x="17" y="40" width="1" height="1" fill="#6E8080" />
<rect x="18" y="40" width="1" height="1" fill="#8F9B98" />
<rect x="19" y="40" width="1" height="1" fill="#AB6B26" />
<rect x="20" y="40" width="1" height="1" fill="#AB6B26" />
<rect x="21" y="40" width="1" height="1" fill="#BE772B" />
<rect x="22" y="40" width="1" height="1" fill="#BE772B" />
<rect x="23" y="40" width="1" height="1" fill="#BE772B" />
<rect x="24" y="40" width="1" height="1" fill="#BE772B" />
<rect x="25" y="40" width="1" height="1" fill="#AB6B26" />
<rect x="26" y="40" width="1" height="1" fill="#748887" />
<rect x="27" y="40" width="1" height="1" fill="#4E666B" />
<rect x="28" y="40" width="1" height="1" fill="#748887" />
<rect x="3" y="41" width="1" height="1" fill="#B0BEBB" />
<rect x="4" y="41" width="1" height="1" fill="#879E9D" />
<rect x="5" y="41" width="1" height="1" fill="#A8B5B2" />
<rect x="6" y="41" width="1" height="1" fill="#BE772B" />
<rect x="7" y="41" width="1" height="1" fill="#BE772B" />
<rect x="8" y="41" width="1" height="1" fill="#BE772B" />
<rect x="9" y="41" width="1" height="1" fill="#BE772B" />
<rect x="10" y="41" width="1" height="1" fill="#BE772B" />
<rect x="11" y="41" width="1" height="1" fill="#BE772B" />
<rect x="12" y="41" width="1" height="1" fill="#BE772B" />
<rect x="13" y="41" width="1" height="1" fill="#AB6B26" />
<rect x="14" y="41" width="1" height="1" fill="#AB6B26" />
<rect x="15" y="41" width="1" height="1" fill="#748887" />
<rect x="16" y="41" width="1" height="1" fill="#496165" />
<rect x="17" y="41" width="1" height="1" fill="#6E8080" />
<rect x="18" y="41" width="1" height="1" fill="#AB6B26" />
<rect x="19" y="41" width="1" height="1" fill="#AB6B26" />
<rect x="20" y="41" width="1" height="1" fill="#BE772B" />
<rect x="21" y="41" width="1" height="1" fill="#BE772B" />
<rect x="22" y="41" width="1" height="1" fill="#BE772B" />
<rect x="23" y="41" width="1" height="1" fill="#BE772B" />
<rect x="24" y="41" width="1" height="1" fill="#BE772B" />
<rect x="25" y="41" width="1" height="1" fill="#BE772B" />
<rect x="26" y="41" width="1" height="1" fill="#AB6B26" />
<rect x="27" y="41" width="1" height="1" fill="#97A3A0" />
<rect x="28" y="41" width="1" height="1" fill="#748887" />
<rect x="29" y="41" width="1" height="1" fill="#97A3A0" />
<rect x="3" y="42" width="1" height="1" fill="#5B777D" />
<rect x="4" y="42" width="1" height="1" fill="#819796" />
<rect x="5" y="42" width="1" height="1" fill="#577277" />
<rect x="6" y="42" width="1" height="1" fill="#BE772B" />
<rect x="7" y="42" width="1" height="1" fill="#BE772B" />
<rect x="8" y="42" width="1" height="1" fill="#BE772B" />
<rect x="9" y="42" width="1" height="1" fill="#BE772B" />
<rect x="10" y="42" width="1" height="1" fill="#BE772B" />
<rect x="11" y="42" width="1" height="1" fill="#BE772B" />
<rect x="12" y="42" width="1" height="1" fill="#BE772B" />
<rect x="13" y="42" width="1" height="1" fill="#BE772B" />
<rect x="14" y="42" width="1" height="1" fill="#AB6B26" />
<rect x="15" y="42" width="1" height="1" fill="#AB6B26" />
<rect x="16" y="42" width="1" height="1" fill="#626B69" />
<rect x="17" y="42" width="1" height="1" fill="#AB6B26" />
<rect x="18" y="42" width="1" height="1" fill="#AB6B26" />
<rect x="19" y="42" width="1" height="1" fill="#BE772B" />
<rect x="20" y="42" width="1" height="1" fill="#BE772B" />
<rect x="21" y="42" width="1" height="1" fill="#BE772B" />
<rect x="22" y="42" width="1" height="1" fill="#BE772B" />
<rect x="23" y="42" width="1" height="1" fill="#BE772B" />
<rect x="24" y="42" width="1" height="1" fill="#BE772B" />
<rect x="25" y="42" width="1" height="1" fill="#BE772B" />
<rect x="26" y="42" width="1" height="1" fill="#BE772B" />
<rect x="27" y="42" width="1" height="1" fill="#4E666B" />
<rect x="28" y="42" width="1" height="1" fill="#748887" />
<rect x="29" y="42" width="1" height="1" fill="#4E666B" />
<rect x="2" y="43" width="1" height="1" fill="#879E9D" />
<rect x="3" y="43" width="1" height="1" fill="#A8B5B2" />
<rect x="4" y="43" width="1" height="1" fill="#819796" />
<rect x="5" y="43" width="1" height="1" fill="#BE772B" />
<rect x="6" y="43" width="1" height="1" fill="#BE772B" />
<rect x="7" y="43" width="1" height="1" fill="#BE772B" />
<rect x="8" y="43" width="1" height="1" fill="#BE772B" />
<rect x="9" y="43" width="1" height="1" fill="#172038" />
<rect x="10" y="43" width="1" height="1" fill="#752438" />
<rect x="11" y="43" width="1" height="1" fill="#BE772B" />
<rect x="12" y="43" width="1" height="1" fill="#BE772B" />
<rect x="13" y="43" width="1" height="1" fill="#BE772B" />
<rect x="14" y="43" width="1" height="1" fill="#BE772B" />
<rect x="15" y="43" width="1" height="1" fill="#AB6B26" />
<rect x="16" y="43" width="1" height="1" fill="#AB6B26" />
<rect x="17" y="43" width="1" height="1" fill="#AB6B26" />
<rect x="18" y="43" width="1" height="1" fill="#BE772B" />
<rect x="19" y="43" width="1" height="1" fill="#BE772B" />
<rect x="20" y="43" width="1" height="1" fill="#BE772B" />
<rect x="21" y="43" width="1" height="1" fill="#BE772B" />
<rect x="22" y="43" width="1" height="1" fill="#BE772B" />
<rect x="23" y="43" width="1" height="1" fill="#BE772B" />
<rect x="24" y="43" width="1" height="1" fill="#BE772B" />
<rect x="25" y="43" width="1" height="1" fill="#BE772B" />
<rect x="26" y="43" width="1" height="1" fill="#BE772B" />
<rect x="27" y="43" width="1" height="1" fill="#BE772B" />
<rect x="28" y="43" width="1" height="1" fill="#748887" />
<rect x="29" y="43" width="1" height="1" fill="#97A3A0" />
<rect x="30" y="43" width="1" height="1" fill="#748887" />
<rect x="2" y="44" width="1" height="1" fill="#879E9D" />
<rect x="3" y="44" width="1" height="1" fill="#577277" />
<rect x="4" y="44" width="1" height="1" fill="#BE772B" />
<rect x="5" y="44" width="1" height="1" fill="#BE772B" />
<rect x="6" y="44" width="1" height="1" fill="#BE772B" />
<rect x="7" y="44" width="1" height="1" fill="#BE772B" />
<rect x="8" y="44" width="1" height="1" fill="#BE772B" />
<rect x="9" y="44" width="1" height="1" fill="#253A5E" />
<rect x="10" y="44" width="1" height="1" fill="#A53030" />
<rect x="11" y="44" width="1" height="1" fill="#BE772B" />
<rect x="12" y="44" width="1" height="1" fill="#BE772B" />
<rect x="13" y="44" width="1" height="1" fill="#BE772B" />
<rect x="14" y="44" width="1" height="1" fill="#BE772B" />
<rect x="15" y="44" width="1" height="1" fill="#BE772B" />
<rect x="16" y="44" width="1" height="1" fill="#884B2B" />
<rect x="17" y="44" width="1" height="1" fill="#BE772B" />
<rect x="18" y="44" width="1" height="1" fill="#BE772B" />
<rect x="19" y="44" width="1" height="1" fill="#BE772B" />
<rect x="20" y="44" width="1" height="1" fill="#BE772B" />
<rect x="21" y="44" width="1" height="1" fill="#BE772B" />
<rect x="22" y="44" width="1" height="1" fill="#BE772B" />
<rect x="23" y="44" width="1" height="1" fill="#BE772B" />
<rect x="24" y="44" width="1" height="1" fill="#BE772B" />
<rect x="25" y="44" width="1" height="1" fill="#BE772B" />
<rect x="26" y="44" width="1" height="1" fill="#BE772B" />
<rect x="27" y="44" width="1" height="1" fill="#BE772B" />
<rect x="28" y="44" width="1" height="1" fill="#AB6B26" />
<rect x="29" y="44" width="1" height="1" fill="#4E666B" />
<rect x="30" y="44" width="1" height="1" fill="#748887" />
<rect x="2" y="45" width="1" height="1" fill="#879E9D" />
<rect x="3" y="45" width="1" height="1" fill="#A8B5B2" />
<rect x="4" y="45" width="1" height="1" fill="#BE772B" />
<rect x="5" y="45" width="1" height="1" fill="#BE772B" />
<rect x="6" y="45" width="1" height="1" fill="#BE772B" />
<rect x="7" y="45" width="1" height="1" fill="#BE772B" />
<rect x="8" y="45" width="1" height="1" fill="#884B2B" />
<rect x="9" y="45" width="1" height="1" fill="#884B2B" />
<rect x="10" y="45" width="1" height="1" fill="#884B2B" />
<rect x="11" y="45" width="1" height="1" fill="#884B2B" />
<rect x="12" y="45" width="1" height="1" fill="#BE772B" />
<rect x="13" y="45" width="1" height="1" fill="#BE772B" />
<rect x="14" y="45" width="1" height="1" fill="#BE772B" />
<rect x="15" y="45" width="1" height="1" fill="#BE772B" />
<rect x="16" y="45" width="1" height="1" fill="#884B2B" />
<rect x="17" y="45" width="1" height="1" fill="#BE772B" />
<rect x="18" y="45" width="1" height="1" fill="#BE772B" />
<rect x="19" y="45" width="1" height="1" fill="#BE772B" />
<rect x="20" y="45" width="1" height="1" fill="#BE772B" />
<rect x="21" y="45" width="1" height="1" fill="#884B2B" />
<rect x="22" y="45" width="1" height="1" fill="#884B2B" />
<rect x="23" y="45" width="1" height="1" fill="#884B2B" />
<rect x="24" y="45" width="1" height="1" fill="#884B2B" />
<rect x="25" y="45" width="1" height="1" fill="#BE772B" />
<rect x="26" y="45" width="1" height="1" fill="#BE772B" />
<rect x="27" y="45" width="1" height="1" fill="#BE772B" />
<rect x="28" y="45" width="1" height="1" fill="#AB6B26" />
<rect x="29" y="45" width="1" height="1" fill="#97A3A0" />
<rect x="30" y="45" width="1" height="1" fill="#748887" />
<rect x="2" y="46" width="1" height="1" fill="#E7D5B3" />
<rect x="3" y="46" width="1" height="1" fill="#E7D5B3" />
<rect x="4" y="46" width="1" height="1" fill="#BE772B" />
<rect x="5" y="46" width="1" height="1" fill="#BE772B" />
<rect x="6" y="46" width="1" height="1" fill="#BE772B" />
<rect x="7" y="46" width="1" height="1" fill="#BE772B" />
<rect x="8" y="46" width="1" height="1" fill="#884B2B" />
<rect x="9" y="46" width="1" height="1" fill="#884B2B" />
<rect x="10" y="46" width="1" height="1" fill="#884B2B" />
<rect x="11" y="46" width="1" height="1" fill="#884B2B" />
<rect x="12" y="46" width="1" height="1" fill="#BE772B" />
<rect x="13" y="46" width="1" height="1" fill="#BE772B" />
<rect x="14" y="46" width="1" height="1" fill="#BE772B" />
<rect x="15" y="46" width="1" height="1" fill="#BE772B" />
<rect x="16" y="46" width="1" height="1" fill="#884B2B" />
<rect x="17" y="46" width="1" height="1" fill="#602C2C" />
<rect x="18" y="46" width="1" height="1" fill="#BE772B" />
<rect x="19" y="46" width="1" height="1" fill="#BE772B" />
<rect x="20" y="46" width="1" height="1" fill="#BE772B" />
<rect x="21" y="46" width="1" height="1" fill="#884B2B" />
<rect x="22" y="46" width="1" height="1" fill="#884B2B" />
<rect x="23" y="46" width="1" height="1" fill="#884B2B" />
<rect x="24" y="46" width="1" height="1" fill="#884B2B" />
<rect x="25" y="46" width="1" height="1" fill="#BE772B" />
<rect x="26" y="46" width="1" height="1" fill="#BE772B" />
<rect x="27" y="46" width="1" height="1" fill="#BE772B" />
<rect x="28" y="46" width="1" height="1" fill="#AB6B26" />
<rect x="29" y="46" width="1" height="1" fill="#D0C0A1" />
<rect x="30" y="46" width="1" height="1" fill="#D0C0A1" />
<rect x="2" y="47" width="1" height="1" fill="#D7B594" />
<rect x="3" y="47" width="1" height="1" fill="#D7B594" />
<rect x="4" y="47" width="1" height="1" fill="#BE772B" />
<rect x="5" y="47" width="1" height="1" fill="#BE772B" />
<rect x="6" y="47" width="1" height="1" fill="#BE772B" />
<rect x="7" y="47" width="1" height="1" fill="#BE772B" />
<rect x="8" y="47" width="1" height="1" fill="#BE772B" />
<rect x="9" y="47" width="1" height="1" fill="#BE772B" />
<rect x="10" y="47" width="1" height="1" fill="#BE772B" />
<rect x="11" y="47" width="1" height="1" fill="#BE772B" />
<rect x="12" y="47" width="1" height="1" fill="#BE772B" />
<rect x="13" y="47" width="1" height="1" fill="#BE772B" />
<rect x="14" y="47" width="1" height="1" fill="#BE772B" />
<rect x="15" y="47" width="1" height="1" fill="#BE772B" />
<rect x="16" y="47" width="1" height="1" fill="#884B2B" />
<rect x="17" y="47" width="1" height="1" fill="#BE772B" />
<rect x="18" y="47" width="1" height="1" fill="#BE772B" />
<rect x="19" y="47" width="1" height="1" fill="#BE772B" />
<rect x="20" y="47" width="1" height="1" fill="#BE772B" />
<rect x="21" y="47" width="1" height="1" fill="#BE772B" />
<rect x="22" y="47" width="1" height="1" fill="#BE772B" />
<rect x="23" y="47" width="1" height="1" fill="#BE772B" />
<rect x="24" y="47" width="1" height="1" fill="#BE772B" />
<rect x="25" y="47" width="1" height="1" fill="#BE772B" />
<rect x="26" y="47" width="1" height="1" fill="#BE772B" />
<rect x="27" y="47" width="1" height="1" fill="#BE772B" />
<rect x="28" y="47" width="1" height="1" fill="#AB6B26" />
<rect x="29" y="47" width="1" height="1" fill="#C1A385" />
<rect x="30" y="47" width="1" height="1" fill="#C1A385" />
<rect x="4" y="48" width="1" height="1" fill="#BE772B" />
<rect x="5" y="48" width="1" height="1" fill="#BE772B" />
<rect x="6" y="48" width="1" height="1" fill="#BE772B" />
<rect x="7" y="48" width="1" height="1" fill="#BE772B" />
<rect x="8" y="48" width="1" height="1" fill="#BE772B" />
<rect x="9" y="48" width="1" height="1" fill="#BE772B" />
<rect x="10" y="48" width="1" height="1" fill="#BE772B" />
<rect x="11" y="48" width="1" height="1" fill="#BE772B" />
<rect x="12" y="48" width="1" height="1" fill="#BE772B" />
<rect x="13" y="48" width="1" height="1" fill="#BE772B" />
<rect x="14" y="48" width="1" height="1" fill="#BE772B" />
<rect x="15" y="48" width="1" height="1" fill="#BE772B" />
<rect x="16" y="48" width="1" height="1" fill="#884B2B" />
<rect x="17" y="48" width="1" height="1" fill="#BE772B" />
<rect x="18" y="48" width="1" height="1" fill="#BE772B" />
<rect x="19" y="48" width="1" height="1" fill="#BE772B" />
<rect x="20" y="48" width="1" height="1" fill="#BE772B" />
<rect x="21" y="48" width="1" height="1" fill="#BE772B" />
<rect x="22" y="48" width="1" height="1" fill="#BE772B" />
<rect x="23" y="48" width="1" height="1" fill="#BE772B" />
<rect x="24" y="48" width="1" height="1" fill="#BE772B" />
<rect x="25" y="48" width="1" height="1" fill="#BE772B" />
<rect x="26" y="48" width="1" height="1" fill="#BE772B" />
<rect x="27" y="48" width="1" height="1" fill="#BE772B" />
<rect x="28" y="48" width="1" height="1" fill="#AB6B26" />
<rect x="29" y="48" width="1" height="1" fill="#AB6B26" />
<rect x="4" y="49" width="1" height="1" fill="#BE772B" />
<rect x="5" y="49" width="1" height="1" fill="#BE772B" />
<rect x="6" y="49" width="1" height="1" fill="#BE772B" />
<rect x="7" y="49" width="1" height="1" fill="#BE772B" />
<rect x="8" y="49" width="1" height="1" fill="#BE772B" />
<rect x="9" y="49" width="1" height="1" fill="#BE772B" />
<rect x="10" y="49" width="1" height="1" fill="#BE772B" />
<rect x="11" y="49" width="1" height="1" fill="#BE772B" />
<rect x="12" y="49" width="1" height="1" fill="#BE772B" />
<rect x="13" y="49" width="1" height="1" fill="#BE772B" />
<rect x="14" y="49" width="1" height="1" fill="#BE772B" />
<rect x="15" y="49" width="1" height="1" fill="#BE772B" />
<rect x="16" y="49" width="1" height="1" fill="#884B2B" />
<rect x="17" y="49" width="1" height="1" fill="#602C2C" />
<rect x="18" y="49" width="1" height="1" fill="#BE772B" />
<rect x="19" y="49" width="1" height="1" fill="#BE772B" />
<rect x="20" y="49" width="1" height="1" fill="#BE772B" />
<rect x="21" y="49" width="1" height="1" fill="#BE772B" />
<rect x="22" y="49" width="1" height="1" fill="#BE772B" />
<rect x="23" y="49" width="1" height="1" fill="#BE772B" />
<rect x="24" y="49" width="1" height="1" fill="#BE772B" />
<rect x="25" y="49" width="1" height="1" fill="#BE772B" />
<rect x="26" y="49" width="1" height="1" fill="#BE772B" />
<rect x="27" y="49" width="1" height="1" fill="#BE772B" />
<rect x="28" y="49" width="1" height="1" fill="#AB6B26" />
<rect x="29" y="49" width="1" height="1" fill="#AB6B26" />
<rect x="4" y="50" width="1" height="1" fill="#C47A2C" />
<rect x="5" y="50" width="1" height="1" fill="#BE772B" />
<rect x="6" y="50" width="1" height="1" fill="#BE772B" />
<rect x="7" y="50" width="1" height="1" fill="#BE772B" />
<rect x="8" y="50" width="1" height="1" fill="#BE772B" />
<rect x="9" y="50" width="1" height="1" fill="#BE772B" />
<rect x="10" y="50" width="1" height="1" fill="#BE772B" />
<rect x="11" y="50" width="1" height="1" fill="#BE772B" />
<rect x="12" y="50" width="1" height="1" fill="#BE772B" />
<rect x="13" y="50" width="1" height="1" fill="#BE772B" />
<rect x="14" y="50" width="1" height="1" fill="#BE772B" />
<rect x="15" y="50" width="1" height="1" fill="#BE772B" />
<rect x="16" y="50" width="1" height="1" fill="#884B2B" />
<rect x="17" y="50" width="1" height="1" fill="#BE772B" />
<rect x="18" y="50" width="1" height="1" fill="#BE772B" />
<rect x="19" y="50" width="1" height="1" fill="#BE772B" />
<rect x="20" y="50" width="1" height="1" fill="#BE772B" />
<rect x="21" y="50" width="1" height="1" fill="#BE772B" />
<rect x="22" y="50" width="1" height="1" fill="#BE772B" />
<rect x="23" y="50" width="1" height="1" fill="#BE772B" />
<rect x="24" y="50" width="1" height="1" fill="#BE772B" />
<rect x="25" y="50" width="1" height="1" fill="#BE772B" />
<rect x="26" y="50" width="1" height="1" fill="#BE772B" />
<rect x="27" y="50" width="1" height="1" fill="#BE772B" />
<rect x="28" y="50" width="1" height="1" fill="#AB6B26" />
<rect x="29" y="50" width="1" height="1" fill="#AB6B26" />
<rect x="5" y="51" width="1" height="1" fill="#BE772B" />
<rect x="6" y="51" width="1" height="1" fill="#BE772B" />
<rect x="7" y="51" width="1" height="1" fill="#BE772B" />
<rect x="8" y="51" width="1" height="1" fill="#BE772B" />
<rect x="9" y="51" width="1" height="1" fill="#BE772B" />
<rect x="10" y="51" width="1" height="1" fill="#BE772B" />
<rect x="11" y="51" width="1" height="1" fill="#BE772B" />
<rect x="12" y="51" width="1" height="1" fill="#BE772B" />
<rect x="13" y="51" width="1" height="1" fill="#BE772B" />
<rect x="14" y="51" width="1" height="1" fill="#BE772B" />
<rect x="15" y="51" width="1" height="1" fill="#BE772B" />
<rect x="16" y="51" width="1" height="1" fill="#884B2B" />
<rect x="17" y="51" width="1" height="1" fill="#BE772B" />
<rect x="18" y="51" width="1" height="1" fill="#BE772B" />
<rect x="19" y="51" width="1" height="1" fill="#BE772B" />
<rect x="20" y="51" width="1" height="1" fill="#BE772B" />
<rect x="21" y="51" width="1" height="1" fill="#BE772B" />
<rect x="22" y="51" width="1" height="1" fill="#BE772B" />
<rect x="23" y="51" width="1" height="1" fill="#BE772B" />
<rect x="24" y="51" width="1" height="1" fill="#BE772B" />
<rect x="25" y="51" width="1" height="1" fill="#BE772B" />
<rect x="26" y="51" width="1" height="1" fill="#BE772B" />
<rect x="27" y="51" width="1" height="1" fill="#AB6B26" />
<rect x="28" y="51" width="1" height="1" fill="#AB6B26" />
<rect x="5" y="52" width="1" height="1" fill="#C47A2C" />
<rect x="6" y="52" width="1" height="1" fill="#BE772B" />
<rect x="7" y="52" width="1" height="1" fill="#BE772B" />
<rect x="8" y="52" width="1" height="1" fill="#BE772B" />
<rect x="9" y="52" width="1" height="1" fill="#BE772B" />
<rect x="10" y="52" width="1" height="1" fill="#BE772B" />
<rect x="11" y="52" width="1" height="1" fill="#BE772B" />
<rect x="12" y="52" width="1" height="1" fill="#BE772B" />
<rect x="13" y="52" width="1" height="1" fill="#BE772B" />
<rect x="14" y="52" width="1" height="1" fill="#BE772B" />
<rect x="15" y="52" width="1" height="1" fill="#BE772B" />
<rect x="16" y="52" width="1" height="1" fill="#884B2B" />
<rect x="17" y="52" width="1" height="1" fill="#602C2C" />
<rect x="18" y="52" width="1" height="1" fill="#BE772B" />
<rect x="19" y="52" width="1" height="1" fill="#BE772B" />
<rect x="20" y="52" width="1" height="1" fill="#BE772B" />
<rect x="21" y="52" width="1" height="1" fill="#BE772B" />
<rect x="22" y="52" width="1" height="1" fill="#BE772B" />
<rect x="23" y="52" width="1" height="1" fill="#BE772B" />
<rect x="24" y="52" width="1" height="1" fill="#BE772B" />
<rect x="25" y="52" width="1" height="1" fill="#BE772B" />
<rect x="26" y="52" width="1" height="1" fill="#BE772B" />
<rect x="27" y="52" width="1" height="1" fill="#AB6B26" />
<rect x="28" y="52" width="1" height="1" fill="#AB6B26" />
<rect x="6" y="53" width="1" height="1" fill="#C47A2C" />
<rect x="7" y="53" width="1" height="1" fill="#BE772B" />
<rect x="8" y="53" width="1" height="1" fill="#BE772B" />
<rect x="9" y="53" width="1" height="1" fill="#BE772B" />
<rect x="10" y="53" width="1" height="1" fill="#BE772B" />
<rect x="11" y="53" width="1" height="1" fill="#BE772B" />
<rect x="12" y="53" width="1" height="1" fill="#BE772B" />
<rect x="13" y="53" width="1" height="1" fill="#BE772B" />
<rect x="14" y="53" width="1" height="1" fill="#BE772B" />
<rect x="15" y="53" width="1" height="1" fill="#BE772B" />
<rect x="16" y="53" width="1" height="1" fill="#884B2B" />
<rect x="17" y="53" width="1" height="1" fill="#BE772B" />
<rect x="18" y="53" width="1" height="1" fill="#BE772B" />
<rect x="19" y="53" width="1" height="1" fill="#BE772B" />
<rect x="20" y="53" width="1" height="1" fill="#BE772B" />
<rect x="21" y="53" width="1" height="1" fill="#BE772B" />
<rect x="22" y="53" width="1" height="1" fill="#BE772B" />
<rect x="23" y="53" width="1" height="1" fill="#BE772B" />
<rect x="24" y="53" width="1" height="1" fill="#BE772B" />
<rect x="25" y="53" width="1" height="1" fill="#BE772B" />
<rect x="26" y="53" width="1" height="1" fill="#AB6B26" />
<rect x="27" y="53" width="1" height="1" fill="#AB6B26" />
<rect x="7" y="54" width="1" height="1" fill="#C47A2C" />
<rect x="8" y="54" width="1" height="1" fill="#BE772B" />
<rect x="9" y="54" width="1" height="1" fill="#BE772B" />
<rect x="10" y="54" width="1" height="1" fill="#BE772B" />
<rect x="11" y="54" width="1" height="1" fill="#BE772B" />
<rect x="12" y="54" width="1" height="1" fill="#BE772B" />
<rect x="13" y="54" width="1" height="1" fill="#BE772B" />
<rect x="14" y="54" width="1" height="1" fill="#BE772B" />
<rect x="15" y="54" width="1" height="1" fill="#BE772B" />
<rect x="16" y="54" width="1" height="1" fill="#884B2B" />
<rect x="17" y="54" width="1" height="1" fill="#BE772B" />
<rect x="18" y="54" width="1" height="1" fill="#BE772B" />
<rect x="19" y="54" width="1" height="1" fill="#BE772B" />
<rect x="20" y="54" width="1" height="1" fill="#BE772B" />
<rect x="21" y="54" width="1" height="1" fill="#BE772B" />
<rect x="22" y="54" width="1" height="1" fill="#BE772B" />
<rect x="23" y="54" width="1" height="1" fill="#BE772B" />
<rect x="24" y="54" width="1" height="1" fill="#BE772B" />
<rect x="25" y="54" width="1" height="1" fill="#AB6B26" />
<rect x="26" y="54" width="1" height="1" fill="#AB6B26" />
<rect x="8" y="55" width="1" height="1" fill="#C47A2C" />
<rect x="9" y="55" width="1" height="1" fill="#BE772B" />
<rect x="10" y="55" width="1" height="1" fill="#BE772B" />
<rect x="11" y="55" width="1" height="1" fill="#BE772B" />
<rect x="12" y="55" width="1" height="1" fill="#BE772B" />
<rect x="13" y="55" width="1" height="1" fill="#BE772B" />
<rect x="14" y="55" width="1" height="1" fill="#172038" />
<rect x="15" y="55" width="1" height="1" fill="#A8B5B2" />
<rect x="16" y="55" width="1" height="1" fill="#C7CFCC" />
<rect x="17" y="55" width="1" height="1" fill="#172038" />
<rect x="18" y="55" width="1" height="1" fill="#172038" />
<rect x="19" y="55" width="1" height="1" fill="#BE772B" />
<rect x="20" y="55" width="1" height="1" fill="#BE772B" />
<rect x="21" y="55" width="1" height="1" fill="#BE772B" />
<rect x="22" y="55" width="1" height="1" fill="#BE772B" />
<rect x="23" y="55" width="1" height="1" fill="#BE772B" />
<rect x="24" y="55" width="1" height="1" fill="#AB6B26" />
<rect x="25" y="55" width="1" height="1" fill="#AB6B26" />
<rect x="10" y="56" width="1" height="1" fill="#C47A2C" />
<rect x="11" y="56" width="1" height="1" fill="#BE772B" />
<rect x="12" y="56" width="1" height="1" fill="#BE772B" />
<rect x="13" y="56" width="1" height="1" fill="#3C5E8B" />
<rect x="14" y="56" width="1" height="1" fill="#3C5E8B" />
<rect x="15" y="56" width="1" height="1" fill="#3C5E8B" />
<rect x="16" y="56" width="1" height="1" fill="#253A5E" />
<rect x="17" y="56" width="1" height="1" fill="#36547D" />
<rect x="18" y="56" width="1" height="1" fill="#36547D" />
<rect x="19" y="56" width="1" height="1" fill="#36547D" />
<rect x="20" y="56" width="1" height="1" fill="#BE772B" />
<rect x="21" y="56" width="1" height="1" fill="#BE772B" />
<rect x="22" y="56" width="1" height="1" fill="#BE772B" />
<rect x="23" y="56" width="1" height="1" fill="#AB6B26" />
<rect x="11" y="57" width="1" height="1" fill="#3C5E8B" />
<rect x="12" y="57" width="1" height="1" fill="#3C5E8B" />
<rect x="13" y="57" width="1" height="1" fill="#3C5E8B" />
<rect x="14" y="57" width="1" height="1" fill="#3C5E8B" />
<rect x="15" y="57" width="1" height="1" fill="#3C5E8B" />
<rect x="16" y="57" width="1" height="1" fill="#253A5E" />
<rect x="17" y="57" width="1" height="1" fill="#36547D" />
<rect x="18" y="57" width="1" height="1" fill="#36547D" />
<rect x="19" y="57" width="1" height="1" fill="#36547D" />
<rect x="20" y="57" width="1" height="1" fill="#36547D" />
<rect x="21" y="57" width="1" height="1" fill="#36547D" />
<rect x="22" y="57" width="1" height="1" fill="#253A5E" />
<rect x="11" y="58" width="1" height="1" fill="#3C5E8B" />
<rect x="12" y="58" width="1" height="1" fill="#3C5E8B" />
<rect x="13" y="58" width="1" height="1" fill="#253A5E" />
<rect x="14" y="58" width="1" height="1" fill="#3C5E8B" />
<rect x="15" y="58" width="1" height="1" fill="#3C5E8B" />
<rect x="16" y="58" width="1" height="1" fill="#253A5E" />
<rect x="17" y="58" width="1" height="1" fill="#36547D" />
<rect x="18" y="58" width="1" height="1" fill="#213454" />
<rect x="19" y="58" width="1" height="1" fill="#36547D" />
<rect x="20" y="58" width="1" height="1" fill="#36547D" />
<rect x="21" y="58" width="1" height="1" fill="#36547D" />
<rect x="22" y="58" width="1" height="1" fill="#253A5E" />
<rect x="11" y="59" width="1" height="1" fill="#3C5E8B" />
<rect x="12" y="59" width="1" height="1" fill="#3C5E8B" />
<rect x="13" y="59" width="1" height="1" fill="#3C5E8B" />
<rect x="14" y="59" width="1" height="1" fill="#253A5E" />
<rect x="15" y="59" width="1" height="1" fill="#3C5E8B" />
<rect x="16" y="59" width="1" height="1" fill="#253A5E" />
<rect x="17" y="59" width="1" height="1" fill="#36547D" />
<rect x="18" y="59" width="1" height="1" fill="#36547D" />
<rect x="19" y="59" width="1" height="1" fill="#213454" />
<rect x="20" y="59" width="1" height="1" fill="#36547D" />
<rect x="21" y="59" width="1" height="1" fill="#36547D" />
<rect x="22" y="59" width="1" height="1" fill="#253A5E" />
<rect x="11" y="60" width="1" height="1" fill="#3C5E8B" />
<rect x="12" y="60" width="1" height="1" fill="#3C5E8B" />
<rect x="13" y="60" width="1" height="1" fill="#3C5E8B" />
<rect x="14" y="60" width="1" height="1" fill="#3C5E8B" />
<rect x="15" y="60" width="1" height="1" fill="#3C5E8B" />
<rect x="16" y="60" width="1" height="1" fill="#253A5E" />
<rect x="17" y="60" width="1" height="1" fill="#36547D" />
<rect x="18" y="60" width="1" height="1" fill="#36547D" />
<rect x="19" y="60" width="1" height="1" fill="#36547D" />
<rect x="20" y="60" width="1" height="1" fill="#36547D" />
<rect x="21" y="60" width="1" height="1" fill="#36547D" />
<rect x="22" y="60" width="1" height="1" fill="#253A5E" />
<rect x="11" y="61" width="1" height="1" fill="#3C5E8B" />
<rect x="12" y="61" width="1" height="1" fill="#3C5E8B" />
<rect x="13" y="61" width="1" height="1" fill="#3C5E8B" />
<rect x="14" y="61" width="1" height="1" fill="#3C5E8B" />
<rect x="15" y="61" width="1" height="1" fill="#3C5E8B" />
<rect x="16" y="61" width="1" height="1" fill="#253A5E" />
<rect x="17" y="61" width="1" height="1" fill="#36547D" />
<rect x="18" y="61" width="1" height="1" fill="#36547D" />
<rect x="19" y="61" width="1" height="1" fill="#36547D" />
<rect x="20" y="61" width="1" height="1" fill="#36547D" />
<rect x="21" y="61" width="1" height="1" fill="#36547D" />
<rect x="22" y="61" width="1" height="1" fill="#253A5E" />
<rect x="10" y="62" width="1" height="1" fill="#202E37" />
<rect x="11" y="62" width="1" height="1" fill="#202E37" />
<rect x="12" y="62" width="1" height="1" fill="#202E37" />
<rect x="13" y="62" width="1" height="1" fill="#151D28" />
<rect x="14" y="62" width="1" height="1" fill="#151D28" />
<rect x="15" y="62" width="1" height="1" fill="#151D28" />
<rect x="17" y="62" width="1" height="1" fill="#202E37" />
<rect x="18" y="62" width="1" height="1" fill="#202E37" />
<rect x="19" y="62" width="1" height="1" fill="#202E37" />
<rect x="20" y="62" width="1" height="1" fill="#151D28" />
<rect x="21" y="62" width="1" height="1" fill="#151D28" />
<rect x="22" y="62" width="1" height="1" fill="#151D28" />
<rect x="10" y="63" width="1" height="1" fill="#202E37" />
<rect x="11" y="63" width="1" height="1" fill="#202E37" />
<rect x="12" y="63" width="1" height="1" fill="#202E37" />
<rect x="13" y="63" width="1" height="1" fill="#151D28" />
<rect x="14" y="63" width="1" height="1" fill="#151D28" />
<rect x="15" y="63" width="1" height="1" fill="#151D28" />
<rect x="17" y="63" width="1" height="1" fill="#202E37" />
<rect x="18" y="63" width="1" height="1" fill="#202E37" />
<rect x="19" y="63" width="1" height="1" fill="#202E37" />
<rect x="20" y="63" width="1" height="1" fill="#151D28" />
<rect x="21" y="63" width="1" height="1" fill="#151D28" />
<rect x="22" y="63" width="1" height="1" fill="#151D28" />
</svg>