<?xml version="1.0" encoding="UTF-8" ?>
<svg version="1.1" width="150" height="80" xmlns="http://www.w3.org/2000/svg" shape-rendering="crispEdges">
<rect x="128" y="20" width="1" height="1" fill="#341C27" />
<rect x="129" y="20" width="1" height="1" fill="#341C27" />
<rect x="130" y="20" width="1" height="1" fill="#341C27" />
<rect x="131" y="20" width="1" height="1" fill="#341C27" />
<rect x="126" y="21" width="1" height="1" fill="#E7D5B3" />
<rect x="127" y="21" width="1" height="1" fill="#E7D5B3" />
<rect x="128" y="21" width="1" height="1" fill="#E7D5B3" />
<rect x="129" y="21" width="1" height="1" fill="#E7D5B3" />
<rect x="130" y="21" width="1" height="1" fill="#E7D5B3" />
<rect x="131" y="21" width="1" height="1" fill="#E7D5B3" />
<rect x="132" y="21" width="1" height="1" fill="#E7D5B3" />
<rect x="133" y="21" width="1" height="1" fill="#E7D5B3" />
<rect x="124" y="22" width="1" height="1" fill="#341C27" />
<rect x="125" y="22" width="1" height="1" fill="#E7D5B3" />
<rect x="126" y="22" width="1" height="1" fill="#E7D5B3" />
<rect x="127" y="22" width="1" height="1" fill="#E7D5B3" />
<rect x="128" y="22" width="1" height="1" fill="#341C27" />
<rect x="129" y="22" width="1" height="1" fill="#341C27" />
<rect x="130" y="22" width="1" height="1" fill="#341C27" />
<rect x="131" y="22" width="1" height="1" fill="#341C27" />
<rect x="132" y="22" width="1" height="1" fill="#E7D5B3" />
<rect x="133" y="22" width="1" height="1" fill="#E7D5B3" />
<rect x="134" y="22" width="1" height="1" fill="#E7D5B3" />
<rect x="135" y="22" width="1" height="1" fill="#341C27" />
<rect x="123" y="23" width="1" height="1" fill="#341C27" />
<rect x="124" y="23" width="1" height="1" fill="#E7D5B3" />
<rect x="125" y="23" width="1" height="1" fill="#E7D5B3" />
<rect x="126" y="23" width="1" height="1" fill="#E7D5B3" />
<rect x="127" y="23" width="1" height="1" fill="#341C27" />
<rect x="128" y="23" width="1" height="1" fill="#E7D5B3" />
<rect x="129" y="23" width="1" height="1" fill="#E7D5B3" />
<rect x="130" y="23" width="1" height="1" fill="#E7D5B3" />
<rect x="131" y="23" width="1" height="1" fill="#E7D5B3" />
<rect x="132" y="23" width="1" height="1" fill="#E7D5B3" />
<rect x="133" y="23" width="1" height="1" fill="#E7D5B3" />
<rect x="134" y="23" width="1" height="1" fill="#E7D5B3" />
<rect x="135" y="23" width="1" height="1" fill="#E2CFAE" />
<rect x="136" y="23" width="1" height="1" fill="#341C27" />
<rect x="123" y="24" width="1" height="1" fill="#341C27" />
<rect x="124" y="24" width="1" height="1" fill="#E7D5B3" />
<rect x="125" y="24" width="1" height="1" fill="#E7D5B3" />
<rect x="126" y="24" width="1" height="1" fill="#E7D5B3" />
<rect x="127" y="24" width="1" height="1" fill="#E7D5B3" />
<rect x="128" y="24" width="1" height="1" fill="#E7D5B3" />
<rect x="129" y="24" width="1" height="1" fill="#E7D5B3" />
<rect x="130" y="24" width="1" height="1" fill="#E7D5B3" />
<rect x="131" y="24" width="1" height="1" fill="#E7D5B3" />
<rect x="132" y="24" width="1" height="1" fill="#E7D5B3" />
<rect x="133" y="24" width="1" height="1" fill="#E7D5B3" />
<rect x="134" y="24" width="1" height="1" fill="#E7D5B3" />
<rect x="135" y="24" width="1" height="1" fill="#E2CFAE" />
<rect x="136" y="24" width="1" height="1" fill="#341C27" />
<rect x="122" y="25" width="1" height="1" fill="#341C27" />
<rect x="123" y="25" width="1" height="1" fill="#E7D5B3" />
<rect x="124" y="25" width="1" height="1" fill="#E7D5B3" />
<rect x="125" y="25" width="1" height="1" fill="#E7D5B3" />
<rect x="126" y="25" width="1" height="1" fill="#E7D5B3" />
<rect x="127" y="25" width="1" height="1" fill="#E7D5B3" />
<rect x="128" y="25" width="1" height="1" fill="#E7D5B3" />
<rect x="129" y="25" width="1" height="1" fill="#E7D5B3" />
<rect x="130" y="25" width="1" height="1" fill="#E7D5B3" />
<rect x="131" y="25" width="1" height="1" fill="#E7D5B3" />
<rect x="132" y="25" width="1" height="1" fill="#E7D5B3" />
<rect x="133" y="25" width="1" height="1" fill="#E7D5B3" />
<rect x="134" y="25" width="1" height="1" fill="#E7D5B3" />
<rect x="135" y="25" width="1" height="1" fill="#E6D4B2" />
<rect x="136" y="25" width="1" height="1" fill="#E2CFAE" />
<rect x="137" y="25" width="1" height="1" fill="#341C27" />
<rect x="122" y="26" width="1" height="1" fill="#341C27" />
<rect x="123" y="26" width="1" height="1" fill="#E7D5B3" />
<rect x="124" y="26" width="1" height="1" fill="#E7D5B3" />
<rect x="125" y="26" width="1" height="1" fill="#E7D5B3" />
<rect x="126" y="26" width="1" height="1" fill="#E7D5B3" />
<rect x="127" y="26" width="1" height="1" fill="#E7D5B3" />
<rect x="128" y="26" width="1" height="1" fill="#E7D5B3" />
<rect x="129" y="26" width="1" height="1" fill="#E7D5B3" />
<rect x="130" y="26" width="1" height="1" fill="#E7D5B3" />
<rect x="131" y="26" width="1" height="1" fill="#E7D5B3" />
<rect x="132" y="26" width="1" height="1" fill="#E7D5B3" />
<rect x="133" y="26" width="1" height="1" fill="#E7D5B3" />
<rect x="134" y="26" width="1" height="1" fill="#E7D5B3" />
<rect x="135" y="26" width="1" height="1" fill="#E7D5B3" />
<rect x="136" y="26" width="1" height="1" fill="#E2CFAE" />
<rect x="137" y="26" width="1" height="1" fill="#341C27" />
<rect x="122" y="27" width="1" height="1" fill="#E7D5B3" />
<rect x="123" y="27" width="1" height="1" fill="#E7D5B3" />
<rect x="124" y="27" width="1" height="1" fill="#E7D5B3" />
<rect x="125" y="27" width="1" height="1" fill="#E7D5B3" />
<rect x="126" y="27" width="1" height="1" fill="#10141F" />
<rect x="127" y="27" width="1" height="1" fill="#090A14" />
<rect x="128" y="27" width="1" height="1" fill="#E7D5B3" />
<rect x="129" y="27" width="1" height="1" fill="#E7D5B3" />
<rect x="130" y="27" width="1" height="1" fill="#E7D5B3" />
<rect x="131" y="27" width="1" height="1" fill="#E7D5B3" />
<rect x="132" y="27" width="1" height="1" fill="#10141F" />
<rect x="133" y="27" width="1" height="1" fill="#090A14" />
<rect x="134" y="27" width="1" height="1" fill="#E7D5B3" />
<rect x="135" y="27" width="1" height="1" fill="#E7D5B3" />
<rect x="136" y="27" width="1" height="1" fill="#E6D4B2" />
<rect x="137" y="27" width="1" height="1" fill="#E2CFAE" />
<rect x="121" y="28" width="1" height="1" fill="#C09473" />
<rect x="122" y="28" width="1" height="1" fill="#E7D5B3" />
<rect x="123" y="28" width="1" height="1" fill="#E7D5B3" />
<rect x="124" y="28" width="1" height="1" fill="#E7D5B3" />
<rect x="125" y="28" width="1" height="1" fill="#E7D5B3" />
<rect x="126" y="28" width="1" height="1" fill="#3C5E8B" />
<rect x="127" y="28" width="1" height="1" fill="#EBEDE9" />
<rect x="128" y="28" width="1" height="1" fill="#E7D5B3" />
<rect x="129" y="28" width="1" height="1" fill="#E7D5B3" />
<rect x="130" y="28" width="1" height="1" fill="#D7B594" />
<rect x="131" y="28" width="1" height="1" fill="#E7D5B3" />
<rect x="132" y="28" width="1" height="1" fill="#3C5E8B" />
<rect x="133" y="28" width="1" height="1" fill="#EBEDE9" />
<rect x="134" y="28" width="1" height="1" fill="#E7D5B3" />
<rect x="135" y="28" width="1" height="1" fill="#E7D5B3" />
<rect x="136" y="28" width="1" height="1" fill="#E7D5B3" />
<rect x="137" y="28" width="1" height="1" fill="#E2CFAE" />
<rect x="138" y="28" width="1" height="1" fill="#C09473" />
<rect x="121" y="29" width="1" height="1" fill="#C09473" />
<rect x="122" y="29" width="1" height="1" fill="#E7D5B3" />
<rect x="123" y="29" width="1" height="1" fill="#E7D5B3" />
<rect x="124" y="29" width="1" height="1" fill="#E7D5B3" />
<rect x="125" y="29" width="1" height="1" fill="#E7D5B3" />
<rect x="126" y="29" width="1" height="1" fill="#E7D5B3" />
<rect x="127" y="29" width="1" height="1" fill="#E7D5B3" />
<rect x="128" y="29" width="1" height="1" fill="#E7D5B3" />
<rect x="129" y="29" width="1" height="1" fill="#D7B594" />
<rect x="130" y="29" width="1" height="1" fill="#D7B594" />
<rect x="131" y="29" width="1" height="1" fill="#E7D5B3" />
<rect x="132" y="29" width="1" height="1" fill="#E7D5B3" />
<rect x="133" y="29" width="1" height="1" fill="#E7D5B3" />
<rect x="134" y="29" width="1" height="1" fill="#E7D5B3" />
<rect x="135" y="29" width="1" height="1" fill="#E7D5B3" />
<rect x="136" y="29" width="1" height="1" fill="#E7D5B3" />
<rect x="137" y="29" width="1" height="1" fill="#E2CFAE" />
<rect x="138" y="29" width="1" height="1" fill="#C09473" />
<rect x="121" y="30" width="1" height="1" fill="#D7B594" />
<rect x="122" y="30" width="1" height="1" fill="#E7D5B3" />
<rect x="123" y="30" width="1" height="1" fill="#E7D5B3" />
<rect x="124" y="30" width="1" height="1" fill="#E7D5B3" />
<rect x="125" y="30" width="1" height="1" fill="#E7D5B3" />
<rect x="126" y="30" width="1" height="1" fill="#E7D5B3" />
<rect x="127" y="30" width="1" height="1" fill="#E7D5B3" />
<rect x="128" y="30" width="1" height="1" fill="#E7D5B3" />
<rect x="129" y="30" width="1" height="1" fill="#D7B594" />
<rect x="130" y="30" width="1" height="1" fill="#D7B594" />
<rect x="131" y="30" width="1" height="1" fill="#E7D5B3" />
<rect x="132" y="30" width="1" height="1" fill="#E7D5B3" />
<rect x="133" y="30" width="1" height="1" fill="#E7D5B3" />
<rect x="134" y="30" width="1" height="1" fill="#E7D5B3" />
<rect x="135" y="30" width="1" height="1" fill="#E7D5B3" />
<rect x="136" y="30" width="1" height="1" fill="#E7D5B3" />
<rect x="137" y="30" width="1" height="1" fill="#E2CFAE" />
<rect x="138" y="30" width="1" height="1" fill="#D7B594" />
<rect x="122" y="31" width="1" height="1" fill="#E7D5B3" />
<rect x="123" y="31" width="1" height="1" fill="#E7D5B3" />
<rect x="124" y="31" width="1" height="1" fill="#E7D5B3" />
<rect x="125" y="31" width="1" height="1" fill="#E7D5B3" />
<rect x="126" y="31" width="1" height="1" fill="#E7D5B3" />
<rect x="127" y="31" width="1" height="1" fill="#341C27" />
<rect x="128" y="31" width="1" height="1" fill="#341C27" />
<rect x="129" y="31" width="1" height="1" fill="#341C27" />
<rect x="130" y="31" width="1" height="1" fill="#341C27" />
<rect x="131" y="31" width="1" height="1" fill="#341C27" />
<rect x="132" y="31" width="1" height="1" fill="#341C27" />
<rect x="133" y="31" width="1" height="1" fill="#E7D5B3" />
<rect x="134" y="31" width="1" height="1" fill="#E7D5B3" />
<rect x="135" y="31" width="1" height="1" fill="#E7D5B3" />
<rect x="136" y="31" width="1" height="1" fill="#E7D5B3" />
<rect x="137" y="31" width="1" height="1" fill="#E2CFAE" />
<rect x="122" y="32" width="1" height="1" fill="#E7D5B3" />
<rect x="123" y="32" width="1" height="1" fill="#E7D5B3" />
<rect x="124" y="32" width="1" height="1" fill="#E7D5B3" />
<rect x="125" y="32" width="1" height="1" fill="#E7D5B3" />
<rect x="126" y="32" width="1" height="1" fill="#E7D5B3" />
<rect x="127" y="32" width="1" height="1" fill="#E7D5B3" />
<rect x="128" y="32" width="1" height="1" fill="#E7D5B3" />
<rect x="129" y="32" width="1" height="1" fill="#E7D5B3" />
<rect x="130" y="32" width="1" height="1" fill="#E7D5B3" />
<rect x="131" y="32" width="1" height="1" fill="#E7D5B3" />
<rect x="132" y="32" width="1" height="1" fill="#E7D5B3" />
<rect x="133" y="32" width="1" height="1" fill="#E7D5B3" />
<rect x="134" y="32" width="1" height="1" fill="#E7D5B3" />
<rect x="135" y="32" width="1" height="1" fill="#E7D5B3" />
<rect x="136" y="32" width="1" height="1" fill="#E2CFAE" />
<rect x="137" y="32" width="1" height="1" fill="#E2CFAE" />
<rect x="123" y="33" width="1" height="1" fill="#E7D5B3" />
<rect x="124" y="33" width="1" height="1" fill="#E7D5B3" />
<rect x="125" y="33" width="1" height="1" fill="#E7D5B3" />
<rect x="126" y="33" width="1" height="1" fill="#E7D5B3" />
<rect x="127" y="33" width="1" height="1" fill="#E7D5B3" />
<rect x="128" y="33" width="1" height="1" fill="#E7D5B3" />
<rect x="129" y="33" width="1" height="1" fill="#D7B594" />
<rect x="130" y="33" width="1" height="1" fill="#D7B594" />
<rect x="131" y="33" width="1" height="1" fill="#E7D5B3" />
<rect x="132" y="33" width="1" height="1" fill="#E7D5B3" />
<rect x="133" y="33" width="1" height="1" fill="#E7D5B3" />
<rect x="134" y="33" width="1" height="1" fill="#E7D5B3" />
<rect x="135" y="33" width="1" height="1" fill="#E6D4B2" />
<rect x="136" y="33" width="1" height="1" fill="#E2CFAE" />
<rect x="124" y="34" width="1" height="1" fill="#E7D5B3" />
<rect x="125" y="34" width="1" height="1" fill="#E7D5B3" />
<rect x="126" y="34" width="1" height="1" fill="#E7D5B3" />
<rect x="127" y="34" width="1" height="1" fill="#E7D5B3" />
<rect x="128" y="34" width="1" height="1" fill="#E7D5B3" />
<rect x="129" y="34" width="1" height="1" fill="#D7B594" />
<rect x="130" y="34" width="1" height="1" fill="#E7D5B3" />
<rect x="131" y="34" width="1" height="1" fill="#E7D5B3" />
<rect x="132" y="34" width="1" height="1" fill="#E7D5B3" />
<rect x="133" y="34" width="1" height="1" fill="#E7D5B3" />
<rect x="134" y="34" width="1" height="1" fill="#E7D5B3" />
<rect x="135" y="34" width="1" height="1" fill="#E2CFAE" />
<rect x="136" y="34" width="1" height="1" fill="#E2CFAE" />
<rect x="125" y="35" width="1" height="1" fill="#D7B594" />
<rect x="126" y="35" width="1" height="1" fill="#E7D5B3" />
<rect x="127" y="35" width="1" height="1" fill="#E7D5B3" />
<rect x="128" y="35" width="1" height="1" fill="#E7D5B3" />
<rect x="129" y="35" width="1" height="1" fill="#E7D5B3" />
<rect x="130" y="35" width="1" height="1" fill="#E7D5B3" />
<rect x="131" y="35" width="1" height="1" fill="#E7D5B3" />
<rect x="132" y="35" width="1" height="1" fill="#E7D5B3" />
<rect x="133" y="35" width="1" height="1" fill="#E7D5B3" />
<rect x="134" y="35" width="1" height="1" fill="#E2CFAE" />
<rect x="135" y="35" width="1" height="1" fill="#D7B594" />
<rect x="125" y="36" width="1" height="1" fill="#819796" />
<rect x="126" y="36" width="1" height="1" fill="#D7B594" />
<rect x="127" y="36" width="1" height="1" fill="#E7D5B3" />
<rect x="128" y="36" width="1" height="1" fill="#E7D5B3" />
<rect x="129" y="36" width="1" height="1" fill="#E7D5B3" />
<rect x="130" y="36" width="1" height="1" fill="#E7D5B3" />
<rect x="131" y="36" width="1" height="1" fill="#E7D5B3" />
<rect x="132" y="36" width="1" height="1" fill="#E7D5B3" />
<rect x="133" y="36" width="1" height="1" fill="#E2CFAE" />
<rect x="134" y="36" width="1" height="1" fill="#D7B594" />
<rect x="135" y="36" width="1" height="1" fill="#7A8F8E" />
<rect x="122" y="37" width="1" height="1" fill="#BE772B" />
<rect x="123" y="37" width="1" height="1" fill="#BE772B" />
<rect x="124" y="37" width="1" height="1" fill="#AB6B26" />
<rect x="125" y="37" width="1" height="1" fill="#748887" />
<rect x="126" y="37" width="1" height="1" fill="#A8B5B2" />
<rect x="127" y="37" width="1" height="1" fill="#819796" />
<rect x="128" y="37" width="1" height="1" fill="#D7B594" />
<rect x="129" y="37" width="1" height="1" fill="#D7B594" />
<rect x="130" y="37" width="1" height="1" fill="#D7B594" />
<rect x="131" y="37" width="1" height="1" fill="#D7B594" />
<rect x="132" y="37" width="1" height="1" fill="#D7B594" />
<rect x="133" y="37" width="1" height="1" fill="#7A8F8E" />
<rect x="134" y="37" width="1" height="1" fill="#8F9B98" />
<rect x="135" y="37" width="1" height="1" fill="#6E8080" />
<rect x="136" y="37" width="1" height="1" fill="#AB6B26" />
<rect x="137" y="37" width="1" height="1" fill="#BE772B" />
<rect x="138" y="37" width="1" height="1" fill="#BE772B" />
<rect x="120" y="38" width="1" height="1" fill="#879E9D" />
<rect x="121" y="38" width="1" height="1" fill="#BE772B" />
<rect x="122" y="38" width="1" height="1" fill="#BE772B" />
<rect x="123" y="38" width="1" height="1" fill="#BE772B" />
<rect x="124" y="38" width="1" height="1" fill="#AB6B26" />
<rect x="125" y="38" width="1" height="1" fill="#AB6B26" />
<rect x="126" y="38" width="1" height="1" fill="#4E666B" />
<rect x="127" y="38" width="1" height="1" fill="#819796" />
<rect x="128" y="38" width="1" height="1" fill="#A8B5B2" />
<rect x="129" y="38" width="1" height="1" fill="#819796" />
<rect x="130" y="38" width="1" height="1" fill="#A8B5B2" />
<rect x="131" y="38" width="1" height="1" fill="#819796" />
<rect x="132" y="38" width="1" height="1" fill="#A8B5B2" />
<rect x="133" y="38" width="1" height="1" fill="#7A8F8E" />
<rect x="134" y="38" width="1" height="1" fill="#4E666B" />
<rect x="135" y="38" width="1" height="1" fill="#AB6B26" />
<rect x="136" y="38" width="1" height="1" fill="#AB6B26" />
<rect x="137" y="38" width="1" height="1" fill="#BE772B" />
<rect x="138" y="38" width="1" height="1" fill="#BE772B" />
<rect x="139" y="38" width="1" height="1" fill="#AB6B26" />
<rect x="140" y="38" width="1" height="1" fill="#819796" />
<rect x="141" y="38" width="1" height="1" fill="#A8B5B2" />
<rect x="119" y="39" width="1" height="1" fill="#B0BEBB" />
<rect x="120" y="39" width="1" height="1" fill="#879E9D" />
<rect x="121" y="39" width="1" height="1" fill="#BE772B" />
<rect x="122" y="39" width="1" height="1" fill="#BE772B" />
<rect x="123" y="39" width="1" height="1" fill="#BE772B" />
<rect x="124" y="39" width="1" height="1" fill="#BE772B" />
<rect x="125" y="39" width="1" height="1" fill="#AB6B26" />
<rect x="126" y="39" width="1" height="1" fill="#AB6B26" />
<rect x="127" y="39" width="1" height="1" fill="#748887" />
<rect x="128" y="39" width="1" height="1" fill="#4E666B" />
<rect x="129" y="39" width="1" height="1" fill="#819796" />
<rect x="130" y="39" width="1" height="1" fill="#577277" />
<rect x="131" y="39" width="1" height="1" fill="#819796" />
<rect x="132" y="39" width="1" height="1" fill="#496165" />
<rect x="133" y="39" width="1" height="1" fill="#6E8080" />
<rect x="134" y="39" width="1" height="1" fill="#AB6B26" />
<rect x="135" y="39" width="1" height="1" fill="#AB6B26" />
<rect x="136" y="39" width="1" height="1" fill="#BE772B" />
<rect x="137" y="39" width="1" height="1" fill="#BE772B" />
<rect x="138" y="39" width="1" height="1" fill="#BE772B" />
<rect x="139" y="39" width="1" height="1" fill="#A8B5B2" />
<rect x="140" y="39" width="1" height="1" fill="#819796" />
<rect x="141" y="39" width="1" height="1" fill="#577277" />
<rect x="142" y="39" width="1" height="1" fill="#819796" />
<rect x="118" y="40" width="1" height="1" fill="#879E9D" />
<rect x="119" y="40" width="1" height="1" fill="#577277" />
<rect x="120" y="40" width="1" height="1" fill="#819796" />
<rect x="121" y="40" width="1" height="1" fill="#BE772B" />
<rect x="122" y="40" width="1" height="1" fill="#BE772B" />
<rect x="123" y="40" width="1" height="1" fill="#BE772B" />
<rect x="124" y="40" width="1" height="1" fill="#BE772B" />
<rect x="125" y="40" width="1" height="1" fill="#BE772B" />
<rect x="126" y="40" width="1" height="1" fill="#AB6B26" />
<rect x="127" y="40" width="1" height="1" fill="#AB6B26" />
<rect x="128" y="40" width="1" height="1" fill="#8F9B98" />
<rect x="129" y="40" width="1" height="1" fill="#748887" />
<rect x="130" y="40" width="1" height="1" fill="#8F9B98" />
<rect x="131" y="40" width="1" height="1" fill="#6E8080" />
<rect x="132" y="40" width="1" height="1" fill="#8F9B98" />
<rect x="133" y="40" width="1" height="1" fill="#AB6B26" />
<rect x="134" y="40" width="1" height="1" fill="#AB6B26" />
<rect x="135" y="40" width="1" height="1" fill="#BE772B" />
<rect x="136" y="40" width="1" height="1" fill="#BE772B" />
<rect x="137" y="40" width="1" height="1" fill="#BE772B" />
<rect x="138" y="40" width="1" height="1" fill="#BE772B" />
<rect x="139" y="40" width="1" height="1" fill="#577277" />
<rect x="140" y="40" width="1" height="1" fill="#819796" />
<rect x="141" y="40" width="1" height="1" fill="#A8B5B2" />
<rect x="142" y="40" width="1" height="1" fill="#819796" />
<rect x="143" y="40" width="1" height="1" fill="#577277" />
<rect x="117" y="41" width="1" height="1" fill="#B0BEBB" />
<rect x="118" y="41" width="1" height="1" fill="#879E9D" />
<rect x="119" y="41" width="1" height="1" fill="#A8B5B2" />
<rect x="120" y="41" width="1" height="1" fill="#BE772B" />
<rect x="121" y="41" width="1" height="1" fill="#BE772B" />
<rect x="122" y="41" width="1" height="1" fill="#BE772B" />
<rect x="123" y="41" width="1" height="1" fill="#BE772B" />
<rect x="124" y="41" width="1" height="1" fill="#BE772B" />
<rect x="125" y="41" width="1" height="1" fill="#BE772B" />
<rect x="126" y="41" width="1" height="1" fill="#BE772B" />
<rect x="127" y="41" width="1" height="1" fill="#AB6B26" />
<rect x="128" y="41" width="1" height="1" fill="#AB6B26" />
<rect x="129" y="41" width="1" height="1" fill="#748887" />
<rect x="130" y="41" width="1" height="1" fill="#496165" />
<rect x="131" y="41" width="1" height="1" fill="#6E8080" />
<rect x="132" y="41" width="1" height="1" fill="#AB6B26" />
<rect x="133" y="41" width="1" height="1" fill="#AB6B26" />
<rect x="134" y="41" width="1" height="1" fill="#BE772B" />
<rect x="135" y="41" width="1" height="1" fill="#BE772B" />
<rect x="136" y="41" width="1" height="1" fill="#BE772B" />
<rect x="137" y="41" width="1" height="1" fill="#BE772B" />
<rect x="138" y="41" width="1" height="1" fill="#BE772B" />
<rect x="139" y="41" width="1" height="1" fill="#BE772B" />
<rect x="140" y="41" width="1" height="1" fill="#819796" />
<rect x="141" y="41" width="1" height="1" fill="#577277" />
<rect x="142" y="41" width="1" height="1" fill="#819796" />
<rect x="143" y="41" width="1" height="1" fill="#A8B5B2" />
<rect x="117" y="42" width="1" height="1" fill="#5B777D" />
<rect x="118" y="42" width="1" height="1" fill="#819796" />
<rect x="119" y="42" width="1" height="1" fill="#577277" />
<rect x="120" y="42" width="1" height="1" fill="#BE772B" />
<rect x="121" y="42" width="1" height="1" fill="#BE772B" />
<rect x="122" y="42" width="1" height="1" fill="#BE772B" />
<rect x="123" y="42" width="1" height="1" fill="#BE772B" />
<rect x="124" y="42" width="1" height="1" fill="#BE772B" />
<rect x="125" y="42" width="1" height="1" fill="#BE772B" />
<rect x="126" y="42" width="1" height="1" fill="#BE772B" />
<rect x="127" y="42" width="1" height="1" fill="#BE772B" />
<rect x="128" y="42" width="1" height="1" fill="#AB6B26" />
<rect x="129" y="42" width="1" height="1" fill="#AB6B26" />
<rect x="130" y="42" width="1" height="1" fill="#626B69" />
<rect x="131" y="42" width="1" height="1" fill="#AB6B26" />
<rect x="132" y="42" width="1" height="1" fill="#AB6B26" />
<rect x="133" y="42" width="1" height="1" fill="#BE772B" />
<rect x="134" y="42" width="1" height="1" fill="#BE772B" />
<rect x="135" y="42" width="1" height="1" fill="#BE772B" />
<rect x="136" y="42" width="1" height="1" fill="#BE772B" />
<rect x="137" y="42" width="1" height="1" fill="#BE772B" />
<rect x="138" y="42" width="1" height="1" fill="#BE772B" />
<rect x="139" y="42" width="1" height="1" fill="#BE772B" />
<rect x="140" y="42" width="1" height="1" fill="#BE772B" />
<rect x="141" y="42" width="1" height="1" fill="#A8B5B2" />
<rect x="142" y="42" width="1" height="1" fill="#819796" />
<rect x="143" y="42" width="1" height="1" fill="#577277" />
<rect x="116" y="43" width="1" height="1" fill="#879E9D" />
<rect x="117" y="43" width="1" height="1" fill="#A8B5B2" />
<rect x="118" y="43" width="1" height="1" fill="#819796" />
<rect x="119" y="43" width="1" height="1" fill="#BE772B" />
<rect x="120" y="43" width="1" height="1" fill="#BE772B" />
<rect x="121" y="43" width="1" height="1" fill="#BE772B" />
<rect x="122" y="43" width="1" height="1" fill="#BE772B" />
<rect x="123" y="43" width="1" height="1" fill="#172038" />
<rect x="124" y="43" width="1" height="1" fill="#752438" />
<rect x="125" y="43" width="1" height="1" fill="#BE772B" />
<rect x="126" y="43" width="1" height="1" fill="#BE772B" />
<rect x="127" y="43" width="1" height="1" fill="#BE772B" />
<rect x="128" y="43" width="1" height="1" fill="#BE772B" />
<rect x="129" y="43" width="1" height="1" fill="#AB6B26" />
<rect x="130" y="43" width="1" height="1" fill="#AB6B26" />
<rect x="131" y="43" width="1" height="1" fill="#AB6B26" />
<rect x="132" y="43" width="1" height="1" fill="#BE772B" />
<rect x="133" y="43" width="1" height="1" fill="#BE772B" />
<rect x="134" y="43" width="1" height="1" fill="#BE772B" />
<rect x="135" y="43" width="1" height="1" fill="#BE772B" />
<rect x="136" y="43" width="1" height="1" fill="#BE772B" />
<rect x="137" y="43" width="1" height="1" fill="#BE772B" />
<rect x="138" y="43" width="1" height="1" fill="#BE772B" />
<rect x="139" y="43" width="1" height="1" fill="#BE772B" />
<rect x="140" y="43" width="1" height="1" fill="#BE772B" />
<rect x="141" y="43" width="1" height="1" fill="#577277" />
<rect x="142" y="43" width="1" height="1" fill="#819796" />
<rect x="143" y="43" width="1" height="1" fill="#A8B5B2" />
<rect x="116" y="44" width="1" height="1" fill="#879E9D" />
<rect x="117" y="44" width="1" height="1" fill="#577277" />
<rect x="118" y="44" width="1" height="1" fill="#BE772B" />
<rect x="119" y="44" width="1" height="1" fill="#BE772B" />
<rect x="120" y="44" width="1" height="1" fill="#BE772B" />
<rect x="121" y="44" width="1" height="1" fill="#BE772B" />
<rect x="122" y="44" width="1" height="1" fill="#BE772B" />
<rect x="123" y="44" width="1" height="1" fill="#253A5E" />
<rect x="124" y="44" width="1" height="1" fill="#A53030" />
<rect x="125" y="44" width="1" height="1" fill="#BE772B" />
<rect x="126" y="44" width="1" height="1" fill="#BE772B" />
<rect x="127" y="44" width="1" height="1" fill="#BE772B" />
<rect x="128" y="44" width="1" height="1" fill="#BE772B" />
<rect x="129" y="44" width="1" height="1" fill="#BE772B" />
<rect x="130" y="44" width="1" height="1" fill="#884B2B" />
<rect x="131" y="44" width="1" height="1" fill="#BE772B" />
<rect x="132" y="44" width="1" height="1" fill="#BE772B" />
<rect x="133" y="44" width="1" height="1" fill="#BE772B" />
<rect x="134" y="44" width="1" height="1" fill="#BE772B" />
<rect x="135" y="44" width="1" height="1" fill="#BE772B" />
<rect x="136" y="44" width="1" height="1" fill="#BE772B" />
<rect x="137" y="44" width="1" height="1" fill="#BE772B" />
<rect x="138" y="44" width="1" height="1" fill="#BE772B" />
<rect x="139" y="44" width="1" height="1" fill="#BE772B" />
<rect x="140" y="44" width="1" height="1" fill="#819796" />
<rect x="141" y="44" width="1" height="1" fill="#A8B5B2" />
<rect x="142" y="44" width="1" height="1" fill="#819796" />
<rect x="143" y="44" width="1" height="1" fill="#577277" />
<rect x="116" y="45" width="1" height="1" fill="#879E9D" />
<rect x="117" y="45" width="1" height="1" fill="#A8B5B2" />
<rect x="118" y="45" width="1" height="1" fill="#BE772B" />
<rect x="119" y="45" width="1" height="1" fill="#BE772B" />
<rect x="120" y="45" width="1" height="1" fill="#BE772B" />
<rect x="121" y="45" width="1" height="1" fill="#BE772B" />
<rect x="122" y="45" width="1" height="1" fill="#884B2B" />
<rect x="123" y="45" width="1" height="1" fill="#884B2B" />
<rect x="124" y="45" width="1" height="1" fill="#884B2B" />
<rect x="125" y="45" width="1" height="1" fill="#884B2B" />
<rect x="126" y="45" width="1" height="1" fill="#BE772B" />
<rect x="127" y="45" width="1" height="1" fill="#BE772B" />
<rect x="128" y="45" width="1" height="1" fill="#BE772B" />
<rect x="129" y="45" width="1" height="1" fill="#BE772B" />
<rect x="130" y="45" width="1" height="1" fill="#884B2B" />
<rect x="131" y="45" width="1" height="1" fill="#BE772B" />
<rect x="132" y="45" width="1" height="1" fill="#BE772B" />
<rect x="133" y="45" width="1" height="1" fill="#BE772B" />
<rect x="134" y="45" width="1" height="1" fill="#BE772B" />
<rect x="135" y="45" width="1" height="1" fill="#884B2B" />
<rect x="136" y="45" width="1" height="1" fill="#884B2B" />
<rect x="137" y="45" width="1" height="1" fill="#884B2B" />
<rect x="138" y="45" width="1" height="1" fill="#E7D5B3" />
<rect x="139" y="45" width="1" height="1" fill="#D7B594" />
<rect x="140" y="45" width="1" height="1" fill="#819796" />
<rect x="141" y="45" width="1" height="1" fill="#577277" />
<rect x="142" y="45" width="1" height="1" fill="#819796" />
<rect x="143" y="45" width="1" height="1" fill="#A8B5B2" />
<rect x="116" y="46" width="1" height="1" fill="#E7D5B3" />
<rect x="117" y="46" width="1" height="1" fill="#E7D5B3" />
<rect x="118" y="46" width="1" height="1" fill="#BE772B" />
<rect x="119" y="46" width="1" height="1" fill="#BE772B" />
<rect x="120" y="46" width="1" height="1" fill="#BE772B" />
<rect x="121" y="46" width="1" height="1" fill="#BE772B" />
<rect x="122" y="46" width="1" height="1" fill="#884B2B" />
<rect x="123" y="46" width="1" height="1" fill="#884B2B" />
<rect x="124" y="46" width="1" height="1" fill="#884B2B" />
<rect x="125" y="46" width="1" height="1" fill="#884B2B" />
<rect x="126" y="46" width="1" height="1" fill="#BE772B" />
<rect x="127" y="46" width="1" height="1" fill="#BE772B" />
<rect x="128" y="46" width="1" height="1" fill="#BE772B" />
<rect x="129" y="46" width="1" height="1" fill="#BE772B" />
<rect x="130" y="46" width="1" height="1" fill="#884B2B" />
<rect x="131" y="46" width="1" height="1" fill="#602C2C" />
<rect x="132" y="46" width="1" height="1" fill="#BE772B" />
<rect x="133" y="46" width="1" height="1" fill="#BE772B" />
<rect x="134" y="46" width="1" height="1" fill="#BE772B" />
<rect x="135" y="46" width="1" height="1" fill="#884B2B" />
<rect x="136" y="46" width="1" height="1" fill="#884B2B" />
<rect x="137" y="46" width="1" height="1" fill="#E7D5B3" />
<rect x="138" y="46" width="1" height="1" fill="#E7D5B3" />
<rect x="139" y="46" width="1" height="1" fill="#E7D5B3" />
<rect x="140" y="46" width="1" height="1" fill="#D7B594" />
<rect x="141" y="46" width="1" height="1" fill="#A8B5B2" />
<rect x="142" y="46" width="1" height="1" fill="#819796" />
<rect x="143" y="46" width="1" height="1" fill="#AB6B26" />
<rect x="116" y="47" width="1" height="1" fill="#D7B594" />
<rect x="117" y="47" width="1" height="1" fill="#D7B594" />
<rect x="118" y="47" width="1" height="1" fill="#BE772B" />
<rect x="119" y="47" width="1" height="1" fill="#BE772B" />
<rect x="120" y="47" width="1" height="1" fill="#BE772B" />
<rect x="121" y="47" width="1" height="1" fill="#BE772B" />
<rect x="122" y="47" width="1" height="1" fill="#BE772B" />
<rect x="123" y="47" width="1" height="1" fill="#BE772B" />
<rect x="124" y="47" width="1" height="1" fill="#BE772B" />
<rect x="125" y="47" width="1" height="1" fill="#BE772B" />
<rect x="126" y="47" width="1" height="1" fill="#BE772B" />
<rect x="127" y="47" width="1" height="1" fill="#BE772B" />
<rect x="128" y="47" width="1" height="1" fill="#BE772B" />
<rect x="129" y="47" width="1" height="1" fill="#BE772B" />
<rect x="130" y="47" width="1" height="1" fill="#884B2B" />
<rect x="131" y="47" width="1" height="1" fill="#BE772B" />
<rect x="132" y="47" width="1" height="1" fill="#BE772B" />
<rect x="133" y="47" width="1" height="1" fill="#BE772B" />
<rect x="134" y="47" width="1" height="1" fill="#BE772B" />
<rect x="135" y="47" width="1" height="1" fill="#BE772B" />
<rect x="136" y="47" width="1" height="1" fill="#BE772B" />
<rect x="137" y="47" width="1" height="1" fill="#E7D5B3" />
<rect x="138" y="47" width="1" height="1" fill="#E7D5B3" />
<rect x="139" y="47" width="1" height="1" fill="#E7D5B3" />
<rect x="140" y="47" width="1" height="1" fill="#D7B594" />
<rect x="141" y="47" width="1" height="1" fill="#577277" />
<rect x="142" y="47" width="1" height="1" fill="#AB6B26" />
<rect x="143" y="47" width="1" height="1" fill="#AB6B26" />
<rect x="118" y="48" width="1" height="1" fill="#BE772B" />
<rect x="119" y="48" width="1" height="1" fill="#BE772B" />
<rect x="120" y="48" width="1" height="1" fill="#BE772B" />
<rect x="121" y="48" width="1" height="1" fill="#BE772B" />
<rect x="122" y="48" width="1" height="1" fill="#BE772B" />
<rect x="123" y="48" width="1" height="1" fill="#BE772B" />
<rect x="124" y="48" width="1" height="1" fill="#BE772B" />
<rect x="125" y="48" width="1" height="1" fill="#BE772B" />
<rect x="126" y="48" width="1" height="1" fill="#BE772B" />
<rect x="127" y="48" width="1" height="1" fill="#BE772B" />
<rect x="128" y="48" width="1" height="1" fill="#BE772B" />
<rect x="129" y="48" width="1" height="1" fill="#BE772B" />
<rect x="130" y="48" width="1" height="1" fill="#884B2B" />
<rect x="131" y="48" width="1" height="1" fill="#BE772B" />
<rect x="132" y="48" width="1" height="1" fill="#BE772B" />
<rect x="133" y="48" width="1" height="1" fill="#BE772B" />
<rect x="134" y="48" width="1" height="1" fill="#BE772B" />
<rect x="135" y="48" width="1" height="1" fill="#BE772B" />
<rect x="136" y="48" width="1" height="1" fill="#BE772B" />
<rect x="137" y="48" width="1" height="1" fill="#BE772B" />
<rect x="138" y="48" width="1" height="1" fill="#E7D5B3" />
<rect x="139" y="48" width="1" height="1" fill="#E7D5B3" />
<rect x="140" y="48" width="1" height="1" fill="#BE772B" />
<rect x="141" y="48" width="1" height="1" fill="#BE772B" />
<rect x="142" y="48" width="1" height="1" fill="#AB6B26" />
<rect x="143" y="48" width="1" height="1" fill="#AB6B26" />
<rect x="118" y="49" width="1" height="1" fill="#BE772B" />
<rect x="119" y="49" width="1" height="1" fill="#BE772B" />
<rect x="120" y="49" width="1" height="1" fill="#BE772B" />
<rect x="121" y="49" width="1" height="1" fill="#BE772B" />
<rect x="122" y="49" width="1" height="1" fill="#BE772B" />
<rect x="123" y="49" width="1" height="1" fill="#BE772B" />
<rect x="124" y="49" width="1" height="1" fill="#BE772B" />
<rect x="125" y="49" width="1" height="1" fill="#BE772B" />
<rect x="126" y="49" width="1" height="1" fill="#BE772B" />
<rect x="127" y="49" width="1" height="1" fill="#BE772B" />
<rect x="128" y="49" width="1" height="1" fill="#BE772B" />
<rect x="129" y="49" width="1" height="1" fill="#BE772B" />
<rect x="130" y="49" width="1" height="1" fill="#884B2B" />
<rect x="131" y="49" width="1" height="1" fill="#602C2C" />
<rect x="132" y="49" width="1" height="1" fill="#BE772B" />
<rect x="133" y="49" width="1" height="1" fill="#BE772B" />
<rect x="134" y="49" width="1" height="1" fill="#BE772B" />
<rect x="135" y="49" width="1" height="1" fill="#BE772B" />
<rect x="136" y="49" width="1" height="1" fill="#BE772B" />
<rect x="137" y="49" width="1" height="1" fill="#BE772B" />
<rect x="138" y="49" width="1" height="1" fill="#BE772B" />
<rect x="139" y="49" width="1" height="1" fill="#BE772B" />
<rect x="140" y="49" width="1" height="1" fill="#BE772B" />
<rect x="141" y="49" width="1" height="1" fill="#BE772B" />
<rect x="142" y="49" width="1" height="1" fill="#AB6B26" />
<rect x="143" y="49" width="1" height="1" fill="#AB6B26" />
<rect x="118" y="50" width="1" height="1" fill="#C47A2C" />
<rect x="119" y="50" width="1" height="1" fill="#BE772B" />
<rect x="120" y="50" width="1" height="1" fill="#BE772B" />
<rect x="121" y="50" width="1" height="1" fill="#BE772B" />
<rect x="122" y="50" width="1" height="1" fill="#BE772B" />
<rect x="123" y="50" width="1" height="1" fill="#BE772B" />
<rect x="124" y="50" width="1" height="1" fill="#BE772B" />
<rect x="125" y="50" width="1" height="1" fill="#BE772B" />
<rect x="126" y="50" width="1" height="1" fill="#BE772B" />
<rect x="127" y="50" width="1" height="1" fill="#BE772B" />
<rect x="128" y="50" width="1" height="1" fill="#BE772B" />
<rect x="129" y="50" width="1" height="1" fill="#BE772B" />
<rect x="130" y="50" width="1" height="1" fill="#884B2B" />
<rect x="131" y="50" width="1" height="1" fill="#BE772B" />
<rect x="132" y="50" width="1" height="1" fill="#BE772B" />
<rect x="133" y="50" width="1" height="1" fill="#BE772B" />
<rect x="134" y="50" width="1" height="1" fill="#BE772B" />
<rect x="135" y="50" width="1" height="1" fill="#BE772B" />
<rect x="136" y="50" width="1" height="1" fill="#BE772B" />
<rect x="137" y="50" width="1" height="1" fill="#BE772B" />
<rect x="138" y="50" width="1" height="1" fill="#BE772B" />
<rect x="139" y="50" width="1" height="1" fill="#BE772B" />
<rect x="140" y="50" width="1" height="1" fill="#BE772B" />
<rect x="141" y="50" width="1" height="1" fill="#BE772B" />
<rect x="142" y="50" width="1" height="1" fill="#AB6B26" />
<rect x="143" y="50" width="1" height="1" fill="#AB6B26" />
<rect x="119" y="51" width="1" height="1" fill="#BE772B" />
<rect x="120" y="51" width="1" height="1" fill="#BE772B" />
<rect x="121" y="51" width="1" height="1" fill="#BE772B" />
<rect x="122" y="51" width="1" height="1" fill="#BE772B" />
<rect x="123" y="51" width="1" height="1" fill="#BE772B" />
<rect x="124" y="51" width="1" height="1" fill="#BE772B" />
<rect x="125" y="51" width="1" height="1" fill="#BE772B" />
<rect x="126" y="51" width="1" height="1" fill="#BE772B" />
<rect x="127" y="51" width="1" height="1" fill="#BE772B" />
<rect x="128" y="51" width="1" height="1" fill="#BE772B" />
<rect x="129" y="51" width="1" height="1" fill="#BE772B" />
<rect x="130" y="51" width="1" height="1" fill="#884B2B" />
<rect x="131" y="51" width="1" height="1" fill="#BE772B" />
<rect x="132" y="51" width="1" height="1" fill="#BE772B" />
<rect x="133" y="51" width="1" height="1" fill="#BE772B" />
<rect x="134" y="51" width="1" height="1" fill="#BE772B" />
<rect x="135" y="51" width="1" height="1" fill="#BE772B" />
<rect x="136" y="51" width="1" height="1" fill="#BE772B" />
<rect x="137" y="51" width="1" height="1" fill="#BE772B" />
<rect x="138" y="51" width="1" height="1" fill="#BE772B" />
<rect x="139" y="51" width="1" height="1" fill="#BE772B" />
<rect x="140" y="51" width="1" height="1" fill="#BE772B" />
<rect x="141" y="51" width="1" height="1" fill="#AB6B26" />
<rect x="142" y="51" width="1" height="1" fill="#AB6B26" />
<rect x="119" y="52" width="1" height="1" fill="#C47A2C" />
<rect x="120" y="52" width="1" height="1" fill="#BE772B" />
<rect x="121" y="52" width="1" height="1" fill="#BE772B" />
<rect x="122" y="52" width="1" height="1" fill="#BE772B" />
<rect x="123" y="52" width="1" height="1" fill="#BE772B" />
<rect x="124" y="52" width="1" height="1" fill="#BE772B" />
<rect x="125" y="52" width="1" height="1" fill="#BE772B" />
<rect x="126" y="52" width="1" height="1" fill="#BE772B" />
<rect x="127" y="52" width="1" height="1" fill="#BE772B" />
<rect x="128" y="52" width="1" height="1" fill="#BE772B" />
<rect x="129" y="52" width="1" height="1" fill="#BE772B" />
<rect x="130" y="52" width="1" height="1" fill="#884B2B" />
<rect x="131" y="52" width="1" height="1" fill="#602C2C" />
<rect x="132" y="52" width="1" height="1" fill="#BE772B" />
<rect x="133" y="52" width="1" height="1" fill="#BE772B" />
<rect x="134" y="52" width="1" height="1" fill="#BE772B" />
<rect x="135" y="52" width="1" height="1" fill="#BE772B" />
<rect x="136" y="52" width="1" height="1" fill="#BE772B" />
<rect x="137" y="52" width="1" height="1" fill="#BE772B" />
<rect x="138" y="52" width="1" height="1" fill="#BE772B" />
<rect x="139" y="52" width="1" height="1" fill="#BE772B" />
<rect x="140" y="52" width="1" height="1" fill="#BE772B" />
<rect x="141" y="52" width="1" height="1" fill="#AB6B26" />
<rect x="142" y="52" width="1" height="1" fill="#AB6B26" />
<rect x="120" y="53" width="1" height="1" fill="#C47A2C" />
<rect x="121" y="53" width="1" height="1" fill="#BE772B" />
<rect x="122" y="53" width="1" height="1" fill="#BE772B" />
<rect x="123" y="53" width="1" height="1" fill="#BE772B" />
<rect x="124" y="53" width="1" height="1" fill="#BE772B" />
<rect x="125" y="53" width="1" height="1" fill="#BE772B" />
<rect x="126" y="53" width="1" height="1" fill="#BE772B" />
<rect x="127" y="53" width="1" height="1" fill="#BE772B" />
<rect x="128" y="53" width="1" height="1" fill="#BE772B" />
<rect x="129" y="53" width="1" height="1" fill="#BE772B" />
<rect x="130" y="53" width="1" height="1" fill="#884B2B" />
<rect x="131" y="53" width="1" height="1" fill="#BE772B" />
<rect x="132" y="53" width="1" height="1" fill="#BE772B" />
<rect x="133" y="53" width="1" height="1" fill="#BE772B" />
<rect x="134" y="53" width="1" height="1" fill="#BE772B" />
<rect x="135" y="53" width="1" height="1" fill="#BE772B" />
<rect x="136" y="53" width="1" height="1" fill="#BE772B" />
<rect x="137" y="53" width="1" height="1" fill="#BE772B" />
<rect x="138" y="53" width="1" height="1" fill="#BE772B" />
<rect x="139" y="53" width="1" height="1" fill="#BE772B" />
<rect x="140" y="53" width="1" height="1" fill="#AB6B26" />
<rect x="141" y="53" width="1" height="1" fill="#AB6B26" />
<rect x="121" y="54" width="1" height="1" fill="#C47A2C" />
<rect x="122" y="54" width="1" height="1" fill="#BE772B" />
<rect x="123" y="54" width="1" height="1" fill="#BE772B" />
<rect x="124" y="54" width="1" height="1" fill="#BE772B" />
<rect x="125" y="54" width="1" height="1" fill="#BE772B" />
<rect x="126" y="54" width="1" height="1" fill="#BE772B" />
<rect x="127" y="54" width="1" height="1" fill="#BE772B" />
<rect x="128" y="54" width="1" height="1" fill="#BE772B" />
<rect x="129" y="54" width="1" height="1" fill="#BE772B" />
<rect x="130" y="54" width="1" height="1" fill="#884B2B" />
<rect x="131" y="54" width="1" height="1" fill="#BE772B" />
<rect x="132" y="54" width="1" height="1" fill="#BE772B" />
<rect x="133" y="54" width="1" height="1" fill="#BE772B" />
<rect x="134" y="54" width="1" height="1" fill="#BE772B" />
<rect x="135" y="54" width="1" height="1" fill="#BE772B" />
<rect x="136" y="54" width="1" height="1" fill="#BE772B" />
<rect x="137" y="54" width="1" height="1" fill="#BE772B" />
<rect x="138" y="54" width="1" height="1" fill="#BE772B" />
<rect x="139" y="54" width="1" height="1" fill="#AB6B26" />
<rect x="140" y="54" width="1" height="1" fill="#AB6B26" />
<rect x="122" y="55" width="1" height="1" fill="#C47A2C" />
<rect x="123" y="55" width="1" height="1" fill="#BE772B" />
<rect x="124" y="55" width="1" height="1" fill="#BE772B" />
<rect x="125" y="55" width="1" height="1" fill="#BE772B" />
<rect x="126" y="55" width="1" height="1" fill="#BE772B" />
<rect x="127" y="55" width="1" height="1" fill="#BE772B" />
<rect x="128" y="55" width="1" height="1" fill="#172038" />
<rect x="129" y="55" width="1" height="1" fill="#A8B5B2" />
<rect x="130" y="55" width="1" height="1" fill="#C7CFCC" />
<rect x="131" y="55" width="1" height="1" fill="#172038" />
<rect x="132" y="55" width="1" height="1" fill="#172038" />
<rect x="133" y="55" width="1" height="1" fill="#BE772B" />
<rect x="134" y="55" width="1" height="1" fill="#BE772B" />
<rect x="135" y="55" width="1" height="1" fill="#BE772B" />
<rect x="136" y="55" width="1" height="1" fill="#BE772B" />
<rect x="137" y="55" width="1" height="1" fill="#BE772B" />
<rect x="138" y="55" width="1" height="1" fill="#AB6B26" />
<rect x="139" y="55" width="1" height="1" fill="#AB6B26" />
<rect x="124" y="56" width="1" height="1" fill="#C47A2C" />
<rect x="125" y="56" width="1" height="1" fill="#BE772B" />
<rect x="126" y="56" width="1" height="1" fill="#BE772B" />
<rect x="127" y="56" width="1" height="1" fill="#3C5E8B" />
<rect x="128" y="56" width="1" height="1" fill="#3C5E8B" />
<rect x="129" y="56" width="1" height="1" fill="#3C5E8B" />
<rect x="130" y="56" width="1" height="1" fill="#253A5E" />
<rect x="131" y="56" width="1" height="1" fill="#36547D" />
<rect x="132" y="56" width="1" height="1" fill="#36547D" />
<rect x="133" y="56" width="1" height="1" fill="#36547D" />
<rect x="134" y="56" width="1" height="1" fill="#BE772B" />
<rect x="135" y="56" width="1" height="1" fill="#BE772B" />
<rect x="136" y="56" width="1" height="1" fill="#BE772B" />
<rect x="137" y="56" width="1" height="1" fill="#AB6B26" />
<rect x="125" y="57" width="1" height="1" fill="#3C5E8B" />
<rect x="126" y="57" width="1" height="1" fill="#3C5E8B" />
<rect x="127" y="57" width="1" height="1" fill="#3C5E8B" />
<rect x="128" y="57" width="1" height="1" fill="#3C5E8B" />
<rect x="129" y="57" width="1" height="1" fill="#3C5E8B" />
<rect x="130" y="57" width="1" height="1" fill="#253A5E" />
<rect x="131" y="57" width="1" height="1" fill="#36547D" />
<rect x="132" y="57" width="1" height="1" fill="#36547D" />
<rect x="133" y="57" width="1" height="1" fill="#36547D" />
<rect x="134" y="57" width="1" height="1" fill="#36547D" />
<rect x="135" y="57" width="1" height="1" fill="#36547D" />
<rect x="136" y="57" width="1" height="1" fill="#253A5E" />
<rect x="125" y="58" width="1" height="1" fill="#3C5E8B" />
<rect x="126" y="58" width="1" height="1" fill="#3C5E8B" />
<rect x="127" y="58" width="1" height="1" fill="#253A5E" />
<rect x="128" y="58" width="1" height="1" fill="#3C5E8B" />
<rect x="129" y="58" width="1" height="1" fill="#3C5E8B" />
<rect x="130" y="58" width="1" height="1" fill="#253A5E" />
<rect x="131" y="58" width="1" height="1" fill="#36547D" />
<rect x="132" y="58" width="1" height="1" fill="#213454" />
<rect x="133" y="58" width="1" height="1" fill="#36547D" />
<rect x="134" y="58" width="1" height="1" fill="#36547D" />
<rect x="135" y="58" width="1" height="1" fill="#36547D" />
<rect x="136" y="58" width="1" height="1" fill="#253A5E" />
<rect x="125" y="59" width="1" height="1" fill="#3C5E8B" />
<rect x="126" y="59" width="1" height="1" fill="#3C5E8B" />
<rect x="127" y="59" width="1" height="1" fill="#3C5E8B" />
<rect x="128" y="59" width="1" height="1" fill="#253A5E" />
<rect x="129" y="59" width="1" height="1" fill="#3C5E8B" />
<rect x="130" y="59" width="1" height="1" fill="#253A5E" />
<rect x="131" y="59" width="1" height="1" fill="#36547D" />
<rect x="132" y="59" width="1" height="1" fill="#36547D" />
<rect x="133" y="59" width="1" height="1" fill="#213454" />
<rect x="134" y="59" width="1" height="1" fill="#36547D" />
<rect x="135" y="59" width="1" height="1" fill="#36547D" />
<rect x="136" y="59" width="1" height="1" fill="#253A5E" />
<rect x="125" y="60" width="1" height="1" fill="#3C5E8B" />
<rect x="126" y="60" width="1" height="1" fill="#3C5E8B" />
<rect x="127" y="60" width="1" height="1" fill="#3C5E8B" />
<rect x="128" y="60" width="1" height="1" fill="#3C5E8B" />
<rect x="129" y="60" width="1" height="1" fill="#3C5E8B" />
<rect x="130" y="60" width="1" height="1" fill="#253A5E" />
<rect x="131" y="60" width="1" height="1" fill="#36547D" />
<rect x="132" y="60" width="1" height="1" fill="#36547D" />
<rect x="133" y="60" width="1" height="1" fill="#36547D" />
<rect x="134" y="60" width="1" height="1" fill="#36547D" />
<rect x="135" y="60" width="1" height="1" fill="#36547D" />
<rect x="136" y="60" width="1" height="1" fill="#253A5E" />
<rect x="125" y="61" width="1" height="1" fill="#3C5E8B" />
<rect x="126" y="61" width="1" height="1" fill="#3C5E8B" />
<rect x="127" y="61" width="1" height="1" fill="#3C5E8B" />
<rect x="128" y="61" width="1" height="1" fill="#3C5E8B" />
<rect x="129" y="61" width="1" height="1" fill="#3C5E8B" />
<rect x="130" y="61" width="1" height="1" fill="#253A5E" />
<rect x="131" y="61" width="1" height="1" fill="#36547D" />
<rect x="132" y="61" width="1" height="1" fill="#36547D" />
<rect x="133" y="61" width="1" height="1" fill="#36547D" />
<rect x="134" y="61" width="1" height="1" fill="#36547D" />
<rect x="135" y="61" width="1" height="1" fill="#36547D" />
<rect x="136" y="61" width="1" height="1" fill="#253A5E" />
<rect x="124" y="62" width="1" height="1" fill="#202E37" />
<rect x="125" y="62" width="1" height="1" fill="#202E37" />
<rect x="126" y="62" width="1" height="1" fill="#202E37" />
<rect x="127" y="62" width="1" height="1" fill="#151D28" />
<rect x="128" y="62" width="1" height="1" fill="#151D28" />
<rect x="129" y="62" width="1" height="1" fill="#151D28" />
<rect x="131" y="62" width="1" height="1" fill="#202E37" />
<rect x="132" y="62" width="1" height="1" fill="#202E37" />
<rect x="133" y="62" width="1" height="1" fill="#202E37" />
<rect x="134" y="62" width="1" height="1" fill="#151D28" />
<rect x="135" y="62" width="1" height="1" fill="#151D28" />
<rect x="136" y="62" width="1" height="1" fill="#151D28" />
<rect x="124" y="63" width="1" height="1" fill="#202E37" />
<rect x="125" y="63" width="1" height="1" fill="#202E37" />
<rect x="126" y="63" width="1" height="1" fill="#202E37" />
<rect x="127" y="63" width="1" height="1" fill="#151D28" />
<rect x="128" y="63" width="1" height="1" fill="#151D28" />
<rect x="129" y="63" width="1" height="1" fill="#151D28" />
<rect x="131" y="63" width="1" height="1" fill="#202E37" />
<rect x="132" y="63" width="1" height="1" fill="#202E37" />
<rect x="133" y="63" width="1" height="1" fill="#202E37" />
<rect x="134" y="63" width="1" height="1" fill="#151D28" />
<rect x="135" y="63" width="1" height="1" fill="#151D28" />
<rect x="136" y="63" width="1" height="1" fill="#151D28" />
</svg>