<?xml version="1.0" encoding="UTF-8" ?>
<svg version="1.1" width="128" height="96" xmlns="http://www.w3.org/2000/svg" shape-rendering="crispEdges">
<rect x="107" y="45" width="1" height="1" fill="#201114" />
<rect x="108" y="45" width="1" height="1" fill="#E7D5B3" />
<rect x="109" y="45" width="1" height="1" fill="#E7D5B3" />
<rect x="110" y="45" width="1" height="1" fill="#E7D5B3" />
<rect x="111" y="45" width="1" height="1" fill="#E7D5B3" />
<rect x="112" y="45" width="1" height="1" fill="#E7D5B3" />
<rect x="113" y="45" width="1" height="1" fill="#E7D5B3" />
<rect x="114" y="45" width="1" height="1" fill="#E7D5B3" />
<rect x="115" y="45" width="1" height="1" fill="#E7D5B3" />
<rect x="116" y="45" width="1" height="1" fill="#201114" />
<rect x="107" y="46" width="1" height="1" fill="#201114" />
<rect x="108" y="46" width="1" height="1" fill="#E7D5B3" />
<rect x="109" y="46" width="1" height="1" fill="#E7D5B3" />
<rect x="110" y="46" width="1" height="1" fill="#E7D5B3" />
<rect x="111" y="46" width="1" height="1" fill="#E7D5B3" />
<rect x="112" y="46" width="1" height="1" fill="#E7D5B3" />
<rect x="113" y="46" width="1" height="1" fill="#E7D5B3" />
<rect x="114" y="46" width="1" height="1" fill="#E7D5B3" />
<rect x="115" y="46" width="1" height="1" fill="#E7D5B3" />
<rect x="116" y="46" width="1" height="1" fill="#201114" />
<rect x="106" y="47" width="1" height="1" fill="#201114" />
<rect x="107" y="47" width="1" height="1" fill="#201114" />
<rect x="108" y="47" width="1" height="1" fill="#E7D5B3" />
<rect x="109" y="47" width="1" height="1" fill="#E7D5B3" />
<rect x="110" y="47" width="1" height="1" fill="#E7D5B3" />
<rect x="111" y="47" width="1" height="1" fill="#E7D5B3" />
<rect x="112" y="47" width="1" height="1" fill="#E7D5B3" />
<rect x="113" y="47" width="1" height="1" fill="#E7D5B3" />
<rect x="114" y="47" width="1" height="1" fill="#E7D5B3" />
<rect x="115" y="47" width="1" height="1" fill="#E7D5B3" />
<rect x="116" y="47" width="1" height="1" fill="#201114" />
<rect x="117" y="47" width="1" height="1" fill="#201114" />
<rect x="106" y="48" width="1" height="1" fill="#201114" />
<rect x="107" y="48" width="1" height="1" fill="#201114" />
<rect x="108" y="48" width="1" height="1" fill="#E7D5B3" />
<rect x="109" y="48" width="1" height="1" fill="#E7D5B3" />
<rect x="110" y="48" width="1" height="1" fill="#E7D5B3" />
<rect x="111" y="48" width="1" height="1" fill="#E7D5B3" />
<rect x="112" y="48" width="1" height="1" fill="#E7D5B3" />
<rect x="113" y="48" width="1" height="1" fill="#E7D5B3" />
<rect x="114" y="48" width="1" height="1" fill="#E7D5B3" />
<rect x="115" y="48" width="1" height="1" fill="#E7D5B3" />
<rect x="116" y="48" width="1" height="1" fill="#201114" />
<rect x="117" y="48" width="1" height="1" fill="#201114" />
<rect x="106" y="49" width="1" height="1" fill="#201114" />
<rect x="107" y="49" width="1" height="1" fill="#E7D5B3" />
<rect x="108" y="49" width="1" height="1" fill="#E7D5B3" />
<rect x="109" y="49" width="1" height="1" fill="#E7D5B3" />
<rect x="110" y="49" width="1" height="1" fill="#E7D5B3" />
<rect x="111" y="49" width="1" height="1" fill="#E7D5B3" />
<rect x="112" y="49" width="1" height="1" fill="#E7D5B3" />
<rect x="113" y="49" width="1" height="1" fill="#E7D5B3" />
<rect x="114" y="49" width="1" height="1" fill="#E7D5B3" />
<rect x="115" y="49" width="1" height="1" fill="#E7D5B3" />
<rect x="116" y="49" width="1" height="1" fill="#E7D5B3" />
<rect x="117" y="49" width="1" height="1" fill="#201114" />
<rect x="106" y="50" width="1" height="1" fill="#201114" />
<rect x="107" y="50" width="1" height="1" fill="#E7D5B3" />
<rect x="108" y="50" width="1" height="1" fill="#0A1018" />
<rect x="109" y="50" width="1" height="1" fill="#E7D5B3" />
<rect x="110" y="50" width="1" height="1" fill="#E7D5B3" />
<rect x="111" y="50" width="1" height="1" fill="#E7D5B3" />
<rect x="112" y="50" width="1" height="1" fill="#E7D5B3" />
<rect x="113" y="50" width="1" height="1" fill="#0A1018" />
<rect x="114" y="50" width="1" height="1" fill="#E7D5B3" />
<rect x="115" y="50" width="1" height="1" fill="#E7D5B3" />
<rect x="116" y="50" width="1" height="1" fill="#E7D5B3" />
<rect x="117" y="50" width="1" height="1" fill="#201114" />
<rect x="106" y="51" width="1" height="1" fill="#C09473" />
<rect x="107" y="51" width="1" height="1" fill="#E7D5B3" />
<rect x="108" y="51" width="1" height="1" fill="#E7D5B3" />
<rect x="109" y="51" width="1" height="1" fill="#E7D5B3" />
<rect x="110" y="51" width="1" height="1" fill="#E7D5B3" />
<rect x="111" y="51" width="1" height="1" fill="#E7D5B3" />
<rect x="112" y="51" width="1" height="1" fill="#E7D5B3" />
<rect x="113" y="51" width="1" height="1" fill="#E7D5B3" />
<rect x="114" y="51" width="1" height="1" fill="#E7D5B3" />
<rect x="115" y="51" width="1" height="1" fill="#E7D5B3" />
<rect x="116" y="51" width="1" height="1" fill="#E7D5B3" />
<rect x="117" y="51" width="1" height="1" fill="#C09473" />
<rect x="106" y="52" width="1" height="1" fill="#E7D5B3" />
<rect x="107" y="52" width="1" height="1" fill="#E7D5B3" />
<rect x="108" y="52" width="1" height="1" fill="#1B5AAE" />
<rect x="109" y="52" width="1" height="1" fill="#E7D5B3" />
<rect x="110" y="52" width="1" height="1" fill="#E7D5B3" />
<rect x="111" y="52" width="1" height="1" fill="#E7D5B3" />
<rect x="112" y="52" width="1" height="1" fill="#E7D5B3" />
<rect x="113" y="52" width="1" height="1" fill="#1B5AAE" />
<rect x="114" y="52" width="1" height="1" fill="#E7D5B3" />
<rect x="115" y="52" width="1" height="1" fill="#E7D5B3" />
<rect x="116" y="52" width="1" height="1" fill="#E7D5B3" />
<rect x="117" y="52" width="1" height="1" fill="#E7D5B3" />
<rect x="107" y="53" width="1" height="1" fill="#E7D5B3" />
<rect x="108" y="53" width="1" height="1" fill="#1B5AAE" />
<rect x="109" y="53" width="1" height="1" fill="#C09473" />
<rect x="110" y="53" width="1" height="1" fill="#C09473" />
<rect x="111" y="53" width="1" height="1" fill="#C09473" />
<rect x="112" y="53" width="1" height="1" fill="#E7D5B3" />
<rect x="113" y="53" width="1" height="1" fill="#1B5AAE" />
<rect x="114" y="53" width="1" height="1" fill="#E7D5B3" />
<rect x="115" y="53" width="1" height="1" fill="#E7D5B3" />
<rect x="116" y="53" width="1" height="1" fill="#E7D5B3" />
<rect x="107" y="54" width="1" height="1" fill="#E7D5B3" />
<rect x="108" y="54" width="1" height="1" fill="#E7D5B3" />
<rect x="109" y="54" width="1" height="1" fill="#C09473" />
<rect x="110" y="54" width="1" height="1" fill="#E7D5B3" />
<rect x="111" y="54" width="1" height="1" fill="#C09473" />
<rect x="112" y="54" width="1" height="1" fill="#E7D5B3" />
<rect x="113" y="54" width="1" height="1" fill="#E7D5B3" />
<rect x="114" y="54" width="1" height="1" fill="#E7D5B3" />
<rect x="115" y="54" width="1" height="1" fill="#E7D5B3" />
<rect x="109" y="55" width="1" height="1" fill="#E7D5B3" />
<rect x="110" y="55" width="1" height="1" fill="#E7D5B3" />
<rect x="111" y="55" width="1" height="1" fill="#E7D5B3" />
<rect x="112" y="55" width="1" height="1" fill="#E7D5B3" />
<rect x="113" y="55" width="1" height="1" fill="#E7D5B3" />
<rect x="104" y="56" width="1" height="1" fill="#201611" />
<rect x="105" y="56" width="1" height="1" fill="#201611" />
<rect x="106" y="56" width="1" height="1" fill="#201611" />
<rect x="107" y="56" width="1" height="1" fill="#201611" />
<rect x="108" y="56" width="1" height="1" fill="#201611" />
<rect x="109" y="56" width="1" height="1" fill="#201611" />
<rect x="110" y="56" width="1" height="1" fill="#E7D5B3" />
<rect x="111" y="56" width="1" height="1" fill="#E7D5B3" />
<rect x="112" y="56" width="1" height="1" fill="#E7D5B3" />
<rect x="113" y="56" width="1" height="1" fill="#201611" />
<rect x="114" y="56" width="1" height="1" fill="#201611" />
<rect x="115" y="56" width="1" height="1" fill="#201611" />
<rect x="116" y="56" width="1" height="1" fill="#201611" />
<rect x="117" y="56" width="1" height="1" fill="#201611" />
<rect x="102" y="57" width="1" height="1" fill="#201611" />
<rect x="103" y="57" width="1" height="1" fill="#201611" />
<rect x="104" y="57" width="1" height="1" fill="#201611" />
<rect x="105" y="57" width="1" height="1" fill="#201611" />
<rect x="106" y="57" width="1" height="1" fill="#201611" />
<rect x="107" y="57" width="1" height="1" fill="#201611" />
<rect x="108" y="57" width="1" height="1" fill="#201611" />
<rect x="109" y="57" width="1" height="1" fill="#201611" />
<rect x="110" y="57" width="1" height="1" fill="#201611" />
<rect x="111" y="57" width="1" height="1" fill="#201611" />
<rect x="112" y="57" width="1" height="1" fill="#201611" />
<rect x="113" y="57" width="1" height="1" fill="#201611" />
<rect x="114" y="57" width="1" height="1" fill="#201611" />
<rect x="115" y="57" width="1" height="1" fill="#201611" />
<rect x="116" y="57" width="1" height="1" fill="#201611" />
<rect x="117" y="57" width="1" height="1" fill="#201611" />
<rect x="118" y="57" width="1" height="1" fill="#201611" />
<rect x="119" y="57" width="1" height="1" fill="#18120E" />
<rect x="102" y="58" width="1" height="1" fill="#201611" />
<rect x="103" y="58" width="1" height="1" fill="#201611" />
<rect x="104" y="58" width="1" height="1" fill="#201611" />
<rect x="105" y="58" width="1" height="1" fill="#201611" />
<rect x="106" y="58" width="1" height="1" fill="#201611" />
<rect x="107" y="58" width="1" height="1" fill="#201611" />
<rect x="108" y="58" width="1" height="1" fill="#201611" />
<rect x="109" y="58" width="1" height="1" fill="#201611" />
<rect x="110" y="58" width="1" height="1" fill="#201611" />
<rect x="111" y="58" width="1" height="1" fill="#201611" />
<rect x="112" y="58" width="1" height="1" fill="#201611" />
<rect x="113" y="58" width="1" height="1" fill="#201611" />
<rect x="114" y="58" width="1" height="1" fill="#201611" />
<rect x="115" y="58" width="1" height="1" fill="#201611" />
<rect x="116" y="58" width="1" height="1" fill="#201611" />
<rect x="117" y="58" width="1" height="1" fill="#201611" />
<rect x="118" y="58" width="1" height="1" fill="#201611" />
<rect x="119" y="58" width="1" height="1" fill="#18120E" />
<rect x="102" y="59" width="1" height="1" fill="#201611" />
<rect x="103" y="59" width="1" height="1" fill="#18120E" />
<rect x="104" y="59" width="1" height="1" fill="#18120E" />
<rect x="105" y="59" width="1" height="1" fill="#18120E" />
<rect x="106" y="59" width="1" height="1" fill="#201611" />
<rect x="107" y="59" width="1" height="1" fill="#201611" />
<rect x="108" y="59" width="1" height="1" fill="#201611" />
<rect x="109" y="59" width="1" height="1" fill="#201611" />
<rect x="110" y="59" width="1" height="1" fill="#201611" />
<rect x="111" y="59" width="1" height="1" fill="#201611" />
<rect x="112" y="59" width="1" height="1" fill="#201611" />
<rect x="113" y="59" width="1" height="1" fill="#201611" />
<rect x="114" y="59" width="1" height="1" fill="#201611" />
<rect x="115" y="59" width="1" height="1" fill="#201611" />
<rect x="116" y="59" width="1" height="1" fill="#201611" />
<rect x="117" y="59" width="1" height="1" fill="#18120E" />
<rect x="118" y="59" width="1" height="1" fill="#201611" />
<rect x="119" y="59" width="1" height="1" fill="#18120E" />
<rect x="102" y="60" width="1" height="1" fill="#201611" />
<rect x="103" y="60" width="1" height="1" fill="#18120E" />
<rect x="106" y="60" width="1" height="1" fill="#18120E" />
<rect x="107" y="60" width="1" height="1" fill="#201611" />
<rect x="108" y="60" width="1" height="1" fill="#201611" />
<rect x="109" y="60" width="1" height="1" fill="#201611" />
<rect x="110" y="60" width="1" height="1" fill="#201611" />
<rect x="111" y="60" width="1" height="1" fill="#201611" />
<rect x="112" y="60" width="1" height="1" fill="#201611" />
<rect x="113" y="60" width="1" height="1" fill="#201611" />
<rect x="114" y="60" width="1" height="1" fill="#201611" />
<rect x="115" y="60" width="1" height="1" fill="#201611" />
<rect x="116" y="60" width="1" height="1" fill="#18120E" />
<rect x="118" y="60" width="1" height="1" fill="#201611" />
<rect x="119" y="60" width="1" height="1" fill="#18120E" />
<rect x="102" y="61" width="1" height="1" fill="#201611" />
<rect x="103" y="61" width="1" height="1" fill="#18120E" />
<rect x="105" y="61" width="1" height="1" fill="#18120E" />
<rect x="106" y="61" width="1" height="1" fill="#201611" />
<rect x="107" y="61" width="1" height="1" fill="#201611" />
<rect x="108" y="61" width="1" height="1" fill="#201611" />
<rect x="109" y="61" width="1" height="1" fill="#201611" />
<rect x="110" y="61" width="1" height="1" fill="#201611" />
<rect x="111" y="61" width="1" height="1" fill="#201611" />
<rect x="112" y="61" width="1" height="1" fill="#201611" />
<rect x="113" y="61" width="1" height="1" fill="#201611" />
<rect x="114" y="61" width="1" height="1" fill="#201611" />
<rect x="115" y="61" width="1" height="1" fill="#201611" />
<rect x="116" y="61" width="1" height="1" fill="#18120E" />
<rect x="118" y="61" width="1" height="1" fill="#201611" />
<rect x="119" y="61" width="1" height="1" fill="#18120E" />
<rect x="102" y="62" width="1" height="1" fill="#201611" />
<rect x="103" y="62" width="1" height="1" fill="#18120E" />
<rect x="105" y="62" width="1" height="1" fill="#18120E" />
<rect x="106" y="62" width="1" height="1" fill="#201611" />
<rect x="107" y="62" width="1" height="1" fill="#201611" />
<rect x="108" y="62" width="1" height="1" fill="#201611" />
<rect x="109" y="62" width="1" height="1" fill="#201611" />
<rect x="110" y="62" width="1" height="1" fill="#201611" />
<rect x="111" y="62" width="1" height="1" fill="#201611" />
<rect x="112" y="62" width="1" height="1" fill="#201611" />
<rect x="113" y="62" width="1" height="1" fill="#201611" />
<rect x="114" y="62" width="1" height="1" fill="#201611" />
<rect x="115" y="62" width="1" height="1" fill="#201611" />
<rect x="116" y="62" width="1" height="1" fill="#18120E" />
<rect x="118" y="62" width="1" height="1" fill="#201611" />
<rect x="119" y="62" width="1" height="1" fill="#18120E" />
<rect x="102" y="63" width="1" height="1" fill="#201611" />
<rect x="103" y="63" width="1" height="1" fill="#18120E" />
<rect x="105" y="63" width="1" height="1" fill="#18120E" />
<rect x="106" y="63" width="1" height="1" fill="#201611" />
<rect x="107" y="63" width="1" height="1" fill="#201611" />
<rect x="108" y="63" width="1" height="1" fill="#201611" />
<rect x="109" y="63" width="1" height="1" fill="#201611" />
<rect x="110" y="63" width="1" height="1" fill="#201611" />
<rect x="111" y="63" width="1" height="1" fill="#201611" />
<rect x="112" y="63" width="1" height="1" fill="#201611" />
<rect x="113" y="63" width="1" height="1" fill="#201611" />
<rect x="114" y="63" width="1" height="1" fill="#201611" />
<rect x="115" y="63" width="1" height="1" fill="#201611" />
<rect x="116" y="63" width="1" height="1" fill="#18120E" />
<rect x="118" y="63" width="1" height="1" fill="#201611" />
<rect x="119" y="63" width="1" height="1" fill="#18120E" />
<rect x="102" y="64" width="1" height="1" fill="#FFFFFF" />
<rect x="103" y="64" width="1" height="1" fill="#000000" />
<rect x="105" y="64" width="1" height="1" fill="#201611" />
<rect x="106" y="64" width="1" height="1" fill="#18120E" />
<rect x="107" y="64" width="1" height="1" fill="#18120E" />
<rect x="108" y="64" width="1" height="1" fill="#201611" />
<rect x="109" y="64" width="1" height="1" fill="#201611" />
<rect x="110" y="64" width="1" height="1" fill="#201611" />
<rect x="111" y="64" width="1" height="1" fill="#201611" />
<rect x="112" y="64" width="1" height="1" fill="#201611" />
<rect x="113" y="64" width="1" height="1" fill="#201611" />
<rect x="114" y="64" width="1" height="1" fill="#201611" />
<rect x="115" y="64" width="1" height="1" fill="#201611" />
<rect x="116" y="64" width="1" height="1" fill="#18120E" />
<rect x="118" y="64" width="1" height="1" fill="#201611" />
<rect x="119" y="64" width="1" height="1" fill="#18120E" />
<rect x="102" y="65" width="1" height="1" fill="#E7D5B3" />
<rect x="103" y="65" width="1" height="1" fill="#C09473" />
<rect x="105" y="65" width="1" height="1" fill="#000000" />
<rect x="106" y="65" width="1" height="1" fill="#000000" />
<rect x="107" y="65" width="1" height="1" fill="#000000" />
<rect x="108" y="65" width="1" height="1" fill="#000000" />
<rect x="109" y="65" width="1" height="1" fill="#000000" />
<rect x="110" y="65" width="1" height="1" fill="#FFFFFF" />
<rect x="111" y="65" width="1" height="1" fill="#FFFFFF" />
<rect x="112" y="65" width="1" height="1" fill="#000000" />
<rect x="113" y="65" width="1" height="1" fill="#000000" />
<rect x="114" y="65" width="1" height="1" fill="#000000" />
<rect x="115" y="65" width="1" height="1" fill="#000000" />
<rect x="116" y="65" width="1" height="1" fill="#000000" />
<rect x="118" y="65" width="1" height="1" fill="#E7D5B3" />
<rect x="119" y="65" width="1" height="1" fill="#C09473" />
<rect x="106" y="66" width="1" height="1" fill="#0D0C14" />
<rect x="107" y="66" width="1" height="1" fill="#0D0C14" />
<rect x="108" y="66" width="1" height="1" fill="#0D0C14" />
<rect x="109" y="66" width="1" height="1" fill="#0D0C14" />
<rect x="110" y="66" width="1" height="1" fill="#0D0C14" />
<rect x="111" y="66" width="1" height="1" fill="#0D0C14" />
<rect x="112" y="66" width="1" height="1" fill="#0D0C14" />
<rect x="113" y="66" width="1" height="1" fill="#0D0C14" />
<rect x="114" y="66" width="1" height="1" fill="#0D0C14" />
<rect x="115" y="66" width="1" height="1" fill="#0D0C14" />
<rect x="116" y="66" width="1" height="1" fill="#08070C" />
<rect x="107" y="67" width="1" height="1" fill="#0D0C14" />
<rect x="108" y="67" width="1" height="1" fill="#0D0C14" />
<rect x="109" y="67" width="1" height="1" fill="#0D0C14" />
<rect x="110" y="67" width="1" height="1" fill="#0D0C14" />
<rect x="111" y="67" width="1" height="1" fill="#0D0C14" />
<rect x="112" y="67" width="1" height="1" fill="#0D0C14" />
<rect x="113" y="67" width="1" height="1" fill="#08070C" />
<rect x="114" y="67" width="1" height="1" fill="#0D0C14" />
<rect x="115" y="67" width="1" height="1" fill="#0D0C14" />
<rect x="116" y="67" width="1" height="1" fill="#08070C" />
<rect x="107" y="68" width="1" height="1" fill="#08070C" />
<rect x="108" y="68" width="1" height="1" fill="#0D0C14" />
<rect x="109" y="68" width="1" height="1" fill="#0D0C14" />
<rect x="110" y="68" width="1" height="1" fill="#0D0C14" />
<rect x="111" y="68" width="1" height="1" fill="#0D0C14" />
<rect x="112" y="68" width="1" height="1" fill="#0D0C14" />
<rect x="113" y="68" width="1" height="1" fill="#0D0C14" />
<rect x="114" y="68" width="1" height="1" fill="#0D0C14" />
<rect x="115" y="68" width="1" height="1" fill="#0D0C14" />
<rect x="116" y="68" width="1" height="1" fill="#08070C" />
<rect x="107" y="69" width="1" height="1" fill="#0D0C14" />
<rect x="108" y="69" width="1" height="1" fill="#0D0C14" />
<rect x="109" y="69" width="1" height="1" fill="#08070C" />
<rect x="114" y="69" width="1" height="1" fill="#0D0C14" />
<rect x="115" y="69" width="1" height="1" fill="#0D0C14" />
<rect x="116" y="69" width="1" height="1" fill="#08070C" />
<rect x="107" y="70" width="1" height="1" fill="#0D0C14" />
<rect x="108" y="70" width="1" height="1" fill="#0D0C14" />
<rect x="109" y="70" width="1" height="1" fill="#08070C" />
<rect x="114" y="70" width="1" height="1" fill="#0D0C14" />
<rect x="115" y="70" width="1" height="1" fill="#0D0C14" />
<rect x="116" y="70" width="1" height="1" fill="#08070C" />
<rect x="107" y="71" width="1" height="1" fill="#0D0C14" />
<rect x="108" y="71" width="1" height="1" fill="#0D0C14" />
<rect x="109" y="71" width="1" height="1" fill="#08070C" />
<rect x="114" y="71" width="1" height="1" fill="#0D0C14" />
<rect x="115" y="71" width="1" height="1" fill="#0D0C14" />
<rect x="116" y="71" width="1" height="1" fill="#08070C" />
<rect x="107" y="72" width="1" height="1" fill="#08070C" />
<rect x="108" y="72" width="1" height="1" fill="#0D0C14" />
<rect x="109" y="72" width="1" height="1" fill="#08070C" />
<rect x="114" y="72" width="1" height="1" fill="#0D0C14" />
<rect x="115" y="72" width="1" height="1" fill="#0D0C14" />
<rect x="116" y="72" width="1" height="1" fill="#08070C" />
<rect x="107" y="73" width="1" height="1" fill="#0D0C14" />
<rect x="108" y="73" width="1" height="1" fill="#0D0C14" />
<rect x="109" y="73" width="1" height="1" fill="#08070C" />
<rect x="114" y="73" width="1" height="1" fill="#08070C" />
<rect x="115" y="73" width="1" height="1" fill="#0D0C14" />
<rect x="116" y="73" width="1" height="1" fill="#08070C" />
<rect x="107" y="74" width="1" height="1" fill="#0D0C14" />
<rect x="108" y="74" width="1" height="1" fill="#0D0C14" />
<rect x="109" y="74" width="1" height="1" fill="#08070C" />
<rect x="114" y="74" width="1" height="1" fill="#0D0C14" />
<rect x="115" y="74" width="1" height="1" fill="#0D0C14" />
<rect x="116" y="74" width="1" height="1" fill="#08070C" />
<rect x="107" y="75" width="1" height="1" fill="#0D0C14" />
<rect x="108" y="75" width="1" height="1" fill="#0D0C14" />
<rect x="109" y="75" width="1" height="1" fill="#08070C" />
<rect x="114" y="75" width="1" height="1" fill="#0D0C14" />
<rect x="115" y="75" width="1" height="1" fill="#0D0C14" />
<rect x="116" y="75" width="1" height="1" fill="#08070C" />
<rect x="107" y="76" width="1" height="1" fill="#08070C" />
<rect x="108" y="76" width="1" height="1" fill="#08070C" />
<rect x="109" y="76" width="1" height="1" fill="#08070C" />
<rect x="114" y="76" width="1" height="1" fill="#08070C" />
<rect x="115" y="76" width="1" height="1" fill="#08070C" />
<rect x="116" y="76" width="1" height="1" fill="#08070C" />
<rect x="106" y="77" width="1" height="1" fill="#000000" />
<rect x="107" y="77" width="1" height="1" fill="#000000" />
<rect x="108" y="77" width="1" height="1" fill="#000000" />
<rect x="109" y="77" width="1" height="1" fill="#000000" />
<rect x="113" y="77" width="1" height="1" fill="#000000" />
<rect x="114" y="77" width="1" height="1" fill="#000000" />
<rect x="115" y="77" width="1" height="1" fill="#000000" />
<rect x="116" y="77" width="1" height="1" fill="#000000" />
<rect x="105" y="78" width="1" height="1" fill="#000000" />
<rect x="106" y="78" width="1" height="1" fill="#000000" />
<rect x="107" y="78" width="1" height="1" fill="#000000" />
<rect x="108" y="78" width="1" height="1" fill="#000000" />
<rect x="109" y="78" width="1" height="1" fill="#000000" />
<rect x="112" y="78" width="1" height="1" fill="#000000" />
<rect x="113" y="78" width="1" height="1" fill="#000000" />
<rect x="114" y="78" width="1" height="1" fill="#000000" />
<rect x="115" y="78" width="1" height="1" fill="#000000" />
<rect x="116" y="78" width="1" height="1" fill="#000000" />
<rect x="105" y="79" width="1" height="1" fill="#000000" />
<rect x="106" y="79" width="1" height="1" fill="#000000" />
<rect x="107" y="79" width="1" height="1" fill="#000000" />
<rect x="108" y="79" width="1" height="1" fill="#000000" />
<rect x="109" y="79" width="1" height="1" fill="#000000" />
<rect x="112" y="79" width="1" height="1" fill="#000000" />
<rect x="113" y="79" width="1" height="1" fill="#000000" />
<rect x="114" y="79" width="1" height="1" fill="#000000" />
<rect x="115" y="79" width="1" height="1" fill="#000000" />
<rect x="116" y="79" width="1" height="1" fill="#000000" />
</svg>