<?xml version="1.0" encoding="UTF-8" ?>
<svg version="1.1" width="128" height="96" xmlns="http://www.w3.org/2000/svg" shape-rendering="crispEdges">
<rect x="17" y="43" width="1" height="1" fill="#201114" />
<rect x="18" y="43" width="1" height="1" fill="#201114" />
<rect x="19" y="43" width="1" height="1" fill="#201114" />
<rect x="20" y="43" width="1" height="1" fill="#201114" />
<rect x="21" y="43" width="1" height="1" fill="#201114" />
<rect x="22" y="43" width="1" height="1" fill="#201114" />
<rect x="16" y="44" width="1" height="1" fill="#201114" />
<rect x="17" y="44" width="1" height="1" fill="#201114" />
<rect x="18" y="44" width="1" height="1" fill="#201114" />
<rect x="19" y="44" width="1" height="1" fill="#201114" />
<rect x="20" y="44" width="1" height="1" fill="#201114" />
<rect x="21" y="44" width="1" height="1" fill="#201114" />
<rect x="22" y="44" width="1" height="1" fill="#201114" />
<rect x="23" y="44" width="1" height="1" fill="#201114" />
<rect x="15" y="45" width="1" height="1" fill="#201114" />
<rect x="16" y="45" width="1" height="1" fill="#201114" />
<rect x="17" y="45" width="1" height="1" fill="#201114" />
<rect x="18" y="45" width="1" height="1" fill="#201114" />
<rect x="19" y="45" width="1" height="1" fill="#201114" />
<rect x="20" y="45" width="1" height="1" fill="#201114" />
<rect x="21" y="45" width="1" height="1" fill="#201114" />
<rect x="22" y="45" width="1" height="1" fill="#201114" />
<rect x="23" y="45" width="1" height="1" fill="#201114" />
<rect x="24" y="45" width="1" height="1" fill="#201114" />
<rect x="15" y="46" width="1" height="1" fill="#201114" />
<rect x="16" y="46" width="1" height="1" fill="#201114" />
<rect x="17" y="46" width="1" height="1" fill="#201114" />
<rect x="18" y="46" width="1" height="1" fill="#201114" />
<rect x="19" y="46" width="1" height="1" fill="#201114" />
<rect x="20" y="46" width="1" height="1" fill="#201114" />
<rect x="21" y="46" width="1" height="1" fill="#201114" />
<rect x="22" y="46" width="1" height="1" fill="#201114" />
<rect x="23" y="46" width="1" height="1" fill="#201114" />
<rect x="24" y="46" width="1" height="1" fill="#201114" />
<rect x="14" y="47" width="1" height="1" fill="#201114" />
<rect x="15" y="47" width="1" height="1" fill="#201114" />
<rect x="16" y="47" width="1" height="1" fill="#201114" />
<rect x="17" y="47" width="1" height="1" fill="#201114" />
<rect x="18" y="47" width="1" height="1" fill="#201114" />
<rect x="19" y="47" width="1" height="1" fill="#201114" />
<rect x="20" y="47" width="1" height="1" fill="#201114" />
<rect x="21" y="47" width="1" height="1" fill="#201114" />
<rect x="22" y="47" width="1" height="1" fill="#201114" />
<rect x="23" y="47" width="1" height="1" fill="#201114" />
<rect x="24" y="47" width="1" height="1" fill="#201114" />
<rect x="25" y="47" width="1" height="1" fill="#201114" />
<rect x="14" y="48" width="1" height="1" fill="#201114" />
<rect x="15" y="48" width="1" height="1" fill="#201114" />
<rect x="16" y="48" width="1" height="1" fill="#E7D5B3" />
<rect x="17" y="48" width="1" height="1" fill="#E7D5B3" />
<rect x="18" y="48" width="1" height="1" fill="#201114" />
<rect x="19" y="48" width="1" height="1" fill="#201114" />
<rect x="20" y="48" width="1" height="1" fill="#E7D5B3" />
<rect x="21" y="48" width="1" height="1" fill="#E7D5B3" />
<rect x="22" y="48" width="1" height="1" fill="#E7D5B3" />
<rect x="23" y="48" width="1" height="1" fill="#E7D5B3" />
<rect x="24" y="48" width="1" height="1" fill="#201114" />
<rect x="25" y="48" width="1" height="1" fill="#201114" />
<rect x="14" y="49" width="1" height="1" fill="#201114" />
<rect x="15" y="49" width="1" height="1" fill="#E7D5B3" />
<rect x="16" y="49" width="1" height="1" fill="#E7D5B3" />
<rect x="17" y="49" width="1" height="1" fill="#E7D5B3" />
<rect x="18" y="49" width="1" height="1" fill="#E7D5B3" />
<rect x="19" y="49" width="1" height="1" fill="#201114" />
<rect x="20" y="49" width="1" height="1" fill="#E7D5B3" />
<rect x="21" y="49" width="1" height="1" fill="#E7D5B3" />
<rect x="22" y="49" width="1" height="1" fill="#E7D5B3" />
<rect x="23" y="49" width="1" height="1" fill="#E7D5B3" />
<rect x="24" y="49" width="1" height="1" fill="#E7D5B3" />
<rect x="25" y="49" width="1" height="1" fill="#201114" />
<rect x="14" y="50" width="1" height="1" fill="#201114" />
<rect x="15" y="50" width="1" height="1" fill="#E7D5B3" />
<rect x="16" y="50" width="1" height="1" fill="#E7D5B3" />
<rect x="17" y="50" width="1" height="1" fill="#0A1018" />
<rect x="18" y="50" width="1" height="1" fill="#E7D5B3" />
<rect x="19" y="50" width="1" height="1" fill="#E7D5B3" />
<rect x="20" y="50" width="1" height="1" fill="#E7D5B3" />
<rect x="21" y="50" width="1" height="1" fill="#E7D5B3" />
<rect x="22" y="50" width="1" height="1" fill="#0A1018" />
<rect x="23" y="50" width="1" height="1" fill="#E7D5B3" />
<rect x="24" y="50" width="1" height="1" fill="#E7D5B3" />
<rect x="25" y="50" width="1" height="1" fill="#201114" />
<rect x="14" y="51" width="1" height="1" fill="#C09473" />
<rect x="15" y="51" width="1" height="1" fill="#E7D5B3" />
<rect x="16" y="51" width="1" height="1" fill="#E7D5B3" />
<rect x="17" y="51" width="1" height="1" fill="#E7D5B3" />
<rect x="18" y="51" width="1" height="1" fill="#E7D5B3" />
<rect x="19" y="51" width="1" height="1" fill="#E7D5B3" />
<rect x="20" y="51" width="1" height="1" fill="#E7D5B3" />
<rect x="21" y="51" width="1" height="1" fill="#E7D5B3" />
<rect x="22" y="51" width="1" height="1" fill="#E7D5B3" />
<rect x="23" y="51" width="1" height="1" fill="#E7D5B3" />
<rect x="24" y="51" width="1" height="1" fill="#E7D5B3" />
<rect x="25" y="51" width="1" height="1" fill="#C09473" />
<rect x="31" y="51" width="1" height="1" fill="#E7D5B3" />
<rect x="32" y="51" width="1" height="1" fill="#E7D5B3" />
<rect x="14" y="52" width="1" height="1" fill="#E7D5B3" />
<rect x="15" y="52" width="1" height="1" fill="#E7D5B3" />
<rect x="16" y="52" width="1" height="1" fill="#E7D5B3" />
<rect x="17" y="52" width="1" height="1" fill="#E7D5B3" />
<rect x="18" y="52" width="1" height="1" fill="#E7D5B3" />
<rect x="19" y="52" width="1" height="1" fill="#E7D5B3" />
<rect x="20" y="52" width="1" height="1" fill="#E7D5B3" />
<rect x="21" y="52" width="1" height="1" fill="#E7D5B3" />
<rect x="22" y="52" width="1" height="1" fill="#E7D5B3" />
<rect x="23" y="52" width="1" height="1" fill="#E7D5B3" />
<rect x="24" y="52" width="1" height="1" fill="#E7D5B3" />
<rect x="25" y="52" width="1" height="1" fill="#E7D5B3" />
<rect x="30" y="52" width="1" height="1" fill="#0A1018" />
<rect x="31" y="52" width="1" height="1" fill="#E7D5B3" />
<rect x="32" y="52" width="1" height="1" fill="#C09473" />
<rect x="15" y="53" width="1" height="1" fill="#E7D5B3" />
<rect x="16" y="53" width="1" height="1" fill="#E7D5B3" />
<rect x="17" y="53" width="1" height="1" fill="#E7D5B3" />
<rect x="18" y="53" width="1" height="1" fill="#E7D5B3" />
<rect x="19" y="53" width="1" height="1" fill="#C09473" />
<rect x="20" y="53" width="1" height="1" fill="#C09473" />
<rect x="21" y="53" width="1" height="1" fill="#E7D5B3" />
<rect x="22" y="53" width="1" height="1" fill="#E7D5B3" />
<rect x="23" y="53" width="1" height="1" fill="#E7D5B3" />
<rect x="24" y="53" width="1" height="1" fill="#E7D5B3" />
<rect x="29" y="53" width="1" height="1" fill="#0A1018" />
<rect x="30" y="53" width="1" height="1" fill="#0A1018" />
<rect x="31" y="53" width="1" height="1" fill="#0A1018" />
<rect x="16" y="54" width="1" height="1" fill="#E7D5B3" />
<rect x="17" y="54" width="1" height="1" fill="#E7D5B3" />
<rect x="18" y="54" width="1" height="1" fill="#E7D5B3" />
<rect x="19" y="54" width="1" height="1" fill="#E7D5B3" />
<rect x="20" y="54" width="1" height="1" fill="#E7D5B3" />
<rect x="21" y="54" width="1" height="1" fill="#E7D5B3" />
<rect x="22" y="54" width="1" height="1" fill="#E7D5B3" />
<rect x="23" y="54" width="1" height="1" fill="#E7D5B3" />
<rect x="28" y="54" width="1" height="1" fill="#0A1018" />
<rect x="29" y="54" width="1" height="1" fill="#0A1018" />
<rect x="30" y="54" width="1" height="1" fill="#0A1018" />
<rect x="18" y="55" width="1" height="1" fill="#E7D5B3" />
<rect x="19" y="55" width="1" height="1" fill="#E7D5B3" />
<rect x="20" y="55" width="1" height="1" fill="#E7D5B3" />
<rect x="21" y="55" width="1" height="1" fill="#E7D5B3" />
<rect x="27" y="55" width="1" height="1" fill="#0A1018" />
<rect x="28" y="55" width="1" height="1" fill="#0A1018" />
<rect x="29" y="55" width="1" height="1" fill="#0A1018" />
<rect x="14" y="56" width="1" height="1" fill="#0A1018" />
<rect x="15" y="56" width="1" height="1" fill="#0A1018" />
<rect x="16" y="56" width="1" height="1" fill="#0A1018" />
<rect x="17" y="56" width="1" height="1" fill="#0A1018" />
<rect x="18" y="56" width="1" height="1" fill="#577277" />
<rect x="19" y="56" width="1" height="1" fill="#E7D5B3" />
<rect x="20" y="56" width="1" height="1" fill="#E7D5B3" />
<rect x="21" y="56" width="1" height="1" fill="#577277" />
<rect x="22" y="56" width="1" height="1" fill="#0A1018" />
<rect x="23" y="56" width="1" height="1" fill="#0A1018" />
<rect x="24" y="56" width="1" height="1" fill="#0A1018" />
<rect x="25" y="56" width="1" height="1" fill="#0A1018" />
<rect x="26" y="56" width="1" height="1" fill="#0A1018" />
<rect x="27" y="56" width="1" height="1" fill="#0A1018" />
<rect x="28" y="56" width="1" height="1" fill="#0C131C" />
<rect x="13" y="57" width="1" height="1" fill="#0A1018" />
<rect x="14" y="57" width="1" height="1" fill="#0A1018" />
<rect x="15" y="57" width="1" height="1" fill="#0A1018" />
<rect x="16" y="57" width="1" height="1" fill="#0A1018" />
<rect x="17" y="57" width="1" height="1" fill="#0A1018" />
<rect x="18" y="57" width="1" height="1" fill="#0A1018" />
<rect x="19" y="57" width="1" height="1" fill="#577277" />
<rect x="20" y="57" width="1" height="1" fill="#577277" />
<rect x="21" y="57" width="1" height="1" fill="#0A1018" />
<rect x="22" y="57" width="1" height="1" fill="#0A1018" />
<rect x="23" y="57" width="1" height="1" fill="#0A1018" />
<rect x="24" y="57" width="1" height="1" fill="#0A1018" />
<rect x="25" y="57" width="1" height="1" fill="#0A1018" />
<rect x="26" y="57" width="1" height="1" fill="#0A1018" />
<rect x="27" y="57" width="1" height="1" fill="#0C131C" />
<rect x="13" y="58" width="1" height="1" fill="#0A1018" />
<rect x="14" y="58" width="1" height="1" fill="#0A1018" />
<rect x="15" y="58" width="1" height="1" fill="#0A1018" />
<rect x="16" y="58" width="1" height="1" fill="#0A1018" />
<rect x="17" y="58" width="1" height="1" fill="#0A1018" />
<rect x="18" y="58" width="1" height="1" fill="#0A1018" />
<rect x="19" y="58" width="1" height="1" fill="#0A1018" />
<rect x="20" y="58" width="1" height="1" fill="#0A1018" />
<rect x="21" y="58" width="1" height="1" fill="#0A1018" />
<rect x="22" y="58" width="1" height="1" fill="#0A1018" />
<rect x="23" y="58" width="1" height="1" fill="#0A1018" />
<rect x="24" y="58" width="1" height="1" fill="#0A1018" />
<rect x="25" y="58" width="1" height="1" fill="#0A1018" />
<rect x="26" y="58" width="1" height="1" fill="#0A1018" />
<rect x="13" y="59" width="1" height="1" fill="#0A1018" />
<rect x="14" y="59" width="1" height="1" fill="#0C131C" />
<rect x="16" y="59" width="1" height="1" fill="#0A1018" />
<rect x="17" y="59" width="1" height="1" fill="#0A1018" />
<rect x="18" y="59" width="1" height="1" fill="#0A1018" />
<rect x="19" y="59" width="1" height="1" fill="#0A1018" />
<rect x="20" y="59" width="1" height="1" fill="#0A1018" />
<rect x="21" y="59" width="1" height="1" fill="#0A1018" />
<rect x="22" y="59" width="1" height="1" fill="#0A1018" />
<rect x="23" y="59" width="1" height="1" fill="#0A1018" />
<rect x="24" y="59" width="1" height="1" fill="#0C131C" />
<rect x="13" y="60" width="1" height="1" fill="#0A1018" />
<rect x="14" y="60" width="1" height="1" fill="#0C131C" />
<rect x="16" y="60" width="1" height="1" fill="#0A1018" />
<rect x="17" y="60" width="1" height="1" fill="#0A1018" />
<rect x="18" y="60" width="1" height="1" fill="#0A1018" />
<rect x="19" y="60" width="1" height="1" fill="#0A1018" />
<rect x="20" y="60" width="1" height="1" fill="#0A1018" />
<rect x="21" y="60" width="1" height="1" fill="#0A1018" />
<rect x="22" y="60" width="1" height="1" fill="#0A1018" />
<rect x="23" y="60" width="1" height="1" fill="#0A1018" />
<rect x="24" y="60" width="1" height="1" fill="#0C131C" />
<rect x="13" y="61" width="1" height="1" fill="#0A1018" />
<rect x="14" y="61" width="1" height="1" fill="#0C131C" />
<rect x="16" y="61" width="1" height="1" fill="#0A1018" />
<rect x="17" y="61" width="1" height="1" fill="#0A1018" />
<rect x="18" y="61" width="1" height="1" fill="#0A1018" />
<rect x="19" y="61" width="1" height="1" fill="#0A1018" />
<rect x="20" y="61" width="1" height="1" fill="#0A1018" />
<rect x="21" y="61" width="1" height="1" fill="#0A1018" />
<rect x="22" y="61" width="1" height="1" fill="#0A1018" />
<rect x="23" y="61" width="1" height="1" fill="#0A1018" />
<rect x="24" y="61" width="1" height="1" fill="#0C131C" />
<rect x="13" y="62" width="1" height="1" fill="#0A1018" />
<rect x="14" y="62" width="1" height="1" fill="#0C131C" />
<rect x="16" y="62" width="1" height="1" fill="#0A1018" />
<rect x="17" y="62" width="1" height="1" fill="#0A1018" />
<rect x="18" y="62" width="1" height="1" fill="#0A1018" />
<rect x="19" y="62" width="1" height="1" fill="#0A1018" />
<rect x="20" y="62" width="1" height="1" fill="#0A1018" />
<rect x="21" y="62" width="1" height="1" fill="#0A1018" />
<rect x="22" y="62" width="1" height="1" fill="#0A1018" />
<rect x="23" y="62" width="1" height="1" fill="#0A1018" />
<rect x="24" y="62" width="1" height="1" fill="#0C131C" />
<rect x="13" y="63" width="1" height="1" fill="#0A1018" />
<rect x="14" y="63" width="1" height="1" fill="#0C131C" />
<rect x="16" y="63" width="1" height="1" fill="#0A1018" />
<rect x="17" y="63" width="1" height="1" fill="#0A1018" />
<rect x="18" y="63" width="1" height="1" fill="#0A1018" />
<rect x="19" y="63" width="1" height="1" fill="#0A1018" />
<rect x="20" y="63" width="1" height="1" fill="#0A1018" />
<rect x="21" y="63" width="1" height="1" fill="#0A1018" />
<rect x="22" y="63" width="1" height="1" fill="#0A1018" />
<rect x="23" y="63" width="1" height="1" fill="#0A1018" />
<rect x="24" y="63" width="1" height="1" fill="#0C131C" />
<rect x="13" y="64" width="1" height="1" fill="#0A1018" />
<rect x="14" y="64" width="1" height="1" fill="#0C131C" />
<rect x="16" y="64" width="1" height="1" fill="#0A1018" />
<rect x="17" y="64" width="1" height="1" fill="#0A1018" />
<rect x="18" y="64" width="1" height="1" fill="#0A1018" />
<rect x="19" y="64" width="1" height="1" fill="#0A1018" />
<rect x="20" y="64" width="1" height="1" fill="#0A1018" />
<rect x="21" y="64" width="1" height="1" fill="#0A1018" />
<rect x="22" y="64" width="1" height="1" fill="#0A1018" />
<rect x="23" y="64" width="1" height="1" fill="#0A1018" />
<rect x="24" y="64" width="1" height="1" fill="#0C131C" />
<rect x="13" y="65" width="1" height="1" fill="#E7D5B3" />
<rect x="14" y="65" width="1" height="1" fill="#C09473" />
<rect x="16" y="65" width="1" height="1" fill="#000000" />
<rect x="17" y="65" width="1" height="1" fill="#000000" />
<rect x="18" y="65" width="1" height="1" fill="#000000" />
<rect x="19" y="65" width="1" height="1" fill="#EBEDE9" />
<rect x="20" y="65" width="1" height="1" fill="#EBEDE9" />
<rect x="21" y="65" width="1" height="1" fill="#000000" />
<rect x="22" y="65" width="1" height="1" fill="#000000" />
<rect x="23" y="65" width="1" height="1" fill="#000000" />
<rect x="24" y="65" width="1" height="1" fill="#000000" />
<rect x="16" y="66" width="1" height="1" fill="#512822" />
<rect x="17" y="66" width="1" height="1" fill="#512822" />
<rect x="18" y="66" width="1" height="1" fill="#512822" />
<rect x="19" y="66" width="1" height="1" fill="#512822" />
<rect x="20" y="66" width="1" height="1" fill="#512822" />
<rect x="21" y="66" width="1" height="1" fill="#512822" />
<rect x="22" y="66" width="1" height="1" fill="#512822" />
<rect x="23" y="66" width="1" height="1" fill="#512822" />
<rect x="24" y="66" width="1" height="1" fill="#1C0F0D" />
<rect x="16" y="67" width="1" height="1" fill="#512822" />
<rect x="17" y="67" width="1" height="1" fill="#512822" />
<rect x="18" y="67" width="1" height="1" fill="#512822" />
<rect x="19" y="67" width="1" height="1" fill="#512822" />
<rect x="20" y="67" width="1" height="1" fill="#512822" />
<rect x="21" y="67" width="1" height="1" fill="#512822" />
<rect x="22" y="67" width="1" height="1" fill="#512822" />
<rect x="23" y="67" width="1" height="1" fill="#512822" />
<rect x="24" y="67" width="1" height="1" fill="#1C0F0D" />
<rect x="16" y="68" width="1" height="1" fill="#512822" />
<rect x="17" y="68" width="1" height="1" fill="#512822" />
<rect x="18" y="68" width="1" height="1" fill="#512822" />
<rect x="19" y="68" width="1" height="1" fill="#512822" />
<rect x="20" y="68" width="1" height="1" fill="#512822" />
<rect x="21" y="68" width="1" height="1" fill="#512822" />
<rect x="22" y="68" width="1" height="1" fill="#512822" />
<rect x="23" y="68" width="1" height="1" fill="#512822" />
<rect x="24" y="68" width="1" height="1" fill="#1C0F0D" />
<rect x="16" y="69" width="1" height="1" fill="#512822" />
<rect x="17" y="69" width="1" height="1" fill="#512822" />
<rect x="18" y="69" width="1" height="1" fill="#2D1714" />
<rect x="22" y="69" width="1" height="1" fill="#512822" />
<rect x="23" y="69" width="1" height="1" fill="#512822" />
<rect x="24" y="69" width="1" height="1" fill="#1C0F0D" />
<rect x="16" y="70" width="1" height="1" fill="#1C0F0D" />
<rect x="17" y="70" width="1" height="1" fill="#512822" />
<rect x="18" y="70" width="1" height="1" fill="#2D1714" />
<rect x="22" y="70" width="1" height="1" fill="#1C0F0D" />
<rect x="23" y="70" width="1" height="1" fill="#512822" />
<rect x="24" y="70" width="1" height="1" fill="#1C0F0D" />
<rect x="16" y="71" width="1" height="1" fill="#512822" />
<rect x="17" y="71" width="1" height="1" fill="#512822" />
<rect x="18" y="71" width="1" height="1" fill="#2D1714" />
<rect x="22" y="71" width="1" height="1" fill="#512822" />
<rect x="23" y="71" width="1" height="1" fill="#512822" />
<rect x="24" y="71" width="1" height="1" fill="#1C0F0D" />
<rect x="16" y="72" width="1" height="1" fill="#512822" />
<rect x="17" y="72" width="1" height="1" fill="#512822" />
<rect x="18" y="72" width="1" height="1" fill="#2D1714" />
<rect x="22" y="72" width="1" height="1" fill="#512822" />
<rect x="23" y="72" width="1" height="1" fill="#512822" />
<rect x="24" y="72" width="1" height="1" fill="#1C0F0D" />
<rect x="16" y="73" width="1" height="1" fill="#512822" />
<rect x="17" y="73" width="1" height="1" fill="#512822" />
<rect x="18" y="73" width="1" height="1" fill="#2D1714" />
<rect x="22" y="73" width="1" height="1" fill="#512822" />
<rect x="23" y="73" width="1" height="1" fill="#512822" />
<rect x="24" y="73" width="1" height="1" fill="#1C0F0D" />
<rect x="16" y="74" width="1" height="1" fill="#512822" />
<rect x="17" y="74" width="1" height="1" fill="#512822" />
<rect x="18" y="74" width="1" height="1" fill="#2D1714" />
<rect x="22" y="74" width="1" height="1" fill="#1C0F0D" />
<rect x="23" y="74" width="1" height="1" fill="#512822" />
<rect x="24" y="74" width="1" height="1" fill="#1C0F0D" />
<rect x="16" y="75" width="1" height="1" fill="#2D1714" />
<rect x="17" y="75" width="1" height="1" fill="#2D1714" />
<rect x="18" y="75" width="1" height="1" fill="#2D1714" />
<rect x="22" y="75" width="1" height="1" fill="#2D1714" />
<rect x="23" y="75" width="1" height="1" fill="#2D1714" />
<rect x="24" y="75" width="1" height="1" fill="#1C0F0D" />
<rect x="15" y="76" width="1" height="1" fill="#000000" />
<rect x="16" y="76" width="1" height="1" fill="#000000" />
<rect x="17" y="76" width="1" height="1" fill="#000000" />
<rect x="18" y="76" width="1" height="1" fill="#000000" />
<rect x="21" y="76" width="1" height="1" fill="#000000" />
<rect x="22" y="76" width="1" height="1" fill="#000000" />
<rect x="23" y="76" width="1" height="1" fill="#000000" />
<rect x="24" y="76" width="1" height="1" fill="#000000" />
<rect x="14" y="77" width="1" height="1" fill="#000000" />
<rect x="15" y="77" width="1" height="1" fill="#000000" />
<rect x="16" y="77" width="1" height="1" fill="#000000" />
<rect x="17" y="77" width="1" height="1" fill="#000000" />
<rect x="18" y="77" width="1" height="1" fill="#000000" />
<rect x="20" y="77" width="1" height="1" fill="#000000" />
<rect x="21" y="77" width="1" height="1" fill="#000000" />
<rect x="22" y="77" width="1" height="1" fill="#000000" />
<rect x="23" y="77" width="1" height="1" fill="#000000" />
<rect x="24" y="77" width="1" height="1" fill="#000000" />
<rect x="14" y="78" width="1" height="1" fill="#000000" />
<rect x="15" y="78" width="1" height="1" fill="#000000" />
<rect x="16" y="78" width="1" height="1" fill="#000000" />
<rect x="17" y="78" width="1" height="1" fill="#000000" />
<rect x="18" y="78" width="1" height="1" fill="#000000" />
<rect x="20" y="78" width="1" height="1" fill="#000000" />
<rect x="21" y="78" width="1" height="1" fill="#000000" />
<rect x="22" y="78" width="1" height="1" fill="#000000" />
<rect x="23" y="78" width="1" height="1" fill="#000000" />
<rect x="24" y="78" width="1" height="1" fill="#000000" />
</svg>