<?xml version="1.0" encoding="UTF-8" ?>
<svg version="1.1" width="128" height="96" xmlns="http://www.w3.org/2000/svg" shape-rendering="crispEdges">
<rect x="111" y="41" width="1" height="1" fill="#3C399A" />
<rect x="113" y="41" width="1" height="1" fill="#3C399A" />
<rect x="111" y="42" width="1" height="1" fill="#3C399A" />
<rect x="113" y="42" width="1" height="1" fill="#3C399A" />
<rect x="103" y="43" width="1" height="1" fill="#201114" />
<rect x="104" y="43" width="1" height="1" fill="#201114" />
<rect x="105" y="43" width="1" height="1" fill="#201114" />
<rect x="106" y="43" width="1" height="1" fill="#201114" />
<rect x="107" y="43" width="1" height="1" fill="#201114" />
<rect x="108" y="43" width="1" height="1" fill="#201114" />
<rect x="111" y="43" width="1" height="1" fill="#3C399A" />
<rect x="113" y="43" width="1" height="1" fill="#3C399A" />
<rect x="102" y="44" width="1" height="1" fill="#201114" />
<rect x="103" y="44" width="1" height="1" fill="#201114" />
<rect x="104" y="44" width="1" height="1" fill="#201114" />
<rect x="105" y="44" width="1" height="1" fill="#201114" />
<rect x="106" y="44" width="1" height="1" fill="#201114" />
<rect x="107" y="44" width="1" height="1" fill="#201114" />
<rect x="108" y="44" width="1" height="1" fill="#201114" />
<rect x="109" y="44" width="1" height="1" fill="#201114" />
<rect x="101" y="45" width="1" height="1" fill="#201114" />
<rect x="102" y="45" width="1" height="1" fill="#201114" />
<rect x="103" y="45" width="1" height="1" fill="#201114" />
<rect x="104" y="45" width="1" height="1" fill="#201114" />
<rect x="105" y="45" width="1" height="1" fill="#201114" />
<rect x="106" y="45" width="1" height="1" fill="#201114" />
<rect x="107" y="45" width="1" height="1" fill="#201114" />
<rect x="108" y="45" width="1" height="1" fill="#201114" />
<rect x="109" y="45" width="1" height="1" fill="#201114" />
<rect x="110" y="45" width="1" height="1" fill="#201114" />
<rect x="101" y="46" width="1" height="1" fill="#201114" />
<rect x="102" y="46" width="1" height="1" fill="#201114" />
<rect x="103" y="46" width="1" height="1" fill="#201114" />
<rect x="104" y="46" width="1" height="1" fill="#201114" />
<rect x="105" y="46" width="1" height="1" fill="#201114" />
<rect x="106" y="46" width="1" height="1" fill="#201114" />
<rect x="107" y="46" width="1" height="1" fill="#201114" />
<rect x="108" y="46" width="1" height="1" fill="#201114" />
<rect x="109" y="46" width="1" height="1" fill="#201114" />
<rect x="110" y="46" width="1" height="1" fill="#201114" />
<rect x="100" y="47" width="1" height="1" fill="#201114" />
<rect x="101" y="47" width="1" height="1" fill="#201114" />
<rect x="102" y="47" width="1" height="1" fill="#201114" />
<rect x="103" y="47" width="1" height="1" fill="#201114" />
<rect x="104" y="47" width="1" height="1" fill="#201114" />
<rect x="105" y="47" width="1" height="1" fill="#201114" />
<rect x="106" y="47" width="1" height="1" fill="#201114" />
<rect x="107" y="47" width="1" height="1" fill="#201114" />
<rect x="108" y="47" width="1" height="1" fill="#201114" />
<rect x="109" y="47" width="1" height="1" fill="#201114" />
<rect x="110" y="47" width="1" height="1" fill="#201114" />
<rect x="111" y="47" width="1" height="1" fill="#201114" />
<rect x="100" y="48" width="1" height="1" fill="#201114" />
<rect x="101" y="48" width="1" height="1" fill="#201114" />
<rect x="102" y="48" width="1" height="1" fill="#E7D5B3" />
<rect x="103" y="48" width="1" height="1" fill="#E7D5B3" />
<rect x="104" y="48" width="1" height="1" fill="#201114" />
<rect x="105" y="48" width="1" height="1" fill="#201114" />
<rect x="106" y="48" width="1" height="1" fill="#E7D5B3" />
<rect x="107" y="48" width="1" height="1" fill="#E7D5B3" />
<rect x="108" y="48" width="1" height="1" fill="#E7D5B3" />
<rect x="109" y="48" width="1" height="1" fill="#E7D5B3" />
<rect x="110" y="48" width="1" height="1" fill="#201114" />
<rect x="111" y="48" width="1" height="1" fill="#201114" />
<rect x="100" y="49" width="1" height="1" fill="#201114" />
<rect x="101" y="49" width="1" height="1" fill="#E7D5B3" />
<rect x="102" y="49" width="1" height="1" fill="#E7D5B3" />
<rect x="103" y="49" width="1" height="1" fill="#E7D5B3" />
<rect x="104" y="49" width="1" height="1" fill="#E7D5B3" />
<rect x="105" y="49" width="1" height="1" fill="#201114" />
<rect x="106" y="49" width="1" height="1" fill="#E7D5B3" />
<rect x="107" y="49" width="1" height="1" fill="#E7D5B3" />
<rect x="108" y="49" width="1" height="1" fill="#E7D5B3" />
<rect x="109" y="49" width="1" height="1" fill="#E7D5B3" />
<rect x="110" y="49" width="1" height="1" fill="#E7D5B3" />
<rect x="111" y="49" width="1" height="1" fill="#201114" />
<rect x="100" y="50" width="1" height="1" fill="#201114" />
<rect x="101" y="50" width="1" height="1" fill="#E7D5B3" />
<rect x="102" y="50" width="1" height="1" fill="#E7D5B3" />
<rect x="103" y="50" width="1" height="1" fill="#0A1018" />
<rect x="104" y="50" width="1" height="1" fill="#E7D5B3" />
<rect x="105" y="50" width="1" height="1" fill="#E7D5B3" />
<rect x="106" y="50" width="1" height="1" fill="#E7D5B3" />
<rect x="107" y="50" width="1" height="1" fill="#E7D5B3" />
<rect x="108" y="50" width="1" height="1" fill="#0A1018" />
<rect x="109" y="50" width="1" height="1" fill="#E7D5B3" />
<rect x="110" y="50" width="1" height="1" fill="#E7D5B3" />
<rect x="111" y="50" width="1" height="1" fill="#201114" />
<rect x="100" y="51" width="1" height="1" fill="#C09473" />
<rect x="101" y="51" width="1" height="1" fill="#E7D5B3" />
<rect x="102" y="51" width="1" height="1" fill="#E7D5B3" />
<rect x="103" y="51" width="1" height="1" fill="#3C399A" />
<rect x="104" y="51" width="1" height="1" fill="#E7D5B3" />
<rect x="105" y="51" width="1" height="1" fill="#E7D5B3" />
<rect x="106" y="51" width="1" height="1" fill="#E7D5B3" />
<rect x="107" y="51" width="1" height="1" fill="#E7D5B3" />
<rect x="108" y="51" width="1" height="1" fill="#3C399A" />
<rect x="109" y="51" width="1" height="1" fill="#E7D5B3" />
<rect x="110" y="51" width="1" height="1" fill="#E7D5B3" />
<rect x="111" y="51" width="1" height="1" fill="#C09473" />
<rect x="100" y="52" width="1" height="1" fill="#E7D5B3" />
<rect x="101" y="52" width="1" height="1" fill="#E7D5B3" />
<rect x="102" y="52" width="1" height="1" fill="#E7D5B3" />
<rect x="103" y="52" width="1" height="1" fill="#3C399A" />
<rect x="104" y="52" width="1" height="1" fill="#C09473" />
<rect x="105" y="52" width="1" height="1" fill="#C09473" />
<rect x="106" y="52" width="1" height="1" fill="#C09473" />
<rect x="107" y="52" width="1" height="1" fill="#E7D5B3" />
<rect x="108" y="52" width="1" height="1" fill="#3C399A" />
<rect x="109" y="52" width="1" height="1" fill="#E7D5B3" />
<rect x="110" y="52" width="1" height="1" fill="#E7D5B3" />
<rect x="111" y="52" width="1" height="1" fill="#E7D5B3" />
<rect x="101" y="53" width="1" height="1" fill="#E7D5B3" />
<rect x="102" y="53" width="1" height="1" fill="#E7D5B3" />
<rect x="103" y="53" width="1" height="1" fill="#E7D5B3" />
<rect x="104" y="53" width="1" height="1" fill="#C09473" />
<rect x="105" y="53" width="1" height="1" fill="#E7D5B3" />
<rect x="106" y="53" width="1" height="1" fill="#C09473" />
<rect x="107" y="53" width="1" height="1" fill="#E7D5B3" />
<rect x="108" y="53" width="1" height="1" fill="#E7D5B3" />
<rect x="109" y="53" width="1" height="1" fill="#E7D5B3" />
<rect x="110" y="53" width="1" height="1" fill="#E7D5B3" />
<rect x="102" y="54" width="1" height="1" fill="#E7D5B3" />
<rect x="103" y="54" width="1" height="1" fill="#E7D5B3" />
<rect x="104" y="54" width="1" height="1" fill="#E7D5B3" />
<rect x="105" y="54" width="1" height="1" fill="#E7D5B3" />
<rect x="106" y="54" width="1" height="1" fill="#E7D5B3" />
<rect x="107" y="54" width="1" height="1" fill="#E7D5B3" />
<rect x="108" y="54" width="1" height="1" fill="#E7D5B3" />
<rect x="109" y="54" width="1" height="1" fill="#E7D5B3" />
<rect x="104" y="55" width="1" height="1" fill="#E7D5B3" />
<rect x="105" y="55" width="1" height="1" fill="#E7D5B3" />
<rect x="106" y="55" width="1" height="1" fill="#E7D5B3" />
<rect x="107" y="55" width="1" height="1" fill="#E7D5B3" />
<rect x="100" y="56" width="1" height="1" fill="#0A1018" />
<rect x="101" y="56" width="1" height="1" fill="#0A1018" />
<rect x="102" y="56" width="1" height="1" fill="#0A1018" />
<rect x="103" y="56" width="1" height="1" fill="#0A1018" />
<rect x="104" y="56" width="1" height="1" fill="#577277" />
<rect x="105" y="56" width="1" height="1" fill="#E7D5B3" />
<rect x="106" y="56" width="1" height="1" fill="#E7D5B3" />
<rect x="107" y="56" width="1" height="1" fill="#577277" />
<rect x="108" y="56" width="1" height="1" fill="#0A1018" />
<rect x="109" y="56" width="1" height="1" fill="#0A1018" />
<rect x="110" y="56" width="1" height="1" fill="#0A1018" />
<rect x="111" y="56" width="1" height="1" fill="#0A1018" />
<rect x="112" y="56" width="1" height="1" fill="#0C131C" />
<rect x="99" y="57" width="1" height="1" fill="#0A1018" />
<rect x="100" y="57" width="1" height="1" fill="#0A1018" />
<rect x="101" y="57" width="1" height="1" fill="#0A1018" />
<rect x="102" y="57" width="1" height="1" fill="#0A1018" />
<rect x="103" y="57" width="1" height="1" fill="#0A1018" />
<rect x="104" y="57" width="1" height="1" fill="#0A1018" />
<rect x="105" y="57" width="1" height="1" fill="#577277" />
<rect x="106" y="57" width="1" height="1" fill="#577277" />
<rect x="107" y="57" width="1" height="1" fill="#0A1018" />
<rect x="108" y="57" width="1" height="1" fill="#0A1018" />
<rect x="109" y="57" width="1" height="1" fill="#0A1018" />
<rect x="110" y="57" width="1" height="1" fill="#0A1018" />
<rect x="111" y="57" width="1" height="1" fill="#0A1018" />
<rect x="112" y="57" width="1" height="1" fill="#0A1018" />
<rect x="113" y="57" width="1" height="1" fill="#0C131C" />
<rect x="99" y="58" width="1" height="1" fill="#0A1018" />
<rect x="100" y="58" width="1" height="1" fill="#0C131C" />
<rect x="102" y="58" width="1" height="1" fill="#0A1018" />
<rect x="103" y="58" width="1" height="1" fill="#0A1018" />
<rect x="104" y="58" width="1" height="1" fill="#0A1018" />
<rect x="105" y="58" width="1" height="1" fill="#0A1018" />
<rect x="106" y="58" width="1" height="1" fill="#0A1018" />
<rect x="107" y="58" width="1" height="1" fill="#0A1018" />
<rect x="108" y="58" width="1" height="1" fill="#0A1018" />
<rect x="109" y="58" width="1" height="1" fill="#0A1018" />
<rect x="110" y="58" width="1" height="1" fill="#0C131C" />
<rect x="112" y="58" width="1" height="1" fill="#0A1018" />
<rect x="113" y="58" width="1" height="1" fill="#0C131C" />
<rect x="99" y="59" width="1" height="1" fill="#0A1018" />
<rect x="100" y="59" width="1" height="1" fill="#0C131C" />
<rect x="102" y="59" width="1" height="1" fill="#0A1018" />
<rect x="103" y="59" width="1" height="1" fill="#0A1018" />
<rect x="104" y="59" width="1" height="1" fill="#0A1018" />
<rect x="105" y="59" width="1" height="1" fill="#0A1018" />
<rect x="106" y="59" width="1" height="1" fill="#0A1018" />
<rect x="107" y="59" width="1" height="1" fill="#0A1018" />
<rect x="108" y="59" width="1" height="1" fill="#0A1018" />
<rect x="109" y="59" width="1" height="1" fill="#0A1018" />
<rect x="110" y="59" width="1" height="1" fill="#0C131C" />
<rect x="112" y="59" width="1" height="1" fill="#0A1018" />
<rect x="113" y="59" width="1" height="1" fill="#0C131C" />
<rect x="99" y="60" width="1" height="1" fill="#0A1018" />
<rect x="100" y="60" width="1" height="1" fill="#0C131C" />
<rect x="102" y="60" width="1" height="1" fill="#0A1018" />
<rect x="103" y="60" width="1" height="1" fill="#0A1018" />
<rect x="104" y="60" width="1" height="1" fill="#0A1018" />
<rect x="105" y="60" width="1" height="1" fill="#0A1018" />
<rect x="106" y="60" width="1" height="1" fill="#0A1018" />
<rect x="107" y="60" width="1" height="1" fill="#0A1018" />
<rect x="108" y="60" width="1" height="1" fill="#0A1018" />
<rect x="109" y="60" width="1" height="1" fill="#0A1018" />
<rect x="110" y="60" width="1" height="1" fill="#0C131C" />
<rect x="112" y="60" width="1" height="1" fill="#0A1018" />
<rect x="113" y="60" width="1" height="1" fill="#0C131C" />
<rect x="99" y="61" width="1" height="1" fill="#0A1018" />
<rect x="100" y="61" width="1" height="1" fill="#0C131C" />
<rect x="102" y="61" width="1" height="1" fill="#0A1018" />
<rect x="103" y="61" width="1" height="1" fill="#0A1018" />
<rect x="104" y="61" width="1" height="1" fill="#0A1018" />
<rect x="105" y="61" width="1" height="1" fill="#0A1018" />
<rect x="106" y="61" width="1" height="1" fill="#0A1018" />
<rect x="107" y="61" width="1" height="1" fill="#0A1018" />
<rect x="108" y="61" width="1" height="1" fill="#0A1018" />
<rect x="109" y="61" width="1" height="1" fill="#0A1018" />
<rect x="110" y="61" width="1" height="1" fill="#0C131C" />
<rect x="112" y="61" width="1" height="1" fill="#0A1018" />
<rect x="113" y="61" width="1" height="1" fill="#0C131C" />
<rect x="99" y="62" width="1" height="1" fill="#0A1018" />
<rect x="100" y="62" width="1" height="1" fill="#0C131C" />
<rect x="102" y="62" width="1" height="1" fill="#0A1018" />
<rect x="103" y="62" width="1" height="1" fill="#0A1018" />
<rect x="104" y="62" width="1" height="1" fill="#0A1018" />
<rect x="105" y="62" width="1" height="1" fill="#0A1018" />
<rect x="106" y="62" width="1" height="1" fill="#0A1018" />
<rect x="107" y="62" width="1" height="1" fill="#0A1018" />
<rect x="108" y="62" width="1" height="1" fill="#0A1018" />
<rect x="109" y="62" width="1" height="1" fill="#0A1018" />
<rect x="110" y="62" width="1" height="1" fill="#0C131C" />
<rect x="112" y="62" width="1" height="1" fill="#0A1018" />
<rect x="113" y="62" width="1" height="1" fill="#0C131C" />
<rect x="99" y="63" width="1" height="1" fill="#0A1018" />
<rect x="100" y="63" width="1" height="1" fill="#0C131C" />
<rect x="102" y="63" width="1" height="1" fill="#0A1018" />
<rect x="103" y="63" width="1" height="1" fill="#0A1018" />
<rect x="104" y="63" width="1" height="1" fill="#0A1018" />
<rect x="105" y="63" width="1" height="1" fill="#0A1018" />
<rect x="106" y="63" width="1" height="1" fill="#0A1018" />
<rect x="107" y="63" width="1" height="1" fill="#0A1018" />
<rect x="108" y="63" width="1" height="1" fill="#0A1018" />
<rect x="109" y="63" width="1" height="1" fill="#0A1018" />
<rect x="110" y="63" width="1" height="1" fill="#0C131C" />
<rect x="112" y="63" width="1" height="1" fill="#0A1018" />
<rect x="113" y="63" width="1" height="1" fill="#0C131C" />
<rect x="99" y="64" width="1" height="1" fill="#0A1018" />
<rect x="100" y="64" width="1" height="1" fill="#0C131C" />
<rect x="102" y="64" width="1" height="1" fill="#0A1018" />
<rect x="103" y="64" width="1" height="1" fill="#0A1018" />
<rect x="104" y="64" width="1" height="1" fill="#0A1018" />
<rect x="105" y="64" width="1" height="1" fill="#0A1018" />
<rect x="106" y="64" width="1" height="1" fill="#0A1018" />
<rect x="107" y="64" width="1" height="1" fill="#0A1018" />
<rect x="108" y="64" width="1" height="1" fill="#0A1018" />
<rect x="109" y="64" width="1" height="1" fill="#0A1018" />
<rect x="110" y="64" width="1" height="1" fill="#0C131C" />
<rect x="112" y="64" width="1" height="1" fill="#0A1018" />
<rect x="113" y="64" width="1" height="1" fill="#0C131C" />
<rect x="99" y="65" width="1" height="1" fill="#E7D5B3" />
<rect x="100" y="65" width="1" height="1" fill="#E7D5B3" />
<rect x="102" y="65" width="1" height="1" fill="#000000" />
<rect x="103" y="65" width="1" height="1" fill="#000000" />
<rect x="104" y="65" width="1" height="1" fill="#000000" />
<rect x="105" y="65" width="1" height="1" fill="#EBEDE9" />
<rect x="106" y="65" width="1" height="1" fill="#EBEDE9" />
<rect x="107" y="65" width="1" height="1" fill="#000000" />
<rect x="108" y="65" width="1" height="1" fill="#000000" />
<rect x="109" y="65" width="1" height="1" fill="#000000" />
<rect x="110" y="65" width="1" height="1" fill="#000000" />
<rect x="112" y="65" width="1" height="1" fill="#E7D5B3" />
<rect x="113" y="65" width="1" height="1" fill="#E7D5B3" />
<rect x="99" y="66" width="1" height="1" fill="#E7D5B3" />
<rect x="100" y="66" width="1" height="1" fill="#E7D5B3" />
<rect x="102" y="66" width="1" height="1" fill="#512822" />
<rect x="103" y="66" width="1" height="1" fill="#512822" />
<rect x="104" y="66" width="1" height="1" fill="#512822" />
<rect x="105" y="66" width="1" height="1" fill="#512822" />
<rect x="106" y="66" width="1" height="1" fill="#512822" />
<rect x="107" y="66" width="1" height="1" fill="#512822" />
<rect x="108" y="66" width="1" height="1" fill="#512822" />
<rect x="109" y="66" width="1" height="1" fill="#512822" />
<rect x="110" y="66" width="1" height="1" fill="#1C0F0D" />
<rect x="112" y="66" width="1" height="1" fill="#E7D5B3" />
<rect x="113" y="66" width="1" height="1" fill="#E7D5B3" />
<rect x="102" y="67" width="1" height="1" fill="#512822" />
<rect x="103" y="67" width="1" height="1" fill="#512822" />
<rect x="104" y="67" width="1" height="1" fill="#512822" />
<rect x="105" y="67" width="1" height="1" fill="#512822" />
<rect x="106" y="67" width="1" height="1" fill="#512822" />
<rect x="107" y="67" width="1" height="1" fill="#1C0F0D" />
<rect x="108" y="67" width="1" height="1" fill="#512822" />
<rect x="109" y="67" width="1" height="1" fill="#512822" />
<rect x="110" y="67" width="1" height="1" fill="#1C0F0D" />
<rect x="102" y="68" width="1" height="1" fill="#512822" />
<rect x="103" y="68" width="1" height="1" fill="#512822" />
<rect x="104" y="68" width="1" height="1" fill="#512822" />
<rect x="105" y="68" width="1" height="1" fill="#512822" />
<rect x="106" y="68" width="1" height="1" fill="#512822" />
<rect x="107" y="68" width="1" height="1" fill="#512822" />
<rect x="108" y="68" width="1" height="1" fill="#512822" />
<rect x="109" y="68" width="1" height="1" fill="#512822" />
<rect x="110" y="68" width="1" height="1" fill="#1C0F0D" />
<rect x="102" y="69" width="1" height="1" fill="#512822" />
<rect x="103" y="69" width="1" height="1" fill="#512822" />
<rect x="104" y="69" width="1" height="1" fill="#1C0F0D" />
<rect x="108" y="69" width="1" height="1" fill="#512822" />
<rect x="109" y="69" width="1" height="1" fill="#512822" />
<rect x="110" y="69" width="1" height="1" fill="#1C0F0D" />
<rect x="102" y="70" width="1" height="1" fill="#512822" />
<rect x="103" y="70" width="1" height="1" fill="#512822" />
<rect x="104" y="70" width="1" height="1" fill="#1C0F0D" />
<rect x="108" y="70" width="1" height="1" fill="#512822" />
<rect x="109" y="70" width="1" height="1" fill="#512822" />
<rect x="110" y="70" width="1" height="1" fill="#1C0F0D" />
<rect x="102" y="71" width="1" height="1" fill="#512822" />
<rect x="103" y="71" width="1" height="1" fill="#512822" />
<rect x="104" y="71" width="1" height="1" fill="#1C0F0D" />
<rect x="108" y="71" width="1" height="1" fill="#512822" />
<rect x="109" y="71" width="1" height="1" fill="#512822" />
<rect x="110" y="71" width="1" height="1" fill="#1C0F0D" />
<rect x="102" y="72" width="1" height="1" fill="#512822" />
<rect x="103" y="72" width="1" height="1" fill="#512822" />
<rect x="104" y="72" width="1" height="1" fill="#1C0F0D" />
<rect x="108" y="72" width="1" height="1" fill="#1C0F0D" />
<rect x="109" y="72" width="1" height="1" fill="#512822" />
<rect x="110" y="72" width="1" height="1" fill="#1C0F0D" />
<rect x="102" y="73" width="1" height="1" fill="#1C0F0D" />
<rect x="103" y="73" width="1" height="1" fill="#512822" />
<rect x="104" y="73" width="1" height="1" fill="#1C0F0D" />
<rect x="108" y="73" width="1" height="1" fill="#512822" />
<rect x="109" y="73" width="1" height="1" fill="#512822" />
<rect x="110" y="73" width="1" height="1" fill="#1C0F0D" />
<rect x="102" y="74" width="1" height="1" fill="#512822" />
<rect x="103" y="74" width="1" height="1" fill="#512822" />
<rect x="104" y="74" width="1" height="1" fill="#1C0F0D" />
<rect x="108" y="74" width="1" height="1" fill="#512822" />
<rect x="109" y="74" width="1" height="1" fill="#512822" />
<rect x="110" y="74" width="1" height="1" fill="#1C0F0D" />
<rect x="102" y="75" width="1" height="1" fill="#512822" />
<rect x="103" y="75" width="1" height="1" fill="#512822" />
<rect x="104" y="75" width="1" height="1" fill="#1C0F0D" />
<rect x="108" y="75" width="1" height="1" fill="#512822" />
<rect x="109" y="75" width="1" height="1" fill="#512822" />
<rect x="110" y="75" width="1" height="1" fill="#1C0F0D" />
<rect x="102" y="76" width="1" height="1" fill="#1C0F0D" />
<rect x="103" y="76" width="1" height="1" fill="#1C0F0D" />
<rect x="104" y="76" width="1" height="1" fill="#1C0F0D" />
<rect x="108" y="76" width="1" height="1" fill="#1C0F0D" />
<rect x="109" y="76" width="1" height="1" fill="#1C0F0D" />
<rect x="110" y="76" width="1" height="1" fill="#1C0F0D" />
<rect x="101" y="77" width="1" height="1" fill="#000000" />
<rect x="102" y="77" width="1" height="1" fill="#000000" />
<rect x="103" y="77" width="1" height="1" fill="#000000" />
<rect x="104" y="77" width="1" height="1" fill="#000000" />
<rect x="108" y="77" width="1" height="1" fill="#000000" />
<rect x="109" y="77" width="1" height="1" fill="#000000" />
<rect x="110" y="77" width="1" height="1" fill="#000000" />
<rect x="111" y="77" width="1" height="1" fill="#000000" />
<rect x="100" y="78" width="1" height="1" fill="#000000" />
<rect x="101" y="78" width="1" height="1" fill="#000000" />
<rect x="102" y="78" width="1" height="1" fill="#000000" />
<rect x="103" y="78" width="1" height="1" fill="#000000" />
<rect x="104" y="78" width="1" height="1" fill="#000000" />
<rect x="108" y="78" width="1" height="1" fill="#000000" />
<rect x="109" y="78" width="1" height="1" fill="#000000" />
<rect x="110" y="78" width="1" height="1" fill="#000000" />
<rect x="111" y="78" width="1" height="1" fill="#000000" />
<rect x="112" y="78" width="1" height="1" fill="#000000" />
<rect x="100" y="79" width="1" height="1" fill="#000000" />
<rect x="101" y="79" width="1" height="1" fill="#000000" />
<rect x="102" y="79" width="1" height="1" fill="#000000" />
<rect x="103" y="79" width="1" height="1" fill="#000000" />
<rect x="104" y="79" width="1" height="1" fill="#000000" />
<rect x="108" y="79" width="1" height="1" fill="#000000" />
<rect x="109" y="79" width="1" height="1" fill="#000000" />
<rect x="110" y="79" width="1" height="1" fill="#000000" />
<rect x="111" y="79" width="1" height="1" fill="#000000" />
<rect x="112" y="79" width="1" height="1" fill="#000000" />
</svg>