<?xml version="1.0" encoding="UTF-8" ?>
<svg version="1.1" width="128" height="96" xmlns="http://www.w3.org/2000/svg" shape-rendering="crispEdges">
<rect x="39" y="39" width="1" height="1" fill="#DE9E41" />
<rect x="38" y="40" width="1" height="1" fill="#DE9E41" />
<rect x="39" y="40" width="1" height="1" fill="#E8C170" />
<rect x="40" y="40" width="1" height="1" fill="#DE9E41" />
<rect x="47" y="40" width="1" height="1" fill="#DE9E41" />
<rect x="33" y="41" width="1" height="1" fill="#DE9E41" />
<rect x="39" y="41" width="1" height="1" fill="#DE9E41" />
<rect x="46" y="41" width="1" height="1" fill="#DE9E41" />
<rect x="47" y="41" width="1" height="1" fill="#E8C170" />
<rect x="48" y="41" width="1" height="1" fill="#DE9E41" />
<rect x="51" y="41" width="1" height="1" fill="#DE9E41" />
<rect x="32" y="42" width="1" height="1" fill="#DE9E41" />
<rect x="33" y="42" width="1" height="1" fill="#E8C170" />
<rect x="34" y="42" width="1" height="1" fill="#DE9E41" />
<rect x="47" y="42" width="1" height="1" fill="#DE9E41" />
<rect x="50" y="42" width="1" height="1" fill="#DE9E41" />
<rect x="51" y="42" width="1" height="1" fill="#E8C170" />
<rect x="52" y="42" width="1" height="1" fill="#DE9E41" />
<rect x="33" y="43" width="1" height="1" fill="#DE9E41" />
<rect x="51" y="43" width="1" height="1" fill="#DE9E41" />
<rect x="38" y="44" width="1" height="1" fill="#201114" />
<rect x="39" y="44" width="1" height="1" fill="#E7D5B3" />
<rect x="40" y="44" width="1" height="1" fill="#E7D5B3" />
<rect x="41" y="44" width="1" height="1" fill="#E7D5B3" />
<rect x="42" y="44" width="1" height="1" fill="#E7D5B3" />
<rect x="43" y="44" width="1" height="1" fill="#E7D5B3" />
<rect x="44" y="44" width="1" height="1" fill="#E7D5B3" />
<rect x="45" y="44" width="1" height="1" fill="#E7D5B3" />
<rect x="46" y="44" width="1" height="1" fill="#E7D5B3" />
<rect x="47" y="44" width="1" height="1" fill="#201114" />
<rect x="38" y="45" width="1" height="1" fill="#201114" />
<rect x="39" y="45" width="1" height="1" fill="#E7D5B3" />
<rect x="40" y="45" width="1" height="1" fill="#E7D5B3" />
<rect x="41" y="45" width="1" height="1" fill="#E7D5B3" />
<rect x="42" y="45" width="1" height="1" fill="#E7D5B3" />
<rect x="43" y="45" width="1" height="1" fill="#E7D5B3" />
<rect x="44" y="45" width="1" height="1" fill="#E7D5B3" />
<rect x="45" y="45" width="1" height="1" fill="#E7D5B3" />
<rect x="46" y="45" width="1" height="1" fill="#E7D5B3" />
<rect x="47" y="45" width="1" height="1" fill="#201114" />
<rect x="37" y="46" width="1" height="1" fill="#201114" />
<rect x="38" y="46" width="1" height="1" fill="#201114" />
<rect x="39" y="46" width="1" height="1" fill="#E7D5B3" />
<rect x="40" y="46" width="1" height="1" fill="#E7D5B3" />
<rect x="41" y="46" width="1" height="1" fill="#E7D5B3" />
<rect x="42" y="46" width="1" height="1" fill="#E7D5B3" />
<rect x="43" y="46" width="1" height="1" fill="#E7D5B3" />
<rect x="44" y="46" width="1" height="1" fill="#E7D5B3" />
<rect x="45" y="46" width="1" height="1" fill="#E7D5B3" />
<rect x="46" y="46" width="1" height="1" fill="#E7D5B3" />
<rect x="47" y="46" width="1" height="1" fill="#201114" />
<rect x="48" y="46" width="1" height="1" fill="#201114" />
<rect x="37" y="47" width="1" height="1" fill="#201114" />
<rect x="38" y="47" width="1" height="1" fill="#201114" />
<rect x="39" y="47" width="1" height="1" fill="#E7D5B3" />
<rect x="40" y="47" width="1" height="1" fill="#E7D5B3" />
<rect x="41" y="47" width="1" height="1" fill="#E7D5B3" />
<rect x="42" y="47" width="1" height="1" fill="#E7D5B3" />
<rect x="43" y="47" width="1" height="1" fill="#E7D5B3" />
<rect x="44" y="47" width="1" height="1" fill="#E7D5B3" />
<rect x="45" y="47" width="1" height="1" fill="#E7D5B3" />
<rect x="46" y="47" width="1" height="1" fill="#E7D5B3" />
<rect x="47" y="47" width="1" height="1" fill="#201114" />
<rect x="48" y="47" width="1" height="1" fill="#201114" />
<rect x="37" y="48" width="1" height="1" fill="#201114" />
<rect x="38" y="48" width="1" height="1" fill="#E7D5B3" />
<rect x="39" y="48" width="1" height="1" fill="#E7D5B3" />
<rect x="40" y="48" width="1" height="1" fill="#E7D5B3" />
<rect x="41" y="48" width="1" height="1" fill="#E7D5B3" />
<rect x="42" y="48" width="1" height="1" fill="#E7D5B3" />
<rect x="43" y="48" width="1" height="1" fill="#E7D5B3" />
<rect x="44" y="48" width="1" height="1" fill="#E7D5B3" />
<rect x="45" y="48" width="1" height="1" fill="#E7D5B3" />
<rect x="46" y="48" width="1" height="1" fill="#E7D5B3" />
<rect x="47" y="48" width="1" height="1" fill="#E7D5B3" />
<rect x="48" y="48" width="1" height="1" fill="#201114" />
<rect x="30" y="49" width="1" height="1" fill="#E7D5B3" />
<rect x="31" y="49" width="1" height="1" fill="#E7D5B3" />
<rect x="37" y="49" width="1" height="1" fill="#201114" />
<rect x="38" y="49" width="1" height="1" fill="#E7D5B3" />
<rect x="39" y="49" width="1" height="1" fill="#0A1018" />
<rect x="40" y="49" width="1" height="1" fill="#E7D5B3" />
<rect x="41" y="49" width="1" height="1" fill="#E7D5B3" />
<rect x="42" y="49" width="1" height="1" fill="#E7D5B3" />
<rect x="43" y="49" width="1" height="1" fill="#E7D5B3" />
<rect x="44" y="49" width="1" height="1" fill="#0A1018" />
<rect x="45" y="49" width="1" height="1" fill="#E7D5B3" />
<rect x="46" y="49" width="1" height="1" fill="#E7D5B3" />
<rect x="47" y="49" width="1" height="1" fill="#E7D5B3" />
<rect x="48" y="49" width="1" height="1" fill="#201114" />
<rect x="53" y="49" width="1" height="1" fill="#E7D5B3" />
<rect x="54" y="49" width="1" height="1" fill="#E7D5B3" />
<rect x="29" y="50" width="1" height="1" fill="#000000" />
<rect x="30" y="50" width="1" height="1" fill="#E7D5B3" />
<rect x="31" y="50" width="1" height="1" fill="#C09473" />
<rect x="37" y="50" width="1" height="1" fill="#C09473" />
<rect x="38" y="50" width="1" height="1" fill="#E7D5B3" />
<rect x="39" y="50" width="1" height="1" fill="#E7D5B3" />
<rect x="40" y="50" width="1" height="1" fill="#E7D5B3" />
<rect x="41" y="50" width="1" height="1" fill="#E7D5B3" />
<rect x="42" y="50" width="1" height="1" fill="#E7D5B3" />
<rect x="43" y="50" width="1" height="1" fill="#E7D5B3" />
<rect x="44" y="50" width="1" height="1" fill="#E7D5B3" />
<rect x="45" y="50" width="1" height="1" fill="#E7D5B3" />
<rect x="46" y="50" width="1" height="1" fill="#E7D5B3" />
<rect x="47" y="50" width="1" height="1" fill="#E7D5B3" />
<rect x="48" y="50" width="1" height="1" fill="#C09473" />
<rect x="53" y="50" width="1" height="1" fill="#C09473" />
<rect x="54" y="50" width="1" height="1" fill="#E7D5B3" />
<rect x="55" y="50" width="1" height="1" fill="#18120E" />
<rect x="28" y="51" width="1" height="1" fill="#201611" />
<rect x="29" y="51" width="1" height="1" fill="#FFFFFF" />
<rect x="30" y="51" width="1" height="1" fill="#000000" />
<rect x="37" y="51" width="1" height="1" fill="#E7D5B3" />
<rect x="38" y="51" width="1" height="1" fill="#E7D5B3" />
<rect x="39" y="51" width="1" height="1" fill="#E7D5B3" />
<rect x="40" y="51" width="1" height="1" fill="#E7D5B3" />
<rect x="41" y="51" width="1" height="1" fill="#E7D5B3" />
<rect x="42" y="51" width="1" height="1" fill="#E7D5B3" />
<rect x="43" y="51" width="1" height="1" fill="#E7D5B3" />
<rect x="44" y="51" width="1" height="1" fill="#E7D5B3" />
<rect x="45" y="51" width="1" height="1" fill="#E7D5B3" />
<rect x="46" y="51" width="1" height="1" fill="#E7D5B3" />
<rect x="47" y="51" width="1" height="1" fill="#E7D5B3" />
<rect x="48" y="51" width="1" height="1" fill="#E7D5B3" />
<rect x="54" y="51" width="1" height="1" fill="#201611" />
<rect x="55" y="51" width="1" height="1" fill="#18120E" />
<rect x="28" y="52" width="1" height="1" fill="#201611" />
<rect x="29" y="52" width="1" height="1" fill="#201611" />
<rect x="38" y="52" width="1" height="1" fill="#E7D5B3" />
<rect x="39" y="52" width="1" height="1" fill="#E7D5B3" />
<rect x="40" y="52" width="1" height="1" fill="#E7D5B3" />
<rect x="41" y="52" width="1" height="1" fill="#C09473" />
<rect x="42" y="52" width="1" height="1" fill="#C09473" />
<rect x="43" y="52" width="1" height="1" fill="#E7D5B3" />
<rect x="44" y="52" width="1" height="1" fill="#E7D5B3" />
<rect x="45" y="52" width="1" height="1" fill="#E7D5B3" />
<rect x="46" y="52" width="1" height="1" fill="#E7D5B3" />
<rect x="47" y="52" width="1" height="1" fill="#E7D5B3" />
<rect x="53" y="52" width="1" height="1" fill="#201611" />
<rect x="54" y="52" width="1" height="1" fill="#201611" />
<rect x="55" y="52" width="1" height="1" fill="#18120E" />
<rect x="28" y="53" width="1" height="1" fill="#201611" />
<rect x="29" y="53" width="1" height="1" fill="#201611" />
<rect x="30" y="53" width="1" height="1" fill="#201611" />
<rect x="38" y="53" width="1" height="1" fill="#E7D5B3" />
<rect x="39" y="53" width="1" height="1" fill="#E7D5B3" />
<rect x="40" y="53" width="1" height="1" fill="#E7D5B3" />
<rect x="41" y="53" width="1" height="1" fill="#C09473" />
<rect x="42" y="53" width="1" height="1" fill="#C09473" />
<rect x="43" y="53" width="1" height="1" fill="#E7D5B3" />
<rect x="44" y="53" width="1" height="1" fill="#E7D5B3" />
<rect x="45" y="53" width="1" height="1" fill="#E7D5B3" />
<rect x="46" y="53" width="1" height="1" fill="#E7D5B3" />
<rect x="52" y="53" width="1" height="1" fill="#201611" />
<rect x="53" y="53" width="1" height="1" fill="#201611" />
<rect x="54" y="53" width="1" height="1" fill="#201611" />
<rect x="55" y="53" width="1" height="1" fill="#18120E" />
<rect x="28" y="54" width="1" height="1" fill="#201611" />
<rect x="29" y="54" width="1" height="1" fill="#201611" />
<rect x="30" y="54" width="1" height="1" fill="#201611" />
<rect x="31" y="54" width="1" height="1" fill="#201611" />
<rect x="40" y="54" width="1" height="1" fill="#E7D5B3" />
<rect x="41" y="54" width="1" height="1" fill="#E7D5B3" />
<rect x="42" y="54" width="1" height="1" fill="#E7D5B3" />
<rect x="43" y="54" width="1" height="1" fill="#E7D5B3" />
<rect x="44" y="54" width="1" height="1" fill="#E7D5B3" />
<rect x="51" y="54" width="1" height="1" fill="#201611" />
<rect x="52" y="54" width="1" height="1" fill="#201611" />
<rect x="53" y="54" width="1" height="1" fill="#201611" />
<rect x="54" y="54" width="1" height="1" fill="#201611" />
<rect x="55" y="54" width="1" height="1" fill="#18120E" />
<rect x="29" y="55" width="1" height="1" fill="#201611" />
<rect x="30" y="55" width="1" height="1" fill="#201611" />
<rect x="31" y="55" width="1" height="1" fill="#201611" />
<rect x="32" y="55" width="1" height="1" fill="#201611" />
<rect x="33" y="55" width="1" height="1" fill="#201611" />
<rect x="34" y="55" width="1" height="1" fill="#201611" />
<rect x="35" y="55" width="1" height="1" fill="#201611" />
<rect x="36" y="55" width="1" height="1" fill="#201611" />
<rect x="37" y="55" width="1" height="1" fill="#201611" />
<rect x="38" y="55" width="1" height="1" fill="#201611" />
<rect x="39" y="55" width="1" height="1" fill="#201611" />
<rect x="40" y="55" width="1" height="1" fill="#201611" />
<rect x="41" y="55" width="1" height="1" fill="#E7D5B3" />
<rect x="42" y="55" width="1" height="1" fill="#E7D5B3" />
<rect x="43" y="55" width="1" height="1" fill="#E7D5B3" />
<rect x="44" y="55" width="1" height="1" fill="#201611" />
<rect x="45" y="55" width="1" height="1" fill="#201611" />
<rect x="46" y="55" width="1" height="1" fill="#201611" />
<rect x="47" y="55" width="1" height="1" fill="#201611" />
<rect x="48" y="55" width="1" height="1" fill="#201611" />
<rect x="49" y="55" width="1" height="1" fill="#201611" />
<rect x="50" y="55" width="1" height="1" fill="#201611" />
<rect x="51" y="55" width="1" height="1" fill="#201611" />
<rect x="52" y="55" width="1" height="1" fill="#201611" />
<rect x="53" y="55" width="1" height="1" fill="#201611" />
<rect x="54" y="55" width="1" height="1" fill="#18120E" />
<rect x="30" y="56" width="1" height="1" fill="#201611" />
<rect x="31" y="56" width="1" height="1" fill="#201611" />
<rect x="32" y="56" width="1" height="1" fill="#201611" />
<rect x="33" y="56" width="1" height="1" fill="#201611" />
<rect x="34" y="56" width="1" height="1" fill="#201611" />
<rect x="35" y="56" width="1" height="1" fill="#201611" />
<rect x="36" y="56" width="1" height="1" fill="#201611" />
<rect x="37" y="56" width="1" height="1" fill="#201611" />
<rect x="38" y="56" width="1" height="1" fill="#201611" />
<rect x="39" y="56" width="1" height="1" fill="#201611" />
<rect x="40" y="56" width="1" height="1" fill="#201611" />
<rect x="41" y="56" width="1" height="1" fill="#201611" />
<rect x="42" y="56" width="1" height="1" fill="#201611" />
<rect x="43" y="56" width="1" height="1" fill="#201611" />
<rect x="44" y="56" width="1" height="1" fill="#201611" />
<rect x="45" y="56" width="1" height="1" fill="#201611" />
<rect x="46" y="56" width="1" height="1" fill="#201611" />
<rect x="47" y="56" width="1" height="1" fill="#201611" />
<rect x="48" y="56" width="1" height="1" fill="#201611" />
<rect x="49" y="56" width="1" height="1" fill="#201611" />
<rect x="50" y="56" width="1" height="1" fill="#201611" />
<rect x="51" y="56" width="1" height="1" fill="#201611" />
<rect x="52" y="56" width="1" height="1" fill="#201611" />
<rect x="53" y="56" width="1" height="1" fill="#18120E" />
<rect x="31" y="57" width="1" height="1" fill="#201611" />
<rect x="32" y="57" width="1" height="1" fill="#201611" />
<rect x="33" y="57" width="1" height="1" fill="#201611" />
<rect x="34" y="57" width="1" height="1" fill="#201611" />
<rect x="35" y="57" width="1" height="1" fill="#201611" />
<rect x="36" y="57" width="1" height="1" fill="#201611" />
<rect x="37" y="57" width="1" height="1" fill="#201611" />
<rect x="38" y="57" width="1" height="1" fill="#201611" />
<rect x="39" y="57" width="1" height="1" fill="#201611" />
<rect x="40" y="57" width="1" height="1" fill="#201611" />
<rect x="41" y="57" width="1" height="1" fill="#201611" />
<rect x="42" y="57" width="1" height="1" fill="#201611" />
<rect x="43" y="57" width="1" height="1" fill="#201611" />
<rect x="44" y="57" width="1" height="1" fill="#201611" />
<rect x="45" y="57" width="1" height="1" fill="#201611" />
<rect x="46" y="57" width="1" height="1" fill="#201611" />
<rect x="47" y="57" width="1" height="1" fill="#201611" />
<rect x="48" y="57" width="1" height="1" fill="#201611" />
<rect x="49" y="57" width="1" height="1" fill="#201611" />
<rect x="50" y="57" width="1" height="1" fill="#201611" />
<rect x="51" y="57" width="1" height="1" fill="#201611" />
<rect x="52" y="57" width="1" height="1" fill="#18120E" />
<rect x="32" y="58" width="1" height="1" fill="#18120E" />
<rect x="33" y="58" width="1" height="1" fill="#18120E" />
<rect x="34" y="58" width="1" height="1" fill="#18120E" />
<rect x="35" y="58" width="1" height="1" fill="#18120E" />
<rect x="36" y="58" width="1" height="1" fill="#18120E" />
<rect x="37" y="58" width="1" height="1" fill="#201611" />
<rect x="38" y="58" width="1" height="1" fill="#201611" />
<rect x="39" y="58" width="1" height="1" fill="#201611" />
<rect x="40" y="58" width="1" height="1" fill="#201611" />
<rect x="41" y="58" width="1" height="1" fill="#201611" />
<rect x="42" y="58" width="1" height="1" fill="#201611" />
<rect x="43" y="58" width="1" height="1" fill="#201611" />
<rect x="44" y="58" width="1" height="1" fill="#201611" />
<rect x="45" y="58" width="1" height="1" fill="#201611" />
<rect x="46" y="58" width="1" height="1" fill="#201611" />
<rect x="47" y="58" width="1" height="1" fill="#18120E" />
<rect x="48" y="58" width="1" height="1" fill="#18120E" />
<rect x="49" y="58" width="1" height="1" fill="#18120E" />
<rect x="50" y="58" width="1" height="1" fill="#18120E" />
<rect x="51" y="58" width="1" height="1" fill="#18120E" />
<rect x="36" y="59" width="1" height="1" fill="#18120E" />
<rect x="37" y="59" width="1" height="1" fill="#201611" />
<rect x="38" y="59" width="1" height="1" fill="#201611" />
<rect x="39" y="59" width="1" height="1" fill="#201611" />
<rect x="40" y="59" width="1" height="1" fill="#201611" />
<rect x="41" y="59" width="1" height="1" fill="#201611" />
<rect x="42" y="59" width="1" height="1" fill="#201611" />
<rect x="43" y="59" width="1" height="1" fill="#201611" />
<rect x="44" y="59" width="1" height="1" fill="#201611" />
<rect x="45" y="59" width="1" height="1" fill="#201611" />
<rect x="46" y="59" width="1" height="1" fill="#18120E" />
<rect x="35" y="60" width="1" height="1" fill="#18120E" />
<rect x="36" y="60" width="1" height="1" fill="#201611" />
<rect x="37" y="60" width="1" height="1" fill="#201611" />
<rect x="38" y="60" width="1" height="1" fill="#201611" />
<rect x="39" y="60" width="1" height="1" fill="#201611" />
<rect x="40" y="60" width="1" height="1" fill="#201611" />
<rect x="41" y="60" width="1" height="1" fill="#201611" />
<rect x="42" y="60" width="1" height="1" fill="#201611" />
<rect x="43" y="60" width="1" height="1" fill="#201611" />
<rect x="44" y="60" width="1" height="1" fill="#201611" />
<rect x="45" y="60" width="1" height="1" fill="#201611" />
<rect x="46" y="60" width="1" height="1" fill="#18120E" />
<rect x="35" y="61" width="1" height="1" fill="#18120E" />
<rect x="36" y="61" width="1" height="1" fill="#201611" />
<rect x="37" y="61" width="1" height="1" fill="#201611" />
<rect x="38" y="61" width="1" height="1" fill="#201611" />
<rect x="39" y="61" width="1" height="1" fill="#201611" />
<rect x="40" y="61" width="1" height="1" fill="#201611" />
<rect x="41" y="61" width="1" height="1" fill="#201611" />
<rect x="42" y="61" width="1" height="1" fill="#201611" />
<rect x="43" y="61" width="1" height="1" fill="#201611" />
<rect x="44" y="61" width="1" height="1" fill="#201611" />
<rect x="45" y="61" width="1" height="1" fill="#201611" />
<rect x="46" y="61" width="1" height="1" fill="#18120E" />
<rect x="35" y="62" width="1" height="1" fill="#18120E" />
<rect x="36" y="62" width="1" height="1" fill="#201611" />
<rect x="37" y="62" width="1" height="1" fill="#201611" />
<rect x="38" y="62" width="1" height="1" fill="#201611" />
<rect x="39" y="62" width="1" height="1" fill="#201611" />
<rect x="40" y="62" width="1" height="1" fill="#201611" />
<rect x="41" y="62" width="1" height="1" fill="#201611" />
<rect x="42" y="62" width="1" height="1" fill="#201611" />
<rect x="43" y="62" width="1" height="1" fill="#201611" />
<rect x="44" y="62" width="1" height="1" fill="#201611" />
<rect x="45" y="62" width="1" height="1" fill="#201611" />
<rect x="46" y="62" width="1" height="1" fill="#18120E" />
<rect x="35" y="63" width="1" height="1" fill="#201611" />
<rect x="36" y="63" width="1" height="1" fill="#18120E" />
<rect x="37" y="63" width="1" height="1" fill="#18120E" />
<rect x="38" y="63" width="1" height="1" fill="#201611" />
<rect x="39" y="63" width="1" height="1" fill="#201611" />
<rect x="40" y="63" width="1" height="1" fill="#201611" />
<rect x="41" y="63" width="1" height="1" fill="#201611" />
<rect x="42" y="63" width="1" height="1" fill="#201611" />
<rect x="43" y="63" width="1" height="1" fill="#201611" />
<rect x="44" y="63" width="1" height="1" fill="#201611" />
<rect x="45" y="63" width="1" height="1" fill="#201611" />
<rect x="46" y="63" width="1" height="1" fill="#18120E" />
<rect x="35" y="64" width="1" height="1" fill="#000000" />
<rect x="36" y="64" width="1" height="1" fill="#000000" />
<rect x="37" y="64" width="1" height="1" fill="#000000" />
<rect x="38" y="64" width="1" height="1" fill="#000000" />
<rect x="39" y="64" width="1" height="1" fill="#000000" />
<rect x="40" y="64" width="1" height="1" fill="#FFFFFF" />
<rect x="41" y="64" width="1" height="1" fill="#FFFFFF" />
<rect x="42" y="64" width="1" height="1" fill="#000000" />
<rect x="43" y="64" width="1" height="1" fill="#000000" />
<rect x="44" y="64" width="1" height="1" fill="#000000" />
<rect x="45" y="64" width="1" height="1" fill="#000000" />
<rect x="46" y="64" width="1" height="1" fill="#000000" />
<rect x="36" y="65" width="1" height="1" fill="#0D0C14" />
<rect x="37" y="65" width="1" height="1" fill="#0D0C14" />
<rect x="38" y="65" width="1" height="1" fill="#0D0C14" />
<rect x="39" y="65" width="1" height="1" fill="#0D0C14" />
<rect x="40" y="65" width="1" height="1" fill="#0D0C14" />
<rect x="41" y="65" width="1" height="1" fill="#0D0C14" />
<rect x="42" y="65" width="1" height="1" fill="#0D0C14" />
<rect x="43" y="65" width="1" height="1" fill="#0D0C14" />
<rect x="44" y="65" width="1" height="1" fill="#0D0C14" />
<rect x="45" y="65" width="1" height="1" fill="#0D0C14" />
<rect x="46" y="65" width="1" height="1" fill="#08070C" />
<rect x="37" y="66" width="1" height="1" fill="#0D0C14" />
<rect x="38" y="66" width="1" height="1" fill="#0D0C14" />
<rect x="39" y="66" width="1" height="1" fill="#0D0C14" />
<rect x="40" y="66" width="1" height="1" fill="#0D0C14" />
<rect x="41" y="66" width="1" height="1" fill="#0D0C14" />
<rect x="42" y="66" width="1" height="1" fill="#0D0C14" />
<rect x="43" y="66" width="1" height="1" fill="#08070C" />
<rect x="44" y="66" width="1" height="1" fill="#0D0C14" />
<rect x="45" y="66" width="1" height="1" fill="#0D0C14" />
<rect x="46" y="66" width="1" height="1" fill="#08070C" />
<rect x="37" y="67" width="1" height="1" fill="#08070C" />
<rect x="38" y="67" width="1" height="1" fill="#0D0C14" />
<rect x="39" y="67" width="1" height="1" fill="#0D0C14" />
<rect x="40" y="67" width="1" height="1" fill="#0D0C14" />
<rect x="41" y="67" width="1" height="1" fill="#0D0C14" />
<rect x="42" y="67" width="1" height="1" fill="#0D0C14" />
<rect x="43" y="67" width="1" height="1" fill="#0D0C14" />
<rect x="44" y="67" width="1" height="1" fill="#0D0C14" />
<rect x="45" y="67" width="1" height="1" fill="#0D0C14" />
<rect x="46" y="67" width="1" height="1" fill="#08070C" />
<rect x="37" y="68" width="1" height="1" fill="#0D0C14" />
<rect x="38" y="68" width="1" height="1" fill="#0D0C14" />
<rect x="39" y="68" width="1" height="1" fill="#08070C" />
<rect x="44" y="68" width="1" height="1" fill="#0D0C14" />
<rect x="45" y="68" width="1" height="1" fill="#0D0C14" />
<rect x="46" y="68" width="1" height="1" fill="#08070C" />
<rect x="37" y="69" width="1" height="1" fill="#0D0C14" />
<rect x="38" y="69" width="1" height="1" fill="#0D0C14" />
<rect x="39" y="69" width="1" height="1" fill="#08070C" />
<rect x="44" y="69" width="1" height="1" fill="#0D0C14" />
<rect x="45" y="69" width="1" height="1" fill="#0D0C14" />
<rect x="46" y="69" width="1" height="1" fill="#08070C" />
<rect x="37" y="70" width="1" height="1" fill="#0D0C14" />
<rect x="38" y="70" width="1" height="1" fill="#0D0C14" />
<rect x="39" y="70" width="1" height="1" fill="#08070C" />
<rect x="44" y="70" width="1" height="1" fill="#0D0C14" />
<rect x="45" y="70" width="1" height="1" fill="#0D0C14" />
<rect x="46" y="70" width="1" height="1" fill="#08070C" />
<rect x="37" y="71" width="1" height="1" fill="#08070C" />
<rect x="38" y="71" width="1" height="1" fill="#0D0C14" />
<rect x="39" y="71" width="1" height="1" fill="#08070C" />
<rect x="44" y="71" width="1" height="1" fill="#0D0C14" />
<rect x="45" y="71" width="1" height="1" fill="#0D0C14" />
<rect x="46" y="71" width="1" height="1" fill="#08070C" />
<rect x="37" y="72" width="1" height="1" fill="#0D0C14" />
<rect x="38" y="72" width="1" height="1" fill="#0D0C14" />
<rect x="39" y="72" width="1" height="1" fill="#08070C" />
<rect x="44" y="72" width="1" height="1" fill="#08070C" />
<rect x="45" y="72" width="1" height="1" fill="#0D0C14" />
<rect x="46" y="72" width="1" height="1" fill="#08070C" />
<rect x="37" y="73" width="1" height="1" fill="#0D0C14" />
<rect x="38" y="73" width="1" height="1" fill="#0D0C14" />
<rect x="39" y="73" width="1" height="1" fill="#08070C" />
<rect x="44" y="73" width="1" height="1" fill="#0D0C14" />
<rect x="45" y="73" width="1" height="1" fill="#0D0C14" />
<rect x="46" y="73" width="1" height="1" fill="#08070C" />
<rect x="37" y="74" width="1" height="1" fill="#0D0C14" />
<rect x="38" y="74" width="1" height="1" fill="#0D0C14" />
<rect x="39" y="74" width="1" height="1" fill="#08070C" />
<rect x="44" y="74" width="1" height="1" fill="#0D0C14" />
<rect x="45" y="74" width="1" height="1" fill="#0D0C14" />
<rect x="46" y="74" width="1" height="1" fill="#08070C" />
<rect x="37" y="75" width="1" height="1" fill="#08070C" />
<rect x="38" y="75" width="1" height="1" fill="#08070C" />
<rect x="39" y="75" width="1" height="1" fill="#08070C" />
<rect x="44" y="75" width="1" height="1" fill="#08070C" />
<rect x="45" y="75" width="1" height="1" fill="#08070C" />
<rect x="46" y="75" width="1" height="1" fill="#08070C" />
<rect x="36" y="76" width="1" height="1" fill="#000000" />
<rect x="37" y="76" width="1" height="1" fill="#000000" />
<rect x="38" y="76" width="1" height="1" fill="#000000" />
<rect x="39" y="76" width="1" height="1" fill="#000000" />
<rect x="43" y="76" width="1" height="1" fill="#000000" />
<rect x="44" y="76" width="1" height="1" fill="#000000" />
<rect x="45" y="76" width="1" height="1" fill="#000000" />
<rect x="46" y="76" width="1" height="1" fill="#000000" />
<rect x="35" y="77" width="1" height="1" fill="#000000" />
<rect x="36" y="77" width="1" height="1" fill="#000000" />
<rect x="37" y="77" width="1" height="1" fill="#000000" />
<rect x="38" y="77" width="1" height="1" fill="#000000" />
<rect x="39" y="77" width="1" height="1" fill="#000000" />
<rect x="42" y="77" width="1" height="1" fill="#000000" />
<rect x="43" y="77" width="1" height="1" fill="#000000" />
<rect x="44" y="77" width="1" height="1" fill="#000000" />
<rect x="45" y="77" width="1" height="1" fill="#000000" />
<rect x="46" y="77" width="1" height="1" fill="#000000" />
<rect x="35" y="78" width="1" height="1" fill="#000000" />
<rect x="36" y="78" width="1" height="1" fill="#000000" />
<rect x="37" y="78" width="1" height="1" fill="#000000" />
<rect x="38" y="78" width="1" height="1" fill="#000000" />
<rect x="39" y="78" width="1" height="1" fill="#000000" />
<rect x="42" y="78" width="1" height="1" fill="#000000" />
<rect x="43" y="78" width="1" height="1" fill="#000000" />
<rect x="44" y="78" width="1" height="1" fill="#000000" />
<rect x="45" y="78" width="1" height="1" fill="#000000" />
<rect x="46" y="78" width="1" height="1" fill="#000000" />
</svg>