<?xml version="1.0" encoding="UTF-8" ?>
<svg version="1.1" width="54" height="48" xmlns="http://www.w3.org/2000/svg" shape-rendering="crispEdges">
<rect x="21" y="4" width="1" height="1" fill="#D7B594" />
<rect x="22" y="4" width="1" height="1" fill="#D7B594" />
<rect x="23" y="4" width="1" height="1" fill="#D7B594" />
<rect x="24" y="4" width="1" height="1" fill="#D7B594" />
<rect x="25" y="4" width="1" height="1" fill="#D7B594" />
<rect x="26" y="4" width="1" height="1" fill="#D7B594" />
<rect x="20" y="5" width="1" height="1" fill="#D7B594" />
<rect x="21" y="5" width="1" height="1" fill="#D7B594" />
<rect x="22" y="5" width="1" height="1" fill="#D7B594" />
<rect x="23" y="5" width="1" height="1" fill="#D7B594" />
<rect x="24" y="5" width="1" height="1" fill="#D7B594" />
<rect x="25" y="5" width="1" height="1" fill="#D7B594" />
<rect x="26" y="5" width="1" height="1" fill="#D7B594" />
<rect x="27" y="5" width="1" height="1" fill="#D7B594" />
<rect x="20" y="6" width="1" height="1" fill="#D7B594" />
<rect x="21" y="6" width="1" height="1" fill="#D7B594" />
<rect x="22" y="6" width="1" height="1" fill="#D7B594" />
<rect x="23" y="6" width="1" height="1" fill="#D7B594" />
<rect x="24" y="6" width="1" height="1" fill="#D7B594" />
<rect x="25" y="6" width="1" height="1" fill="#D7B594" />
<rect x="26" y="6" width="1" height="1" fill="#D7B594" />
<rect x="27" y="6" width="1" height="1" fill="#D7B594" />
<rect x="20" y="7" width="1" height="1" fill="#D7B594" />
<rect x="21" y="7" width="1" height="1" fill="#D7B594" />
<rect x="22" y="7" width="1" height="1" fill="#D7B594" />
<rect x="23" y="7" width="1" height="1" fill="#D7B594" />
<rect x="24" y="7" width="1" height="1" fill="#D7B594" />
<rect x="25" y="7" width="1" height="1" fill="#D7B594" />
<rect x="26" y="7" width="1" height="1" fill="#D7B594" />
<rect x="27" y="7" width="1" height="1" fill="#D7B594" />
<rect x="20" y="8" width="1" height="1" fill="#D7B594" />
<rect x="21" y="8" width="1" height="1" fill="#D7B594" />
<rect x="22" y="8" width="1" height="1" fill="#D7B594" />
<rect x="23" y="8" width="1" height="1" fill="#D7B594" />
<rect x="24" y="8" width="1" height="1" fill="#D7B594" />
<rect x="25" y="8" width="1" height="1" fill="#D7B594" />
<rect x="26" y="8" width="1" height="1" fill="#D7B594" />
<rect x="27" y="8" width="1" height="1" fill="#D7B594" />
<rect x="20" y="9" width="1" height="1" fill="#C09473" />
<rect x="21" y="9" width="1" height="1" fill="#D7B594" />
<rect x="22" y="9" width="1" height="1" fill="#D7B594" />
<rect x="23" y="9" width="1" height="1" fill="#D7B594" />
<rect x="24" y="9" width="1" height="1" fill="#D7B594" />
<rect x="25" y="9" width="1" height="1" fill="#D7B594" />
<rect x="26" y="9" width="1" height="1" fill="#D7B594" />
<rect x="27" y="9" width="1" height="1" fill="#C09473" />
<rect x="21" y="10" width="1" height="1" fill="#C09473" />
<rect x="22" y="10" width="1" height="1" fill="#C09473" />
<rect x="23" y="10" width="1" height="1" fill="#C09473" />
<rect x="24" y="10" width="1" height="1" fill="#C09473" />
<rect x="25" y="10" width="1" height="1" fill="#C09473" />
<rect x="26" y="10" width="1" height="1" fill="#C09473" />
</svg>