<?xml version="1.0" encoding="UTF-8" ?>
<svg version="1.1" width="54" height="48" xmlns="http://www.w3.org/2000/svg" shape-rendering="crispEdges">
<rect x="37" y="5" width="1" height="1" fill="#D7B594" />
<rect x="38" y="5" width="1" height="1" fill="#D7B594" />
<rect x="39" y="5" width="1" height="1" fill="#D7B594" />
<rect x="40" y="5" width="1" height="1" fill="#D7B594" />
<rect x="41" y="5" width="1" height="1" fill="#D7B594" />
<rect x="42" y="5" width="1" height="1" fill="#D7B594" />
<rect x="36" y="6" width="1" height="1" fill="#D7B594" />
<rect x="37" y="6" width="1" height="1" fill="#D7B594" />
<rect x="38" y="6" width="1" height="1" fill="#D7B594" />
<rect x="39" y="6" width="1" height="1" fill="#D7B594" />
<rect x="40" y="6" width="1" height="1" fill="#D7B594" />
<rect x="41" y="6" width="1" height="1" fill="#D7B594" />
<rect x="42" y="6" width="1" height="1" fill="#D7B594" />
<rect x="43" y="6" width="1" height="1" fill="#D7B594" />
<rect x="36" y="7" width="1" height="1" fill="#D7B594" />
<rect x="37" y="7" width="1" height="1" fill="#D7B594" />
<rect x="38" y="7" width="1" height="1" fill="#D7B594" />
<rect x="39" y="7" width="1" height="1" fill="#D7B594" />
<rect x="40" y="7" width="1" height="1" fill="#D7B594" />
<rect x="41" y="7" width="1" height="1" fill="#D7B594" />
<rect x="42" y="7" width="1" height="1" fill="#D7B594" />
<rect x="43" y="7" width="1" height="1" fill="#D7B594" />
<rect x="36" y="8" width="1" height="1" fill="#D7B594" />
<rect x="37" y="8" width="1" height="1" fill="#D7B594" />
<rect x="38" y="8" width="1" height="1" fill="#D7B594" />
<rect x="39" y="8" width="1" height="1" fill="#D7B594" />
<rect x="40" y="8" width="1" height="1" fill="#D7B594" />
<rect x="41" y="8" width="1" height="1" fill="#D7B594" />
<rect x="42" y="8" width="1" height="1" fill="#D7B594" />
<rect x="43" y="8" width="1" height="1" fill="#D7B594" />
<rect x="36" y="9" width="1" height="1" fill="#D7B594" />
<rect x="37" y="9" width="1" height="1" fill="#D7B594" />
<rect x="38" y="9" width="1" height="1" fill="#D7B594" />
<rect x="39" y="9" width="1" height="1" fill="#D7B594" />
<rect x="40" y="9" width="1" height="1" fill="#D7B594" />
<rect x="41" y="9" width="1" height="1" fill="#D7B594" />
<rect x="42" y="9" width="1" height="1" fill="#D7B594" />
<rect x="43" y="9" width="1" height="1" fill="#D7B594" />
<rect x="37" y="10" width="1" height="1" fill="#D7B594" />
<rect x="38" y="10" width="1" height="1" fill="#D7B594" />
<rect x="39" y="10" width="1" height="1" fill="#D7B594" />
<rect x="40" y="10" width="1" height="1" fill="#D7B594" />
<rect x="41" y="10" width="1" height="1" fill="#D7B594" />
<rect x="42" y="10" width="1" height="1" fill="#D7B594" />
</svg>