<?xml version="1.0" encoding="UTF-8" ?>
<svg version="1.1" width="144" height="144" xmlns="http://www.w3.org/2000/svg" shape-rendering="crispEdges">
<rect x="23" y="55" width="1" height="1" fill="#7A4841" />
<rect x="24" y="55" width="1" height="1" fill="#7A4841" />
<rect x="25" y="55" width="1" height="1" fill="#7A4841" />
<rect x="26" y="55" width="1" height="1" fill="#7A4841" />
<rect x="27" y="55" width="1" height="1" fill="#7A4841" />
<rect x="22" y="56" width="1" height="1" fill="#7A4841" />
<rect x="23" y="56" width="1" height="1" fill="#C09473" />
<rect x="24" y="56" width="1" height="1" fill="#C09473" />
<rect x="25" y="56" width="1" height="1" fill="#C09473" />
<rect x="26" y="56" width="1" height="1" fill="#C09473" />
<rect x="27" y="56" width="1" height="1" fill="#C09473" />
<rect x="28" y="56" width="1" height="1" fill="#7A4841" />
<rect x="29" y="56" width="1" height="1" fill="#7A4841" />
<rect x="20" y="57" width="1" height="1" fill="#7A4841" />
<rect x="21" y="57" width="1" height="1" fill="#7A4841" />
<rect x="22" y="57" width="1" height="1" fill="#C09473" />
<rect x="23" y="57" width="1" height="1" fill="#C09473" />
<rect x="24" y="57" width="1" height="1" fill="#C09473" />
<rect x="25" y="57" width="1" height="1" fill="#C09473" />
<rect x="26" y="57" width="1" height="1" fill="#C09473" />
<rect x="27" y="57" width="1" height="1" fill="#C09473" />
<rect x="28" y="57" width="1" height="1" fill="#C09473" />
<rect x="29" y="57" width="1" height="1" fill="#C09473" />
<rect x="30" y="57" width="1" height="1" fill="#7A4841" />
<rect x="19" y="58" width="1" height="1" fill="#7A4841" />
<rect x="20" y="58" width="1" height="1" fill="#C09473" />
<rect x="21" y="58" width="1" height="1" fill="#C09473" />
<rect x="22" y="58" width="1" height="1" fill="#C09473" />
<rect x="23" y="58" width="1" height="1" fill="#C09473" />
<rect x="24" y="58" width="1" height="1" fill="#C09473" />
<rect x="25" y="58" width="1" height="1" fill="#C09473" />
<rect x="26" y="58" width="1" height="1" fill="#C09473" />
<rect x="27" y="58" width="1" height="1" fill="#C09473" />
<rect x="28" y="58" width="1" height="1" fill="#C09473" />
<rect x="29" y="58" width="1" height="1" fill="#C09473" />
<rect x="30" y="58" width="1" height="1" fill="#C09473" />
<rect x="31" y="58" width="1" height="1" fill="#7A4841" />
<rect x="32" y="58" width="1" height="1" fill="#7A4841" />
<rect x="17" y="59" width="1" height="1" fill="#7A4841" />
<rect x="18" y="59" width="1" height="1" fill="#7A4841" />
<rect x="19" y="59" width="1" height="1" fill="#C09473" />
<rect x="20" y="59" width="1" height="1" fill="#C09473" />
<rect x="21" y="59" width="1" height="1" fill="#C09473" />
<rect x="22" y="59" width="1" height="1" fill="#C09473" />
<rect x="23" y="59" width="1" height="1" fill="#75A743" />
<rect x="24" y="59" width="1" height="1" fill="#75A743" />
<rect x="25" y="59" width="1" height="1" fill="#C09473" />
<rect x="26" y="59" width="1" height="1" fill="#C09473" />
<rect x="27" y="59" width="1" height="1" fill="#C09473" />
<rect x="28" y="59" width="1" height="1" fill="#C09473" />
<rect x="29" y="59" width="1" height="1" fill="#C09473" />
<rect x="30" y="59" width="1" height="1" fill="#C09473" />
<rect x="31" y="59" width="1" height="1" fill="#C09473" />
<rect x="32" y="59" width="1" height="1" fill="#C09473" />
<rect x="33" y="59" width="1" height="1" fill="#7A4841" />
<rect x="34" y="59" width="1" height="1" fill="#7A4841" />
<rect x="16" y="60" width="1" height="1" fill="#7A4841" />
<rect x="17" y="60" width="1" height="1" fill="#C09473" />
<rect x="18" y="60" width="1" height="1" fill="#C09473" />
<rect x="19" y="60" width="1" height="1" fill="#C09473" />
<rect x="20" y="60" width="1" height="1" fill="#C09473" />
<rect x="21" y="60" width="1" height="1" fill="#75A743" />
<rect x="22" y="60" width="1" height="1" fill="#75A743" />
<rect x="23" y="60" width="1" height="1" fill="#A8CA58" />
<rect x="24" y="60" width="1" height="1" fill="#A8CA58" />
<rect x="25" y="60" width="1" height="1" fill="#75A743" />
<rect x="26" y="60" width="1" height="1" fill="#75A743" />
<rect x="27" y="60" width="1" height="1" fill="#C09473" />
<rect x="28" y="60" width="1" height="1" fill="#C09473" />
<rect x="29" y="60" width="1" height="1" fill="#C09473" />
<rect x="30" y="60" width="1" height="1" fill="#C09473" />
<rect x="31" y="60" width="1" height="1" fill="#C09473" />
<rect x="32" y="60" width="1" height="1" fill="#C09473" />
<rect x="33" y="60" width="1" height="1" fill="#C09473" />
<rect x="34" y="60" width="1" height="1" fill="#C09473" />
<rect x="35" y="60" width="1" height="1" fill="#7A4841" />
<rect x="14" y="61" width="1" height="1" fill="#7A4841" />
<rect x="15" y="61" width="1" height="1" fill="#7A4841" />
<rect x="16" y="61" width="1" height="1" fill="#C09473" />
<rect x="17" y="61" width="1" height="1" fill="#C09473" />
<rect x="18" y="61" width="1" height="1" fill="#C09473" />
<rect x="19" y="61" width="1" height="1" fill="#C09473" />
<rect x="20" y="61" width="1" height="1" fill="#75A743" />
<rect x="21" y="61" width="1" height="1" fill="#A8CA58" />
<rect x="22" y="61" width="1" height="1" fill="#A8CA58" />
<rect x="23" y="61" width="1" height="1" fill="#A8CA58" />
<rect x="24" y="61" width="1" height="1" fill="#A8CA58" />
<rect x="25" y="61" width="1" height="1" fill="#A8CA58" />
<rect x="26" y="61" width="1" height="1" fill="#A8CA58" />
<rect x="27" y="61" width="1" height="1" fill="#75A743" />
<rect x="28" y="61" width="1" height="1" fill="#C09473" />
<rect x="29" y="61" width="1" height="1" fill="#C09473" />
<rect x="30" y="61" width="1" height="1" fill="#C09473" />
<rect x="31" y="61" width="1" height="1" fill="#C09473" />
<rect x="32" y="61" width="1" height="1" fill="#C09473" />
<rect x="33" y="61" width="1" height="1" fill="#C09473" />
<rect x="34" y="61" width="1" height="1" fill="#C09473" />
<rect x="35" y="61" width="1" height="1" fill="#C09473" />
<rect x="36" y="61" width="1" height="1" fill="#7A4841" />
<rect x="37" y="61" width="1" height="1" fill="#7A4841" />
<rect x="12" y="62" width="1" height="1" fill="#7A4841" />
<rect x="13" y="62" width="1" height="1" fill="#7A4841" />
<rect x="14" y="62" width="1" height="1" fill="#C09473" />
<rect x="15" y="62" width="1" height="1" fill="#C09473" />
<rect x="16" y="62" width="1" height="1" fill="#C09473" />
<rect x="17" y="62" width="1" height="1" fill="#C09473" />
<rect x="18" y="62" width="1" height="1" fill="#75A743" />
<rect x="19" y="62" width="1" height="1" fill="#75A743" />
<rect x="20" y="62" width="1" height="1" fill="#A8CA58" />
<rect x="21" y="62" width="1" height="1" fill="#A8CA58" />
<rect x="22" y="62" width="1" height="1" fill="#A8CA58" />
<rect x="23" y="62" width="1" height="1" fill="#A8CA58" />
<rect x="24" y="62" width="1" height="1" fill="#A8CA58" />
<rect x="25" y="62" width="1" height="1" fill="#A8CA58" />
<rect x="26" y="62" width="1" height="1" fill="#A8CA58" />
<rect x="27" y="62" width="1" height="1" fill="#A8CA58" />
<rect x="28" y="62" width="1" height="1" fill="#75A743" />
<rect x="29" y="62" width="1" height="1" fill="#C09473" />
<rect x="30" y="62" width="1" height="1" fill="#C09473" />
<rect x="31" y="62" width="1" height="1" fill="#C09473" />
<rect x="32" y="62" width="1" height="1" fill="#C09473" />
<rect x="33" y="62" width="1" height="1" fill="#C09473" />
<rect x="34" y="62" width="1" height="1" fill="#C09473" />
<rect x="35" y="62" width="1" height="1" fill="#C09473" />
<rect x="36" y="62" width="1" height="1" fill="#C09473" />
<rect x="37" y="62" width="1" height="1" fill="#C09473" />
<rect x="38" y="62" width="1" height="1" fill="#7A4841" />
<rect x="11" y="63" width="1" height="1" fill="#7A4841" />
<rect x="12" y="63" width="1" height="1" fill="#C09473" />
<rect x="13" y="63" width="1" height="1" fill="#C09473" />
<rect x="14" y="63" width="1" height="1" fill="#C09473" />
<rect x="15" y="63" width="1" height="1" fill="#C09473" />
<rect x="16" y="63" width="1" height="1" fill="#75A743" />
<rect x="17" y="63" width="1" height="1" fill="#75A743" />
<rect x="18" y="63" width="1" height="1" fill="#A8CA58" />
<rect x="19" y="63" width="1" height="1" fill="#A8CA58" />
<rect x="20" y="63" width="1" height="1" fill="#C7CFCC" />
<rect x="21" y="63" width="1" height="1" fill="#C7CFCC" />
<rect x="22" y="63" width="1" height="1" fill="#A8CA58" />
<rect x="23" y="63" width="1" height="1" fill="#A8CA58" />
<rect x="24" y="63" width="1" height="1" fill="#A8CA58" />
<rect x="25" y="63" width="1" height="1" fill="#A8CA58" />
<rect x="26" y="63" width="1" height="1" fill="#A8CA58" />
<rect x="27" y="63" width="1" height="1" fill="#A8CA58" />
<rect x="28" y="63" width="1" height="1" fill="#75A743" />
<rect x="29" y="63" width="1" height="1" fill="#C09473" />
<rect x="30" y="63" width="1" height="1" fill="#C09473" />
<rect x="31" y="63" width="1" height="1" fill="#C09473" />
<rect x="32" y="63" width="1" height="1" fill="#C09473" />
<rect x="33" y="63" width="1" height="1" fill="#C09473" />
<rect x="34" y="63" width="1" height="1" fill="#C09473" />
<rect x="35" y="63" width="1" height="1" fill="#C09473" />
<rect x="36" y="63" width="1" height="1" fill="#C09473" />
<rect x="37" y="63" width="1" height="1" fill="#C09473" />
<rect x="38" y="63" width="1" height="1" fill="#C09473" />
<rect x="39" y="63" width="1" height="1" fill="#7A4841" />
<rect x="40" y="63" width="1" height="1" fill="#7A4841" />
<rect x="9" y="64" width="1" height="1" fill="#7A4841" />
<rect x="10" y="64" width="1" height="1" fill="#7A4841" />
<rect x="11" y="64" width="1" height="1" fill="#C09473" />
<rect x="12" y="64" width="1" height="1" fill="#C09473" />
<rect x="13" y="64" width="1" height="1" fill="#C09473" />
<rect x="14" y="64" width="1" height="1" fill="#C09473" />
<rect x="15" y="64" width="1" height="1" fill="#75A743" />
<rect x="16" y="64" width="1" height="1" fill="#A8CA58" />
<rect x="17" y="64" width="1" height="1" fill="#A8CA58" />
<rect x="18" y="64" width="1" height="1" fill="#A8CA58" />
<rect x="19" y="64" width="1" height="1" fill="#C7CFCC" />
<rect x="20" y="64" width="1" height="1" fill="#C7CFCC" />
<rect x="21" y="64" width="1" height="1" fill="#C7CFCC" />
<rect x="22" y="64" width="1" height="1" fill="#C7CFCC" />
<rect x="23" y="64" width="1" height="1" fill="#C7CFCC" />
<rect x="24" y="64" width="1" height="1" fill="#A8CA58" />
<rect x="25" y="64" width="1" height="1" fill="#A8CA58" />
<rect x="26" y="64" width="1" height="1" fill="#75A743" />
<rect x="27" y="64" width="1" height="1" fill="#75A743" />
<rect x="28" y="64" width="1" height="1" fill="#C09473" />
<rect x="29" y="64" width="1" height="1" fill="#C09473" />
<rect x="30" y="64" width="1" height="1" fill="#C09473" />
<rect x="31" y="64" width="1" height="1" fill="#C09473" />
<rect x="32" y="64" width="1" height="1" fill="#C09473" />
<rect x="33" y="64" width="1" height="1" fill="#C09473" />
<rect x="34" y="64" width="1" height="1" fill="#C09473" />
<rect x="35" y="64" width="1" height="1" fill="#C09473" />
<rect x="36" y="64" width="1" height="1" fill="#C09473" />
<rect x="37" y="64" width="1" height="1" fill="#C09473" />
<rect x="38" y="64" width="1" height="1" fill="#C09473" />
<rect x="39" y="64" width="1" height="1" fill="#C09473" />
<rect x="40" y="64" width="1" height="1" fill="#C09473" />
<rect x="41" y="64" width="1" height="1" fill="#7A4841" />
<rect x="8" y="65" width="1" height="1" fill="#7A4841" />
<rect x="9" y="65" width="1" height="1" fill="#C09473" />
<rect x="10" y="65" width="1" height="1" fill="#C09473" />
<rect x="11" y="65" width="1" height="1" fill="#C09473" />
<rect x="12" y="65" width="1" height="1" fill="#C09473" />
<rect x="13" y="65" width="1" height="1" fill="#C09473" />
<rect x="14" y="65" width="1" height="1" fill="#C09473" />
<rect x="15" y="65" width="1" height="1" fill="#C09473" />
<rect x="16" y="65" width="1" height="1" fill="#75A743" />
<rect x="17" y="65" width="1" height="1" fill="#A8CA58" />
<rect x="18" y="65" width="1" height="1" fill="#A8CA58" />
<rect x="19" y="65" width="1" height="1" fill="#A8CA58" />
<rect x="20" y="65" width="1" height="1" fill="#A8CA58" />
<rect x="21" y="65" width="1" height="1" fill="#C7CFCC" />
<rect x="22" y="65" width="1" height="1" fill="#C7CFCC" />
<rect x="23" y="65" width="1" height="1" fill="#A8CA58" />
<rect x="24" y="65" width="1" height="1" fill="#A8CA58" />
<rect x="25" y="65" width="1" height="1" fill="#75A743" />
<rect x="26" y="65" width="1" height="1" fill="#C09473" />
<rect x="27" y="65" width="1" height="1" fill="#C09473" />
<rect x="28" y="65" width="1" height="1" fill="#C09473" />
<rect x="29" y="65" width="1" height="1" fill="#C09473" />
<rect x="30" y="65" width="1" height="1" fill="#C09473" />
<rect x="31" y="65" width="1" height="1" fill="#C09473" />
<rect x="32" y="65" width="1" height="1" fill="#C09473" />
<rect x="33" y="65" width="1" height="1" fill="#C09473" />
<rect x="34" y="65" width="1" height="1" fill="#C09473" />
<rect x="35" y="65" width="1" height="1" fill="#C09473" />
<rect x="36" y="65" width="1" height="1" fill="#C09473" />
<rect x="37" y="65" width="1" height="1" fill="#C09473" />
<rect x="38" y="65" width="1" height="1" fill="#C09473" />
<rect x="39" y="65" width="1" height="1" fill="#C09473" />
<rect x="40" y="65" width="1" height="1" fill="#AD7757" />
<rect x="41" y="65" width="1" height="1" fill="#7A4841" />
<rect x="7" y="66" width="1" height="1" fill="#7A4841" />
<rect x="8" y="66" width="1" height="1" fill="#AD7757" />
<rect x="9" y="66" width="1" height="1" fill="#C09473" />
<rect x="10" y="66" width="1" height="1" fill="#C09473" />
<rect x="11" y="66" width="1" height="1" fill="#C09473" />
<rect x="12" y="66" width="1" height="1" fill="#C09473" />
<rect x="13" y="66" width="1" height="1" fill="#C09473" />
<rect x="14" y="66" width="1" height="1" fill="#C09473" />
<rect x="15" y="66" width="1" height="1" fill="#C09473" />
<rect x="16" y="66" width="1" height="1" fill="#C09473" />
<rect x="17" y="66" width="1" height="1" fill="#75A743" />
<rect x="18" y="66" width="1" height="1" fill="#75A743" />
<rect x="19" y="66" width="1" height="1" fill="#A8CA58" />
<rect x="20" y="66" width="1" height="1" fill="#A8CA58" />
<rect x="21" y="66" width="1" height="1" fill="#A8CA58" />
<rect x="22" y="66" width="1" height="1" fill="#A8CA58" />
<rect x="23" y="66" width="1" height="1" fill="#75A743" />
<rect x="24" y="66" width="1" height="1" fill="#75A743" />
<rect x="25" y="66" width="1" height="1" fill="#C09473" />
<rect x="26" y="66" width="1" height="1" fill="#C09473" />
<rect x="27" y="66" width="1" height="1" fill="#C09473" />
<rect x="28" y="66" width="1" height="1" fill="#C09473" />
<rect x="29" y="66" width="1" height="1" fill="#C09473" />
<rect x="30" y="66" width="1" height="1" fill="#C09473" />
<rect x="31" y="66" width="1" height="1" fill="#DF84A5" />
<rect x="32" y="66" width="1" height="1" fill="#C09473" />
<rect x="33" y="66" width="1" height="1" fill="#C09473" />
<rect x="34" y="66" width="1" height="1" fill="#C09473" />
<rect x="35" y="66" width="1" height="1" fill="#C09473" />
<rect x="36" y="66" width="1" height="1" fill="#C09473" />
<rect x="37" y="66" width="1" height="1" fill="#C09473" />
<rect x="38" y="66" width="1" height="1" fill="#C09473" />
<rect x="39" y="66" width="1" height="1" fill="#AD7757" />
<rect x="40" y="66" width="1" height="1" fill="#7A4841" />
<rect x="41" y="66" width="1" height="1" fill="#4D2B32" />
<rect x="7" y="67" width="1" height="1" fill="#4D2B32" />
<rect x="8" y="67" width="1" height="1" fill="#7A4841" />
<rect x="9" y="67" width="1" height="1" fill="#AD7757" />
<rect x="10" y="67" width="1" height="1" fill="#AD7757" />
<rect x="11" y="67" width="1" height="1" fill="#C09473" />
<rect x="12" y="67" width="1" height="1" fill="#C09473" />
<rect x="13" y="67" width="1" height="1" fill="#C09473" />
<rect x="14" y="67" width="1" height="1" fill="#C09473" />
<rect x="15" y="67" width="1" height="1" fill="#C09473" />
<rect x="16" y="67" width="1" height="1" fill="#C09473" />
<rect x="17" y="67" width="1" height="1" fill="#C09473" />
<rect x="18" y="67" width="1" height="1" fill="#C09473" />
<rect x="19" y="67" width="1" height="1" fill="#75A743" />
<rect x="20" y="67" width="1" height="1" fill="#75A743" />
<rect x="21" y="67" width="1" height="1" fill="#A8CA58" />
<rect x="22" y="67" width="1" height="1" fill="#75A743" />
<rect x="23" y="67" width="1" height="1" fill="#C09473" />
<rect x="24" y="67" width="1" height="1" fill="#C09473" />
<rect x="25" y="67" width="1" height="1" fill="#C09473" />
<rect x="26" y="67" width="1" height="1" fill="#C09473" />
<rect x="27" y="67" width="1" height="1" fill="#C09473" />
<rect x="28" y="67" width="1" height="1" fill="#C09473" />
<rect x="29" y="67" width="1" height="1" fill="#C09473" />
<rect x="30" y="67" width="1" height="1" fill="#DE9E41" />
<rect x="31" y="67" width="1" height="1" fill="#E8C170" />
<rect x="32" y="67" width="1" height="1" fill="#C09473" />
<rect x="33" y="67" width="1" height="1" fill="#C09473" />
<rect x="34" y="67" width="1" height="1" fill="#C09473" />
<rect x="35" y="67" width="1" height="1" fill="#C09473" />
<rect x="36" y="67" width="1" height="1" fill="#C09473" />
<rect x="37" y="67" width="1" height="1" fill="#C09473" />
<rect x="38" y="67" width="1" height="1" fill="#AD7757" />
<rect x="39" y="67" width="1" height="1" fill="#7A4841" />
<rect x="40" y="67" width="1" height="1" fill="#4D2B32" />
<rect x="8" y="68" width="1" height="1" fill="#4D2B32" />
<rect x="9" y="68" width="1" height="1" fill="#7A4841" />
<rect x="10" y="68" width="1" height="1" fill="#7A4841" />
<rect x="11" y="68" width="1" height="1" fill="#AD7757" />
<rect x="12" y="68" width="1" height="1" fill="#C09473" />
<rect x="13" y="68" width="1" height="1" fill="#C09473" />
<rect x="14" y="68" width="1" height="1" fill="#C09473" />
<rect x="15" y="68" width="1" height="1" fill="#C09473" />
<rect x="16" y="68" width="1" height="1" fill="#C09473" />
<rect x="17" y="68" width="1" height="1" fill="#C09473" />
<rect x="18" y="68" width="1" height="1" fill="#C09473" />
<rect x="19" y="68" width="1" height="1" fill="#C09473" />
<rect x="20" y="68" width="1" height="1" fill="#C09473" />
<rect x="21" y="68" width="1" height="1" fill="#75A743" />
<rect x="22" y="68" width="1" height="1" fill="#C09473" />
<rect x="23" y="68" width="1" height="1" fill="#C09473" />
<rect x="24" y="68" width="1" height="1" fill="#C09473" />
<rect x="25" y="68" width="1" height="1" fill="#C09473" />
<rect x="26" y="68" width="1" height="1" fill="#C09473" />
<rect x="27" y="68" width="1" height="1" fill="#C09473" />
<rect x="28" y="68" width="1" height="1" fill="#DE9E41" />
<rect x="29" y="68" width="1" height="1" fill="#DE9E41" />
<rect x="30" y="68" width="1" height="1" fill="#E8C170" />
<rect x="31" y="68" width="1" height="1" fill="#C09473" />
<rect x="32" y="68" width="1" height="1" fill="#C09473" />
<rect x="33" y="68" width="1" height="1" fill="#C09473" />
<rect x="34" y="68" width="1" height="1" fill="#C09473" />
<rect x="35" y="68" width="1" height="1" fill="#C09473" />
<rect x="36" y="68" width="1" height="1" fill="#AD7757" />
<rect x="37" y="68" width="1" height="1" fill="#AD7757" />
<rect x="38" y="68" width="1" height="1" fill="#7A4841" />
<rect x="39" y="68" width="1" height="1" fill="#4D2B32" />
<rect x="40" y="68" width="1" height="1" fill="#819796" />
<rect x="8" y="69" width="1" height="1" fill="#A8B5B2" />
<rect x="9" y="69" width="1" height="1" fill="#4D2B32" />
<rect x="10" y="69" width="1" height="1" fill="#4D2B32" />
<rect x="11" y="69" width="1" height="1" fill="#7A4841" />
<rect x="12" y="69" width="1" height="1" fill="#AD7757" />
<rect x="13" y="69" width="1" height="1" fill="#AD7757" />
<rect x="14" y="69" width="1" height="1" fill="#C09473" />
<rect x="15" y="69" width="1" height="1" fill="#C09473" />
<rect x="16" y="69" width="1" height="1" fill="#C09473" />
<rect x="17" y="69" width="1" height="1" fill="#C09473" />
<rect x="18" y="69" width="1" height="1" fill="#C09473" />
<rect x="19" y="69" width="1" height="1" fill="#C09473" />
<rect x="20" y="69" width="1" height="1" fill="#C09473" />
<rect x="21" y="69" width="1" height="1" fill="#C09473" />
<rect x="22" y="69" width="1" height="1" fill="#C09473" />
<rect x="23" y="69" width="1" height="1" fill="#C09473" />
<rect x="24" y="69" width="1" height="1" fill="#C09473" />
<rect x="25" y="69" width="1" height="1" fill="#C09473" />
<rect x="26" y="69" width="1" height="1" fill="#C09473" />
<rect x="27" y="69" width="1" height="1" fill="#DE9E41" />
<rect x="28" y="69" width="1" height="1" fill="#E8C170" />
<rect x="29" y="69" width="1" height="1" fill="#E8C170" />
<rect x="30" y="69" width="1" height="1" fill="#C09473" />
<rect x="31" y="69" width="1" height="1" fill="#C09473" />
<rect x="32" y="69" width="1" height="1" fill="#C09473" />
<rect x="33" y="69" width="1" height="1" fill="#C09473" />
<rect x="34" y="69" width="1" height="1" fill="#AD7757" />
<rect x="35" y="69" width="1" height="1" fill="#AD7757" />
<rect x="36" y="69" width="1" height="1" fill="#7A4841" />
<rect x="37" y="69" width="1" height="1" fill="#7A4841" />
<rect x="38" y="69" width="1" height="1" fill="#4D2B32" />
<rect x="39" y="69" width="1" height="1" fill="#577277" />
<rect x="40" y="69" width="1" height="1" fill="#819796" />
<rect x="8" y="70" width="1" height="1" fill="#A8B5B2" />
<rect x="9" y="70" width="1" height="1" fill="#819796" />
<rect x="10" y="70" width="1" height="1" fill="#577277" />
<rect x="11" y="70" width="1" height="1" fill="#4D2B32" />
<rect x="12" y="70" width="1" height="1" fill="#7A4841" />
<rect x="13" y="70" width="1" height="1" fill="#7A4841" />
<rect x="14" y="70" width="1" height="1" fill="#AD7757" />
<rect x="15" y="70" width="1" height="1" fill="#C09473" />
<rect x="16" y="70" width="1" height="1" fill="#C09473" />
<rect x="17" y="70" width="1" height="1" fill="#C09473" />
<rect x="18" y="70" width="1" height="1" fill="#C09473" />
<rect x="19" y="70" width="1" height="1" fill="#C09473" />
<rect x="20" y="70" width="1" height="1" fill="#C09473" />
<rect x="21" y="70" width="1" height="1" fill="#C09473" />
<rect x="22" y="70" width="1" height="1" fill="#C09473" />
<rect x="23" y="70" width="1" height="1" fill="#C09473" />
<rect x="24" y="70" width="1" height="1" fill="#C09473" />
<rect x="25" y="70" width="1" height="1" fill="#C09473" />
<rect x="26" y="70" width="1" height="1" fill="#151D28" />
<rect x="27" y="70" width="1" height="1" fill="#E8C170" />
<rect x="28" y="70" width="1" height="1" fill="#C09473" />
<rect x="29" y="70" width="1" height="1" fill="#C09473" />
<rect x="30" y="70" width="1" height="1" fill="#C09473" />
<rect x="31" y="70" width="1" height="1" fill="#C09473" />
<rect x="32" y="70" width="1" height="1" fill="#C09473" />
<rect x="33" y="70" width="1" height="1" fill="#AD7757" />
<rect x="34" y="70" width="1" height="1" fill="#7A4841" />
<rect x="35" y="70" width="1" height="1" fill="#7A4841" />
<rect x="36" y="70" width="1" height="1" fill="#4D2B32" />
<rect x="37" y="70" width="1" height="1" fill="#4D2B32" />
<rect x="38" y="70" width="1" height="1" fill="#394A50" />
<rect x="39" y="70" width="1" height="1" fill="#577277" />
<rect x="40" y="70" width="1" height="1" fill="#819796" />
<rect x="8" y="71" width="1" height="1" fill="#A8B5B2" />
<rect x="9" y="71" width="1" height="1" fill="#819796" />
<rect x="10" y="71" width="1" height="1" fill="#577277" />
<rect x="12" y="71" width="1" height="1" fill="#4D2B32" />
<rect x="13" y="71" width="1" height="1" fill="#4D2B32" />
<rect x="14" y="71" width="1" height="1" fill="#7A4841" />
<rect x="15" y="71" width="1" height="1" fill="#AD7757" />
<rect x="16" y="71" width="1" height="1" fill="#AD7757" />
<rect x="17" y="71" width="1" height="1" fill="#C09473" />
<rect x="18" y="71" width="1" height="1" fill="#C09473" />
<rect x="19" y="71" width="1" height="1" fill="#C09473" />
<rect x="20" y="71" width="1" height="1" fill="#C09473" />
<rect x="21" y="71" width="1" height="1" fill="#C09473" />
<rect x="22" y="71" width="1" height="1" fill="#C09473" />
<rect x="23" y="71" width="1" height="1" fill="#C09473" />
<rect x="24" y="71" width="1" height="1" fill="#C09473" />
<rect x="25" y="71" width="1" height="1" fill="#C09473" />
<rect x="26" y="71" width="1" height="1" fill="#C09473" />
<rect x="27" y="71" width="1" height="1" fill="#C09473" />
<rect x="28" y="71" width="1" height="1" fill="#C09473" />
<rect x="29" y="71" width="1" height="1" fill="#C09473" />
<rect x="30" y="71" width="1" height="1" fill="#C09473" />
<rect x="31" y="71" width="1" height="1" fill="#AD7757" />
<rect x="32" y="71" width="1" height="1" fill="#AD7757" />
<rect x="33" y="71" width="1" height="1" fill="#7A4841" />
<rect x="34" y="71" width="1" height="1" fill="#7A4841" />
<rect x="35" y="71" width="1" height="1" fill="#4D2B32" />
<rect x="37" y="71" width="1" height="1" fill="#151D28" />
<rect x="38" y="71" width="1" height="1" fill="#394A50" />
<rect x="39" y="71" width="1" height="1" fill="#577277" />
<rect x="40" y="71" width="1" height="1" fill="#819796" />
<rect x="8" y="72" width="1" height="1" fill="#A8B5B2" />
<rect x="9" y="72" width="1" height="1" fill="#819796" />
<rect x="10" y="72" width="1" height="1" fill="#577277" />
<rect x="12" y="72" width="1" height="1" fill="#151D28" />
<rect x="14" y="72" width="1" height="1" fill="#4D2B32" />
<rect x="15" y="72" width="1" height="1" fill="#7A4841" />
<rect x="16" y="72" width="1" height="1" fill="#7A4841" />
<rect x="17" y="72" width="1" height="1" fill="#AD7757" />
<rect x="18" y="72" width="1" height="1" fill="#C09473" />
<rect x="19" y="72" width="1" height="1" fill="#C09473" />
<rect x="20" y="72" width="1" height="1" fill="#C09473" />
<rect x="21" y="72" width="1" height="1" fill="#C09473" />
<rect x="22" y="72" width="1" height="1" fill="#C09473" />
<rect x="23" y="72" width="1" height="1" fill="#C09473" />
<rect x="24" y="72" width="1" height="1" fill="#C09473" />
<rect x="25" y="72" width="1" height="1" fill="#C09473" />
<rect x="26" y="72" width="1" height="1" fill="#C09473" />
<rect x="27" y="72" width="1" height="1" fill="#C09473" />
<rect x="28" y="72" width="1" height="1" fill="#C09473" />
<rect x="29" y="72" width="1" height="1" fill="#C09473" />
<rect x="30" y="72" width="1" height="1" fill="#AD7757" />
<rect x="31" y="72" width="1" height="1" fill="#7A4841" />
<rect x="32" y="72" width="1" height="1" fill="#7A4841" />
<rect x="33" y="72" width="1" height="1" fill="#4D2B32" />
<rect x="34" y="72" width="1" height="1" fill="#4D2B32" />
<rect x="37" y="72" width="1" height="1" fill="#151D28" />
<rect x="38" y="72" width="1" height="1" fill="#394A50" />
<rect x="39" y="72" width="1" height="1" fill="#577277" />
<rect x="40" y="72" width="1" height="1" fill="#819796" />
<rect x="8" y="73" width="1" height="1" fill="#A8B5B2" />
<rect x="9" y="73" width="1" height="1" fill="#819796" />
<rect x="10" y="73" width="1" height="1" fill="#577277" />
<rect x="11" y="73" width="1" height="1" fill="#151D28" />
<rect x="14" y="73" width="1" height="1" fill="#819796" />
<rect x="15" y="73" width="1" height="1" fill="#4D2B32" />
<rect x="16" y="73" width="1" height="1" fill="#4D2B32" />
<rect x="17" y="73" width="1" height="1" fill="#7A4841" />
<rect x="18" y="73" width="1" height="1" fill="#AD7757" />
<rect x="19" y="73" width="1" height="1" fill="#AD7757" />
<rect x="20" y="73" width="1" height="1" fill="#C09473" />
<rect x="21" y="73" width="1" height="1" fill="#C09473" />
<rect x="22" y="73" width="1" height="1" fill="#C09473" />
<rect x="23" y="73" width="1" height="1" fill="#C09473" />
<rect x="24" y="73" width="1" height="1" fill="#C09473" />
<rect x="25" y="73" width="1" height="1" fill="#C09473" />
<rect x="26" y="73" width="1" height="1" fill="#C09473" />
<rect x="27" y="73" width="1" height="1" fill="#C09473" />
<rect x="28" y="73" width="1" height="1" fill="#AD7757" />
<rect x="29" y="73" width="1" height="1" fill="#AD7757" />
<rect x="30" y="73" width="1" height="1" fill="#7A4841" />
<rect x="31" y="73" width="1" height="1" fill="#4D2B32" />
<rect x="32" y="73" width="1" height="1" fill="#4D2B32" />
<rect x="33" y="73" width="1" height="1" fill="#819796" />
<rect x="35" y="73" width="1" height="1" fill="#151D28" />
<rect x="36" y="73" width="1" height="1" fill="#151D28" />
<rect x="37" y="73" width="1" height="1" fill="#202E37" />
<rect x="38" y="73" width="1" height="1" fill="#394A50" />
<rect x="39" y="73" width="1" height="1" fill="#577277" />
<rect x="40" y="73" width="1" height="1" fill="#819796" />
<rect x="8" y="74" width="1" height="1" fill="#A8B5B2" />
<rect x="9" y="74" width="1" height="1" fill="#819796" />
<rect x="10" y="74" width="1" height="1" fill="#577277" />
<rect x="11" y="74" width="1" height="1" fill="#202E37" />
<rect x="12" y="74" width="1" height="1" fill="#151D28" />
<rect x="13" y="74" width="1" height="1" fill="#151D28" />
<rect x="14" y="74" width="1" height="1" fill="#7A4841" opacity="0.996078" />
<rect x="15" y="74" width="1" height="1" fill="#7A4841" opacity="0.996078" />
<rect x="16" y="74" width="1" height="1" fill="#7A4841" opacity="0.996078" />
<rect x="17" y="74" width="1" height="1" fill="#4D2B32" />
<rect x="18" y="74" width="1" height="1" fill="#7A4841" />
<rect x="19" y="74" width="1" height="1" fill="#7A4841" />
<rect x="20" y="74" width="1" height="1" fill="#AD7757" />
<rect x="21" y="74" width="1" height="1" fill="#AD7757" />
<rect x="22" y="74" width="1" height="1" fill="#C09473" />
<rect x="23" y="74" width="1" height="1" fill="#C09473" />
<rect x="24" y="74" width="1" height="1" fill="#C09473" />
<rect x="25" y="74" width="1" height="1" fill="#C09473" />
<rect x="26" y="74" width="1" height="1" fill="#AD7757" />
<rect x="27" y="74" width="1" height="1" fill="#AD7757" />
<rect x="28" y="74" width="1" height="1" fill="#7A4841" />
<rect x="29" y="74" width="1" height="1" fill="#7A4841" />
<rect x="30" y="74" width="1" height="1" fill="#4D2B32" />
<rect x="31" y="74" width="1" height="1" fill="#7A4841" opacity="0.996078" />
<rect x="32" y="74" width="1" height="1" fill="#7A4841" opacity="0.996078" />
<rect x="33" y="74" width="1" height="1" fill="#7A4841" opacity="0.996078" />
<rect x="34" y="74" width="1" height="1" fill="#151D28" />
<rect x="35" y="74" width="1" height="1" fill="#202E37" />
<rect x="36" y="74" width="1" height="1" fill="#202E37" />
<rect x="37" y="74" width="1" height="1" fill="#151D28" />
<rect x="38" y="74" width="1" height="1" fill="#394A50" />
<rect x="39" y="74" width="1" height="1" fill="#577277" />
<rect x="40" y="74" width="1" height="1" fill="#819796" />
<rect x="8" y="75" width="1" height="1" fill="#A8B5B2" />
<rect x="9" y="75" width="1" height="1" fill="#819796" />
<rect x="10" y="75" width="1" height="1" fill="#577277" />
<rect x="11" y="75" width="1" height="1" fill="#151D28" />
<rect x="12" y="75" width="1" height="1" fill="#202E37" />
<rect x="13" y="75" width="1" height="1" fill="#202E37" />
<rect x="14" y="75" width="1" height="1" fill="#151D28" />
<rect x="15" y="75" width="1" height="1" fill="#7A4841" opacity="0.996078" />
<rect x="16" y="75" width="1" height="1" fill="#7A4841" opacity="0.996078" />
<rect x="17" y="75" width="1" height="1" fill="#819796" />
<rect x="18" y="75" width="1" height="1" fill="#4D2B32" />
<rect x="19" y="75" width="1" height="1" fill="#4D2B32" />
<rect x="20" y="75" width="1" height="1" fill="#7A4841" />
<rect x="21" y="75" width="1" height="1" fill="#7A4841" />
<rect x="22" y="75" width="1" height="1" fill="#AD7757" />
<rect x="23" y="75" width="1" height="1" fill="#AD7757" />
<rect x="24" y="75" width="1" height="1" fill="#AD7757" />
<rect x="25" y="75" width="1" height="1" fill="#AD7757" />
<rect x="26" y="75" width="1" height="1" fill="#7A4841" />
<rect x="27" y="75" width="1" height="1" fill="#7A4841" />
<rect x="28" y="75" width="1" height="1" fill="#4D2B32" />
<rect x="29" y="75" width="1" height="1" fill="#4D2B32" />
<rect x="30" y="75" width="1" height="1" fill="#819796" />
<rect x="31" y="75" width="1" height="1" fill="#7A4841" opacity="0.996078" />
<rect x="32" y="75" width="1" height="1" fill="#151D28" />
<rect x="33" y="75" width="1" height="1" fill="#151D28" />
<rect x="34" y="75" width="1" height="1" fill="#202E37" />
<rect x="35" y="75" width="1" height="1" fill="#151D28" />
<rect x="36" y="75" width="1" height="1" fill="#151D28" />
<rect x="38" y="75" width="1" height="1" fill="#394A50" />
<rect x="39" y="75" width="1" height="1" fill="#577277" />
<rect x="40" y="75" width="1" height="1" fill="#819796" />
<rect x="8" y="76" width="1" height="1" fill="#A8B5B2" />
<rect x="9" y="76" width="1" height="1" fill="#819796" />
<rect x="10" y="76" width="1" height="1" fill="#577277" />
<rect x="11" y="76" width="1" height="1" fill="#7A4841" opacity="0.996078" />
<rect x="12" y="76" width="1" height="1" fill="#151D28" />
<rect x="13" y="76" width="1" height="1" fill="#151D28" />
<rect x="14" y="76" width="1" height="1" fill="#202E37" />
<rect x="15" y="76" width="1" height="1" fill="#151D28" />
<rect x="16" y="76" width="1" height="1" fill="#151D28" />
<rect x="17" y="76" width="1" height="1" fill="#7A4841" opacity="0.996078" />
<rect x="18" y="76" width="1" height="1" fill="#7A4841" opacity="0.996078" />
<rect x="19" y="76" width="1" height="1" fill="#7A4841" opacity="0.996078" />
<rect x="20" y="76" width="1" height="1" fill="#4D2B32" />
<rect x="21" y="76" width="1" height="1" fill="#4D2B32" />
<rect x="22" y="76" width="1" height="1" fill="#7A4841" />
<rect x="23" y="76" width="1" height="1" fill="#7A4841" />
<rect x="24" y="76" width="1" height="1" fill="#7A4841" />
<rect x="25" y="76" width="1" height="1" fill="#7A4841" />
<rect x="26" y="76" width="1" height="1" fill="#4D2B32" />
<rect x="27" y="76" width="1" height="1" fill="#4D2B32" />
<rect x="28" y="76" width="1" height="1" fill="#7A4841" opacity="0.996078" />
<rect x="29" y="76" width="1" height="1" fill="#7A4841" opacity="0.996078" />
<rect x="30" y="76" width="1" height="1" fill="#7A4841" opacity="0.996078" />
<rect x="31" y="76" width="1" height="1" fill="#151D28" />
<rect x="32" y="76" width="1" height="1" fill="#202E37" />
<rect x="33" y="76" width="1" height="1" fill="#202E37" />
<rect x="34" y="76" width="1" height="1" fill="#151D28" />
<rect x="35" y="76" width="1" height="1" fill="#7A4841" opacity="0.996078" />
<rect x="36" y="76" width="1" height="1" fill="#7A4841" opacity="0.996078" />
<rect x="37" y="76" width="1" height="1" fill="#7A4841" opacity="0.996078" />
<rect x="38" y="76" width="1" height="1" fill="#394A50" />
<rect x="39" y="76" width="1" height="1" fill="#577277" />
<rect x="40" y="76" width="1" height="1" fill="#819796" />
<rect x="8" y="77" width="1" height="1" fill="#A8B5B2" />
<rect x="9" y="77" width="1" height="1" fill="#819796" />
<rect x="10" y="77" width="1" height="1" fill="#577277" />
<rect x="11" y="77" width="1" height="1" fill="#7A4841" opacity="0.996078" />
<rect x="12" y="77" width="1" height="1" fill="#7A4841" opacity="0.996078" />
<rect x="13" y="77" width="1" height="1" fill="#7A4841" opacity="0.996078" />
<rect x="14" y="77" width="1" height="1" fill="#151D28" />
<rect x="15" y="77" width="1" height="1" fill="#202E37" />
<rect x="16" y="77" width="1" height="1" fill="#202E37" />
<rect x="17" y="77" width="1" height="1" fill="#151D28" />
<rect x="18" y="77" width="1" height="1" fill="#151D28" />
<rect x="19" y="77" width="1" height="1" fill="#7A4841" opacity="0.996078" />
<rect x="20" y="77" width="1" height="1" fill="#819796" />
<rect x="21" y="77" width="1" height="1" fill="#4D2B32" />
<rect x="22" y="77" width="1" height="1" fill="#4D2B32" />
<rect x="23" y="77" width="1" height="1" fill="#4D2B32" />
<rect x="24" y="77" width="1" height="1" fill="#4D2B32" />
<rect x="25" y="77" width="1" height="1" fill="#4D2B32" />
<rect x="26" y="77" width="1" height="1" fill="#4D2B32" />
<rect x="27" y="77" width="1" height="1" fill="#819796" />
<rect x="28" y="77" width="1" height="1" fill="#7A4841" opacity="0.996078" />
<rect x="29" y="77" width="1" height="1" fill="#7A4841" opacity="0.996078" />
<rect x="30" y="77" width="1" height="1" fill="#151D28" />
<rect x="31" y="77" width="1" height="1" fill="#202E37" />
<rect x="32" y="77" width="1" height="1" fill="#151D28" />
<rect x="33" y="77" width="1" height="1" fill="#151D28" />
<rect x="34" y="77" width="1" height="1" fill="#7A4841" opacity="0.996078" />
<rect x="35" y="77" width="1" height="1" fill="#7A4841" opacity="0.996078" />
<rect x="36" y="77" width="1" height="1" fill="#7A4841" opacity="0.996078" />
<rect x="37" y="77" width="1" height="1" fill="#7A4841" opacity="0.996078" />
<rect x="38" y="77" width="1" height="1" fill="#394A50" />
<rect x="39" y="77" width="1" height="1" fill="#577277" />
<rect x="40" y="77" width="1" height="1" fill="#819796" />
<rect x="8" y="78" width="1" height="1" fill="#A8B5B2" />
<rect x="9" y="78" width="1" height="1" fill="#819796" />
<rect x="10" y="78" width="1" height="1" fill="#577277" />
<rect x="11" y="78" width="1" height="1" fill="#7A4841" opacity="0.996078" />
<rect x="12" y="78" width="1" height="1" fill="#7A4841" opacity="0.996078" />
<rect x="13" y="78" width="1" height="1" fill="#7A4841" opacity="0.996078" />
<rect x="14" y="78" width="1" height="1" fill="#7A4841" opacity="0.996078" />
<rect x="15" y="78" width="1" height="1" fill="#151D28" />
<rect x="16" y="78" width="1" height="1" fill="#151D28" />
<rect x="17" y="78" width="1" height="1" fill="#202E37" />
<rect x="18" y="78" width="1" height="1" fill="#202E37" />
<rect x="19" y="78" width="1" height="1" fill="#151D28" />
<rect x="20" y="78" width="1" height="1" fill="#7A4841" opacity="0.996078" />
<rect x="21" y="78" width="1" height="1" fill="#7A4841" opacity="0.996078" />
<rect x="22" y="78" width="1" height="1" fill="#7A4841" opacity="0.996078" />
<rect x="23" y="78" width="1" height="1" fill="#C7CFCC" />
<rect x="24" y="78" width="1" height="1" fill="#A8B5B2" />
<rect x="25" y="78" width="1" height="1" fill="#819796" />
<rect x="26" y="78" width="1" height="1" fill="#577277" />
<rect x="27" y="78" width="1" height="1" fill="#7A4841" opacity="0.996078" />
<rect x="28" y="78" width="1" height="1" fill="#151D28" />
<rect x="29" y="78" width="1" height="1" fill="#151D28" />
<rect x="30" y="78" width="1" height="1" fill="#202E37" />
<rect x="31" y="78" width="1" height="1" fill="#151D28" />
<rect x="32" y="78" width="1" height="1" fill="#7A4841" opacity="0.996078" />
<rect x="33" y="78" width="1" height="1" fill="#7A4841" opacity="0.996078" />
<rect x="34" y="78" width="1" height="1" fill="#7A4841" opacity="0.996078" />
<rect x="35" y="78" width="1" height="1" fill="#7A4841" opacity="0.996078" />
<rect x="36" y="78" width="1" height="1" fill="#7A4841" opacity="0.996078" />
<rect x="37" y="78" width="1" height="1" fill="#7A4841" opacity="0.996078" />
<rect x="38" y="78" width="1" height="1" fill="#394A50" />
<rect x="39" y="78" width="1" height="1" fill="#577277" />
<rect x="40" y="78" width="1" height="1" fill="#819796" />
<rect x="9" y="79" width="1" height="1" fill="#819796" />
<rect x="10" y="79" width="1" height="1" fill="#577277" />
<rect x="11" y="79" width="1" height="1" fill="#7A4841" opacity="0.996078" />
<rect x="12" y="79" width="1" height="1" fill="#7A4841" opacity="0.996078" />
<rect x="13" y="79" width="1" height="1" fill="#7A4841" opacity="0.996078" />
<rect x="14" y="79" width="1" height="1" fill="#7A4841" opacity="0.996078" />
<rect x="15" y="79" width="1" height="1" fill="#7A4841" opacity="0.996078" />
<rect x="16" y="79" width="1" height="1" fill="#7A4841" opacity="0.996078" />
<rect x="17" y="79" width="1" height="1" fill="#151D28" />
<rect x="18" y="79" width="1" height="1" fill="#151D28" />
<rect x="19" y="79" width="1" height="1" fill="#202E37" />
<rect x="20" y="79" width="1" height="1" fill="#151D28" />
<rect x="21" y="79" width="1" height="1" fill="#151D28" />
<rect x="22" y="79" width="1" height="1" fill="#819796" />
<rect x="23" y="79" width="1" height="1" fill="#C7CFCC" />
<rect x="24" y="79" width="1" height="1" fill="#A8B5B2" />
<rect x="25" y="79" width="1" height="1" fill="#819796" />
<rect x="26" y="79" width="1" height="1" fill="#577277" />
<rect x="27" y="79" width="1" height="1" fill="#151D28" />
<rect x="28" y="79" width="1" height="1" fill="#202E37" />
<rect x="29" y="79" width="1" height="1" fill="#202E37" />
<rect x="30" y="79" width="1" height="1" fill="#151D28" />
<rect x="31" y="79" width="1" height="1" fill="#7A4841" opacity="0.996078" />
<rect x="32" y="79" width="1" height="1" fill="#7A4841" opacity="0.996078" />
<rect x="33" y="79" width="1" height="1" fill="#7A4841" opacity="0.996078" />
<rect x="34" y="79" width="1" height="1" fill="#7A4841" opacity="0.996078" />
<rect x="35" y="79" width="1" height="1" fill="#7A4841" opacity="0.996078" />
<rect x="36" y="79" width="1" height="1" fill="#7B4942" opacity="0.996078" />
<rect x="38" y="79" width="1" height="1" fill="#394A50" />
<rect x="39" y="79" width="1" height="1" fill="#577277" />
<rect x="40" y="79" width="1" height="1" fill="#819796" />
<rect x="12" y="80" width="1" height="1" fill="#7A4841" opacity="0.996078" />
<rect x="13" y="80" width="1" height="1" fill="#7A4841" opacity="0.996078" />
<rect x="14" y="80" width="1" height="1" fill="#7A4841" opacity="0.996078" />
<rect x="15" y="80" width="1" height="1" fill="#7A4841" opacity="0.996078" />
<rect x="16" y="80" width="1" height="1" fill="#7A4841" opacity="0.996078" />
<rect x="17" y="80" width="1" height="1" fill="#7A4841" opacity="0.996078" />
<rect x="18" y="80" width="1" height="1" fill="#7A4841" opacity="0.996078" />
<rect x="19" y="80" width="1" height="1" fill="#151D28" />
<rect x="20" y="80" width="1" height="1" fill="#202E37" />
<rect x="21" y="80" width="1" height="1" fill="#202E37" />
<rect x="22" y="80" width="1" height="1" fill="#151D28" />
<rect x="23" y="80" width="1" height="1" fill="#C7CFCC" />
<rect x="24" y="80" width="1" height="1" fill="#A8B5B2" />
<rect x="25" y="80" width="1" height="1" fill="#819796" />
<rect x="26" y="80" width="1" height="1" fill="#577277" />
<rect x="27" y="80" width="1" height="1" fill="#202E37" />
<rect x="28" y="80" width="1" height="1" fill="#151D28" />
<rect x="29" y="80" width="1" height="1" fill="#151D28" />
<rect x="30" y="80" width="1" height="1" fill="#7A4841" opacity="0.996078" />
<rect x="31" y="80" width="1" height="1" fill="#7A4841" opacity="0.996078" />
<rect x="32" y="80" width="1" height="1" fill="#7A4841" opacity="0.996078" />
<rect x="33" y="80" width="1" height="1" fill="#7A4841" opacity="0.996078" />
<rect x="34" y="80" width="1" height="1" fill="#7A4841" opacity="0.996078" />
<rect x="38" y="80" width="1" height="1" fill="#394A50" />
<rect x="39" y="80" width="1" height="1" fill="#577277" />
<rect x="13" y="81" width="1" height="1" fill="#7A4841" opacity="0.996078" />
<rect x="14" y="81" width="1" height="1" fill="#7A4841" opacity="0.996078" />
<rect x="15" y="81" width="1" height="1" fill="#7A4841" opacity="0.996078" />
<rect x="16" y="81" width="1" height="1" fill="#7A4841" opacity="0.996078" />
<rect x="17" y="81" width="1" height="1" fill="#7A4841" opacity="0.996078" />
<rect x="18" y="81" width="1" height="1" fill="#7A4841" opacity="0.996078" />
<rect x="19" y="81" width="1" height="1" fill="#7A4841" opacity="0.996078" />
<rect x="20" y="81" width="1" height="1" fill="#151D28" />
<rect x="21" y="81" width="1" height="1" fill="#151D28" />
<rect x="22" y="81" width="1" height="1" fill="#202E37" />
<rect x="23" y="81" width="1" height="1" fill="#C7CFCC" />
<rect x="24" y="81" width="1" height="1" fill="#A8B5B2" />
<rect x="25" y="81" width="1" height="1" fill="#819796" />
<rect x="26" y="81" width="1" height="1" fill="#577277" />
<rect x="27" y="81" width="1" height="1" fill="#151D28" />
<rect x="28" y="81" width="1" height="1" fill="#7A4841" opacity="0.996078" />
<rect x="29" y="81" width="1" height="1" fill="#7A4841" opacity="0.996078" />
<rect x="30" y="81" width="1" height="1" fill="#7A4841" opacity="0.996078" />
<rect x="31" y="81" width="1" height="1" fill="#7A4841" opacity="0.996078" />
<rect x="32" y="81" width="1" height="1" fill="#7A4841" opacity="0.996078" />
<rect x="15" y="82" width="1" height="1" fill="#7A4841" opacity="0.996078" />
<rect x="16" y="82" width="1" height="1" fill="#7A4841" opacity="0.996078" />
<rect x="17" y="82" width="1" height="1" fill="#7A4841" opacity="0.996078" />
<rect x="18" y="82" width="1" height="1" fill="#7A4841" opacity="0.996078" />
<rect x="19" y="82" width="1" height="1" fill="#7A4841" opacity="0.996078" />
<rect x="20" y="82" width="1" height="1" fill="#7A4841" opacity="0.996078" />
<rect x="21" y="82" width="1" height="1" fill="#7A4841" opacity="0.996078" />
<rect x="22" y="82" width="1" height="1" fill="#151D28" />
<rect x="23" y="82" width="1" height="1" fill="#C7CFCC" />
<rect x="24" y="82" width="1" height="1" fill="#A8B5B2" />
<rect x="25" y="82" width="1" height="1" fill="#819796" />
<rect x="26" y="82" width="1" height="1" fill="#577277" />
<rect x="27" y="82" width="1" height="1" fill="#7A4841" opacity="0.996078" />
<rect x="28" y="82" width="1" height="1" fill="#7A4841" opacity="0.996078" />
<rect x="29" y="82" width="1" height="1" fill="#7A4841" opacity="0.996078" />
<rect x="30" y="82" width="1" height="1" fill="#7A4841" opacity="0.996078" />
<rect x="31" y="82" width="1" height="1" fill="#7A4841" opacity="0.996078" />
<rect x="17" y="83" width="1" height="1" fill="#7A4841" opacity="0.996078" />
<rect x="18" y="83" width="1" height="1" fill="#7A4841" opacity="0.996078" />
<rect x="19" y="83" width="1" height="1" fill="#7A4841" opacity="0.996078" />
<rect x="20" y="83" width="1" height="1" fill="#7A4841" opacity="0.996078" />
<rect x="21" y="83" width="1" height="1" fill="#7A4841" opacity="0.996078" />
<rect x="22" y="83" width="1" height="1" fill="#7A4841" opacity="0.996078" />
<rect x="23" y="83" width="1" height="1" fill="#C7CFCC" />
<rect x="24" y="83" width="1" height="1" fill="#A8B5B2" />
<rect x="25" y="83" width="1" height="1" fill="#819796" />
<rect x="26" y="83" width="1" height="1" fill="#577277" />
<rect x="27" y="83" width="1" height="1" fill="#7A4841" opacity="0.996078" />
<rect x="28" y="83" width="1" height="1" fill="#7A4841" opacity="0.996078" />
<rect x="29" y="83" width="1" height="1" fill="#7A4841" opacity="0.996078" />
<rect x="18" y="84" width="1" height="1" fill="#7A4841" opacity="0.996078" />
<rect x="19" y="84" width="1" height="1" fill="#7A4841" opacity="0.996078" />
<rect x="20" y="84" width="1" height="1" fill="#7A4841" opacity="0.996078" />
<rect x="21" y="84" width="1" height="1" fill="#7A4841" opacity="0.996078" />
<rect x="22" y="84" width="1" height="1" fill="#7A4841" opacity="0.996078" />
<rect x="23" y="84" width="1" height="1" fill="#C7CFCC" />
<rect x="24" y="84" width="1" height="1" fill="#A8B5B2" />
<rect x="25" y="84" width="1" height="1" fill="#819796" />
<rect x="26" y="84" width="1" height="1" fill="#577277" />
<rect x="27" y="84" width="1" height="1" fill="#7A4841" opacity="0.996078" />
<rect x="28" y="84" width="1" height="1" fill="#7A4841" opacity="0.996078" />
<rect x="20" y="85" width="1" height="1" fill="#7A4841" opacity="0.996078" />
<rect x="21" y="85" width="1" height="1" fill="#7A4841" opacity="0.996078" />
<rect x="22" y="85" width="1" height="1" fill="#7A4841" opacity="0.996078" />
<rect x="23" y="85" width="1" height="1" fill="#C7CFCC" />
<rect x="24" y="85" width="1" height="1" fill="#A8B5B2" />
<rect x="25" y="85" width="1" height="1" fill="#819796" />
<rect x="26" y="85" width="1" height="1" fill="#577277" />
<rect x="21" y="86" width="1" height="1" fill="#7A4841" opacity="0.996078" />
<rect x="22" y="86" width="1" height="1" fill="#7A4841" opacity="0.996078" />
<rect x="23" y="86" width="1" height="1" fill="#C7CFCC" />
<rect x="24" y="86" width="1" height="1" fill="#A8B5B2" />
<rect x="25" y="86" width="1" height="1" fill="#819796" />
<rect x="26" y="86" width="1" height="1" fill="#577277" />
<rect x="23" y="87" width="1" height="1" fill="#C7CFCC" />
<rect x="24" y="87" width="1" height="1" fill="#A8B5B2" />
<rect x="25" y="87" width="1" height="1" fill="#819796" />
<rect x="26" y="87" width="1" height="1" fill="#577277" />
<rect x="24" y="88" width="1" height="1" fill="#A8B5B2" />
<rect x="25" y="88" width="1" height="1" fill="#819796" />
</svg>