<?xml version="1.0" encoding="UTF-8" ?>
<svg version="1.1" width="144" height="144" xmlns="http://www.w3.org/2000/svg" shape-rendering="crispEdges">
<rect x="120" y="56" width="1" height="1" fill="#7A4841" />
<rect x="121" y="56" width="1" height="1" fill="#7A4841" />
<rect x="122" y="56" width="1" height="1" fill="#7A4841" />
<rect x="123" y="56" width="1" height="1" fill="#7A4841" />
<rect x="124" y="56" width="1" height="1" fill="#7A4841" />
<rect x="119" y="57" width="1" height="1" fill="#7A4841" />
<rect x="120" y="57" width="1" height="1" fill="#C09473" />
<rect x="121" y="57" width="1" height="1" fill="#C09473" />
<rect x="122" y="57" width="1" height="1" fill="#C09473" />
<rect x="123" y="57" width="1" height="1" fill="#C09473" />
<rect x="124" y="57" width="1" height="1" fill="#C09473" />
<rect x="125" y="57" width="1" height="1" fill="#7A4841" />
<rect x="126" y="57" width="1" height="1" fill="#7A4841" />
<rect x="117" y="58" width="1" height="1" fill="#7A4841" />
<rect x="118" y="58" width="1" height="1" fill="#7A4841" />
<rect x="119" y="58" width="1" height="1" fill="#C09473" />
<rect x="120" y="58" width="1" height="1" fill="#C09473" />
<rect x="121" y="58" width="1" height="1" fill="#C09473" />
<rect x="122" y="58" width="1" height="1" fill="#C09473" />
<rect x="123" y="58" width="1" height="1" fill="#C09473" />
<rect x="124" y="58" width="1" height="1" fill="#C09473" />
<rect x="125" y="58" width="1" height="1" fill="#C09473" />
<rect x="126" y="58" width="1" height="1" fill="#C09473" />
<rect x="127" y="58" width="1" height="1" fill="#7A4841" />
<rect x="116" y="59" width="1" height="1" fill="#7A4841" />
<rect x="117" y="59" width="1" height="1" fill="#C09473" />
<rect x="118" y="59" width="1" height="1" fill="#C09473" />
<rect x="119" y="59" width="1" height="1" fill="#C09473" />
<rect x="120" y="59" width="1" height="1" fill="#C09473" />
<rect x="121" y="59" width="1" height="1" fill="#C09473" />
<rect x="122" y="59" width="1" height="1" fill="#C09473" />
<rect x="123" y="59" width="1" height="1" fill="#C09473" />
<rect x="124" y="59" width="1" height="1" fill="#C09473" />
<rect x="125" y="59" width="1" height="1" fill="#C09473" />
<rect x="126" y="59" width="1" height="1" fill="#C09473" />
<rect x="127" y="59" width="1" height="1" fill="#C09473" />
<rect x="128" y="59" width="1" height="1" fill="#7A4841" />
<rect x="129" y="59" width="1" height="1" fill="#7A4841" />
<rect x="114" y="60" width="1" height="1" fill="#7A4841" />
<rect x="115" y="60" width="1" height="1" fill="#7A4841" />
<rect x="116" y="60" width="1" height="1" fill="#C09473" />
<rect x="117" y="60" width="1" height="1" fill="#C09473" />
<rect x="118" y="60" width="1" height="1" fill="#C09473" />
<rect x="119" y="60" width="1" height="1" fill="#C09473" />
<rect x="120" y="60" width="1" height="1" fill="#25562E" />
<rect x="121" y="60" width="1" height="1" fill="#25562E" />
<rect x="122" y="60" width="1" height="1" fill="#C09473" />
<rect x="123" y="60" width="1" height="1" fill="#C09473" />
<rect x="124" y="60" width="1" height="1" fill="#C09473" />
<rect x="125" y="60" width="1" height="1" fill="#C09473" />
<rect x="126" y="60" width="1" height="1" fill="#C09473" />
<rect x="127" y="60" width="1" height="1" fill="#C09473" />
<rect x="128" y="60" width="1" height="1" fill="#C09473" />
<rect x="129" y="60" width="1" height="1" fill="#C09473" />
<rect x="130" y="60" width="1" height="1" fill="#7A4841" />
<rect x="131" y="60" width="1" height="1" fill="#7A4841" />
<rect x="113" y="61" width="1" height="1" fill="#7A4841" />
<rect x="114" y="61" width="1" height="1" fill="#C09473" />
<rect x="115" y="61" width="1" height="1" fill="#C09473" />
<rect x="116" y="61" width="1" height="1" fill="#C09473" />
<rect x="117" y="61" width="1" height="1" fill="#C09473" />
<rect x="118" y="61" width="1" height="1" fill="#25562E" />
<rect x="119" y="61" width="1" height="1" fill="#25562E" />
<rect x="120" y="61" width="1" height="1" fill="#468232" />
<rect x="121" y="61" width="1" height="1" fill="#468232" />
<rect x="122" y="61" width="1" height="1" fill="#25562E" />
<rect x="123" y="61" width="1" height="1" fill="#25562E" />
<rect x="124" y="61" width="1" height="1" fill="#C09473" />
<rect x="125" y="61" width="1" height="1" fill="#C09473" />
<rect x="126" y="61" width="1" height="1" fill="#C09473" />
<rect x="127" y="61" width="1" height="1" fill="#C09473" />
<rect x="128" y="61" width="1" height="1" fill="#C09473" />
<rect x="129" y="61" width="1" height="1" fill="#C09473" />
<rect x="130" y="61" width="1" height="1" fill="#C09473" />
<rect x="131" y="61" width="1" height="1" fill="#C09473" />
<rect x="132" y="61" width="1" height="1" fill="#7A4841" />
<rect x="111" y="62" width="1" height="1" fill="#7A4841" />
<rect x="112" y="62" width="1" height="1" fill="#7A4841" />
<rect x="113" y="62" width="1" height="1" fill="#C09473" />
<rect x="114" y="62" width="1" height="1" fill="#C09473" />
<rect x="115" y="62" width="1" height="1" fill="#C09473" />
<rect x="116" y="62" width="1" height="1" fill="#C09473" />
<rect x="117" y="62" width="1" height="1" fill="#25562E" />
<rect x="118" y="62" width="1" height="1" fill="#468232" />
<rect x="119" y="62" width="1" height="1" fill="#468232" />
<rect x="120" y="62" width="1" height="1" fill="#468232" />
<rect x="121" y="62" width="1" height="1" fill="#468232" />
<rect x="122" y="62" width="1" height="1" fill="#468232" />
<rect x="123" y="62" width="1" height="1" fill="#468232" />
<rect x="124" y="62" width="1" height="1" fill="#25562E" />
<rect x="125" y="62" width="1" height="1" fill="#C09473" />
<rect x="126" y="62" width="1" height="1" fill="#C09473" />
<rect x="127" y="62" width="1" height="1" fill="#C09473" />
<rect x="128" y="62" width="1" height="1" fill="#C09473" />
<rect x="129" y="62" width="1" height="1" fill="#C09473" />
<rect x="130" y="62" width="1" height="1" fill="#C09473" />
<rect x="131" y="62" width="1" height="1" fill="#C09473" />
<rect x="132" y="62" width="1" height="1" fill="#C09473" />
<rect x="133" y="62" width="1" height="1" fill="#7A4841" />
<rect x="134" y="62" width="1" height="1" fill="#7A4841" />
<rect x="109" y="63" width="1" height="1" fill="#7A4841" />
<rect x="110" y="63" width="1" height="1" fill="#7A4841" />
<rect x="111" y="63" width="1" height="1" fill="#C09473" />
<rect x="112" y="63" width="1" height="1" fill="#C09473" />
<rect x="113" y="63" width="1" height="1" fill="#C09473" />
<rect x="114" y="63" width="1" height="1" fill="#C09473" />
<rect x="115" y="63" width="1" height="1" fill="#25562E" />
<rect x="116" y="63" width="1" height="1" fill="#25562E" />
<rect x="117" y="63" width="1" height="1" fill="#468232" />
<rect x="118" y="63" width="1" height="1" fill="#468232" />
<rect x="119" y="63" width="1" height="1" fill="#468232" />
<rect x="120" y="63" width="1" height="1" fill="#468232" />
<rect x="121" y="63" width="1" height="1" fill="#468232" />
<rect x="122" y="63" width="1" height="1" fill="#468232" />
<rect x="123" y="63" width="1" height="1" fill="#468232" />
<rect x="124" y="63" width="1" height="1" fill="#468232" />
<rect x="125" y="63" width="1" height="1" fill="#25562E" />
<rect x="126" y="63" width="1" height="1" fill="#C09473" />
<rect x="127" y="63" width="1" height="1" fill="#C09473" />
<rect x="128" y="63" width="1" height="1" fill="#C09473" />
<rect x="129" y="63" width="1" height="1" fill="#C09473" />
<rect x="130" y="63" width="1" height="1" fill="#C09473" />
<rect x="131" y="63" width="1" height="1" fill="#C09473" />
<rect x="132" y="63" width="1" height="1" fill="#C09473" />
<rect x="133" y="63" width="1" height="1" fill="#C09473" />
<rect x="134" y="63" width="1" height="1" fill="#C09473" />
<rect x="135" y="63" width="1" height="1" fill="#7A4841" />
<rect x="108" y="64" width="1" height="1" fill="#7A4841" />
<rect x="109" y="64" width="1" height="1" fill="#C09473" />
<rect x="110" y="64" width="1" height="1" fill="#C09473" />
<rect x="111" y="64" width="1" height="1" fill="#C09473" />
<rect x="112" y="64" width="1" height="1" fill="#C09473" />
<rect x="113" y="64" width="1" height="1" fill="#25562E" />
<rect x="114" y="64" width="1" height="1" fill="#25562E" />
<rect x="115" y="64" width="1" height="1" fill="#468232" />
<rect x="116" y="64" width="1" height="1" fill="#468232" />
<rect x="117" y="64" width="1" height="1" fill="#C7CFCC" />
<rect x="118" y="64" width="1" height="1" fill="#C7CFCC" />
<rect x="119" y="64" width="1" height="1" fill="#468232" />
<rect x="120" y="64" width="1" height="1" fill="#468232" />
<rect x="121" y="64" width="1" height="1" fill="#468232" />
<rect x="122" y="64" width="1" height="1" fill="#468232" />
<rect x="123" y="64" width="1" height="1" fill="#468232" />
<rect x="124" y="64" width="1" height="1" fill="#468232" />
<rect x="125" y="64" width="1" height="1" fill="#25562E" />
<rect x="126" y="64" width="1" height="1" fill="#C09473" />
<rect x="127" y="64" width="1" height="1" fill="#C09473" />
<rect x="128" y="64" width="1" height="1" fill="#C09473" />
<rect x="129" y="64" width="1" height="1" fill="#C09473" />
<rect x="130" y="64" width="1" height="1" fill="#C09473" />
<rect x="131" y="64" width="1" height="1" fill="#C09473" />
<rect x="132" y="64" width="1" height="1" fill="#C09473" />
<rect x="133" y="64" width="1" height="1" fill="#C09473" />
<rect x="134" y="64" width="1" height="1" fill="#C09473" />
<rect x="135" y="64" width="1" height="1" fill="#C09473" />
<rect x="136" y="64" width="1" height="1" fill="#7A4841" />
<rect x="137" y="64" width="1" height="1" fill="#7A4841" />
<rect x="106" y="65" width="1" height="1" fill="#7A4841" />
<rect x="107" y="65" width="1" height="1" fill="#7A4841" />
<rect x="108" y="65" width="1" height="1" fill="#C09473" />
<rect x="109" y="65" width="1" height="1" fill="#C09473" />
<rect x="110" y="65" width="1" height="1" fill="#C09473" />
<rect x="111" y="65" width="1" height="1" fill="#C09473" />
<rect x="112" y="65" width="1" height="1" fill="#25562E" />
<rect x="113" y="65" width="1" height="1" fill="#468232" />
<rect x="114" y="65" width="1" height="1" fill="#468232" />
<rect x="115" y="65" width="1" height="1" fill="#468232" />
<rect x="116" y="65" width="1" height="1" fill="#C7CFCC" />
<rect x="117" y="65" width="1" height="1" fill="#C7CFCC" />
<rect x="118" y="65" width="1" height="1" fill="#C7CFCC" />
<rect x="119" y="65" width="1" height="1" fill="#C7CFCC" />
<rect x="120" y="65" width="1" height="1" fill="#C7CFCC" />
<rect x="121" y="65" width="1" height="1" fill="#468232" />
<rect x="122" y="65" width="1" height="1" fill="#468232" />
<rect x="123" y="65" width="1" height="1" fill="#25562E" />
<rect x="124" y="65" width="1" height="1" fill="#25562E" />
<rect x="125" y="65" width="1" height="1" fill="#C09473" />
<rect x="126" y="65" width="1" height="1" fill="#C09473" />
<rect x="127" y="65" width="1" height="1" fill="#C09473" />
<rect x="128" y="65" width="1" height="1" fill="#C09473" />
<rect x="129" y="65" width="1" height="1" fill="#C09473" />
<rect x="130" y="65" width="1" height="1" fill="#C09473" />
<rect x="131" y="65" width="1" height="1" fill="#C09473" />
<rect x="132" y="65" width="1" height="1" fill="#C09473" />
<rect x="133" y="65" width="1" height="1" fill="#C09473" />
<rect x="134" y="65" width="1" height="1" fill="#C09473" />
<rect x="135" y="65" width="1" height="1" fill="#C09473" />
<rect x="136" y="65" width="1" height="1" fill="#C09473" />
<rect x="137" y="65" width="1" height="1" fill="#C09473" />
<rect x="138" y="65" width="1" height="1" fill="#7A4841" />
<rect x="105" y="66" width="1" height="1" fill="#7A4841" />
<rect x="106" y="66" width="1" height="1" fill="#C09473" />
<rect x="107" y="66" width="1" height="1" fill="#C09473" />
<rect x="108" y="66" width="1" height="1" fill="#C09473" />
<rect x="109" y="66" width="1" height="1" fill="#C09473" />
<rect x="110" y="66" width="1" height="1" fill="#C09473" />
<rect x="111" y="66" width="1" height="1" fill="#C09473" />
<rect x="112" y="66" width="1" height="1" fill="#C09473" />
<rect x="113" y="66" width="1" height="1" fill="#25562E" />
<rect x="114" y="66" width="1" height="1" fill="#468232" />
<rect x="115" y="66" width="1" height="1" fill="#468232" />
<rect x="116" y="66" width="1" height="1" fill="#468232" />
<rect x="117" y="66" width="1" height="1" fill="#468232" />
<rect x="118" y="66" width="1" height="1" fill="#C7CFCC" />
<rect x="119" y="66" width="1" height="1" fill="#C7CFCC" />
<rect x="120" y="66" width="1" height="1" fill="#468232" />
<rect x="121" y="66" width="1" height="1" fill="#468232" />
<rect x="122" y="66" width="1" height="1" fill="#25562E" />
<rect x="123" y="66" width="1" height="1" fill="#C09473" />
<rect x="124" y="66" width="1" height="1" fill="#C09473" />
<rect x="125" y="66" width="1" height="1" fill="#C09473" />
<rect x="126" y="66" width="1" height="1" fill="#C09473" />
<rect x="127" y="66" width="1" height="1" fill="#C09473" />
<rect x="128" y="66" width="1" height="1" fill="#C09473" />
<rect x="129" y="66" width="1" height="1" fill="#C09473" />
<rect x="130" y="66" width="1" height="1" fill="#C09473" />
<rect x="131" y="66" width="1" height="1" fill="#C09473" />
<rect x="132" y="66" width="1" height="1" fill="#C09473" />
<rect x="133" y="66" width="1" height="1" fill="#C09473" />
<rect x="134" y="66" width="1" height="1" fill="#C09473" />
<rect x="135" y="66" width="1" height="1" fill="#C09473" />
<rect x="136" y="66" width="1" height="1" fill="#C09473" />
<rect x="137" y="66" width="1" height="1" fill="#AD7757" />
<rect x="138" y="66" width="1" height="1" fill="#7A4841" />
<rect x="104" y="67" width="1" height="1" fill="#7A4841" />
<rect x="105" y="67" width="1" height="1" fill="#AD7757" />
<rect x="106" y="67" width="1" height="1" fill="#C09473" />
<rect x="107" y="67" width="1" height="1" fill="#C09473" />
<rect x="108" y="67" width="1" height="1" fill="#C09473" />
<rect x="109" y="67" width="1" height="1" fill="#C09473" />
<rect x="110" y="67" width="1" height="1" fill="#C09473" />
<rect x="111" y="67" width="1" height="1" fill="#C09473" />
<rect x="112" y="67" width="1" height="1" fill="#C09473" />
<rect x="113" y="67" width="1" height="1" fill="#C09473" />
<rect x="114" y="67" width="1" height="1" fill="#25562E" />
<rect x="115" y="67" width="1" height="1" fill="#25562E" />
<rect x="116" y="67" width="1" height="1" fill="#468232" />
<rect x="117" y="67" width="1" height="1" fill="#468232" />
<rect x="118" y="67" width="1" height="1" fill="#468232" />
<rect x="119" y="67" width="1" height="1" fill="#468232" />
<rect x="120" y="67" width="1" height="1" fill="#25562E" />
<rect x="121" y="67" width="1" height="1" fill="#25562E" />
<rect x="122" y="67" width="1" height="1" fill="#C09473" />
<rect x="123" y="67" width="1" height="1" fill="#C09473" />
<rect x="124" y="67" width="1" height="1" fill="#C09473" />
<rect x="125" y="67" width="1" height="1" fill="#C09473" />
<rect x="126" y="67" width="1" height="1" fill="#C09473" />
<rect x="127" y="67" width="1" height="1" fill="#C09473" />
<rect x="128" y="67" width="1" height="1" fill="#DF84A5" />
<rect x="129" y="67" width="1" height="1" fill="#C09473" />
<rect x="130" y="67" width="1" height="1" fill="#C09473" />
<rect x="131" y="67" width="1" height="1" fill="#C09473" />
<rect x="132" y="67" width="1" height="1" fill="#C09473" />
<rect x="133" y="67" width="1" height="1" fill="#C09473" />
<rect x="134" y="67" width="1" height="1" fill="#C09473" />
<rect x="135" y="67" width="1" height="1" fill="#C09473" />
<rect x="136" y="67" width="1" height="1" fill="#AD7757" />
<rect x="137" y="67" width="1" height="1" fill="#7A4841" />
<rect x="138" y="67" width="1" height="1" fill="#4D2B32" />
<rect x="104" y="68" width="1" height="1" fill="#4D2B32" />
<rect x="105" y="68" width="1" height="1" fill="#7A4841" />
<rect x="106" y="68" width="1" height="1" fill="#AD7757" />
<rect x="107" y="68" width="1" height="1" fill="#AD7757" />
<rect x="108" y="68" width="1" height="1" fill="#C09473" />
<rect x="109" y="68" width="1" height="1" fill="#C09473" />
<rect x="110" y="68" width="1" height="1" fill="#C09473" />
<rect x="111" y="68" width="1" height="1" fill="#C09473" />
<rect x="112" y="68" width="1" height="1" fill="#C09473" />
<rect x="113" y="68" width="1" height="1" fill="#C09473" />
<rect x="114" y="68" width="1" height="1" fill="#C09473" />
<rect x="115" y="68" width="1" height="1" fill="#C09473" />
<rect x="116" y="68" width="1" height="1" fill="#25562E" />
<rect x="117" y="68" width="1" height="1" fill="#25562E" />
<rect x="118" y="68" width="1" height="1" fill="#468232" />
<rect x="119" y="68" width="1" height="1" fill="#25562E" />
<rect x="120" y="68" width="1" height="1" fill="#C09473" />
<rect x="121" y="68" width="1" height="1" fill="#C09473" />
<rect x="122" y="68" width="1" height="1" fill="#C09473" />
<rect x="123" y="68" width="1" height="1" fill="#C09473" />
<rect x="124" y="68" width="1" height="1" fill="#C09473" />
<rect x="125" y="68" width="1" height="1" fill="#C09473" />
<rect x="126" y="68" width="1" height="1" fill="#C09473" />
<rect x="127" y="68" width="1" height="1" fill="#DE9E41" />
<rect x="128" y="68" width="1" height="1" fill="#E8C170" />
<rect x="129" y="68" width="1" height="1" fill="#C09473" />
<rect x="130" y="68" width="1" height="1" fill="#C09473" />
<rect x="131" y="68" width="1" height="1" fill="#C09473" />
<rect x="132" y="68" width="1" height="1" fill="#C09473" />
<rect x="133" y="68" width="1" height="1" fill="#C09473" />
<rect x="134" y="68" width="1" height="1" fill="#C09473" />
<rect x="135" y="68" width="1" height="1" fill="#AD7757" />
<rect x="136" y="68" width="1" height="1" fill="#7A4841" />
<rect x="137" y="68" width="1" height="1" fill="#4D2B32" />
<rect x="105" y="69" width="1" height="1" fill="#4D2B32" />
<rect x="106" y="69" width="1" height="1" fill="#7A4841" />
<rect x="107" y="69" width="1" height="1" fill="#7A4841" />
<rect x="108" y="69" width="1" height="1" fill="#AD7757" />
<rect x="109" y="69" width="1" height="1" fill="#C09473" />
<rect x="110" y="69" width="1" height="1" fill="#C09473" />
<rect x="111" y="69" width="1" height="1" fill="#C09473" />
<rect x="112" y="69" width="1" height="1" fill="#C09473" />
<rect x="113" y="69" width="1" height="1" fill="#C09473" />
<rect x="114" y="69" width="1" height="1" fill="#C09473" />
<rect x="115" y="69" width="1" height="1" fill="#C09473" />
<rect x="116" y="69" width="1" height="1" fill="#C09473" />
<rect x="117" y="69" width="1" height="1" fill="#C09473" />
<rect x="118" y="69" width="1" height="1" fill="#25562E" />
<rect x="119" y="69" width="1" height="1" fill="#C09473" />
<rect x="120" y="69" width="1" height="1" fill="#C09473" />
<rect x="121" y="69" width="1" height="1" fill="#C09473" />
<rect x="122" y="69" width="1" height="1" fill="#C09473" />
<rect x="123" y="69" width="1" height="1" fill="#C09473" />
<rect x="124" y="69" width="1" height="1" fill="#C09473" />
<rect x="125" y="69" width="1" height="1" fill="#DE9E41" />
<rect x="126" y="69" width="1" height="1" fill="#DE9E41" />
<rect x="127" y="69" width="1" height="1" fill="#E8C170" />
<rect x="128" y="69" width="1" height="1" fill="#C09473" />
<rect x="129" y="69" width="1" height="1" fill="#C09473" />
<rect x="130" y="69" width="1" height="1" fill="#C09473" />
<rect x="131" y="69" width="1" height="1" fill="#C09473" />
<rect x="132" y="69" width="1" height="1" fill="#C09473" />
<rect x="133" y="69" width="1" height="1" fill="#AD7757" />
<rect x="134" y="69" width="1" height="1" fill="#AD7757" />
<rect x="135" y="69" width="1" height="1" fill="#7A4841" />
<rect x="136" y="69" width="1" height="1" fill="#4D2B32" />
<rect x="137" y="69" width="1" height="1" fill="#819796" />
<rect x="105" y="70" width="1" height="1" fill="#A8B5B2" />
<rect x="106" y="70" width="1" height="1" fill="#4D2B32" />
<rect x="107" y="70" width="1" height="1" fill="#4D2B32" />
<rect x="108" y="70" width="1" height="1" fill="#7A4841" />
<rect x="109" y="70" width="1" height="1" fill="#AD7757" />
<rect x="110" y="70" width="1" height="1" fill="#AD7757" />
<rect x="111" y="70" width="1" height="1" fill="#C09473" />
<rect x="112" y="70" width="1" height="1" fill="#C09473" />
<rect x="113" y="70" width="1" height="1" fill="#C09473" />
<rect x="114" y="70" width="1" height="1" fill="#C09473" />
<rect x="115" y="70" width="1" height="1" fill="#C09473" />
<rect x="116" y="70" width="1" height="1" fill="#C09473" />
<rect x="117" y="70" width="1" height="1" fill="#C09473" />
<rect x="118" y="70" width="1" height="1" fill="#C09473" />
<rect x="119" y="70" width="1" height="1" fill="#C09473" />
<rect x="120" y="70" width="1" height="1" fill="#C09473" />
<rect x="121" y="70" width="1" height="1" fill="#C09473" />
<rect x="122" y="70" width="1" height="1" fill="#C09473" />
<rect x="123" y="70" width="1" height="1" fill="#C09473" />
<rect x="124" y="70" width="1" height="1" fill="#DE9E41" />
<rect x="125" y="70" width="1" height="1" fill="#E8C170" />
<rect x="126" y="70" width="1" height="1" fill="#E8C170" />
<rect x="127" y="70" width="1" height="1" fill="#C09473" />
<rect x="128" y="70" width="1" height="1" fill="#C09473" />
<rect x="129" y="70" width="1" height="1" fill="#C09473" />
<rect x="130" y="70" width="1" height="1" fill="#C09473" />
<rect x="131" y="70" width="1" height="1" fill="#AD7757" />
<rect x="132" y="70" width="1" height="1" fill="#AD7757" />
<rect x="133" y="70" width="1" height="1" fill="#7A4841" />
<rect x="134" y="70" width="1" height="1" fill="#7A4841" />
<rect x="135" y="70" width="1" height="1" fill="#4D2B32" />
<rect x="136" y="70" width="1" height="1" fill="#577277" />
<rect x="137" y="70" width="1" height="1" fill="#819796" />
<rect x="105" y="71" width="1" height="1" fill="#A8B5B2" />
<rect x="106" y="71" width="1" height="1" fill="#819796" />
<rect x="107" y="71" width="1" height="1" fill="#577277" />
<rect x="108" y="71" width="1" height="1" fill="#4D2B32" />
<rect x="109" y="71" width="1" height="1" fill="#7A4841" />
<rect x="110" y="71" width="1" height="1" fill="#7A4841" />
<rect x="111" y="71" width="1" height="1" fill="#AD7757" />
<rect x="112" y="71" width="1" height="1" fill="#C09473" />
<rect x="113" y="71" width="1" height="1" fill="#C09473" />
<rect x="114" y="71" width="1" height="1" fill="#C09473" />
<rect x="115" y="71" width="1" height="1" fill="#C09473" />
<rect x="116" y="71" width="1" height="1" fill="#C09473" />
<rect x="117" y="71" width="1" height="1" fill="#C09473" />
<rect x="118" y="71" width="1" height="1" fill="#C09473" />
<rect x="119" y="71" width="1" height="1" fill="#C09473" />
<rect x="120" y="71" width="1" height="1" fill="#C09473" />
<rect x="121" y="71" width="1" height="1" fill="#C09473" />
<rect x="122" y="71" width="1" height="1" fill="#C09473" />
<rect x="123" y="71" width="1" height="1" fill="#151D28" />
<rect x="124" y="71" width="1" height="1" fill="#E8C170" />
<rect x="125" y="71" width="1" height="1" fill="#C09473" />
<rect x="126" y="71" width="1" height="1" fill="#C09473" />
<rect x="127" y="71" width="1" height="1" fill="#C09473" />
<rect x="128" y="71" width="1" height="1" fill="#C09473" />
<rect x="129" y="71" width="1" height="1" fill="#C09473" />
<rect x="130" y="71" width="1" height="1" fill="#AD7757" />
<rect x="131" y="71" width="1" height="1" fill="#7A4841" />
<rect x="132" y="71" width="1" height="1" fill="#7A4841" />
<rect x="133" y="71" width="1" height="1" fill="#4D2B32" />
<rect x="134" y="71" width="1" height="1" fill="#4D2B32" />
<rect x="135" y="71" width="1" height="1" fill="#394A50" />
<rect x="136" y="71" width="1" height="1" fill="#577277" />
<rect x="137" y="71" width="1" height="1" fill="#819796" />
<rect x="105" y="72" width="1" height="1" fill="#A8B5B2" />
<rect x="106" y="72" width="1" height="1" fill="#819796" />
<rect x="107" y="72" width="1" height="1" fill="#577277" />
<rect x="109" y="72" width="1" height="1" fill="#4D2B32" />
<rect x="110" y="72" width="1" height="1" fill="#4D2B32" />
<rect x="111" y="72" width="1" height="1" fill="#7A4841" />
<rect x="112" y="72" width="1" height="1" fill="#AD7757" />
<rect x="113" y="72" width="1" height="1" fill="#AD7757" />
<rect x="114" y="72" width="1" height="1" fill="#C09473" />
<rect x="115" y="72" width="1" height="1" fill="#C09473" />
<rect x="116" y="72" width="1" height="1" fill="#C09473" />
<rect x="117" y="72" width="1" height="1" fill="#C09473" />
<rect x="118" y="72" width="1" height="1" fill="#C09473" />
<rect x="119" y="72" width="1" height="1" fill="#C09473" />
<rect x="120" y="72" width="1" height="1" fill="#C09473" />
<rect x="121" y="72" width="1" height="1" fill="#C09473" />
<rect x="122" y="72" width="1" height="1" fill="#C09473" />
<rect x="123" y="72" width="1" height="1" fill="#C09473" />
<rect x="124" y="72" width="1" height="1" fill="#C09473" />
<rect x="125" y="72" width="1" height="1" fill="#C09473" />
<rect x="126" y="72" width="1" height="1" fill="#C09473" />
<rect x="127" y="72" width="1" height="1" fill="#C09473" />
<rect x="128" y="72" width="1" height="1" fill="#AD7757" />
<rect x="129" y="72" width="1" height="1" fill="#AD7757" />
<rect x="130" y="72" width="1" height="1" fill="#7A4841" />
<rect x="131" y="72" width="1" height="1" fill="#7A4841" />
<rect x="132" y="72" width="1" height="1" fill="#4D2B32" />
<rect x="134" y="72" width="1" height="1" fill="#151D28" />
<rect x="135" y="72" width="1" height="1" fill="#394A50" />
<rect x="136" y="72" width="1" height="1" fill="#577277" />
<rect x="137" y="72" width="1" height="1" fill="#819796" />
<rect x="105" y="73" width="1" height="1" fill="#A8B5B2" />
<rect x="106" y="73" width="1" height="1" fill="#819796" />
<rect x="107" y="73" width="1" height="1" fill="#577277" />
<rect x="109" y="73" width="1" height="1" fill="#151D28" />
<rect x="111" y="73" width="1" height="1" fill="#4D2B32" />
<rect x="112" y="73" width="1" height="1" fill="#7A4841" />
<rect x="113" y="73" width="1" height="1" fill="#7A4841" />
<rect x="114" y="73" width="1" height="1" fill="#AD7757" />
<rect x="115" y="73" width="1" height="1" fill="#C09473" />
<rect x="116" y="73" width="1" height="1" fill="#C09473" />
<rect x="117" y="73" width="1" height="1" fill="#C09473" />
<rect x="118" y="73" width="1" height="1" fill="#C09473" />
<rect x="119" y="73" width="1" height="1" fill="#C09473" />
<rect x="120" y="73" width="1" height="1" fill="#C09473" />
<rect x="121" y="73" width="1" height="1" fill="#C09473" />
<rect x="122" y="73" width="1" height="1" fill="#C09473" />
<rect x="123" y="73" width="1" height="1" fill="#C09473" />
<rect x="124" y="73" width="1" height="1" fill="#C09473" />
<rect x="125" y="73" width="1" height="1" fill="#C09473" />
<rect x="126" y="73" width="1" height="1" fill="#C09473" />
<rect x="127" y="73" width="1" height="1" fill="#AD7757" />
<rect x="128" y="73" width="1" height="1" fill="#7A4841" />
<rect x="129" y="73" width="1" height="1" fill="#7A4841" />
<rect x="130" y="73" width="1" height="1" fill="#4D2B32" />
<rect x="131" y="73" width="1" height="1" fill="#4D2B32" />
<rect x="134" y="73" width="1" height="1" fill="#151D28" />
<rect x="135" y="73" width="1" height="1" fill="#394A50" />
<rect x="136" y="73" width="1" height="1" fill="#577277" />
<rect x="137" y="73" width="1" height="1" fill="#819796" />
<rect x="105" y="74" width="1" height="1" fill="#A8B5B2" />
<rect x="106" y="74" width="1" height="1" fill="#819796" />
<rect x="107" y="74" width="1" height="1" fill="#577277" />
<rect x="108" y="74" width="1" height="1" fill="#151D28" />
<rect x="111" y="74" width="1" height="1" fill="#819796" />
<rect x="112" y="74" width="1" height="1" fill="#4D2B32" />
<rect x="113" y="74" width="1" height="1" fill="#4D2B32" />
<rect x="114" y="74" width="1" height="1" fill="#7A4841" />
<rect x="115" y="74" width="1" height="1" fill="#AD7757" />
<rect x="116" y="74" width="1" height="1" fill="#AD7757" />
<rect x="117" y="74" width="1" height="1" fill="#C09473" />
<rect x="118" y="74" width="1" height="1" fill="#C09473" />
<rect x="119" y="74" width="1" height="1" fill="#C09473" />
<rect x="120" y="74" width="1" height="1" fill="#C09473" />
<rect x="121" y="74" width="1" height="1" fill="#C09473" />
<rect x="122" y="74" width="1" height="1" fill="#C09473" />
<rect x="123" y="74" width="1" height="1" fill="#C09473" />
<rect x="124" y="74" width="1" height="1" fill="#C09473" />
<rect x="125" y="74" width="1" height="1" fill="#AD7757" />
<rect x="126" y="74" width="1" height="1" fill="#AD7757" />
<rect x="127" y="74" width="1" height="1" fill="#7A4841" />
<rect x="128" y="74" width="1" height="1" fill="#4D2B32" />
<rect x="129" y="74" width="1" height="1" fill="#4D2B32" />
<rect x="130" y="74" width="1" height="1" fill="#819796" />
<rect x="132" y="74" width="1" height="1" fill="#151D28" />
<rect x="133" y="74" width="1" height="1" fill="#151D28" />
<rect x="134" y="74" width="1" height="1" fill="#202E37" />
<rect x="135" y="74" width="1" height="1" fill="#394A50" />
<rect x="136" y="74" width="1" height="1" fill="#577277" />
<rect x="137" y="74" width="1" height="1" fill="#819796" />
<rect x="105" y="75" width="1" height="1" fill="#A8B5B2" />
<rect x="106" y="75" width="1" height="1" fill="#819796" />
<rect x="107" y="75" width="1" height="1" fill="#577277" />
<rect x="108" y="75" width="1" height="1" fill="#202E37" />
<rect x="109" y="75" width="1" height="1" fill="#151D28" />
<rect x="110" y="75" width="1" height="1" fill="#151D28" />
<rect x="111" y="75" width="1" height="1" fill="#7A4841" opacity="0.996078" />
<rect x="112" y="75" width="1" height="1" fill="#7A4841" opacity="0.996078" />
<rect x="113" y="75" width="1" height="1" fill="#7A4841" opacity="0.996078" />
<rect x="114" y="75" width="1" height="1" fill="#4D2B32" />
<rect x="115" y="75" width="1" height="1" fill="#7A4841" />
<rect x="116" y="75" width="1" height="1" fill="#7A4841" />
<rect x="117" y="75" width="1" height="1" fill="#AD7757" />
<rect x="118" y="75" width="1" height="1" fill="#AD7757" />
<rect x="119" y="75" width="1" height="1" fill="#C09473" />
<rect x="120" y="75" width="1" height="1" fill="#C09473" />
<rect x="121" y="75" width="1" height="1" fill="#C09473" />
<rect x="122" y="75" width="1" height="1" fill="#C09473" />
<rect x="123" y="75" width="1" height="1" fill="#AD7757" />
<rect x="124" y="75" width="1" height="1" fill="#AD7757" />
<rect x="125" y="75" width="1" height="1" fill="#7A4841" />
<rect x="126" y="75" width="1" height="1" fill="#7A4841" />
<rect x="127" y="75" width="1" height="1" fill="#4D2B32" />
<rect x="128" y="75" width="1" height="1" fill="#7A4841" opacity="0.996078" />
<rect x="129" y="75" width="1" height="1" fill="#7A4841" opacity="0.996078" />
<rect x="130" y="75" width="1" height="1" fill="#7A4841" opacity="0.996078" />
<rect x="131" y="75" width="1" height="1" fill="#151D28" />
<rect x="132" y="75" width="1" height="1" fill="#202E37" />
<rect x="133" y="75" width="1" height="1" fill="#202E37" />
<rect x="134" y="75" width="1" height="1" fill="#151D28" />
<rect x="135" y="75" width="1" height="1" fill="#394A50" />
<rect x="136" y="75" width="1" height="1" fill="#577277" />
<rect x="137" y="75" width="1" height="1" fill="#819796" />
<rect x="105" y="76" width="1" height="1" fill="#A8B5B2" />
<rect x="106" y="76" width="1" height="1" fill="#819796" />
<rect x="107" y="76" width="1" height="1" fill="#577277" />
<rect x="108" y="76" width="1" height="1" fill="#151D28" />
<rect x="109" y="76" width="1" height="1" fill="#202E37" />
<rect x="110" y="76" width="1" height="1" fill="#202E37" />
<rect x="111" y="76" width="1" height="1" fill="#151D28" />
<rect x="112" y="76" width="1" height="1" fill="#7A4841" opacity="0.996078" />
<rect x="113" y="76" width="1" height="1" fill="#7A4841" opacity="0.996078" />
<rect x="114" y="76" width="1" height="1" fill="#819796" />
<rect x="115" y="76" width="1" height="1" fill="#4D2B32" />
<rect x="116" y="76" width="1" height="1" fill="#4D2B32" />
<rect x="117" y="76" width="1" height="1" fill="#7A4841" />
<rect x="118" y="76" width="1" height="1" fill="#7A4841" />
<rect x="119" y="76" width="1" height="1" fill="#AD7757" />
<rect x="120" y="76" width="1" height="1" fill="#AD7757" />
<rect x="121" y="76" width="1" height="1" fill="#AD7757" />
<rect x="122" y="76" width="1" height="1" fill="#AD7757" />
<rect x="123" y="76" width="1" height="1" fill="#7A4841" />
<rect x="124" y="76" width="1" height="1" fill="#7A4841" />
<rect x="125" y="76" width="1" height="1" fill="#4D2B32" />
<rect x="126" y="76" width="1" height="1" fill="#4D2B32" />
<rect x="127" y="76" width="1" height="1" fill="#819796" />
<rect x="128" y="76" width="1" height="1" fill="#7A4841" opacity="0.996078" />
<rect x="129" y="76" width="1" height="1" fill="#151D28" />
<rect x="130" y="76" width="1" height="1" fill="#151D28" />
<rect x="131" y="76" width="1" height="1" fill="#202E37" />
<rect x="132" y="76" width="1" height="1" fill="#151D28" />
<rect x="133" y="76" width="1" height="1" fill="#151D28" />
<rect x="135" y="76" width="1" height="1" fill="#394A50" />
<rect x="136" y="76" width="1" height="1" fill="#577277" />
<rect x="137" y="76" width="1" height="1" fill="#819796" />
<rect x="105" y="77" width="1" height="1" fill="#A8B5B2" />
<rect x="106" y="77" width="1" height="1" fill="#819796" />
<rect x="107" y="77" width="1" height="1" fill="#577277" />
<rect x="108" y="77" width="1" height="1" fill="#7A4841" opacity="0.996078" />
<rect x="109" y="77" width="1" height="1" fill="#151D28" />
<rect x="110" y="77" width="1" height="1" fill="#151D28" />
<rect x="111" y="77" width="1" height="1" fill="#202E37" />
<rect x="112" y="77" width="1" height="1" fill="#151D28" />
<rect x="113" y="77" width="1" height="1" fill="#151D28" />
<rect x="114" y="77" width="1" height="1" fill="#7A4841" opacity="0.996078" />
<rect x="115" y="77" width="1" height="1" fill="#7A4841" opacity="0.996078" />
<rect x="116" y="77" width="1" height="1" fill="#7A4841" opacity="0.996078" />
<rect x="117" y="77" width="1" height="1" fill="#4D2B32" />
<rect x="118" y="77" width="1" height="1" fill="#4D2B32" />
<rect x="119" y="77" width="1" height="1" fill="#7A4841" />
<rect x="120" y="77" width="1" height="1" fill="#7A4841" />
<rect x="121" y="77" width="1" height="1" fill="#7A4841" />
<rect x="122" y="77" width="1" height="1" fill="#7A4841" />
<rect x="123" y="77" width="1" height="1" fill="#4D2B32" />
<rect x="124" y="77" width="1" height="1" fill="#4D2B32" />
<rect x="125" y="77" width="1" height="1" fill="#7A4841" opacity="0.996078" />
<rect x="126" y="77" width="1" height="1" fill="#7A4841" opacity="0.996078" />
<rect x="127" y="77" width="1" height="1" fill="#7A4841" opacity="0.996078" />
<rect x="128" y="77" width="1" height="1" fill="#151D28" />
<rect x="129" y="77" width="1" height="1" fill="#202E37" />
<rect x="130" y="77" width="1" height="1" fill="#202E37" />
<rect x="131" y="77" width="1" height="1" fill="#151D28" />
<rect x="132" y="77" width="1" height="1" fill="#7A4841" opacity="0.996078" />
<rect x="133" y="77" width="1" height="1" fill="#7A4841" opacity="0.996078" />
<rect x="134" y="77" width="1" height="1" fill="#7A4841" opacity="0.996078" />
<rect x="135" y="77" width="1" height="1" fill="#394A50" />
<rect x="136" y="77" width="1" height="1" fill="#577277" />
<rect x="137" y="77" width="1" height="1" fill="#819796" />
<rect x="105" y="78" width="1" height="1" fill="#A8B5B2" />
<rect x="106" y="78" width="1" height="1" fill="#819796" />
<rect x="107" y="78" width="1" height="1" fill="#577277" />
<rect x="108" y="78" width="1" height="1" fill="#7A4841" opacity="0.996078" />
<rect x="109" y="78" width="1" height="1" fill="#7A4841" opacity="0.996078" />
<rect x="110" y="78" width="1" height="1" fill="#7A4841" opacity="0.996078" />
<rect x="111" y="78" width="1" height="1" fill="#151D28" />
<rect x="112" y="78" width="1" height="1" fill="#202E37" />
<rect x="113" y="78" width="1" height="1" fill="#202E37" />
<rect x="114" y="78" width="1" height="1" fill="#151D28" />
<rect x="115" y="78" width="1" height="1" fill="#151D28" />
<rect x="116" y="78" width="1" height="1" fill="#7A4841" opacity="0.996078" />
<rect x="117" y="78" width="1" height="1" fill="#819796" />
<rect x="118" y="78" width="1" height="1" fill="#4D2B32" />
<rect x="119" y="78" width="1" height="1" fill="#4D2B32" />
<rect x="120" y="78" width="1" height="1" fill="#4D2B32" />
<rect x="121" y="78" width="1" height="1" fill="#4D2B32" />
<rect x="122" y="78" width="1" height="1" fill="#4D2B32" />
<rect x="123" y="78" width="1" height="1" fill="#4D2B32" />
<rect x="124" y="78" width="1" height="1" fill="#819796" />
<rect x="125" y="78" width="1" height="1" fill="#7A4841" opacity="0.996078" />
<rect x="126" y="78" width="1" height="1" fill="#7A4841" opacity="0.996078" />
<rect x="127" y="78" width="1" height="1" fill="#151D28" />
<rect x="128" y="78" width="1" height="1" fill="#202E37" />
<rect x="129" y="78" width="1" height="1" fill="#151D28" />
<rect x="130" y="78" width="1" height="1" fill="#151D28" />
<rect x="131" y="78" width="1" height="1" fill="#7A4841" opacity="0.996078" />
<rect x="132" y="78" width="1" height="1" fill="#7A4841" opacity="0.996078" />
<rect x="133" y="78" width="1" height="1" fill="#7A4841" opacity="0.996078" />
<rect x="134" y="78" width="1" height="1" fill="#7A4841" opacity="0.996078" />
<rect x="135" y="78" width="1" height="1" fill="#394A50" />
<rect x="136" y="78" width="1" height="1" fill="#577277" />
<rect x="137" y="78" width="1" height="1" fill="#819796" />
<rect x="105" y="79" width="1" height="1" fill="#A8B5B2" />
<rect x="106" y="79" width="1" height="1" fill="#819796" />
<rect x="107" y="79" width="1" height="1" fill="#577277" />
<rect x="108" y="79" width="1" height="1" fill="#7A4841" opacity="0.996078" />
<rect x="109" y="79" width="1" height="1" fill="#7A4841" opacity="0.996078" />
<rect x="110" y="79" width="1" height="1" fill="#7A4841" opacity="0.996078" />
<rect x="111" y="79" width="1" height="1" fill="#7A4841" opacity="0.996078" />
<rect x="112" y="79" width="1" height="1" fill="#151D28" />
<rect x="113" y="79" width="1" height="1" fill="#151D28" />
<rect x="114" y="79" width="1" height="1" fill="#202E37" />
<rect x="115" y="79" width="1" height="1" fill="#202E37" />
<rect x="116" y="79" width="1" height="1" fill="#151D28" />
<rect x="117" y="79" width="1" height="1" fill="#7A4841" opacity="0.996078" />
<rect x="118" y="79" width="1" height="1" fill="#7A4841" opacity="0.996078" />
<rect x="119" y="79" width="1" height="1" fill="#7A4841" opacity="0.996078" />
<rect x="120" y="79" width="1" height="1" fill="#C7CFCC" />
<rect x="121" y="79" width="1" height="1" fill="#A8B5B2" />
<rect x="122" y="79" width="1" height="1" fill="#819796" />
<rect x="123" y="79" width="1" height="1" fill="#577277" />
<rect x="124" y="79" width="1" height="1" fill="#7A4841" opacity="0.996078" />
<rect x="125" y="79" width="1" height="1" fill="#151D28" />
<rect x="126" y="79" width="1" height="1" fill="#151D28" />
<rect x="127" y="79" width="1" height="1" fill="#202E37" />
<rect x="128" y="79" width="1" height="1" fill="#151D28" />
<rect x="129" y="79" width="1" height="1" fill="#7A4841" opacity="0.996078" />
<rect x="130" y="79" width="1" height="1" fill="#7A4841" opacity="0.996078" />
<rect x="131" y="79" width="1" height="1" fill="#7A4841" opacity="0.996078" />
<rect x="132" y="79" width="1" height="1" fill="#7A4841" opacity="0.996078" />
<rect x="133" y="79" width="1" height="1" fill="#7A4841" opacity="0.996078" />
<rect x="134" y="79" width="1" height="1" fill="#7A4841" opacity="0.996078" />
<rect x="135" y="79" width="1" height="1" fill="#394A50" />
<rect x="136" y="79" width="1" height="1" fill="#577277" />
<rect x="137" y="79" width="1" height="1" fill="#819796" />
<rect x="106" y="80" width="1" height="1" fill="#819796" />
<rect x="107" y="80" width="1" height="1" fill="#577277" />
<rect x="108" y="80" width="1" height="1" fill="#7A4841" opacity="0.996078" />
<rect x="109" y="80" width="1" height="1" fill="#7A4841" opacity="0.996078" />
<rect x="110" y="80" width="1" height="1" fill="#7A4841" opacity="0.996078" />
<rect x="111" y="80" width="1" height="1" fill="#7A4841" opacity="0.996078" />
<rect x="112" y="80" width="1" height="1" fill="#7A4841" opacity="0.996078" />
<rect x="113" y="80" width="1" height="1" fill="#7A4841" opacity="0.996078" />
<rect x="114" y="80" width="1" height="1" fill="#151D28" />
<rect x="115" y="80" width="1" height="1" fill="#151D28" />
<rect x="116" y="80" width="1" height="1" fill="#202E37" />
<rect x="117" y="80" width="1" height="1" fill="#151D28" />
<rect x="118" y="80" width="1" height="1" fill="#151D28" />
<rect x="119" y="80" width="1" height="1" fill="#819796" />
<rect x="120" y="80" width="1" height="1" fill="#C7CFCC" />
<rect x="121" y="80" width="1" height="1" fill="#A8B5B2" />
<rect x="122" y="80" width="1" height="1" fill="#819796" />
<rect x="123" y="80" width="1" height="1" fill="#577277" />
<rect x="124" y="80" width="1" height="1" fill="#151D28" />
<rect x="125" y="80" width="1" height="1" fill="#202E37" />
<rect x="126" y="80" width="1" height="1" fill="#202E37" />
<rect x="127" y="80" width="1" height="1" fill="#151D28" />
<rect x="128" y="80" width="1" height="1" fill="#7A4841" opacity="0.996078" />
<rect x="129" y="80" width="1" height="1" fill="#7A4841" opacity="0.996078" />
<rect x="130" y="80" width="1" height="1" fill="#7A4841" opacity="0.996078" />
<rect x="131" y="80" width="1" height="1" fill="#7A4841" opacity="0.996078" />
<rect x="132" y="80" width="1" height="1" fill="#7A4841" opacity="0.996078" />
<rect x="133" y="80" width="1" height="1" fill="#7B4942" opacity="0.996078" />
<rect x="135" y="80" width="1" height="1" fill="#394A50" />
<rect x="136" y="80" width="1" height="1" fill="#577277" />
<rect x="137" y="80" width="1" height="1" fill="#819796" />
<rect x="109" y="81" width="1" height="1" fill="#7A4841" opacity="0.996078" />
<rect x="110" y="81" width="1" height="1" fill="#7A4841" opacity="0.996078" />
<rect x="111" y="81" width="1" height="1" fill="#7A4841" opacity="0.996078" />
<rect x="112" y="81" width="1" height="1" fill="#7A4841" opacity="0.996078" />
<rect x="113" y="81" width="1" height="1" fill="#7A4841" opacity="0.996078" />
<rect x="114" y="81" width="1" height="1" fill="#7A4841" opacity="0.996078" />
<rect x="115" y="81" width="1" height="1" fill="#7A4841" opacity="0.996078" />
<rect x="116" y="81" width="1" height="1" fill="#151D28" />
<rect x="117" y="81" width="1" height="1" fill="#202E37" />
<rect x="118" y="81" width="1" height="1" fill="#202E37" />
<rect x="119" y="81" width="1" height="1" fill="#151D28" />
<rect x="120" y="81" width="1" height="1" fill="#C7CFCC" />
<rect x="121" y="81" width="1" height="1" fill="#A8B5B2" />
<rect x="122" y="81" width="1" height="1" fill="#819796" />
<rect x="123" y="81" width="1" height="1" fill="#577277" />
<rect x="124" y="81" width="1" height="1" fill="#202E37" />
<rect x="125" y="81" width="1" height="1" fill="#151D28" />
<rect x="126" y="81" width="1" height="1" fill="#151D28" />
<rect x="127" y="81" width="1" height="1" fill="#7A4841" opacity="0.996078" />
<rect x="128" y="81" width="1" height="1" fill="#7A4841" opacity="0.996078" />
<rect x="129" y="81" width="1" height="1" fill="#7A4841" opacity="0.996078" />
<rect x="130" y="81" width="1" height="1" fill="#7A4841" opacity="0.996078" />
<rect x="131" y="81" width="1" height="1" fill="#7A4841" opacity="0.996078" />
<rect x="135" y="81" width="1" height="1" fill="#394A50" />
<rect x="136" y="81" width="1" height="1" fill="#577277" />
<rect x="110" y="82" width="1" height="1" fill="#7A4841" opacity="0.996078" />
<rect x="111" y="82" width="1" height="1" fill="#7A4841" opacity="0.996078" />
<rect x="112" y="82" width="1" height="1" fill="#7A4841" opacity="0.996078" />
<rect x="113" y="82" width="1" height="1" fill="#7A4841" opacity="0.996078" />
<rect x="114" y="82" width="1" height="1" fill="#7A4841" opacity="0.996078" />
<rect x="115" y="82" width="1" height="1" fill="#7A4841" opacity="0.996078" />
<rect x="116" y="82" width="1" height="1" fill="#7A4841" opacity="0.996078" />
<rect x="117" y="82" width="1" height="1" fill="#151D28" />
<rect x="118" y="82" width="1" height="1" fill="#151D28" />
<rect x="119" y="82" width="1" height="1" fill="#202E37" />
<rect x="120" y="82" width="1" height="1" fill="#C7CFCC" />
<rect x="121" y="82" width="1" height="1" fill="#A8B5B2" />
<rect x="122" y="82" width="1" height="1" fill="#819796" />
<rect x="123" y="82" width="1" height="1" fill="#577277" />
<rect x="124" y="82" width="1" height="1" fill="#151D28" />
<rect x="125" y="82" width="1" height="1" fill="#7A4841" opacity="0.996078" />
<rect x="126" y="82" width="1" height="1" fill="#7A4841" opacity="0.996078" />
<rect x="127" y="82" width="1" height="1" fill="#7A4841" opacity="0.996078" />
<rect x="128" y="82" width="1" height="1" fill="#7A4841" opacity="0.996078" />
<rect x="129" y="82" width="1" height="1" fill="#7A4841" opacity="0.996078" />
<rect x="112" y="83" width="1" height="1" fill="#7A4841" opacity="0.996078" />
<rect x="113" y="83" width="1" height="1" fill="#7A4841" opacity="0.996078" />
<rect x="114" y="83" width="1" height="1" fill="#7A4841" opacity="0.996078" />
<rect x="115" y="83" width="1" height="1" fill="#7A4841" opacity="0.996078" />
<rect x="116" y="83" width="1" height="1" fill="#7A4841" opacity="0.996078" />
<rect x="117" y="83" width="1" height="1" fill="#7A4841" opacity="0.996078" />
<rect x="118" y="83" width="1" height="1" fill="#7A4841" opacity="0.996078" />
<rect x="119" y="83" width="1" height="1" fill="#151D28" />
<rect x="120" y="83" width="1" height="1" fill="#C7CFCC" />
<rect x="121" y="83" width="1" height="1" fill="#A8B5B2" />
<rect x="122" y="83" width="1" height="1" fill="#819796" />
<rect x="123" y="83" width="1" height="1" fill="#577277" />
<rect x="124" y="83" width="1" height="1" fill="#7A4841" opacity="0.996078" />
<rect x="125" y="83" width="1" height="1" fill="#7A4841" opacity="0.996078" />
<rect x="126" y="83" width="1" height="1" fill="#7A4841" opacity="0.996078" />
<rect x="127" y="83" width="1" height="1" fill="#7A4841" opacity="0.996078" />
<rect x="128" y="83" width="1" height="1" fill="#7A4841" opacity="0.996078" />
<rect x="114" y="84" width="1" height="1" fill="#7A4841" opacity="0.996078" />
<rect x="115" y="84" width="1" height="1" fill="#7A4841" opacity="0.996078" />
<rect x="116" y="84" width="1" height="1" fill="#7A4841" opacity="0.996078" />
<rect x="117" y="84" width="1" height="1" fill="#7A4841" opacity="0.996078" />
<rect x="118" y="84" width="1" height="1" fill="#7A4841" opacity="0.996078" />
<rect x="119" y="84" width="1" height="1" fill="#7A4841" opacity="0.996078" />
<rect x="120" y="84" width="1" height="1" fill="#C7CFCC" />
<rect x="121" y="84" width="1" height="1" fill="#A8B5B2" />
<rect x="122" y="84" width="1" height="1" fill="#819796" />
<rect x="123" y="84" width="1" height="1" fill="#577277" />
<rect x="124" y="84" width="1" height="1" fill="#7A4841" opacity="0.996078" />
<rect x="125" y="84" width="1" height="1" fill="#7A4841" opacity="0.996078" />
<rect x="126" y="84" width="1" height="1" fill="#7A4841" opacity="0.996078" />
<rect x="115" y="85" width="1" height="1" fill="#7A4841" opacity="0.996078" />
<rect x="116" y="85" width="1" height="1" fill="#7A4841" opacity="0.996078" />
<rect x="117" y="85" width="1" height="1" fill="#7A4841" opacity="0.996078" />
<rect x="118" y="85" width="1" height="1" fill="#7A4841" opacity="0.996078" />
<rect x="119" y="85" width="1" height="1" fill="#7A4841" opacity="0.996078" />
<rect x="120" y="85" width="1" height="1" fill="#C7CFCC" />
<rect x="121" y="85" width="1" height="1" fill="#A8B5B2" />
<rect x="122" y="85" width="1" height="1" fill="#819796" />
<rect x="123" y="85" width="1" height="1" fill="#577277" />
<rect x="124" y="85" width="1" height="1" fill="#7A4841" opacity="0.996078" />
<rect x="125" y="85" width="1" height="1" fill="#7A4841" opacity="0.996078" />
<rect x="117" y="86" width="1" height="1" fill="#7A4841" opacity="0.996078" />
<rect x="118" y="86" width="1" height="1" fill="#7A4841" opacity="0.996078" />
<rect x="119" y="86" width="1" height="1" fill="#7A4841" opacity="0.996078" />
<rect x="120" y="86" width="1" height="1" fill="#C7CFCC" />
<rect x="121" y="86" width="1" height="1" fill="#A8B5B2" />
<rect x="122" y="86" width="1" height="1" fill="#819796" />
<rect x="123" y="86" width="1" height="1" fill="#577277" />
<rect x="118" y="87" width="1" height="1" fill="#7A4841" opacity="0.996078" />
<rect x="119" y="87" width="1" height="1" fill="#7A4841" opacity="0.996078" />
<rect x="120" y="87" width="1" height="1" fill="#C7CFCC" />
<rect x="121" y="87" width="1" height="1" fill="#A8B5B2" />
<rect x="122" y="87" width="1" height="1" fill="#819796" />
<rect x="123" y="87" width="1" height="1" fill="#577277" />
<rect x="120" y="88" width="1" height="1" fill="#C7CFCC" />
<rect x="121" y="88" width="1" height="1" fill="#A8B5B2" />
<rect x="122" y="88" width="1" height="1" fill="#819796" />
<rect x="123" y="88" width="1" height="1" fill="#577277" />
<rect x="121" y="89" width="1" height="1" fill="#A8B5B2" />
<rect x="122" y="89" width="1" height="1" fill="#819796" />
</svg>