<?xml version="1.0" encoding="UTF-8" ?>
<svg version="1.1" width="144" height="144" xmlns="http://www.w3.org/2000/svg" shape-rendering="crispEdges">
<rect x="72" y="105" width="1" height="1" fill="#7A4841" />
<rect x="73" y="105" width="1" height="1" fill="#7A4841" />
<rect x="74" y="105" width="1" height="1" fill="#7A4841" />
<rect x="75" y="105" width="1" height="1" fill="#7A4841" />
<rect x="76" y="105" width="1" height="1" fill="#7A4841" />
<rect x="71" y="106" width="1" height="1" fill="#7A4841" />
<rect x="72" y="106" width="1" height="1" fill="#C09473" />
<rect x="73" y="106" width="1" height="1" fill="#C09473" />
<rect x="74" y="106" width="1" height="1" fill="#C09473" />
<rect x="75" y="106" width="1" height="1" fill="#C09473" />
<rect x="76" y="106" width="1" height="1" fill="#C09473" />
<rect x="77" y="106" width="1" height="1" fill="#7A4841" />
<rect x="78" y="106" width="1" height="1" fill="#7A4841" />
<rect x="69" y="107" width="1" height="1" fill="#7A4841" />
<rect x="70" y="107" width="1" height="1" fill="#7A4841" />
<rect x="71" y="107" width="1" height="1" fill="#C09473" />
<rect x="72" y="107" width="1" height="1" fill="#C09473" />
<rect x="73" y="107" width="1" height="1" fill="#C09473" />
<rect x="74" y="107" width="1" height="1" fill="#C09473" />
<rect x="75" y="107" width="1" height="1" fill="#C09473" />
<rect x="76" y="107" width="1" height="1" fill="#C09473" />
<rect x="77" y="107" width="1" height="1" fill="#C09473" />
<rect x="78" y="107" width="1" height="1" fill="#C09473" />
<rect x="79" y="107" width="1" height="1" fill="#7A4841" />
<rect x="68" y="108" width="1" height="1" fill="#7A4841" />
<rect x="69" y="108" width="1" height="1" fill="#C09473" />
<rect x="70" y="108" width="1" height="1" fill="#C09473" />
<rect x="71" y="108" width="1" height="1" fill="#C09473" />
<rect x="72" y="108" width="1" height="1" fill="#C09473" />
<rect x="73" y="108" width="1" height="1" fill="#C09473" />
<rect x="74" y="108" width="1" height="1" fill="#C09473" />
<rect x="75" y="108" width="1" height="1" fill="#C09473" />
<rect x="76" y="108" width="1" height="1" fill="#C09473" />
<rect x="77" y="108" width="1" height="1" fill="#C09473" />
<rect x="78" y="108" width="1" height="1" fill="#C09473" />
<rect x="79" y="108" width="1" height="1" fill="#C09473" />
<rect x="80" y="108" width="1" height="1" fill="#7A4841" />
<rect x="81" y="108" width="1" height="1" fill="#7A4841" />
<rect x="66" y="109" width="1" height="1" fill="#7A4841" />
<rect x="67" y="109" width="1" height="1" fill="#7A4841" />
<rect x="68" y="109" width="1" height="1" fill="#C09473" />
<rect x="69" y="109" width="1" height="1" fill="#C09473" />
<rect x="70" y="109" width="1" height="1" fill="#C09473" />
<rect x="71" y="109" width="1" height="1" fill="#C09473" />
<rect x="72" y="109" width="1" height="1" fill="#752438" />
<rect x="73" y="109" width="1" height="1" fill="#752438" />
<rect x="74" y="109" width="1" height="1" fill="#C09473" />
<rect x="75" y="109" width="1" height="1" fill="#C09473" />
<rect x="76" y="109" width="1" height="1" fill="#C09473" />
<rect x="77" y="109" width="1" height="1" fill="#C09473" />
<rect x="78" y="109" width="1" height="1" fill="#C09473" />
<rect x="79" y="109" width="1" height="1" fill="#C09473" />
<rect x="80" y="109" width="1" height="1" fill="#C09473" />
<rect x="81" y="109" width="1" height="1" fill="#C09473" />
<rect x="82" y="109" width="1" height="1" fill="#7A4841" />
<rect x="83" y="109" width="1" height="1" fill="#7A4841" />
<rect x="65" y="110" width="1" height="1" fill="#7A4841" />
<rect x="66" y="110" width="1" height="1" fill="#C09473" />
<rect x="67" y="110" width="1" height="1" fill="#C09473" />
<rect x="68" y="110" width="1" height="1" fill="#C09473" />
<rect x="69" y="110" width="1" height="1" fill="#C09473" />
<rect x="70" y="110" width="1" height="1" fill="#752438" />
<rect x="71" y="110" width="1" height="1" fill="#752438" />
<rect x="72" y="110" width="1" height="1" fill="#A53030" />
<rect x="73" y="110" width="1" height="1" fill="#A53030" />
<rect x="74" y="110" width="1" height="1" fill="#752438" />
<rect x="75" y="110" width="1" height="1" fill="#752438" />
<rect x="76" y="110" width="1" height="1" fill="#C09473" />
<rect x="77" y="110" width="1" height="1" fill="#C09473" />
<rect x="78" y="110" width="1" height="1" fill="#C09473" />
<rect x="79" y="110" width="1" height="1" fill="#C09473" />
<rect x="80" y="110" width="1" height="1" fill="#C09473" />
<rect x="81" y="110" width="1" height="1" fill="#C09473" />
<rect x="82" y="110" width="1" height="1" fill="#C09473" />
<rect x="83" y="110" width="1" height="1" fill="#C09473" />
<rect x="84" y="110" width="1" height="1" fill="#7A4841" />
<rect x="63" y="111" width="1" height="1" fill="#7A4841" />
<rect x="64" y="111" width="1" height="1" fill="#7A4841" />
<rect x="65" y="111" width="1" height="1" fill="#C09473" />
<rect x="66" y="111" width="1" height="1" fill="#C09473" />
<rect x="67" y="111" width="1" height="1" fill="#C09473" />
<rect x="68" y="111" width="1" height="1" fill="#C09473" />
<rect x="69" y="111" width="1" height="1" fill="#752438" />
<rect x="70" y="111" width="1" height="1" fill="#A53030" />
<rect x="71" y="111" width="1" height="1" fill="#A53030" />
<rect x="72" y="111" width="1" height="1" fill="#A53030" />
<rect x="73" y="111" width="1" height="1" fill="#A53030" />
<rect x="74" y="111" width="1" height="1" fill="#A53030" />
<rect x="75" y="111" width="1" height="1" fill="#A53030" />
<rect x="76" y="111" width="1" height="1" fill="#752438" />
<rect x="77" y="111" width="1" height="1" fill="#C09473" />
<rect x="78" y="111" width="1" height="1" fill="#C09473" />
<rect x="79" y="111" width="1" height="1" fill="#C09473" />
<rect x="80" y="111" width="1" height="1" fill="#C09473" />
<rect x="81" y="111" width="1" height="1" fill="#C09473" />
<rect x="82" y="111" width="1" height="1" fill="#C09473" />
<rect x="83" y="111" width="1" height="1" fill="#C09473" />
<rect x="84" y="111" width="1" height="1" fill="#C09473" />
<rect x="85" y="111" width="1" height="1" fill="#7A4841" />
<rect x="86" y="111" width="1" height="1" fill="#7A4841" />
<rect x="61" y="112" width="1" height="1" fill="#7A4841" />
<rect x="62" y="112" width="1" height="1" fill="#7A4841" />
<rect x="63" y="112" width="1" height="1" fill="#C09473" />
<rect x="64" y="112" width="1" height="1" fill="#C09473" />
<rect x="65" y="112" width="1" height="1" fill="#C09473" />
<rect x="66" y="112" width="1" height="1" fill="#C09473" />
<rect x="67" y="112" width="1" height="1" fill="#752438" />
<rect x="68" y="112" width="1" height="1" fill="#752438" />
<rect x="69" y="112" width="1" height="1" fill="#A53030" />
<rect x="70" y="112" width="1" height="1" fill="#A53030" />
<rect x="71" y="112" width="1" height="1" fill="#A53030" />
<rect x="72" y="112" width="1" height="1" fill="#A53030" />
<rect x="73" y="112" width="1" height="1" fill="#A53030" />
<rect x="74" y="112" width="1" height="1" fill="#A53030" />
<rect x="75" y="112" width="1" height="1" fill="#A53030" />
<rect x="76" y="112" width="1" height="1" fill="#A53030" />
<rect x="77" y="112" width="1" height="1" fill="#752438" />
<rect x="78" y="112" width="1" height="1" fill="#C09473" />
<rect x="79" y="112" width="1" height="1" fill="#C09473" />
<rect x="80" y="112" width="1" height="1" fill="#C09473" />
<rect x="81" y="112" width="1" height="1" fill="#C09473" />
<rect x="82" y="112" width="1" height="1" fill="#C09473" />
<rect x="83" y="112" width="1" height="1" fill="#C09473" />
<rect x="84" y="112" width="1" height="1" fill="#C09473" />
<rect x="85" y="112" width="1" height="1" fill="#C09473" />
<rect x="86" y="112" width="1" height="1" fill="#C09473" />
<rect x="87" y="112" width="1" height="1" fill="#7A4841" />
<rect x="60" y="113" width="1" height="1" fill="#7A4841" />
<rect x="61" y="113" width="1" height="1" fill="#C09473" />
<rect x="62" y="113" width="1" height="1" fill="#C09473" />
<rect x="63" y="113" width="1" height="1" fill="#C09473" />
<rect x="64" y="113" width="1" height="1" fill="#C09473" />
<rect x="65" y="113" width="1" height="1" fill="#752438" />
<rect x="66" y="113" width="1" height="1" fill="#752438" />
<rect x="67" y="113" width="1" height="1" fill="#A53030" />
<rect x="68" y="113" width="1" height="1" fill="#A53030" />
<rect x="69" y="113" width="1" height="1" fill="#C7CFCC" />
<rect x="70" y="113" width="1" height="1" fill="#C7CFCC" />
<rect x="71" y="113" width="1" height="1" fill="#A53030" />
<rect x="72" y="113" width="1" height="1" fill="#A53030" />
<rect x="73" y="113" width="1" height="1" fill="#A53030" />
<rect x="74" y="113" width="1" height="1" fill="#A53030" />
<rect x="75" y="113" width="1" height="1" fill="#A53030" />
<rect x="76" y="113" width="1" height="1" fill="#A53030" />
<rect x="77" y="113" width="1" height="1" fill="#752438" />
<rect x="78" y="113" width="1" height="1" fill="#C09473" />
<rect x="79" y="113" width="1" height="1" fill="#C09473" />
<rect x="80" y="113" width="1" height="1" fill="#C09473" />
<rect x="81" y="113" width="1" height="1" fill="#C09473" />
<rect x="82" y="113" width="1" height="1" fill="#C09473" />
<rect x="83" y="113" width="1" height="1" fill="#C09473" />
<rect x="84" y="113" width="1" height="1" fill="#C09473" />
<rect x="85" y="113" width="1" height="1" fill="#C09473" />
<rect x="86" y="113" width="1" height="1" fill="#C09473" />
<rect x="87" y="113" width="1" height="1" fill="#C09473" />
<rect x="88" y="113" width="1" height="1" fill="#7A4841" />
<rect x="89" y="113" width="1" height="1" fill="#7A4841" />
<rect x="58" y="114" width="1" height="1" fill="#7A4841" />
<rect x="59" y="114" width="1" height="1" fill="#7A4841" />
<rect x="60" y="114" width="1" height="1" fill="#C09473" />
<rect x="61" y="114" width="1" height="1" fill="#C09473" />
<rect x="62" y="114" width="1" height="1" fill="#C09473" />
<rect x="63" y="114" width="1" height="1" fill="#C09473" />
<rect x="64" y="114" width="1" height="1" fill="#752438" />
<rect x="65" y="114" width="1" height="1" fill="#A53030" />
<rect x="66" y="114" width="1" height="1" fill="#A53030" />
<rect x="67" y="114" width="1" height="1" fill="#A53030" />
<rect x="68" y="114" width="1" height="1" fill="#C7CFCC" />
<rect x="69" y="114" width="1" height="1" fill="#C7CFCC" />
<rect x="70" y="114" width="1" height="1" fill="#C7CFCC" />
<rect x="71" y="114" width="1" height="1" fill="#C7CFCC" />
<rect x="72" y="114" width="1" height="1" fill="#C7CFCC" />
<rect x="73" y="114" width="1" height="1" fill="#A53030" />
<rect x="74" y="114" width="1" height="1" fill="#A53030" />
<rect x="75" y="114" width="1" height="1" fill="#752438" />
<rect x="76" y="114" width="1" height="1" fill="#752438" />
<rect x="77" y="114" width="1" height="1" fill="#C09473" />
<rect x="78" y="114" width="1" height="1" fill="#C09473" />
<rect x="79" y="114" width="1" height="1" fill="#C09473" />
<rect x="80" y="114" width="1" height="1" fill="#C09473" />
<rect x="81" y="114" width="1" height="1" fill="#C09473" />
<rect x="82" y="114" width="1" height="1" fill="#C09473" />
<rect x="83" y="114" width="1" height="1" fill="#C09473" />
<rect x="84" y="114" width="1" height="1" fill="#C09473" />
<rect x="85" y="114" width="1" height="1" fill="#C09473" />
<rect x="86" y="114" width="1" height="1" fill="#C09473" />
<rect x="87" y="114" width="1" height="1" fill="#C09473" />
<rect x="88" y="114" width="1" height="1" fill="#C09473" />
<rect x="89" y="114" width="1" height="1" fill="#C09473" />
<rect x="90" y="114" width="1" height="1" fill="#7A4841" />
<rect x="57" y="115" width="1" height="1" fill="#7A4841" />
<rect x="58" y="115" width="1" height="1" fill="#C09473" />
<rect x="59" y="115" width="1" height="1" fill="#C09473" />
<rect x="60" y="115" width="1" height="1" fill="#C09473" />
<rect x="61" y="115" width="1" height="1" fill="#C09473" />
<rect x="62" y="115" width="1" height="1" fill="#C09473" />
<rect x="63" y="115" width="1" height="1" fill="#C09473" />
<rect x="64" y="115" width="1" height="1" fill="#C09473" />
<rect x="65" y="115" width="1" height="1" fill="#752438" />
<rect x="66" y="115" width="1" height="1" fill="#A53030" />
<rect x="67" y="115" width="1" height="1" fill="#A53030" />
<rect x="68" y="115" width="1" height="1" fill="#A53030" />
<rect x="69" y="115" width="1" height="1" fill="#A53030" />
<rect x="70" y="115" width="1" height="1" fill="#C7CFCC" />
<rect x="71" y="115" width="1" height="1" fill="#C7CFCC" />
<rect x="72" y="115" width="1" height="1" fill="#A53030" />
<rect x="73" y="115" width="1" height="1" fill="#A53030" />
<rect x="74" y="115" width="1" height="1" fill="#752438" />
<rect x="75" y="115" width="1" height="1" fill="#C09473" />
<rect x="76" y="115" width="1" height="1" fill="#C09473" />
<rect x="77" y="115" width="1" height="1" fill="#C09473" />
<rect x="78" y="115" width="1" height="1" fill="#C09473" />
<rect x="79" y="115" width="1" height="1" fill="#C09473" />
<rect x="80" y="115" width="1" height="1" fill="#C09473" />
<rect x="81" y="115" width="1" height="1" fill="#C09473" />
<rect x="82" y="115" width="1" height="1" fill="#C09473" />
<rect x="83" y="115" width="1" height="1" fill="#C09473" />
<rect x="84" y="115" width="1" height="1" fill="#C09473" />
<rect x="85" y="115" width="1" height="1" fill="#C09473" />
<rect x="86" y="115" width="1" height="1" fill="#C09473" />
<rect x="87" y="115" width="1" height="1" fill="#C09473" />
<rect x="88" y="115" width="1" height="1" fill="#C09473" />
<rect x="89" y="115" width="1" height="1" fill="#AD7757" />
<rect x="90" y="115" width="1" height="1" fill="#7A4841" />
<rect x="56" y="116" width="1" height="1" fill="#7A4841" />
<rect x="57" y="116" width="1" height="1" fill="#AD7757" />
<rect x="58" y="116" width="1" height="1" fill="#C09473" />
<rect x="59" y="116" width="1" height="1" fill="#C09473" />
<rect x="60" y="116" width="1" height="1" fill="#C09473" />
<rect x="61" y="116" width="1" height="1" fill="#C09473" />
<rect x="62" y="116" width="1" height="1" fill="#C09473" />
<rect x="63" y="116" width="1" height="1" fill="#C09473" />
<rect x="64" y="116" width="1" height="1" fill="#C09473" />
<rect x="65" y="116" width="1" height="1" fill="#C09473" />
<rect x="66" y="116" width="1" height="1" fill="#752438" />
<rect x="67" y="116" width="1" height="1" fill="#752438" />
<rect x="68" y="116" width="1" height="1" fill="#A53030" />
<rect x="69" y="116" width="1" height="1" fill="#A53030" />
<rect x="70" y="116" width="1" height="1" fill="#A53030" />
<rect x="71" y="116" width="1" height="1" fill="#A53030" />
<rect x="72" y="116" width="1" height="1" fill="#752438" />
<rect x="73" y="116" width="1" height="1" fill="#752438" />
<rect x="74" y="116" width="1" height="1" fill="#C09473" />
<rect x="75" y="116" width="1" height="1" fill="#C09473" />
<rect x="76" y="116" width="1" height="1" fill="#C09473" />
<rect x="77" y="116" width="1" height="1" fill="#C09473" />
<rect x="78" y="116" width="1" height="1" fill="#C09473" />
<rect x="79" y="116" width="1" height="1" fill="#C09473" />
<rect x="80" y="116" width="1" height="1" fill="#DF84A5" />
<rect x="81" y="116" width="1" height="1" fill="#C09473" />
<rect x="82" y="116" width="1" height="1" fill="#C09473" />
<rect x="83" y="116" width="1" height="1" fill="#C09473" />
<rect x="84" y="116" width="1" height="1" fill="#C09473" />
<rect x="85" y="116" width="1" height="1" fill="#C09473" />
<rect x="86" y="116" width="1" height="1" fill="#C09473" />
<rect x="87" y="116" width="1" height="1" fill="#C09473" />
<rect x="88" y="116" width="1" height="1" fill="#AD7757" />
<rect x="89" y="116" width="1" height="1" fill="#7A4841" />
<rect x="90" y="116" width="1" height="1" fill="#4D2B32" />
<rect x="56" y="117" width="1" height="1" fill="#4D2B32" />
<rect x="57" y="117" width="1" height="1" fill="#7A4841" />
<rect x="58" y="117" width="1" height="1" fill="#AD7757" />
<rect x="59" y="117" width="1" height="1" fill="#AD7757" />
<rect x="60" y="117" width="1" height="1" fill="#C09473" />
<rect x="61" y="117" width="1" height="1" fill="#C09473" />
<rect x="62" y="117" width="1" height="1" fill="#C09473" />
<rect x="63" y="117" width="1" height="1" fill="#C09473" />
<rect x="64" y="117" width="1" height="1" fill="#C09473" />
<rect x="65" y="117" width="1" height="1" fill="#C09473" />
<rect x="66" y="117" width="1" height="1" fill="#C09473" />
<rect x="67" y="117" width="1" height="1" fill="#C09473" />
<rect x="68" y="117" width="1" height="1" fill="#752438" />
<rect x="69" y="117" width="1" height="1" fill="#752438" />
<rect x="70" y="117" width="1" height="1" fill="#A53030" />
<rect x="71" y="117" width="1" height="1" fill="#752438" />
<rect x="72" y="117" width="1" height="1" fill="#C09473" />
<rect x="73" y="117" width="1" height="1" fill="#C09473" />
<rect x="74" y="117" width="1" height="1" fill="#C09473" />
<rect x="75" y="117" width="1" height="1" fill="#C09473" />
<rect x="76" y="117" width="1" height="1" fill="#C09473" />
<rect x="77" y="117" width="1" height="1" fill="#C09473" />
<rect x="78" y="117" width="1" height="1" fill="#C09473" />
<rect x="79" y="117" width="1" height="1" fill="#DE9E41" />
<rect x="80" y="117" width="1" height="1" fill="#E8C170" />
<rect x="81" y="117" width="1" height="1" fill="#C09473" />
<rect x="82" y="117" width="1" height="1" fill="#C09473" />
<rect x="83" y="117" width="1" height="1" fill="#C09473" />
<rect x="84" y="117" width="1" height="1" fill="#C09473" />
<rect x="85" y="117" width="1" height="1" fill="#C09473" />
<rect x="86" y="117" width="1" height="1" fill="#C09473" />
<rect x="87" y="117" width="1" height="1" fill="#AD7757" />
<rect x="88" y="117" width="1" height="1" fill="#7A4841" />
<rect x="89" y="117" width="1" height="1" fill="#4D2B32" />
<rect x="57" y="118" width="1" height="1" fill="#4D2B32" />
<rect x="58" y="118" width="1" height="1" fill="#7A4841" />
<rect x="59" y="118" width="1" height="1" fill="#7A4841" />
<rect x="60" y="118" width="1" height="1" fill="#AD7757" />
<rect x="61" y="118" width="1" height="1" fill="#C09473" />
<rect x="62" y="118" width="1" height="1" fill="#C09473" />
<rect x="63" y="118" width="1" height="1" fill="#C09473" />
<rect x="64" y="118" width="1" height="1" fill="#C09473" />
<rect x="65" y="118" width="1" height="1" fill="#C09473" />
<rect x="66" y="118" width="1" height="1" fill="#C09473" />
<rect x="67" y="118" width="1" height="1" fill="#C09473" />
<rect x="68" y="118" width="1" height="1" fill="#C09473" />
<rect x="69" y="118" width="1" height="1" fill="#C09473" />
<rect x="70" y="118" width="1" height="1" fill="#752438" />
<rect x="71" y="118" width="1" height="1" fill="#C09473" />
<rect x="72" y="118" width="1" height="1" fill="#C09473" />
<rect x="73" y="118" width="1" height="1" fill="#C09473" />
<rect x="74" y="118" width="1" height="1" fill="#C09473" />
<rect x="75" y="118" width="1" height="1" fill="#C09473" />
<rect x="76" y="118" width="1" height="1" fill="#C09473" />
<rect x="77" y="118" width="1" height="1" fill="#DE9E41" />
<rect x="78" y="118" width="1" height="1" fill="#DE9E41" />
<rect x="79" y="118" width="1" height="1" fill="#E8C170" />
<rect x="80" y="118" width="1" height="1" fill="#C09473" />
<rect x="81" y="118" width="1" height="1" fill="#C09473" />
<rect x="82" y="118" width="1" height="1" fill="#C09473" />
<rect x="83" y="118" width="1" height="1" fill="#C09473" />
<rect x="84" y="118" width="1" height="1" fill="#C09473" />
<rect x="85" y="118" width="1" height="1" fill="#AD7757" />
<rect x="86" y="118" width="1" height="1" fill="#AD7757" />
<rect x="87" y="118" width="1" height="1" fill="#7A4841" />
<rect x="88" y="118" width="1" height="1" fill="#4D2B32" />
<rect x="89" y="118" width="1" height="1" fill="#819796" />
<rect x="57" y="119" width="1" height="1" fill="#A8B5B2" />
<rect x="58" y="119" width="1" height="1" fill="#4D2B32" />
<rect x="59" y="119" width="1" height="1" fill="#4D2B32" />
<rect x="60" y="119" width="1" height="1" fill="#7A4841" />
<rect x="61" y="119" width="1" height="1" fill="#AD7757" />
<rect x="62" y="119" width="1" height="1" fill="#AD7757" />
<rect x="63" y="119" width="1" height="1" fill="#C09473" />
<rect x="64" y="119" width="1" height="1" fill="#C09473" />
<rect x="65" y="119" width="1" height="1" fill="#C09473" />
<rect x="66" y="119" width="1" height="1" fill="#C09473" />
<rect x="67" y="119" width="1" height="1" fill="#C09473" />
<rect x="68" y="119" width="1" height="1" fill="#C09473" />
<rect x="69" y="119" width="1" height="1" fill="#C09473" />
<rect x="70" y="119" width="1" height="1" fill="#C09473" />
<rect x="71" y="119" width="1" height="1" fill="#C09473" />
<rect x="72" y="119" width="1" height="1" fill="#C09473" />
<rect x="73" y="119" width="1" height="1" fill="#C09473" />
<rect x="74" y="119" width="1" height="1" fill="#C09473" />
<rect x="75" y="119" width="1" height="1" fill="#C09473" />
<rect x="76" y="119" width="1" height="1" fill="#DE9E41" />
<rect x="77" y="119" width="1" height="1" fill="#E8C170" />
<rect x="78" y="119" width="1" height="1" fill="#E8C170" />
<rect x="79" y="119" width="1" height="1" fill="#C09473" />
<rect x="80" y="119" width="1" height="1" fill="#C09473" />
<rect x="81" y="119" width="1" height="1" fill="#C09473" />
<rect x="82" y="119" width="1" height="1" fill="#C09473" />
<rect x="83" y="119" width="1" height="1" fill="#AD7757" />
<rect x="84" y="119" width="1" height="1" fill="#AD7757" />
<rect x="85" y="119" width="1" height="1" fill="#7A4841" />
<rect x="86" y="119" width="1" height="1" fill="#7A4841" />
<rect x="87" y="119" width="1" height="1" fill="#4D2B32" />
<rect x="88" y="119" width="1" height="1" fill="#577277" />
<rect x="89" y="119" width="1" height="1" fill="#819796" />
<rect x="57" y="120" width="1" height="1" fill="#A8B5B2" />
<rect x="58" y="120" width="1" height="1" fill="#819796" />
<rect x="59" y="120" width="1" height="1" fill="#577277" />
<rect x="60" y="120" width="1" height="1" fill="#4D2B32" />
<rect x="61" y="120" width="1" height="1" fill="#7A4841" />
<rect x="62" y="120" width="1" height="1" fill="#7A4841" />
<rect x="63" y="120" width="1" height="1" fill="#AD7757" />
<rect x="64" y="120" width="1" height="1" fill="#C09473" />
<rect x="65" y="120" width="1" height="1" fill="#C09473" />
<rect x="66" y="120" width="1" height="1" fill="#C09473" />
<rect x="67" y="120" width="1" height="1" fill="#C09473" />
<rect x="68" y="120" width="1" height="1" fill="#C09473" />
<rect x="69" y="120" width="1" height="1" fill="#C09473" />
<rect x="70" y="120" width="1" height="1" fill="#C09473" />
<rect x="71" y="120" width="1" height="1" fill="#C09473" />
<rect x="72" y="120" width="1" height="1" fill="#C09473" />
<rect x="73" y="120" width="1" height="1" fill="#C09473" />
<rect x="74" y="120" width="1" height="1" fill="#C09473" />
<rect x="75" y="120" width="1" height="1" fill="#151D28" />
<rect x="76" y="120" width="1" height="1" fill="#E8C170" />
<rect x="77" y="120" width="1" height="1" fill="#C09473" />
<rect x="78" y="120" width="1" height="1" fill="#C09473" />
<rect x="79" y="120" width="1" height="1" fill="#C09473" />
<rect x="80" y="120" width="1" height="1" fill="#C09473" />
<rect x="81" y="120" width="1" height="1" fill="#C09473" />
<rect x="82" y="120" width="1" height="1" fill="#AD7757" />
<rect x="83" y="120" width="1" height="1" fill="#7A4841" />
<rect x="84" y="120" width="1" height="1" fill="#7A4841" />
<rect x="85" y="120" width="1" height="1" fill="#4D2B32" />
<rect x="86" y="120" width="1" height="1" fill="#4D2B32" />
<rect x="87" y="120" width="1" height="1" fill="#394A50" />
<rect x="88" y="120" width="1" height="1" fill="#577277" />
<rect x="89" y="120" width="1" height="1" fill="#819796" />
<rect x="57" y="121" width="1" height="1" fill="#A8B5B2" />
<rect x="58" y="121" width="1" height="1" fill="#819796" />
<rect x="59" y="121" width="1" height="1" fill="#577277" />
<rect x="61" y="121" width="1" height="1" fill="#4D2B32" />
<rect x="62" y="121" width="1" height="1" fill="#4D2B32" />
<rect x="63" y="121" width="1" height="1" fill="#7A4841" />
<rect x="64" y="121" width="1" height="1" fill="#AD7757" />
<rect x="65" y="121" width="1" height="1" fill="#AD7757" />
<rect x="66" y="121" width="1" height="1" fill="#C09473" />
<rect x="67" y="121" width="1" height="1" fill="#C09473" />
<rect x="68" y="121" width="1" height="1" fill="#C09473" />
<rect x="69" y="121" width="1" height="1" fill="#C09473" />
<rect x="70" y="121" width="1" height="1" fill="#C09473" />
<rect x="71" y="121" width="1" height="1" fill="#C09473" />
<rect x="72" y="121" width="1" height="1" fill="#C09473" />
<rect x="73" y="121" width="1" height="1" fill="#C09473" />
<rect x="74" y="121" width="1" height="1" fill="#C09473" />
<rect x="75" y="121" width="1" height="1" fill="#C09473" />
<rect x="76" y="121" width="1" height="1" fill="#C09473" />
<rect x="77" y="121" width="1" height="1" fill="#C09473" />
<rect x="78" y="121" width="1" height="1" fill="#C09473" />
<rect x="79" y="121" width="1" height="1" fill="#C09473" />
<rect x="80" y="121" width="1" height="1" fill="#AD7757" />
<rect x="81" y="121" width="1" height="1" fill="#AD7757" />
<rect x="82" y="121" width="1" height="1" fill="#7A4841" />
<rect x="83" y="121" width="1" height="1" fill="#7A4841" />
<rect x="84" y="121" width="1" height="1" fill="#4D2B32" />
<rect x="86" y="121" width="1" height="1" fill="#151D28" />
<rect x="87" y="121" width="1" height="1" fill="#394A50" />
<rect x="88" y="121" width="1" height="1" fill="#577277" />
<rect x="89" y="121" width="1" height="1" fill="#819796" />
<rect x="57" y="122" width="1" height="1" fill="#A8B5B2" />
<rect x="58" y="122" width="1" height="1" fill="#819796" />
<rect x="59" y="122" width="1" height="1" fill="#577277" />
<rect x="61" y="122" width="1" height="1" fill="#151D28" />
<rect x="63" y="122" width="1" height="1" fill="#4D2B32" />
<rect x="64" y="122" width="1" height="1" fill="#7A4841" />
<rect x="65" y="122" width="1" height="1" fill="#7A4841" />
<rect x="66" y="122" width="1" height="1" fill="#AD7757" />
<rect x="67" y="122" width="1" height="1" fill="#C09473" />
<rect x="68" y="122" width="1" height="1" fill="#C09473" />
<rect x="69" y="122" width="1" height="1" fill="#C09473" />
<rect x="70" y="122" width="1" height="1" fill="#C09473" />
<rect x="71" y="122" width="1" height="1" fill="#C09473" />
<rect x="72" y="122" width="1" height="1" fill="#C09473" />
<rect x="73" y="122" width="1" height="1" fill="#C09473" />
<rect x="74" y="122" width="1" height="1" fill="#C09473" />
<rect x="75" y="122" width="1" height="1" fill="#C09473" />
<rect x="76" y="122" width="1" height="1" fill="#C09473" />
<rect x="77" y="122" width="1" height="1" fill="#C09473" />
<rect x="78" y="122" width="1" height="1" fill="#C09473" />
<rect x="79" y="122" width="1" height="1" fill="#AD7757" />
<rect x="80" y="122" width="1" height="1" fill="#7A4841" />
<rect x="81" y="122" width="1" height="1" fill="#7A4841" />
<rect x="82" y="122" width="1" height="1" fill="#4D2B32" />
<rect x="83" y="122" width="1" height="1" fill="#4D2B32" />
<rect x="86" y="122" width="1" height="1" fill="#151D28" />
<rect x="87" y="122" width="1" height="1" fill="#394A50" />
<rect x="88" y="122" width="1" height="1" fill="#577277" />
<rect x="89" y="122" width="1" height="1" fill="#819796" />
<rect x="57" y="123" width="1" height="1" fill="#A8B5B2" />
<rect x="58" y="123" width="1" height="1" fill="#819796" />
<rect x="59" y="123" width="1" height="1" fill="#577277" />
<rect x="60" y="123" width="1" height="1" fill="#151D28" />
<rect x="63" y="123" width="1" height="1" fill="#819796" />
<rect x="64" y="123" width="1" height="1" fill="#4D2B32" />
<rect x="65" y="123" width="1" height="1" fill="#4D2B32" />
<rect x="66" y="123" width="1" height="1" fill="#7A4841" />
<rect x="67" y="123" width="1" height="1" fill="#AD7757" />
<rect x="68" y="123" width="1" height="1" fill="#AD7757" />
<rect x="69" y="123" width="1" height="1" fill="#C09473" />
<rect x="70" y="123" width="1" height="1" fill="#C09473" />
<rect x="71" y="123" width="1" height="1" fill="#C09473" />
<rect x="72" y="123" width="1" height="1" fill="#C09473" />
<rect x="73" y="123" width="1" height="1" fill="#C09473" />
<rect x="74" y="123" width="1" height="1" fill="#C09473" />
<rect x="75" y="123" width="1" height="1" fill="#C09473" />
<rect x="76" y="123" width="1" height="1" fill="#C09473" />
<rect x="77" y="123" width="1" height="1" fill="#AD7757" />
<rect x="78" y="123" width="1" height="1" fill="#AD7757" />
<rect x="79" y="123" width="1" height="1" fill="#7A4841" />
<rect x="80" y="123" width="1" height="1" fill="#4D2B32" />
<rect x="81" y="123" width="1" height="1" fill="#4D2B32" />
<rect x="82" y="123" width="1" height="1" fill="#819796" />
<rect x="84" y="123" width="1" height="1" fill="#151D28" />
<rect x="85" y="123" width="1" height="1" fill="#151D28" />
<rect x="86" y="123" width="1" height="1" fill="#202E37" />
<rect x="87" y="123" width="1" height="1" fill="#394A50" />
<rect x="88" y="123" width="1" height="1" fill="#577277" />
<rect x="89" y="123" width="1" height="1" fill="#819796" />
<rect x="57" y="124" width="1" height="1" fill="#A8B5B2" />
<rect x="58" y="124" width="1" height="1" fill="#819796" />
<rect x="59" y="124" width="1" height="1" fill="#577277" />
<rect x="60" y="124" width="1" height="1" fill="#202E37" />
<rect x="61" y="124" width="1" height="1" fill="#151D28" />
<rect x="62" y="124" width="1" height="1" fill="#151D28" />
<rect x="63" y="124" width="1" height="1" fill="#7A4841" opacity="0.996078" />
<rect x="64" y="124" width="1" height="1" fill="#7A4841" opacity="0.996078" />
<rect x="65" y="124" width="1" height="1" fill="#7A4841" opacity="0.996078" />
<rect x="66" y="124" width="1" height="1" fill="#4D2B32" />
<rect x="67" y="124" width="1" height="1" fill="#7A4841" />
<rect x="68" y="124" width="1" height="1" fill="#7A4841" />
<rect x="69" y="124" width="1" height="1" fill="#AD7757" />
<rect x="70" y="124" width="1" height="1" fill="#AD7757" />
<rect x="71" y="124" width="1" height="1" fill="#C09473" />
<rect x="72" y="124" width="1" height="1" fill="#C09473" />
<rect x="73" y="124" width="1" height="1" fill="#C09473" />
<rect x="74" y="124" width="1" height="1" fill="#C09473" />
<rect x="75" y="124" width="1" height="1" fill="#AD7757" />
<rect x="76" y="124" width="1" height="1" fill="#AD7757" />
<rect x="77" y="124" width="1" height="1" fill="#7A4841" />
<rect x="78" y="124" width="1" height="1" fill="#7A4841" />
<rect x="79" y="124" width="1" height="1" fill="#4D2B32" />
<rect x="80" y="124" width="1" height="1" fill="#7A4841" opacity="0.996078" />
<rect x="81" y="124" width="1" height="1" fill="#7A4841" opacity="0.996078" />
<rect x="82" y="124" width="1" height="1" fill="#7A4841" opacity="0.996078" />
<rect x="83" y="124" width="1" height="1" fill="#151D28" />
<rect x="84" y="124" width="1" height="1" fill="#202E37" />
<rect x="85" y="124" width="1" height="1" fill="#202E37" />
<rect x="86" y="124" width="1" height="1" fill="#151D28" />
<rect x="87" y="124" width="1" height="1" fill="#394A50" />
<rect x="88" y="124" width="1" height="1" fill="#577277" />
<rect x="89" y="124" width="1" height="1" fill="#819796" />
<rect x="57" y="125" width="1" height="1" fill="#A8B5B2" />
<rect x="58" y="125" width="1" height="1" fill="#819796" />
<rect x="59" y="125" width="1" height="1" fill="#577277" />
<rect x="60" y="125" width="1" height="1" fill="#151D28" />
<rect x="61" y="125" width="1" height="1" fill="#202E37" />
<rect x="62" y="125" width="1" height="1" fill="#202E37" />
<rect x="63" y="125" width="1" height="1" fill="#151D28" />
<rect x="64" y="125" width="1" height="1" fill="#7A4841" opacity="0.996078" />
<rect x="65" y="125" width="1" height="1" fill="#7A4841" opacity="0.996078" />
<rect x="66" y="125" width="1" height="1" fill="#819796" />
<rect x="67" y="125" width="1" height="1" fill="#4D2B32" />
<rect x="68" y="125" width="1" height="1" fill="#4D2B32" />
<rect x="69" y="125" width="1" height="1" fill="#7A4841" />
<rect x="70" y="125" width="1" height="1" fill="#7A4841" />
<rect x="71" y="125" width="1" height="1" fill="#AD7757" />
<rect x="72" y="125" width="1" height="1" fill="#AD7757" />
<rect x="73" y="125" width="1" height="1" fill="#AD7757" />
<rect x="74" y="125" width="1" height="1" fill="#AD7757" />
<rect x="75" y="125" width="1" height="1" fill="#7A4841" />
<rect x="76" y="125" width="1" height="1" fill="#7A4841" />
<rect x="77" y="125" width="1" height="1" fill="#4D2B32" />
<rect x="78" y="125" width="1" height="1" fill="#4D2B32" />
<rect x="79" y="125" width="1" height="1" fill="#819796" />
<rect x="80" y="125" width="1" height="1" fill="#7A4841" opacity="0.996078" />
<rect x="81" y="125" width="1" height="1" fill="#151D28" />
<rect x="82" y="125" width="1" height="1" fill="#151D28" />
<rect x="83" y="125" width="1" height="1" fill="#202E37" />
<rect x="84" y="125" width="1" height="1" fill="#151D28" />
<rect x="85" y="125" width="1" height="1" fill="#151D28" />
<rect x="87" y="125" width="1" height="1" fill="#394A50" />
<rect x="88" y="125" width="1" height="1" fill="#577277" />
<rect x="89" y="125" width="1" height="1" fill="#819796" />
<rect x="57" y="126" width="1" height="1" fill="#A8B5B2" />
<rect x="58" y="126" width="1" height="1" fill="#819796" />
<rect x="59" y="126" width="1" height="1" fill="#577277" />
<rect x="60" y="126" width="1" height="1" fill="#7A4841" opacity="0.996078" />
<rect x="61" y="126" width="1" height="1" fill="#151D28" />
<rect x="62" y="126" width="1" height="1" fill="#151D28" />
<rect x="63" y="126" width="1" height="1" fill="#202E37" />
<rect x="64" y="126" width="1" height="1" fill="#151D28" />
<rect x="65" y="126" width="1" height="1" fill="#151D28" />
<rect x="66" y="126" width="1" height="1" fill="#7A4841" opacity="0.996078" />
<rect x="67" y="126" width="1" height="1" fill="#7A4841" opacity="0.996078" />
<rect x="68" y="126" width="1" height="1" fill="#7A4841" opacity="0.996078" />
<rect x="69" y="126" width="1" height="1" fill="#4D2B32" />
<rect x="70" y="126" width="1" height="1" fill="#4D2B32" />
<rect x="71" y="126" width="1" height="1" fill="#7A4841" />
<rect x="72" y="126" width="1" height="1" fill="#7A4841" />
<rect x="73" y="126" width="1" height="1" fill="#7A4841" />
<rect x="74" y="126" width="1" height="1" fill="#7A4841" />
<rect x="75" y="126" width="1" height="1" fill="#4D2B32" />
<rect x="76" y="126" width="1" height="1" fill="#4D2B32" />
<rect x="77" y="126" width="1" height="1" fill="#7A4841" opacity="0.996078" />
<rect x="78" y="126" width="1" height="1" fill="#7A4841" opacity="0.996078" />
<rect x="79" y="126" width="1" height="1" fill="#7A4841" opacity="0.996078" />
<rect x="80" y="126" width="1" height="1" fill="#151D28" />
<rect x="81" y="126" width="1" height="1" fill="#202E37" />
<rect x="82" y="126" width="1" height="1" fill="#202E37" />
<rect x="83" y="126" width="1" height="1" fill="#151D28" />
<rect x="84" y="126" width="1" height="1" fill="#7A4841" opacity="0.996078" />
<rect x="85" y="126" width="1" height="1" fill="#7A4841" opacity="0.996078" />
<rect x="86" y="126" width="1" height="1" fill="#7A4841" opacity="0.996078" />
<rect x="87" y="126" width="1" height="1" fill="#394A50" />
<rect x="88" y="126" width="1" height="1" fill="#577277" />
<rect x="89" y="126" width="1" height="1" fill="#819796" />
<rect x="57" y="127" width="1" height="1" fill="#A8B5B2" />
<rect x="58" y="127" width="1" height="1" fill="#819796" />
<rect x="59" y="127" width="1" height="1" fill="#577277" />
<rect x="60" y="127" width="1" height="1" fill="#7A4841" opacity="0.996078" />
<rect x="61" y="127" width="1" height="1" fill="#7A4841" opacity="0.996078" />
<rect x="62" y="127" width="1" height="1" fill="#7A4841" opacity="0.996078" />
<rect x="63" y="127" width="1" height="1" fill="#151D28" />
<rect x="64" y="127" width="1" height="1" fill="#202E37" />
<rect x="65" y="127" width="1" height="1" fill="#202E37" />
<rect x="66" y="127" width="1" height="1" fill="#151D28" />
<rect x="67" y="127" width="1" height="1" fill="#151D28" />
<rect x="68" y="127" width="1" height="1" fill="#7A4841" opacity="0.996078" />
<rect x="69" y="127" width="1" height="1" fill="#819796" />
<rect x="70" y="127" width="1" height="1" fill="#4D2B32" />
<rect x="71" y="127" width="1" height="1" fill="#4D2B32" />
<rect x="72" y="127" width="1" height="1" fill="#4D2B32" />
<rect x="73" y="127" width="1" height="1" fill="#4D2B32" />
<rect x="74" y="127" width="1" height="1" fill="#4D2B32" />
<rect x="75" y="127" width="1" height="1" fill="#4D2B32" />
<rect x="76" y="127" width="1" height="1" fill="#819796" />
<rect x="77" y="127" width="1" height="1" fill="#7A4841" opacity="0.996078" />
<rect x="78" y="127" width="1" height="1" fill="#7A4841" opacity="0.996078" />
<rect x="79" y="127" width="1" height="1" fill="#151D28" />
<rect x="80" y="127" width="1" height="1" fill="#202E37" />
<rect x="81" y="127" width="1" height="1" fill="#151D28" />
<rect x="82" y="127" width="1" height="1" fill="#151D28" />
<rect x="83" y="127" width="1" height="1" fill="#7A4841" opacity="0.996078" />
<rect x="84" y="127" width="1" height="1" fill="#7A4841" opacity="0.996078" />
<rect x="85" y="127" width="1" height="1" fill="#7A4841" opacity="0.996078" />
<rect x="86" y="127" width="1" height="1" fill="#7A4841" opacity="0.996078" />
<rect x="87" y="127" width="1" height="1" fill="#394A50" />
<rect x="88" y="127" width="1" height="1" fill="#577277" />
<rect x="89" y="127" width="1" height="1" fill="#819796" />
<rect x="57" y="128" width="1" height="1" fill="#A8B5B2" />
<rect x="58" y="128" width="1" height="1" fill="#819796" />
<rect x="59" y="128" width="1" height="1" fill="#577277" />
<rect x="60" y="128" width="1" height="1" fill="#7A4841" opacity="0.996078" />
<rect x="61" y="128" width="1" height="1" fill="#7A4841" opacity="0.996078" />
<rect x="62" y="128" width="1" height="1" fill="#7A4841" opacity="0.996078" />
<rect x="63" y="128" width="1" height="1" fill="#7A4841" opacity="0.996078" />
<rect x="64" y="128" width="1" height="1" fill="#151D28" />
<rect x="65" y="128" width="1" height="1" fill="#151D28" />
<rect x="66" y="128" width="1" height="1" fill="#202E37" />
<rect x="67" y="128" width="1" height="1" fill="#202E37" />
<rect x="68" y="128" width="1" height="1" fill="#151D28" />
<rect x="69" y="128" width="1" height="1" fill="#7A4841" opacity="0.996078" />
<rect x="70" y="128" width="1" height="1" fill="#7A4841" opacity="0.996078" />
<rect x="71" y="128" width="1" height="1" fill="#7A4841" opacity="0.996078" />
<rect x="72" y="128" width="1" height="1" fill="#C7CFCC" />
<rect x="73" y="128" width="1" height="1" fill="#A8B5B2" />
<rect x="74" y="128" width="1" height="1" fill="#819796" />
<rect x="75" y="128" width="1" height="1" fill="#577277" />
<rect x="76" y="128" width="1" height="1" fill="#7A4841" opacity="0.996078" />
<rect x="77" y="128" width="1" height="1" fill="#151D28" />
<rect x="78" y="128" width="1" height="1" fill="#151D28" />
<rect x="79" y="128" width="1" height="1" fill="#202E37" />
<rect x="80" y="128" width="1" height="1" fill="#151D28" />
<rect x="81" y="128" width="1" height="1" fill="#7A4841" opacity="0.996078" />
<rect x="82" y="128" width="1" height="1" fill="#7A4841" opacity="0.996078" />
<rect x="83" y="128" width="1" height="1" fill="#7A4841" opacity="0.996078" />
<rect x="84" y="128" width="1" height="1" fill="#7A4841" opacity="0.996078" />
<rect x="85" y="128" width="1" height="1" fill="#7A4841" opacity="0.996078" />
<rect x="86" y="128" width="1" height="1" fill="#7A4841" opacity="0.996078" />
<rect x="87" y="128" width="1" height="1" fill="#394A50" />
<rect x="88" y="128" width="1" height="1" fill="#577277" />
<rect x="89" y="128" width="1" height="1" fill="#819796" />
<rect x="58" y="129" width="1" height="1" fill="#819796" />
<rect x="59" y="129" width="1" height="1" fill="#577277" />
<rect x="60" y="129" width="1" height="1" fill="#7A4841" opacity="0.996078" />
<rect x="61" y="129" width="1" height="1" fill="#7A4841" opacity="0.996078" />
<rect x="62" y="129" width="1" height="1" fill="#7A4841" opacity="0.996078" />
<rect x="63" y="129" width="1" height="1" fill="#7A4841" opacity="0.996078" />
<rect x="64" y="129" width="1" height="1" fill="#7A4841" opacity="0.996078" />
<rect x="65" y="129" width="1" height="1" fill="#7A4841" opacity="0.996078" />
<rect x="66" y="129" width="1" height="1" fill="#151D28" />
<rect x="67" y="129" width="1" height="1" fill="#151D28" />
<rect x="68" y="129" width="1" height="1" fill="#202E37" />
<rect x="69" y="129" width="1" height="1" fill="#151D28" />
<rect x="70" y="129" width="1" height="1" fill="#151D28" />
<rect x="71" y="129" width="1" height="1" fill="#819796" />
<rect x="72" y="129" width="1" height="1" fill="#C7CFCC" />
<rect x="73" y="129" width="1" height="1" fill="#A8B5B2" />
<rect x="74" y="129" width="1" height="1" fill="#819796" />
<rect x="75" y="129" width="1" height="1" fill="#577277" />
<rect x="76" y="129" width="1" height="1" fill="#151D28" />
<rect x="77" y="129" width="1" height="1" fill="#202E37" />
<rect x="78" y="129" width="1" height="1" fill="#202E37" />
<rect x="79" y="129" width="1" height="1" fill="#151D28" />
<rect x="80" y="129" width="1" height="1" fill="#7A4841" opacity="0.996078" />
<rect x="81" y="129" width="1" height="1" fill="#7A4841" opacity="0.996078" />
<rect x="82" y="129" width="1" height="1" fill="#7A4841" opacity="0.996078" />
<rect x="83" y="129" width="1" height="1" fill="#7A4841" opacity="0.996078" />
<rect x="84" y="129" width="1" height="1" fill="#7A4841" opacity="0.996078" />
<rect x="85" y="129" width="1" height="1" fill="#7B4942" opacity="0.996078" />
<rect x="87" y="129" width="1" height="1" fill="#394A50" />
<rect x="88" y="129" width="1" height="1" fill="#577277" />
<rect x="89" y="129" width="1" height="1" fill="#819796" />
<rect x="61" y="130" width="1" height="1" fill="#7A4841" opacity="0.996078" />
<rect x="62" y="130" width="1" height="1" fill="#7A4841" opacity="0.996078" />
<rect x="63" y="130" width="1" height="1" fill="#7A4841" opacity="0.996078" />
<rect x="64" y="130" width="1" height="1" fill="#7A4841" opacity="0.996078" />
<rect x="65" y="130" width="1" height="1" fill="#7A4841" opacity="0.996078" />
<rect x="66" y="130" width="1" height="1" fill="#7A4841" opacity="0.996078" />
<rect x="67" y="130" width="1" height="1" fill="#7A4841" opacity="0.996078" />
<rect x="68" y="130" width="1" height="1" fill="#151D28" />
<rect x="69" y="130" width="1" height="1" fill="#202E37" />
<rect x="70" y="130" width="1" height="1" fill="#202E37" />
<rect x="71" y="130" width="1" height="1" fill="#151D28" />
<rect x="72" y="130" width="1" height="1" fill="#C7CFCC" />
<rect x="73" y="130" width="1" height="1" fill="#A8B5B2" />
<rect x="74" y="130" width="1" height="1" fill="#819796" />
<rect x="75" y="130" width="1" height="1" fill="#577277" />
<rect x="76" y="130" width="1" height="1" fill="#202E37" />
<rect x="77" y="130" width="1" height="1" fill="#151D28" />
<rect x="78" y="130" width="1" height="1" fill="#151D28" />
<rect x="79" y="130" width="1" height="1" fill="#7A4841" opacity="0.996078" />
<rect x="80" y="130" width="1" height="1" fill="#7A4841" opacity="0.996078" />
<rect x="81" y="130" width="1" height="1" fill="#7A4841" opacity="0.996078" />
<rect x="82" y="130" width="1" height="1" fill="#7A4841" opacity="0.996078" />
<rect x="83" y="130" width="1" height="1" fill="#7A4841" opacity="0.996078" />
<rect x="87" y="130" width="1" height="1" fill="#394A50" />
<rect x="88" y="130" width="1" height="1" fill="#577277" />
<rect x="62" y="131" width="1" height="1" fill="#7A4841" opacity="0.996078" />
<rect x="63" y="131" width="1" height="1" fill="#7A4841" opacity="0.996078" />
<rect x="64" y="131" width="1" height="1" fill="#7A4841" opacity="0.996078" />
<rect x="65" y="131" width="1" height="1" fill="#7A4841" opacity="0.996078" />
<rect x="66" y="131" width="1" height="1" fill="#7A4841" opacity="0.996078" />
<rect x="67" y="131" width="1" height="1" fill="#7A4841" opacity="0.996078" />
<rect x="68" y="131" width="1" height="1" fill="#7A4841" opacity="0.996078" />
<rect x="69" y="131" width="1" height="1" fill="#151D28" />
<rect x="70" y="131" width="1" height="1" fill="#151D28" />
<rect x="71" y="131" width="1" height="1" fill="#202E37" />
<rect x="72" y="131" width="1" height="1" fill="#C7CFCC" />
<rect x="73" y="131" width="1" height="1" fill="#A8B5B2" />
<rect x="74" y="131" width="1" height="1" fill="#819796" />
<rect x="75" y="131" width="1" height="1" fill="#577277" />
<rect x="76" y="131" width="1" height="1" fill="#151D28" />
<rect x="77" y="131" width="1" height="1" fill="#7A4841" opacity="0.996078" />
<rect x="78" y="131" width="1" height="1" fill="#7A4841" opacity="0.996078" />
<rect x="79" y="131" width="1" height="1" fill="#7A4841" opacity="0.996078" />
<rect x="80" y="131" width="1" height="1" fill="#7A4841" opacity="0.996078" />
<rect x="81" y="131" width="1" height="1" fill="#7A4841" opacity="0.996078" />
<rect x="64" y="132" width="1" height="1" fill="#7A4841" opacity="0.996078" />
<rect x="65" y="132" width="1" height="1" fill="#7A4841" opacity="0.996078" />
<rect x="66" y="132" width="1" height="1" fill="#7A4841" opacity="0.996078" />
<rect x="67" y="132" width="1" height="1" fill="#7A4841" opacity="0.996078" />
<rect x="68" y="132" width="1" height="1" fill="#7A4841" opacity="0.996078" />
<rect x="69" y="132" width="1" height="1" fill="#7A4841" opacity="0.996078" />
<rect x="70" y="132" width="1" height="1" fill="#7A4841" opacity="0.996078" />
<rect x="71" y="132" width="1" height="1" fill="#151D28" />
<rect x="72" y="132" width="1" height="1" fill="#C7CFCC" />
<rect x="73" y="132" width="1" height="1" fill="#A8B5B2" />
<rect x="74" y="132" width="1" height="1" fill="#819796" />
<rect x="75" y="132" width="1" height="1" fill="#577277" />
<rect x="76" y="132" width="1" height="1" fill="#7A4841" opacity="0.996078" />
<rect x="77" y="132" width="1" height="1" fill="#7A4841" opacity="0.996078" />
<rect x="78" y="132" width="1" height="1" fill="#7A4841" opacity="0.996078" />
<rect x="79" y="132" width="1" height="1" fill="#7A4841" opacity="0.996078" />
<rect x="80" y="132" width="1" height="1" fill="#7A4841" opacity="0.996078" />
<rect x="66" y="133" width="1" height="1" fill="#7A4841" opacity="0.996078" />
<rect x="67" y="133" width="1" height="1" fill="#7A4841" opacity="0.996078" />
<rect x="68" y="133" width="1" height="1" fill="#7A4841" opacity="0.996078" />
<rect x="69" y="133" width="1" height="1" fill="#7A4841" opacity="0.996078" />
<rect x="70" y="133" width="1" height="1" fill="#7A4841" opacity="0.996078" />
<rect x="71" y="133" width="1" height="1" fill="#7A4841" opacity="0.996078" />
<rect x="72" y="133" width="1" height="1" fill="#C7CFCC" />
<rect x="73" y="133" width="1" height="1" fill="#A8B5B2" />
<rect x="74" y="133" width="1" height="1" fill="#819796" />
<rect x="75" y="133" width="1" height="1" fill="#577277" />
<rect x="76" y="133" width="1" height="1" fill="#7A4841" opacity="0.996078" />
<rect x="77" y="133" width="1" height="1" fill="#7A4841" opacity="0.996078" />
<rect x="78" y="133" width="1" height="1" fill="#7A4841" opacity="0.996078" />
<rect x="67" y="134" width="1" height="1" fill="#7A4841" opacity="0.996078" />
<rect x="68" y="134" width="1" height="1" fill="#7A4841" opacity="0.996078" />
<rect x="69" y="134" width="1" height="1" fill="#7A4841" opacity="0.996078" />
<rect x="70" y="134" width="1" height="1" fill="#7A4841" opacity="0.996078" />
<rect x="71" y="134" width="1" height="1" fill="#7A4841" opacity="0.996078" />
<rect x="72" y="134" width="1" height="1" fill="#C7CFCC" />
<rect x="73" y="134" width="1" height="1" fill="#A8B5B2" />
<rect x="74" y="134" width="1" height="1" fill="#819796" />
<rect x="75" y="134" width="1" height="1" fill="#577277" />
<rect x="76" y="134" width="1" height="1" fill="#7A4841" opacity="0.996078" />
<rect x="77" y="134" width="1" height="1" fill="#7A4841" opacity="0.996078" />
<rect x="69" y="135" width="1" height="1" fill="#7A4841" opacity="0.996078" />
<rect x="70" y="135" width="1" height="1" fill="#7A4841" opacity="0.996078" />
<rect x="71" y="135" width="1" height="1" fill="#7A4841" opacity="0.996078" />
<rect x="72" y="135" width="1" height="1" fill="#C7CFCC" />
<rect x="73" y="135" width="1" height="1" fill="#A8B5B2" />
<rect x="74" y="135" width="1" height="1" fill="#819796" />
<rect x="75" y="135" width="1" height="1" fill="#577277" />
<rect x="70" y="136" width="1" height="1" fill="#7A4841" opacity="0.996078" />
<rect x="71" y="136" width="1" height="1" fill="#7A4841" opacity="0.996078" />
<rect x="72" y="136" width="1" height="1" fill="#C7CFCC" />
<rect x="73" y="136" width="1" height="1" fill="#A8B5B2" />
<rect x="74" y="136" width="1" height="1" fill="#819796" />
<rect x="75" y="136" width="1" height="1" fill="#577277" />
<rect x="72" y="137" width="1" height="1" fill="#C7CFCC" />
<rect x="73" y="137" width="1" height="1" fill="#A8B5B2" />
<rect x="74" y="137" width="1" height="1" fill="#819796" />
<rect x="75" y="137" width="1" height="1" fill="#577277" />
<rect x="73" y="138" width="1" height="1" fill="#A8B5B2" />
<rect x="74" y="138" width="1" height="1" fill="#819796" />
</svg>