<?xml version="1.0" encoding="UTF-8" ?>
<svg version="1.1" width="144" height="144" xmlns="http://www.w3.org/2000/svg" shape-rendering="crispEdges">
<rect x="72" y="56" width="1" height="1" fill="#7A4841" />
<rect x="73" y="56" width="1" height="1" fill="#7A4841" />
<rect x="74" y="56" width="1" height="1" fill="#7A4841" />
<rect x="75" y="56" width="1" height="1" fill="#7A4841" />
<rect x="76" y="56" width="1" height="1" fill="#7A4841" />
<rect x="71" y="57" width="1" height="1" fill="#7A4841" />
<rect x="72" y="57" width="1" height="1" fill="#C09473" />
<rect x="73" y="57" width="1" height="1" fill="#C09473" />
<rect x="74" y="57" width="1" height="1" fill="#C09473" />
<rect x="75" y="57" width="1" height="1" fill="#C09473" />
<rect x="76" y="57" width="1" height="1" fill="#C09473" />
<rect x="77" y="57" width="1" height="1" fill="#7A4841" />
<rect x="78" y="57" width="1" height="1" fill="#7A4841" />
<rect x="69" y="58" width="1" height="1" fill="#7A4841" />
<rect x="70" y="58" width="1" height="1" fill="#7A4841" />
<rect x="71" y="58" width="1" height="1" fill="#C09473" />
<rect x="72" y="58" width="1" height="1" fill="#C09473" />
<rect x="73" y="58" width="1" height="1" fill="#C09473" />
<rect x="74" y="58" width="1" height="1" fill="#C09473" />
<rect x="75" y="58" width="1" height="1" fill="#C09473" />
<rect x="76" y="58" width="1" height="1" fill="#C09473" />
<rect x="77" y="58" width="1" height="1" fill="#C09473" />
<rect x="78" y="58" width="1" height="1" fill="#C09473" />
<rect x="79" y="58" width="1" height="1" fill="#7A4841" />
<rect x="68" y="59" width="1" height="1" fill="#7A4841" />
<rect x="69" y="59" width="1" height="1" fill="#C09473" />
<rect x="70" y="59" width="1" height="1" fill="#C09473" />
<rect x="71" y="59" width="1" height="1" fill="#C09473" />
<rect x="72" y="59" width="1" height="1" fill="#C09473" />
<rect x="73" y="59" width="1" height="1" fill="#C09473" />
<rect x="74" y="59" width="1" height="1" fill="#C09473" />
<rect x="75" y="59" width="1" height="1" fill="#C09473" />
<rect x="76" y="59" width="1" height="1" fill="#C09473" />
<rect x="77" y="59" width="1" height="1" fill="#C09473" />
<rect x="78" y="59" width="1" height="1" fill="#C09473" />
<rect x="79" y="59" width="1" height="1" fill="#C09473" />
<rect x="80" y="59" width="1" height="1" fill="#7A4841" />
<rect x="81" y="59" width="1" height="1" fill="#7A4841" />
<rect x="66" y="60" width="1" height="1" fill="#7A4841" />
<rect x="67" y="60" width="1" height="1" fill="#7A4841" />
<rect x="68" y="60" width="1" height="1" fill="#C09473" />
<rect x="69" y="60" width="1" height="1" fill="#C09473" />
<rect x="70" y="60" width="1" height="1" fill="#C09473" />
<rect x="71" y="60" width="1" height="1" fill="#C09473" />
<rect x="72" y="60" width="1" height="1" fill="#468232" />
<rect x="73" y="60" width="1" height="1" fill="#468232" />
<rect x="74" y="60" width="1" height="1" fill="#C09473" />
<rect x="75" y="60" width="1" height="1" fill="#C09473" />
<rect x="76" y="60" width="1" height="1" fill="#C09473" />
<rect x="77" y="60" width="1" height="1" fill="#C09473" />
<rect x="78" y="60" width="1" height="1" fill="#C09473" />
<rect x="79" y="60" width="1" height="1" fill="#C09473" />
<rect x="80" y="60" width="1" height="1" fill="#C09473" />
<rect x="81" y="60" width="1" height="1" fill="#C09473" />
<rect x="82" y="60" width="1" height="1" fill="#7A4841" />
<rect x="83" y="60" width="1" height="1" fill="#7A4841" />
<rect x="65" y="61" width="1" height="1" fill="#7A4841" />
<rect x="66" y="61" width="1" height="1" fill="#C09473" />
<rect x="67" y="61" width="1" height="1" fill="#C09473" />
<rect x="68" y="61" width="1" height="1" fill="#C09473" />
<rect x="69" y="61" width="1" height="1" fill="#C09473" />
<rect x="70" y="61" width="1" height="1" fill="#468232" />
<rect x="71" y="61" width="1" height="1" fill="#468232" />
<rect x="72" y="61" width="1" height="1" fill="#75A743" />
<rect x="73" y="61" width="1" height="1" fill="#75A743" />
<rect x="74" y="61" width="1" height="1" fill="#468232" />
<rect x="75" y="61" width="1" height="1" fill="#468232" />
<rect x="76" y="61" width="1" height="1" fill="#C09473" />
<rect x="77" y="61" width="1" height="1" fill="#C09473" />
<rect x="78" y="61" width="1" height="1" fill="#C09473" />
<rect x="79" y="61" width="1" height="1" fill="#C09473" />
<rect x="80" y="61" width="1" height="1" fill="#C09473" />
<rect x="81" y="61" width="1" height="1" fill="#C09473" />
<rect x="82" y="61" width="1" height="1" fill="#C09473" />
<rect x="83" y="61" width="1" height="1" fill="#C09473" />
<rect x="84" y="61" width="1" height="1" fill="#7A4841" />
<rect x="63" y="62" width="1" height="1" fill="#7A4841" />
<rect x="64" y="62" width="1" height="1" fill="#7A4841" />
<rect x="65" y="62" width="1" height="1" fill="#C09473" />
<rect x="66" y="62" width="1" height="1" fill="#C09473" />
<rect x="67" y="62" width="1" height="1" fill="#C09473" />
<rect x="68" y="62" width="1" height="1" fill="#C09473" />
<rect x="69" y="62" width="1" height="1" fill="#468232" />
<rect x="70" y="62" width="1" height="1" fill="#75A743" />
<rect x="71" y="62" width="1" height="1" fill="#75A743" />
<rect x="72" y="62" width="1" height="1" fill="#75A743" />
<rect x="73" y="62" width="1" height="1" fill="#75A743" />
<rect x="74" y="62" width="1" height="1" fill="#75A743" />
<rect x="75" y="62" width="1" height="1" fill="#75A743" />
<rect x="76" y="62" width="1" height="1" fill="#468232" />
<rect x="77" y="62" width="1" height="1" fill="#C09473" />
<rect x="78" y="62" width="1" height="1" fill="#C09473" />
<rect x="79" y="62" width="1" height="1" fill="#C09473" />
<rect x="80" y="62" width="1" height="1" fill="#C09473" />
<rect x="81" y="62" width="1" height="1" fill="#C09473" />
<rect x="82" y="62" width="1" height="1" fill="#C09473" />
<rect x="83" y="62" width="1" height="1" fill="#C09473" />
<rect x="84" y="62" width="1" height="1" fill="#C09473" />
<rect x="85" y="62" width="1" height="1" fill="#7A4841" />
<rect x="86" y="62" width="1" height="1" fill="#7A4841" />
<rect x="61" y="63" width="1" height="1" fill="#7A4841" />
<rect x="62" y="63" width="1" height="1" fill="#7A4841" />
<rect x="63" y="63" width="1" height="1" fill="#C09473" />
<rect x="64" y="63" width="1" height="1" fill="#C09473" />
<rect x="65" y="63" width="1" height="1" fill="#C09473" />
<rect x="66" y="63" width="1" height="1" fill="#C09473" />
<rect x="67" y="63" width="1" height="1" fill="#468232" />
<rect x="68" y="63" width="1" height="1" fill="#468232" />
<rect x="69" y="63" width="1" height="1" fill="#75A743" />
<rect x="70" y="63" width="1" height="1" fill="#75A743" />
<rect x="71" y="63" width="1" height="1" fill="#75A743" />
<rect x="72" y="63" width="1" height="1" fill="#75A743" />
<rect x="73" y="63" width="1" height="1" fill="#75A743" />
<rect x="74" y="63" width="1" height="1" fill="#75A743" />
<rect x="75" y="63" width="1" height="1" fill="#75A743" />
<rect x="76" y="63" width="1" height="1" fill="#75A743" />
<rect x="77" y="63" width="1" height="1" fill="#468232" />
<rect x="78" y="63" width="1" height="1" fill="#C09473" />
<rect x="79" y="63" width="1" height="1" fill="#C09473" />
<rect x="80" y="63" width="1" height="1" fill="#C09473" />
<rect x="81" y="63" width="1" height="1" fill="#C09473" />
<rect x="82" y="63" width="1" height="1" fill="#C09473" />
<rect x="83" y="63" width="1" height="1" fill="#C09473" />
<rect x="84" y="63" width="1" height="1" fill="#C09473" />
<rect x="85" y="63" width="1" height="1" fill="#C09473" />
<rect x="86" y="63" width="1" height="1" fill="#C09473" />
<rect x="87" y="63" width="1" height="1" fill="#7A4841" />
<rect x="60" y="64" width="1" height="1" fill="#7A4841" />
<rect x="61" y="64" width="1" height="1" fill="#C09473" />
<rect x="62" y="64" width="1" height="1" fill="#C09473" />
<rect x="63" y="64" width="1" height="1" fill="#C09473" />
<rect x="64" y="64" width="1" height="1" fill="#C09473" />
<rect x="65" y="64" width="1" height="1" fill="#468232" />
<rect x="66" y="64" width="1" height="1" fill="#468232" />
<rect x="67" y="64" width="1" height="1" fill="#75A743" />
<rect x="68" y="64" width="1" height="1" fill="#75A743" />
<rect x="69" y="64" width="1" height="1" fill="#C7CFCC" />
<rect x="70" y="64" width="1" height="1" fill="#C7CFCC" />
<rect x="71" y="64" width="1" height="1" fill="#75A743" />
<rect x="72" y="64" width="1" height="1" fill="#75A743" />
<rect x="73" y="64" width="1" height="1" fill="#75A743" />
<rect x="74" y="64" width="1" height="1" fill="#75A743" />
<rect x="75" y="64" width="1" height="1" fill="#75A743" />
<rect x="76" y="64" width="1" height="1" fill="#75A743" />
<rect x="77" y="64" width="1" height="1" fill="#468232" />
<rect x="78" y="64" width="1" height="1" fill="#C09473" />
<rect x="79" y="64" width="1" height="1" fill="#C09473" />
<rect x="80" y="64" width="1" height="1" fill="#C09473" />
<rect x="81" y="64" width="1" height="1" fill="#C09473" />
<rect x="82" y="64" width="1" height="1" fill="#C09473" />
<rect x="83" y="64" width="1" height="1" fill="#C09473" />
<rect x="84" y="64" width="1" height="1" fill="#C09473" />
<rect x="85" y="64" width="1" height="1" fill="#C09473" />
<rect x="86" y="64" width="1" height="1" fill="#C09473" />
<rect x="87" y="64" width="1" height="1" fill="#C09473" />
<rect x="88" y="64" width="1" height="1" fill="#7A4841" />
<rect x="89" y="64" width="1" height="1" fill="#7A4841" />
<rect x="58" y="65" width="1" height="1" fill="#7A4841" />
<rect x="59" y="65" width="1" height="1" fill="#7A4841" />
<rect x="60" y="65" width="1" height="1" fill="#C09473" />
<rect x="61" y="65" width="1" height="1" fill="#C09473" />
<rect x="62" y="65" width="1" height="1" fill="#C09473" />
<rect x="63" y="65" width="1" height="1" fill="#C09473" />
<rect x="64" y="65" width="1" height="1" fill="#468232" />
<rect x="65" y="65" width="1" height="1" fill="#75A743" />
<rect x="66" y="65" width="1" height="1" fill="#75A743" />
<rect x="67" y="65" width="1" height="1" fill="#75A743" />
<rect x="68" y="65" width="1" height="1" fill="#C7CFCC" />
<rect x="69" y="65" width="1" height="1" fill="#C7CFCC" />
<rect x="70" y="65" width="1" height="1" fill="#C7CFCC" />
<rect x="71" y="65" width="1" height="1" fill="#C7CFCC" />
<rect x="72" y="65" width="1" height="1" fill="#C7CFCC" />
<rect x="73" y="65" width="1" height="1" fill="#75A743" />
<rect x="74" y="65" width="1" height="1" fill="#75A743" />
<rect x="75" y="65" width="1" height="1" fill="#468232" />
<rect x="76" y="65" width="1" height="1" fill="#468232" />
<rect x="77" y="65" width="1" height="1" fill="#C09473" />
<rect x="78" y="65" width="1" height="1" fill="#C09473" />
<rect x="79" y="65" width="1" height="1" fill="#C09473" />
<rect x="80" y="65" width="1" height="1" fill="#C09473" />
<rect x="81" y="65" width="1" height="1" fill="#C09473" />
<rect x="82" y="65" width="1" height="1" fill="#C09473" />
<rect x="83" y="65" width="1" height="1" fill="#C09473" />
<rect x="84" y="65" width="1" height="1" fill="#C09473" />
<rect x="85" y="65" width="1" height="1" fill="#C09473" />
<rect x="86" y="65" width="1" height="1" fill="#C09473" />
<rect x="87" y="65" width="1" height="1" fill="#C09473" />
<rect x="88" y="65" width="1" height="1" fill="#C09473" />
<rect x="89" y="65" width="1" height="1" fill="#C09473" />
<rect x="90" y="65" width="1" height="1" fill="#7A4841" />
<rect x="57" y="66" width="1" height="1" fill="#7A4841" />
<rect x="58" y="66" width="1" height="1" fill="#C09473" />
<rect x="59" y="66" width="1" height="1" fill="#C09473" />
<rect x="60" y="66" width="1" height="1" fill="#C09473" />
<rect x="61" y="66" width="1" height="1" fill="#C09473" />
<rect x="62" y="66" width="1" height="1" fill="#C09473" />
<rect x="63" y="66" width="1" height="1" fill="#C09473" />
<rect x="64" y="66" width="1" height="1" fill="#C09473" />
<rect x="65" y="66" width="1" height="1" fill="#468232" />
<rect x="66" y="66" width="1" height="1" fill="#75A743" />
<rect x="67" y="66" width="1" height="1" fill="#75A743" />
<rect x="68" y="66" width="1" height="1" fill="#75A743" />
<rect x="69" y="66" width="1" height="1" fill="#75A743" />
<rect x="70" y="66" width="1" height="1" fill="#C7CFCC" />
<rect x="71" y="66" width="1" height="1" fill="#C7CFCC" />
<rect x="72" y="66" width="1" height="1" fill="#75A743" />
<rect x="73" y="66" width="1" height="1" fill="#75A743" />
<rect x="74" y="66" width="1" height="1" fill="#468232" />
<rect x="75" y="66" width="1" height="1" fill="#C09473" />
<rect x="76" y="66" width="1" height="1" fill="#C09473" />
<rect x="77" y="66" width="1" height="1" fill="#C09473" />
<rect x="78" y="66" width="1" height="1" fill="#C09473" />
<rect x="79" y="66" width="1" height="1" fill="#C09473" />
<rect x="80" y="66" width="1" height="1" fill="#C09473" />
<rect x="81" y="66" width="1" height="1" fill="#C09473" />
<rect x="82" y="66" width="1" height="1" fill="#C09473" />
<rect x="83" y="66" width="1" height="1" fill="#C09473" />
<rect x="84" y="66" width="1" height="1" fill="#C09473" />
<rect x="85" y="66" width="1" height="1" fill="#C09473" />
<rect x="86" y="66" width="1" height="1" fill="#C09473" />
<rect x="87" y="66" width="1" height="1" fill="#C09473" />
<rect x="88" y="66" width="1" height="1" fill="#C09473" />
<rect x="89" y="66" width="1" height="1" fill="#AD7757" />
<rect x="90" y="66" width="1" height="1" fill="#7A4841" />
<rect x="56" y="67" width="1" height="1" fill="#7A4841" />
<rect x="57" y="67" width="1" height="1" fill="#AD7757" />
<rect x="58" y="67" width="1" height="1" fill="#C09473" />
<rect x="59" y="67" width="1" height="1" fill="#C09473" />
<rect x="60" y="67" width="1" height="1" fill="#C09473" />
<rect x="61" y="67" width="1" height="1" fill="#C09473" />
<rect x="62" y="67" width="1" height="1" fill="#C09473" />
<rect x="63" y="67" width="1" height="1" fill="#C09473" />
<rect x="64" y="67" width="1" height="1" fill="#C09473" />
<rect x="65" y="67" width="1" height="1" fill="#C09473" />
<rect x="66" y="67" width="1" height="1" fill="#468232" />
<rect x="67" y="67" width="1" height="1" fill="#468232" />
<rect x="68" y="67" width="1" height="1" fill="#75A743" />
<rect x="69" y="67" width="1" height="1" fill="#75A743" />
<rect x="70" y="67" width="1" height="1" fill="#75A743" />
<rect x="71" y="67" width="1" height="1" fill="#75A743" />
<rect x="72" y="67" width="1" height="1" fill="#468232" />
<rect x="73" y="67" width="1" height="1" fill="#468232" />
<rect x="74" y="67" width="1" height="1" fill="#C09473" />
<rect x="75" y="67" width="1" height="1" fill="#C09473" />
<rect x="76" y="67" width="1" height="1" fill="#C09473" />
<rect x="77" y="67" width="1" height="1" fill="#C09473" />
<rect x="78" y="67" width="1" height="1" fill="#C09473" />
<rect x="79" y="67" width="1" height="1" fill="#C09473" />
<rect x="80" y="67" width="1" height="1" fill="#DF84A5" />
<rect x="81" y="67" width="1" height="1" fill="#C09473" />
<rect x="82" y="67" width="1" height="1" fill="#C09473" />
<rect x="83" y="67" width="1" height="1" fill="#C09473" />
<rect x="84" y="67" width="1" height="1" fill="#C09473" />
<rect x="85" y="67" width="1" height="1" fill="#C09473" />
<rect x="86" y="67" width="1" height="1" fill="#C09473" />
<rect x="87" y="67" width="1" height="1" fill="#C09473" />
<rect x="88" y="67" width="1" height="1" fill="#AD7757" />
<rect x="89" y="67" width="1" height="1" fill="#7A4841" />
<rect x="90" y="67" width="1" height="1" fill="#4D2B32" />
<rect x="56" y="68" width="1" height="1" fill="#4D2B32" />
<rect x="57" y="68" width="1" height="1" fill="#7A4841" />
<rect x="58" y="68" width="1" height="1" fill="#AD7757" />
<rect x="59" y="68" width="1" height="1" fill="#AD7757" />
<rect x="60" y="68" width="1" height="1" fill="#C09473" />
<rect x="61" y="68" width="1" height="1" fill="#C09473" />
<rect x="62" y="68" width="1" height="1" fill="#C09473" />
<rect x="63" y="68" width="1" height="1" fill="#C09473" />
<rect x="64" y="68" width="1" height="1" fill="#C09473" />
<rect x="65" y="68" width="1" height="1" fill="#C09473" />
<rect x="66" y="68" width="1" height="1" fill="#C09473" />
<rect x="67" y="68" width="1" height="1" fill="#C09473" />
<rect x="68" y="68" width="1" height="1" fill="#468232" />
<rect x="69" y="68" width="1" height="1" fill="#468232" />
<rect x="70" y="68" width="1" height="1" fill="#75A743" />
<rect x="71" y="68" width="1" height="1" fill="#468232" />
<rect x="72" y="68" width="1" height="1" fill="#C09473" />
<rect x="73" y="68" width="1" height="1" fill="#C09473" />
<rect x="74" y="68" width="1" height="1" fill="#C09473" />
<rect x="75" y="68" width="1" height="1" fill="#C09473" />
<rect x="76" y="68" width="1" height="1" fill="#C09473" />
<rect x="77" y="68" width="1" height="1" fill="#C09473" />
<rect x="78" y="68" width="1" height="1" fill="#C09473" />
<rect x="79" y="68" width="1" height="1" fill="#DE9E41" />
<rect x="80" y="68" width="1" height="1" fill="#E8C170" />
<rect x="81" y="68" width="1" height="1" fill="#C09473" />
<rect x="82" y="68" width="1" height="1" fill="#C09473" />
<rect x="83" y="68" width="1" height="1" fill="#C09473" />
<rect x="84" y="68" width="1" height="1" fill="#C09473" />
<rect x="85" y="68" width="1" height="1" fill="#C09473" />
<rect x="86" y="68" width="1" height="1" fill="#C09473" />
<rect x="87" y="68" width="1" height="1" fill="#AD7757" />
<rect x="88" y="68" width="1" height="1" fill="#7A4841" />
<rect x="89" y="68" width="1" height="1" fill="#4D2B32" />
<rect x="57" y="69" width="1" height="1" fill="#4D2B32" />
<rect x="58" y="69" width="1" height="1" fill="#7A4841" />
<rect x="59" y="69" width="1" height="1" fill="#7A4841" />
<rect x="60" y="69" width="1" height="1" fill="#AD7757" />
<rect x="61" y="69" width="1" height="1" fill="#C09473" />
<rect x="62" y="69" width="1" height="1" fill="#C09473" />
<rect x="63" y="69" width="1" height="1" fill="#C09473" />
<rect x="64" y="69" width="1" height="1" fill="#C09473" />
<rect x="65" y="69" width="1" height="1" fill="#C09473" />
<rect x="66" y="69" width="1" height="1" fill="#C09473" />
<rect x="67" y="69" width="1" height="1" fill="#C09473" />
<rect x="68" y="69" width="1" height="1" fill="#C09473" />
<rect x="69" y="69" width="1" height="1" fill="#C09473" />
<rect x="70" y="69" width="1" height="1" fill="#468232" />
<rect x="71" y="69" width="1" height="1" fill="#C09473" />
<rect x="72" y="69" width="1" height="1" fill="#C09473" />
<rect x="73" y="69" width="1" height="1" fill="#C09473" />
<rect x="74" y="69" width="1" height="1" fill="#C09473" />
<rect x="75" y="69" width="1" height="1" fill="#C09473" />
<rect x="76" y="69" width="1" height="1" fill="#C09473" />
<rect x="77" y="69" width="1" height="1" fill="#DE9E41" />
<rect x="78" y="69" width="1" height="1" fill="#DE9E41" />
<rect x="79" y="69" width="1" height="1" fill="#E8C170" />
<rect x="80" y="69" width="1" height="1" fill="#C09473" />
<rect x="81" y="69" width="1" height="1" fill="#C09473" />
<rect x="82" y="69" width="1" height="1" fill="#C09473" />
<rect x="83" y="69" width="1" height="1" fill="#C09473" />
<rect x="84" y="69" width="1" height="1" fill="#C09473" />
<rect x="85" y="69" width="1" height="1" fill="#AD7757" />
<rect x="86" y="69" width="1" height="1" fill="#AD7757" />
<rect x="87" y="69" width="1" height="1" fill="#7A4841" />
<rect x="88" y="69" width="1" height="1" fill="#4D2B32" />
<rect x="89" y="69" width="1" height="1" fill="#819796" />
<rect x="57" y="70" width="1" height="1" fill="#A8B5B2" />
<rect x="58" y="70" width="1" height="1" fill="#4D2B32" />
<rect x="59" y="70" width="1" height="1" fill="#4D2B32" />
<rect x="60" y="70" width="1" height="1" fill="#7A4841" />
<rect x="61" y="70" width="1" height="1" fill="#AD7757" />
<rect x="62" y="70" width="1" height="1" fill="#AD7757" />
<rect x="63" y="70" width="1" height="1" fill="#C09473" />
<rect x="64" y="70" width="1" height="1" fill="#C09473" />
<rect x="65" y="70" width="1" height="1" fill="#C09473" />
<rect x="66" y="70" width="1" height="1" fill="#C09473" />
<rect x="67" y="70" width="1" height="1" fill="#C09473" />
<rect x="68" y="70" width="1" height="1" fill="#C09473" />
<rect x="69" y="70" width="1" height="1" fill="#C09473" />
<rect x="70" y="70" width="1" height="1" fill="#C09473" />
<rect x="71" y="70" width="1" height="1" fill="#C09473" />
<rect x="72" y="70" width="1" height="1" fill="#C09473" />
<rect x="73" y="70" width="1" height="1" fill="#C09473" />
<rect x="74" y="70" width="1" height="1" fill="#C09473" />
<rect x="75" y="70" width="1" height="1" fill="#C09473" />
<rect x="76" y="70" width="1" height="1" fill="#DE9E41" />
<rect x="77" y="70" width="1" height="1" fill="#E8C170" />
<rect x="78" y="70" width="1" height="1" fill="#E8C170" />
<rect x="79" y="70" width="1" height="1" fill="#C09473" />
<rect x="80" y="70" width="1" height="1" fill="#C09473" />
<rect x="81" y="70" width="1" height="1" fill="#C09473" />
<rect x="82" y="70" width="1" height="1" fill="#C09473" />
<rect x="83" y="70" width="1" height="1" fill="#AD7757" />
<rect x="84" y="70" width="1" height="1" fill="#AD7757" />
<rect x="85" y="70" width="1" height="1" fill="#7A4841" />
<rect x="86" y="70" width="1" height="1" fill="#7A4841" />
<rect x="87" y="70" width="1" height="1" fill="#4D2B32" />
<rect x="88" y="70" width="1" height="1" fill="#577277" />
<rect x="89" y="70" width="1" height="1" fill="#819796" />
<rect x="57" y="71" width="1" height="1" fill="#A8B5B2" />
<rect x="58" y="71" width="1" height="1" fill="#819796" />
<rect x="59" y="71" width="1" height="1" fill="#577277" />
<rect x="60" y="71" width="1" height="1" fill="#4D2B32" />
<rect x="61" y="71" width="1" height="1" fill="#7A4841" />
<rect x="62" y="71" width="1" height="1" fill="#7A4841" />
<rect x="63" y="71" width="1" height="1" fill="#AD7757" />
<rect x="64" y="71" width="1" height="1" fill="#C09473" />
<rect x="65" y="71" width="1" height="1" fill="#C09473" />
<rect x="66" y="71" width="1" height="1" fill="#C09473" />
<rect x="67" y="71" width="1" height="1" fill="#C09473" />
<rect x="68" y="71" width="1" height="1" fill="#C09473" />
<rect x="69" y="71" width="1" height="1" fill="#C09473" />
<rect x="70" y="71" width="1" height="1" fill="#C09473" />
<rect x="71" y="71" width="1" height="1" fill="#C09473" />
<rect x="72" y="71" width="1" height="1" fill="#C09473" />
<rect x="73" y="71" width="1" height="1" fill="#C09473" />
<rect x="74" y="71" width="1" height="1" fill="#C09473" />
<rect x="75" y="71" width="1" height="1" fill="#151D28" />
<rect x="76" y="71" width="1" height="1" fill="#E8C170" />
<rect x="77" y="71" width="1" height="1" fill="#C09473" />
<rect x="78" y="71" width="1" height="1" fill="#C09473" />
<rect x="79" y="71" width="1" height="1" fill="#C09473" />
<rect x="80" y="71" width="1" height="1" fill="#C09473" />
<rect x="81" y="71" width="1" height="1" fill="#C09473" />
<rect x="82" y="71" width="1" height="1" fill="#AD7757" />
<rect x="83" y="71" width="1" height="1" fill="#7A4841" />
<rect x="84" y="71" width="1" height="1" fill="#7A4841" />
<rect x="85" y="71" width="1" height="1" fill="#4D2B32" />
<rect x="86" y="71" width="1" height="1" fill="#4D2B32" />
<rect x="87" y="71" width="1" height="1" fill="#394A50" />
<rect x="88" y="71" width="1" height="1" fill="#577277" />
<rect x="89" y="71" width="1" height="1" fill="#819796" />
<rect x="57" y="72" width="1" height="1" fill="#A8B5B2" />
<rect x="58" y="72" width="1" height="1" fill="#819796" />
<rect x="59" y="72" width="1" height="1" fill="#577277" />
<rect x="61" y="72" width="1" height="1" fill="#4D2B32" />
<rect x="62" y="72" width="1" height="1" fill="#4D2B32" />
<rect x="63" y="72" width="1" height="1" fill="#7A4841" />
<rect x="64" y="72" width="1" height="1" fill="#AD7757" />
<rect x="65" y="72" width="1" height="1" fill="#AD7757" />
<rect x="66" y="72" width="1" height="1" fill="#C09473" />
<rect x="67" y="72" width="1" height="1" fill="#C09473" />
<rect x="68" y="72" width="1" height="1" fill="#C09473" />
<rect x="69" y="72" width="1" height="1" fill="#C09473" />
<rect x="70" y="72" width="1" height="1" fill="#C09473" />
<rect x="71" y="72" width="1" height="1" fill="#C09473" />
<rect x="72" y="72" width="1" height="1" fill="#C09473" />
<rect x="73" y="72" width="1" height="1" fill="#C09473" />
<rect x="74" y="72" width="1" height="1" fill="#C09473" />
<rect x="75" y="72" width="1" height="1" fill="#C09473" />
<rect x="76" y="72" width="1" height="1" fill="#C09473" />
<rect x="77" y="72" width="1" height="1" fill="#C09473" />
<rect x="78" y="72" width="1" height="1" fill="#C09473" />
<rect x="79" y="72" width="1" height="1" fill="#C09473" />
<rect x="80" y="72" width="1" height="1" fill="#AD7757" />
<rect x="81" y="72" width="1" height="1" fill="#AD7757" />
<rect x="82" y="72" width="1" height="1" fill="#7A4841" />
<rect x="83" y="72" width="1" height="1" fill="#7A4841" />
<rect x="84" y="72" width="1" height="1" fill="#4D2B32" />
<rect x="86" y="72" width="1" height="1" fill="#151D28" />
<rect x="87" y="72" width="1" height="1" fill="#394A50" />
<rect x="88" y="72" width="1" height="1" fill="#577277" />
<rect x="89" y="72" width="1" height="1" fill="#819796" />
<rect x="57" y="73" width="1" height="1" fill="#A8B5B2" />
<rect x="58" y="73" width="1" height="1" fill="#819796" />
<rect x="59" y="73" width="1" height="1" fill="#577277" />
<rect x="61" y="73" width="1" height="1" fill="#151D28" />
<rect x="63" y="73" width="1" height="1" fill="#4D2B32" />
<rect x="64" y="73" width="1" height="1" fill="#7A4841" />
<rect x="65" y="73" width="1" height="1" fill="#7A4841" />
<rect x="66" y="73" width="1" height="1" fill="#AD7757" />
<rect x="67" y="73" width="1" height="1" fill="#C09473" />
<rect x="68" y="73" width="1" height="1" fill="#C09473" />
<rect x="69" y="73" width="1" height="1" fill="#C09473" />
<rect x="70" y="73" width="1" height="1" fill="#C09473" />
<rect x="71" y="73" width="1" height="1" fill="#C09473" />
<rect x="72" y="73" width="1" height="1" fill="#C09473" />
<rect x="73" y="73" width="1" height="1" fill="#C09473" />
<rect x="74" y="73" width="1" height="1" fill="#C09473" />
<rect x="75" y="73" width="1" height="1" fill="#C09473" />
<rect x="76" y="73" width="1" height="1" fill="#C09473" />
<rect x="77" y="73" width="1" height="1" fill="#C09473" />
<rect x="78" y="73" width="1" height="1" fill="#C09473" />
<rect x="79" y="73" width="1" height="1" fill="#AD7757" />
<rect x="80" y="73" width="1" height="1" fill="#7A4841" />
<rect x="81" y="73" width="1" height="1" fill="#7A4841" />
<rect x="82" y="73" width="1" height="1" fill="#4D2B32" />
<rect x="83" y="73" width="1" height="1" fill="#4D2B32" />
<rect x="86" y="73" width="1" height="1" fill="#151D28" />
<rect x="87" y="73" width="1" height="1" fill="#394A50" />
<rect x="88" y="73" width="1" height="1" fill="#577277" />
<rect x="89" y="73" width="1" height="1" fill="#819796" />
<rect x="57" y="74" width="1" height="1" fill="#A8B5B2" />
<rect x="58" y="74" width="1" height="1" fill="#819796" />
<rect x="59" y="74" width="1" height="1" fill="#577277" />
<rect x="60" y="74" width="1" height="1" fill="#151D28" />
<rect x="63" y="74" width="1" height="1" fill="#819796" />
<rect x="64" y="74" width="1" height="1" fill="#4D2B32" />
<rect x="65" y="74" width="1" height="1" fill="#4D2B32" />
<rect x="66" y="74" width="1" height="1" fill="#7A4841" />
<rect x="67" y="74" width="1" height="1" fill="#AD7757" />
<rect x="68" y="74" width="1" height="1" fill="#AD7757" />
<rect x="69" y="74" width="1" height="1" fill="#C09473" />
<rect x="70" y="74" width="1" height="1" fill="#C09473" />
<rect x="71" y="74" width="1" height="1" fill="#C09473" />
<rect x="72" y="74" width="1" height="1" fill="#C09473" />
<rect x="73" y="74" width="1" height="1" fill="#C09473" />
<rect x="74" y="74" width="1" height="1" fill="#C09473" />
<rect x="75" y="74" width="1" height="1" fill="#C09473" />
<rect x="76" y="74" width="1" height="1" fill="#C09473" />
<rect x="77" y="74" width="1" height="1" fill="#AD7757" />
<rect x="78" y="74" width="1" height="1" fill="#AD7757" />
<rect x="79" y="74" width="1" height="1" fill="#7A4841" />
<rect x="80" y="74" width="1" height="1" fill="#4D2B32" />
<rect x="81" y="74" width="1" height="1" fill="#4D2B32" />
<rect x="82" y="74" width="1" height="1" fill="#819796" />
<rect x="84" y="74" width="1" height="1" fill="#151D28" />
<rect x="85" y="74" width="1" height="1" fill="#151D28" />
<rect x="86" y="74" width="1" height="1" fill="#202E37" />
<rect x="87" y="74" width="1" height="1" fill="#394A50" />
<rect x="88" y="74" width="1" height="1" fill="#577277" />
<rect x="89" y="74" width="1" height="1" fill="#819796" />
<rect x="57" y="75" width="1" height="1" fill="#A8B5B2" />
<rect x="58" y="75" width="1" height="1" fill="#819796" />
<rect x="59" y="75" width="1" height="1" fill="#577277" />
<rect x="60" y="75" width="1" height="1" fill="#202E37" />
<rect x="61" y="75" width="1" height="1" fill="#151D28" />
<rect x="62" y="75" width="1" height="1" fill="#151D28" />
<rect x="63" y="75" width="1" height="1" fill="#7A4841" opacity="0.996078" />
<rect x="64" y="75" width="1" height="1" fill="#7A4841" opacity="0.996078" />
<rect x="65" y="75" width="1" height="1" fill="#7A4841" opacity="0.996078" />
<rect x="66" y="75" width="1" height="1" fill="#4D2B32" />
<rect x="67" y="75" width="1" height="1" fill="#7A4841" />
<rect x="68" y="75" width="1" height="1" fill="#7A4841" />
<rect x="69" y="75" width="1" height="1" fill="#AD7757" />
<rect x="70" y="75" width="1" height="1" fill="#AD7757" />
<rect x="71" y="75" width="1" height="1" fill="#C09473" />
<rect x="72" y="75" width="1" height="1" fill="#C09473" />
<rect x="73" y="75" width="1" height="1" fill="#C09473" />
<rect x="74" y="75" width="1" height="1" fill="#C09473" />
<rect x="75" y="75" width="1" height="1" fill="#AD7757" />
<rect x="76" y="75" width="1" height="1" fill="#AD7757" />
<rect x="77" y="75" width="1" height="1" fill="#7A4841" />
<rect x="78" y="75" width="1" height="1" fill="#7A4841" />
<rect x="79" y="75" width="1" height="1" fill="#4D2B32" />
<rect x="80" y="75" width="1" height="1" fill="#7A4841" opacity="0.996078" />
<rect x="81" y="75" width="1" height="1" fill="#7A4841" opacity="0.996078" />
<rect x="82" y="75" width="1" height="1" fill="#7A4841" opacity="0.996078" />
<rect x="83" y="75" width="1" height="1" fill="#151D28" />
<rect x="84" y="75" width="1" height="1" fill="#202E37" />
<rect x="85" y="75" width="1" height="1" fill="#202E37" />
<rect x="86" y="75" width="1" height="1" fill="#151D28" />
<rect x="87" y="75" width="1" height="1" fill="#394A50" />
<rect x="88" y="75" width="1" height="1" fill="#577277" />
<rect x="89" y="75" width="1" height="1" fill="#819796" />
<rect x="57" y="76" width="1" height="1" fill="#A8B5B2" />
<rect x="58" y="76" width="1" height="1" fill="#819796" />
<rect x="59" y="76" width="1" height="1" fill="#577277" />
<rect x="60" y="76" width="1" height="1" fill="#151D28" />
<rect x="61" y="76" width="1" height="1" fill="#202E37" />
<rect x="62" y="76" width="1" height="1" fill="#202E37" />
<rect x="63" y="76" width="1" height="1" fill="#151D28" />
<rect x="64" y="76" width="1" height="1" fill="#7A4841" opacity="0.996078" />
<rect x="65" y="76" width="1" height="1" fill="#7A4841" opacity="0.996078" />
<rect x="66" y="76" width="1" height="1" fill="#819796" />
<rect x="67" y="76" width="1" height="1" fill="#4D2B32" />
<rect x="68" y="76" width="1" height="1" fill="#4D2B32" />
<rect x="69" y="76" width="1" height="1" fill="#7A4841" />
<rect x="70" y="76" width="1" height="1" fill="#7A4841" />
<rect x="71" y="76" width="1" height="1" fill="#AD7757" />
<rect x="72" y="76" width="1" height="1" fill="#AD7757" />
<rect x="73" y="76" width="1" height="1" fill="#AD7757" />
<rect x="74" y="76" width="1" height="1" fill="#AD7757" />
<rect x="75" y="76" width="1" height="1" fill="#7A4841" />
<rect x="76" y="76" width="1" height="1" fill="#7A4841" />
<rect x="77" y="76" width="1" height="1" fill="#4D2B32" />
<rect x="78" y="76" width="1" height="1" fill="#4D2B32" />
<rect x="79" y="76" width="1" height="1" fill="#819796" />
<rect x="80" y="76" width="1" height="1" fill="#7A4841" opacity="0.996078" />
<rect x="81" y="76" width="1" height="1" fill="#151D28" />
<rect x="82" y="76" width="1" height="1" fill="#151D28" />
<rect x="83" y="76" width="1" height="1" fill="#202E37" />
<rect x="84" y="76" width="1" height="1" fill="#151D28" />
<rect x="85" y="76" width="1" height="1" fill="#151D28" />
<rect x="87" y="76" width="1" height="1" fill="#394A50" />
<rect x="88" y="76" width="1" height="1" fill="#577277" />
<rect x="89" y="76" width="1" height="1" fill="#819796" />
<rect x="57" y="77" width="1" height="1" fill="#A8B5B2" />
<rect x="58" y="77" width="1" height="1" fill="#819796" />
<rect x="59" y="77" width="1" height="1" fill="#577277" />
<rect x="60" y="77" width="1" height="1" fill="#7A4841" opacity="0.996078" />
<rect x="61" y="77" width="1" height="1" fill="#151D28" />
<rect x="62" y="77" width="1" height="1" fill="#151D28" />
<rect x="63" y="77" width="1" height="1" fill="#202E37" />
<rect x="64" y="77" width="1" height="1" fill="#151D28" />
<rect x="65" y="77" width="1" height="1" fill="#151D28" />
<rect x="66" y="77" width="1" height="1" fill="#7A4841" opacity="0.996078" />
<rect x="67" y="77" width="1" height="1" fill="#7A4841" opacity="0.996078" />
<rect x="68" y="77" width="1" height="1" fill="#7A4841" opacity="0.996078" />
<rect x="69" y="77" width="1" height="1" fill="#4D2B32" />
<rect x="70" y="77" width="1" height="1" fill="#4D2B32" />
<rect x="71" y="77" width="1" height="1" fill="#7A4841" />
<rect x="72" y="77" width="1" height="1" fill="#7A4841" />
<rect x="73" y="77" width="1" height="1" fill="#7A4841" />
<rect x="74" y="77" width="1" height="1" fill="#7A4841" />
<rect x="75" y="77" width="1" height="1" fill="#4D2B32" />
<rect x="76" y="77" width="1" height="1" fill="#4D2B32" />
<rect x="77" y="77" width="1" height="1" fill="#7A4841" opacity="0.996078" />
<rect x="78" y="77" width="1" height="1" fill="#7A4841" opacity="0.996078" />
<rect x="79" y="77" width="1" height="1" fill="#7A4841" opacity="0.996078" />
<rect x="80" y="77" width="1" height="1" fill="#151D28" />
<rect x="81" y="77" width="1" height="1" fill="#202E37" />
<rect x="82" y="77" width="1" height="1" fill="#202E37" />
<rect x="83" y="77" width="1" height="1" fill="#151D28" />
<rect x="84" y="77" width="1" height="1" fill="#7A4841" opacity="0.996078" />
<rect x="85" y="77" width="1" height="1" fill="#7A4841" opacity="0.996078" />
<rect x="86" y="77" width="1" height="1" fill="#7A4841" opacity="0.996078" />
<rect x="87" y="77" width="1" height="1" fill="#394A50" />
<rect x="88" y="77" width="1" height="1" fill="#577277" />
<rect x="89" y="77" width="1" height="1" fill="#819796" />
<rect x="57" y="78" width="1" height="1" fill="#A8B5B2" />
<rect x="58" y="78" width="1" height="1" fill="#819796" />
<rect x="59" y="78" width="1" height="1" fill="#577277" />
<rect x="60" y="78" width="1" height="1" fill="#7A4841" opacity="0.996078" />
<rect x="61" y="78" width="1" height="1" fill="#7A4841" opacity="0.996078" />
<rect x="62" y="78" width="1" height="1" fill="#7A4841" opacity="0.996078" />
<rect x="63" y="78" width="1" height="1" fill="#151D28" />
<rect x="64" y="78" width="1" height="1" fill="#202E37" />
<rect x="65" y="78" width="1" height="1" fill="#202E37" />
<rect x="66" y="78" width="1" height="1" fill="#151D28" />
<rect x="67" y="78" width="1" height="1" fill="#151D28" />
<rect x="68" y="78" width="1" height="1" fill="#7A4841" opacity="0.996078" />
<rect x="69" y="78" width="1" height="1" fill="#819796" />
<rect x="70" y="78" width="1" height="1" fill="#4D2B32" />
<rect x="71" y="78" width="1" height="1" fill="#4D2B32" />
<rect x="72" y="78" width="1" height="1" fill="#4D2B32" />
<rect x="73" y="78" width="1" height="1" fill="#4D2B32" />
<rect x="74" y="78" width="1" height="1" fill="#4D2B32" />
<rect x="75" y="78" width="1" height="1" fill="#4D2B32" />
<rect x="76" y="78" width="1" height="1" fill="#819796" />
<rect x="77" y="78" width="1" height="1" fill="#7A4841" opacity="0.996078" />
<rect x="78" y="78" width="1" height="1" fill="#7A4841" opacity="0.996078" />
<rect x="79" y="78" width="1" height="1" fill="#151D28" />
<rect x="80" y="78" width="1" height="1" fill="#202E37" />
<rect x="81" y="78" width="1" height="1" fill="#151D28" />
<rect x="82" y="78" width="1" height="1" fill="#151D28" />
<rect x="83" y="78" width="1" height="1" fill="#7A4841" opacity="0.996078" />
<rect x="84" y="78" width="1" height="1" fill="#7A4841" opacity="0.996078" />
<rect x="85" y="78" width="1" height="1" fill="#7A4841" opacity="0.996078" />
<rect x="86" y="78" width="1" height="1" fill="#7A4841" opacity="0.996078" />
<rect x="87" y="78" width="1" height="1" fill="#394A50" />
<rect x="88" y="78" width="1" height="1" fill="#577277" />
<rect x="89" y="78" width="1" height="1" fill="#819796" />
<rect x="57" y="79" width="1" height="1" fill="#A8B5B2" />
<rect x="58" y="79" width="1" height="1" fill="#819796" />
<rect x="59" y="79" width="1" height="1" fill="#577277" />
<rect x="60" y="79" width="1" height="1" fill="#7A4841" opacity="0.996078" />
<rect x="61" y="79" width="1" height="1" fill="#7A4841" opacity="0.996078" />
<rect x="62" y="79" width="1" height="1" fill="#7A4841" opacity="0.996078" />
<rect x="63" y="79" width="1" height="1" fill="#7A4841" opacity="0.996078" />
<rect x="64" y="79" width="1" height="1" fill="#151D28" />
<rect x="65" y="79" width="1" height="1" fill="#151D28" />
<rect x="66" y="79" width="1" height="1" fill="#202E37" />
<rect x="67" y="79" width="1" height="1" fill="#202E37" />
<rect x="68" y="79" width="1" height="1" fill="#151D28" />
<rect x="69" y="79" width="1" height="1" fill="#7A4841" opacity="0.996078" />
<rect x="70" y="79" width="1" height="1" fill="#7A4841" opacity="0.996078" />
<rect x="71" y="79" width="1" height="1" fill="#7A4841" opacity="0.996078" />
<rect x="72" y="79" width="1" height="1" fill="#C7CFCC" />
<rect x="73" y="79" width="1" height="1" fill="#A8B5B2" />
<rect x="74" y="79" width="1" height="1" fill="#819796" />
<rect x="75" y="79" width="1" height="1" fill="#577277" />
<rect x="76" y="79" width="1" height="1" fill="#7A4841" opacity="0.996078" />
<rect x="77" y="79" width="1" height="1" fill="#151D28" />
<rect x="78" y="79" width="1" height="1" fill="#151D28" />
<rect x="79" y="79" width="1" height="1" fill="#202E37" />
<rect x="80" y="79" width="1" height="1" fill="#151D28" />
<rect x="81" y="79" width="1" height="1" fill="#7A4841" opacity="0.996078" />
<rect x="82" y="79" width="1" height="1" fill="#7A4841" opacity="0.996078" />
<rect x="83" y="79" width="1" height="1" fill="#7A4841" opacity="0.996078" />
<rect x="84" y="79" width="1" height="1" fill="#7A4841" opacity="0.996078" />
<rect x="85" y="79" width="1" height="1" fill="#7A4841" opacity="0.996078" />
<rect x="86" y="79" width="1" height="1" fill="#7A4841" opacity="0.996078" />
<rect x="87" y="79" width="1" height="1" fill="#394A50" />
<rect x="88" y="79" width="1" height="1" fill="#577277" />
<rect x="89" y="79" width="1" height="1" fill="#819796" />
<rect x="58" y="80" width="1" height="1" fill="#819796" />
<rect x="59" y="80" width="1" height="1" fill="#577277" />
<rect x="60" y="80" width="1" height="1" fill="#7A4841" opacity="0.996078" />
<rect x="61" y="80" width="1" height="1" fill="#7A4841" opacity="0.996078" />
<rect x="62" y="80" width="1" height="1" fill="#7A4841" opacity="0.996078" />
<rect x="63" y="80" width="1" height="1" fill="#7A4841" opacity="0.996078" />
<rect x="64" y="80" width="1" height="1" fill="#7A4841" opacity="0.996078" />
<rect x="65" y="80" width="1" height="1" fill="#7A4841" opacity="0.996078" />
<rect x="66" y="80" width="1" height="1" fill="#151D28" />
<rect x="67" y="80" width="1" height="1" fill="#151D28" />
<rect x="68" y="80" width="1" height="1" fill="#202E37" />
<rect x="69" y="80" width="1" height="1" fill="#151D28" />
<rect x="70" y="80" width="1" height="1" fill="#151D28" />
<rect x="71" y="80" width="1" height="1" fill="#819796" />
<rect x="72" y="80" width="1" height="1" fill="#C7CFCC" />
<rect x="73" y="80" width="1" height="1" fill="#A8B5B2" />
<rect x="74" y="80" width="1" height="1" fill="#819796" />
<rect x="75" y="80" width="1" height="1" fill="#577277" />
<rect x="76" y="80" width="1" height="1" fill="#151D28" />
<rect x="77" y="80" width="1" height="1" fill="#202E37" />
<rect x="78" y="80" width="1" height="1" fill="#202E37" />
<rect x="79" y="80" width="1" height="1" fill="#151D28" />
<rect x="80" y="80" width="1" height="1" fill="#7A4841" opacity="0.996078" />
<rect x="81" y="80" width="1" height="1" fill="#7A4841" opacity="0.996078" />
<rect x="82" y="80" width="1" height="1" fill="#7A4841" opacity="0.996078" />
<rect x="83" y="80" width="1" height="1" fill="#7A4841" opacity="0.996078" />
<rect x="84" y="80" width="1" height="1" fill="#7A4841" opacity="0.996078" />
<rect x="85" y="80" width="1" height="1" fill="#7B4942" opacity="0.996078" />
<rect x="87" y="80" width="1" height="1" fill="#394A50" />
<rect x="88" y="80" width="1" height="1" fill="#577277" />
<rect x="89" y="80" width="1" height="1" fill="#819796" />
<rect x="61" y="81" width="1" height="1" fill="#7A4841" opacity="0.996078" />
<rect x="62" y="81" width="1" height="1" fill="#7A4841" opacity="0.996078" />
<rect x="63" y="81" width="1" height="1" fill="#7A4841" opacity="0.996078" />
<rect x="64" y="81" width="1" height="1" fill="#7A4841" opacity="0.996078" />
<rect x="65" y="81" width="1" height="1" fill="#7A4841" opacity="0.996078" />
<rect x="66" y="81" width="1" height="1" fill="#7A4841" opacity="0.996078" />
<rect x="67" y="81" width="1" height="1" fill="#7A4841" opacity="0.996078" />
<rect x="68" y="81" width="1" height="1" fill="#151D28" />
<rect x="69" y="81" width="1" height="1" fill="#202E37" />
<rect x="70" y="81" width="1" height="1" fill="#202E37" />
<rect x="71" y="81" width="1" height="1" fill="#151D28" />
<rect x="72" y="81" width="1" height="1" fill="#C7CFCC" />
<rect x="73" y="81" width="1" height="1" fill="#A8B5B2" />
<rect x="74" y="81" width="1" height="1" fill="#819796" />
<rect x="75" y="81" width="1" height="1" fill="#577277" />
<rect x="76" y="81" width="1" height="1" fill="#202E37" />
<rect x="77" y="81" width="1" height="1" fill="#151D28" />
<rect x="78" y="81" width="1" height="1" fill="#151D28" />
<rect x="79" y="81" width="1" height="1" fill="#7A4841" opacity="0.996078" />
<rect x="80" y="81" width="1" height="1" fill="#7A4841" opacity="0.996078" />
<rect x="81" y="81" width="1" height="1" fill="#7A4841" opacity="0.996078" />
<rect x="82" y="81" width="1" height="1" fill="#7A4841" opacity="0.996078" />
<rect x="83" y="81" width="1" height="1" fill="#7A4841" opacity="0.996078" />
<rect x="87" y="81" width="1" height="1" fill="#394A50" />
<rect x="88" y="81" width="1" height="1" fill="#577277" />
<rect x="62" y="82" width="1" height="1" fill="#7A4841" opacity="0.996078" />
<rect x="63" y="82" width="1" height="1" fill="#7A4841" opacity="0.996078" />
<rect x="64" y="82" width="1" height="1" fill="#7A4841" opacity="0.996078" />
<rect x="65" y="82" width="1" height="1" fill="#7A4841" opacity="0.996078" />
<rect x="66" y="82" width="1" height="1" fill="#7A4841" opacity="0.996078" />
<rect x="67" y="82" width="1" height="1" fill="#7A4841" opacity="0.996078" />
<rect x="68" y="82" width="1" height="1" fill="#7A4841" opacity="0.996078" />
<rect x="69" y="82" width="1" height="1" fill="#151D28" />
<rect x="70" y="82" width="1" height="1" fill="#151D28" />
<rect x="71" y="82" width="1" height="1" fill="#202E37" />
<rect x="72" y="82" width="1" height="1" fill="#C7CFCC" />
<rect x="73" y="82" width="1" height="1" fill="#A8B5B2" />
<rect x="74" y="82" width="1" height="1" fill="#819796" />
<rect x="75" y="82" width="1" height="1" fill="#577277" />
<rect x="76" y="82" width="1" height="1" fill="#151D28" />
<rect x="77" y="82" width="1" height="1" fill="#7A4841" opacity="0.996078" />
<rect x="78" y="82" width="1" height="1" fill="#7A4841" opacity="0.996078" />
<rect x="79" y="82" width="1" height="1" fill="#7A4841" opacity="0.996078" />
<rect x="80" y="82" width="1" height="1" fill="#7A4841" opacity="0.996078" />
<rect x="81" y="82" width="1" height="1" fill="#7A4841" opacity="0.996078" />
<rect x="64" y="83" width="1" height="1" fill="#7A4841" opacity="0.996078" />
<rect x="65" y="83" width="1" height="1" fill="#7A4841" opacity="0.996078" />
<rect x="66" y="83" width="1" height="1" fill="#7A4841" opacity="0.996078" />
<rect x="67" y="83" width="1" height="1" fill="#7A4841" opacity="0.996078" />
<rect x="68" y="83" width="1" height="1" fill="#7A4841" opacity="0.996078" />
<rect x="69" y="83" width="1" height="1" fill="#7A4841" opacity="0.996078" />
<rect x="70" y="83" width="1" height="1" fill="#7A4841" opacity="0.996078" />
<rect x="71" y="83" width="1" height="1" fill="#151D28" />
<rect x="72" y="83" width="1" height="1" fill="#C7CFCC" />
<rect x="73" y="83" width="1" height="1" fill="#A8B5B2" />
<rect x="74" y="83" width="1" height="1" fill="#819796" />
<rect x="75" y="83" width="1" height="1" fill="#577277" />
<rect x="76" y="83" width="1" height="1" fill="#7A4841" opacity="0.996078" />
<rect x="77" y="83" width="1" height="1" fill="#7A4841" opacity="0.996078" />
<rect x="78" y="83" width="1" height="1" fill="#7A4841" opacity="0.996078" />
<rect x="79" y="83" width="1" height="1" fill="#7A4841" opacity="0.996078" />
<rect x="80" y="83" width="1" height="1" fill="#7A4841" opacity="0.996078" />
<rect x="66" y="84" width="1" height="1" fill="#7A4841" opacity="0.996078" />
<rect x="67" y="84" width="1" height="1" fill="#7A4841" opacity="0.996078" />
<rect x="68" y="84" width="1" height="1" fill="#7A4841" opacity="0.996078" />
<rect x="69" y="84" width="1" height="1" fill="#7A4841" opacity="0.996078" />
<rect x="70" y="84" width="1" height="1" fill="#7A4841" opacity="0.996078" />
<rect x="71" y="84" width="1" height="1" fill="#7A4841" opacity="0.996078" />
<rect x="72" y="84" width="1" height="1" fill="#C7CFCC" />
<rect x="73" y="84" width="1" height="1" fill="#A8B5B2" />
<rect x="74" y="84" width="1" height="1" fill="#819796" />
<rect x="75" y="84" width="1" height="1" fill="#577277" />
<rect x="76" y="84" width="1" height="1" fill="#7A4841" opacity="0.996078" />
<rect x="77" y="84" width="1" height="1" fill="#7A4841" opacity="0.996078" />
<rect x="78" y="84" width="1" height="1" fill="#7A4841" opacity="0.996078" />
<rect x="67" y="85" width="1" height="1" fill="#7A4841" opacity="0.996078" />
<rect x="68" y="85" width="1" height="1" fill="#7A4841" opacity="0.996078" />
<rect x="69" y="85" width="1" height="1" fill="#7A4841" opacity="0.996078" />
<rect x="70" y="85" width="1" height="1" fill="#7A4841" opacity="0.996078" />
<rect x="71" y="85" width="1" height="1" fill="#7A4841" opacity="0.996078" />
<rect x="72" y="85" width="1" height="1" fill="#C7CFCC" />
<rect x="73" y="85" width="1" height="1" fill="#A8B5B2" />
<rect x="74" y="85" width="1" height="1" fill="#819796" />
<rect x="75" y="85" width="1" height="1" fill="#577277" />
<rect x="76" y="85" width="1" height="1" fill="#7A4841" opacity="0.996078" />
<rect x="77" y="85" width="1" height="1" fill="#7A4841" opacity="0.996078" />
<rect x="69" y="86" width="1" height="1" fill="#7A4841" opacity="0.996078" />
<rect x="70" y="86" width="1" height="1" fill="#7A4841" opacity="0.996078" />
<rect x="71" y="86" width="1" height="1" fill="#7A4841" opacity="0.996078" />
<rect x="72" y="86" width="1" height="1" fill="#C7CFCC" />
<rect x="73" y="86" width="1" height="1" fill="#A8B5B2" />
<rect x="74" y="86" width="1" height="1" fill="#819796" />
<rect x="75" y="86" width="1" height="1" fill="#577277" />
<rect x="70" y="87" width="1" height="1" fill="#7A4841" opacity="0.996078" />
<rect x="71" y="87" width="1" height="1" fill="#7A4841" opacity="0.996078" />
<rect x="72" y="87" width="1" height="1" fill="#C7CFCC" />
<rect x="73" y="87" width="1" height="1" fill="#A8B5B2" />
<rect x="74" y="87" width="1" height="1" fill="#819796" />
<rect x="75" y="87" width="1" height="1" fill="#577277" />
<rect x="72" y="88" width="1" height="1" fill="#C7CFCC" />
<rect x="73" y="88" width="1" height="1" fill="#A8B5B2" />
<rect x="74" y="88" width="1" height="1" fill="#819796" />
<rect x="75" y="88" width="1" height="1" fill="#577277" />
<rect x="73" y="89" width="1" height="1" fill="#A8B5B2" />
<rect x="74" y="89" width="1" height="1" fill="#819796" />
</svg>